<svg width="43" height="43" viewBox="0 0 43 43" fill="none" xmlns="http://www.w3.org/2000/svg">
<path fill-rule="evenodd" clip-rule="evenodd" d="M22.0227 3.68913C21.6885 3.54804 21.3115 3.54804 20.9773 3.68913L0.821069 12.1996C0.323443 12.4097 0 12.8973 0 13.4375C0 13.9776 0.323443 14.4653 0.821069 14.6754L7.61458 17.5438V24.3586C6.74349 24.5845 5.91675 25.0347 5.23669 25.7148C4.19971 26.7517 3.58333 28.2415 3.58333 30.0662V38.1287C3.58333 38.5753 3.81257 39.0011 4.1837 39.2481C4.28962 39.3183 4.39405 39.3785 4.57801 39.4705C4.79944 39.5813 5.11012 39.7182 5.5099 39.8515C6.31135 40.1187 7.46247 40.3684 8.95833 40.3684C10.4541 40.3684 11.6052 40.1188 12.4066 39.8517C12.8064 39.7184 13.1171 39.5816 13.3385 39.4709C13.512 39.3842 13.6134 39.3246 13.7146 39.2604C14.0935 39.0138 14.3333 38.5824 14.3333 38.129V30.0665C14.3333 28.2418 13.717 26.7519 12.68 25.7149C11.9999 25.0348 11.1732 24.5845 10.3021 24.3587V18.6785L20.9773 23.1858C21.3115 23.3269 21.6885 23.3269 22.0227 23.1858L31.3542 19.2458V26.4166C31.3136 26.4622 31.2667 26.513 31.2131 26.5682C30.9237 26.8658 30.4361 27.2939 29.6914 27.7334C28.2112 28.607 25.652 29.5625 21.5 29.5625C20.4034 29.5625 19.4187 29.4958 18.5366 29.3819C17.8006 29.2869 17.1269 29.8066 17.0319 30.5426C16.9369 31.2786 17.4566 31.9523 18.1926 32.0473C19.1945 32.1766 20.2943 32.25 21.5 32.25C26.0824 32.25 29.1222 31.1899 31.0574 30.0479C32.0204 29.4795 32.6946 28.8997 33.14 28.4416C33.397 28.1772 33.6499 27.8932 33.8434 27.5775L33.8446 27.5757C33.9735 27.3647 34.0417 27.1222 34.0417 26.875V18.1111L42.1789 14.6754C42.6766 14.4653 43 13.9776 43 13.4375C43 12.8973 42.6766 12.4097 42.1789 12.1996L22.0227 3.68913ZM8.95821 26.875C8.95818 26.875 8.95825 26.875 8.95821 26.875C8.28282 26.875 7.62436 27.1278 7.13701 27.6151C6.66227 28.0899 6.27083 28.8675 6.27083 30.0662V37.2714C6.80636 37.46 7.69926 37.6809 8.95833 37.6809C10.2174 37.6809 11.1103 37.4601 11.6458 37.2716V30.0665C11.6458 28.8677 11.2544 28.09 10.7796 27.6152C10.2922 27.1278 9.63364 26.875 8.95821 26.875ZM21.5 20.4893L4.79837 13.4375L21.5 6.38568L38.2016 13.4375L21.5 20.4893Z" fill="#1A6AFF"/>
</svg>
