<svg width="44" height="43" viewBox="0 0 44 43" fill="none" xmlns="http://www.w3.org/2000/svg">
<path fill-rule="evenodd" clip-rule="evenodd" d="M29.1321 5.23886L8.24488 23.401C8.17579 23.4608 8.12666 23.5403 8.10406 23.6289C8.08147 23.7174 8.0865 23.8108 8.11848 23.8964C8.15046 23.982 8.20786 24.0557 8.28297 24.1078C8.35809 24.1598 8.44733 24.1877 8.53871 24.1875H18.3033C18.525 24.1873 18.7434 24.242 18.9389 24.3466C19.1344 24.4513 19.3009 24.6027 19.4237 24.7874C19.5465 24.9721 19.6216 25.1842 19.6425 25.405C19.6633 25.6258 19.6292 25.8483 19.5431 26.0527L14.9583 36.9209L35.0518 19.5991C35.1209 19.5393 35.17 19.4597 35.1926 19.3712C35.2152 19.2826 35.2102 19.1893 35.1782 19.1037C35.1462 19.0181 35.0888 18.9443 35.0137 18.8923C34.9386 18.8402 34.8493 18.8124 34.758 18.8125H25.2478C25.0247 18.8124 24.8052 18.7568 24.609 18.6506C24.4128 18.5445 24.2462 18.3912 24.124 18.2045C24.0019 18.0178 23.9282 17.8037 23.9095 17.5814C23.8908 17.3592 23.9277 17.1357 24.0169 16.9313L29.1321 5.23886ZM28.3223 2.38116C28.7339 2.02233 29.2556 1.81445 29.8012 1.79175C30.3468 1.76905 30.8838 1.9329 31.3239 2.2563C31.7639 2.5797 32.0806 3.04334 32.2219 3.57085C32.3631 4.09835 32.3205 4.65823 32.1009 5.15824L27.3028 16.125H34.758C37.6658 16.125 39.0078 19.737 36.8058 21.6344L14.6805 40.7085C14.329 41.0129 13.8847 41.1893 13.4201 41.2089C12.9555 41.2286 12.4979 41.0903 12.1219 40.8167C11.7458 40.5431 11.4735 40.1503 11.3493 39.7022C11.225 39.254 11.2562 38.777 11.4376 38.3489L16.2823 26.875H8.53871C5.638 26.875 4.29246 23.2774 6.48188 21.3746L28.3223 2.38295V2.38116Z" fill="#1A6AFF"/>
</svg>
