<svg width="43" height="44" viewBox="0 0 43 44" fill="none" xmlns="http://www.w3.org/2000/svg">
<path fill-rule="evenodd" clip-rule="evenodd" d="M28.6666 22C28.6666 25.958 25.458 29.1667 21.5 29.1667C17.5419 29.1667 14.3333 25.958 14.3333 22C14.3333 18.042 17.5419 14.8333 21.5 14.8333C25.458 14.8333 28.6666 18.042 28.6666 22ZM25.9791 22C25.9791 24.4738 23.9737 26.4792 21.5 26.4792C19.0262 26.4792 17.0208 24.4738 17.0208 22C17.0208 19.5262 19.0262 17.5208 21.5 17.5208C23.9737 17.5208 25.9791 19.5262 25.9791 22Z" fill="#EB5757"/>
<path fill-rule="evenodd" clip-rule="evenodd" d="M21.5 2.29167C21.0201 2.29167 20.544 2.30885 20.0723 2.34265C18.7043 2.44067 17.6616 3.4468 17.3627 4.67777L16.732 7.27556C16.6979 7.41575 16.5716 7.58404 16.33 7.67122C15.8846 7.83194 15.4489 8.01279 15.0241 8.21268C14.792 8.32187 14.5837 8.29234 14.4604 8.21723L12.1773 6.8262C11.096 6.16742 9.64813 6.19287 8.61144 7.08974C7.8898 7.71404 7.21399 8.38985 6.58969 9.11148C5.69283 10.1482 5.66738 11.5961 6.32615 12.6773L7.71719 14.9605C7.7923 15.0837 7.82182 15.292 7.71263 15.5241C7.51275 15.949 7.33189 16.3847 7.17117 16.83C7.08399 17.0716 6.9157 17.198 6.77551 17.232L4.17773 17.8628C2.94676 18.1617 1.94063 19.2043 1.8426 20.5724C1.8088 21.0441 1.79163 21.5201 1.79163 22C1.79163 22.4799 1.8088 22.9559 1.8426 23.4276C1.94063 24.7957 2.94676 25.8384 4.17773 26.1372L6.77551 26.768C6.9157 26.802 7.08399 26.9284 7.17117 27.17C7.33189 27.6153 7.51275 28.051 7.71263 28.4759C7.82182 28.708 7.7923 28.9163 7.71719 29.0396L6.32615 31.3227C5.66738 32.4039 5.69283 33.8518 6.58969 34.8885C7.21399 35.6102 7.8898 36.286 8.61144 36.9103C9.64814 37.8071 11.096 37.8326 12.1773 37.1738L14.4604 35.7828C14.5837 35.7077 14.792 35.6781 15.0241 35.7873C15.4489 35.9872 15.8846 36.1681 16.33 36.3288C16.5716 36.416 16.6979 36.5843 16.732 36.7244L17.3627 39.3222C17.6616 40.5532 18.7043 41.5593 20.0723 41.6574C20.544 41.6912 21.0201 41.7083 21.5 41.7083C21.9798 41.7083 22.4559 41.6912 22.9276 41.6574C24.2956 41.5593 25.3383 40.5532 25.6372 39.3222L26.2679 36.7244C26.302 36.5843 26.4283 36.416 26.6699 36.3288C27.1153 36.1681 27.551 35.9872 27.9759 35.7873C28.208 35.6781 28.4162 35.7077 28.5395 35.7828L30.8226 37.1738C31.9039 37.8326 33.3518 37.8071 34.3885 36.9103C35.1101 36.286 35.7859 35.6102 36.4102 34.8885C37.3071 33.8518 37.3325 32.4039 36.6738 31.3227L35.2827 29.0395C35.2076 28.9163 35.1781 28.708 35.2873 28.4759C35.4872 28.051 35.668 27.6153 35.8287 27.17C35.9159 26.9284 36.0842 26.802 36.2244 26.768L38.8222 26.1372C40.0532 25.8384 41.0593 24.7957 41.1573 23.4276C41.1911 22.9559 41.2083 22.4799 41.2083 22C41.2083 21.5201 41.1911 21.0441 41.1573 20.5724C41.0593 19.2043 40.0532 18.1617 38.8222 17.8628L36.2244 17.232C36.0842 17.198 35.9159 17.0716 35.8287 16.83C35.668 16.3847 35.4872 15.949 35.2873 15.5241C35.1781 15.292 35.2076 15.0837 35.2827 14.9605L36.6738 12.6773C37.3325 11.5961 37.3071 10.1482 36.4102 9.11148C35.7859 8.38985 35.1101 7.71403 34.3885 7.08974C33.3518 6.19287 31.9039 6.16743 30.8226 6.8262L28.5395 8.21723C28.4162 8.29234 28.208 8.32187 27.9759 8.21268C27.551 8.01279 27.1153 7.83193 26.6699 7.67122C26.4283 7.58404 26.302 7.41575 26.2679 7.27556L25.6372 4.67778C25.3383 3.4468 24.2956 2.44067 22.9276 2.34265C22.4559 2.30885 21.9798 2.29167 21.5 2.29167ZM20.2644 5.02327C20.6722 4.99405 21.0842 4.97917 21.5 4.97917C21.9157 4.97917 22.3277 4.99405 22.7355 5.02327C22.835 5.0304 22.9773 5.1131 23.0256 5.31188L23.6563 7.90966C23.929 9.03286 24.7764 9.84503 25.7577 10.1992C26.1239 10.3313 26.4822 10.4801 26.8318 10.6445C27.7765 11.0889 28.9505 11.1139 29.9378 10.5123L32.2209 9.12127C32.3956 9.01489 32.5547 9.05692 32.6302 9.12221C33.2539 9.66185 33.8381 10.246 34.3778 10.8698C34.443 10.9453 34.4851 11.1044 34.3787 11.279L32.9877 13.5621C32.3861 14.5495 32.411 15.7235 32.8554 16.6681C33.0199 17.0177 33.1687 17.3761 33.3008 17.7423C33.6549 18.7236 34.4671 19.5709 35.5903 19.8437L38.1881 20.4744C38.3869 20.5227 38.4696 20.665 38.4767 20.7644C38.5059 21.1723 38.5208 21.5843 38.5208 22C38.5208 22.4157 38.5059 22.8277 38.4767 23.2356C38.4696 23.3351 38.3869 23.4773 38.1881 23.5256L35.5903 24.1564C34.4671 24.4291 33.6549 25.2764 33.3008 26.2577C33.1687 26.6239 33.0199 26.9823 32.8554 27.3319C32.411 28.2765 32.3861 29.4505 32.9877 30.4379L34.3787 32.721C34.4851 32.8956 34.443 33.0547 34.3778 33.1302C33.8381 33.754 33.2539 34.3382 32.6302 34.8778C32.5547 34.9431 32.3956 34.9851 32.2209 34.8787L29.9378 33.4877C28.9505 32.8862 27.7765 32.9111 26.8318 33.3555C26.4822 33.5199 26.1239 33.6687 25.7577 33.8009C24.7763 34.155 23.929 34.9672 23.6563 36.0903L23.0256 38.6881C22.9773 38.8869 22.835 38.9696 22.7355 38.9767C22.3277 39.006 21.9157 39.0208 21.5 39.0208C21.0842 39.0208 20.6722 39.006 20.2644 38.9767C20.1649 38.9696 20.0226 38.8869 19.9743 38.6881L19.3436 36.0903C19.0709 34.9672 18.2236 34.155 17.2422 33.8009C16.876 33.6687 16.5177 33.5199 16.1681 33.3555C15.2234 32.9111 14.0494 32.8862 13.0621 33.4877L10.779 34.8787C10.6044 34.9851 10.4452 34.9431 10.3698 34.8778C9.74599 34.3382 9.1618 33.754 8.62216 33.1302C8.55687 33.0547 8.51484 32.8956 8.62123 32.721L10.0123 30.4379C10.6138 29.4505 10.5889 28.2765 10.1445 27.3319C9.98001 26.9823 9.83126 26.6239 9.69911 26.2577C9.34498 25.2764 8.53281 24.4291 7.40961 24.1564L4.81183 23.5256C4.61306 23.4773 4.53036 23.3351 4.52323 23.2356C4.494 22.8277 4.47913 22.4157 4.47913 22C4.47913 21.5843 4.494 21.1723 4.52323 20.7644C4.53036 20.665 4.61306 20.5227 4.81183 20.4744L7.40962 19.8437C8.53281 19.5709 9.34498 18.7236 9.69911 17.7423C9.83126 17.3761 9.98001 17.0177 10.1445 16.6681C10.5889 15.7235 10.6138 14.5495 10.0123 13.5621L8.62123 11.279C8.51484 11.1044 8.55687 10.9453 8.62216 10.8698C9.1618 10.246 9.74599 9.66185 10.3698 9.12221C10.4452 9.05692 10.6044 9.01489 10.779 9.12127L13.0621 10.5123C14.0494 11.1139 15.2234 11.0889 16.1681 10.6445C16.5177 10.4801 16.876 10.3313 17.2422 10.1992C18.2236 9.84503 19.0709 9.03286 19.3436 7.90966L19.9743 5.31188C20.0226 5.1131 20.1649 5.0304 20.2644 5.02327Z" fill="#EB5757"/>
</svg>
