<svg width="43" height="44" viewBox="0 0 43 44" fill="none" xmlns="http://www.w3.org/2000/svg">
<path fill-rule="evenodd" clip-rule="evenodd" d="M22.0227 4.18916C21.6885 4.04806 21.3115 4.04806 20.9773 4.18916L0.821069 12.6996C0.323443 12.9097 0 13.3973 0 13.9375C0 14.4777 0.323443 14.9653 0.821069 15.1754L7.61458 18.0438V24.8586C6.7435 25.0845 5.91675 25.5347 5.23669 26.2148C4.19971 27.2517 3.58333 28.7416 3.58333 30.5662V38.6287C3.58333 39.0754 3.81257 39.5011 4.1837 39.7481C4.28962 39.8183 4.39405 39.8786 4.57801 39.9706C4.79944 40.0813 5.11012 40.2182 5.5099 40.3515C6.31135 40.6187 7.46247 40.8685 8.95833 40.8685C10.4541 40.8685 11.6052 40.6188 12.4066 40.3517C12.8064 40.2185 13.1171 40.0816 13.3385 39.9709C13.512 39.8842 13.6134 39.8247 13.7146 39.7605C14.0935 39.5138 14.3333 39.0824 14.3333 38.629V30.5665C14.3333 28.7418 13.717 27.2519 12.68 26.2149C11.9999 25.5348 11.1732 25.0845 10.3021 24.8587V19.1785L20.9773 23.6858C21.3115 23.8269 21.6885 23.8269 22.0227 23.6858L31.3542 19.7459V26.9166C31.3136 26.9623 31.2667 27.013 31.2131 27.0682C30.9237 27.3659 30.4361 27.7939 29.6914 28.2334C28.2112 29.107 25.652 30.0625 21.5 30.0625C20.4034 30.0625 19.4187 29.9958 18.5366 29.8819C17.8006 29.7869 17.1269 30.3066 17.0319 31.0426C16.9369 31.7786 17.4566 32.4523 18.1926 32.5473C19.1945 32.6767 20.2943 32.75 21.5 32.75C26.0824 32.75 29.1222 31.6899 31.0574 30.5479C32.0204 29.9795 32.6946 29.3998 33.14 28.9416C33.397 28.6772 33.6499 28.3933 33.8434 28.0775L33.8446 28.0757C33.9735 27.8647 34.0417 27.6223 34.0417 27.375V18.6111L42.1789 15.1754C42.6766 14.9653 43 14.4777 43 13.9375C43 13.3973 42.6766 12.9097 42.1789 12.6996L22.0227 4.18916ZM8.95821 27.375C8.95818 27.375 8.95825 27.375 8.95821 27.375C8.28282 27.375 7.62436 27.6278 7.13701 28.1152C6.66227 28.5899 6.27083 29.3676 6.27083 30.5662V37.7714C6.80636 37.96 7.69926 38.181 8.95833 38.181C10.2174 38.181 11.1103 37.9601 11.6458 37.7716V30.5665C11.6458 29.3678 11.2544 28.59 10.7796 28.1153C10.2922 27.6279 9.63364 27.375 8.95821 27.375ZM21.5 20.9893L4.79837 13.9375L21.5 6.8857L38.2016 13.9375L21.5 20.9893Z" fill="#EB5757"/>
</svg>
