<svg width="43" height="44" viewBox="0 0 43 44" fill="none" xmlns="http://www.w3.org/2000/svg">
<path fill-rule="evenodd" clip-rule="evenodd" d="M36.4094 1.84375C31.4993 1.84375 26.7745 3.71903 23.2009 7.08629L20.8637 9.28858C19.8983 10.1982 18.9767 11.1518 18.1017 12.1461H9.07693C7.97557 12.1461 6.95497 12.7239 6.38833 13.6683L1.53525 21.7568C1.31165 22.1294 1.28209 22.5872 1.45589 22.9855C1.6297 23.3839 1.98541 23.6735 2.41068 23.7631L10.6016 25.4875C10.6709 25.5757 10.7476 25.6597 10.8316 25.7385L14.4077 29.0945L17.7616 32.6685C17.8404 32.7525 17.9245 32.8292 18.0127 32.8986L19.7372 41.0895C19.8267 41.5148 20.1164 41.8705 20.5147 42.0443C20.913 42.2181 21.3708 42.1886 21.7434 41.965L29.8319 37.1119C30.7763 36.5452 31.3542 35.5247 31.3542 34.4233V25.3979C32.3488 24.5224 33.3028 23.6003 34.2128 22.6343L36.4131 20.2987C39.7808 16.7238 41.6557 11.9974 41.6542 7.0861L41.6536 4.97825C41.6531 3.24696 40.2495 1.84375 38.5182 1.84375H36.4094ZM28.6667 27.576C28.0707 28.0202 27.4628 28.4489 26.8436 28.8617L20.7627 32.9156L21.9784 38.6899L28.4492 34.8074C28.5841 34.7264 28.6667 34.5806 28.6667 34.4233V27.576ZM10.5845 22.7374L14.6397 16.6546C15.052 16.0362 15.4802 15.4289 15.9238 14.8336H9.07693C8.91959 14.8336 8.77379 14.9161 8.69284 15.051L4.81035 21.5218L10.5845 22.7374ZM25.044 9.04228C28.1189 6.14486 32.1844 4.53125 36.4094 4.53125H38.5182C38.7655 4.53125 38.966 4.73171 38.9661 4.97904L38.9667 7.08689C38.968 11.3129 37.3547 15.3798 34.4569 18.4558L32.2566 20.7915C30.184 22.9916 27.8678 24.9489 25.3528 26.6256L19.4618 30.5529L16.3382 27.2243C16.3188 27.2036 16.2986 27.1835 16.2779 27.164L12.9472 24.0383L16.8758 18.1454C18.5517 15.6316 20.5079 13.3165 22.7067 11.2446L25.044 9.04228ZM31.3542 14.8333C31.3542 16.3176 30.1509 17.5208 28.6667 17.5208C27.1824 17.5208 25.9792 16.3176 25.9792 14.8333C25.9792 13.3491 27.1824 12.1458 28.6667 12.1458C30.1509 12.1458 31.3542 13.3491 31.3542 14.8333ZM11.6458 38.125C13.258 36.5128 13.2581 33.4665 11.6458 31.8543C10.0336 30.242 6.98717 30.242 5.37496 31.8542C3.20921 34.02 2.78602 38.8439 2.70571 40.3525C2.69226 40.6052 2.89484 40.8077 3.1475 40.7943C4.65613 40.7139 9.48039 40.2904 11.6458 38.125Z" fill="#EB5757"/>
</svg>
