<svg width="43" height="44" viewBox="0 0 43 44" fill="none" xmlns="http://www.w3.org/2000/svg">
<path fill-rule="evenodd" clip-rule="evenodd" d="M28.9677 5.73883L8.08045 23.901C8.01136 23.9608 7.96223 24.0403 7.93963 24.1288C7.91704 24.2174 7.92207 24.3107 7.95405 24.3963C7.98603 24.4819 8.04343 24.5557 8.11855 24.6078C8.19366 24.6598 8.2829 24.6876 8.37428 24.6875H18.1389C18.3606 24.6873 18.579 24.7419 18.7745 24.8466C18.97 24.9513 19.1365 25.1027 19.2593 25.2874C19.382 25.472 19.4572 25.6842 19.478 25.905C19.4989 26.1258 19.4647 26.3482 19.3787 26.5526L14.7938 37.4209L34.8874 20.099C34.9565 20.0392 35.0056 19.9597 35.0282 19.8712C35.0508 19.7826 35.0458 19.6893 35.0138 19.6037C34.9818 19.5181 34.9244 19.4443 34.8493 19.3922C34.7742 19.3402 34.6849 19.3124 34.5935 19.3125H25.0834C24.8603 19.3124 24.6408 19.2567 24.4446 19.1506C24.2484 19.0444 24.0817 18.8911 23.9596 18.7045C23.8375 18.5178 23.7637 18.3037 23.745 18.0814C23.7263 17.8591 23.7633 17.6357 23.8525 17.4312L28.9677 5.73883V5.73883ZM28.1579 2.88113C28.5695 2.5223 29.0911 2.31442 29.6367 2.29172C30.1823 2.26902 30.7194 2.43287 31.1594 2.75627C31.5995 3.07967 31.9162 3.54331 32.0575 4.07082C32.1987 4.59832 32.156 5.1582 31.9365 5.65821L27.1384 16.625H34.5935C37.5014 16.625 38.8434 20.237 36.6414 22.1344L14.5161 41.2085C14.1645 41.5128 13.7203 41.6892 13.2557 41.7089C12.791 41.7285 12.3335 41.5903 11.9574 41.3167C11.5814 41.0431 11.3091 40.6502 11.1849 40.2021C11.0606 39.754 11.0917 39.277 11.2732 38.8488L16.1179 27.375H8.37428C5.47357 27.375 4.12803 23.7773 6.31745 21.8746L28.1579 2.88292V2.88113Z" fill="#EB5757"/>
</svg>
