<svg width="43" height="43" viewBox="0 0 43 43" fill="none" xmlns="http://www.w3.org/2000/svg">
<path fill-rule="evenodd" clip-rule="evenodd" d="M21.0521 1.79166C21.7943 1.79166 22.3959 2.39328 22.3959 3.13541V7.16665L34.0991 7.16666C34.851 7.16667 35.578 7.43693 36.1473 7.92817L41.8578 12.8553C43.3073 14.1059 43.3073 16.3524 41.8578 17.6031L36.1473 22.5302C35.578 23.0214 34.851 23.2917 34.099 23.2917L22.3959 23.2916V39.8646C22.3959 40.6067 21.7943 41.2083 21.0521 41.2083C20.31 41.2083 19.7084 40.6067 19.7084 39.8646V23.2916L6.71878 23.2916C4.98714 23.2916 3.58337 21.8878 3.58337 20.1562V10.302C3.58337 8.5704 4.98715 7.16662 6.7188 7.16662L19.7084 7.16664V3.13541C19.7084 2.39328 20.31 1.79166 21.0521 1.79166ZM21.0521 9.85416L21.0594 9.85414L34.0991 9.85417C34.2065 9.85417 34.3103 9.89277 34.3917 9.96295L40.1021 14.89C40.3092 15.0687 40.3092 15.3896 40.1021 15.5683L34.3917 20.4954C34.3103 20.5656 34.2065 20.6042 34.0991 20.6042L6.71879 20.6041C6.47141 20.6041 6.27087 20.4035 6.27087 20.1562L6.27087 10.302C6.27087 10.0547 6.47141 9.85412 6.71879 9.85412L21.0449 9.85414L21.0521 9.85416Z" fill="#1A6AFF"/>
</svg>
