<svg width="43" height="43" viewBox="0 0 43 43" fill="none" xmlns="http://www.w3.org/2000/svg">
<path d="M6.05661 14.3333C8.7627 8.51206 14.6619 4.47916 21.5 4.47916C29.4665 4.47916 36.1578 9.95353 38.011 17.3475C38.1914 18.0674 38.9213 18.5047 39.6411 18.3243C40.361 18.1438 40.7983 17.414 40.6179 16.6941C38.4722 8.13307 30.7283 1.79166 21.5 1.79166C14.2393 1.79166 7.89813 5.71751 4.47913 11.5591V8.51041C4.47913 7.76827 3.87751 7.16666 3.13538 7.16666C2.39324 7.16666 1.79163 7.76827 1.79163 8.51041V15.2292C1.79163 16.2187 2.59378 17.0208 3.58329 17.0208H10.302C11.0442 17.0208 11.6458 16.4192 11.6458 15.6771C11.6458 14.9349 11.0442 14.3333 10.302 14.3333H6.05661Z" fill="#1A6AFF"/>
<path d="M4.98896 25.6525C4.80854 24.9326 4.07871 24.4953 3.35884 24.6757C2.63898 24.8561 2.20167 25.586 2.3821 26.3058C4.52781 34.8669 12.2717 41.2083 21.5 41.2083C28.7606 41.2083 35.1018 37.2825 38.5208 31.441V34.4896C38.5208 35.2317 39.1224 35.8333 39.8645 35.8333C40.6067 35.8333 41.2083 35.2317 41.2083 34.4896V27.7708C41.2083 26.7813 40.4061 25.9792 39.4166 25.9792H32.6979C31.9557 25.9792 31.3541 26.5808 31.3541 27.3229C31.3541 28.065 31.9557 28.6667 32.6979 28.6667H36.9434C34.2373 34.4879 28.3381 38.5208 21.5 38.5208C13.5334 38.5208 6.84216 33.0464 4.98896 25.6525Z" fill="#1A6AFF"/>
</svg>
