<svg width="43" height="43" viewBox="0 0 43 43" fill="none" xmlns="http://www.w3.org/2000/svg">
<path d="M17.0256 26.2283C16.5787 25.6419 15.7416 25.5248 15.1508 25.968C14.5696 26.4039 14.4514 27.2819 14.8895 27.8591C14.9331 27.9148 14.9774 27.9697 15.0234 28.0233C15.1016 28.1146 15.2115 28.2363 15.3533 28.3781C15.6362 28.661 16.0503 29.0281 16.5974 29.3928C17.6967 30.1257 19.3375 30.8503 21.5 30.8503C23.6625 30.8503 25.3032 30.1257 26.4026 29.3928C26.9497 29.0281 27.3638 28.661 27.6467 28.3781C27.7885 28.2363 27.8984 28.1146 27.9766 28.0233L28.1179 27.8492C28.5632 27.2555 28.4429 26.4133 27.8492 25.968C27.2583 25.5248 26.4213 25.6419 25.9744 26.2283L25.972 26.2312C25.9559 26.2513 25.88 26.344 25.7463 26.4777C25.5673 26.6568 25.2886 26.9055 24.9118 27.1567C24.1635 27.6555 23.0328 28.1628 21.5 28.1628C19.9672 28.1628 18.8364 27.6555 18.0881 27.1567C17.7114 26.9055 17.4327 26.6568 17.2536 26.4777C17.1741 26.3982 17.0957 26.3163 17.0256 26.2283Z" fill="#1A6AFF"/>
<path d="M28.6667 21.0521C29.9036 21.0521 30.9063 20.0494 30.9063 18.8125C30.9063 17.5756 29.9036 16.5729 28.6667 16.5729C27.4299 16.5729 26.4272 17.5756 26.4272 18.8125C26.4272 20.0494 27.4299 21.0521 28.6667 21.0521Z" fill="#1A6AFF"/>
<path d="M16.1251 18.8125C16.1251 20.0494 15.1224 21.0521 13.8855 21.0521C12.6486 21.0521 11.6459 20.0494 11.6459 18.8125C11.6459 17.5756 12.6486 16.5729 13.8855 16.5729C15.1224 16.5729 16.1251 17.5756 16.1251 18.8125Z" fill="#1A6AFF"/>
<path fill-rule="evenodd" clip-rule="evenodd" d="M21.5001 1.79166C10.6155 1.79166 1.79175 10.6154 1.79175 21.5C1.79175 32.3846 10.6155 41.2083 21.5001 41.2083C32.3847 41.2083 41.2084 32.3846 41.2084 21.5C41.2084 10.6154 32.3847 1.79166 21.5001 1.79166ZM21.5001 4.98306C12.378 4.98306 4.98315 12.3779 4.98315 21.5C4.98315 30.622 12.378 38.0169 21.5001 38.0169C30.6221 38.0169 38.017 30.622 38.017 21.5C38.017 12.3779 30.6221 4.98306 21.5001 4.98306Z" fill="#1A6AFF"/>
</svg>
