<svg width="43" height="43" viewBox="0 0 43 43" fill="none" xmlns="http://www.w3.org/2000/svg">
<path fill-rule="evenodd" clip-rule="evenodd" d="M0.730185 27.1078C-0.200905 25.4951 0.25845 23.438 1.78713 22.3746L30.527 2.38146C32.2221 1.20223 34.5605 1.69601 35.6342 3.45991L40.699 11.7809C41.8043 13.5967 41.0949 15.97 39.1745 16.8813L7.35057 31.9843C5.66361 32.7849 3.64463 32.1558 2.71099 30.5387L0.730185 27.1078ZM10.1613 19.8228L24.211 10.049L29.329 18.579L13.72 25.9867L10.1613 19.8228ZM7.94728 21.363L3.32186 24.5807C2.93969 24.8466 2.82485 25.3609 3.05762 25.7641L5.03843 29.1949C5.27183 29.5992 5.77658 29.7565 6.19833 29.5563L11.2842 27.1427L7.94728 21.363ZM31.7685 17.4213L26.4222 8.51079L32.0617 4.58764C32.4855 4.29283 33.0701 4.41628 33.3385 4.85725L38.4034 13.1783C38.6797 13.6322 38.5023 14.2255 38.0222 14.4534L31.7685 17.4213Z" fill="#1A6AFF"/>
<path d="M30.7356 40.9762C31.3604 40.5757 31.5421 39.7445 31.1416 39.1197L23.9748 27.9418C23.6143 27.3796 22.8956 27.1674 22.2875 27.4438L17.3605 29.6834C17.1278 29.7891 16.9301 29.9591 16.7906 30.1732L10.9678 39.1117C10.5627 39.7335 10.7384 40.5659 11.3603 40.971C11.9821 41.3761 12.8146 41.2004 13.2197 40.5786L18.8289 31.968L19.7434 31.5523V41.6567C19.7434 42.3988 20.3451 43.0004 21.0872 43.0004C21.8293 43.0004 22.4309 42.3988 22.4309 41.6567V30.513L28.8791 40.5702C29.2797 41.195 30.1109 41.3767 30.7356 40.9762Z" fill="#1A6AFF"/>
</svg>
