<svg width="43" height="43" viewBox="0 0 43 43" fill="none" xmlns="http://www.w3.org/2000/svg">
<path fill-rule="evenodd" clip-rule="evenodd" d="M22.5686 3.66044C20.2361 3.49546 18.4419 5.42634 18.4419 7.61328L18.4419 9.49897C18.4419 14.2768 15.1939 16.2807 13.471 17.0232C13.195 17.1422 12.8844 17.2177 12.5348 17.2591C12.4269 15.6252 11.0675 14.3333 9.40629 14.3333H6.71879C4.98715 14.3333 3.58337 15.7371 3.58337 17.4688V36.2813C3.58337 38.0129 4.98715 39.4167 6.71879 39.4167H9.40629C11.035 39.4167 12.3736 38.1749 12.527 36.5864C14.0293 36.6947 15.5143 37.1157 17.3486 37.6357C17.6945 37.7338 18.0527 37.8353 18.4259 37.939C21.0495 38.6678 24.183 39.4167 28.3578 39.4167C32.2789 39.4167 34.9759 39.0511 36.5702 36.9586C37.3262 35.9662 37.7331 34.7094 38.031 33.2851C38.2961 32.0173 38.5009 30.4718 38.7407 28.6627L38.8335 27.9639C39.4034 23.6897 39.4206 20.4748 38.4323 18.3009C37.9075 17.1463 37.1013 16.2838 36.0059 15.7355C34.9466 15.2053 33.7055 15.013 32.3582 15.013H28.6837C28.7147 14.7695 28.7492 14.5129 28.7854 14.244C28.829 13.9196 28.875 13.5768 28.9203 13.2181C29.0292 12.3536 29.1301 11.4166 29.1301 10.6419C29.1301 8.41241 28.7331 6.60594 27.4819 5.37241C26.2562 4.16407 24.4937 3.79661 22.5686 3.66044ZM12.5417 33.895C14.4388 34.0095 16.2661 34.5308 18.1277 35.0618C18.4655 35.1582 18.8045 35.2549 19.1452 35.3495C21.665 36.0495 24.5319 36.7292 28.3578 36.7292C32.4374 36.7292 33.7408 36.2376 34.4324 35.3299C34.8193 34.8221 35.1268 34.043 35.4004 32.7349C35.6436 31.5722 35.8341 30.1361 36.0779 28.2983L36.1695 27.6087C36.7426 23.3107 36.6212 20.8109 35.9857 19.4131C35.6987 18.7817 35.3132 18.3941 34.803 18.1388C34.2566 17.8653 33.4783 17.7005 32.3582 17.7005H28.1106C26.8902 17.7005 25.7944 16.6779 25.9408 15.3202C25.9879 14.8842 26.0583 14.3589 26.1297 13.8266C26.1723 13.5084 26.2154 13.1874 26.2539 12.8819C26.3627 12.0191 26.4426 11.231 26.4426 10.6419C26.4426 8.62698 26.0612 7.74574 25.5951 7.28625C25.1035 6.80158 24.2097 6.47074 22.379 6.34125C21.7505 6.29679 21.1294 6.83186 21.1294 7.61331L21.1294 9.49898C21.1294 15.8585 16.6714 18.5704 14.5347 19.4913C13.8686 19.7783 13.1856 19.9077 12.5417 19.9583V33.895ZM6.71879 36.7292C6.47141 36.7292 6.27087 36.5286 6.27087 36.2813V17.4688C6.27087 17.2214 6.47141 17.0208 6.71879 17.0208H9.40629C9.65367 17.0208 9.85421 17.2214 9.85421 17.4688V36.2813C9.85421 36.5286 9.65367 36.7292 9.40629 36.7292H6.71879Z" fill="#1A6AFF"/>
</svg>
