<svg width="43" height="43" viewBox="0 0 43 43" fill="none" xmlns="http://www.w3.org/2000/svg">
<path fill-rule="evenodd" clip-rule="evenodd" d="M22.5685 39.3396C20.236 39.5046 18.4418 37.5737 18.4418 35.3868L18.4417 33.5011C18.4417 28.7233 15.1938 26.7194 13.4709 25.9768C13.1948 25.8579 12.8843 25.7823 12.5347 25.741C12.4268 27.3749 11.0673 28.6667 9.40617 28.6667H6.71867C4.98703 28.6667 3.58325 27.2629 3.58325 25.5313V6.71879C3.58325 4.98715 4.98703 3.58338 6.71867 3.58338H9.40617C11.0349 3.58338 12.3735 4.82518 12.5269 6.41361C14.0291 6.30531 15.5142 5.88432 17.3485 5.36433C17.6943 5.26628 18.0526 5.16471 18.4258 5.06105C21.0493 4.33228 24.1829 3.58333 28.3577 3.58333C32.2788 3.58333 34.9757 3.94894 36.57 6.04146C37.3261 7.03381 37.733 8.29062 38.0308 9.71494C38.296 10.9827 38.5008 12.5283 38.7405 14.3373L38.8333 15.0361C39.4033 19.3103 39.4204 22.5253 38.4322 24.6992C37.9073 25.8537 37.1012 26.7163 36.0057 27.2645C34.9465 27.7947 33.7054 27.9871 32.3581 27.9871H28.6836C28.7146 28.2305 28.7491 28.487 28.7852 28.7559C28.8288 29.0804 28.8749 29.423 28.9201 29.782C29.0291 30.6464 29.13 31.5835 29.13 32.3581C29.13 34.5876 28.733 36.3941 27.4818 37.6276C26.2561 38.836 24.4936 39.2034 22.5685 39.3396ZM12.5416 9.10504C14.4387 8.99051 16.266 8.46926 18.1276 7.93821C18.4654 7.84184 18.8044 7.74515 19.1451 7.6505C21.6648 6.95057 24.5318 6.27083 28.3577 6.27083C32.4373 6.27083 33.7407 6.76244 34.4323 7.67019C34.8192 8.17797 35.1267 8.95705 35.4003 10.2651C35.6435 11.4278 35.834 12.864 36.0778 14.7018L36.1694 15.3913C36.7425 19.6893 36.6211 22.1891 35.9856 23.587C35.6986 24.2183 35.313 24.6059 34.8029 24.8613C34.2565 25.1347 33.4781 25.2996 32.3581 25.2996H28.1105C26.8901 25.2996 25.7943 26.3221 25.9407 27.6798C25.9877 28.1159 26.0582 28.6412 26.1295 29.1734C26.1722 29.4917 26.2152 29.8125 26.2538 30.1181C26.3625 30.981 26.4425 31.7691 26.4425 32.3581C26.4425 34.3731 26.0611 35.2543 25.595 35.7138C25.1034 36.1985 24.2096 36.5293 22.3789 36.6588C21.7504 36.7033 21.1293 36.1682 21.1293 35.3867L21.1292 33.5011C21.1292 27.1415 16.6713 24.4297 14.5345 23.5088C13.8685 23.2217 13.1855 23.0924 12.5416 23.0417V9.10504ZM6.71867 6.27088C6.47129 6.27088 6.27075 6.47142 6.27075 6.71879V25.5313C6.27075 25.7787 6.47129 25.9792 6.71867 25.9792H9.40617C9.65355 25.9792 9.85409 25.7787 9.85409 25.5313V6.71879C9.85409 6.47142 9.65355 6.27088 9.40617 6.27088H6.71867Z" fill="#1A6AFF"/>
</svg>
