<svg width="550" height="209" viewBox="0 0 550 209" fill="none" xmlns="http://www.w3.org/2000/svg">
<ellipse cx="275.219" cy="169.4" rx="274.701" ry="38.7836" fill="#C4C4C4"/>
<path d="M113.046 152.798L103.656 153.209L103.999 159.378L111.881 163.216L115.925 167.397L130.455 177.266L162.393 189.672L182.338 184.326L186.999 191.522L191.933 188.849L199.747 179.528L222.844 186.245L246.49 176.992L257.593 166.711L313.246 165.546L356.288 164.587L380.893 158.487L391.516 149.783L390.146 100.915L419.754 64.8637L446.484 56.9818L448.266 47.7977L444.496 45.0562L429.761 48.8943L419.754 47.7977L411.735 50.0595L410.022 56.9818L381.304 78.0916L368.351 49.3056L373.697 37.0372L390.146 16.75L375.204 11.9523L362.593 26.2082L349.434 39.3675L355.671 50.4707L357.453 86.7959L341.826 99.3384L334.424 96.9396L305.158 78.0916L276.647 81.8052L267.805 94.6093L199.747 75.7739L154.923 84.7398L157.664 115.308L140.53 120.928L142.517 132.168L138.337 133.95L113.046 152.798Z" fill="white"/>
<path fill-rule="evenodd" clip-rule="evenodd" d="M164.401 120.589L165.346 133.146L183.303 137.666L197.007 144.195L207.876 154.24L213.074 149.72L219.69 134.15L227.251 132.643L254.66 135.657L264.111 138.67L260.803 155.747L257.495 168.303L312.312 164.787L310.422 135.657L299.081 109.037L254.187 85.9339L220.635 90.4542L197.007 118.078L186.611 124.105L168.181 123.1" fill="#699BF7"/>
<path fill-rule="evenodd" clip-rule="evenodd" d="M138.252 145.276C138.252 147.325 139.45 147.195 140.9 147.038C141.394 146.985 141.918 146.928 142.434 146.953C142.749 146.969 143.28 147.067 143.909 147.184C145.752 147.526 148.442 148.026 149.04 147.06C149.613 146.136 148.815 146.01 148.001 145.882C147.453 145.795 146.897 145.708 146.75 145.373C146.359 144.484 147.126 143.866 147.871 143.266C148.532 142.734 149.177 142.214 148.983 141.531C148.787 140.841 147.911 141.233 146.966 141.656C145.917 142.125 144.781 142.632 144.394 141.744C144.024 140.897 144.874 140.112 145.646 139.399C146.299 138.796 146.896 138.244 146.652 137.751C146.199 136.838 141.614 139.149 141.028 139.546C139.372 140.669 138.177 143.194 138.252 145.276ZM343.043 96.5771C343.747 97.3808 344.283 98.3279 344.814 99.2673C345.347 100.208 345.875 101.141 346.563 101.915C347.155 102.582 347.834 102.841 348.538 103.109C348.857 103.23 349.181 103.354 349.503 103.518C350.126 103.834 350.772 104.178 351.435 104.53C353.984 105.885 356.772 107.367 359.423 107.95C357.468 105.527 356.227 103.334 355.066 100.39C354.948 100.089 354.821 99.7841 354.692 99.4757C354.371 98.703 354.042 97.9115 353.82 97.1299C353.585 96.307 353.541 95.4588 353.496 94.6148C353.456 93.8528 353.415 93.0942 353.236 92.3606C353.135 91.9468 353.094 91.6273 353.063 91.3905L353.063 91.3894C353.027 91.1093 353.006 90.9453 352.918 90.8787C352.795 90.7844 352.541 90.8829 351.928 91.12L351.879 91.1388L351.804 91.1679L351.724 91.1986C351.192 91.4032 350.699 91.8388 350.218 92.2632C349.917 92.5295 349.621 92.7912 349.323 92.9892C348.402 93.6003 347.443 94.0834 346.487 94.5646C345.307 95.1588 344.132 95.7503 343.043 96.5771ZM432.534 53.0717C432.602 53.8326 442.279 50.1739 443.234 49.5026C445.02 48.2472 447.113 42.4699 445.213 40.7574C443.502 39.2161 439.742 41.0941 437.021 42.4538C436.094 42.917 435.287 43.32 434.723 43.5069C430.986 44.744 426.682 45.4405 422.787 45.0191C421.022 44.8275 419.283 44.6685 417.501 44.5517C417.201 44.5322 416.854 44.4824 416.484 44.4287C415.208 44.2448 413.652 44.0199 412.762 44.8647C411.676 45.8945 411.807 47.9445 412.36 49.2249C412.551 49.6666 412.781 49.9107 413.004 50.1463C413.198 50.3524 413.387 50.552 413.537 50.8715C413.578 50.9569 413.556 51.0665 413.53 51.1987C413.489 51.4082 413.436 51.6749 413.601 51.9929C414.339 53.4219 416.853 55.8098 418.206 56.5373C419.503 57.235 419.976 56.8055 420.697 56.1512C420.941 55.9297 421.214 55.6822 421.556 55.4443C423.912 53.8073 427.593 53.4989 430.684 53.2399C431.332 53.1855 431.955 53.1334 432.534 53.0717ZM410.129 53.5142C407.328 57.1373 404.033 59.6562 400.578 62.2974L400.577 62.2982C399.895 62.8204 399.205 63.3468 398.513 63.8881C397.576 64.6195 396.651 65.3661 395.726 66.1121L395.725 66.1128L395.724 66.1136C392.978 68.3284 390.237 70.5389 387.226 72.3426C386.901 72.5372 386.519 72.7096 386.132 72.8843C385.11 73.3456 384.049 73.8245 383.893 74.7788C383.759 75.609 384.69 77.3771 385.469 78.8563C385.851 79.5823 386.196 80.2385 386.361 80.6803C387.845 84.6501 388.988 88.711 390.139 92.8007C390.3 93.3716 390.461 93.9424 390.623 94.514L390.903 94.052C394.752 87.6943 398.652 81.2526 403.368 75.5086C407.631 70.3163 412.003 64.8834 415.73 59.2885C413.474 57.833 411.605 55.8259 410.129 53.5142ZM377.448 5.89153C373.499 5.72372 372.295 9.1384 371.142 12.4079C370.69 13.6921 370.245 14.954 369.645 15.9674C368.469 17.953 366.904 20.085 365.167 21.5707C363.851 22.6959 362.271 23.3595 360.697 24.0211C359.924 24.3456 359.153 24.6701 358.415 25.0479C356.382 26.0872 354.576 27.1289 353.308 29.1345C353.188 29.3253 353.053 29.5272 352.912 29.7375C352.032 31.0547 350.923 32.7147 351.555 34.2567C351.994 35.3268 353.189 36.2102 354.361 37.0776C355.192 37.6921 356.012 38.2985 356.545 38.9579C358.065 40.8405 358.28 40.7861 359.995 40.349C360.274 40.2777 360.593 40.1969 360.963 40.1122C362.285 39.8099 363.542 39.7157 364.894 39.7659C365.058 39.7716 365.339 39.8272 365.665 39.8911C366.426 40.0409 367.432 40.239 367.771 39.9724C368.182 39.6498 368.054 38.6545 367.943 37.7894C367.886 37.3457 367.833 36.9362 367.86 36.6688C367.98 35.4693 368.382 34.2314 368.764 33.1005C370.056 29.2655 372.342 26.5462 374.724 23.7131L374.726 23.7108L374.728 23.7081L374.731 23.7051L374.733 23.7024C375.137 23.222 375.544 22.7377 375.949 22.2446C377.43 20.4421 379.18 18.9047 380.929 17.3688C382.725 15.7919 384.519 14.2165 386.017 12.3573C387.649 10.331 386.906 8.89857 384.666 7.94998C384.034 7.68257 383.342 7.56419 382.651 7.44619C382.098 7.35156 381.545 7.25693 381.026 7.08607C380.616 6.95121 380.221 6.7723 379.828 6.59377C379.062 6.24628 378.303 5.90187 377.448 5.89153ZM163.6 148.958C164.37 148.958 165.135 148.625 165.89 148.296C166.706 147.94 167.51 147.59 168.3 147.667C168.681 147.705 169.109 148.088 169.515 148.45C169.776 148.683 170.028 148.907 170.251 149.026C171.06 149.455 171.934 149.669 172.826 149.786C173.415 149.863 173.933 149.864 174.412 149.864C175.516 149.865 176.414 149.866 177.494 150.801C178.625 151.779 179.793 153.013 180.878 154.16C181.128 154.424 181.373 154.683 181.613 154.933C183.599 157.01 185.329 159.493 187.026 161.928C187.667 162.847 188.303 163.758 188.945 164.639C191.842 168.607 194.85 171.758 198.703 174.73C201.747 177.078 204.831 178.623 208.26 180.34L208.573 180.497C212.059 182.244 216.444 184.271 220.399 184.367C223.554 184.444 227.498 183.371 230.369 181.945C231.746 181.261 232.4 181.141 233.524 180.936C233.763 180.893 234.024 180.845 234.317 180.788C236.819 180.296 239.702 178.905 242.058 177.769L242.313 177.646C249.853 174.012 254.63 166.092 258.03 158.34C259.965 153.928 261.173 149.617 261.98 144.843C262.022 144.595 262.063 144.364 262.102 144.15C262.467 142.122 262.573 141.529 260.411 140.557C258.498 139.697 256.462 139.097 254.449 138.503C253.921 138.347 253.393 138.192 252.87 138.032C245.496 135.782 237.09 135.286 229.475 135.63C229.021 135.65 228.566 135.684 228.11 135.717H228.108C227.363 135.772 226.616 135.826 225.871 135.825C225.628 135.825 225.276 135.778 224.891 135.727C224.124 135.625 223.225 135.505 222.787 135.701C221.75 136.166 220.868 138.273 220.241 139.773L220.24 139.775C220.073 140.174 219.924 140.531 219.795 140.802C218.742 143.007 217.808 145.27 216.874 147.532C216.042 149.547 215.211 151.562 214.296 153.535C213.286 155.713 211.778 157.146 209.395 157.181C207.032 157.216 205.776 155.8 204.343 154.184C204.158 153.974 203.969 153.761 203.774 153.548C200.395 149.838 195.847 146.65 191.653 144.07C187.122 141.284 181.721 138.583 176.563 137.6C176.029 137.498 175.388 137.344 174.679 137.173C170.822 136.245 164.934 134.828 163.169 138.684C163.205 138.678 163.244 138.673 163.287 138.666L163.296 138.665C164.527 138.488 168.319 137.941 168.486 139.786C168.546 140.45 167.505 140.859 166.308 141.33C164.917 141.878 163.314 142.508 162.982 143.719C163.24 143.697 163.625 143.628 164.077 143.546C165.916 143.214 168.881 142.68 169.137 144.337C169.272 145.215 168.087 145.744 167.268 146.111C167.064 146.202 166.882 146.283 166.749 146.357C165.431 147.091 164.637 147.854 163.6 148.958ZM306.777 83.3827C305.751 82.6169 303.918 82.5066 302.347 82.4119C301.766 82.3771 301.221 82.3441 300.766 82.2813L300.754 82.2797C298.606 81.9821 296.517 81.6921 294.347 81.8177C293.563 81.8633 292.765 81.8905 291.962 81.9181C289.656 81.9974 287.306 82.0782 285.094 82.5939C281.357 83.4639 277.818 84.8002 274.441 86.6752C274.376 86.7116 274.309 86.7484 274.241 86.7859L274.237 86.7874C273.132 87.3943 271.728 88.1651 271.738 89.8067C271.746 91.1369 272.154 91.2108 273.112 91.3855C273.335 91.4261 273.587 91.4721 273.871 91.5407C277.029 92.3019 280.003 94.1957 282.871 96.0216C283.69 96.543 284.5 97.0587 285.303 97.541C289.148 99.8489 292.978 102.443 296.546 105.209C303.386 110.511 307.29 118.14 310.328 126.433C311.899 130.722 313.038 135.731 313.511 140.302C313.797 143.06 313.798 145.826 313.8 148.591C313.801 150.925 313.802 153.258 313.974 155.584C313.986 155.744 313.999 155.967 314.014 156.235C314.115 157.987 314.328 161.675 315.069 162.322C315.522 162.717 317.227 162.344 318.524 162.059C319.086 161.936 319.571 161.83 319.845 161.81C321.902 161.66 323.965 161.599 326.017 161.539C327.749 161.488 329.474 161.437 331.177 161.333C335.085 161.095 339.041 161.14 343.007 161.185C347.023 161.231 351.05 161.278 355.044 161.029C359.037 160.78 362.902 160.185 366.817 159.331C367.918 159.092 369.101 158.916 370.306 158.736C373.088 158.322 375.996 157.89 378.312 156.611C384.702 153.084 388.598 144.58 388.878 137.38C389.183 129.574 388.679 121.081 387.132 113.305C386.939 112.336 386.752 111.377 386.567 110.425C385.972 107.374 385.39 104.389 384.663 101.318C383.715 97.318 382.664 93.3329 381.621 89.375L381.612 89.3413C381.481 88.8474 381.351 88.3544 381.222 87.8617C380.396 84.7263 379.382 81.679 378.369 78.6344L378.368 78.6333C376.904 74.2313 375.441 69.8347 374.552 65.1888C373.723 60.8653 372.55 56.345 371.325 52.125C370.874 50.57 369.984 47.6154 368.933 46.4339C368.098 45.4949 367.364 45.6738 366.345 45.9225C366.017 46.0025 365.66 46.0895 365.26 46.1489C364.57 46.2519 363.729 46.2389 362.856 46.2259C360.252 46.1868 357.367 46.1435 357.369 49.1532C357.37 50.442 357.606 51.768 357.842 53.0874L357.842 53.0889V53.0905C358.009 54.026 358.175 54.9589 358.256 55.8734C358.354 56.9722 358.382 58.074 358.41 59.1754V59.177C358.448 60.6826 358.486 62.1898 358.702 63.6862C358.829 64.5674 358.968 65.4343 359.107 66.2944L359.108 66.2975C359.629 69.5309 360.134 72.6633 359.899 76.0676C359.777 77.8192 359.573 79.5447 359.368 81.2676C359.026 84.1543 358.685 87.0326 358.738 90.0094C358.748 90.5542 358.754 91.0967 358.759 91.6365C358.797 95.5802 358.834 99.3941 360.619 103.045C360.967 103.757 361.288 104.521 361.61 105.286C362.08 106.402 362.552 107.523 363.111 108.496C364.215 110.418 365.171 110.981 367.144 111.754C367.433 111.867 367.82 111.988 368.254 112.124C369.678 112.57 371.609 113.175 372.223 114.176C373.379 116.062 371.835 116.825 370.315 116.76C366.472 116.598 362.544 115.081 358.831 113.647L358.829 113.647L358.828 113.646L358.825 113.645L358.818 113.642C358.001 113.327 357.194 113.015 356.4 112.723C355.132 112.255 353.892 111.714 352.654 111.173C351.872 110.831 351.09 110.489 350.302 110.166C349.847 109.981 349.417 109.829 349 109.682C347.923 109.302 346.937 108.954 345.871 108.136C344.009 106.707 342.366 104.996 340.723 103.284C339.186 101.682 337.649 100.08 335.931 98.7091C329.207 93.3409 321.146 90.1362 312.701 89.1853C310.528 88.9405 308.846 89.0505 306.669 89.2459C306.348 89.2746 306.028 89.2983 305.708 89.3221C304.829 89.3868 303.955 89.4512 303.081 89.6228C302.84 89.6703 302.367 89.8608 301.83 90.0768C300.832 90.478 299.615 90.9672 299.266 90.791C295.772 89.0317 305.664 83.6758 306.777 83.3827ZM164.391 120.533C164.393 120.515 164.394 120.497 164.395 120.479C164.402 120.504 164.408 120.528 164.414 120.552L164.391 120.533ZM164.532 120.971C164.492 120.835 164.453 120.695 164.414 120.552C165.127 121.151 165.772 121.807 166.414 122.46C167.275 123.335 168.132 124.207 169.141 124.932C171.238 126.441 173.732 127.24 176.217 127.804C180.788 128.843 187.036 128.584 191.394 126.542C195.424 124.654 197.97 121.248 200.212 117.293C200.546 116.702 200.743 116.059 200.933 115.439C201.34 114.104 201.716 112.876 203.367 112.505C204.49 112.252 205.833 112.722 207.196 113.198C208.303 113.585 209.422 113.976 210.447 113.989C212.665 114.016 215.541 112.945 217.353 111.498C217.964 111.01 218.398 110.055 218.811 109.146C219.236 108.21 219.638 107.322 220.189 107.044C220.622 106.826 221.334 107.149 221.95 107.429C222.241 107.561 222.511 107.684 222.719 107.735C223.861 108.015 224.997 108.103 226.142 107.785C227.625 107.372 230.035 106.238 231.192 105.165C231.813 104.589 232.178 103.432 232.53 102.318C232.89 101.177 233.236 100.081 233.827 99.7052C234.322 99.3907 235.174 99.632 236.041 99.8772C236.703 100.065 237.374 100.254 237.901 100.201C241.821 99.8044 244.493 97.4272 246 93.6175C246.113 93.3317 246.233 92.713 246.371 92.0023C246.645 90.5887 246.989 88.8114 247.49 88.5723C247.785 88.4317 249.352 89.0355 250.488 89.4734C250.992 89.6677 251.412 89.8293 251.598 89.8788C255.413 90.8921 260.195 93.0502 263.501 95.2385C266.036 96.9161 268.934 98.0248 271.814 99.1263L271.815 99.1271C273.449 99.7519 275.078 100.375 276.63 101.098C280.202 102.762 283.686 104.76 286.983 106.888C290.863 109.391 294.38 111.926 297.542 115.417L297.674 115.563L297.848 115.754C300.857 119.073 304.368 122.945 305.673 127.383C306.162 129.046 306.328 130.833 306.493 132.607C306.584 133.593 306.676 134.576 306.822 135.53C307.084 137.244 307.494 138.905 307.904 140.569C308.133 141.499 308.362 142.429 308.567 143.371C309.647 148.353 310.078 154.251 310.045 159.375C310.043 159.804 310.064 160.204 310.084 160.572C310.163 162.023 310.215 162.986 308.646 163.364C307.381 163.669 305.653 163.29 304.052 162.938C303.222 162.757 302.426 162.582 301.746 162.514C300.031 162.342 298.36 162.391 296.681 162.441H296.679H296.677C295.791 162.467 294.902 162.494 294.002 162.488C293.252 162.482 292.487 162.434 291.717 162.386C290.062 162.282 288.381 162.177 286.768 162.492C283.891 163.053 280.905 163.179 277.901 163.305C276.765 163.353 275.627 163.401 274.492 163.472C273.23 163.551 271.967 163.56 270.705 163.567C269.165 163.577 267.625 163.586 266.087 163.726C265.896 163.743 265.449 163.828 264.877 163.938C263.097 164.278 260.108 164.85 259.855 164.318C259.566 163.712 260.91 161.149 261.938 159.188C262.4 158.308 262.798 157.549 262.957 157.142C263.931 154.646 264.798 152.089 265.272 149.427C266.072 144.921 266.356 140.564 266.391 136.031C266.431 130.79 265.572 125.851 264.237 120.838C264.204 120.717 264.162 120.525 264.11 120.287C263.744 118.608 262.865 114.575 261.073 115.792C259.992 116.527 260.613 119.733 260.96 121.529C261.043 121.956 261.111 122.303 261.136 122.519C261.258 123.55 261.424 124.574 261.59 125.597C261.846 127.174 262.103 128.75 262.195 130.351C262.212 130.649 262.248 131.002 262.287 131.38C262.401 132.482 262.536 133.802 262.287 134.63C262.2 134.919 262.161 135.128 262.133 135.276C262.102 135.44 262.085 135.531 262.033 135.576C261.968 135.633 261.848 135.618 261.577 135.586C261.445 135.57 261.277 135.549 261.063 135.531C259.957 135.436 258.686 134.648 257.475 133.897C256.681 133.405 255.913 132.929 255.234 132.673C253.049 131.852 250.891 131.359 248.624 130.924C243.731 129.984 238.827 129.64 233.849 129.656C232.65 129.661 231.394 129.886 230.142 130.11C228.681 130.371 227.225 130.632 225.868 130.541C225.77 130.535 225.673 130.528 225.577 130.522C223.883 130.407 222.626 130.321 220.685 130.705C220.996 128.9 221.754 127.178 222.513 125.455C223.375 123.496 224.239 121.535 224.448 119.448C224.981 114.133 220.808 117.728 219.414 119.84C217.405 122.882 215.802 126.089 215.294 129.851C215.198 130.562 215.283 131.278 215.366 131.983C215.458 132.756 215.547 133.515 215.397 134.24C215.211 135.135 214.602 136.123 214.019 137.068C213.66 137.649 213.312 138.215 213.077 138.733C211.637 141.909 210.635 145.237 209.691 148.606C209.617 148.871 209.558 149.119 209.505 149.344C209.227 150.518 209.09 151.095 207.63 150.39C206.954 150.064 206.424 149.43 205.902 148.806C205.6 148.444 205.301 148.086 204.977 147.793C200.687 143.899 196.161 140.286 191.205 137.301C186.027 134.181 180.98 132.726 175.111 132.07C174.785 132.034 174.407 132.001 173.995 131.965C171.638 131.758 168.176 131.454 167.061 129.907C166.077 128.544 165.607 126.105 165.181 123.896C164.972 122.814 164.774 121.788 164.532 120.971ZM167.87 119.467C166.333 118.682 164.584 117.79 164.395 120.479C164.19 119.706 164.004 118.826 163.81 117.908C163.272 115.366 162.672 112.53 161.448 110.856C161.106 110.387 160.685 110.244 160.296 110.111C159.99 110.007 159.704 109.909 159.49 109.665C158.985 109.085 158.921 107.847 158.87 106.865C158.851 106.513 158.835 106.193 158.8 105.948C158.718 105.366 158.631 104.794 158.545 104.227L158.545 104.226C158.12 101.412 157.716 98.744 157.949 95.7909C157.957 95.6994 157.962 95.5404 157.969 95.3389C158.003 94.3953 158.071 92.5199 158.485 92.2556C158.887 91.9993 160.024 92.3395 160.963 92.6203C161.444 92.764 161.874 92.8931 162.126 92.918C163.629 93.0663 165.143 93.2712 166.66 93.4762C170.957 94.0574 175.282 94.6424 179.473 93.9604C184.562 93.1329 189.443 91.3832 194.135 89.1443C194.236 89.7351 194.499 90.2094 194.922 90.5668C195.07 90.3366 195.2 90.119 195.322 89.9148C195.966 88.8379 196.39 88.1283 198.058 87.8513C199.324 87.641 201.076 88.0578 202.126 88.8953C206.189 92.1338 201.556 95.3266 198.885 96.7794C202.186 100.627 203.227 108.773 199.426 112.704C198.884 113.265 198.34 113.779 197.801 114.288C196.84 115.197 195.893 116.091 194.998 117.211C193.534 119.042 192.364 120.464 190.243 121.122C189.992 121.199 189.733 121.281 189.468 121.364C187.377 122.021 184.919 122.794 182.879 122.906C181.379 122.989 179.77 122.66 178.219 122.342C177.507 122.196 176.807 122.053 176.135 121.953C173.482 121.559 170.911 120.933 168.459 119.761C168.269 119.67 168.071 119.57 167.87 119.467ZM161.515 152.606C161.669 152.806 161.96 153.145 162.334 153.582C164.575 156.197 169.824 162.324 166.955 163.214C165.726 163.596 163.779 161.46 162.405 159.951C161.97 159.474 161.592 159.06 161.312 158.808C159.509 157.182 157.619 156.114 155.419 155.217C150.05 153.029 145.193 151.062 139.346 151.971C138.508 152.101 137.61 152.319 136.691 152.542C134.862 152.986 132.952 153.45 131.276 153.277C128.742 153.017 129.399 150.622 130.983 149.286C131.52 148.833 132.138 148.6 132.731 148.376C133.702 148.009 134.608 147.667 134.994 146.424C135.268 145.539 135.294 144.553 135.32 143.554C135.354 142.266 135.388 140.956 135.955 139.815C136.815 138.083 138.842 136.285 140.407 135.282C140.634 135.136 140.915 135.005 141.203 134.871C141.778 134.604 142.377 134.325 142.615 133.895C142.835 133.497 142.205 131.678 141.81 130.536C141.681 130.163 141.577 129.861 141.535 129.706C141.323 128.902 141.105 128.099 140.887 127.295C140.267 125.009 139.646 122.718 139.134 120.41C138.491 117.519 138.324 116.02 141.199 114.971C143.562 114.108 145.986 113.493 148.406 112.878C150.48 112.352 152.551 111.826 154.577 111.146C154.052 109.699 152.777 110.048 151.466 110.407C150.832 110.58 150.189 110.756 149.62 110.732C147.48 110.64 145.004 109.894 142.966 109.198C138.34 107.616 135.192 103.673 134.477 98.5877C134.411 98.1191 134.46 97.4525 134.511 96.7637C134.581 95.8132 134.654 94.8209 134.432 94.2489C134.179 93.5965 133.602 93.1789 133.021 92.759C132.773 92.5793 132.524 92.3993 132.3 92.2C130.374 90.4894 128.667 88.1413 127.628 85.7109C126.586 83.2751 126.514 80.5389 127.119 77.9682C127.168 77.7602 127.214 77.5786 127.255 77.4158C127.493 76.4699 127.572 76.1603 127.169 75.0179C126.916 74.2969 126.587 73.6126 126.257 72.9265C125.879 72.1384 125.499 71.348 125.23 70.4971C124.406 67.8893 123.957 65.078 124.001 62.3242C124.035 60.2876 124.555 58.9915 125.127 57.5641C125.423 56.8262 125.733 56.0535 125.997 55.1252C126.363 53.8391 126.211 52.2587 126.06 50.6857C125.959 49.6295 125.857 48.5763 125.914 47.6181C126.092 44.5655 126.83 42.1128 128.104 39.3958C130.06 35.221 133.158 30.7459 137.191 28.5568C137.558 28.3572 138.035 28.2442 138.512 28.1312C139.069 27.9986 139.628 27.8664 140.012 27.5948C140.717 27.0971 140.904 26.4114 141.126 25.5996C141.183 25.3915 141.242 25.1754 141.313 24.9521C142.14 22.3397 143.172 20.2233 144.959 18.2258C150.757 11.7485 160.916 9.45447 169.064 10.0012C169.589 10.0364 170.105 10.1536 170.615 10.2693C171.527 10.4762 172.419 10.6785 173.309 10.4023C173.832 10.2395 174.373 9.85022 174.917 9.45906C175.371 9.13188 175.827 8.80356 176.278 8.60357C177.532 8.04806 178.788 7.7228 180.137 7.58066C182.8 7.29946 184.967 7.59676 187.422 8.54956C188.15 8.83229 188.853 9.13495 189.564 9.44105C189.758 9.52496 189.954 9.60924 190.151 9.69314C191.252 10.1648 191.464 10.1046 192.108 9.92224C192.307 9.86592 192.547 9.79773 192.867 9.73031C195.571 9.15985 197.124 9.58204 199.52 10.8042C199.753 10.9233 200.036 11.0313 200.329 11.1425C200.835 11.3355 201.369 11.5386 201.717 11.8275C202.069 12.1209 202.327 12.686 202.585 13.2499C202.894 13.9281 203.203 14.6046 203.675 14.8046C203.983 14.9356 204.704 14.6736 205.345 14.441C205.703 14.3112 206.035 14.1905 206.257 14.1522C206.983 14.0269 207.698 14.0583 208.416 14.0897C208.778 14.1054 209.14 14.1215 209.504 14.1173C211.427 14.0951 213.459 14.1709 215.215 15.1341C216.316 15.7379 217.603 16.8083 218.661 17.6875C218.874 17.8645 219.078 18.0339 219.268 18.1898C219.878 18.6882 220.399 19.3583 220.922 20.0318C221.752 21.0999 222.589 22.1764 223.796 22.5906C224.196 22.7277 224.612 22.7216 225.031 22.7155C225.419 22.7101 225.808 22.7044 226.187 22.8128C227.212 23.1063 228.197 23.8932 229.028 24.5881C229.624 25.0873 230.182 25.862 230.736 26.6309C231.509 27.7036 232.272 28.7644 233.12 29.0476C233.602 29.2081 234.215 29.2062 234.847 29.2042C235.49 29.2019 236.152 29.2 236.713 29.3694C238.108 29.7908 239.264 30.4019 240.298 31.5198C242.27 33.6526 242.827 36.8056 242.912 39.6977C242.919 39.9386 242.881 40.3149 242.837 40.7405C242.74 41.6921 242.617 42.889 242.922 43.3671C243.129 43.692 243.639 43.9441 244.163 44.2027C244.629 44.4329 245.106 44.6682 245.389 44.9647C247.266 46.9339 248.114 50.2156 248.304 52.9135C248.466 55.2064 248.091 56.9952 247.675 58.9762C247.533 59.6547 247.386 60.3554 247.255 61.1067C247.152 61.6925 247.04 61.9714 246.982 62.1151C246.95 62.1932 246.935 62.2311 246.946 62.2568C246.957 62.2813 246.991 62.2943 247.059 62.3196C247.198 62.3721 247.478 62.4775 247.979 62.8479C248.984 63.5904 249.677 64.1099 250.328 65.2753C251.69 67.7123 252.032 70.5853 251.807 73.3624C251.641 75.4171 250.99 77.161 250.332 78.9241C249.88 80.1347 249.426 81.3541 249.122 82.6889C251.893 82.6889 254.837 83.3145 257.634 83.9087C258.306 84.0516 258.969 84.1926 259.62 84.3225C260.536 84.506 261.3 84.9485 262.08 85.4006C262.355 85.56 262.632 85.7201 262.918 85.8706C263.515 86.1848 264.017 86.3242 264.529 86.4668C264.832 86.5511 265.138 86.6361 265.47 86.7591L265.532 86.7817C266.548 87.1571 266.979 87.3165 267.323 87.1962C267.576 87.1077 267.782 86.8683 268.139 86.4518C268.299 86.2664 268.489 86.0457 268.726 85.7875C274.731 79.2616 283.28 75.3217 291.9 75.45C296.708 75.5209 301.359 76.1932 305.854 78.0268L306.101 78.1276C307.898 78.8593 309.861 79.6581 311.441 80.7971C313.324 82.1556 313.63 82.1621 316.049 82.2154L316.171 82.2181C325.337 82.4196 334.231 87.6349 340.902 93.9558C341.4 90.4121 346.023 88.054 349.365 86.3492C350.022 86.0143 350.629 85.7048 351.146 85.4163C351.348 85.3036 351.546 85.201 351.74 85.1014C352.576 84.6696 353.309 84.2918 353.739 83.3777C354.028 82.7636 354.138 81.771 354.246 80.804C354.322 80.1133 354.398 79.4355 354.536 78.9187C355.143 76.6411 355.846 73.8544 355.791 71.4522C355.711 67.9265 355.281 64.4091 354.851 60.8895C354.433 57.4671 354.015 54.0425 353.918 50.606C353.906 50.1788 353.886 49.739 353.865 49.2927C353.801 47.9104 353.734 46.468 353.9 45.1578C353.946 44.7969 354.02 44.4712 354.09 44.1647C354.29 43.2832 354.455 42.5564 353.814 41.5975C353.139 40.5888 352.229 39.8911 351.322 39.1946C350.022 38.1974 348.725 37.2028 348.126 35.3007C346.485 30.095 349.304 24.7716 353.151 21.6753C353.971 21.0164 354.783 20.5494 355.571 20.0962C356.915 19.3238 358.189 18.5913 359.308 17.0163C359.901 16.1815 360.46 15.29 361.021 14.3947C361.974 12.8749 362.935 11.3432 364.082 10.0552C364.636 9.43377 365.171 8.73574 365.713 8.03044C366.666 6.78839 367.638 5.52297 368.755 4.61232C370.551 3.14806 373.189 2.15849 375.334 1.46276C380.483 -0.207608 386.806 0.191212 390.429 4.85636C394.123 9.61269 388.682 16.3382 385.596 19.6571C384.79 20.5249 384.057 21.4654 383.325 22.4067C382.697 23.2128 382.069 24.0196 381.394 24.7816C380.709 25.554 379.942 26.2485 379.186 26.9328C378.346 27.6944 377.518 28.443 376.834 29.2728C376.637 29.5115 376.436 29.7536 376.232 29.9988C375.025 31.4508 373.732 33.0062 372.756 34.5985C372.572 34.9007 372.364 35.2114 372.151 35.5302C371.533 36.4554 370.873 37.445 370.606 38.4629C370.285 39.6889 370.331 39.7099 370.576 39.8206C370.725 39.8873 370.946 39.9873 371.202 40.4064C371.337 40.6263 371.454 40.8064 371.558 40.9646C371.989 41.6247 372.178 41.9147 372.368 43.192C372.597 44.7314 372.923 45.8581 373.708 47.1733C373.973 47.6177 374.243 48.0568 374.512 48.4947L374.513 48.4966L374.515 48.4989L374.516 48.5016C375.557 50.1953 376.586 51.8707 377.31 53.772C378.273 56.3006 379.012 58.8601 379.759 61.4473L379.759 61.4484C379.953 62.1204 380.148 62.7947 380.347 63.4697C380.454 63.8341 380.551 64.2133 380.65 64.5968L380.65 64.598L380.65 64.5995L380.651 64.6011C380.897 65.5619 381.15 66.5488 381.584 67.3897C382.432 69.0341 382.565 68.9268 383.789 67.9315L383.854 67.879C384.819 67.0951 385.787 66.3002 386.758 65.5021L386.761 65.5002C389.651 63.1272 392.575 60.7251 395.566 58.5046C397.857 56.8044 400.236 55.1394 402.653 53.6498C402.917 53.4866 403.231 53.3035 403.573 53.1027C405.379 52.045 408.009 50.5052 408.707 48.9104C409.157 47.8809 409.136 46.8864 409.116 45.9117C409.087 44.5034 409.059 43.1369 410.453 41.7676C411.989 40.2585 414.494 39.4218 416.495 39.0552C418.584 38.6728 420.834 38.9763 423.007 39.2686C423.776 39.3724 424.536 39.4747 425.275 39.5448C428.132 39.8153 430.926 39.5207 433.728 38.9016C434.71 38.6843 435.9 38.2418 437.184 37.7641C441.505 36.1566 446.893 34.1525 449.035 39.0096C449.986 41.16 449.693 43.4916 449.411 45.7543C449.332 46.3925 449.252 47.0254 449.201 47.6472C449.003 50.1099 448.319 52.7246 446.872 54.7505C445.494 56.6779 443.592 57.0844 441.548 57.5215C441.137 57.6093 440.72 57.6982 440.301 57.8012C438.792 58.1709 437.263 58.4207 435.734 58.6709C434.263 58.9115 432.793 59.1517 431.34 59.4988C429.88 59.8474 428.44 60.0171 426.941 60.0903C426.325 60.1206 425.583 60.0148 424.848 59.9099C423.991 59.7877 423.143 59.6666 422.512 59.7639C421.866 59.8635 421.725 60.1566 421.565 60.4853C421.451 60.7221 421.327 60.9768 421.002 61.1921C420.836 61.3017 420.579 61.3128 420.344 61.3224C420.132 61.3316 419.937 61.3396 419.843 61.4197C419.35 61.84 419.176 62.2112 418.85 62.9062L418.845 62.9165L418.842 62.923L418.837 62.9334L418.787 63.0403L418.749 63.1192C417.753 65.2278 416.351 67.2936 415.008 69.2731C414.659 69.7876 414.314 70.296 413.981 70.7979C413.878 70.9523 413.775 71.1094 413.67 71.2687L413.583 71.4013C413.5 71.5262 413.418 71.6522 413.334 71.7794C412.133 73.6092 410.799 75.6412 409.447 77.1867C407.268 79.6796 405.129 82.3353 402.99 84.991L402.989 84.9922C401.801 86.4679 400.613 87.9437 399.417 89.3911C397.715 91.453 395.673 93.6467 393.694 95.4189C393.484 95.6074 393.2 95.7894 392.905 95.9783C392.343 96.3376 391.742 96.7223 391.538 97.2245C391.215 98.0157 391.762 99.4949 392.195 100.667C392.36 101.113 392.509 101.515 392.586 101.817C392.91 103.072 393.098 104.347 393.286 105.619C393.49 106.99 393.692 108.358 394.062 109.692C394.745 112.15 394.992 114.83 395.143 117.392C395.25 119.198 395.396 120.974 395.542 122.739V122.742C395.862 126.639 396.178 130.483 396.058 134.47C395.906 139.467 395.733 144.259 394.095 149.166C392.604 153.631 388.138 158.493 383.984 160.138C381.511 161.118 379.214 162.008 376.726 162.539L376.263 162.638C373.945 163.132 371.526 163.648 369.239 164.34C364.712 165.71 359.94 166.667 355.238 167.136C349.221 167.736 342.943 167.794 336.941 167.573C334.204 167.472 331.391 167.466 328.69 167.475C326.818 167.481 325.019 167.744 323.195 168.011C322.292 168.143 321.382 168.276 320.455 168.379C315.488 168.931 310.379 168.982 305.271 169.033C300.225 169.084 295.18 169.134 290.276 169.667C288.639 169.845 287.002 170.079 285.363 170.312H285.362C282.117 170.775 278.862 171.239 275.565 171.28C273.077 171.31 270.568 171.226 268.079 171.142C266.125 171.077 264.183 171.012 262.273 171.003C261.974 171.001 261.683 171.006 261.398 171.01C260.366 171.026 259.396 171.04 258.318 170.778C258.108 170.727 257.874 170.633 257.629 170.536C257.026 170.295 256.359 170.028 255.837 170.31C255.398 170.547 255.032 171.309 254.718 171.965C254.575 172.264 254.441 172.542 254.317 172.737C253.449 174.096 252.392 175.187 251.276 176.314C246.846 180.788 242.455 182.295 236.64 183.934C233.97 184.687 232.653 185.08 230.411 186.803C228.585 188.206 226.738 189.214 224.636 190.041C220.514 191.663 215.654 190.408 211.78 189.001C211.193 188.788 210.597 188.581 209.997 188.373C208.676 187.914 207.333 187.447 206.016 186.891C204.679 186.327 203.462 185.572 202.247 184.818C201.089 184.1 199.934 183.383 198.678 182.833C198.864 184.668 197.748 185.734 196.672 186.762C196.042 187.363 195.426 187.951 195.092 188.672C194.804 189.295 194.745 190.094 194.683 190.914C194.62 191.757 194.556 192.622 194.24 193.345C193.663 194.669 192.771 195.921 191.379 196.268C189.483 196.739 186.094 194.505 184.762 193.201C184.467 192.913 184.186 192.434 183.896 191.941C183.458 191.197 183.002 190.421 182.457 190.228C181.657 189.944 180.407 190.701 179.337 191.348C178.825 191.658 178.354 191.943 177.994 192.078C172.644 194.078 167.224 195.021 161.481 194.225C156.201 193.492 151.321 191.622 146.386 189.731C145.881 189.538 145.376 189.345 144.87 189.152C134.182 185.087 124.879 178.395 116.51 170.337C116.363 170.195 116.195 170.058 116.024 169.919C115.653 169.617 115.268 169.303 115.048 168.901C114.894 168.62 114.832 168.129 114.777 167.696C114.732 167.338 114.692 167.019 114.609 166.89C114.162 166.191 113.533 166.166 112.758 166.135C112.587 166.128 112.409 166.121 112.224 166.106C109.064 165.853 106.554 165.045 104.105 162.802C100.251 159.271 98.8246 151.039 104.734 148.853C106.244 148.293 107.907 148.182 109.468 148.527C109.728 148.584 110.274 148.87 110.873 149.182C111.756 149.644 112.755 150.165 113.12 150.104C113.78 149.992 113.879 149.319 113.97 148.696C114.007 148.444 114.043 148.201 114.113 148.006C114.739 146.293 115.618 144.786 116.679 143.332C118.441 140.916 120.589 138.487 122.793 136.521C124.942 134.603 127.285 133.642 129.804 132.61C130.092 132.492 130.382 132.373 130.674 132.252C132.595 131.455 136.343 130.087 138.377 130.8C141.026 131.728 139.729 134.795 138.06 135.868C136.871 136.632 135.563 137.172 134.251 137.713C132.933 138.257 131.61 138.802 130.4 139.579C128.424 140.848 126.574 142.464 124.756 144.053C124.121 144.608 123.491 145.159 122.86 145.691C121.948 146.46 121.092 147.312 120.238 148.164C119.253 149.145 118.269 150.126 117.201 150.976C116.672 151.396 115.809 152.132 115.644 152.365C115.626 152.39 115.621 152.473 115.614 152.584C115.598 152.823 115.575 153.192 115.396 153.391C115.358 153.433 115.322 153.473 115.287 153.512L115.197 153.614C114.778 154.083 114.574 154.311 114.33 154.382C114.099 154.449 113.831 154.375 113.31 154.231C113.152 154.187 112.971 154.137 112.76 154.083C110.701 153.549 105.784 152.342 104.396 155.047C103.172 157.431 108.05 159.583 109.831 160.369L109.941 160.418C111.991 161.324 112.735 162.234 113.941 163.709C114.185 164.007 114.447 164.328 114.744 164.678C116.014 166.176 117.876 167.337 119.655 168.446C120.404 168.912 121.137 169.37 121.807 169.839C125.496 172.429 129.532 174.45 133.54 176.457L133.541 176.458L133.543 176.459C134.842 177.109 136.138 177.759 137.419 178.425C142.481 181.06 147.92 182.962 153.198 184.806L153.291 184.839C156.495 185.958 160.334 187.16 163.696 187.504C167.084 187.852 170.261 187.267 173.585 186.582C174.914 186.308 175.917 186.098 177.307 185.579C177.535 185.494 177.816 185.436 178.104 185.376C178.6 185.273 179.117 185.165 179.428 184.909C179.965 184.467 179.966 184.087 179.967 183.526C179.968 183.291 179.968 183.025 180.008 182.709C180.495 178.83 182.677 181.729 184.19 183.738C184.509 184.163 184.799 184.548 185.037 184.82C185.253 185.069 185.469 185.329 185.687 185.593L185.688 185.594C186.529 186.609 187.407 187.669 188.505 188.276C190.238 189.234 190.539 188.783 191.107 187.203C191.256 186.786 191.393 186.362 191.528 185.941C192.354 183.373 193.136 180.943 196.588 181.316C195.988 180.772 195.393 180.244 194.804 179.721C192.283 177.48 189.879 175.344 187.677 172.543C185.892 170.272 184.185 167.889 182.484 165.515L182.482 165.511C181.631 164.323 180.781 163.136 179.924 161.968C179.235 161.028 178.575 159.971 177.903 158.896C176.521 156.684 175.09 154.392 173.251 152.869C172.387 152.153 169.76 150.503 168.76 150.538C168.005 150.564 167.291 151.237 166.563 151.925C165.85 152.599 165.121 153.288 164.323 153.394C162.543 153.633 161.723 152.974 161.215 151.443C160.934 150.597 161.16 149.684 161.368 148.84C161.551 148.099 161.721 147.411 161.522 146.87C161.466 146.718 161.265 146.551 161.045 146.367C160.802 146.164 160.535 145.942 160.412 145.697C160.059 144.996 160.034 144.074 160.139 143.298C160.2 142.849 160.296 142.502 160.385 142.179C160.526 141.669 160.651 141.215 160.601 140.501C160.569 140.053 160.486 139.645 160.406 139.247C160.243 138.445 160.09 137.688 160.386 136.74C160.695 135.748 161.432 135.054 162.152 134.377C162.512 134.038 162.867 133.704 163.164 133.338C164.301 131.933 163.987 130.821 163.537 129.222C163.454 128.927 163.367 128.616 163.282 128.283C162.678 125.895 162.022 123.521 161.364 121.146C160.764 118.975 160.163 116.803 159.603 114.621C158.509 114.987 157.425 115.374 156.343 115.76L156.342 115.76L156.341 115.761L156.338 115.762C154.75 116.328 153.163 116.893 151.551 117.395C150.898 117.598 150.207 117.795 149.5 117.998C147.377 118.605 145.105 119.254 143.289 120.214C142.947 120.395 142.707 120.494 142.543 120.563C142.359 120.639 142.268 120.676 142.232 120.746C142.197 120.813 142.213 120.91 142.244 121.102C142.274 121.287 142.319 121.562 142.346 121.985C142.389 122.681 142.58 123.429 142.767 124.16C142.877 124.589 142.985 125.013 143.06 125.416C143.153 125.906 143.232 126.585 143.321 127.346C143.597 129.709 143.966 132.86 145.092 133.588C145.465 133.829 145.932 133.825 146.421 133.821C147.115 133.816 147.854 133.811 148.435 134.5C148.927 135.083 149.042 135.822 149.157 136.556C149.236 137.068 149.316 137.577 149.522 138.029C149.692 138.402 149.949 138.649 150.209 138.899C150.425 139.106 150.643 139.316 150.814 139.602C151.452 140.67 151.516 141.6 151.592 142.701C151.609 142.955 151.627 143.217 151.653 143.493C151.679 143.765 151.685 144.195 151.692 144.686C151.71 145.871 151.733 147.408 152.041 147.917C152.454 148.6 153.155 148.713 153.875 148.829C154.167 148.876 154.462 148.924 154.742 149.01C157.187 149.764 159.439 151.076 161.515 152.606ZM171.33 110.989C170.877 112.49 168.799 114.188 167.132 113.285C165.059 112.162 164.866 107.735 165.434 105.845C166.397 102.643 167.207 106.843 167.377 108.108C167.399 108.272 167.413 108.424 167.425 108.564C167.477 109.151 167.512 109.539 168.072 109.761C168.317 109.858 168.664 109.818 169.029 109.775C169.455 109.726 169.908 109.673 170.258 109.831C170.819 110.083 170.912 110.249 171.182 110.729C171.226 110.807 171.274 110.893 171.33 110.989ZM159.366 101.46C159.271 103.567 162.376 110.06 163.304 105.355C163.229 103.95 162.553 101.472 161.674 100.373C160.417 98.8018 159.454 99.5163 159.366 101.46ZM167.456 98.9194C167.456 96.8817 168.626 96.4786 170.086 97.7981C171.592 99.1593 172.085 101.433 172.241 103.311C172.411 105.348 171.972 106.213 170.057 104.905C168.381 103.759 167.542 100.707 167.456 98.9194ZM177.411 113.73C174.825 113.523 171.82 118.67 174.997 118.268C176.196 118.186 178.593 117.271 178.944 115.81C179.221 114.654 178.464 113.815 177.411 113.73ZM197.056 92.9509C196.91 90.8273 199.997 89.7182 200.396 91.9694C200.773 94.0945 196.331 96.2786 197.056 92.9509ZM148.223 125.23C148.241 122.562 145.165 118.26 144.065 122.61C144.222 123.93 144.742 127.421 146.459 127.719C147.833 127.959 148.214 126.401 148.223 125.23Z" fill="#333333"/>
<path fill-rule="evenodd" clip-rule="evenodd" d="M483.033 65.1066C484.293 64.9436 485.638 65.0011 486.809 65.5279C489.3 66.6483 490.009 69.7661 489.974 72.3004C489.938 75.028 489.391 78.0073 491.348 80.205C492.248 81.2154 493.368 81.9886 494.251 83.0176C495.195 84.1171 495.936 85.3753 496.485 86.7263C497.492 89.2079 497.986 92.1261 497.065 94.7293C496.254 97.0213 494.214 99.0899 494.655 101.696C495.115 104.415 497.702 106.493 499.32 108.518C501.151 110.81 502.836 113.739 503.113 116.744C503.379 119.624 502.195 122.537 500.379 124.714C496.75 129.065 491.296 131.197 485.796 131.184C483.461 131.178 480.817 131.067 478.802 129.737C478.179 129.327 477.85 128.866 477.48 128.225C477.148 127.65 476.71 127.276 476.202 126.87C475.087 125.977 474.281 124.773 473.768 123.426C471.772 118.192 473.367 111.718 476.16 107.07C476.822 105.969 477.364 104.91 477.043 103.597C476.707 102.228 475.882 100.992 475.153 99.8143C474.432 98.6505 473.609 97.5402 473.046 96.2818C472.456 94.9636 472.289 93.5832 472.394 92.1405C472.59 89.4305 473.694 86.9297 475.257 84.7503C476.763 82.651 478.531 80.6424 478.535 77.8917C478.54 74.9763 476.7 72.383 477.484 69.419C477.808 68.1916 478.46 66.9324 479.511 66.1966C480.518 65.4909 481.848 65.26 483.033 65.1066Z" fill="#333333"/>
<path fill-rule="evenodd" clip-rule="evenodd" d="M482.211 69.7667C482.234 69.3752 482.673 69.1403 483.018 69.2425C483.472 69.3771 483.463 69.8267 483.451 70.2274C483.415 71.4588 483.583 72.6556 483.862 73.8504C484.443 76.3346 485.516 78.6234 486.367 81.0097C487.216 83.394 487.615 85.8557 487.117 88.3786C486.647 90.7574 485.909 93.0745 485.428 95.4563C485.004 97.5555 484.553 99.7692 485.199 101.863C485.82 103.879 487.193 105.52 488.182 107.341C490.228 111.112 491.136 115.295 491.258 119.599C491.314 121.598 491.263 123.615 490.826 125.576C490.574 126.705 490.235 128.23 489.322 129.01C488.901 129.369 488.181 129.493 487.826 128.961C487.494 128.462 487.786 127.689 487.891 127.157C488.349 124.854 488.441 122.5 488.331 120.161C488.225 117.896 487.973 115.635 487.3 113.471C486.675 111.464 485.726 109.66 484.609 107.904C483.471 106.114 482.288 104.32 481.818 102.2C481.34 100.046 481.728 97.8541 482.247 95.7413C482.796 93.5065 483.515 91.3359 484.258 89.1617C484.982 87.0431 485.239 85.0386 484.839 82.8212C484.05 78.4405 481.935 74.3287 482.211 69.7667Z" fill="white"/>
<path fill-rule="evenodd" clip-rule="evenodd" d="M516.297 70.4224C517.856 70.9239 519.404 71.733 520.515 73.0016C522.879 75.6995 522.153 79.7771 520.849 82.7553C519.445 85.9608 517.317 89.1829 518.516 92.8608C519.068 94.5516 519.995 96.0829 520.518 97.7867C521.077 99.6074 521.318 101.504 521.287 103.404C521.23 106.893 520.354 110.617 517.975 113.188C515.88 115.452 512.455 116.774 511.672 120.099C510.855 123.568 512.852 127.452 513.739 130.738C514.743 134.457 515.259 138.85 514.084 142.557C512.959 146.109 510.117 148.902 506.901 150.476C500.474 153.621 493.012 153.137 486.568 150.09C483.832 148.796 480.787 147.207 479.087 144.525C478.561 143.695 478.406 142.969 478.291 142.007C478.189 141.145 477.861 140.461 477.468 139.7C476.606 138.03 476.262 136.162 476.331 134.286C476.602 126.997 481.703 120.219 487.298 116.262C488.624 115.325 489.788 114.371 490.066 112.641C490.356 110.836 490.005 108.921 489.737 107.126C489.472 105.352 489.061 103.586 489.028 101.787C488.993 99.9027 489.487 98.1787 490.329 96.53C491.911 93.4331 494.454 91.0841 497.375 89.3683C500.189 87.7155 503.265 86.3145 504.642 83.0636C506.102 79.6183 505.238 75.5374 507.636 72.464C508.629 71.1914 510.022 70.0614 511.621 69.7701C513.155 69.4908 514.83 69.9508 516.297 70.4224Z" fill="#D7F3E6"/>
<path fill-rule="evenodd" clip-rule="evenodd" d="M513.112 76.1192C513.333 75.6687 513.962 75.634 514.315 75.9467C514.78 76.3582 514.547 76.8859 514.335 77.3537C513.683 78.7916 513.288 80.3023 513.024 81.8724C512.475 85.1368 512.599 88.4432 512.413 91.7413C512.228 95.0366 511.477 98.1733 509.647 100.884C507.922 103.44 505.913 105.775 504.174 108.328C502.64 110.579 501.018 112.95 500.738 115.788C500.468 118.52 501.262 121.226 501.518 123.932C502.047 129.533 501.041 134.991 499.055 140.156C498.132 142.555 497.076 144.915 495.595 146.994C494.742 148.191 493.592 149.81 492.139 150.225C491.469 150.417 490.566 150.165 490.414 149.338C490.272 148.562 490.995 147.809 491.382 147.237C493.055 144.764 494.327 142.027 495.355 139.197C496.351 136.455 497.173 133.637 497.456 130.701C497.718 127.977 497.5 125.314 497.062 122.614C496.617 119.863 496.12 117.082 496.619 114.309C497.125 111.493 498.662 109.113 500.313 106.9C502.06 104.558 503.974 102.386 505.918 100.224C507.812 98.1177 509.103 95.8863 509.732 93.0385C510.974 87.4121 510.535 81.3688 513.112 76.1192Z" fill="white"/>
<path fill-rule="evenodd" clip-rule="evenodd" d="M468.101 91.1168C470.693 91.1168 472.972 92.5724 474.543 94.6381C476.381 97.0562 476.752 100.009 477.499 102.891C477.87 104.325 478.509 105.749 479.629 106.724C480.647 107.61 481.94 107.787 483.159 108.22C485.595 109.085 487.562 111.17 488.338 113.713C489.286 116.815 488.282 119.944 488.455 123.088C488.614 125.975 491.301 127.777 493.463 129.161C495.595 130.526 497.516 131.803 498.158 134.462C498.839 137.282 499.067 140.43 498.124 143.216C496.554 147.854 491.959 149.897 487.518 150.213C483.488 150.501 478.262 152.811 475.235 149.712C473.424 147.858 472.928 142.503 473.01 139.923C473.06 138.318 473.36 136.728 473.748 135.178C474.023 134.079 474.395 132.985 474.5 131.849C474.782 128.828 472.146 128.248 469.902 127.418C467.051 126.364 465.055 124.373 463.667 121.599C462.375 119.016 461.832 116.116 462.607 113.273C463.003 111.82 463.721 110.503 464.694 109.382C465.123 108.889 465.727 108.478 466.113 107.96C466.474 107.476 466.396 106.849 466.271 106.282C465.696 103.664 463.904 101.496 463.263 98.8827C462.684 96.5238 463.026 93.588 465.062 92.0662C465.941 91.4087 467.026 91.124 468.101 91.1168Z" fill="#D7F3E6"/>
<path fill-rule="evenodd" clip-rule="evenodd" d="M471.633 97.9372C474.381 101.038 475.128 105.244 475.347 109.321C475.469 111.608 475.342 114.019 475.976 116.237C476.518 118.135 477.79 119.586 479.101 120.957C481.74 123.718 484.683 126.524 485.455 130.519C485.908 132.863 485.602 135.285 486.228 137.604C486.797 139.711 487.799 141.782 489.018 143.562C489.999 144.995 491.277 146.092 492.35 147.428C492.677 147.836 493.146 148.437 493.011 149.012C492.853 149.686 492.042 149.9 491.467 149.794C490.126 149.547 488.997 148.191 488.12 147.204C486.838 145.762 485.748 144.211 484.863 142.471C483.88 140.539 483.088 138.488 482.75 136.32C482.399 134.071 482.573 131.728 481.772 129.569C480.423 125.937 477.152 123.794 474.787 120.964C471.84 117.436 472.279 113.047 472.581 108.708C472.747 106.323 472.912 103.631 471.775 101.454C471.34 100.623 470.372 99.8481 470.186 98.9035C470.015 98.0381 470.948 97.1636 471.633 97.9372Z" fill="white"/>
<path fill-rule="evenodd" clip-rule="evenodd" d="M474.564 148.888C474.564 166.62 477.295 175.911 491.716 175.911C506.136 175.911 508.868 166.62 508.868 148.888H474.564Z" fill="#333333"/>
<path d="M88.3862 173.641C87.4786 174.111 74.8699 173.444 68.679 173.052C67.8808 173.389 79.5199 176.75 85.8649 177.632C92.2098 178.515 97.0841 180.868 94.8571 183.725C92.63 186.582 76.9987 183.053 69.4772 179.733C61.9557 176.414 61.3256 173.052 60.8213 166.875C60.3171 160.698 65.7376 153.723 67.0402 150.067C68.3429 146.411 75.6543 135.907 76.3266 131.705C76.9989 127.503 79.8562 118.049 81.2429 118.049C82.3522 118.049 84.7025 121.718 85.739 123.553H87.2517C87.7139 121.662 89.0669 117.914 90.7813 118.049C92.9243 118.217 95.7817 134.394 95.8657 134.94C95.9498 135.487 93.6807 139.226 92.252 139.479C91.1091 139.68 90.9914 141.243 91.0755 142C91.0475 145.641 91.0503 153.085 91.2856 153.723C91.5797 154.522 91.7898 163.178 91.6638 165.363C91.5377 167.548 92.8403 169.775 94.1009 171.329C95.3615 172.884 93.3866 173.052 93.0504 173.052C92.7142 173.052 89.5208 173.052 88.3862 173.641Z" fill="#FFA756"/>
<path d="M83.2192 123.999C83.9159 122.471 82.3261 121.018 81.4442 120.482C80.6672 120.214 79.9817 124.032 79.7361 125.975C80.6069 125.952 82.5226 125.526 83.2192 123.999Z" fill="white"/>
<path d="M88.987 123.411C88.2532 122.049 89.2927 120.376 89.9042 119.71C91.2408 119.107 92.099 122.669 92.361 124.525C91.5421 124.722 89.7208 124.774 88.987 123.411Z" fill="white"/>
<path d="M84.5212 156.546C86.0059 158.535 88.0845 163.866 84.5212 169.278C84.7229 169.614 87.4066 170.875 88.7232 171.463" stroke="white" stroke-linecap="round" stroke-linejoin="round"/>
<ellipse cx="89.1001" cy="132.613" rx="2.07372" ry="0.903311" fill="white"/>
</svg>
