<svg width="501" height="190" viewBox="0 0 501 190" fill="none" xmlns="http://www.w3.org/2000/svg">
<ellipse cx="250.5" cy="153.962" rx="250.5" ry="35.3668" fill="#C4C4C4"/>
<path d="M102.614 138.823L94.0518 139.198L94.3643 144.823L101.552 148.323L105.239 152.136L118.489 161.136L147.614 172.448L165.802 167.573L170.052 174.136L174.552 171.698L181.677 163.198L202.739 169.323L224.302 160.886L234.427 151.511L285.177 150.448L324.427 149.573L346.864 144.011L356.552 136.073L355.302 91.511L382.302 58.636L406.677 51.4485L408.302 43.0735L404.864 40.5735L391.427 44.0735L382.302 43.0735L374.989 45.136L373.427 51.4485L347.239 70.6985L335.427 44.4485L340.302 33.261L355.302 14.761L341.677 10.386L330.177 23.386L318.177 35.386L323.864 45.511L325.489 78.636L311.239 90.0735L304.489 87.886L277.802 70.6985L251.802 74.085L243.739 85.761L181.677 68.585L140.802 76.761L143.302 104.636L127.677 109.761L129.489 120.011L125.677 121.636L102.614 138.823Z" fill="white"/>
<path fill-rule="evenodd" clip-rule="evenodd" d="M149.445 109.452L150.306 120.902L166.682 125.024L179.179 130.978L189.09 140.138L193.83 136.016L199.863 121.818L206.758 120.444L231.752 123.192L240.371 125.94L237.354 141.512L234.338 152.962L284.325 149.756L282.602 123.192L272.259 98.918L231.321 77.8499L200.725 81.972L179.179 107.162L169.698 112.658L152.892 111.742" fill="#699BF7"/>
<path fill-rule="evenodd" clip-rule="evenodd" d="M125.6 131.964C125.6 133.833 126.692 133.714 128.014 133.571C128.465 133.522 128.943 133.47 129.414 133.493C129.7 133.507 130.185 133.597 130.759 133.704C132.439 134.016 134.892 134.472 135.438 133.591C135.96 132.748 135.232 132.633 134.49 132.516C133.99 132.438 133.483 132.358 133.349 132.053C132.993 131.241 133.692 130.679 134.371 130.131C134.974 129.646 135.562 129.172 135.385 128.549C135.206 127.92 134.408 128.277 133.546 128.662C132.589 129.09 131.554 129.553 131.2 128.743C130.863 127.97 131.639 127.255 132.342 126.604C132.938 126.055 133.482 125.552 133.259 125.102C132.847 124.269 128.665 126.377 128.131 126.739C126.621 127.763 125.531 130.066 125.6 131.964ZM312.349 87.5554C312.991 88.2884 313.479 89.152 313.964 90.0086C314.45 90.8663 314.931 91.717 315.558 92.4234C316.098 93.0313 316.718 93.2674 317.36 93.5117C317.65 93.622 317.946 93.7349 318.24 93.8844C318.808 94.1733 319.397 94.4867 320.001 94.8074C322.326 96.0431 324.868 97.3948 327.285 97.9265C325.503 95.7168 324.371 93.7174 323.312 91.0322C323.205 90.7583 323.089 90.4799 322.972 90.1987C322.679 89.494 322.378 88.7722 322.176 88.0595C321.962 87.3091 321.921 86.5356 321.881 85.766C321.844 85.0711 321.807 84.3794 321.644 83.7104C321.552 83.3331 321.514 83.0417 321.486 82.8258L321.486 82.8247C321.453 82.5694 321.434 82.4198 321.354 82.359C321.242 82.2731 321.01 82.3629 320.451 82.5791L320.406 82.5963L320.338 82.6228L320.265 82.6507C319.78 82.8373 319.33 83.2345 318.892 83.6216C318.617 83.8644 318.347 84.103 318.075 84.2837C317.236 84.8409 316.361 85.2814 315.489 85.7202C314.413 86.2621 313.342 86.8015 312.349 87.5554ZM393.956 47.8828C394.017 48.5767 402.842 45.2403 403.713 44.6282C405.342 43.4833 407.251 38.215 405.518 36.6534C403.957 35.2479 400.529 36.9604 398.047 38.2003C397.202 38.6227 396.466 38.9902 395.952 39.1607C392.544 40.2888 388.619 40.9239 385.068 40.5396C383.458 40.3649 381.872 40.22 380.247 40.1134C379.973 40.0956 379.657 40.0502 379.32 40.0013C378.156 39.8336 376.737 39.6285 375.925 40.3988C374.935 41.3379 375.055 43.2073 375.559 44.3749C375.733 44.7777 375.943 45.0003 376.146 45.2151C376.323 45.4031 376.495 45.5851 376.633 45.8764C376.67 45.9544 376.65 46.0543 376.626 46.1748C376.588 46.3659 376.541 46.6091 376.691 46.899C377.364 48.2021 379.656 50.3797 380.89 51.0431C382.073 51.6793 382.504 51.2877 383.161 50.691C383.384 50.489 383.633 50.2634 383.945 50.0464C386.093 48.5536 389.45 48.2724 392.269 48.0362C392.86 47.9866 393.428 47.9391 393.956 47.8828ZM373.525 48.2863C370.97 51.5902 367.966 53.8873 364.815 56.2958L364.814 56.2965C364.192 56.7726 363.563 57.2527 362.932 57.7463C362.078 58.4132 361.234 59.0941 360.391 59.7743L360.389 59.775L360.389 59.7757C357.884 61.7954 355.385 63.8112 352.639 65.456C352.343 65.6334 351.995 65.7906 351.642 65.95C350.709 66.3706 349.742 66.8073 349.6 67.6775C349.478 68.4346 350.327 70.0469 351.037 71.3958C351.385 72.0578 351.7 72.6563 351.85 73.0591C353.204 76.6791 354.246 80.3824 355.296 84.1118C355.442 84.6323 355.589 85.1529 355.737 85.6741L355.992 85.2528C359.502 79.4552 363.059 73.581 367.359 68.3431C371.246 63.6082 375.234 58.6539 378.632 53.5519C376.575 52.2247 374.871 50.3944 373.525 48.2863ZM343.722 4.85917C340.121 4.70615 339.024 7.81999 337.973 10.8014C337.56 11.9725 337.154 13.1233 336.607 14.0473C335.535 15.8581 334.108 17.8022 332.524 19.1571C331.323 20.1831 329.883 20.7882 328.447 21.3916C327.743 21.6875 327.039 21.9834 326.366 22.3279C324.513 23.2757 322.866 24.2256 321.71 26.0545C321.6 26.2285 321.477 26.4126 321.349 26.6044C320.546 27.8055 319.535 29.3192 320.111 30.7254C320.512 31.7012 321.601 32.5068 322.67 33.2977C323.428 33.8581 324.175 34.4112 324.661 35.0124C326.048 36.7292 326.243 36.6796 327.807 36.2809C328.062 36.216 328.352 36.1422 328.69 36.065C329.896 35.7894 331.042 35.7034 332.274 35.7492C332.424 35.7544 332.68 35.8051 332.978 35.8634C333.672 36 334.589 36.1807 334.898 35.9375C335.273 35.6433 335.156 34.7357 335.055 33.9469C335.003 33.5423 334.955 33.1688 334.979 32.925C335.089 31.8311 335.456 30.7024 335.804 29.671C336.982 26.174 339.067 23.6942 341.239 21.1107L341.241 21.1086L341.243 21.1061L341.245 21.1033L341.247 21.1009C341.616 20.6628 341.987 20.2212 342.356 19.7716C343.706 18.1279 345.302 16.7259 346.897 15.3253C348.535 13.8873 350.171 12.4508 351.537 10.7553C353.025 8.90755 352.347 7.60129 350.305 6.73628C349.729 6.49243 349.097 6.38447 348.468 6.27687C347.963 6.19058 347.459 6.10429 346.985 5.94847C346.611 5.8255 346.251 5.66234 345.893 5.49954C345.195 5.18267 344.502 4.8686 343.722 4.85917ZM148.714 135.321C149.416 135.321 150.114 135.018 150.803 134.718C151.546 134.393 152.28 134.074 153 134.145C153.348 134.179 153.739 134.528 154.108 134.858C154.346 135.07 154.576 135.275 154.779 135.383C155.517 135.775 156.314 135.97 157.128 136.077C157.665 136.147 158.137 136.148 158.574 136.148C159.581 136.149 160.4 136.15 161.385 137.002C162.416 137.894 163.481 139.019 164.471 140.065C164.698 140.306 164.922 140.542 165.14 140.771C166.951 142.664 168.529 144.929 170.077 147.149C170.661 147.987 171.241 148.818 171.827 149.621C174.468 153.24 177.211 156.113 180.725 158.823C183.501 160.964 186.313 162.373 189.44 163.939L189.725 164.082C192.904 165.675 196.903 167.523 200.51 167.611C203.387 167.681 206.983 166.703 209.601 165.402C210.857 164.779 211.453 164.67 212.478 164.483C212.697 164.443 212.934 164.4 213.201 164.347C215.483 163.899 218.112 162.631 220.26 161.595L220.493 161.482C227.368 158.168 231.725 150.946 234.825 143.877C236.59 139.854 237.692 135.922 238.427 131.569C238.465 131.343 238.503 131.132 238.539 130.937C238.871 129.088 238.968 128.548 236.996 127.66C235.252 126.876 233.396 126.329 231.56 125.788C231.078 125.646 230.597 125.504 230.12 125.358C223.395 123.307 215.73 122.854 208.786 123.168C208.372 123.186 207.957 123.217 207.541 123.247H207.54C206.86 123.297 206.179 123.347 205.5 123.346C205.278 123.346 204.957 123.303 204.605 123.256C203.906 123.163 203.087 123.054 202.687 123.232C201.741 123.657 200.938 125.578 200.365 126.946L200.365 126.947C200.212 127.312 200.076 127.637 199.958 127.884C198.999 129.895 198.147 131.959 197.296 134.021C196.537 135.859 195.779 137.696 194.944 139.495C194.023 141.482 192.648 142.788 190.475 142.82C188.32 142.852 187.175 141.561 185.868 140.087C185.699 139.896 185.527 139.702 185.349 139.507C182.268 136.124 178.121 133.217 174.296 130.864C170.165 128.323 165.239 125.861 160.535 124.964C160.049 124.871 159.464 124.73 158.817 124.575C155.3 123.729 149.931 122.437 148.321 125.952C148.354 125.948 148.39 125.942 148.429 125.937L148.437 125.936C149.56 125.774 153.018 125.275 153.17 126.957C153.224 127.563 152.276 127.937 151.184 128.366C149.915 128.865 148.454 129.44 148.151 130.544C148.387 130.524 148.737 130.461 149.149 130.387C150.826 130.084 153.53 129.596 153.763 131.107C153.887 131.908 152.806 132.391 152.059 132.725C151.873 132.808 151.707 132.882 151.586 132.949C150.384 133.619 149.66 134.315 148.714 135.321ZM279.278 75.5235C278.342 74.8251 276.67 74.7245 275.238 74.6382C274.709 74.6064 274.212 74.5764 273.796 74.5191L273.785 74.5177C271.827 74.2462 269.921 73.9817 267.943 74.0963C267.227 74.1379 266.5 74.1627 265.768 74.1879C263.665 74.2602 261.522 74.3339 259.505 74.8041C256.097 75.5975 252.87 76.8161 249.791 78.5259C249.731 78.559 249.67 78.5926 249.608 78.6268L249.605 78.6282C248.597 79.1816 247.317 79.8845 247.326 81.3815C247.333 82.5945 247.705 82.6619 248.579 82.8212C248.782 82.8583 249.012 82.9002 249.271 82.9627C252.15 83.6569 254.863 85.3838 257.478 87.0489C258.225 87.5243 258.963 87.9946 259.696 88.4344C263.202 90.5389 266.694 92.9041 269.948 95.4265C276.186 100.262 279.746 107.219 282.516 114.781C283.949 118.692 284.987 123.26 285.419 127.429C285.679 129.944 285.68 132.466 285.682 134.987C285.683 137.116 285.684 139.243 285.841 141.364C285.852 141.509 285.863 141.713 285.878 141.958C285.97 143.555 286.163 146.918 286.84 147.508C287.252 147.869 288.807 147.528 289.99 147.269C290.502 147.157 290.944 147.059 291.195 147.041C293.07 146.905 294.952 146.849 296.822 146.794C298.402 146.748 299.975 146.702 301.528 146.607C305.092 146.389 308.699 146.431 312.316 146.472C315.978 146.514 319.65 146.556 323.292 146.329C326.933 146.102 330.458 145.56 334.029 144.781C335.032 144.563 336.111 144.402 337.21 144.238C339.747 143.861 342.399 143.467 344.51 142.301C350.338 139.084 353.89 131.329 354.146 124.763C354.423 117.646 353.964 109.9 352.554 102.81C352.378 101.926 352.207 101.052 352.038 100.184C351.496 97.4014 350.965 94.6796 350.302 91.8791C349.438 88.2311 348.479 84.5971 347.528 80.9878L347.519 80.9571C347.401 80.5067 347.282 80.0571 347.164 79.6078C346.411 76.7487 345.486 73.9699 344.562 71.1935L344.562 71.1924C343.226 67.1783 341.893 63.1691 341.081 58.9324C340.326 54.9898 339.256 50.8678 338.139 47.0196C337.728 45.6015 336.916 42.9072 335.958 41.8298C335.196 40.9735 334.527 41.1367 333.598 41.3634C333.299 41.4364 332.973 41.5157 332.608 41.5699C331.979 41.6639 331.212 41.652 330.417 41.6401C328.042 41.6045 325.411 41.565 325.413 44.3096C325.413 45.4848 325.629 46.694 325.844 47.8971L325.844 47.8985V47.8999C325.996 48.7531 326.148 49.6038 326.222 50.4377C326.311 51.4397 326.336 52.4444 326.362 53.4488V53.4502C326.396 54.8232 326.431 56.1976 326.628 57.5622C326.744 58.3657 326.871 59.1563 326.998 59.9406L326.998 59.9434C327.473 62.892 327.934 65.7484 327.719 68.8528C327.609 70.4501 327.422 72.0236 327.236 73.5947C326.924 76.2271 326.612 78.8518 326.661 81.5663C326.67 82.0631 326.675 82.5578 326.68 83.0501C326.715 86.6464 326.749 90.1243 328.376 93.4533C328.693 94.1031 328.986 94.7994 329.28 95.4971C329.709 96.5151 330.139 97.537 330.649 98.4243C331.656 100.177 332.528 100.69 334.327 101.396C334.59 101.499 334.943 101.609 335.338 101.733C336.637 102.14 338.398 102.691 338.958 103.604C340.012 105.323 338.604 106.019 337.218 105.96C333.713 105.813 330.132 104.429 326.745 103.121L326.744 103.121L326.743 103.121L326.741 103.12L326.734 103.117C325.989 102.829 325.253 102.545 324.529 102.279C323.372 101.852 322.242 101.359 321.113 100.865C320.4 100.553 319.686 100.241 318.968 99.9475C318.554 99.7781 318.161 99.6394 317.781 99.5056C316.799 99.1594 315.899 98.8422 314.927 98.0959C313.229 96.7928 311.731 95.2322 310.233 93.6713C308.832 92.211 307.43 90.75 305.863 89.4996C299.732 84.6044 292.381 81.682 284.68 80.8149C282.698 80.5916 281.164 80.6919 279.18 80.8701C278.887 80.8963 278.594 80.9179 278.303 80.9396C277.501 80.9986 276.704 81.0573 275.908 81.2138C275.688 81.2572 275.256 81.4308 274.766 81.6278C273.856 81.9936 272.747 82.4397 272.428 82.279C269.242 80.6748 278.263 75.7907 279.278 75.5235ZM149.436 109.401C149.437 109.384 149.438 109.368 149.44 109.352C149.445 109.374 149.451 109.396 149.457 109.418L149.436 109.401ZM149.565 109.8C149.528 109.677 149.492 109.549 149.457 109.418C150.107 109.965 150.695 110.562 151.281 111.159C152.066 111.956 152.847 112.751 153.767 113.413C155.679 114.789 157.954 115.517 160.22 116.032C164.388 116.979 170.086 116.742 174.06 114.88C177.734 113.159 180.057 110.052 182.101 106.446C182.406 105.908 182.585 105.321 182.758 104.756C183.13 103.539 183.473 102.419 184.978 102.08C186.002 101.849 187.227 102.278 188.47 102.712C189.479 103.065 190.5 103.422 191.434 103.433C193.457 103.458 196.08 102.481 197.732 101.162C198.289 100.717 198.685 99.8459 199.061 99.0169C199.449 98.1634 199.816 97.3539 200.318 97.1006C200.713 96.9015 201.362 97.1963 201.924 97.4517C202.189 97.5719 202.435 97.6837 202.625 97.7302C203.666 97.9859 204.702 98.0659 205.746 97.7756C207.099 97.3993 209.297 96.3652 210.352 95.3867C210.918 94.8619 211.251 93.8065 211.572 92.7906C211.901 91.7498 212.216 90.751 212.755 90.4079C213.206 90.1211 213.983 90.3412 214.773 90.5648C215.377 90.7356 215.989 90.9086 216.469 90.86C220.044 90.4984 222.481 88.3306 223.855 84.8566C223.958 84.596 224.068 84.0318 224.193 83.3837C224.443 82.0946 224.757 80.4739 225.214 80.2559C225.483 80.1277 226.912 80.6783 227.948 81.0776C228.408 81.2547 228.79 81.4021 228.96 81.4472C232.438 82.3713 236.799 84.3392 239.815 86.3347C242.126 87.8646 244.769 88.8756 247.395 89.88L247.396 89.8807C248.886 90.4506 250.371 91.0186 251.787 91.6782C255.044 93.1958 258.221 95.0177 261.228 96.9577C264.766 99.2404 267.973 101.552 270.856 104.735L270.977 104.868L271.136 105.043C273.879 108.069 277.081 111.6 278.271 115.648C278.717 117.164 278.868 118.793 279.018 120.411C279.102 121.31 279.185 122.206 279.319 123.076C279.558 124.639 279.931 126.154 280.305 127.672C280.514 128.52 280.723 129.368 280.91 130.227C281.895 134.77 282.288 140.148 282.258 144.821C282.256 145.212 282.275 145.577 282.294 145.912C282.365 147.235 282.413 148.114 280.982 148.459C279.828 148.736 278.253 148.391 276.793 148.07C276.036 147.905 275.31 147.745 274.69 147.683C273.126 147.526 271.603 147.571 270.071 147.617H270.069H270.068C269.26 147.641 268.449 147.665 267.628 147.659C266.944 147.654 266.247 147.611 265.545 147.567C264.035 147.472 262.502 147.376 261.031 147.663C258.408 148.175 255.685 148.29 252.946 148.405C251.91 148.448 250.872 148.492 249.837 148.557C248.686 148.629 247.535 148.637 246.383 148.644C244.979 148.652 243.575 148.661 242.173 148.788C241.998 148.804 241.591 148.882 241.069 148.982C239.446 149.292 236.72 149.814 236.489 149.328C236.226 148.776 237.451 146.439 238.389 144.65C238.81 143.848 239.173 143.156 239.318 142.784C240.206 140.508 240.997 138.177 241.429 135.75C242.159 131.64 242.418 127.667 242.45 123.534C242.486 118.754 241.703 114.251 240.485 109.679C240.455 109.568 240.417 109.394 240.37 109.176C240.036 107.645 239.235 103.967 237.6 105.078C236.614 105.748 237.18 108.671 237.498 110.309C237.573 110.698 237.634 111.015 237.658 111.212C237.769 112.152 237.92 113.086 238.072 114.018C238.306 115.457 238.539 116.894 238.623 118.354C238.639 118.626 238.672 118.947 238.708 119.293C238.811 120.297 238.935 121.501 238.707 122.256C238.628 122.52 238.592 122.71 238.567 122.845C238.539 122.995 238.523 123.078 238.476 123.119C238.416 123.171 238.307 123.157 238.06 123.128C237.939 123.113 237.786 123.094 237.591 123.078C236.583 122.991 235.424 122.273 234.319 121.588C233.595 121.139 232.895 120.704 232.275 120.472C230.283 119.722 228.315 119.273 226.248 118.876C221.786 118.019 217.314 117.706 212.774 117.721C211.681 117.724 210.536 117.929 209.394 118.134C208.062 118.372 206.734 118.61 205.497 118.528C205.407 118.522 205.319 118.515 205.231 118.509C203.686 118.405 202.54 118.327 200.77 118.676C201.054 117.031 201.745 115.461 202.437 113.889C203.224 112.103 204.011 110.315 204.202 108.411C204.688 103.565 200.883 106.843 199.611 108.769C197.779 111.543 196.317 114.468 195.854 117.898C195.767 118.546 195.844 119.199 195.92 119.843C196.003 120.547 196.085 121.239 195.948 121.9C195.778 122.716 195.223 123.617 194.691 124.479C194.364 125.009 194.046 125.525 193.832 125.998C192.52 128.894 191.606 131.929 190.745 135.001C190.677 135.242 190.624 135.468 190.575 135.673C190.322 136.744 190.197 137.27 188.865 136.627C188.249 136.33 187.766 135.752 187.29 135.183C187.014 134.853 186.741 134.526 186.447 134.259C182.534 130.709 178.407 127.414 173.887 124.691C169.166 121.847 164.563 120.52 159.211 119.922C158.914 119.889 158.569 119.859 158.194 119.825C156.045 119.637 152.887 119.36 151.87 117.949C150.974 116.706 150.545 114.482 150.156 112.467C149.966 111.481 149.785 110.546 149.565 109.8ZM152.608 108.429C151.206 107.713 149.612 106.899 149.44 109.352C149.253 108.647 149.083 107.844 148.906 107.007C148.416 104.689 147.868 102.103 146.752 100.576C146.44 100.149 146.056 100.018 145.702 99.8972C145.423 99.8022 145.162 99.7131 144.967 99.4902C144.506 98.961 144.447 97.8322 144.401 96.9371C144.384 96.6157 144.369 96.324 144.337 96.1011C144.262 95.5704 144.183 95.0485 144.105 94.5318L144.105 94.53C143.717 91.9643 143.349 89.5314 143.562 86.8385C143.568 86.755 143.573 86.61 143.58 86.4263C143.611 85.5658 143.672 83.8557 144.05 83.6146C144.416 83.3809 145.453 83.6911 146.31 83.9472C146.749 84.0782 147.141 84.196 147.371 84.2187C148.741 84.3539 150.122 84.5408 151.505 84.7277C155.423 85.2577 159.367 85.7911 163.189 85.1693C167.829 84.4147 172.281 82.8191 176.559 80.7775C176.651 81.3162 176.891 81.7487 177.277 82.0747C177.412 81.8647 177.53 81.6663 177.642 81.4801C178.229 80.498 178.616 79.851 180.137 79.5984C181.292 79.4066 182.889 79.7867 183.846 80.5504C187.551 83.5035 183.327 86.4151 180.891 87.7399C183.901 91.2485 184.85 98.6766 181.384 102.262C180.89 102.773 180.394 103.242 179.902 103.706C179.026 104.535 178.163 105.35 177.346 106.372C176.011 108.042 174.944 109.338 173.011 109.938C172.781 110.008 172.545 110.083 172.304 110.159C170.397 110.758 168.156 111.462 166.295 111.565C164.927 111.641 163.46 111.34 162.046 111.051C161.396 110.917 160.758 110.787 160.146 110.696C157.726 110.336 155.382 109.765 153.145 108.697C152.972 108.614 152.792 108.522 152.608 108.429ZM146.813 138.648C146.954 138.83 147.219 139.139 147.56 139.538C149.603 141.923 154.39 147.51 151.774 148.322C150.653 148.67 148.878 146.722 147.624 145.346C147.228 144.911 146.884 144.534 146.628 144.304C144.984 142.821 143.26 141.847 141.254 141.029C136.358 139.034 131.929 137.24 126.597 138.069C125.833 138.188 125.014 138.387 124.177 138.59C122.509 138.995 120.767 139.418 119.238 139.26C116.928 139.023 117.526 136.839 118.971 135.62C119.461 135.207 120.024 134.995 120.565 134.791C121.45 134.457 122.277 134.145 122.629 133.011C122.879 132.204 122.902 131.305 122.926 130.394C122.957 129.219 122.988 128.025 123.505 126.984C124.289 125.404 126.137 123.766 127.564 122.851C127.772 122.717 128.028 122.598 128.29 122.476C128.815 122.232 129.361 121.977 129.578 121.586C129.779 121.223 129.205 119.564 128.844 118.522C128.726 118.182 128.631 117.907 128.594 117.766C128.4 117.033 128.201 116.3 128.002 115.567C127.437 113.483 126.871 111.394 126.404 109.289C125.818 106.652 125.666 105.286 128.287 104.329C130.442 103.542 132.653 102.981 134.859 102.421C136.75 101.941 138.639 101.461 140.486 100.841C140.008 99.5217 138.845 99.8396 137.649 100.167C137.071 100.325 136.485 100.485 135.966 100.463C134.015 100.38 131.757 99.6995 129.898 99.0644C125.68 97.6219 122.809 94.0259 122.157 89.3889C122.097 88.9616 122.142 88.3537 122.188 87.7255C122.252 86.8588 122.319 85.9539 122.116 85.4324C121.885 84.8374 121.359 84.4566 120.83 84.0737C120.603 83.9098 120.376 83.7457 120.172 83.564C118.415 82.0041 116.859 79.8629 115.912 77.6465C114.962 75.4253 114.896 72.9302 115.448 70.586C115.492 70.3963 115.534 70.2307 115.571 70.0822C115.789 69.2196 115.86 68.9373 115.493 67.8955C115.262 67.2381 114.962 66.6141 114.662 65.9884C114.317 65.2698 113.97 64.549 113.725 63.7731C112.974 61.395 112.564 58.8314 112.605 56.3202C112.635 54.463 113.109 53.2811 113.631 51.9794C113.901 51.3065 114.183 50.6019 114.424 49.7554C114.758 48.5826 114.619 47.1415 114.482 45.707C114.389 44.7438 114.297 43.7834 114.348 42.9097C114.511 40.126 115.184 37.8894 116.345 35.4117C118.129 31.6048 120.955 27.5239 124.632 25.5276C124.967 25.3456 125.402 25.2426 125.836 25.1395C126.345 25.0186 126.854 24.8981 127.204 24.6504C127.847 24.1966 128.018 23.5712 128.221 22.8309C128.273 22.6412 128.327 22.4442 128.391 22.2405C129.145 19.8582 130.086 17.9284 131.716 16.1068C137.003 10.2002 146.267 8.10822 153.697 8.60675C154.176 8.63889 154.646 8.7458 155.111 8.8513C155.943 9.03996 156.757 9.22442 157.568 8.97253C158.045 8.82405 158.538 8.4691 159.034 8.11241C159.448 7.81405 159.865 7.51465 160.275 7.33228C161.419 6.82571 162.564 6.52911 163.794 6.39949C166.223 6.14306 168.199 6.41417 170.438 7.28303C171.102 7.54085 171.743 7.81685 172.391 8.09599C172.568 8.1725 172.747 8.24936 172.926 8.32587C173.931 8.75593 174.124 8.70108 174.711 8.53478C174.892 8.48342 175.111 8.42124 175.403 8.35976C177.869 7.83956 179.285 8.22455 181.47 9.33901C181.683 9.44766 181.941 9.54618 182.207 9.64749C182.669 9.82357 183.156 10.0087 183.473 10.2722C183.795 10.5398 184.03 11.0551 184.265 11.5693C184.547 12.1877 184.828 12.8047 185.259 12.987C185.54 13.1065 186.197 12.8675 186.782 12.6555C187.108 12.537 187.411 12.427 187.613 12.3921C188.275 12.2778 188.928 12.3065 189.582 12.3351C189.912 12.3494 190.242 12.3641 190.574 12.3603C192.328 12.34 194.181 12.4092 195.782 13.2875C196.786 13.8381 197.96 14.8142 198.925 15.616C199.119 15.7774 199.305 15.9318 199.478 16.074C200.034 16.5285 200.509 17.1395 200.986 17.7537C201.744 18.7277 202.507 19.7094 203.607 20.0871C203.972 20.2121 204.352 20.2065 204.734 20.201C205.087 20.1961 205.442 20.1908 205.787 20.2897C206.723 20.5573 207.621 21.2749 208.378 21.9086C208.922 22.3638 209.431 23.0702 209.936 23.7714C210.64 24.7496 211.337 25.717 212.11 25.9752C212.549 26.1216 213.109 26.1198 213.685 26.1181C214.271 26.116 214.875 26.1142 215.386 26.2686C216.658 26.6529 217.713 27.2102 218.655 28.2296C220.454 30.1745 220.962 33.0497 221.039 35.687C221.045 35.9068 221.01 36.2498 220.971 36.638C220.882 37.5058 220.77 38.5972 221.048 39.0332C221.237 39.3294 221.702 39.5593 222.18 39.7951C222.605 40.0051 223.04 40.2196 223.298 40.49C225.01 42.2857 225.783 45.2783 225.956 47.7385C226.104 49.8295 225.762 51.4606 225.383 53.2672C225.253 53.8859 225.119 54.5249 224.999 55.2099C224.906 55.7441 224.803 55.9984 224.751 56.1295C224.722 56.2007 224.708 56.2353 224.718 56.2587C224.727 56.2811 224.759 56.293 224.82 56.316C224.947 56.3639 225.203 56.4599 225.66 56.7978C226.576 57.4748 227.208 57.9486 227.802 59.0113C229.044 61.2336 229.356 63.8534 229.151 66.386C228.999 68.2596 228.406 69.8499 227.806 71.4576C227.394 72.5616 226.979 73.6736 226.702 74.8908C229.229 74.8908 231.914 75.4613 234.464 76.0031C235.077 76.1334 235.682 76.262 236.275 76.3804C237.11 76.5478 237.807 76.9513 238.519 77.3635C238.769 77.5089 239.022 77.6549 239.283 77.7922C239.827 78.0787 240.285 78.2058 240.752 78.3358C241.028 78.4127 241.308 78.4902 241.61 78.6024L241.666 78.623C242.593 78.9654 242.986 79.1107 243.299 79.001C243.53 78.9203 243.718 78.7019 244.044 78.3222C244.19 78.1531 244.363 77.9519 244.579 77.7164C250.055 71.7654 257.85 68.1726 265.711 68.2896C270.096 68.3542 274.337 68.9674 278.436 70.6394L278.661 70.7313C280.3 71.3986 282.09 72.127 283.531 73.1656C285.248 74.4045 285.527 74.4104 287.733 74.459L287.844 74.4614C296.203 74.6452 304.313 79.401 310.396 85.1651C310.85 81.9335 315.066 79.7832 318.114 78.2286C318.713 77.9232 319.266 77.6409 319.738 77.3779C319.922 77.2752 320.103 77.1815 320.279 77.0907C321.042 76.697 321.71 76.3525 322.102 75.5189C322.366 74.9589 322.466 74.0537 322.565 73.1719C322.634 72.542 322.703 71.924 322.829 71.4527C323.383 69.3758 324.023 66.8345 323.973 64.6441C323.901 61.4289 323.509 58.2214 323.117 55.0119C322.735 51.891 322.354 48.7681 322.265 45.6343C322.255 45.2448 322.236 44.8437 322.217 44.4367C322.159 43.1762 322.098 41.8609 322.25 40.6661C322.291 40.337 322.359 40.04 322.422 39.7606C322.605 38.9567 322.756 38.2939 322.171 37.4195C321.555 36.4996 320.726 35.8634 319.898 35.2283C318.713 34.3189 317.53 33.412 316.984 31.6774C315.488 26.9303 318.058 22.076 321.567 19.2524C322.314 18.6515 323.055 18.2257 323.773 17.8124C324.999 17.1081 326.16 16.4401 327.181 15.0039C327.721 14.2426 328.231 13.4297 328.743 12.6132C329.612 11.2273 330.488 9.83056 331.534 8.65601C332.039 8.08935 332.528 7.45281 333.021 6.80964C333.891 5.67702 334.777 4.52308 335.796 3.69265C337.434 2.3574 339.839 1.45501 341.795 0.820571C346.491 -0.702638 352.256 -0.338954 355.56 3.9152C358.929 8.2525 353.967 14.3855 351.153 17.412C350.418 18.2033 349.75 19.061 349.082 19.9194C348.509 20.6544 347.937 21.3902 347.321 22.085C346.697 22.7894 345.997 23.4227 345.308 24.0467C344.541 24.7412 343.786 25.4239 343.163 26.1806C342.983 26.3982 342.8 26.619 342.614 26.8426C341.513 28.1667 340.334 29.5851 339.444 31.037C339.276 31.3127 339.087 31.596 338.892 31.8867C338.329 32.7304 337.727 33.6328 337.483 34.561C337.191 35.679 337.233 35.6982 337.456 35.7992C337.592 35.86 337.793 35.9511 338.027 36.3333C338.15 36.5339 338.257 36.6981 338.352 36.8424C338.744 37.4443 338.917 37.7088 339.091 38.8735C339.299 40.2773 339.596 41.3047 340.312 42.5041C340.554 42.9093 340.8 43.3097 341.045 43.709L341.046 43.7108L341.048 43.7129L341.049 43.7153C341.998 45.2598 342.937 46.7876 343.597 48.5215C344.475 50.8272 345.149 53.1613 345.83 55.5205L345.83 55.5216C346.007 56.1343 346.184 56.7492 346.366 57.3648C346.464 57.697 346.553 58.0429 346.642 58.3926L346.643 58.3937L346.643 58.3951L346.643 58.3965C346.868 59.2726 347.099 60.1726 347.494 60.9394C348.268 62.4389 348.389 62.3411 349.505 61.4334L349.564 61.3856C350.444 60.6708 351.327 59.9459 352.213 59.2181L352.215 59.2164C354.85 57.0525 357.517 54.862 360.245 52.8371C362.333 51.2866 364.503 49.7683 366.707 48.41C366.948 48.2612 367.234 48.0942 367.546 47.9111C369.193 46.9465 371.591 45.5425 372.228 44.0881C372.638 43.1494 372.619 42.2424 372.601 41.3536C372.575 40.0694 372.549 38.8232 373.82 37.5746C375.221 36.1985 377.505 35.4355 379.33 35.1011C381.235 34.7525 383.287 35.0292 385.268 35.2957C385.969 35.3904 386.662 35.4837 387.336 35.5476C389.942 35.7943 392.489 35.5256 395.044 34.961C395.94 34.763 397.025 34.3595 398.196 33.9238C402.136 32.4579 407.05 30.6304 409.003 35.0596C409.87 37.0205 409.603 39.1467 409.346 41.21C409.273 41.7921 409.201 42.3692 409.155 42.9362C408.973 45.1819 408.35 47.5663 407.031 49.4137C405.773 51.1713 404.04 51.542 402.175 51.9406C401.801 52.0206 401.421 52.1017 401.038 52.1957C399.663 52.5328 398.268 52.7606 396.874 52.9887C395.533 53.2081 394.192 53.4272 392.867 53.7437C391.535 54.0616 390.222 54.2164 388.855 54.2831C388.294 54.3107 387.617 54.2143 386.947 54.1185C386.165 54.0071 385.392 53.8967 384.817 53.9854C384.228 54.0763 384.099 54.3435 383.953 54.6433C383.849 54.8592 383.736 55.0915 383.439 55.2878C383.288 55.3878 383.054 55.3979 382.84 55.4066C382.646 55.415 382.469 55.4224 382.383 55.4954C381.933 55.8786 381.774 56.2171 381.477 56.8509L381.472 56.8603L381.47 56.8663L381.466 56.8757L381.42 56.9732L381.385 57.0451C380.477 58.968 379.198 60.8518 377.974 62.6569C377.655 63.1261 377.341 63.5897 377.037 64.0473C376.944 64.1881 376.849 64.3314 376.753 64.4767L376.674 64.5976C376.599 64.7115 376.523 64.8264 376.447 64.9424C375.352 66.6109 374.135 68.464 372.903 69.8733C370.915 72.1466 368.965 74.5683 367.015 76.9901L367.014 76.9911C365.93 78.3369 364.847 79.6826 363.757 81.0025C362.204 82.8827 360.342 84.8832 358.538 86.4993C358.346 86.6712 358.087 86.8371 357.818 87.0094C357.305 87.3371 356.758 87.6878 356.571 88.1458C356.277 88.8673 356.775 90.2161 357.171 91.2852C357.321 91.6918 357.456 92.0583 357.527 92.334C357.822 93.4785 357.994 94.6411 358.166 95.8003C358.351 97.0514 358.536 98.2986 358.873 99.515C359.495 101.756 359.721 104.2 359.859 106.537C359.957 108.183 360.09 109.803 360.222 111.413V111.415C360.514 114.969 360.803 118.474 360.693 122.11C360.555 126.667 360.397 131.037 358.904 135.511C357.544 139.583 353.471 144.016 349.682 145.517C347.428 146.41 345.333 147.222 343.064 147.706L342.642 147.797C340.528 148.247 338.322 148.717 336.237 149.348C332.108 150.598 327.757 151.47 323.47 151.898C317.982 152.445 312.257 152.498 306.784 152.297C304.288 152.205 301.723 152.199 299.26 152.207C297.553 152.212 295.913 152.452 294.25 152.696C293.426 152.817 292.596 152.938 291.751 153.032C287.221 153.535 282.562 153.582 277.904 153.628C273.303 153.674 268.703 153.72 264.23 154.207C262.737 154.369 261.245 154.581 259.75 154.795H259.749C256.79 155.217 253.822 155.64 250.816 155.677C248.546 155.704 246.259 155.627 243.989 155.552C242.208 155.492 240.437 155.433 238.694 155.424C238.422 155.423 238.157 155.427 237.896 155.431C236.955 155.445 236.071 155.458 235.088 155.219C234.896 155.173 234.683 155.087 234.46 154.998C233.91 154.779 233.301 154.535 232.826 154.792C232.425 155.009 232.092 155.704 231.805 156.301C231.674 156.575 231.553 156.827 231.439 157.005C230.648 158.245 229.684 159.24 228.667 160.268C224.626 164.347 220.622 165.722 215.32 167.216C212.885 167.903 211.684 168.262 209.64 169.832C207.975 171.112 206.29 172.031 204.374 172.785C200.615 174.264 196.182 173.12 192.65 171.837C192.115 171.642 191.571 171.454 191.024 171.264C189.82 170.845 188.595 170.42 187.393 169.912C186.175 169.398 185.065 168.71 183.957 168.022C182.901 167.367 181.847 166.714 180.702 166.213C180.872 167.886 179.854 168.858 178.873 169.795C178.298 170.343 177.736 170.879 177.432 171.537C177.17 172.105 177.115 172.833 177.059 173.582C177.002 174.35 176.943 175.139 176.655 175.798C176.129 177.006 175.316 178.147 174.047 178.463C172.317 178.893 169.226 176.856 168.012 175.667C167.743 175.404 167.487 174.967 167.222 174.518C166.823 173.839 166.407 173.132 165.91 172.956C165.181 172.697 164.041 173.387 163.065 173.978C162.598 174.26 162.169 174.519 161.84 174.642C156.962 176.466 152.019 177.327 146.782 176.6C141.967 175.932 137.517 174.227 133.017 172.503C132.557 172.327 132.096 172.15 131.634 171.975C121.888 168.268 113.405 162.165 105.773 154.817C105.639 154.688 105.486 154.563 105.33 154.436C104.992 154.16 104.64 153.874 104.44 153.508C104.3 153.251 104.243 152.804 104.193 152.408C104.152 152.082 104.115 151.792 104.039 151.673C103.632 151.037 103.059 151.013 102.352 150.985C102.196 150.979 102.033 150.972 101.865 150.959C98.9833 150.728 96.6945 149.991 94.4611 147.946C90.9461 144.726 89.6458 137.219 95.0342 135.226C96.4116 134.715 97.9276 134.614 99.3514 134.928C99.5887 134.981 100.087 135.241 100.633 135.526C101.438 135.947 102.349 136.422 102.681 136.367C103.284 136.265 103.374 135.65 103.457 135.082C103.491 134.853 103.523 134.631 103.588 134.454C104.158 132.892 104.96 131.517 105.927 130.191C107.534 127.988 109.493 125.773 111.503 123.98C113.462 122.231 115.599 121.355 117.896 120.414C118.158 120.306 118.423 120.198 118.69 120.087C120.441 119.361 123.859 118.113 125.714 118.763C128.129 119.61 126.947 122.406 125.425 123.385C124.34 124.082 123.148 124.574 121.951 125.067C120.749 125.563 119.543 126.06 118.439 126.769C116.637 127.926 114.951 129.4 113.292 130.849C112.714 131.355 112.139 131.857 111.563 132.342C110.732 133.043 109.952 133.821 109.173 134.597C108.274 135.492 107.377 136.387 106.403 137.162C105.921 137.545 105.133 138.216 104.984 138.428C104.967 138.452 104.962 138.527 104.956 138.628C104.942 138.846 104.92 139.182 104.757 139.364C104.723 139.402 104.69 139.439 104.658 139.475L104.575 139.567C104.194 139.995 104.008 140.203 103.785 140.268C103.574 140.329 103.33 140.262 102.855 140.13C102.711 140.09 102.546 140.045 102.354 139.995C100.476 139.508 95.9922 138.408 94.7259 140.874C93.6101 143.048 98.058 145.01 99.6821 145.727L99.7824 145.772C101.653 146.598 102.331 147.428 103.43 148.773C103.653 149.045 103.892 149.338 104.163 149.657C105.321 151.023 107.018 152.081 108.641 153.092C109.324 153.518 109.993 153.935 110.603 154.363C113.968 156.724 117.648 158.568 121.303 160.398L121.304 160.399L121.305 160.4C122.49 160.993 123.672 161.585 124.84 162.193C129.456 164.596 134.416 166.33 139.228 168.012L139.314 168.041C142.235 169.062 145.736 170.158 148.802 170.472C151.891 170.789 154.789 170.256 157.82 169.631C159.032 169.381 159.947 169.19 161.214 168.717C161.422 168.639 161.678 168.586 161.941 168.531C162.393 168.437 162.865 168.339 163.148 168.106C163.638 167.702 163.639 167.356 163.64 166.844C163.64 166.63 163.641 166.387 163.677 166.1C164.121 162.562 166.111 165.205 167.49 167.038C167.782 167.425 168.046 167.776 168.262 168.024C168.46 168.251 168.657 168.489 168.856 168.729L168.856 168.73C169.623 169.656 170.424 170.622 171.425 171.176C173.005 172.049 173.28 171.638 173.798 170.197C173.934 169.817 174.059 169.43 174.182 169.046C174.936 166.704 175.648 164.489 178.796 164.829C178.249 164.333 177.706 163.851 177.17 163.375C174.87 161.331 172.678 159.383 170.67 156.829C169.043 154.758 167.486 152.585 165.935 150.42L165.933 150.417C165.157 149.333 164.382 148.251 163.6 147.185C162.972 146.328 162.37 145.365 161.757 144.384C160.497 142.367 159.192 140.277 157.515 138.888C156.727 138.235 154.332 136.73 153.42 136.762C152.731 136.786 152.081 137.4 151.417 138.027C150.766 138.642 150.102 139.27 149.374 139.367C147.751 139.585 147.003 138.984 146.539 137.588C146.284 136.817 146.489 135.984 146.679 135.214C146.846 134.538 147.001 133.911 146.82 133.418C146.768 133.279 146.585 133.126 146.384 132.959C146.163 132.774 145.919 132.571 145.807 132.348C145.486 131.709 145.463 130.868 145.559 130.16C145.614 129.75 145.701 129.435 145.783 129.14C145.911 128.674 146.025 128.26 145.979 127.61C145.95 127.201 145.875 126.829 145.802 126.466C145.654 125.734 145.514 125.044 145.784 124.18C146.065 123.275 146.737 122.643 147.394 122.025C147.722 121.716 148.047 121.411 148.317 121.078C149.353 119.797 149.068 118.782 148.657 117.324C148.581 117.056 148.502 116.772 148.425 116.468C147.874 114.29 147.275 112.125 146.676 109.96C146.129 107.98 145.581 106 145.07 104.01C144.072 104.344 143.084 104.696 142.097 105.048L142.096 105.049L142.095 105.049L142.092 105.05C140.644 105.566 139.197 106.082 137.727 106.539C137.132 106.724 136.502 106.904 135.856 107.089C133.92 107.643 131.849 108.235 130.193 109.11C129.881 109.275 129.662 109.366 129.512 109.428C129.345 109.497 129.262 109.532 129.229 109.595C129.197 109.656 129.211 109.745 129.24 109.919C129.267 110.089 129.308 110.339 129.333 110.725C129.372 111.36 129.546 112.042 129.717 112.709C129.817 113.1 129.915 113.486 129.984 113.853C130.068 114.301 130.141 114.92 130.222 115.614C130.474 117.768 130.81 120.642 131.837 121.305C132.177 121.525 132.603 121.522 133.049 121.518C133.682 121.514 134.356 121.509 134.886 122.137C135.334 122.669 135.439 123.343 135.543 124.012C135.616 124.479 135.689 124.944 135.877 125.356C136.032 125.696 136.266 125.921 136.503 126.148C136.7 126.338 136.899 126.529 137.055 126.79C137.636 127.764 137.695 128.611 137.764 129.616C137.78 129.847 137.797 130.086 137.82 130.338C137.843 130.586 137.849 130.978 137.856 131.426C137.872 132.506 137.893 133.908 138.174 134.372C138.55 134.995 139.19 135.098 139.846 135.204C140.113 135.247 140.382 135.291 140.637 135.369C142.867 136.057 144.92 137.253 146.813 138.648ZM155.764 100.698C155.351 102.066 153.456 103.615 151.936 102.791C150.045 101.768 149.869 97.7302 150.387 96.0071C151.266 93.0868 152.004 96.9172 152.159 98.0708C152.179 98.22 152.191 98.3583 152.203 98.4862C152.25 99.0217 152.282 99.375 152.793 99.5776C153.016 99.6663 153.332 99.6296 153.666 99.5909C154.054 99.5458 154.466 99.4979 154.786 99.6415C155.297 99.8714 155.383 100.023 155.629 100.46C155.668 100.531 155.713 100.61 155.764 100.698ZM144.853 92.0083C144.767 93.9298 147.598 99.8508 148.444 95.5596C148.376 94.2792 147.76 92.0195 146.958 91.0169C145.812 89.5841 144.933 90.2357 144.853 92.0083ZM152.23 89.6914C152.23 87.8332 153.298 87.4656 154.629 88.6688C156.003 89.9101 156.452 91.9835 156.594 93.6964C156.749 95.5536 156.349 96.3428 154.603 95.1494C153.074 94.1045 152.31 91.3219 152.23 89.6914ZM161.309 103.197C158.951 103.009 156.21 107.702 159.108 107.335C160.201 107.261 162.387 106.426 162.707 105.094C162.959 104.04 162.269 103.275 161.309 103.197ZM179.223 84.2487C179.09 82.3122 181.905 81.3008 182.269 83.3537C182.612 85.2916 178.562 87.2833 179.223 84.2487ZM134.692 113.684C134.709 111.251 131.903 107.328 130.901 111.294C131.044 112.499 131.518 115.682 133.083 115.954C134.337 116.172 134.684 114.752 134.692 113.684Z" fill="#333333"/>
<path fill-rule="evenodd" clip-rule="evenodd" d="M440.006 58.8575C441.155 58.7088 442.381 58.7613 443.449 59.2417C445.721 60.2633 446.367 63.1065 446.336 65.4175C446.302 67.9048 445.804 70.6216 447.589 72.6257C448.409 73.5471 449.43 74.2522 450.236 75.1905C451.097 76.1932 451.772 77.3405 452.273 78.5725C453.191 80.8354 453.642 83.4966 452.802 85.8704C452.062 87.9605 450.202 89.8469 450.604 92.2235C451.023 94.7027 453.383 96.598 454.858 98.4446C456.527 100.534 458.065 103.205 458.317 105.946C458.559 108.572 457.48 111.229 455.824 113.214C452.515 117.181 447.541 119.126 442.525 119.114C440.396 119.108 437.985 119.007 436.147 117.794C435.579 117.42 435.28 116.999 434.942 116.415C434.639 115.891 434.24 115.55 433.777 115.179C432.76 114.365 432.025 113.267 431.557 112.039C429.737 107.266 431.191 101.362 433.739 97.1243C434.343 96.1203 434.837 95.1541 434.544 93.9573C434.237 92.7081 433.485 91.5813 432.82 90.5074C432.163 89.4461 431.412 88.4337 430.898 87.2862C430.36 86.0841 430.209 84.8253 430.304 83.5097C430.483 81.0385 431.49 78.758 432.915 76.7706C434.289 74.8562 435.901 73.0245 435.905 70.5162C435.909 67.8577 434.231 65.4928 434.946 62.7899C435.241 61.6707 435.836 60.5224 436.794 59.8514C437.713 59.2079 438.926 58.9973 440.006 58.8575Z" fill="#333333"/>
<path fill-rule="evenodd" clip-rule="evenodd" d="M439.256 63.107C439.278 62.7499 439.677 62.5358 439.992 62.629C440.406 62.7517 440.398 63.1617 440.388 63.5271C440.354 64.65 440.507 65.7413 440.762 66.8309C441.292 69.0963 442.271 71.1834 443.046 73.3595C443.821 75.5337 444.185 77.7786 443.73 80.0792C443.302 82.2484 442.628 84.3614 442.19 86.5333C441.803 88.4476 441.392 90.4663 441.981 92.3757C442.547 94.2137 443.799 95.7105 444.701 97.3714C446.567 100.81 447.395 104.624 447.506 108.549C447.558 110.372 447.511 112.212 447.112 114C446.882 115.029 446.574 116.42 445.741 117.131C445.357 117.458 444.7 117.572 444.377 117.086C444.074 116.631 444.34 115.927 444.436 115.441C444.853 113.341 444.937 111.195 444.837 109.062C444.741 106.996 444.51 104.934 443.897 102.961C443.327 101.13 442.462 99.4859 441.443 97.8843C440.406 96.2522 439.327 94.6166 438.898 92.6827C438.462 90.7185 438.816 88.7199 439.289 86.7932C439.79 84.7554 440.445 82.776 441.123 80.7933C441.784 78.8614 442.018 77.0334 441.653 75.0114C440.933 71.0166 439.005 67.2671 439.256 63.107Z" fill="white"/>
<path fill-rule="evenodd" clip-rule="evenodd" d="M470.339 63.705C471.761 64.1622 473.173 64.9001 474.186 66.057C476.341 68.5172 475.68 72.2355 474.49 74.9514C473.21 77.8745 471.27 80.8126 472.363 84.1665C472.866 85.7084 473.711 87.1048 474.188 88.6585C474.698 90.3188 474.918 92.0479 474.89 93.7806C474.838 96.9629 474.039 100.359 471.869 102.703C469.959 104.767 466.836 105.973 466.122 109.005C465.377 112.168 467.198 115.71 468.007 118.707C468.923 122.098 469.393 126.104 468.322 129.484C467.295 132.724 464.704 135.27 461.771 136.706C455.91 139.573 449.106 139.132 443.23 136.354C440.735 135.174 437.958 133.725 436.407 131.279C435.928 130.523 435.786 129.86 435.682 128.983C435.588 128.197 435.289 127.573 434.931 126.88C434.145 125.356 433.831 123.653 433.895 121.942C434.141 115.295 438.793 109.114 443.895 105.507C445.104 104.652 446.166 103.782 446.419 102.205C446.684 100.559 446.364 98.8115 446.119 97.1749C445.878 95.5575 445.503 93.9465 445.473 92.3063C445.441 90.5881 445.892 89.0159 446.659 87.5125C448.102 84.6884 450.421 82.5464 453.085 80.9817C455.651 79.4746 458.456 78.197 459.711 75.2325C461.043 72.0907 460.255 68.3693 462.442 65.5667C463.347 64.4062 464.617 63.3757 466.076 63.1102C467.474 62.8554 469.002 63.2749 470.339 63.705Z" fill="#D7F3E6"/>
<path fill-rule="evenodd" clip-rule="evenodd" d="M467.435 68.8999C467.637 68.4891 468.21 68.4575 468.532 68.7425C468.956 69.1179 468.744 69.5991 468.55 70.0256C467.956 71.3368 467.596 72.7144 467.355 74.1462C466.854 77.123 466.967 80.1381 466.798 83.1457C466.629 86.1507 465.944 89.011 464.276 91.4832C462.702 93.8141 460.871 95.9426 459.284 98.2712C457.886 100.324 456.407 102.486 456.151 105.074C455.905 107.565 456.629 110.033 456.862 112.5C457.345 117.608 456.427 122.585 454.616 127.295C453.775 129.482 452.812 131.635 451.461 133.531C450.684 134.622 449.635 136.098 448.31 136.477C447.699 136.652 446.875 136.422 446.737 135.668C446.607 134.96 447.267 134.273 447.619 133.752C449.145 131.497 450.305 129.002 451.242 126.421C452.15 123.921 452.901 121.35 453.158 118.673C453.397 116.189 453.198 113.761 452.799 111.299C452.393 108.79 451.94 106.254 452.395 103.726C452.856 101.158 454.258 98.9873 455.764 96.9685C457.357 94.8331 459.102 92.853 460.874 90.8814C462.602 88.9603 463.779 86.9255 464.353 84.3286C465.485 79.1979 465.085 73.687 467.435 68.8999Z" fill="white"/>
<path fill-rule="evenodd" clip-rule="evenodd" d="M426.39 82.5762C428.753 82.5762 430.832 83.9036 432.264 85.7872C433.94 87.9923 434.279 90.6851 434.959 93.3132C435.298 94.621 435.881 95.9194 436.902 96.808C437.83 97.6161 439.009 97.7778 440.121 98.1726C442.342 98.9616 444.135 100.862 444.844 103.182C445.708 106.011 444.793 108.864 444.95 111.731C445.095 114.364 447.546 116.006 449.517 117.268C451.461 118.513 453.213 119.678 453.798 122.103C454.419 124.674 454.628 127.545 453.768 130.085C452.336 134.315 448.145 136.177 444.096 136.466C440.421 136.728 435.655 138.835 432.895 136.009C431.244 134.318 430.791 129.435 430.866 127.082C430.912 125.619 431.185 124.17 431.539 122.756C431.79 121.753 432.128 120.756 432.225 119.72C432.481 116.965 430.078 116.436 428.032 115.68C425.432 114.718 423.612 112.902 422.346 110.373C421.168 108.017 420.673 105.373 421.38 102.78C421.74 101.456 422.395 100.254 423.283 99.2326C423.673 98.7828 424.224 98.4077 424.577 97.9352C424.906 97.4939 424.834 96.9221 424.721 96.4053C424.196 94.0179 422.562 92.041 421.977 89.6579C421.45 87.5068 421.762 84.8297 423.618 83.442C424.42 82.8424 425.409 82.5828 426.39 82.5762Z" fill="#D7F3E6"/>
<path fill-rule="evenodd" clip-rule="evenodd" d="M429.611 88.7957C432.116 91.623 432.797 95.459 432.997 99.177C433.109 101.262 432.992 103.461 433.571 105.483C434.065 107.214 435.225 108.537 436.421 109.788C438.827 112.305 441.511 114.864 442.215 118.507C442.628 120.645 442.349 122.853 442.92 124.968C443.439 126.89 444.352 128.778 445.464 130.401C446.358 131.708 447.524 132.708 448.502 133.927C448.801 134.299 449.228 134.846 449.105 135.371C448.961 135.986 448.221 136.181 447.697 136.084C446.474 135.859 445.445 134.622 444.645 133.722C443.476 132.407 442.482 130.993 441.675 129.406C440.778 127.644 440.056 125.774 439.748 123.797C439.428 121.747 439.587 119.609 438.856 117.641C437.626 114.329 434.643 112.375 432.486 109.793C429.799 106.577 430.2 102.574 430.475 98.6174C430.626 96.4431 430.777 93.9877 429.739 92.0026C429.344 91.2448 428.461 90.5382 428.291 89.6769C428.135 88.8877 428.986 88.0902 429.611 88.7957Z" fill="white"/>
<path fill-rule="evenodd" clip-rule="evenodd" d="M432.283 135.258C432.283 151.428 434.774 159.9 447.924 159.9C461.074 159.9 463.564 151.428 463.565 135.258H432.283Z" fill="#333333"/>
<path d="M80.127 157.83C79.2993 158.259 67.8014 157.651 62.156 157.293C61.4281 157.6 72.0418 160.665 77.8278 161.47C83.6137 162.274 88.0586 164.42 86.0278 167.026C83.9969 169.631 69.7427 166.413 62.8838 163.386C56.025 160.358 55.4504 157.293 54.9905 151.66C54.5307 146.027 59.4737 139.667 60.6616 136.333C61.8494 132.999 68.5167 123.42 69.1298 119.588C69.7429 115.757 72.3485 107.135 73.613 107.135C74.6246 107.135 76.7678 110.482 77.713 112.155H79.0924C79.5139 110.431 80.7477 107.013 82.3111 107.135C84.2653 107.289 86.8709 122.041 86.9476 122.539C87.0242 123.037 84.955 126.447 83.6522 126.677C82.61 126.861 82.5027 128.287 82.5793 128.976C82.5538 132.297 82.5563 139.085 82.7709 139.667C83.0391 140.395 83.2307 148.289 83.1158 150.281C83.0008 152.274 84.1887 154.304 85.3382 155.722C86.4877 157.14 84.6868 157.293 84.3803 157.293C84.0737 157.293 81.1616 157.293 80.127 157.83Z" fill="#FFA756"/>
<path d="M75.4153 112.561C76.0506 111.168 74.6009 109.843 73.7966 109.354C73.0881 109.11 72.463 112.592 72.239 114.363C73.0331 114.343 74.7801 113.954 75.4153 112.561Z" fill="white"/>
<path d="M80.675 112.026C80.0058 110.783 80.9538 109.257 81.5114 108.65C82.7302 108.1 83.5128 111.348 83.7518 113.041C83.005 113.22 81.3441 113.268 80.675 112.026Z" fill="white"/>
<path d="M76.6025 142.241C77.9564 144.055 79.8519 148.916 76.6025 153.851C76.7865 154.158 79.2337 155.308 80.4343 155.844" stroke="white" stroke-linecap="round" stroke-linejoin="round"/>
<ellipse cx="80.778" cy="120.416" rx="1.89103" ry="0.82373" fill="white"/>
</svg>
