<svg width="59" height="32" viewBox="0 0 59 32" fill="none" xmlns="http://www.w3.org/2000/svg">
<circle cx="15.9999" cy="15.9999" r="14.9999" fill="#FEFFFF" stroke="#E0E3E6" stroke-width="2"/>
<path fill-rule="evenodd" clip-rule="evenodd" d="M18.8667 6.38613C19.3874 5.86543 20.2316 5.86543 20.7523 6.38613L22.7224 8.35624C23.2431 8.87694 23.2431 9.72115 22.7224 10.2418L20.5945 12.3698L20.585 12.379L12.3351 20.254C12.1844 20.3978 12.002 20.5044 11.8027 20.565L7.59499 21.8456C7.3931 21.9071 7.17378 21.8523 7.02456 21.703C6.87534 21.5538 6.8205 21.3345 6.88195 21.1326L8.15707 16.9429C8.22385 16.7235 8.34609 16.525 8.512 16.3667L16.7435 8.50933L18.8667 6.38613ZM17.1336 9.71692L9.30111 17.1934C9.27741 17.216 9.25994 17.2443 9.2504 17.2757L8.28724 20.4403L11.4699 19.4717C11.4984 19.463 11.5244 19.4478 11.546 19.4273L19.3728 11.9562L17.1336 9.71692ZM20.1904 11.1576L21.9143 9.43373C21.9887 9.35934 21.9887 9.23874 21.9143 9.16436L19.9442 7.19425C19.8698 7.11986 19.7492 7.11986 19.6748 7.19424L17.951 8.91809L20.1904 11.1576Z" fill="#333333"/>
<rect x="6.85718" y="22.7573" width="17.5237" height="1.14285" rx="0.571425" fill="#333333"/>
<circle cx="42.6664" cy="15.9999" r="14.9999" fill="#FEFFFF" stroke="#E0E3E6" stroke-width="2"/>
<path d="M44.3342 6.82471H37.2439C36.5774 6.82471 35.9932 7.40823 35.9932 8.07615V23.9237C35.9932 24.5909 36.5767 25.1751 37.2446 25.1751H48.0878C48.755 25.1751 49.3393 24.5916 49.3393 23.9237V11.829L46.4202 9.74377L44.3342 6.82471Z" fill="#4285F4"/>
<path d="M39.3301 20.1705H46.0028V19.3367H39.3308L39.3301 20.1705ZM39.3301 21.8389H44.3344V21.0051H39.3301V21.8389ZM39.3301 16V16.8338H46.0028V16H39.3301ZM39.3301 18.5022H46.0028V17.6684H39.3308L39.3301 18.5022Z" fill="#F1F1F1"/>
<path d="M44.3352 6.82471V10.5783C44.3352 11.2455 44.9187 11.829 45.5859 11.829H49.3395L44.3352 6.82471Z" fill="#A1C2FA"/>
</svg>
