<svg width="59" height="32" viewBox="0 0 59 32" fill="none" xmlns="http://www.w3.org/2000/svg">
<circle cx="15.9759" cy="16.0242" r="14.9759" fill="#FEFFFF" stroke="#E0E3E6" stroke-width="2"/>
<path d="M13.7218 8.10564C11.1043 8.29931 8.87919 8.47743 8.77457 8.49829C8.48124 8.5506 8.2144 8.74957 8.08892 9.01145L7.979 9.24187L7.9896 14.7337L8.00516 20.2255L8.17268 20.5658C8.26704 20.7542 8.90567 21.6339 9.60192 22.5394C10.9788 24.3245 11.0782 24.4242 11.6016 24.4765C11.7536 24.492 12.8948 24.4397 14.1303 24.3666C15.3712 24.2881 17.3603 24.1676 18.5541 24.0997C23.6529 23.7902 23.3911 23.8163 23.6841 23.565C24.0505 23.2614 24.0244 23.7587 24.04 17.084C24.0505 11.4246 24.0453 11.0532 23.9615 10.8803C23.8622 10.6867 23.6841 10.5506 21.3596 8.91709C19.8049 7.8282 19.695 7.77059 18.9984 7.76C18.7107 7.74973 16.3339 7.90666 13.7218 8.10564ZM19.6059 8.82274C19.8257 8.92206 21.4331 10.0424 21.6685 10.2573C21.7314 10.3202 21.7522 10.3725 21.7208 10.4039C21.6476 10.4668 11.7006 11.0585 11.4129 11.0164C11.2821 10.9956 11.0884 10.9171 10.9785 10.8436C10.523 10.5347 9.39235 9.60804 9.39235 9.54017C9.39235 9.36205 9.3556 9.36205 13.79 9.0429C14.6382 8.98529 16.0307 8.88068 16.8789 8.81247C18.716 8.66581 19.2659 8.67111 19.6059 8.82274ZM22.768 11.6865C22.8411 11.7597 22.904 11.901 22.9249 12.0371C22.9405 12.1629 22.9511 14.5082 22.9405 17.2409C22.9249 21.9315 22.9196 22.2248 22.8306 22.3609C22.7782 22.4447 22.6736 22.5337 22.5948 22.5599C22.3753 22.649 11.9522 23.2406 11.7377 23.1777C11.6383 23.1515 11.5019 23.0678 11.4288 22.9946L11.303 22.8585L11.2874 17.8014C11.2768 14.252 11.2874 12.6814 11.3294 12.54C11.3609 12.4354 11.4394 12.3096 11.5076 12.2679C11.6019 12.205 12.2197 12.1527 14.3452 12.0272C15.8373 11.9434 18.1459 11.8021 19.4705 11.7236C22.6213 11.5296 22.611 11.5296 22.768 11.6865Z" fill="black"/>
<path d="M19.9669 13.4192C19.4015 13.4559 18.8989 13.5082 18.8413 13.5397C18.6685 13.6288 18.5639 13.7754 18.543 13.9429C18.5274 14.1158 18.5798 14.1366 19.1449 14.2048L19.3909 14.2363V16.4717C19.3909 17.8013 19.37 18.6809 19.3439 18.6548C19.3177 18.6233 18.5745 17.4927 17.6895 16.1419C16.8049 14.7862 16.0719 13.6708 16.0613 13.6605C16.0507 13.6499 15.475 13.6814 14.784 13.7287C13.9358 13.7864 13.47 13.8387 13.3756 13.891C13.2237 13.9694 13.0562 14.2469 13.0562 14.4303C13.0562 14.5402 13.2551 14.5978 13.6739 14.5978H13.8938V21.0266L13.5379 21.1365C13.2604 21.2202 13.1661 21.2725 13.1191 21.3772C13.0353 21.5553 13.0406 21.7175 13.1244 21.7175C13.1558 21.7175 13.7474 21.6808 14.4278 21.639C15.7733 21.5606 15.9249 21.5238 16.0663 21.2464C16.1083 21.1626 16.1447 21.0736 16.1447 21.0474C16.1447 21.0266 15.9616 20.9637 15.7415 20.9113C15.5163 20.859 15.2912 20.8067 15.2442 20.7961C15.1551 20.77 15.1498 20.6078 15.1498 18.3565V15.943L16.7413 18.4402C18.4112 21.0577 18.6208 21.3563 18.8774 21.4871C19.1969 21.6546 20.0083 21.5394 20.4165 21.2725L20.5423 21.1941L20.5529 17.6238L20.5685 14.0482L20.8459 13.9959C21.1757 13.933 21.3276 13.7814 21.3276 13.5195C21.3276 13.352 21.3171 13.3414 21.1601 13.3467C21.0664 13.351 20.5271 13.3824 19.9669 13.4192Z" fill="black"/>
<circle cx="42.6114" cy="15.9759" r="14.9759" fill="#FEFFFF" stroke="#E0E3E6" stroke-width="2"/>
<path fill-rule="evenodd" clip-rule="evenodd" d="M42.6116 15.9759C42.6116 14.3316 43.9446 12.9985 45.589 12.9985C47.2334 12.9985 48.5664 14.3316 48.5664 15.9759C48.5664 17.6203 47.2334 18.9534 45.589 18.9534C43.9446 18.9534 42.6116 17.6203 42.6116 15.9759Z" fill="#1ABCFE"/>
<path fill-rule="evenodd" clip-rule="evenodd" d="M36.657 21.9308C36.657 20.2864 37.99 18.9534 39.6344 18.9534H42.6118V21.9308C42.6118 23.5752 41.2788 24.9082 39.6344 24.9082C37.99 24.9082 36.657 23.5752 36.657 21.9308Z" fill="#0ACF83"/>
<path fill-rule="evenodd" clip-rule="evenodd" d="M42.6116 7.0437V12.9985H45.589C47.2334 12.9985 48.5664 11.6655 48.5664 10.0211C48.5664 8.37673 47.2334 7.0437 45.589 7.0437H42.6116Z" fill="#FF7262"/>
<path fill-rule="evenodd" clip-rule="evenodd" d="M36.657 10.0214C36.657 11.6657 37.99 12.9988 39.6344 12.9988H42.6118V7.04395H39.6344C37.99 7.04395 36.657 8.37698 36.657 10.0214Z" fill="#F24E1E"/>
<path fill-rule="evenodd" clip-rule="evenodd" d="M36.657 15.9759C36.657 17.6203 37.99 18.9534 39.6344 18.9534H42.6118V12.9985H39.6344C37.99 12.9985 36.657 14.3316 36.657 15.9759Z" fill="#A259FF"/>
</svg>
