<svg width="573" height="287" viewBox="0 0 573 287" fill="none" xmlns="http://www.w3.org/2000/svg">
<rect y="0.0405273" width="573" height="286.5" rx="8" fill="white"/>
<path d="M28.3822 43.7695H30.4138L32.2865 37.3233H32.3635L34.2411 43.7695H36.2727L39.0938 33.9101H36.8167L35.1846 40.7751H35.098L33.3023 33.9101H31.3525L29.552 40.7607H29.4702L27.8382 33.9101H25.5611L28.3822 43.7695ZM42.2218 39.4945C42.2266 38.5413 42.8091 37.9829 43.6468 37.9829C44.4797 37.9829 44.9707 38.5172 44.9659 39.4271V43.7695H47.0167V39.0612C47.0216 37.3281 46.0009 36.2786 44.4604 36.2786C43.3387 36.2786 42.5877 36.8082 42.2507 37.6796H42.164V33.9101H40.1709V43.7695H42.2218V39.4945ZM48.6307 43.7695H50.6815V36.3749H48.6307V43.7695ZM49.6609 35.4217C50.2723 35.4217 50.773 34.9547 50.773 34.3818C50.773 33.8138 50.2723 33.3468 49.6609 33.3468C49.0543 33.3468 48.5537 33.8138 48.5537 34.3818C48.5537 34.9547 49.0543 35.4217 49.6609 35.4217ZM55.6654 43.914C57.6345 43.914 58.8717 42.7585 58.968 41.0591H57.0327C56.9123 41.8487 56.3924 42.2916 55.6895 42.2916C54.7315 42.2916 54.1105 41.4876 54.1105 40.0722C54.1105 38.6761 54.7363 37.877 55.6895 37.877C56.4405 37.877 56.922 38.3728 57.0327 39.1094H58.968C58.8813 37.4003 57.5863 36.2786 55.6558 36.2786C53.4124 36.2786 52.0259 37.8336 52.0259 40.1011C52.0259 42.3493 53.3883 43.914 55.6654 43.914ZM62.3319 39.4945C62.3367 38.5413 62.9192 37.9829 63.7569 37.9829C64.5898 37.9829 65.0808 38.5172 65.076 39.4271V43.7695H67.1269V39.0612C67.1317 37.3281 66.1111 36.2786 64.5705 36.2786C63.4488 36.2786 62.6978 36.8082 62.3608 37.6796H62.2741V33.9101H60.2811V43.7695H62.3319V39.4945ZM75.855 36.3749H74.3867V35.8791C74.3867 35.3784 74.5889 35.0847 75.1906 35.0847C75.4362 35.0847 75.6865 35.1377 75.8502 35.1906L76.2112 33.6501C75.9561 33.5731 75.3928 33.4479 74.7622 33.4479C73.3709 33.4479 72.3358 34.2326 72.3358 35.8405V36.3749H71.2911V37.9155H72.3358V43.7695H74.3867V37.9155H75.855V36.3749ZM80.213 43.914C82.0424 43.914 83.2749 43.0233 83.5637 41.6513L81.6669 41.5261C81.4599 42.0894 80.9304 42.383 80.2467 42.383C79.2213 42.383 78.5714 41.7042 78.5714 40.6018V40.597H83.6071V40.0337C83.6071 37.5207 82.0858 36.2786 80.1312 36.2786C77.9552 36.2786 76.5446 37.824 76.5446 40.1059C76.5446 42.4504 77.9359 43.914 80.213 43.914ZM78.5714 39.326C78.6147 38.4835 79.255 37.8096 80.1649 37.8096C81.0555 37.8096 81.6717 38.445 81.6766 39.326H78.5714ZM87.054 43.9091C88.1468 43.9091 88.8545 43.4325 89.2156 42.7441H89.2734V43.7695H91.2183V38.782C91.2183 37.02 89.7259 36.2786 88.0794 36.2786C86.3078 36.2786 85.1428 37.1259 84.8587 38.4739L86.7555 38.628C86.8952 38.1369 87.3332 37.7759 88.0698 37.7759C88.7679 37.7759 89.1675 38.1273 89.1675 38.7339V38.7628C89.1675 39.2394 88.662 39.302 87.3766 39.4271C85.9131 39.5619 84.5988 40.053 84.5988 41.7042C84.5988 43.1678 85.6435 43.9091 87.054 43.9091ZM87.6414 42.4938C87.0107 42.4938 86.5582 42.2001 86.5582 41.6368C86.5582 41.0591 87.0348 40.7751 87.7569 40.674C88.2046 40.6114 88.9364 40.5055 89.1819 40.3418V41.1265C89.1819 41.9016 88.5416 42.4938 87.6414 42.4938ZM96.7426 36.3749H95.3513V34.6033H93.3004V36.3749H92.2895V37.9155H93.3004V41.7668C93.2908 43.2159 94.2777 43.9332 95.7653 43.8706C96.2949 43.8514 96.6704 43.7455 96.8774 43.6781L96.5548 42.152C96.4537 42.1712 96.2371 42.2194 96.0445 42.2194C95.6353 42.2194 95.3513 42.0653 95.3513 41.4972V37.9155H96.7426V36.3749ZM102.821 40.621C102.825 41.6128 102.147 42.1327 101.41 42.1327C100.635 42.1327 100.134 41.5887 100.129 40.7173V36.3749H98.0785V41.0832C98.0834 42.8115 99.0943 43.8658 100.582 43.8658C101.694 43.8658 102.493 43.2929 102.825 42.4264H102.902V43.7695H104.871V36.3749H102.821V40.621ZM106.512 43.7695H108.563V39.586C108.563 38.6761 109.227 38.0503 110.132 38.0503C110.416 38.0503 110.806 38.0984 110.999 38.161V36.3412C110.816 36.2979 110.561 36.269 110.354 36.269C109.525 36.269 108.847 36.7504 108.577 37.6651H108.5V36.3749H106.512V43.7695ZM115.085 43.914C116.914 43.914 118.147 43.0233 118.435 41.6513L116.539 41.5261C116.332 42.0894 115.802 42.383 115.118 42.383C114.093 42.383 113.443 41.7042 113.443 40.6018V40.597H118.479V40.0337C118.479 37.5207 116.957 36.2786 115.003 36.2786C112.827 36.2786 111.416 37.824 111.416 40.1059C111.416 42.4504 112.808 43.914 115.085 43.914ZM113.443 39.326C113.486 38.4835 114.127 37.8096 115.037 37.8096C115.927 37.8096 116.543 38.445 116.548 39.326H113.443ZM125.97 38.4835C125.787 37.1211 124.689 36.2786 122.821 36.2786C120.929 36.2786 119.682 37.1548 119.687 38.5798C119.682 39.6871 120.38 40.4044 121.825 40.6933L123.105 40.9484C123.75 41.0784 124.044 41.3143 124.054 41.685C124.044 42.1231 123.567 42.436 122.85 42.436C122.118 42.436 121.632 42.1231 121.507 41.5213L119.49 41.6272C119.682 43.0426 120.886 43.914 122.845 43.914C124.761 43.914 126.133 42.9367 126.138 41.478C126.133 40.4092 125.435 39.7689 124.001 39.4753L122.662 39.2057C121.974 39.0564 121.719 38.8205 121.723 38.4643C121.719 38.0214 122.219 37.7325 122.855 37.7325C123.567 37.7325 123.991 38.1225 124.092 38.5991L125.97 38.4835ZM133.292 43.8899C134.486 43.8899 135.107 43.2015 135.391 42.5852H135.478V43.7695H137.5V33.9101H135.454V37.617H135.391C135.117 37.0152 134.524 36.2786 133.287 36.2786C131.665 36.2786 130.293 37.54 130.293 40.0819C130.293 42.5564 131.607 43.8899 133.292 43.8899ZM133.942 42.2579C132.936 42.2579 132.387 41.3624 132.387 40.0722C132.387 38.7917 132.926 37.9107 133.942 37.9107C134.938 37.9107 135.497 38.7531 135.497 40.0722C135.497 41.3913 134.929 42.2579 133.942 42.2579ZM139.186 43.7695H141.237V36.3749H139.186V43.7695ZM140.216 35.4217C140.827 35.4217 141.328 34.9547 141.328 34.3818C141.328 33.8138 140.827 33.3468 140.216 33.3468C139.609 33.3468 139.109 33.8138 139.109 34.3818C139.109 34.9547 139.609 35.4217 140.216 35.4217ZM145.604 43.8899C146.798 43.8899 147.419 43.2015 147.703 42.5852H147.79V43.7695H149.812V33.9101H147.766V37.617H147.703C147.429 37.0152 146.837 36.2786 145.599 36.2786C143.977 36.2786 142.605 37.54 142.605 40.0819C142.605 42.5564 143.919 43.8899 145.604 43.8899ZM146.254 42.2579C145.248 42.2579 144.699 41.3624 144.699 40.0722C144.699 38.7917 145.238 37.9107 146.254 37.9107C147.251 37.9107 147.809 38.7531 147.809 40.0722C147.809 41.3913 147.241 42.2579 146.254 42.2579ZM155.902 46.5425C157.428 46.5425 158.237 45.7626 158.656 44.5687L161.53 36.3846L159.358 36.3749L157.813 41.8053H157.736L156.205 36.3749H154.048L156.701 43.9814L156.581 44.2943C156.311 44.9875 155.796 45.0212 155.074 44.7998L154.612 46.3307C154.905 46.4559 155.382 46.5425 155.902 46.5425ZM165.669 43.914C167.912 43.914 169.308 42.3782 169.308 40.1011C169.308 37.8096 167.912 36.2786 165.669 36.2786C163.425 36.2786 162.029 37.8096 162.029 40.1011C162.029 42.3782 163.425 43.914 165.669 43.914ZM165.678 42.3253C164.643 42.3253 164.114 41.3769 164.114 40.0867C164.114 38.7965 164.643 37.8433 165.678 37.8433C166.694 37.8433 167.224 38.7965 167.224 40.0867C167.224 41.3769 166.694 42.3253 165.678 42.3253ZM175.384 40.621C175.389 41.6128 174.71 42.1327 173.973 42.1327C173.198 42.1327 172.697 41.5887 172.693 40.7173V36.3749H170.642V41.0832C170.647 42.8115 171.658 43.8658 173.145 43.8658C174.257 43.8658 175.056 43.2929 175.389 42.4264H175.466V43.7695H177.435V36.3749H175.384V40.621ZM186.955 40.621C186.959 41.6128 186.281 42.1327 185.544 42.1327C184.769 42.1327 184.268 41.5887 184.264 40.7173V36.3749H182.213V41.0832C182.217 42.8115 183.228 43.8658 184.716 43.8658C185.828 43.8658 186.627 43.2929 186.959 42.4264H187.036V43.7695H189.006V36.3749H186.955V40.621ZM196.798 38.4835C196.616 37.1211 195.518 36.2786 193.65 36.2786C191.758 36.2786 190.511 37.1548 190.516 38.5798C190.511 39.6871 191.209 40.4044 192.653 40.6933L193.934 40.9484C194.579 41.0784 194.873 41.3143 194.882 41.685C194.873 42.1231 194.396 42.436 193.679 42.436C192.947 42.436 192.461 42.1231 192.336 41.5213L190.319 41.6272C190.511 43.0426 191.715 43.914 193.674 43.914C195.59 43.914 196.962 42.9367 196.967 41.478C196.962 40.4092 196.264 39.7689 194.829 39.4753L193.491 39.2057C192.803 39.0564 192.548 38.8205 192.552 38.4643C192.548 38.0214 193.048 37.7325 193.684 37.7325C194.396 37.7325 194.82 38.1225 194.921 38.5991L196.798 38.4835ZM201.628 43.914C203.458 43.914 204.69 43.0233 204.979 41.6513L203.082 41.5261C202.875 42.0894 202.346 42.383 201.662 42.383C200.637 42.383 199.987 41.7042 199.987 40.6018V40.597H205.022V40.0337C205.022 37.5207 203.501 36.2786 201.546 36.2786C199.37 36.2786 197.96 37.824 197.96 40.1059C197.96 42.4504 199.351 43.914 201.628 43.914ZM199.987 39.326C200.03 38.4835 200.67 37.8096 201.58 37.8096C202.471 37.8096 203.087 38.445 203.092 39.326H199.987ZM212.839 43.914C215.083 43.914 216.479 42.3782 216.479 40.1011C216.479 37.8096 215.083 36.2786 212.839 36.2786C210.596 36.2786 209.2 37.8096 209.2 40.1011C209.2 42.3782 210.596 43.914 212.839 43.914ZM212.849 42.3253C211.814 42.3253 211.284 41.3769 211.284 40.0867C211.284 38.7965 211.814 37.8433 212.849 37.8433C213.865 37.8433 214.394 38.7965 214.394 40.0867C214.394 41.3769 213.865 42.3253 212.849 42.3253ZM219.863 39.4945C219.868 38.5413 220.436 37.9829 221.264 37.9829C222.087 37.9829 222.583 38.5221 222.579 39.4271V43.7695H224.629V39.0612C224.629 37.3378 223.618 36.2786 222.078 36.2786C220.98 36.2786 220.186 36.8178 219.854 37.6796H219.767V36.3749H217.812V43.7695H219.863V39.4945ZM233.317 36.3749H231.925V34.6033H229.874V36.3749H228.863V37.9155H229.874V41.7668C229.865 43.2159 230.852 43.9332 232.339 43.8706C232.869 43.8514 233.244 43.7455 233.451 43.6781L233.129 42.152C233.028 42.1712 232.811 42.2194 232.619 42.2194C232.209 42.2194 231.925 42.0653 231.925 41.4972V37.9155H233.317V36.3749ZM236.862 39.4945C236.867 38.5413 237.45 37.9829 238.287 37.9829C239.12 37.9829 239.611 38.5172 239.606 39.4271V43.7695H241.657V39.0612C241.662 37.3281 240.641 36.2786 239.101 36.2786C237.979 36.2786 237.228 36.8082 236.891 37.6796H236.804V33.9101H234.811V43.7695H236.862V39.4945ZM246.641 43.914C248.47 43.914 249.703 43.0233 249.992 41.6513L248.095 41.5261C247.888 42.0894 247.358 42.383 246.675 42.383C245.649 42.383 244.999 41.7042 244.999 40.6018V40.597H250.035V40.0337C250.035 37.5207 248.514 36.2786 246.559 36.2786C244.383 36.2786 242.973 37.824 242.973 40.1059C242.973 42.4504 244.364 43.914 246.641 43.914ZM244.999 39.326C245.043 38.4835 245.683 37.8096 246.593 37.8096C247.484 37.8096 248.1 38.445 248.105 39.326H244.999ZM256.62 43.9091C257.713 43.9091 258.42 43.4325 258.781 42.7441H258.839V43.7695H260.784V38.782C260.784 37.02 259.292 36.2786 257.645 36.2786C255.874 36.2786 254.708 37.1259 254.424 38.4739L256.321 38.628C256.461 38.1369 256.899 37.7759 257.636 37.7759C258.334 37.7759 258.733 38.1273 258.733 38.7339V38.7628C258.733 39.2394 258.228 39.302 256.942 39.4271C255.479 39.5619 254.164 40.053 254.164 41.7042C254.164 43.1678 255.209 43.9091 256.62 43.9091ZM257.207 42.4938C256.576 42.4938 256.124 42.2001 256.124 41.6368C256.124 41.0591 256.6 40.7751 257.323 40.674C257.77 40.6114 258.502 40.5055 258.748 40.3418V41.1265C258.748 41.9016 258.107 42.4938 257.207 42.4938ZM262.375 46.5425H264.426V42.5852H264.489C264.773 43.2015 265.394 43.8899 266.588 43.8899C268.272 43.8899 269.587 42.5564 269.587 40.0819C269.587 37.54 268.215 36.2786 266.592 36.2786C265.355 36.2786 264.763 37.0152 264.489 37.617H264.397V36.3749H262.375V46.5425ZM264.383 40.0722C264.383 38.7531 264.941 37.9107 265.938 37.9107C266.953 37.9107 267.493 38.7917 267.493 40.0722C267.493 41.3624 266.944 42.2579 265.938 42.2579C264.951 42.2579 264.383 41.3913 264.383 40.0722ZM270.954 46.5425H273.005V42.5852H273.067C273.351 43.2015 273.972 43.8899 275.166 43.8899C276.851 43.8899 278.166 42.5564 278.166 40.0819C278.166 37.54 276.794 36.2786 275.171 36.2786C273.934 36.2786 273.342 37.0152 273.067 37.617H272.976V36.3749H270.954V46.5425ZM272.962 40.0722C272.962 38.7531 273.52 37.9107 274.516 37.9107C275.532 37.9107 276.071 38.7917 276.071 40.0722C276.071 41.3624 275.523 42.2579 274.516 42.2579C273.53 42.2579 272.962 41.3913 272.962 40.0722ZM281.295 40.8136H283.119V40.6499C283.129 39.7112 283.466 39.2731 284.227 38.8157C285.127 38.2813 285.714 37.5737 285.714 36.4423C285.714 34.7574 284.357 33.7753 282.445 33.7753C280.698 33.7753 279.273 34.69 279.23 36.6156H281.194C281.223 35.8309 281.805 35.4121 282.436 35.4121C283.086 35.4121 283.611 35.8454 283.611 36.5145C283.611 37.1452 283.153 37.564 282.561 37.9395C281.752 38.4498 281.3 38.965 281.295 40.6499V40.8136ZM282.243 43.8947C282.86 43.8947 283.394 43.3796 283.399 42.7393C283.394 42.1086 282.86 41.5935 282.243 41.5935C281.608 41.5935 281.083 42.1086 281.088 42.7393C281.083 43.3796 281.608 43.8947 282.243 43.8947Z" fill="#1A222B"/>
<path d="M26.6911 62.6528L27.5506 60.2329H31.0053L31.8648 62.6528H32.9496L29.812 54.108H28.7439L25.6063 62.6528H26.6911ZM27.876 59.315L29.2446 55.4598H29.3113L30.6798 59.315H27.876ZM35.1317 58.7976C35.1317 57.6794 35.8243 57.0453 36.7672 57.0453C37.681 57.0453 38.2359 57.6419 38.2359 58.6474V62.6528H39.2205V58.5807C39.2205 56.9451 38.3485 56.1607 37.0509 56.1607C36.083 56.1607 35.4822 56.5946 35.1818 57.2455H35.0983V56.2442H34.147V62.6528H35.1317V58.7976ZM45.5593 57.6794C45.2506 56.7699 44.558 56.1607 43.2896 56.1607C41.9378 56.1607 40.9364 56.9284 40.9364 58.0132C40.9364 58.8978 41.4621 59.4902 42.6387 59.7656L43.7068 60.0159C44.3535 60.1661 44.6581 60.4749 44.6581 60.9172C44.6581 61.4679 44.074 61.9185 43.1561 61.9185C42.3508 61.9185 41.846 61.5722 41.6707 60.8838L40.7361 61.1174C40.9656 62.2064 41.8627 62.7863 43.1728 62.7863C44.6623 62.7863 45.6761 61.9727 45.6761 60.8671C45.6761 59.9742 45.1171 59.411 43.9738 59.1314L43.0226 58.8978C42.2632 58.71 41.9211 58.4555 41.9211 57.9632C41.9211 57.4124 42.5052 57.0119 43.2896 57.0119C44.1491 57.0119 44.5037 57.4875 44.6748 57.9298L45.5593 57.6794ZM48.6103 62.6528H49.5783L50.9802 57.7295H51.0803L52.4822 62.6528H53.4502L55.4028 56.2442H54.3681L52.9829 61.1341H52.9161L51.5643 56.2442H50.5129L49.1444 61.1508H49.0776L47.6924 56.2442H46.6577L48.6103 62.6528ZM59.1736 62.7863C60.4753 62.7863 61.4266 62.1355 61.727 61.1675L60.7757 60.9005C60.5254 61.568 59.9454 61.9018 59.1736 61.9018C58.0178 61.9018 57.2209 61.155 57.175 59.7823H61.8271V59.3651C61.8271 56.9785 60.4086 56.1607 59.0734 56.1607C57.3377 56.1607 56.1862 57.5292 56.1862 59.4986C56.1862 61.4679 57.321 62.7863 59.1736 62.7863ZM57.175 58.9311C57.2418 57.934 57.9469 57.0453 59.0734 57.0453C60.1415 57.0453 60.8258 57.8463 60.8258 58.9311H57.175ZM63.325 62.6528H64.3097V58.5974C64.3097 57.7295 64.9939 57.0953 65.9285 57.0953C66.1914 57.0953 66.4626 57.1454 66.5293 57.1621V56.1607C66.4167 56.1524 66.158 56.144 66.012 56.144C65.2443 56.144 64.5767 56.578 64.343 57.2121H64.2763V56.2442H63.325V62.6528ZM72.236 57.6794C71.9272 56.7699 71.2346 56.1607 69.9663 56.1607C68.6144 56.1607 67.6131 56.9284 67.6131 58.0132C67.6131 58.8978 68.1388 59.4902 69.3154 59.7656L70.3835 60.0159C71.0302 60.1661 71.3348 60.4749 71.3348 60.9172C71.3348 61.4679 70.7507 61.9185 69.8327 61.9185C69.0275 61.9185 68.5226 61.5722 68.3474 60.8838L67.4128 61.1174C67.6423 62.2064 68.5393 62.7863 69.8494 62.7863C71.339 62.7863 72.3528 61.9727 72.3528 60.8671C72.3528 59.9742 71.7937 59.411 70.6505 59.1314L69.6992 58.8978C68.9399 58.71 68.5977 58.4555 68.5977 57.9632C68.5977 57.4124 69.1819 57.0119 69.9663 57.0119C70.8258 57.0119 71.1804 57.4875 71.3515 57.9298L72.236 57.6794ZM77.1228 62.6528H82.5134V61.7349H78.5414V61.6682L80.4607 59.6154C81.9293 58.0424 82.3632 57.3081 82.3632 56.361C82.3632 55.0425 81.2951 53.9911 79.7931 53.9911C78.2952 53.9911 77.1562 55.0092 77.1562 56.5112H78.1409C78.1409 55.5391 78.7709 54.8923 79.7597 54.8923C80.686 54.8923 81.3953 55.4598 81.3953 56.361C81.3953 57.1496 80.9321 57.7337 79.9433 58.8143L77.1228 61.9018V62.6528ZM84.2366 62.6528H89.6272V61.7349H85.6552V61.6682L87.5744 59.6154C89.0431 58.0424 89.477 57.3081 89.477 56.361C89.477 55.0425 88.4089 53.9911 86.9069 53.9911C85.409 53.9911 84.27 55.0092 84.27 56.5112H85.2546C85.2546 55.5391 85.8846 54.8923 86.8735 54.8923C87.7997 54.8923 88.509 55.4598 88.509 56.361C88.509 57.1496 88.0459 57.7337 87.0571 58.8143L84.2366 61.9018V62.6528Z" fill="#333333"/>
<rect x="124.722" y="85.9004" width="376.879" height="7.23028" fill="#FEDFDF"/>
<rect x="124.722" y="85.9004" width="238.599" height="7.23028" fill="#333333"/>
<rect x="124.722" y="118.437" width="376.879" height="7.23028" fill="#D7E2FF"/>
<rect x="124.722" y="118.437" width="165.393" height="7.23028" fill="#333333"/>
<rect x="124.722" y="150.973" width="376.879" height="7.23028" fill="#FFF5D0"/>
<rect x="124.722" y="150.973" width="289.211" height="6.3265" fill="#333333"/>
<rect x="124.722" y="183.509" width="376.879" height="6.3265" fill="#D3CCFF"/>
<rect x="124.722" y="183.509" width="104.839" height="6.3265" fill="#333333"/>
<rect x="124.722" y="216.045" width="376.879" height="6.3265" fill="#D7F3E6"/>
<rect x="124.722" y="216.045" width="53.3233" height="6.3265" fill="#333333"/>
<path d="M32.1543 88.4102L33.4863 88.4102C33.467 87.2387 32.5042 86.4299 31.0407 86.4299C29.5996 86.4299 28.5437 87.2259 28.5501 88.4198C28.5469 89.389 29.2305 89.9443 30.341 90.2107L31.0567 90.3904C31.7724 90.5637 32.1704 90.7691 32.1736 91.212C32.1704 91.6934 31.7146 92.0208 31.0086 92.0208C30.2864 92.0208 29.7665 91.687 29.7216 91.0291H28.3768C28.4121 92.4509 29.4295 93.1858 31.0246 93.1858C32.6293 93.1858 33.5729 92.4188 33.5761 91.2152C33.5729 90.1208 32.7481 89.5399 31.6055 89.2831L31.015 89.1419C30.4437 89.0103 29.9655 88.7985 29.9751 88.3267C29.9751 87.9031 30.3506 87.5917 31.031 87.5917C31.6954 87.5917 32.103 87.8934 32.1543 88.4102ZM36.7318 93.1891C37.9514 93.1891 38.7731 92.5953 38.9656 91.6806L37.7011 91.5972C37.5631 91.9727 37.21 92.1684 36.7543 92.1684C36.0707 92.1684 35.6374 91.7159 35.6374 90.9809V90.9777H38.9945V90.6022C38.9945 88.9269 37.9803 88.0988 36.6773 88.0988C35.2266 88.0988 34.2862 89.1291 34.2862 90.6504C34.2862 92.2134 35.2138 93.1891 36.7318 93.1891ZM35.6374 90.1304C35.6663 89.5688 36.0932 89.1195 36.6997 89.1195C37.2935 89.1195 37.7043 89.5431 37.7075 90.1304H35.6374ZM41.2925 93.1858C42.021 93.1858 42.4928 92.8681 42.7335 92.4092H42.7721V93.0928H44.0687V89.7678C44.0687 88.5931 43.0737 88.0988 41.9761 88.0988C40.795 88.0988 40.0183 88.6637 39.829 89.5624L41.0935 89.6651C41.1866 89.3377 41.4786 89.097 41.9697 89.097C42.4351 89.097 42.7014 89.3313 42.7014 89.7357V89.7549C42.7014 90.0727 42.3644 90.1144 41.5075 90.1978C40.5318 90.2877 39.6557 90.6151 39.6557 91.7159C39.6557 92.6916 40.3521 93.1858 41.2925 93.1858ZM41.684 92.2423C41.2636 92.2423 40.9619 92.0465 40.9619 91.671C40.9619 91.2858 41.2796 91.0965 41.7611 91.0291C42.0595 90.9874 42.5474 90.9168 42.7111 90.8076V91.3308C42.7111 91.8475 42.2842 92.2423 41.684 92.2423ZM45.1294 93.0928H46.4966V90.3037C46.4966 89.6972 46.9395 89.2799 47.5429 89.2799C47.7323 89.2799 47.9922 89.312 48.1206 89.3537L48.1206 88.1406C47.9987 88.1117 47.8286 88.0924 47.6906 88.0924C47.1385 88.0924 46.686 88.4134 46.5063 89.0232H46.4549L46.4549 88.163H45.1294L45.1294 93.0928ZM50.8254 93.1891C52.1381 93.1891 52.9629 92.4188 53.0271 91.2858H51.7369C51.6567 91.8122 51.31 92.1075 50.8414 92.1075C50.2028 92.1075 49.7887 91.5715 49.7887 90.6279C49.7887 89.6972 50.206 89.1644 50.8414 89.1644C51.3421 89.1644 51.6631 89.495 51.7369 89.986H53.0271C52.9693 88.8467 52.106 88.0988 50.819 88.0988C49.3234 88.0988 48.399 89.1355 48.399 90.6472C48.399 92.146 49.3073 93.1891 50.8254 93.1891ZM55.2697 90.2428C55.2729 89.6073 55.6613 89.235 56.2197 89.235C56.7749 89.235 57.1023 89.5912 57.0991 90.1978V93.0928H58.4663V89.9539C58.4695 88.7985 57.7891 88.0988 56.7621 88.0988C56.0143 88.0988 55.5136 88.4519 55.289 89.0328H55.2312L55.2312 86.5198H53.9025L53.9025 93.0928H55.2697V90.2428ZM64.2851 88.163H63.3062V87.8325C63.3062 87.4987 63.441 87.3029 63.8422 87.3029C64.0059 87.3029 64.1728 87.3382 64.2819 87.3735L64.5226 86.3465C64.3525 86.2951 63.977 86.2117 63.5565 86.2117C62.629 86.2117 61.939 86.7348 61.939 87.8068V88.163H61.2425V89.1901H61.939L61.939 93.0928H63.3062L63.3062 89.1901H64.2851V88.163ZM67.1712 93.1891C68.6668 93.1891 69.5976 92.1652 69.5976 90.6472C69.5976 89.1195 68.6668 88.0988 67.1712 88.0988C65.6756 88.0988 64.7449 89.1195 64.7449 90.6472C64.7449 92.1652 65.6756 93.1891 67.1712 93.1891ZM67.1776 92.1299C66.4876 92.1299 66.1346 91.4977 66.1346 90.6375C66.1346 89.7774 66.4876 89.1419 67.1776 89.1419C67.8548 89.1419 68.2079 89.7774 68.2079 90.6375C68.2079 91.4977 67.8548 92.1299 67.1776 92.1299ZM70.4866 93.0928L71.8538 93.0928V90.3037C71.8538 89.6972 72.2967 89.2799 72.9001 89.2799C73.0895 89.2799 73.3494 89.312 73.4778 89.3537V88.1406C73.3559 88.1117 73.1857 88.0924 73.0477 88.0924C72.4957 88.0924 72.0432 88.4134 71.8634 89.0232H71.8121V88.163H70.4866V93.0928ZM78.9275 88.163H77.9486V87.8325C77.9486 87.4987 78.0834 87.3029 78.4846 87.3029C78.6483 87.3029 78.8152 87.3382 78.9243 87.3735L79.165 86.3465C78.9949 86.2951 78.6194 86.2117 78.1989 86.2117C77.2714 86.2117 76.5814 86.7348 76.5814 87.8068V88.163H75.8849V89.1901H76.5814V93.0928H77.9486L77.9486 89.1901H78.9275V88.163ZM81.13 86.5198H79.7627V93.0928H81.13L81.13 86.5198ZM82.2252 93.0928H83.5924L83.5924 88.163H82.2252V93.0928ZM82.912 87.5276C83.3196 87.5276 83.6534 87.2162 83.6534 86.8343C83.6534 86.4556 83.3196 86.1443 82.912 86.1443C82.5076 86.1443 82.1739 86.4556 82.1739 86.8343C82.1739 87.2162 82.5076 87.5276 82.912 87.5276ZM86.9086 95.0441C88.3176 95.0441 89.3189 94.4022 89.3189 93.1409L89.3189 88.163L87.9613 88.163V88.9911H87.91C87.727 88.5899 87.3259 88.0988 86.501 88.0988C85.4194 88.0988 84.5047 88.9397 84.5047 90.6183C84.5047 92.2583 85.3938 93.0222 86.5042 93.0222C87.2905 93.0222 87.7302 92.6274 87.91 92.2198H87.9677V93.1217C87.9677 93.7989 87.5345 94.062 86.9407 94.062C86.3373 94.062 86.0324 93.7989 85.9201 93.5004L84.6556 93.6705C84.8193 94.4472 85.5799 95.0441 86.9086 95.0441ZM86.9375 91.9951C86.2667 91.9951 85.9009 91.4624 85.9009 90.6119C85.9009 89.7742 86.2603 89.1869 86.9375 89.1869C87.6019 89.1869 87.9742 89.7485 87.9742 90.6119C87.9742 91.4816 87.5954 91.9951 86.9375 91.9951ZM91.7742 90.2428C91.7774 89.6073 92.1657 89.235 92.7242 89.235C93.2794 89.235 93.6068 89.5912 93.6036 90.1978V93.0928H94.9708V89.9539C94.974 88.7985 94.2936 88.0988 93.2666 88.0988C92.5188 88.0988 92.0181 88.4519 91.7934 89.0328H91.7357V86.5198H90.4069V93.0928H91.7742V90.2428ZM98.6689 88.163L97.7414 88.163L97.7414 86.982H96.3741L96.3741 88.163H95.7001V89.1901H96.3741V91.7576C96.3677 92.7237 97.0257 93.2019 98.0174 93.1602C98.3704 93.1473 98.6208 93.0767 98.7588 93.0318L98.5437 92.0144C98.4763 92.0272 98.3319 92.0593 98.2035 92.0593C97.9307 92.0593 97.7414 91.9566 97.7414 91.5779V89.1901L98.6689 89.1901V88.163ZM103.591 89.5688C103.469 88.6605 102.737 88.0988 101.492 88.0988C100.23 88.0988 99.3991 88.683 99.4023 89.633C99.3991 90.3711 99.8644 90.8494 100.827 91.0419L101.681 91.212C102.111 91.2987 102.307 91.4559 102.313 91.7031C102.307 91.9951 101.989 92.2038 101.511 92.2038C101.023 92.2038 100.699 91.9951 100.615 91.594L99.2707 91.6646C99.3991 92.6081 100.201 93.1891 101.508 93.1891C102.785 93.1891 103.7 92.5375 103.703 91.5651C103.7 90.8526 103.234 90.4257 102.278 90.2299L101.386 90.0502C100.927 89.9507 100.757 89.7934 100.76 89.5559C100.757 89.2607 101.09 89.0681 101.514 89.0681C101.989 89.0681 102.272 89.3281 102.339 89.6458L103.591 89.5688Z" fill="#1A222B"/>
<path d="M28.5886 125.629H31.3969C32.8733 125.629 33.6596 124.859 33.6596 123.812C33.6596 122.84 32.9631 122.253 32.2153 122.217V122.153C32.8989 121.999 33.4028 121.514 33.4028 120.741C33.4028 119.756 32.6711 119.056 31.2204 119.056H28.5886L28.5886 125.629ZM29.9783 124.493L29.9783 122.747H31.1434C31.8109 122.747 32.2249 123.132 32.2249 123.674C32.2249 124.169 31.8879 124.493 31.1113 124.493H29.9783ZM29.9783 121.806L29.9783 120.179H31.0342C31.6504 120.179 32.0003 120.497 32.0003 120.972C32.0003 121.492 31.5766 121.806 31.0086 121.806H29.9783ZM36.7655 125.725C38.2611 125.725 39.1919 124.701 39.1919 123.183C39.1919 121.656 38.2611 120.635 36.7655 120.635C35.2699 120.635 34.3392 121.656 34.3392 123.183C34.3392 124.701 35.2699 125.725 36.7655 125.725ZM36.772 124.666C36.0819 124.666 35.7289 124.034 35.7289 123.174C35.7289 122.314 36.0819 121.678 36.772 121.678C37.4492 121.678 37.8022 122.314 37.8022 123.174C37.8022 124.034 37.4492 124.666 36.772 124.666ZM42.3083 125.725C43.8039 125.725 44.7346 124.701 44.7346 123.183C44.7346 121.656 43.8039 120.635 42.3083 120.635C40.8127 120.635 39.8819 121.656 39.8819 123.183C39.8819 124.701 40.8127 125.725 42.3083 125.725ZM42.3147 124.666C41.6247 124.666 41.2716 124.034 41.2716 123.174C41.2716 122.314 41.6247 121.678 42.3147 121.678C42.9919 121.678 43.3449 122.314 43.3449 123.174C43.3449 124.034 42.9919 124.666 42.3147 124.666ZM45.6237 125.629H46.9909V124.063L47.36 123.642L48.7047 125.629H50.3063L48.3838 122.833L50.2132 120.699H48.6438L47.0647 122.57H46.9909L46.9909 119.056H45.6237L45.6237 125.629ZM54.3815 125.722C55.11 125.722 55.5818 125.404 55.8225 124.945H55.8611V125.629H57.1577V122.304C57.1577 121.129 56.1627 120.635 55.0651 120.635C53.884 120.635 53.1073 121.2 52.918 122.098L54.1825 122.201C54.2756 121.874 54.5676 121.633 55.0587 121.633C55.5241 121.633 55.7904 121.867 55.7904 122.272V122.291C55.7904 122.609 55.4535 122.651 54.5965 122.734C53.6208 122.824 52.7447 123.151 52.7447 124.252C52.7447 125.228 53.4411 125.722 54.3815 125.722ZM54.773 124.778C54.3526 124.778 54.0509 124.583 54.0509 124.207C54.0509 123.822 54.3687 123.633 54.8501 123.565C55.1486 123.523 55.6364 123.453 55.8001 123.344V123.867C55.8001 124.384 55.3732 124.778 54.773 124.778ZM62.9612 120.699H61.9823V120.369C61.9823 120.035 62.1171 119.839 62.5183 119.839C62.682 119.839 62.8489 119.874 62.958 119.91L63.1987 118.883C63.0286 118.831 62.6531 118.748 62.2326 118.748C61.3051 118.748 60.6151 119.271 60.6151 120.343V120.699L59.9186 120.699L59.9186 121.726L60.6151 121.726L60.6151 125.629H61.9823L61.9823 121.726H62.9612V120.699ZM65.1637 119.056H63.7965L63.7965 125.629H65.1637L65.1637 119.056ZM66.2589 125.629H67.6262L67.6262 120.699H66.2589V125.629ZM66.9457 120.064C67.3533 120.064 67.6871 119.752 67.6871 119.37C67.6871 118.992 67.3533 118.68 66.9457 118.68C66.5414 118.68 66.2076 118.992 66.2076 119.37C66.2076 119.752 66.5414 120.064 66.9457 120.064ZM70.9423 127.58C72.3513 127.58 73.3526 126.938 73.3526 125.677L73.3526 120.699H71.995V121.527H71.9437C71.7607 121.126 71.3596 120.635 70.5347 120.635C69.4531 120.635 68.5384 121.476 68.5384 123.154C68.5384 124.794 69.4275 125.558 70.5379 125.558C71.3243 125.558 71.764 125.164 71.9437 124.756H72.0015V125.658C72.0015 126.335 71.5682 126.598 70.9744 126.598C70.371 126.598 70.0661 126.335 69.9538 126.037L68.6893 126.207C68.853 126.983 69.6136 127.58 70.9423 127.58ZM70.9712 124.531C70.3004 124.531 69.9346 123.998 69.9346 123.148C69.9346 122.31 70.294 121.723 70.9712 121.723C71.6356 121.723 72.0079 122.285 72.0079 123.148C72.0079 124.018 71.6292 124.531 70.9712 124.531ZM75.8079 122.779C75.8111 122.143 76.1994 121.771 76.7579 121.771C77.3131 121.771 77.6405 122.127 77.6373 122.734V125.629L79.0045 125.629V122.49C79.0077 121.335 78.3273 120.635 77.3003 120.635C76.5525 120.635 76.0518 120.988 75.8271 121.569H75.7694V119.056H74.4406V125.629H75.8079V122.779ZM82.7026 120.699H81.7751V119.518H80.4078V120.699H79.7339V121.726H80.4078V124.294C80.4014 125.26 81.0594 125.738 82.0511 125.696C82.4041 125.683 82.6545 125.613 82.7925 125.568L82.5774 124.551C82.51 124.563 82.3656 124.595 82.2372 124.595C81.9644 124.595 81.7751 124.493 81.7751 124.114L81.7751 121.726H82.7026V120.699Z" fill="#1A222B"/>
<path d="M34.3881 153.894C34.2052 152.376 33.0562 151.503 31.5349 151.503C29.7986 151.503 28.4731 152.729 28.4731 154.879C28.4731 157.023 29.7761 158.255 31.5349 158.255C33.2199 158.255 34.2373 157.135 34.3881 155.925L32.9824 155.919C32.8508 156.622 32.2988 157.026 31.5574 157.026C30.5592 157.026 29.882 156.285 29.882 154.879C29.882 153.512 30.5496 152.732 31.567 152.732C32.3276 152.732 32.8765 153.172 32.9824 153.894H34.3881ZM36.7262 155.316C36.7294 154.68 37.1178 154.308 37.6762 154.308C38.2315 154.308 38.5588 154.664 38.5556 155.271V158.166H39.9228V155.027C39.9261 153.871 39.2456 153.172 38.2186 153.172C37.4708 153.172 36.9701 153.525 36.7455 154.106H36.6877V151.593H35.359L35.359 158.166H36.7262V155.316ZM43.2454 158.262C44.465 158.262 45.2867 157.668 45.4792 156.753L44.2147 156.67C44.0767 157.045 43.7237 157.241 43.2679 157.241C42.5843 157.241 42.151 156.789 42.151 156.054V156.05H45.5081V155.675C45.5081 154 44.4939 153.172 43.1909 153.172C41.7402 153.172 40.7998 154.202 40.7998 155.723C40.7998 157.286 41.7274 158.262 43.2454 158.262ZM42.151 155.203C42.1799 154.642 42.6068 154.192 43.2134 154.192C43.8071 154.192 44.2179 154.616 44.2211 155.203H42.151ZM48.6277 158.262C49.9404 158.262 50.7652 157.492 50.8294 156.359H49.5392C49.459 156.885 49.1123 157.18 48.6438 157.18C48.0051 157.18 47.5911 156.644 47.5911 155.701C47.5911 154.77 48.0083 154.237 48.6438 154.237C49.1444 154.237 49.4654 154.568 49.5392 155.059H50.8294C50.7716 153.919 49.9083 153.172 48.6213 153.172C47.1257 153.172 46.2014 154.208 46.2014 155.72C46.2014 157.219 47.1096 158.262 48.6277 158.262ZM51.7048 158.166H53.072V156.599L53.4411 156.179L54.7859 158.166L56.3874 158.166L54.4649 155.37L56.2943 153.236L54.7249 153.236L53.1458 155.107H53.072L53.072 151.593H51.7048L51.7048 158.166ZM59.0569 158.166H60.4241L60.4241 153.236H59.0569L59.0569 158.166ZM59.7437 152.6C60.1513 152.6 60.4851 152.289 60.4851 151.907C60.4851 151.528 60.1513 151.217 59.7437 151.217C59.3393 151.217 59.0055 151.528 59.0055 151.907C59.0055 152.289 59.3393 152.6 59.7437 152.6ZM62.8866 155.316C62.8898 154.68 63.2685 154.308 63.8205 154.308C64.3693 154.308 64.6999 154.667 64.6967 155.271V158.166H66.0639V155.027C66.0639 153.878 65.39 153.172 64.3629 153.172C63.6312 153.172 63.1016 153.531 62.8802 154.106H62.8224V153.236H61.5193L61.5193 158.166H62.8866V155.316Z" fill="#1A222B"/>
<path d="M32.1543 186.019H33.4863C33.467 184.848 32.5042 184.039 31.0407 184.039C29.5996 184.039 28.5437 184.835 28.5501 186.029C28.5469 186.998 29.2305 187.553 30.341 187.82L31.0567 187.999C31.7724 188.173 32.1704 188.378 32.1736 188.821C32.1704 189.302 31.7146 189.63 31.0086 189.63C30.2864 189.63 29.7665 189.296 29.7216 188.638H28.3768C28.4121 190.06 29.4295 190.795 31.0246 190.795C32.6293 190.795 33.5729 190.028 33.5761 188.824C33.5729 187.73 32.7481 187.149 31.6055 186.892L31.015 186.751C30.4437 186.619 29.9655 186.407 29.9751 185.936C29.9751 185.512 30.3506 185.201 31.031 185.201C31.6954 185.201 32.103 185.502 32.1543 186.019ZM35.8524 187.852C35.8557 187.216 36.244 186.844 36.8024 186.844C37.3577 186.844 37.685 187.2 37.6818 187.807V190.702L39.0491 190.702V187.563C39.0523 186.407 38.3719 185.708 37.3448 185.708C36.597 185.708 36.0964 186.061 35.8717 186.642H35.8139V184.129H34.4852L34.4852 190.702H35.8524V187.852ZM41.5308 190.795C42.2593 190.795 42.7311 190.477 42.9718 190.018H43.0104V190.702H44.307V187.377C44.307 186.202 43.312 185.708 42.2144 185.708C41.0333 185.708 40.2566 186.273 40.0673 187.171L41.3318 187.274C41.4249 186.947 41.7169 186.706 42.208 186.706C42.6734 186.706 42.9397 186.94 42.9397 187.345V187.364C42.9397 187.682 42.6028 187.723 41.7458 187.807C40.7701 187.897 39.894 188.224 39.894 189.325C39.894 190.3 40.5904 190.795 41.5308 190.795ZM41.9223 189.851C41.5019 189.851 41.2002 189.655 41.2002 189.28C41.2002 188.895 41.518 188.705 41.9994 188.638C42.2979 188.596 42.7857 188.526 42.9494 188.417V188.94C42.9494 189.456 42.5225 189.851 41.9223 189.851ZM45.3677 190.702H46.7349V187.913C46.7349 187.306 47.1778 186.889 47.7812 186.889C47.9706 186.889 48.2305 186.921 48.3589 186.963L48.3589 185.749C48.237 185.721 48.0669 185.701 47.9289 185.701C47.3768 185.701 46.9243 186.022 46.7446 186.632H46.6932L46.6932 185.772H45.3677L45.3677 190.702ZM51.083 190.798C52.3026 190.798 53.1242 190.204 53.3167 189.289L52.0522 189.206C51.9142 189.582 51.5612 189.777 51.1054 189.777C50.4218 189.777 49.9885 189.325 49.9885 188.59V188.587H53.3456V188.211C53.3456 186.536 52.3314 185.708 51.0284 185.708C49.5777 185.708 48.6373 186.738 48.6373 188.259C48.6373 189.822 49.5649 190.798 51.083 190.798ZM49.9885 187.739C50.0174 187.178 50.4443 186.728 51.0509 186.728C51.6446 186.728 52.0554 187.152 52.0586 187.739H49.9885ZM58.9807 185.772H58.0018V185.441C58.0018 185.108 58.1366 184.912 58.5377 184.912C58.7014 184.912 58.8683 184.947 58.9774 184.982L59.2182 183.955C59.0481 183.904 58.6725 183.821 58.2521 183.821C57.3246 183.821 56.6345 184.344 56.6345 185.416V185.772H55.9381L55.9381 186.799H56.6345V190.702H58.0018V186.799H58.9807L58.9807 185.772ZM61.1831 184.129H59.8159L59.8159 190.702H61.1831L61.1831 184.129ZM62.2784 190.702H63.6456L63.6456 185.772H62.2784L62.2784 190.702ZM62.9652 185.136C63.3728 185.136 63.7066 184.825 63.7066 184.443C63.7066 184.064 63.3728 183.753 62.9652 183.753C62.5608 183.753 62.227 184.064 62.227 184.443C62.227 184.825 62.5608 185.136 62.9652 185.136ZM66.9618 192.653C68.3707 192.653 69.3721 192.011 69.3721 190.75L69.3721 185.772H68.0145V186.6H67.9631C67.7802 186.199 67.379 185.708 66.5542 185.708C65.4726 185.708 64.5579 186.549 64.5579 188.227C64.5579 189.867 65.4469 190.631 66.5574 190.631C67.3437 190.631 67.7834 190.236 67.9631 189.829H68.0209V190.731C68.0209 191.408 67.5876 191.671 66.9939 191.671C66.3905 191.671 66.0856 191.408 65.9733 191.109L64.7087 191.279C64.8724 192.056 65.6331 192.653 66.9618 192.653ZM66.9907 189.604C66.3199 189.604 65.954 189.071 65.954 188.221C65.954 187.383 66.3135 186.796 66.9907 186.796C67.655 186.796 68.0273 187.357 68.0273 188.221C68.0273 189.091 67.6486 189.604 66.9907 189.604ZM71.8273 187.852C71.8306 187.216 72.2189 186.844 72.7773 186.844C73.3326 186.844 73.6599 187.2 73.6567 187.807V190.702H75.024V187.563C75.0272 186.407 74.3468 185.708 73.3197 185.708C72.5719 185.708 72.0713 186.061 71.8466 186.642H71.7888V184.129H70.4601V190.702H71.8273V187.852ZM78.7221 185.772H77.7945V184.591H76.4273V185.772H75.7533V186.799H76.4273V189.367C76.4209 190.333 77.0788 190.811 78.0706 190.769C78.4236 190.756 78.6739 190.686 78.8119 190.641L78.5969 189.623C78.5295 189.636 78.3851 189.668 78.2567 189.668C77.9839 189.668 77.7945 189.566 77.7945 189.187L77.7945 186.799H78.7221V185.772ZM83.521 190.782C84.317 190.782 84.731 190.323 84.9204 189.912H84.9781V190.702H86.3261L86.3261 184.129H84.9621V186.6H84.9204C84.7374 186.199 84.3427 185.708 83.5178 185.708C82.4362 185.708 81.5215 186.549 81.5215 188.243C81.5215 189.893 82.3977 190.782 83.521 190.782ZM83.9543 189.694C83.2835 189.694 82.9177 189.097 82.9177 188.237C82.9177 187.383 83.2771 186.796 83.9543 186.796C84.6187 186.796 84.991 187.357 84.991 188.237C84.991 189.116 84.6122 189.694 83.9543 189.694ZM89.6968 190.798C90.9164 190.798 91.7381 190.204 91.9306 189.289L90.6661 189.206C90.5281 189.582 90.1751 189.777 89.7193 189.777C89.0357 189.777 88.6024 189.325 88.6024 188.59V188.587H91.9595V188.211C91.9595 186.536 90.9453 185.708 89.6423 185.708C88.1916 185.708 87.2512 186.738 87.2512 188.259C87.2512 189.822 88.1788 190.798 89.6968 190.798ZM88.6024 187.739C88.6313 187.178 89.0582 186.728 89.6648 186.728C90.2585 186.728 90.6693 187.152 90.6725 187.739H88.6024ZM95.4739 185.772H94.5463L94.5463 184.591L93.1791 184.591L93.1791 185.772L92.5051 185.772V186.799L93.1791 186.799V189.367C93.1727 190.333 93.8306 190.811 94.8224 190.769C95.1754 190.756 95.4257 190.686 95.5637 190.641L95.3487 189.623C95.2813 189.636 95.1369 189.668 95.0085 189.668C94.7357 189.668 94.5463 189.566 94.5463 189.187V186.799H95.4739V185.772ZM97.7703 190.795C98.4988 190.795 98.9706 190.477 99.2113 190.018H99.2498V190.702H100.546V187.377C100.546 186.202 99.5515 185.708 98.4539 185.708C97.2728 185.708 96.4961 186.273 96.3067 187.171L97.5713 187.274C97.6643 186.947 97.9564 186.706 98.4475 186.706C98.9128 186.706 99.1792 186.94 99.1792 187.345V187.364C99.1792 187.682 98.8422 187.723 97.9853 187.807C97.0096 187.897 96.1334 188.224 96.1334 189.325C96.1334 190.3 96.8299 190.795 97.7703 190.795ZM98.1618 189.851C97.7414 189.851 97.4397 189.655 97.4397 189.28C97.4397 188.895 97.7574 188.705 98.2388 188.638C98.5373 188.596 99.0252 188.526 99.1888 188.417V188.94C99.1888 189.456 98.762 189.851 98.1618 189.851ZM101.607 190.702H102.974V185.772H101.607V190.702ZM102.294 185.136C102.702 185.136 103.035 184.825 103.035 184.443C103.035 184.064 102.702 183.753 102.294 183.753C101.89 183.753 101.556 184.064 101.556 184.443C101.556 184.825 101.89 185.136 102.294 185.136ZM105.437 184.129H104.07L104.07 190.702H105.437L105.437 184.129ZM110.634 187.178C110.512 186.269 109.78 185.708 108.535 185.708C107.273 185.708 106.442 186.292 106.445 187.242C106.442 187.98 106.908 188.458 107.87 188.651L108.724 188.821C109.154 188.908 109.35 189.065 109.356 189.312C109.35 189.604 109.032 189.813 108.554 189.813C108.066 189.813 107.742 189.604 107.659 189.203L106.314 189.273C106.442 190.217 107.245 190.798 108.551 190.798C109.828 190.798 110.743 190.146 110.746 189.174C110.743 188.461 110.278 188.035 109.321 187.839L108.429 187.659C107.97 187.56 107.8 187.402 107.803 187.165C107.8 186.87 108.134 186.677 108.557 186.677C109.032 186.677 109.315 186.937 109.382 187.255L110.634 187.178Z" fill="#1A222B"/>
<path d="M34.0864 216.665H32.7032L32.7032 220.799H32.6454L29.8082 216.665H28.5886L28.5886 223.238H29.9783L29.9783 219.101H30.0265L32.8861 223.238H34.0864L34.0864 216.665ZM37.4363 223.334C38.9319 223.334 39.8627 222.31 39.8627 220.792C39.8627 219.264 38.9319 218.244 37.4363 218.244C35.9407 218.244 35.01 219.264 35.01 220.792C35.01 222.31 35.9407 223.334 37.4363 223.334ZM37.4427 222.275C36.7527 222.275 36.3997 221.643 36.3997 220.783C36.3997 219.922 36.7527 219.287 37.4427 219.287C38.1199 219.287 38.473 219.922 38.473 220.783C38.473 221.643 38.1199 222.275 37.4427 222.275ZM42.1189 220.388C42.1221 219.752 42.5008 219.38 43.0529 219.38C43.6017 219.38 43.9323 219.739 43.9291 220.343V223.238H45.2963V220.099C45.2963 218.95 44.6223 218.244 43.5953 218.244C42.8635 218.244 42.334 218.603 42.1125 219.178H42.0547V218.308H40.7517L40.7517 223.238H42.1189V220.388ZM48.6205 223.334C49.8401 223.334 50.6617 222.74 50.8543 221.826L49.5898 221.742C49.4517 222.118 49.0987 222.313 48.643 222.313C47.9593 222.313 47.5261 221.861 47.5261 221.126V221.123H50.8832V220.747C50.8832 219.072 49.869 218.244 48.5659 218.244C47.1153 218.244 46.1749 219.274 46.1749 220.795C46.1749 222.358 47.1024 223.334 48.6205 223.334ZM47.5261 220.275C47.555 219.714 47.9818 219.264 48.5884 219.264C49.1822 219.264 49.593 219.688 49.5962 220.275H47.5261ZM56.0945 223.334C57.5902 223.334 58.5209 222.31 58.5209 220.792C58.5209 219.264 57.5902 218.244 56.0945 218.244C54.5989 218.244 53.6682 219.264 53.6682 220.792C53.6682 222.31 54.5989 223.334 56.0945 223.334ZM56.101 222.275C55.4109 222.275 55.0579 221.643 55.0579 220.783C55.0579 219.922 55.4109 219.287 56.101 219.287C56.7782 219.287 57.1312 219.922 57.1312 220.783C57.1312 221.643 56.7782 222.275 56.101 222.275ZM62.0609 218.308H61.0821V217.977C61.0821 217.644 61.2168 217.448 61.618 217.448C61.7817 217.448 61.9486 217.483 62.0577 217.519L62.2984 216.491C62.1283 216.44 61.7528 216.357 61.3324 216.357C60.4049 216.357 59.7148 216.88 59.7148 217.952V218.308H59.0184L59.0184 219.335H59.7148V223.238H61.0821L61.0821 219.335H62.0609V218.308ZM67.6101 218.308H66.6826V217.127H65.3153V218.308H64.6413V219.335H65.3153V221.903C65.3089 222.869 65.9669 223.347 66.9586 223.305C67.3116 223.292 67.562 223.222 67.7 223.177L67.4849 222.159C67.4175 222.172 67.2731 222.204 67.1447 222.204C66.8719 222.204 66.6826 222.102 66.6826 221.723L66.6826 219.335H67.6101V218.308ZM69.9739 220.388C69.9771 219.752 70.3654 219.38 70.9239 219.38C71.4791 219.38 71.8065 219.736 71.8033 220.343V223.238H73.1705V220.099C73.1737 218.944 72.4933 218.244 71.4663 218.244C70.7185 218.244 70.2178 218.597 69.9931 219.178H69.9354V216.665H68.6066V223.238H69.9739V220.388ZM76.4931 223.334C77.7127 223.334 78.5343 222.74 78.7269 221.826L77.4624 221.742C77.3244 222.118 76.9713 222.313 76.5156 222.313C75.832 222.313 75.3987 221.861 75.3987 221.126V221.123H78.7558V220.747C78.7558 219.072 77.7416 218.244 76.4385 218.244C74.9879 218.244 74.0475 219.274 74.0475 220.795C74.0475 222.358 74.975 223.334 76.4931 223.334ZM75.3987 220.275C75.4276 219.714 75.8544 219.264 76.461 219.264C77.0548 219.264 77.4656 219.688 77.4688 220.275H75.3987ZM83.1455 223.331C83.8741 223.331 84.3459 223.013 84.5866 222.554H84.6251V223.238H85.9217V219.913C85.9217 218.738 84.9268 218.244 83.8291 218.244C82.6481 218.244 81.8714 218.809 81.682 219.707L82.9465 219.81C83.0396 219.483 83.3317 219.242 83.8227 219.242C84.2881 219.242 84.5545 219.476 84.5545 219.881V219.9C84.5545 220.218 84.2175 220.259 83.3606 220.343C82.3849 220.433 81.5087 220.76 81.5087 221.861C81.5087 222.837 82.2051 223.331 83.1455 223.331ZM83.5371 222.387C83.1166 222.387 82.8149 222.192 82.8149 221.816C82.8149 221.431 83.1327 221.242 83.6141 221.174C83.9126 221.132 84.4004 221.062 84.5641 220.953V221.476C84.5641 221.993 84.1372 222.387 83.5371 222.387ZM87.0081 223.238H88.3561V222.448H88.4171C88.6064 222.859 89.0204 223.318 89.8164 223.318C90.9397 223.318 91.8159 222.429 91.8159 220.779C91.8159 219.085 90.9012 218.244 89.8196 218.244C88.9948 218.244 88.6 218.735 88.4171 219.136H88.3753V216.665H87.0081V223.238ZM88.3465 220.773C88.3465 219.894 88.7188 219.332 89.3831 219.332C90.0603 219.332 90.4198 219.919 90.4198 220.773C90.4198 221.633 90.0539 222.23 89.3831 222.23C88.7252 222.23 88.3465 221.652 88.3465 220.773ZM94.9555 223.334C96.4512 223.334 97.3819 222.31 97.3819 220.792C97.3819 219.264 96.4512 218.244 94.9555 218.244C93.4599 218.244 92.5292 219.264 92.5292 220.792C92.5292 222.31 93.4599 223.334 94.9555 223.334ZM94.962 222.275C94.2719 222.275 93.9189 221.643 93.9189 220.783C93.9189 219.922 94.2719 219.287 94.962 219.287C95.6392 219.287 95.9922 219.922 95.9922 220.783C95.9922 221.643 95.6392 222.275 94.962 222.275ZM102.699 218.308H101.252L100.231 221.835H100.18L99.1559 218.308H97.7117L99.4352 223.238H100.976L102.699 218.308ZM105.478 223.334C106.697 223.334 107.519 222.74 107.712 221.826L106.447 221.742C106.309 222.118 105.956 222.313 105.5 222.313C104.817 222.313 104.383 221.861 104.383 221.126V221.123H107.74V220.747C107.74 219.072 106.726 218.244 105.423 218.244C103.973 218.244 103.032 219.274 103.032 220.795C103.032 222.358 103.96 223.334 105.478 223.334ZM104.383 220.275C104.412 219.714 104.839 219.264 105.446 219.264C106.039 219.264 106.45 219.688 106.453 220.275H104.383Z" fill="#1A222B"/>
<path d="M127.746 240.551C129.353 240.551 130.324 239.327 130.327 237.221C130.33 235.13 129.347 233.932 127.746 233.932C126.142 233.932 125.169 235.127 125.166 237.221C125.159 239.321 126.136 240.547 127.746 240.551ZM127.746 239.43C127.013 239.43 126.539 238.694 126.542 237.221C126.545 235.77 127.016 235.04 127.746 235.04C128.473 235.04 128.948 235.77 128.948 237.221C128.951 238.694 128.477 239.43 127.746 239.43ZM134.789 239.212C134.792 239.98 135.282 240.632 136.196 240.632C137.101 240.632 137.607 239.98 137.604 239.212V238.875C137.607 238.101 137.114 237.455 136.196 237.455C135.294 237.455 134.792 238.107 134.789 238.875V239.212ZM131.509 235.554C131.512 236.322 132.002 236.968 132.913 236.968C133.821 236.968 134.327 236.328 134.324 235.554V235.217C134.327 234.443 133.834 233.797 132.913 233.797C132.021 233.797 131.512 234.443 131.509 235.217V235.554ZM131.815 240.41H132.629L137.023 234.019H136.209L131.815 240.41ZM135.697 238.875C135.7 238.569 135.822 238.254 136.196 238.254C136.589 238.254 136.692 238.569 136.689 238.875V239.212C136.692 239.518 136.577 239.827 136.196 239.827C135.816 239.827 135.7 239.508 135.697 239.212V238.875ZM132.423 235.217C132.427 234.921 132.542 234.596 132.913 234.596C133.307 234.596 133.413 234.912 133.41 235.217V235.554C133.413 235.86 133.294 236.169 132.913 236.169C132.545 236.169 132.427 235.86 132.423 235.554V235.217Z" fill="#333333"/>
<path d="M480.949 233.386H479.679L478.097 234.388V235.586L479.56 234.669H479.598V239.777H480.949V233.386ZM484.974 239.918C486.581 239.918 487.552 238.694 487.555 236.588C487.558 234.497 486.575 233.299 484.974 233.299C483.37 233.299 482.396 234.494 482.393 236.588C482.387 238.688 483.364 239.915 484.974 239.918ZM484.974 238.797C484.241 238.797 483.766 238.061 483.769 236.588C483.773 235.137 484.244 234.407 484.974 234.407C485.701 234.407 486.175 235.137 486.175 236.588C486.179 238.061 485.704 238.797 484.974 238.797ZM491.024 239.918C492.631 239.918 493.602 238.694 493.605 236.588C493.608 234.497 492.625 233.299 491.024 233.299C489.42 233.299 488.447 234.494 488.443 236.588C488.437 238.688 489.414 239.915 491.024 239.918ZM491.024 238.797C490.291 238.797 489.816 238.061 489.82 236.588C489.823 235.137 490.294 234.407 491.024 234.407C491.751 234.407 492.226 235.137 492.226 236.588C492.229 238.061 491.754 238.797 491.024 238.797ZM498.067 238.579C498.07 239.347 498.56 239.999 499.474 239.999C500.379 239.999 500.885 239.347 500.882 238.579V238.242C500.885 237.468 500.392 236.822 499.474 236.822C498.572 236.822 498.07 237.474 498.067 238.242V238.579ZM494.787 234.922C494.79 235.689 495.28 236.335 496.191 236.335C497.099 236.335 497.605 235.696 497.602 234.922V234.585C497.605 233.811 497.112 233.165 496.191 233.165C495.299 233.165 494.79 233.811 494.787 234.585V234.922ZM495.093 239.777H495.907L500.301 233.386H499.487L495.093 239.777ZM498.975 238.242C498.978 237.936 499.1 237.621 499.474 237.621C499.867 237.621 499.97 237.936 499.967 238.242V238.579C499.97 238.885 499.855 239.194 499.474 239.194C499.093 239.194 498.978 238.875 498.975 238.579V238.242ZM495.701 234.585C495.704 234.288 495.82 233.964 496.191 233.964C496.584 233.964 496.691 234.279 496.687 234.585V234.922C496.691 235.227 496.572 235.536 496.191 235.536C495.823 235.536 495.704 235.227 495.701 234.922V234.585Z" fill="#333333"/>
<path d="M470.055 75.8766H473.122V77H474.414V75.8766H475.207V74.7937H474.414V70.6089H472.723L470.055 74.8124V75.8766ZM473.147 74.7937H471.415V74.7438L473.097 72.0819H473.147V74.7937ZM476.36 77L477.755 77L480.408 71.7292V70.6089L475.923 70.6089V71.7136L479.01 71.7136V71.7573L476.36 77ZM481.693 76.1262H480.594L480.578 76.4757C480.541 77.3245 480.298 78.1952 480.207 78.5603H481.068C481.218 78.1827 481.574 77.2965 481.658 76.4695L481.693 76.1262ZM485.082 77.0874C486.505 77.0936 487.476 76.1605 487.473 74.8592C487.476 73.6609 486.64 72.7965 485.507 72.7965C484.805 72.7965 484.184 73.1335 483.896 73.6983H483.853C483.859 72.4532 484.296 71.6793 485.129 71.6793C485.619 71.6793 485.972 71.9477 486.075 72.3939H487.407C487.279 71.3423 486.405 70.5215 485.129 70.5215C483.55 70.5215 482.536 71.801 482.53 73.948C482.527 76.2885 483.769 77.0811 485.082 77.0874ZM485.076 76.0264C484.452 76.0264 483.99 75.5239 483.99 74.8998C483.993 74.2788 484.464 73.7732 485.085 73.7732C485.71 73.7732 486.165 74.2632 486.162 74.8967C486.165 75.5364 485.7 76.0264 485.076 76.0264ZM488.431 77L492.987 77V75.8953H490.303V75.8516L491.236 74.9372C492.55 73.7389 492.903 73.1398 492.903 72.4126C492.903 71.3048 491.998 70.5215 490.628 70.5215C489.286 70.5215 488.365 71.3235 488.368 72.578H489.651C489.648 71.9664 490.035 71.5919 490.618 71.5919C491.18 71.5919 491.598 71.9414 491.598 72.5031C491.598 73.0118 491.286 73.3613 490.706 73.9199L488.431 76.0264V77ZM497.464 75.8017C497.467 76.5693 497.957 77.2216 498.872 77.2216C499.777 77.2216 500.282 76.5693 500.279 75.8017V75.4646C500.282 74.6907 499.789 74.0447 498.872 74.0447C497.97 74.0447 497.467 74.697 497.464 75.4646V75.8017ZM494.184 72.1443C494.188 72.9119 494.678 73.5579 495.589 73.5579C496.497 73.5579 497.002 72.9182 496.999 72.1443V71.8072C497.002 71.0333 496.509 70.3873 495.589 70.3873C494.696 70.3873 494.188 71.0333 494.184 71.8072V72.1443ZM494.49 77H495.305L499.699 70.6089H498.884L494.49 77ZM498.372 75.4646C498.376 75.1588 498.497 74.8436 498.872 74.8436C499.265 74.8436 499.368 75.1588 499.365 75.4646V75.8017C499.368 76.1075 499.252 76.4164 498.872 76.4164C498.491 76.4164 498.376 76.0981 498.372 75.8017V75.4646ZM495.099 71.8072C495.102 71.5108 495.217 71.1862 495.589 71.1862C495.982 71.1862 496.088 71.5014 496.085 71.8072V72.1443C496.088 72.4501 495.97 72.759 495.589 72.759C495.221 72.759 495.102 72.4501 495.099 72.1443V71.8072Z" fill="#333333"/>
<path d="M470.619 143H472.014L474.666 137.729V136.609L470.182 136.609V137.714H473.268V137.757L470.619 143ZM478.373 136.609H477.103L475.521 137.611V138.809L476.984 137.891H477.022V143H478.373V136.609ZM481.015 142.126H479.916L479.9 142.476C479.863 143.325 479.62 144.195 479.529 144.56H480.39C480.54 144.183 480.896 143.296 480.98 142.469L481.015 142.126ZM482.121 141.877H485.188V143H486.48V141.877H487.273V140.794H486.48V136.609H484.789L482.121 140.812V141.877ZM485.213 140.794H483.481V140.744L485.163 138.082H485.213V140.794ZM490.536 143.087C491.971 143.087 492.998 142.298 492.995 141.206C492.998 140.41 492.492 139.842 491.553 139.723V139.673C492.268 139.545 492.761 139.04 492.758 138.322C492.761 137.314 491.878 136.522 490.554 136.522C489.244 136.522 488.258 137.289 488.239 138.394H489.534C489.55 137.907 489.996 137.592 490.548 137.592C491.094 137.592 491.459 137.923 491.456 138.403C491.459 138.906 491.032 139.246 490.417 139.246H489.821V140.238H490.417C491.141 140.238 491.594 140.6 491.59 141.115C491.594 141.624 491.157 141.973 490.539 141.973C489.943 141.973 489.496 141.661 489.472 141.193H488.111C488.133 142.31 489.131 143.087 490.536 143.087ZM497.464 141.802C497.467 142.569 497.957 143.222 498.872 143.222C499.777 143.222 500.282 142.569 500.279 141.802V141.465C500.282 140.691 499.789 140.045 498.872 140.045C497.97 140.045 497.467 140.697 497.464 141.465V141.802ZM494.184 138.144C494.188 138.912 494.678 139.558 495.589 139.558C496.497 139.558 497.002 138.918 496.999 138.144V137.807C497.002 137.033 496.509 136.387 495.589 136.387C494.696 136.387 494.188 137.033 494.184 137.807V138.144ZM494.49 143H495.305L499.699 136.609H498.884L494.49 143ZM498.372 141.465C498.376 141.159 498.497 140.844 498.872 140.844C499.265 140.844 499.368 141.159 499.365 141.465V141.802C499.368 142.107 499.252 142.416 498.872 142.416C498.491 142.416 498.376 142.098 498.372 141.802V141.465ZM495.099 137.807C495.102 137.511 495.217 137.186 495.589 137.186C495.982 137.186 496.088 137.501 496.085 137.807V138.144C496.088 138.45 495.97 138.759 495.589 138.759C495.221 138.759 495.102 138.45 495.099 138.144V137.807Z" fill="#333333"/>
<path d="M472.694 110.087C474.13 110.087 475.156 109.298 475.153 108.206C475.156 107.41 474.651 106.842 473.711 106.723V106.673C474.426 106.545 474.919 106.04 474.916 105.322C474.919 104.314 474.036 103.522 472.713 103.522C471.402 103.522 470.416 104.289 470.397 105.394H471.692C471.708 104.907 472.154 104.592 472.707 104.592C473.253 104.592 473.618 104.923 473.615 105.403C473.618 105.906 473.19 106.246 472.576 106.246H471.979V107.238H472.576C473.3 107.238 473.752 107.6 473.749 108.115C473.752 108.624 473.315 108.973 472.697 108.973C472.101 108.973 471.655 108.661 471.63 108.193H470.269C470.291 109.31 471.29 110.087 472.694 110.087ZM478.509 110.087C479.95 110.087 480.986 109.317 480.99 108.281C480.986 107.482 480.372 106.829 479.604 106.701V106.658C480.272 106.52 480.749 105.943 480.752 105.241C480.749 104.252 479.801 103.522 478.509 103.522C477.214 103.522 476.265 104.252 476.268 105.241C476.265 105.94 476.736 106.52 477.416 106.658V106.701C476.636 106.829 476.028 107.482 476.031 108.281C476.028 109.317 477.067 110.087 478.509 110.087ZM478.509 109.095C477.866 109.095 477.435 108.714 477.435 108.174C477.435 107.622 477.888 107.223 478.509 107.223C479.127 107.223 479.582 107.622 479.582 108.174C479.582 108.717 479.148 109.095 478.509 109.095ZM478.509 106.24C477.969 106.24 477.585 105.887 477.585 105.381C477.585 104.882 477.963 104.539 478.509 104.539C479.052 104.539 479.432 104.885 479.432 105.381C479.432 105.887 479.045 106.24 478.509 106.24ZM483.212 109.126H482.113L482.097 109.476C482.06 110.325 481.817 111.195 481.726 111.56H482.587C482.737 111.183 483.093 110.296 483.177 109.469L483.212 109.126ZM486.397 103.609H485.127L483.545 104.611V105.809L485.008 104.891H485.046V110H486.397V103.609ZM490.422 110.14C492.029 110.14 492.999 108.917 493.003 106.811C493.006 104.72 492.023 103.522 490.422 103.522C488.818 103.522 487.844 104.717 487.841 106.811C487.835 108.911 488.812 110.137 490.422 110.14ZM490.422 109.02C489.688 109.02 489.214 108.284 489.217 106.811C489.22 105.36 489.692 104.629 490.422 104.629C491.149 104.629 491.623 105.36 491.623 106.811C491.626 108.284 491.152 109.02 490.422 109.02ZM497.464 108.802C497.467 109.569 497.957 110.222 498.872 110.222C499.777 110.222 500.282 109.569 500.279 108.802V108.465C500.282 107.691 499.789 107.045 498.872 107.045C497.97 107.045 497.467 107.697 497.464 108.465V108.802ZM494.184 105.144C494.188 105.912 494.678 106.558 495.589 106.558C496.497 106.558 497.002 105.918 496.999 105.144V104.807C497.002 104.033 496.509 103.387 495.589 103.387C494.696 103.387 494.188 104.033 494.184 104.807V105.144ZM494.49 110H495.305L499.699 103.609H498.884L494.49 110ZM498.372 108.465C498.376 108.159 498.497 107.844 498.872 107.844C499.265 107.844 499.368 108.159 499.365 108.465V108.802C499.368 109.107 499.252 109.416 498.872 109.416C498.491 109.416 498.376 109.098 498.372 108.802V108.465ZM495.099 104.807C495.102 104.511 495.217 104.186 495.589 104.186C495.982 104.186 496.088 104.501 496.085 104.807V105.144C496.088 105.45 495.97 105.759 495.589 105.759C495.221 105.759 495.102 105.45 495.099 105.144V104.807Z" fill="#333333"/>
<path d="M472.803 172.609H471.533L469.951 173.611V174.809L471.415 173.891H471.452V179H472.803V172.609ZM476.635 172.522C475.205 172.515 474.241 173.451 474.247 174.737C474.251 175.929 475.078 176.794 476.21 176.794C476.912 176.794 477.537 176.454 477.821 175.892H477.864C477.861 177.159 477.421 177.93 476.588 177.93C476.098 177.93 475.745 177.661 475.642 177.196H474.31C474.435 178.273 475.308 179.087 476.588 179.087C478.17 179.087 479.191 177.808 479.187 175.639C479.184 173.324 477.949 172.528 476.635 172.522ZM476.644 173.583C477.265 173.583 477.724 174.088 477.73 174.697C477.733 175.308 477.249 175.814 476.632 175.814C476.007 175.814 475.561 175.327 475.558 174.7C475.552 174.076 476.017 173.583 476.644 173.583ZM481.315 178.126H480.216L480.201 178.476C480.163 179.325 479.92 180.195 479.829 180.56H480.691C480.841 180.183 481.196 179.296 481.281 178.469L481.315 178.126ZM484.758 179.14C486.365 179.14 487.335 177.917 487.339 175.811C487.342 173.72 486.359 172.522 484.758 172.522C483.154 172.522 482.18 173.717 482.177 175.811C482.171 177.911 483.148 179.137 484.758 179.14ZM484.758 178.02C484.024 178.02 483.55 177.284 483.553 175.811C483.556 174.36 484.028 173.629 484.758 173.629C485.485 173.629 485.959 174.36 485.959 175.811C485.962 177.284 485.488 178.02 484.758 178.02ZM490.636 179.087C492.059 179.087 493.027 178.161 493.024 176.869C493.027 175.645 492.172 174.765 491.02 174.765C490.458 174.765 489.975 174.999 489.75 175.315H489.713L489.878 173.714L492.671 173.714V172.609L488.764 172.609L488.461 175.979L489.663 176.195C489.859 175.929 490.24 175.764 490.618 175.764C491.26 175.767 491.722 176.232 491.722 176.903C491.722 177.568 491.27 178.026 490.636 178.026C490.1 178.026 489.666 177.689 489.635 177.193H488.324C488.349 178.298 489.313 179.087 490.636 179.087ZM497.464 177.802C497.467 178.569 497.957 179.222 498.872 179.222C499.777 179.222 500.282 178.569 500.279 177.802V177.465C500.282 176.691 499.789 176.045 498.872 176.045C497.97 176.045 497.467 176.697 497.464 177.465V177.802ZM494.184 174.144C494.188 174.912 494.678 175.558 495.589 175.558C496.497 175.558 497.002 174.918 496.999 174.144V173.807C497.002 173.033 496.509 172.387 495.589 172.387C494.696 172.387 494.188 173.033 494.184 173.807V174.144ZM494.49 179H495.305L499.699 172.609H498.884L494.49 179ZM498.372 177.465C498.376 177.159 498.497 176.844 498.872 176.844C499.265 176.844 499.368 177.159 499.365 177.465V177.802C499.368 178.107 499.252 178.416 498.872 178.416C498.491 178.416 498.376 178.098 498.372 177.802V177.465ZM495.099 173.807C495.102 173.511 495.217 173.186 495.589 173.186C495.982 173.186 496.088 173.501 496.085 173.807V174.144C496.088 174.45 495.97 174.759 495.589 174.759C495.221 174.759 495.102 174.45 495.099 174.144V173.807Z" fill="#333333"/>
<path d="M476.935 204.522C475.506 204.515 474.542 205.451 474.548 206.737C474.551 207.929 475.378 208.794 476.511 208.794C477.213 208.794 477.837 208.454 478.121 207.892H478.165C478.162 209.159 477.721 209.93 476.888 209.93C476.398 209.93 476.046 209.661 475.943 209.196H474.61C474.735 210.273 475.609 211.087 476.888 211.087C478.47 211.087 479.491 209.808 479.488 207.639C479.485 205.324 478.249 204.528 476.935 204.522ZM476.944 205.583C477.565 205.583 478.024 206.088 478.03 206.697C478.034 207.308 477.55 207.814 476.932 207.814C476.308 207.814 475.862 207.327 475.858 206.7C475.852 206.076 476.317 205.583 476.944 205.583ZM481.615 210.126H480.517L480.501 210.476C480.464 211.325 480.22 212.195 480.13 212.56H480.991C481.141 212.183 481.497 211.296 481.581 210.469L481.615 210.126ZM485.101 211.087C486.524 211.087 487.491 210.161 487.488 208.869C487.491 207.645 486.636 206.765 485.485 206.765C484.923 206.765 484.439 206.999 484.215 207.315H484.177L484.343 205.714H487.136V204.609H483.229L482.926 207.979L484.127 208.195C484.324 207.929 484.705 207.764 485.082 207.764C485.725 207.767 486.187 208.232 486.187 208.903C486.187 209.568 485.735 210.026 485.101 210.026C484.564 210.026 484.131 209.689 484.099 209.193L482.789 209.193C482.814 210.298 483.778 211.087 485.101 211.087ZM488.431 211H492.987V209.895H490.303V209.852L491.236 208.937C492.55 207.739 492.903 207.14 492.903 206.413C492.903 205.305 491.998 204.522 490.628 204.522C489.286 204.522 488.365 205.324 488.368 206.578H489.651C489.648 205.966 490.035 205.592 490.618 205.592C491.18 205.592 491.598 205.941 491.598 206.503C491.598 207.012 491.286 207.361 490.706 207.92L488.431 210.026V211ZM497.464 209.802C497.467 210.569 497.957 211.222 498.872 211.222C499.777 211.222 500.282 210.569 500.279 209.802V209.465C500.282 208.691 499.789 208.045 498.872 208.045C497.97 208.045 497.467 208.697 497.464 209.465V209.802ZM494.184 206.144C494.188 206.912 494.678 207.558 495.589 207.558C496.497 207.558 497.002 206.918 496.999 206.144V205.807C497.002 205.033 496.509 204.387 495.589 204.387C494.696 204.387 494.188 205.033 494.184 205.807V206.144ZM494.49 211H495.305L499.699 204.609H498.884L494.49 211ZM498.372 209.465C498.376 209.159 498.497 208.844 498.872 208.844C499.265 208.844 499.368 209.159 499.365 209.465V209.802C499.368 210.107 499.252 210.416 498.872 210.416C498.491 210.416 498.376 210.098 498.372 209.802V209.465ZM495.099 205.807C495.102 205.511 495.217 205.186 495.589 205.186C495.982 205.186 496.088 205.501 496.085 205.807V206.144C496.088 206.45 495.97 206.759 495.589 206.759C495.221 206.759 495.102 206.45 495.099 206.144V205.807Z" fill="#333333"/>
</svg>
