<svg width="273" height="287" viewBox="0 0 273 287" fill="none" xmlns="http://www.w3.org/2000/svg">
<rect x="0.960449" width="271.644" height="286.5" rx="8" fill="white"/>
<path d="M29.3277 42.729H31.2434L33.0092 36.6507H33.0818L34.8522 42.729H36.7679L39.428 33.4322H37.2808L35.7419 39.9055H35.6602L33.967 33.4322H32.1285L30.4308 39.8919H30.3536L28.8147 33.4322H26.6676L29.3277 42.729ZM42.3775 38.698C42.382 37.7992 42.9313 37.2726 43.7211 37.2726C44.5065 37.2726 44.9695 37.7765 44.965 38.6344V42.729H46.8988V38.2894C46.9033 36.6552 45.9409 35.6656 44.4883 35.6656C43.4306 35.6656 42.7225 36.165 42.4047 36.9866H42.323V33.4322H40.4437V42.729H42.3775V38.698ZM51.5982 42.8652C53.3232 42.8652 54.4853 42.0254 54.7577 40.7316L52.9691 40.6136C52.7739 41.1447 52.2746 41.4216 51.63 41.4216C50.6631 41.4216 50.0503 40.7816 50.0503 39.7421V39.7375H54.7985V39.2064C54.7985 36.8368 53.3641 35.6656 51.521 35.6656C49.4692 35.6656 48.1392 37.1228 48.1392 39.2745C48.1392 41.4852 49.4511 42.8652 51.5982 42.8652ZM50.0503 38.5391C50.0911 37.7447 50.6949 37.1092 51.5528 37.1092C52.3926 37.1092 52.9737 37.7084 52.9782 38.5391H50.0503ZM57.9943 38.698C57.9988 37.7992 58.5345 37.2726 59.3153 37.2726C60.0915 37.2726 60.5591 37.781 60.5545 38.6344V42.729H62.4883V38.2894C62.4883 36.6643 61.5351 35.6656 60.0824 35.6656C59.0474 35.6656 58.2984 36.174 57.9852 36.9866H57.9035V35.7564H56.0605V42.729H57.9943V38.698ZM67.0074 42.729H68.9139V41.6123H69.0002C69.268 42.1933 69.8536 42.8425 70.9794 42.8425C72.5682 42.8425 73.8074 41.5851 73.8074 39.2518C73.8074 36.855 72.5137 35.6656 70.9839 35.6656C69.8173 35.6656 69.2589 36.3602 69.0002 36.9276H68.9412V33.4322H67.0074V42.729ZM68.9003 39.2427C68.9003 37.9989 69.4269 37.2045 70.3665 37.2045C71.3244 37.2045 71.8328 38.0352 71.8328 39.2427C71.8328 40.4593 71.3153 41.3036 70.3665 41.3036C69.436 41.3036 68.9003 40.4865 68.9003 39.2427ZM78.2481 42.8652C80.3635 42.8652 81.68 41.4171 81.68 39.2699C81.68 37.1092 80.3635 35.6656 78.2481 35.6656C76.1328 35.6656 74.8163 37.1092 74.8163 39.2699C74.8163 41.4171 76.1328 42.8652 78.2481 42.8652ZM78.2572 41.3672C77.2812 41.3672 76.7819 40.4729 76.7819 39.2563C76.7819 38.0398 77.2812 37.1409 78.2572 37.1409C79.215 37.1409 79.7144 38.0398 79.7144 39.2563C79.7144 40.4729 79.215 41.3672 78.2572 41.3672ZM86.0878 42.8652C88.2031 42.8652 89.5196 41.4171 89.5196 39.2699C89.5196 37.1092 88.2031 35.6656 86.0878 35.6656C83.9724 35.6656 82.6559 37.1092 82.6559 39.2699C82.6559 41.4171 83.9724 42.8652 86.0878 42.8652ZM86.0968 41.3672C85.1209 41.3672 84.6215 40.4729 84.6215 39.2563C84.6215 38.0398 85.1209 37.1409 86.0968 37.1409C87.0547 37.1409 87.554 38.0398 87.554 39.2563C87.554 40.4729 87.0547 41.3672 86.0968 41.3672ZM90.777 42.729H92.7108V40.5138L93.2328 39.9191L95.1349 42.729H97.4001L94.6809 38.7751L97.2684 35.7564H95.0486L92.8152 38.4029H92.7108V33.4322H90.777V42.729ZM98.2172 42.729H100.151V35.7564H98.2172V42.729ZM99.1886 34.8576C99.7651 34.8576 100.237 34.4173 100.237 33.8771C100.237 33.3414 99.7651 32.9011 99.1886 32.9011C98.6166 32.9011 98.1445 33.3414 98.1445 33.8771C98.1445 34.4173 98.6166 34.8576 99.1886 34.8576ZM103.634 38.698C103.638 37.7992 104.174 37.2726 104.955 37.2726C105.731 37.2726 106.199 37.781 106.194 38.6344V42.729H108.128V38.2894C108.128 36.6643 107.175 35.6656 105.722 35.6656C104.687 35.6656 103.938 36.174 103.625 36.9866H103.543V35.7564H101.7V42.729H103.634V38.698ZM112.793 45.489C114.786 45.489 116.202 44.5811 116.202 42.7971V35.7564H114.282V36.9276H114.21C113.951 36.3602 113.383 35.6656 112.217 35.6656C110.687 35.6656 109.393 36.855 109.393 39.2291C109.393 41.5487 110.651 42.6291 112.221 42.6291C113.333 42.6291 113.955 42.0708 114.21 41.4943H114.291V42.7699C114.291 43.7277 113.678 44.0999 112.839 44.0999C111.985 44.0999 111.554 43.7277 111.395 43.3055L109.607 43.5461C109.838 44.6446 110.914 45.489 112.793 45.489ZM112.834 41.1765C111.885 41.1765 111.368 40.423 111.368 39.22C111.368 38.0352 111.876 37.2045 112.834 37.2045C113.774 37.2045 114.3 37.9989 114.3 39.22C114.3 40.4502 113.765 41.1765 112.834 41.1765ZM122.688 42.8606C123.719 42.8606 124.386 42.4112 124.726 41.7621H124.781V42.729H126.615V38.0261C126.615 36.3647 125.208 35.6656 123.655 35.6656C121.985 35.6656 120.886 36.4646 120.618 37.7356L122.407 37.8809C122.538 37.4179 122.951 37.0774 123.646 37.0774C124.304 37.0774 124.681 37.4088 124.681 37.9807V38.008C124.681 38.4574 124.204 38.5164 122.992 38.6344C121.612 38.7615 120.373 39.2246 120.373 40.7816C120.373 42.1616 121.358 42.8606 122.688 42.8606ZM123.242 41.5261C122.647 41.5261 122.221 41.2491 122.221 40.718C122.221 40.1733 122.67 39.9055 123.351 39.8101C123.773 39.7511 124.463 39.6513 124.695 39.4969V40.2368C124.695 40.9677 124.091 41.5261 123.242 41.5261ZM134.823 35.7564H133.439V35.2889C133.439 34.8168 133.629 34.5398 134.197 34.5398C134.428 34.5398 134.664 34.5898 134.819 34.6397L135.159 33.1871C134.919 33.1145 134.387 32.9964 133.793 32.9964C132.481 32.9964 131.505 33.7364 131.505 35.2525V35.7564H130.52V37.209H131.505V42.729H133.439V37.209H134.823V35.7564ZM137.938 33.4322H136.005V42.729H137.938V33.4322ZM139.487 42.729H141.421V35.7564H139.487V42.729ZM140.459 34.8576C141.035 34.8576 141.508 34.4173 141.508 33.8771C141.508 33.3414 141.035 32.9011 140.459 32.9011C139.887 32.9011 139.415 33.3414 139.415 33.8771C139.415 34.4173 139.887 34.8576 140.459 34.8576ZM146.112 45.489C148.104 45.489 149.521 44.5811 149.521 42.7971V35.7564H147.601V36.9276H147.528C147.269 36.3602 146.702 35.6656 145.535 35.6656C144.005 35.6656 142.712 36.855 142.712 39.2291C142.712 41.5487 143.969 42.6291 145.54 42.6291C146.652 42.6291 147.274 42.0708 147.528 41.4943H147.61V42.7699C147.61 43.7277 146.997 44.0999 146.157 44.0999C145.304 44.0999 144.872 43.7277 144.714 43.3055L142.925 43.5461C143.156 44.6446 144.232 45.489 146.112 45.489ZM146.153 41.1765C145.204 41.1765 144.686 40.423 144.686 39.22C144.686 38.0352 145.195 37.2045 146.153 37.2045C147.092 37.2045 147.619 37.9989 147.619 39.22C147.619 40.4502 147.083 41.1765 146.153 41.1765ZM152.993 38.698C152.998 37.7992 153.547 37.2726 154.337 37.2726C155.122 37.2726 155.585 37.7765 155.581 38.6344V42.729H157.515V38.2894C157.519 36.6552 156.557 35.6656 155.104 35.6656C154.047 35.6656 153.338 36.165 153.021 36.9866H152.939V33.4322H151.06V42.729H152.993V38.698ZM162.745 35.7564H161.433V34.0859H159.5V35.7564H158.546V37.209H159.5V40.8406C159.491 42.207 160.421 42.8833 161.824 42.8243C162.323 42.8062 162.677 42.7063 162.872 42.6428L162.568 41.2038C162.473 41.2219 162.269 41.2673 162.087 41.2673C161.701 41.2673 161.433 41.122 161.433 40.5864V37.209H162.745V35.7564ZM168.339 42.729H170.382L171.58 38.3439H171.666L172.865 42.729H174.912L176.805 35.7564H174.853L173.791 40.4139H173.732L172.588 35.7564H170.668L169.542 40.4411H169.478L168.398 35.7564H166.442L168.339 42.729ZM177.837 42.729H179.771V35.7564H177.837V42.729ZM178.808 34.8576C179.385 34.8576 179.857 34.4173 179.857 33.8771C179.857 33.3414 179.385 32.9011 178.808 32.9011C178.236 32.9011 177.764 33.3414 177.764 33.8771C177.764 34.4173 178.236 34.8576 178.808 34.8576ZM184.47 42.8652C186.327 42.8652 187.493 41.7757 187.584 40.1733H185.759C185.646 40.9178 185.155 41.3354 184.493 41.3354C183.589 41.3354 183.004 40.5773 183.004 39.2427C183.004 37.9263 183.594 37.1727 184.493 37.1727C185.201 37.1727 185.655 37.6403 185.759 38.3348H187.584C187.502 36.7233 186.281 35.6656 184.461 35.6656C182.346 35.6656 181.038 37.1319 181.038 39.2699C181.038 41.3899 182.323 42.8652 184.47 42.8652ZM190.756 38.698C190.761 37.7992 191.31 37.2726 192.1 37.2726C192.885 37.2726 193.348 37.7765 193.343 38.6344V42.729H195.277V38.2894C195.282 36.6552 194.319 35.6656 192.867 35.6656C191.809 35.6656 191.101 36.165 190.783 36.9866H190.701V33.4322H188.822V42.729H190.756V38.698ZM202.908 42.8652C205.023 42.8652 206.34 41.4171 206.34 39.2699C206.34 37.1092 205.023 35.6656 202.908 35.6656C200.793 35.6656 199.476 37.1092 199.476 39.2699C199.476 41.4171 200.793 42.8652 202.908 42.8652ZM202.917 41.3672C201.941 41.3672 201.442 40.4729 201.442 39.2563C201.442 38.0398 201.941 37.1409 202.917 37.1409C203.875 37.1409 204.374 38.0398 204.374 39.2563C204.374 40.4729 203.875 41.3672 202.917 41.3672ZM211.347 35.7564H209.962V35.2889C209.962 34.8168 210.153 34.5398 210.72 34.5398C210.952 34.5398 211.188 34.5898 211.342 34.6397L211.683 33.1871C211.442 33.1145 210.911 32.9964 210.316 32.9964C209.005 32.9964 208.029 33.7364 208.029 35.2525V35.7564H207.043V37.209H208.029V42.729H209.962V37.209H211.347V35.7564ZM219.196 35.7564H217.884V34.0859H215.95V35.7564H214.997V37.209H215.95V40.8406C215.941 42.207 216.871 42.8833 218.274 42.8243C218.773 42.8062 219.127 42.7063 219.323 42.6428L219.019 41.2038C218.923 41.2219 218.719 41.2673 218.537 41.2673C218.152 41.2673 217.884 41.122 217.884 40.5864V37.209H219.196V35.7564ZM222.539 38.698C222.543 37.7992 223.093 37.2726 223.883 37.2726C224.668 37.2726 225.131 37.7765 225.126 38.6344V42.729H227.06V38.2894C227.065 36.6552 226.102 35.6656 224.65 35.6656C223.592 35.6656 222.884 36.165 222.566 36.9866H222.484V33.4322H220.605V42.729H222.539V38.698ZM231.76 42.8652C233.485 42.8652 234.647 42.0254 234.919 40.7316L233.131 40.6136C232.935 41.1447 232.436 41.4216 231.791 41.4216C230.824 41.4216 230.212 40.7816 230.212 39.7421V39.7375H234.96V39.2064C234.96 36.8368 233.525 35.6656 231.682 35.6656C229.631 35.6656 228.301 37.1228 228.301 39.2745C228.301 41.4852 229.612 42.8652 231.76 42.8652ZM230.212 38.5391C230.253 37.7447 230.856 37.1092 231.714 37.1092C232.554 37.1092 233.135 37.7084 233.14 38.5391H230.212ZM30.9483 50.7564H29.5638V50.2889C29.5638 49.8168 29.7544 49.5398 30.3218 49.5398C30.5534 49.5398 30.7894 49.5898 30.9437 49.6397L31.2842 48.1871C31.0436 48.1145 30.5125 47.9964 29.9178 47.9964C28.6059 47.9964 27.63 48.7364 27.63 50.2525V50.7564H26.6449V52.209H27.63V57.729H29.5638V52.209H30.9483V50.7564ZM35.0304 57.8652C37.1458 57.8652 38.4622 56.4171 38.4622 54.2699C38.4622 52.1092 37.1458 50.6656 35.0304 50.6656C32.915 50.6656 31.5986 52.1092 31.5986 54.2699C31.5986 56.4171 32.915 57.8652 35.0304 57.8652ZM35.0395 56.3672C34.0635 56.3672 33.5641 55.4729 33.5641 54.2563C33.5641 53.0398 34.0635 52.1409 35.0395 52.1409C35.9973 52.1409 36.4966 53.0398 36.4966 54.2563C36.4966 55.4729 35.9973 56.3672 35.0395 56.3672ZM41.6534 48.4322H39.7196V57.729H41.6534V48.4322ZM45.1363 48.4322H43.2025V57.729H45.1363V48.4322ZM49.8358 57.8652C51.9512 57.8652 53.2676 56.4171 53.2676 54.2699C53.2676 52.1092 51.9512 50.6656 49.8358 50.6656C47.7204 50.6656 46.404 52.1092 46.404 54.2699C46.404 56.4171 47.7204 57.8652 49.8358 57.8652ZM49.8449 56.3672C48.8689 56.3672 48.3695 55.4729 48.3695 54.2563C48.3695 53.0398 48.8689 52.1409 49.8449 52.1409C50.8027 52.1409 51.302 53.0398 51.302 54.2563C51.302 55.4729 50.8027 56.3672 49.8449 56.3672ZM55.7257 57.729H57.7685L58.9669 53.3439H59.0531L60.2515 57.729H62.2988L64.1918 50.7564H62.2398L61.1776 55.4139H61.1186L59.9746 50.7564H58.0544L56.9287 55.4411H56.8651L55.7847 50.7564H53.8282L55.7257 57.729ZM65.2234 57.729H67.1572V50.7564H65.2234V57.729ZM66.1948 49.8576C66.7713 49.8576 67.2434 49.4173 67.2434 48.8771C67.2434 48.3414 66.7713 47.9011 66.1948 47.9011C65.6228 47.9011 65.1507 48.3414 65.1507 48.8771C65.1507 49.4173 65.6228 49.8576 66.1948 49.8576ZM70.64 53.698C70.6446 52.7992 71.1802 52.2726 71.961 52.2726C72.7373 52.2726 73.2048 52.781 73.2003 53.6344V57.729H75.1341V53.2894C75.1341 51.6643 74.1808 50.6656 72.7282 50.6656C71.6932 50.6656 70.9442 51.174 70.631 51.9866H70.5493V50.7564H68.7062V57.729H70.64V53.698ZM79.7995 60.489C81.7923 60.489 83.2086 59.5811 83.2086 57.7971V50.7564H81.2884V51.9276H81.2158C80.9571 51.3602 80.3896 50.6656 79.223 50.6656C77.6932 50.6656 76.3995 51.855 76.3995 54.2291C76.3995 56.5487 77.6569 57.6291 79.2275 57.6291C80.3397 57.6291 80.9616 57.0708 81.2158 56.4943H81.2975V57.7699C81.2975 58.7277 80.6847 59.0999 79.8449 59.0999C78.9915 59.0999 78.5602 58.7277 78.4014 58.3055L76.6128 58.5461C76.8443 59.6446 77.9202 60.489 79.7995 60.489ZM79.8404 56.1765C78.8916 56.1765 78.3741 55.423 78.3741 54.22C78.3741 53.0352 78.8825 52.2045 79.8404 52.2045C80.78 52.2045 81.3066 52.9989 81.3066 54.22C81.3066 55.4502 80.7709 56.1765 79.8404 56.1765ZM90.2754 57.8425C91.4012 57.8425 91.9868 57.1933 92.2546 56.6123H92.3363V57.729H94.2429V48.4322H92.3136V51.9276H92.2546C91.9958 51.3602 91.4375 50.6656 90.2709 50.6656C88.7411 50.6656 87.4473 51.855 87.4473 54.2518C87.4473 56.5851 88.6866 57.8425 90.2754 57.8425ZM90.8882 56.3036C89.9395 56.3036 89.422 55.4593 89.422 54.2427C89.422 53.0352 89.9304 52.2045 90.8882 52.2045C91.8279 52.2045 92.3545 52.9989 92.3545 54.2427C92.3545 55.4865 91.8188 56.3036 90.8882 56.3036ZM95.8328 57.729H97.7666V50.7564H95.8328V57.729ZM96.8042 49.8576C97.3808 49.8576 97.8529 49.4173 97.8529 48.8771C97.8529 48.3414 97.3808 47.9011 96.8042 47.9011C96.2323 47.9011 95.7602 48.3414 95.7602 48.8771C95.7602 49.4173 96.2323 49.8576 96.8042 49.8576ZM101.885 57.8425C103.011 57.8425 103.596 57.1933 103.864 56.6123H103.946V57.729H105.852V48.4322H103.923V51.9276H103.864C103.605 51.3602 103.047 50.6656 101.88 50.6656C100.351 50.6656 99.0569 51.855 99.0569 54.2518C99.0569 56.5851 100.296 57.8425 101.885 57.8425ZM102.498 56.3036C101.549 56.3036 101.032 55.4593 101.032 54.2427C101.032 53.0352 101.54 52.2045 102.498 52.2045C103.438 52.2045 103.964 52.9989 103.964 54.2427C103.964 55.4865 103.428 56.3036 102.498 56.3036ZM111.595 60.3437C113.034 60.3437 113.797 59.6083 114.191 58.4826L116.901 50.7655L114.854 50.7564L113.397 55.8769H113.324L111.881 50.7564H109.847L112.348 57.9287L112.235 58.2238C111.981 58.8775 111.495 58.9093 110.814 58.7004L110.378 60.144C110.655 60.262 111.105 60.3437 111.595 60.3437ZM120.804 57.8652C122.92 57.8652 124.236 56.4171 124.236 54.2699C124.236 52.1092 122.92 50.6656 120.804 50.6656C118.689 50.6656 117.372 52.1092 117.372 54.2699C117.372 56.4171 118.689 57.8652 120.804 57.8652ZM120.813 56.3672C119.837 56.3672 119.338 55.4729 119.338 54.2563C119.338 53.0398 119.837 52.1409 120.813 52.1409C121.771 52.1409 122.271 53.0398 122.271 54.2563C122.271 55.4729 121.771 56.3672 120.813 56.3672ZM129.965 54.7602C129.969 55.6953 129.329 56.1856 128.635 56.1856C127.904 56.1856 127.432 55.6726 127.427 54.851V50.7564H125.494V55.196C125.498 56.8257 126.451 57.8198 127.854 57.8198C128.903 57.8198 129.656 57.2796 129.969 56.4625H130.042V57.729H131.899V50.7564H129.965V54.7602ZM140.875 54.7602C140.88 55.6953 140.24 56.1856 139.545 56.1856C138.815 56.1856 138.342 55.6726 138.338 54.851V50.7564H136.404V55.196C136.409 56.8257 137.362 57.8198 138.765 57.8198C139.813 57.8198 140.567 57.2796 140.88 56.4625H140.953V57.729H142.809V50.7564H140.875V54.7602ZM150.157 52.7447C149.985 51.46 148.95 50.6656 147.189 50.6656C145.405 50.6656 144.229 51.4918 144.233 52.8355C144.229 53.8796 144.887 54.5559 146.249 54.8283L147.456 55.0689C148.065 55.1915 148.342 55.4139 148.351 55.7634C148.342 56.1765 147.892 56.4716 147.216 56.4716C146.526 56.4716 146.067 56.1765 145.949 55.6091L144.047 55.709C144.229 57.0435 145.364 57.8652 147.211 57.8652C149.018 57.8652 150.312 56.9437 150.316 55.5682C150.312 54.5605 149.654 53.9567 148.301 53.6798L147.039 53.4256C146.39 53.2849 146.149 53.0625 146.154 52.7265C146.149 52.3089 146.621 52.0365 147.22 52.0365C147.892 52.0365 148.292 52.4042 148.387 52.8536L150.157 52.7447ZM154.712 57.8652C156.437 57.8652 157.599 57.0254 157.871 55.7316L156.083 55.6136C155.887 56.1447 155.388 56.4216 154.743 56.4216C153.777 56.4216 153.164 55.7816 153.164 54.7421V54.7375H157.912V54.2064C157.912 51.8368 156.477 50.6656 154.634 50.6656C152.583 50.6656 151.253 52.1228 151.253 54.2745C151.253 56.4852 152.564 57.8652 154.712 57.8652ZM153.164 53.5391C153.205 52.7447 153.808 52.1092 154.666 52.1092C155.506 52.1092 156.087 52.7084 156.092 53.5391H153.164ZM160.835 54.9418H162.556V54.7874C162.565 53.9023 162.883 53.4892 163.6 53.0579C164.449 52.554 165.003 51.8867 165.003 50.82C165.003 49.2312 163.722 48.3051 161.92 48.3051C160.272 48.3051 158.929 49.1676 158.888 50.9834H160.74C160.767 50.2435 161.317 49.8485 161.911 49.8485C162.524 49.8485 163.019 50.2571 163.019 50.8881C163.019 51.4827 162.588 51.8777 162.029 52.2317C161.267 52.7129 160.84 53.1986 160.835 54.7874V54.9418ZM161.73 57.847C162.311 57.847 162.815 57.3613 162.819 56.7576C162.815 56.1629 162.311 55.6772 161.73 55.6772C161.13 55.6772 160.636 56.1629 160.64 56.7576C160.636 57.3613 161.13 57.847 161.73 57.847Z" fill="#1A222B"/>
<path d="M27.6516 82.4951L28.5111 80.0752H31.9657L32.8252 82.4951H33.91L30.7724 73.9502H29.7043L26.5668 82.4951H27.6516ZM28.8365 79.1573L30.205 75.3021H30.2718L31.6403 79.1573H28.8365ZM36.0921 78.6399C36.0921 77.5217 36.7847 76.8875 37.7277 76.8875C38.6414 76.8875 39.1963 77.4842 39.1963 78.4897V82.4951H40.181V78.4229C40.181 76.7874 39.309 76.003 38.0114 76.003C37.0434 76.003 36.4426 76.4369 36.1422 77.0878H36.0588V76.0865H35.1075V82.4951H36.0921V78.6399ZM46.5198 77.5217C46.211 76.6122 45.5184 76.003 44.25 76.003C42.8982 76.003 41.8969 76.7707 41.8969 77.8555C41.8969 78.74 42.4226 79.3325 43.5992 79.6079L44.6673 79.8582C45.314 80.0084 45.6186 80.3172 45.6186 80.7594C45.6186 81.3102 45.0344 81.7608 44.1165 81.7608C43.3113 81.7608 42.8064 81.4145 42.6312 80.7261L41.6966 80.9597C41.9261 82.0487 42.8231 82.6286 44.1332 82.6286C45.6227 82.6286 46.6366 81.815 46.6366 80.7094C46.6366 79.8165 46.0775 79.2532 44.9343 78.9737L43.983 78.74C43.2236 78.5523 42.8815 78.2978 42.8815 77.8054C42.8815 77.2547 43.4656 76.8542 44.25 76.8542C45.1095 76.8542 45.4642 77.3298 45.6352 77.7721L46.5198 77.5217ZM49.5708 82.4951H50.5387L51.9406 77.5718H52.0408L53.4427 82.4951H54.4106L56.3633 76.0865H55.3285L53.9433 80.9764H53.8766L52.5248 76.0865H51.4733L50.1048 80.9931H50.0381L48.6529 76.0865H47.6181L49.5708 82.4951ZM60.134 82.6286C61.4358 82.6286 62.387 81.9778 62.6875 81.0098L61.7362 80.7427C61.4858 81.4103 60.9059 81.7441 60.134 81.7441C58.9783 81.7441 58.1814 80.9973 58.1355 79.6246H62.7876V79.2073C62.7876 76.8208 61.369 76.003 60.0339 76.003C58.2982 76.003 57.1466 77.3715 57.1466 79.3409C57.1466 81.3102 58.2815 82.6286 60.134 82.6286ZM58.1355 78.7734C58.2022 77.7762 58.9073 76.8875 60.0339 76.8875C61.102 76.8875 61.7862 77.6886 61.7862 78.7734H58.1355ZM64.2854 82.4951H65.2701V78.4396C65.2701 77.5718 65.9544 76.9376 66.889 76.9376C67.1518 76.9376 67.423 76.9877 67.4898 77.0044V76.003C67.3771 75.9947 67.1184 75.9863 66.9724 75.9863C66.2047 75.9863 65.5371 76.4202 65.3035 77.0544H65.2367V76.0865H64.2854V82.4951ZM73.1964 77.5217C72.8877 76.6122 72.1951 76.003 70.9267 76.003C69.5749 76.003 68.5735 76.7707 68.5735 77.8555C68.5735 78.74 69.0992 79.3325 70.2758 79.6079L71.3439 79.8582C71.9906 80.0084 72.2952 80.3172 72.2952 80.7594C72.2952 81.3102 71.7111 81.7608 70.7932 81.7608C69.9879 81.7608 69.4831 81.4145 69.3079 80.7261L68.3733 80.9597C68.6027 82.0487 69.4998 82.6286 70.8099 82.6286C72.2994 82.6286 73.3133 81.815 73.3133 80.7094C73.3133 79.8165 72.7542 79.2532 71.611 78.9737L70.6597 78.74C69.9003 78.5523 69.5582 78.2978 69.5582 77.8054C69.5582 77.2547 70.1423 76.8542 70.9267 76.8542C71.7862 76.8542 72.1409 77.3298 72.3119 77.7721L73.1964 77.5217ZM78.0833 82.4951H83.4739V81.5772H79.5018V81.5105L81.4211 79.4577C82.8898 77.8847 83.3237 77.1504 83.3237 76.2033C83.3237 74.8848 82.2556 73.8334 80.7535 73.8334C79.2557 73.8334 78.1166 74.8515 78.1166 76.3535H79.1013C79.1013 75.3813 79.7313 74.7346 80.7202 74.7346C81.6464 74.7346 82.3557 75.3021 82.3557 76.2033C82.3557 76.9918 81.8926 77.576 80.9037 78.6566L78.0833 81.7441V82.4951ZM85.197 82.4951H90.5877V81.5772H86.6156V81.5105L88.5349 79.4577C90.0035 77.8847 90.4375 77.1504 90.4375 76.2033C90.4375 74.8848 89.3693 73.8334 87.8673 73.8334C86.3695 73.8334 85.2304 74.8515 85.2304 76.3535H86.2151C86.2151 75.3813 86.8451 74.7346 87.8339 74.7346C88.7602 74.7346 89.4695 75.3021 89.4695 76.2033C89.4695 76.9918 89.0064 77.576 88.0175 78.6566L85.197 81.7441V82.4951Z" fill="#333333"/>
<circle cx="81.8491" cy="182.113" r="38.4109" fill="#FFF5D0"/>
<path d="M66.0754 183.912H74.398V181.894H69.4957V181.814L71.2001 180.144C73.6 177.955 74.2441 176.86 74.2441 175.532C74.2441 173.508 72.591 172.078 70.0885 172.078C67.6373 172.078 65.9557 173.543 65.9614 175.834H68.3043C68.2986 174.717 69.0054 174.033 70.0714 174.033C71.0975 174.033 71.8614 174.671 71.8614 175.697C71.8614 176.626 71.2913 177.265 70.231 178.285L66.0754 182.133V183.912ZM76.6483 183.912H79.1964L84.0417 174.284V172.237H75.8502V174.255H81.488V174.335L76.6483 183.912ZM92.1235 181.723C92.1292 183.125 93.0242 184.316 94.6944 184.316C96.3475 184.316 97.271 183.125 97.2653 181.723V181.107C97.271 179.693 96.3703 178.513 94.6944 178.513C93.047 178.513 92.1292 179.705 92.1235 181.107V181.723ZM86.1324 175.042C86.1381 176.444 87.033 177.624 88.6976 177.624C90.3564 177.624 91.2799 176.455 91.2742 175.042V174.426C91.2799 173.012 90.3792 171.832 88.6976 171.832C87.0672 171.832 86.1381 173.012 86.1324 174.426V175.042ZM86.691 183.912H88.1788L96.205 172.237H94.7172L86.691 183.912ZM93.7824 181.107C93.7881 180.548 94.0104 179.973 94.6944 179.973C95.4127 179.973 95.6008 180.548 95.5951 181.107V181.723C95.6008 182.281 95.3899 182.846 94.6944 182.846C93.999 182.846 93.7881 182.264 93.7824 181.723V181.107ZM87.8026 174.426C87.8083 173.885 88.0192 173.292 88.6976 173.292C89.4158 173.292 89.6096 173.867 89.6039 174.426V175.042C89.6096 175.6 89.393 176.165 88.6976 176.165C88.0249 176.165 87.8083 175.6 87.8026 175.042V174.426Z" fill="#333333"/>
<path d="M66.511 195.998L68.9975 195.985C70.4042 195.977 71.0979 195.256 71.1031 194.3C71.1081 193.37 70.4512 192.828 69.7975 192.798L69.7978 192.738C70.3984 192.594 70.8746 192.171 70.8786 191.425C70.8836 190.51 70.2273 189.835 68.8956 189.843L66.5441 189.856L66.511 195.998ZM67.6288 195.063L67.6385 193.263L68.8652 193.256C69.5521 193.252 69.9757 193.67 69.9728 194.219C69.9701 194.708 69.6324 195.052 68.8255 195.056L67.6288 195.063ZM67.6428 192.462L67.6519 190.767L68.7767 190.761C69.4306 190.758 69.7676 191.101 69.7651 191.575C69.7622 192.115 69.3224 192.453 68.7436 192.456L67.6428 192.462ZM74.0232 196.047C75.373 196.04 76.2359 195.084 76.2436 193.66C76.2513 192.232 75.3986 191.283 74.0489 191.29C72.6991 191.298 71.8362 192.256 71.8285 193.684C71.8208 195.109 72.6735 196.055 74.0232 196.047ZM74.0339 195.177C73.2871 195.181 72.9247 194.518 72.9293 193.675C72.9338 192.832 73.3034 192.155 74.0502 192.151C74.7851 192.147 75.1474 192.82 75.1428 193.663C75.1383 194.505 74.7688 195.173 74.0339 195.177ZM79.4782 191.32L78.5694 191.325L78.5753 190.222L77.4896 190.228L77.4836 191.331L76.8297 191.335L76.8252 192.175L77.4791 192.171L77.4653 194.733C77.4546 195.599 78.0822 196.022 78.8981 195.993C79.2071 195.983 79.4204 195.922 79.5376 195.882L79.3592 195.034C79.2991 195.049 79.176 195.077 79.041 195.078C78.7681 195.079 78.5497 194.985 78.552 194.547L78.5649 192.165L79.4737 192.16L79.4782 191.32ZM81.5607 193.216C81.5643 192.551 81.9803 192.164 82.5622 192.161C83.1321 192.158 83.4661 192.519 83.4627 193.14L83.4478 195.905L84.5336 195.899L84.5494 192.966C84.5554 191.853 83.9289 191.236 82.9721 191.241C82.2642 191.245 81.8126 191.568 81.5968 192.092L81.5428 192.092L81.5553 189.773L80.4935 189.779L80.4604 195.922L81.5462 195.916L81.5607 193.216Z" fill="#333333"/>
<circle cx="174.939" cy="139.635" r="54.679" fill="#FEDFDF"/>
<path d="M159.665 144.566C163.994 144.566 166.936 141.746 166.927 137.816C166.936 134.095 164.335 131.419 160.833 131.419C159.124 131.419 157.653 132.13 156.969 133.089H156.855L157.358 128.22H165.854V124.859H153.97L153.049 135.111L156.703 135.766C157.302 134.959 158.46 134.456 159.608 134.456C161.564 134.466 162.969 135.88 162.969 137.921C162.969 139.943 161.592 141.338 159.665 141.338C158.032 141.338 156.713 140.313 156.618 138.804H152.631C152.707 142.164 155.64 144.566 159.665 144.566ZM176.894 144.566C181.223 144.566 184.165 141.746 184.156 137.816C184.165 134.095 181.564 131.419 178.062 131.419C176.353 131.419 174.882 132.13 174.198 133.089H174.084L174.587 128.22H183.083V124.859H171.198L170.278 135.111L173.932 135.766C174.53 134.959 175.688 134.456 176.837 134.456C178.792 134.466 180.197 135.88 180.197 137.921C180.197 139.943 178.821 141.338 176.894 141.338C175.261 141.338 173.942 140.313 173.847 138.804H169.86C169.936 142.164 172.869 144.566 176.894 144.566ZM197.664 140.655C197.673 142.99 199.163 144.974 201.945 144.974C204.697 144.974 206.235 142.99 206.226 140.655V139.63C206.235 137.275 204.735 135.31 201.945 135.31C199.201 135.31 197.673 137.294 197.664 139.63V140.655ZM187.687 129.53C187.696 131.865 189.187 133.83 191.959 133.83C194.721 133.83 196.259 131.884 196.249 129.53V128.504C196.259 126.15 194.759 124.185 191.959 124.185C189.244 124.185 187.696 126.15 187.687 128.504V129.53ZM188.617 144.3H191.095L204.46 124.859H201.983L188.617 144.3ZM200.426 139.63C200.435 138.699 200.806 137.741 201.945 137.741C203.141 137.741 203.454 138.699 203.444 139.63V140.655C203.454 141.585 203.103 142.525 201.945 142.525C200.787 142.525 200.435 141.556 200.426 140.655V139.63ZM190.468 128.504C190.478 127.603 190.829 126.615 191.959 126.615C193.155 126.615 193.477 127.574 193.468 128.504V129.53C193.477 130.46 193.117 131.4 191.959 131.4C190.838 131.4 190.478 130.46 190.468 129.53V128.504Z" fill="#333333"/>
<path d="M155.543 158.006L156.6 158.001L157.809 153.843L157.856 153.843L159.017 157.987L160.075 157.982L161.776 152.057L160.624 152.063L159.534 156.419L159.482 156.419L158.365 152.075L157.316 152.081L156.155 156.435L156.1 156.435L155.057 152.094L153.905 152.1L155.543 158.006ZM163.952 158.047C164.986 158.041 165.699 157.532 165.888 156.76L164.913 156.655C164.769 157.031 164.421 157.23 163.971 157.232C163.295 157.236 162.85 156.794 162.845 156.034L165.936 156.017L165.937 155.696C165.946 154.139 165.014 153.46 163.922 153.466C162.651 153.473 161.817 154.411 161.809 155.78C161.802 157.172 162.615 158.054 163.952 158.047ZM162.852 155.329C162.886 154.763 163.308 154.284 163.932 154.281C164.533 154.277 164.935 154.714 164.937 155.318L162.852 155.329ZM166.856 157.944L167.884 157.939L167.888 157.24L167.949 157.239C168.112 157.562 168.453 158.013 169.215 158.009C170.261 158.004 171.048 157.17 171.056 155.709C171.064 154.23 170.263 153.431 169.237 153.437C168.454 153.441 168.126 153.914 167.965 154.235L167.922 154.236L167.934 152.023L166.888 152.029L166.856 157.944ZM167.893 155.72C167.898 154.86 168.271 154.3 168.944 154.296C169.64 154.293 169.995 154.883 169.99 155.709C169.986 156.541 169.619 157.149 168.928 157.153C168.261 157.157 167.889 156.581 167.893 155.72ZM175.457 154.633C175.317 153.883 174.719 153.407 173.679 153.412C172.61 153.418 171.88 153.948 171.878 154.768C171.872 155.415 172.268 155.841 173.119 156.012L173.875 156.167C174.282 156.254 174.472 156.418 174.47 156.669C174.469 156.972 174.138 157.202 173.641 157.205C173.162 157.208 172.851 157.002 172.764 156.603L171.743 156.707C171.869 157.521 172.551 158 173.64 157.994C174.749 157.988 175.535 157.408 175.542 156.568C175.543 155.935 175.138 155.551 174.301 155.373L173.545 155.216C173.095 155.117 172.917 154.962 172.921 154.705C172.92 154.404 173.253 154.195 173.689 154.192C174.172 154.19 174.424 154.451 174.504 154.742L175.457 154.633ZM176.397 157.892L177.443 157.886L177.467 153.449L176.421 153.455L176.397 157.892ZM176.95 152.823C177.283 152.821 177.555 152.565 177.557 152.253C177.559 151.938 177.289 151.686 176.957 151.687C176.621 151.689 176.349 151.945 176.347 152.26C176.345 152.572 176.615 152.824 176.95 152.823ZM180.758 153.431L179.882 153.436L179.888 152.373L178.843 152.379L178.837 153.442L178.207 153.445L178.203 154.254L178.832 154.251L178.819 156.717C178.809 157.552 179.413 157.959 180.199 157.932C180.497 157.921 180.702 157.862 180.815 157.824L180.643 157.008C180.585 157.023 180.467 157.049 180.337 157.05C180.074 157.051 179.863 156.96 179.866 156.538L179.878 154.245L180.753 154.24L180.758 153.431ZM183.524 157.939C184.558 157.934 185.272 157.424 185.461 156.652L184.485 156.548C184.341 156.924 183.994 157.122 183.543 157.125C182.867 157.128 182.422 156.686 182.417 155.926L185.508 155.909L185.51 155.589C185.518 154.032 184.586 153.353 183.494 153.359C182.223 153.366 181.389 154.303 181.382 155.672C181.374 157.064 182.187 157.947 183.524 157.939ZM182.424 155.222C182.459 154.655 182.88 154.176 183.504 154.173C184.105 154.17 184.507 154.607 184.509 155.21L182.424 155.222Z" fill="#333333"/>
<circle cx="138.788" cy="232.725" r="28.4692" fill="#D3CCFF"/>
<path d="M127.87 221.474H125.636L122.853 223.236V225.344L125.427 223.73H125.493V232.716H127.87V221.474ZM134.61 221.32C132.096 221.309 130.4 222.956 130.41 225.217C130.416 227.315 131.871 228.835 133.863 228.835C135.099 228.835 136.197 228.237 136.696 227.249H136.773C136.767 229.477 135.993 230.833 134.528 230.833C133.666 230.833 133.046 230.361 132.864 229.543H130.52C130.74 231.437 132.277 232.87 134.528 232.87C137.311 232.87 139.106 230.619 139.101 226.804C139.095 222.731 136.921 221.331 134.61 221.32ZM134.627 223.186C135.719 223.186 136.526 224.076 136.537 225.146C136.542 226.222 135.692 227.111 134.605 227.111C133.507 227.111 132.722 226.255 132.716 225.152C132.705 224.054 133.523 223.186 134.627 223.186ZM146.901 230.608C146.907 231.959 147.769 233.106 149.377 233.106C150.969 233.106 151.858 231.959 151.853 230.608V230.015C151.858 228.654 150.991 227.518 149.377 227.518C147.791 227.518 146.907 228.665 146.901 230.015V230.608ZM141.132 224.174C141.137 225.525 141.999 226.661 143.602 226.661C145.2 226.661 146.089 225.536 146.083 224.174V223.582C146.089 222.22 145.221 221.084 143.602 221.084C142.032 221.084 141.137 222.22 141.132 223.582V224.174ZM141.67 232.716H143.102L150.832 221.474H149.399L141.67 232.716ZM148.499 230.015C148.504 229.477 148.718 228.923 149.377 228.923C150.069 228.923 150.25 229.477 150.244 230.015V230.608C150.25 231.146 150.047 231.69 149.377 231.69C148.707 231.69 148.504 231.13 148.499 230.608V230.015ZM142.74 223.582C142.746 223.06 142.949 222.489 143.602 222.489C144.294 222.489 144.48 223.044 144.475 223.582V224.174C144.48 224.712 144.272 225.256 143.602 225.256C142.954 225.256 142.746 224.712 142.74 224.174V223.582Z" fill="#333333"/>
<path d="M126.539 243.392L127.035 241.931L129.259 241.919L129.743 243.375L130.886 243.369L128.833 237.464L127.51 237.472L125.395 243.399L126.539 243.392ZM127.329 241.069L128.142 238.681L128.188 238.681L128.975 241.06L127.329 241.069ZM131.61 245.028L132.656 245.023L132.669 242.66L132.712 242.659C132.875 242.982 133.216 243.434 133.979 243.43C135.024 243.424 135.812 242.59 135.82 241.129C135.828 239.65 135.026 238.851 134.001 238.857C133.218 238.861 132.889 239.334 132.728 239.655L132.668 239.656L132.672 238.922L131.643 238.928L131.61 245.028ZM132.657 241.141C132.661 240.28 133.034 239.72 133.707 239.717C134.403 239.713 134.758 240.303 134.754 241.129C134.749 241.961 134.382 242.569 133.692 242.573C133.024 242.577 132.652 242.001 132.657 241.141ZM136.694 245L137.74 244.995L137.752 242.632L137.796 242.632C137.959 242.954 138.3 243.406 139.063 243.402C140.108 243.396 140.895 242.563 140.903 241.101C140.911 239.622 140.11 238.824 139.084 238.829C138.302 238.833 137.973 239.306 137.812 239.628L137.751 239.628L137.755 238.894L136.727 238.9L136.694 245ZM137.74 241.113C137.745 240.252 138.118 239.692 138.791 239.689C139.487 239.685 139.842 240.275 139.837 241.101C139.833 241.933 139.466 242.542 138.775 242.545C138.108 242.549 137.736 241.973 137.74 241.113Z" fill="#333333"/>
</svg>
