<svg width="272" height="287" viewBox="0 0 272 287" fill="none" xmlns="http://www.w3.org/2000/svg">
<rect width="271.644" height="286.5" rx="8" fill="white"/>
<rect x="102.128" y="159.97" width="66.8801" height="100.32" fill="#D7F3E6"/>
<rect x="178.046" y="203.352" width="66.8801" height="56.9385" fill="#FFDEC0"/>
<rect x="25.3059" y="112.069" width="66.8801" height="148.221" fill="#D7E2FF"/>
<path d="M28.408 33.8695H26.3235V43.729H28.408V33.8695ZM32.1354 39.454C32.1402 38.5008 32.7083 37.9423 33.5364 37.9423C34.3596 37.9423 34.8554 38.4815 34.8506 39.3866V43.729H36.9015V39.0207C36.9015 37.2972 35.8905 36.2381 34.35 36.2381C33.2523 36.2381 32.458 36.7773 32.1258 37.639H32.0391V36.3344H30.0846V43.729H32.1354V39.454ZM43.7641 43.8686C44.8569 43.8686 45.5646 43.392 45.9257 42.7036H45.9835V43.729H47.9284V38.7415C47.9284 36.9795 46.436 36.2381 44.7895 36.2381C43.0179 36.2381 41.8529 37.0854 41.5688 38.4334L43.4656 38.5874C43.6052 38.0964 44.0433 37.7353 44.7799 37.7353C45.478 37.7353 45.8776 38.0868 45.8776 38.6934V38.7222C45.8776 39.1988 45.3721 39.2614 44.0867 39.3866C42.6232 39.5214 41.3089 40.0124 41.3089 41.6637C41.3089 43.1272 42.3536 43.8686 43.7641 43.8686ZM44.3514 42.4532C43.7208 42.4532 43.2683 42.1596 43.2683 41.5963C43.2683 41.0186 43.7449 40.7346 44.467 40.6335C44.9147 40.5709 45.6465 40.465 45.892 40.3013V41.086C45.892 41.8611 45.2517 42.4532 44.3514 42.4532ZM57.3991 40.5805C57.4039 41.5722 56.7251 42.0922 55.9886 42.0922C55.2135 42.0922 54.7128 41.5482 54.708 40.6768V36.3344H52.6571V41.0427C52.662 42.771 53.6729 43.8253 55.1605 43.8253C56.2726 43.8253 57.0718 43.2524 57.4039 42.3858H57.481V43.729H59.45V36.3344H57.3991V40.5805ZM67.243 38.443C67.06 37.0806 65.9624 36.2381 64.0945 36.2381C62.2025 36.2381 60.9556 37.1143 60.9604 38.5393C60.9556 39.6466 61.6537 40.3639 63.0979 40.6527L64.3785 40.9079C65.0236 41.0379 65.3173 41.2738 65.3269 41.6445C65.3173 42.0825 64.8407 42.3955 64.1234 42.3955C63.3916 42.3955 62.9054 42.0825 62.7802 41.4808L60.7631 41.5867C60.9556 43.0021 62.1592 43.8734 64.1185 43.8734C66.0346 43.8734 67.4066 42.8961 67.4115 41.4374C67.4066 40.3687 66.7086 39.7284 65.274 39.4347L63.9356 39.1651C63.2472 39.0159 62.992 38.78 62.9968 38.4238C62.992 37.9809 63.4927 37.692 64.1282 37.692C64.8407 37.692 65.2643 38.0819 65.3654 38.5586L67.243 38.443ZM73.4449 40.5805C73.4497 41.5722 72.7709 42.0922 72.0343 42.0922C71.2592 42.0922 70.7585 41.5482 70.7537 40.6768V36.3344H68.7029V41.0427C68.7077 42.771 69.7187 43.8253 71.2063 43.8253C72.3183 43.8253 73.1175 43.2524 73.4497 42.3858H73.5267V43.729H75.4957V36.3344H73.4449V40.5805ZM79.2448 43.8686C80.3376 43.8686 81.0453 43.392 81.4063 42.7036H81.4641V43.729H83.409V38.7415C83.409 36.9795 81.9166 36.2381 80.2702 36.2381C78.4986 36.2381 77.3335 37.0854 77.0495 38.4334L78.9463 38.5874C79.0859 38.0964 79.524 37.7353 80.2606 37.7353C80.9586 37.7353 81.3582 38.0868 81.3582 38.6934V38.7222C81.3582 39.1988 80.8527 39.2614 79.5673 39.3866C78.1038 39.5214 76.7895 40.0124 76.7895 41.6637C76.7895 43.1272 77.8342 43.8686 79.2448 43.8686ZM79.8321 42.4532C79.2014 42.4532 78.7489 42.1596 78.7489 41.5963C78.7489 41.0186 79.2255 40.7346 79.9476 40.6335C80.3954 40.5709 81.1271 40.465 81.3726 40.3013V41.086C81.3726 41.8611 80.7323 42.4532 79.8321 42.4532ZM87.051 33.8695H85.0001V43.729H87.051V33.8695ZM93.0976 46.502C94.6237 46.502 95.4325 45.7221 95.8513 44.5282L98.7254 36.344L96.5542 36.3344L95.0089 41.7648H94.9318L93.4009 36.3344H91.2442L93.8968 43.9408L93.7764 44.2538C93.5068 44.947 92.9917 44.9807 92.2696 44.7592L91.8074 46.2902C92.1011 46.4153 92.5777 46.502 93.0976 46.502ZM102.893 43.8734C104.723 43.8734 105.955 42.9828 106.244 41.6108L104.347 41.4856C104.14 42.0488 103.611 42.3425 102.927 42.3425C101.902 42.3425 101.252 41.6637 101.252 40.5613V40.5564H106.287V39.9932C106.287 37.4802 104.766 36.2381 102.811 36.2381C100.635 36.2381 99.2249 37.7835 99.2249 40.0654C99.2249 42.4099 100.616 43.8734 102.893 43.8734ZM101.252 39.2855C101.295 38.443 101.935 37.769 102.845 37.769C103.736 37.769 104.352 38.4045 104.357 39.2855H101.252ZM109.734 43.8686C110.827 43.8686 111.535 43.392 111.896 42.7036H111.954V43.729H113.899V38.7415C113.899 36.9795 112.406 36.2381 110.76 36.2381C108.988 36.2381 107.823 37.0854 107.539 38.4334L109.436 38.5874C109.575 38.0964 110.014 37.7353 110.75 37.7353C111.448 37.7353 111.848 38.0868 111.848 38.6934V38.7222C111.848 39.1988 111.342 39.2614 110.057 39.3866C108.593 39.5214 107.279 40.0124 107.279 41.6637C107.279 43.1272 108.324 43.8686 109.734 43.8686ZM110.322 42.4532C109.691 42.4532 109.238 42.1596 109.238 41.5963C109.238 41.0186 109.715 40.7346 110.437 40.6335C110.885 40.5709 111.617 40.465 111.862 40.3013V41.086C111.862 41.8611 111.222 42.4532 110.322 42.4532ZM115.49 43.729H117.541V39.5455C117.541 38.6356 118.205 38.0097 119.11 38.0097C119.394 38.0097 119.784 38.0579 119.976 38.1205V36.3007C119.794 36.2574 119.538 36.2285 119.331 36.2285C118.503 36.2285 117.825 36.7099 117.555 37.6246H117.478V36.3344H115.49V43.729ZM122.418 42.381H120.724L120.7 42.9202C120.642 44.2297 120.267 45.5728 120.127 46.1361H121.456C121.687 45.5536 122.236 44.1864 122.366 42.9106L122.418 42.381ZM129.019 39.454C129.024 38.5008 129.606 37.9423 130.444 37.9423C131.277 37.9423 131.768 38.4767 131.763 39.3866V43.729H133.814V39.0207C133.819 37.2876 132.798 36.2381 131.257 36.2381C130.136 36.2381 129.385 36.7677 129.048 37.639H128.961V33.8695H126.968V43.729H129.019V39.454ZM138.769 43.8734C141.012 43.8734 142.408 42.3377 142.408 40.0606C142.408 37.769 141.012 36.2381 138.769 36.2381C136.525 36.2381 135.129 37.769 135.129 40.0606C135.129 42.3377 136.525 43.8734 138.769 43.8734ZM138.778 42.2847C137.743 42.2847 137.214 41.3363 137.214 40.0461C137.214 38.7559 137.743 37.8027 138.778 37.8027C139.794 37.8027 140.324 38.7559 140.324 40.0461C140.324 41.3363 139.794 42.2847 138.778 42.2847ZM143.742 43.729H145.793V39.2903C145.793 38.4719 146.313 37.9279 146.996 37.9279C147.67 37.9279 148.123 38.3901 148.123 39.117V43.729H150.111V39.2133C150.111 38.4478 150.549 37.9279 151.295 37.9279C151.95 37.9279 152.441 38.3371 152.441 39.1603V43.729H154.487V38.7559C154.487 37.1528 153.534 36.2381 152.157 36.2381C151.074 36.2381 150.231 36.7917 149.928 37.639H149.851C149.615 36.7821 148.859 36.2381 147.843 36.2381C146.847 36.2381 146.091 36.7677 145.783 37.639H145.696V36.3344H143.742V43.729ZM159.245 43.729H161.296V39.2903C161.296 38.4719 161.815 37.9279 162.499 37.9279C163.173 37.9279 163.626 38.3901 163.626 39.117V43.729H165.614V39.2133C165.614 38.4478 166.052 37.9279 166.798 37.9279C167.453 37.9279 167.944 38.3371 167.944 39.1603V43.729H169.99V38.7559C169.99 37.1528 169.037 36.2381 167.66 36.2381C166.577 36.2381 165.734 36.7917 165.431 37.639H165.354C165.118 36.7821 164.362 36.2381 163.346 36.2381C162.35 36.2381 161.594 36.7677 161.286 37.639H161.199V36.3344H159.245V43.729ZM173.719 43.8686C174.811 43.8686 175.519 43.392 175.88 42.7036H175.938V43.729H177.883V38.7415C177.883 36.9795 176.39 36.2381 174.744 36.2381C172.972 36.2381 171.807 37.0854 171.523 38.4334L173.42 38.5874C173.56 38.0964 173.998 37.7353 174.734 37.7353C175.432 37.7353 175.832 38.0868 175.832 38.6934V38.7222C175.832 39.1988 175.327 39.2614 174.041 39.3866C172.578 39.5214 171.263 40.0124 171.263 41.6637C171.263 43.1272 172.308 43.8686 173.719 43.8686ZM174.306 42.4532C173.675 42.4532 173.223 42.1596 173.223 41.5963C173.223 41.0186 173.699 40.7346 174.421 40.6335C174.869 40.5709 175.601 40.465 175.846 40.3013V41.086C175.846 41.8611 175.206 42.4532 174.306 42.4532ZM181.525 39.454C181.53 38.5008 182.098 37.9423 182.926 37.9423C183.749 37.9423 184.245 38.4815 184.24 39.3866V43.729H186.291V39.0207C186.291 37.2972 185.28 36.2381 183.739 36.2381C182.642 36.2381 181.847 36.7773 181.515 37.639H181.429V36.3344H179.474V43.729H181.525V39.454ZM188.909 46.502C190.435 46.502 191.243 45.7221 191.662 44.5282L194.536 36.344L192.365 36.3344L190.82 41.7648H190.743L189.212 36.3344H187.055L189.708 43.9408L189.587 44.2538C189.318 44.947 188.803 44.9807 188.081 44.7592L187.618 46.2902C187.912 46.4153 188.389 46.502 188.909 46.502ZM202.657 36.3344H201.265V34.5628H199.215V36.3344H198.204V37.8749H199.215V41.7263C199.205 43.1754 200.192 43.8927 201.679 43.8301C202.209 43.8108 202.585 43.7049 202.792 43.6375L202.469 42.1114C202.368 42.1307 202.151 42.1788 201.959 42.1788C201.549 42.1788 201.265 42.0248 201.265 41.4567V37.8749H202.657V36.3344ZM203.993 43.729H206.044V36.3344H203.993V43.729ZM205.023 35.3812C205.634 35.3812 206.135 34.9142 206.135 34.3413C206.135 33.7732 205.634 33.3063 205.023 33.3063C204.416 33.3063 203.916 33.7732 203.916 34.3413C203.916 34.9142 204.416 35.3812 205.023 35.3812ZM207.686 43.729H209.737V39.2903C209.737 38.4719 210.257 37.9279 210.941 37.9279C211.615 37.9279 212.067 38.3901 212.067 39.117V43.729H214.056V39.2133C214.056 38.4478 214.494 37.9279 215.24 37.9279C215.895 37.9279 216.386 38.3371 216.386 39.1603V43.729H218.432V38.7559C218.432 37.1528 217.478 36.2381 216.102 36.2381C215.018 36.2381 214.176 36.7917 213.873 37.639H213.796C213.56 36.7821 212.804 36.2381 211.788 36.2381C210.792 36.2381 210.036 36.7677 209.728 37.639H209.641V36.3344H207.686V43.729ZM223.422 43.8734C225.251 43.8734 226.483 42.9828 226.772 41.6108L224.875 41.4856C224.668 42.0488 224.139 42.3425 223.455 42.3425C222.43 42.3425 221.78 41.6637 221.78 40.5613V40.5564H226.816V39.9932C226.816 37.4802 225.294 36.2381 223.34 36.2381C221.164 36.2381 219.753 37.7835 219.753 40.0654C219.753 42.4099 221.144 43.8734 223.422 43.8734ZM221.78 39.2855C221.823 38.443 222.464 37.769 223.373 37.769C224.264 37.769 224.88 38.4045 224.885 39.2855H221.78ZM234.306 38.443C234.124 37.0806 233.026 36.2381 231.158 36.2381C229.266 36.2381 228.019 37.1143 228.024 38.5393C228.019 39.6466 228.717 40.3639 230.161 40.6527L231.442 40.9079C232.087 41.0379 232.381 41.2738 232.39 41.6445C232.381 42.0825 231.904 42.3955 231.187 42.3955C230.455 42.3955 229.969 42.0825 229.844 41.4808L227.827 41.5867C228.019 43.0021 229.223 43.8734 231.182 43.8734C233.098 43.8734 234.47 42.8961 234.475 41.4374C234.47 40.3687 233.772 39.7284 232.337 39.4347L230.999 39.1651C230.311 39.0159 230.056 38.78 230.06 38.4238C230.056 37.9809 230.556 37.692 231.192 37.692C231.904 37.692 232.328 38.0819 232.429 38.5586L234.306 38.443ZM29.0098 59.8494C30.2037 59.8494 30.8248 59.1609 31.1088 58.5447H31.1954V59.729H33.2174V49.8695H31.1714V53.5765H31.1088C30.8344 52.9747 30.2422 52.2381 29.005 52.2381C27.3826 52.2381 26.0106 53.4994 26.0106 56.0413C26.0106 58.5158 27.3248 59.8494 29.0098 59.8494ZM29.6597 58.2173C28.6536 58.2173 28.1047 57.3219 28.1047 56.0317C28.1047 54.7511 28.6439 53.8701 29.6597 53.8701C30.6563 53.8701 31.2147 54.7126 31.2147 56.0317C31.2147 57.3508 30.6466 58.2173 29.6597 58.2173ZM38.2446 59.8734C40.4881 59.8734 41.8842 58.3377 41.8842 56.0606C41.8842 53.769 40.4881 52.2381 38.2446 52.2381C36.0012 52.2381 34.6051 53.769 34.6051 56.0606C34.6051 58.3377 36.0012 59.8734 38.2446 59.8734ZM38.2543 58.2847C37.2192 58.2847 36.6897 57.3363 36.6897 56.0461C36.6897 54.7559 37.2192 53.8027 38.2543 53.8027C39.2701 53.8027 39.7996 54.7559 39.7996 56.0461C39.7996 57.3363 39.2701 58.2847 38.2543 58.2847ZM47.6215 62.502C49.1476 62.502 49.9564 61.7221 50.3752 60.5282L53.2493 52.344L51.0781 52.3344L49.5327 57.7648H49.4557L47.9248 52.3344H45.768L48.4207 59.9408L48.3003 60.2538C48.0307 60.947 47.5156 60.9807 46.7935 60.7592L46.3313 62.2902C46.625 62.4153 47.1016 62.502 47.6215 62.502ZM57.3883 59.8734C59.6317 59.8734 61.0278 58.3377 61.0278 56.0606C61.0278 53.769 59.6317 52.2381 57.3883 52.2381C55.1449 52.2381 53.7488 53.769 53.7488 56.0606C53.7488 58.3377 55.1449 59.8734 57.3883 59.8734ZM57.3979 58.2847C56.3629 58.2847 55.8333 57.3363 55.8333 56.0461C55.8333 54.7559 56.3629 53.8027 57.3979 53.8027C58.4137 53.8027 58.9433 54.7559 58.9433 56.0461C58.9433 57.3363 58.4137 58.2847 57.3979 58.2847ZM67.1034 56.5805C67.1082 57.5722 66.4294 58.0922 65.6928 58.0922C64.9177 58.0922 64.417 57.5482 64.4122 56.6768V52.3344H62.3614V57.0427C62.3662 58.771 63.3772 59.8253 64.8648 59.8253C65.9768 59.8253 66.776 59.2524 67.1082 58.3858H67.1852V59.729H69.1542V52.3344H67.1034V56.5805ZM77.9088 52.3344H76.4405V51.8385C76.4405 51.3379 76.6427 51.0442 77.2445 51.0442C77.49 51.0442 77.7403 51.0971 77.904 51.1501L78.2651 49.6096C78.0099 49.5325 77.4467 49.4074 76.816 49.4074C75.4247 49.4074 74.3896 50.1921 74.3896 51.8V52.3344H73.345V53.8749H74.3896V59.729H76.4405V53.8749H77.9088V52.3344ZM81.2126 49.8695H79.1617V59.729H81.2126V49.8695ZM84.1215 62.502C85.6476 62.502 86.4564 61.7221 86.8753 60.5282L89.7493 52.344L87.5781 52.3344L86.0328 57.7648H85.9558L84.4248 52.3344H82.2681L84.9207 59.9408L84.8003 60.2538C84.5307 60.947 84.0156 60.9807 83.2935 60.7592L82.8313 62.2902C83.125 62.4153 83.6016 62.502 84.1215 62.502ZM92.5608 56.7731H94.3854V56.6094C94.395 55.6706 94.732 55.2325 95.4927 54.7752C96.3929 54.2408 96.9803 53.5331 96.9803 52.4018C96.9803 50.7168 95.6227 49.7347 93.7114 49.7347C91.9639 49.7347 90.5389 50.6494 90.4955 52.5751H92.4597C92.4886 51.7904 93.0711 51.3716 93.7018 51.3716C94.3517 51.3716 94.8765 51.8048 94.8765 52.474C94.8765 53.1047 94.4191 53.5235 93.827 53.899C93.0182 54.4093 92.5656 54.9244 92.5608 56.6094V56.7731ZM93.5092 59.8542C94.1254 59.8542 94.6598 59.3391 94.6646 58.6988C94.6598 58.0681 94.1254 57.553 93.5092 57.553C92.8738 57.553 92.349 58.0681 92.3538 58.6988C92.349 59.3391 92.8738 59.8542 93.5092 59.8542Z" fill="#1A222B"/>
<path d="M26.6911 82.4951L27.5506 80.0752H31.0053L31.8648 82.4951H32.9496L29.812 73.9502H28.7439L25.6063 82.4951H26.6911ZM27.876 79.1573L29.2446 75.3021H29.3113L30.6798 79.1573H27.876ZM35.1317 78.6399C35.1317 77.5217 35.8243 76.8875 36.7672 76.8875C37.681 76.8875 38.2359 77.4842 38.2359 78.4897V82.4951H39.2205V78.4229C39.2205 76.7874 38.3485 76.003 37.0509 76.003C36.083 76.003 35.4822 76.4369 35.1818 77.0878H35.0983V76.0865H34.147V82.4951H35.1317V78.6399ZM45.5593 77.5217C45.2506 76.6122 44.558 76.003 43.2896 76.003C41.9378 76.003 40.9364 76.7707 40.9364 77.8555C40.9364 78.74 41.4621 79.3325 42.6387 79.6079L43.7068 79.8582C44.3535 80.0084 44.6581 80.3172 44.6581 80.7594C44.6581 81.3102 44.074 81.7608 43.1561 81.7608C42.3508 81.7608 41.846 81.4145 41.6707 80.7261L40.7361 80.9597C40.9656 82.0487 41.8627 82.6286 43.1728 82.6286C44.6623 82.6286 45.6761 81.815 45.6761 80.7094C45.6761 79.8165 45.1171 79.2532 43.9738 78.9737L43.0226 78.74C42.2632 78.5523 41.9211 78.2978 41.9211 77.8054C41.9211 77.2547 42.5052 76.8542 43.2896 76.8542C44.1491 76.8542 44.5037 77.3298 44.6748 77.7721L45.5593 77.5217ZM48.6103 82.4951H49.5783L50.9802 77.5718H51.0803L52.4822 82.4951H53.4502L55.4028 76.0865H54.3681L52.9829 80.9764H52.9161L51.5643 76.0865H50.5129L49.1444 80.9931H49.0776L47.6924 76.0865H46.6577L48.6103 82.4951ZM59.1736 82.6286C60.4753 82.6286 61.4266 81.9778 61.727 81.0098L60.7757 80.7427C60.5254 81.4103 59.9454 81.7441 59.1736 81.7441C58.0178 81.7441 57.2209 80.9973 57.175 79.6246H61.8271V79.2073C61.8271 76.8208 60.4086 76.003 59.0734 76.003C57.3377 76.003 56.1862 77.3715 56.1862 79.3409C56.1862 81.3102 57.321 82.6286 59.1736 82.6286ZM57.175 78.7734C57.2418 77.7762 57.9469 76.8875 59.0734 76.8875C60.1415 76.8875 60.8258 77.6886 60.8258 78.7734H57.175ZM63.325 82.4951H64.3097V78.4396C64.3097 77.5718 64.9939 76.9376 65.9285 76.9376C66.1914 76.9376 66.4626 76.9877 66.5293 77.0044V76.003C66.4167 75.9947 66.158 75.9863 66.012 75.9863C65.2443 75.9863 64.5767 76.4202 64.343 77.0544H64.2763V76.0865H63.325V82.4951ZM72.236 77.5217C71.9272 76.6122 71.2346 76.003 69.9663 76.003C68.6144 76.003 67.6131 76.7707 67.6131 77.8555C67.6131 78.74 68.1388 79.3325 69.3154 79.6079L70.3835 79.8582C71.0302 80.0084 71.3348 80.3172 71.3348 80.7594C71.3348 81.3102 70.7507 81.7608 69.8327 81.7608C69.0275 81.7608 68.5226 81.4145 68.3474 80.7261L67.4128 80.9597C67.6423 82.0487 68.5393 82.6286 69.8494 82.6286C71.339 82.6286 72.3528 81.815 72.3528 80.7094C72.3528 79.8165 71.7937 79.2532 70.6505 78.9737L69.6992 78.74C68.9399 78.5523 68.5977 78.2978 68.5977 77.8054C68.5977 77.2547 69.1819 76.8542 69.9663 76.8542C70.8258 76.8542 71.1804 77.3298 71.3515 77.7721L72.236 77.5217ZM77.1228 82.4951H82.5134V81.5772H78.5414V81.5105L80.4607 79.4577C81.9293 77.8847 82.3632 77.1504 82.3632 76.2033C82.3632 74.8848 81.2951 73.8334 79.7931 73.8334C78.2952 73.8334 77.1562 74.8515 77.1562 76.3535H78.1409C78.1409 75.3813 78.7709 74.7346 79.7597 74.7346C80.686 74.7346 81.3953 75.3021 81.3953 76.2033C81.3953 76.9918 80.9321 77.576 79.9433 78.6566L77.1228 81.7441V82.4951ZM84.2366 82.4951H89.6272V81.5772H85.6552V81.5105L87.5744 79.4577C89.0431 77.8847 89.477 77.1504 89.477 76.2033C89.477 74.8848 88.4089 73.8334 86.9069 73.8334C85.409 73.8334 84.27 74.8515 84.27 76.3535H85.2546C85.2546 75.3813 85.8846 74.7346 86.8735 74.7346C87.7997 74.7346 88.509 75.3021 88.509 76.2033C88.509 76.9918 88.0459 77.576 87.0571 78.6566L84.2366 81.7441V82.4951Z" fill="#333333"/>
<path d="M34.1159 238.942L33.2096 238.947L31.8981 239.793L31.8933 240.666L33.1275 239.874L33.1583 239.874L33.1344 244.205L34.087 244.2L34.1159 238.942ZM38.2008 241.167L35.8336 241.179L35.8294 241.944L38.1966 241.932L38.2008 241.167ZM41.3504 244.233C42.475 244.227 43.2976 243.578 43.2999 242.69C43.3061 242.033 42.8979 241.562 42.1616 241.461L42.1618 241.42C42.7325 241.294 43.1174 240.868 43.1181 240.277C43.125 239.476 42.4457 238.825 41.3955 238.831C40.3737 238.836 39.5795 239.449 39.5541 240.33L40.4707 240.325C40.4886 239.883 40.9009 239.606 41.3862 239.604C41.8766 239.601 42.201 239.897 42.196 240.339C42.196 240.798 41.8144 241.106 41.27 241.109L40.8053 241.111L40.8013 241.846L41.266 241.843C41.931 241.84 42.3246 242.171 42.3194 242.646C42.3194 243.111 41.9145 243.432 41.3522 243.435C40.8233 243.437 40.4166 243.165 40.3959 242.736L39.4305 242.741C39.4512 243.63 40.2412 244.239 41.3504 244.233ZM48.6909 240.178L47.9129 240.182L47.9181 239.237L46.9887 239.242L46.9835 240.187L46.4238 240.19L46.4198 240.909L46.9795 240.906L46.9674 243.099C46.9582 243.841 47.4954 244.203 48.1939 244.178C48.4584 244.169 48.641 244.117 48.7413 244.083L48.5887 243.357C48.5372 243.37 48.4318 243.394 48.3163 243.395C48.0827 243.396 47.8957 243.315 47.8977 242.94L47.909 240.901L48.6869 240.897L48.6909 240.178ZM49.808 244.116L50.7375 244.111L50.7592 240.167L49.8297 240.172L49.808 244.116ZM50.3001 239.61C50.5954 239.608 50.8379 239.381 50.8395 239.104C50.841 238.824 50.6009 238.599 50.3056 238.601C50.0078 238.602 49.7652 238.83 49.7637 239.109C49.7621 239.387 50.0023 239.611 50.3001 239.61ZM52.0547 244.104L52.9842 244.099L52.9974 241.701C53 241.215 53.3254 240.885 53.7259 240.883C54.1187 240.881 54.3869 241.144 54.3846 241.549L54.3706 244.091L55.2821 244.086L55.2957 241.627C55.2981 241.182 55.5643 240.873 56.0136 240.87C56.3884 240.868 56.6851 241.088 56.6824 241.575L56.6686 244.079L57.6006 244.074L57.6152 241.427C57.62 240.546 57.1142 240.081 56.3902 240.085C55.8176 240.088 55.3796 240.373 55.2026 240.813L55.1615 240.813C55.0125 240.367 54.6314 240.095 54.0999 240.098C53.571 240.101 53.1741 240.375 53.0073 240.825L52.9611 240.825L52.9648 240.155L52.0764 240.16L52.0547 244.104ZM60.6505 244.134C61.5697 244.129 62.2038 243.677 62.3719 242.99L61.5046 242.897C61.377 243.232 61.0679 243.408 60.6674 243.41C60.0666 243.414 59.6708 243.02 59.6668 242.345L62.414 242.33L62.4156 242.045C62.4232 240.661 61.5947 240.057 60.6242 240.063C59.4945 240.069 58.753 240.902 58.7463 242.119C58.7395 243.356 59.4618 244.141 60.6505 244.134ZM59.6728 241.719C59.7038 241.215 60.0784 240.79 60.633 240.787C61.1671 240.784 61.5244 241.172 61.5266 241.709L59.6728 241.719ZM66.6854 241.124C66.5607 240.457 66.029 240.034 65.1046 240.038C64.1547 240.044 63.5051 240.514 63.5036 241.244C63.4979 241.819 63.8501 242.197 64.6067 242.349L65.2786 242.487C65.6402 242.565 65.8088 242.71 65.8076 242.933C65.8061 243.203 65.5123 243.407 65.0707 243.41C64.6445 243.412 64.3682 243.229 64.2906 242.875L63.3837 242.967C63.4953 243.69 64.1014 244.116 65.0694 244.111C66.0553 244.105 66.7539 243.591 66.7606 242.844C66.7611 242.281 66.401 241.939 65.6573 241.781L64.9854 241.641C64.5854 241.554 64.427 241.416 64.4308 241.187C64.4297 240.92 64.726 240.734 65.1137 240.732C65.5424 240.729 65.7671 240.962 65.8376 241.221L66.6854 241.124ZM70.6065 245.483C71.3306 245.479 71.7511 245.104 71.978 244.474L73.5864 240.049L72.5928 240.05L71.665 243.033L71.6239 243.033L70.7314 240.06L69.7454 240.065L71.1534 244.083L71.0726 244.297C70.8981 244.747 70.6258 244.779 70.2208 244.663L70.0011 245.388C70.1267 245.439 70.3523 245.484 70.6065 245.483ZM76.1827 244.051C77.1019 244.046 77.736 243.593 77.9041 242.907L77.0368 242.814C76.9091 243.148 76.6001 243.325 76.1995 243.327C75.5987 243.33 75.2029 242.937 75.199 242.262L77.9462 242.247L77.9478 241.962C77.9554 240.578 77.1269 239.974 76.1563 239.979C75.0266 239.985 74.2852 240.818 74.2785 242.035C74.2717 243.273 74.9939 244.057 76.1827 244.051ZM75.205 241.635C75.236 241.132 75.6106 240.706 76.1652 240.703C76.6992 240.7 77.0566 241.088 77.0587 241.625L75.205 241.635ZM80.219 244.032C80.8378 244.028 81.2091 243.736 81.3804 243.404L81.4112 243.404L81.4082 243.946L82.3017 243.941L82.3162 241.302C82.322 240.259 81.4738 239.95 80.7215 239.954C79.8922 239.959 79.2535 240.332 79.0441 241.052L79.9112 241.171C80.0052 240.901 80.2683 240.668 80.7228 240.666C81.1541 240.663 81.3891 240.883 81.387 241.271L81.3869 241.286C81.3854 241.553 81.1055 241.567 80.4093 241.646C79.6437 241.732 78.9107 241.964 78.9058 242.853C78.9015 243.628 79.4667 244.036 80.219 244.032ZM80.4641 243.347C80.0764 243.35 79.8001 243.174 79.802 242.832C79.8039 242.476 80.1154 242.325 80.5317 242.264C80.7758 242.229 81.264 242.165 81.3852 242.066L81.3826 242.531C81.3802 242.97 81.0238 243.344 80.4641 243.347ZM83.5978 243.934L84.5272 243.929L84.54 241.61C84.5428 241.11 84.9221 240.753 85.4331 240.751C85.5897 240.75 85.7847 240.777 85.8641 240.802L85.8688 239.947C85.7842 239.932 85.6379 239.923 85.5352 239.923C85.0833 239.926 84.7045 240.185 84.5582 240.642L84.5171 240.643L84.5207 239.985L83.6195 239.99L83.5978 243.934Z" fill="#333333"/>
<path d="M109.756 244.278C110.881 244.272 111.703 243.623 111.706 242.735C111.712 242.077 111.304 241.607 110.567 241.506L110.567 241.465C111.138 241.339 111.523 240.913 111.524 240.322C111.531 239.521 110.851 238.87 109.801 238.876C108.779 238.881 107.985 239.494 107.96 240.375L108.876 240.37C108.894 239.928 109.306 239.651 109.792 239.649C110.282 239.646 110.607 239.942 110.602 240.384C110.602 240.843 110.22 241.151 109.676 241.154L109.211 241.156L109.207 241.891L109.672 241.888C110.337 241.885 110.73 242.216 110.725 242.691C110.725 243.156 110.32 243.477 109.758 243.48C109.229 243.482 108.822 243.21 108.802 242.781L107.836 242.787C107.857 243.675 108.647 244.284 109.756 244.278ZM115.358 241.164L112.99 241.177L112.986 241.942L115.353 241.929L115.358 241.164ZM118.595 244.23C119.73 244.232 120.497 243.447 120.5 242.407C120.508 241.414 119.803 240.698 118.881 240.703C118.317 240.707 117.817 240.984 117.563 241.437L117.527 241.437C117.536 240.331 117.945 239.656 118.674 239.652C119.126 239.649 119.43 239.91 119.525 240.312L120.463 240.307C120.354 239.458 119.672 238.822 118.679 238.828C117.415 238.835 116.611 239.892 116.601 241.689C116.588 243.617 117.586 244.23 118.595 244.23ZM118.594 243.46C118.032 243.463 117.624 243 117.624 242.451C117.632 241.899 118.061 241.434 118.618 241.431C119.175 241.428 119.581 241.868 119.575 242.433C119.575 243.008 119.151 243.457 118.594 243.46ZM125.876 240.175L125.098 240.179L125.103 239.235L124.173 239.24L124.168 240.184L123.609 240.187L123.605 240.906L124.164 240.903L124.152 243.096C124.143 243.838 124.68 244.2 125.379 244.175C125.643 244.166 125.826 244.114 125.926 244.08L125.774 243.354C125.722 243.367 125.617 243.391 125.501 243.392C125.268 243.393 125.081 243.312 125.083 242.937L125.094 240.898L125.872 240.894L125.876 240.175ZM126.993 244.113L127.922 244.108L127.944 240.164L127.015 240.169L126.993 244.113ZM127.485 239.607C127.78 239.605 128.023 239.378 128.024 239.101C128.026 238.821 127.786 238.596 127.49 238.598C127.193 238.599 126.95 238.827 126.948 239.106C126.947 239.384 127.187 239.608 127.485 239.607ZM129.24 244.101L130.169 244.095L130.182 241.697C130.185 241.212 130.51 240.882 130.911 240.88C131.304 240.877 131.572 241.14 131.57 241.546L131.556 244.088L132.467 244.083L132.481 241.623C132.483 241.179 132.749 240.87 133.198 240.867C133.573 240.865 133.87 241.084 133.867 241.572L133.854 244.075L134.786 244.07L134.8 241.423C134.805 240.543 134.299 240.078 133.575 240.082C133.002 240.085 132.564 240.37 132.387 240.81L132.346 240.81C132.197 240.364 131.816 240.092 131.285 240.094C130.756 240.097 130.359 240.372 130.192 240.822L130.146 240.822L130.15 240.152L129.261 240.157L129.24 244.101ZM137.836 244.131C138.755 244.126 139.389 243.673 139.557 242.987L138.69 242.894C138.562 243.228 138.253 243.405 137.852 243.407C137.252 243.41 136.856 243.017 136.852 242.342L139.599 242.327L139.601 242.042C139.608 240.658 138.78 240.054 137.809 240.059C136.679 240.065 135.938 240.899 135.931 242.116C135.925 243.353 136.647 244.137 137.836 244.131ZM136.858 241.715C136.889 241.212 137.263 240.786 137.818 240.783C138.352 240.78 138.709 241.168 138.711 241.705L136.858 241.715ZM143.87 241.12C143.746 240.453 143.214 240.03 142.29 240.035C141.34 240.04 140.69 240.511 140.689 241.24C140.683 241.815 141.035 242.193 141.792 242.346L142.464 242.483C142.825 242.561 142.994 242.706 142.993 242.93C142.991 243.199 142.697 243.404 142.256 243.406C141.829 243.408 141.553 243.225 141.476 242.871L140.569 242.963C140.68 243.687 141.286 244.112 142.254 244.107C143.24 244.102 143.939 243.587 143.946 242.84C143.946 242.277 143.586 241.935 142.842 241.778L142.17 241.638C141.77 241.55 141.612 241.412 141.616 241.184C141.615 240.917 141.911 240.73 142.299 240.728C142.727 240.726 142.952 240.958 143.022 241.217L143.87 241.12ZM147.792 245.479C148.516 245.475 148.936 245.1 149.163 244.47L150.771 240.045L149.778 240.046L148.85 243.029L148.809 243.029L147.916 240.056L146.93 240.061L148.338 244.079L148.258 244.293C148.083 244.743 147.811 244.775 147.406 244.659L147.186 245.384C147.312 245.435 147.537 245.48 147.792 245.479ZM153.368 244.047C154.287 244.042 154.921 243.589 155.089 242.903L154.222 242.81C154.094 243.144 153.785 243.32 153.385 243.323C152.784 243.326 152.388 242.933 152.384 242.257L155.131 242.242L155.133 241.957C155.14 240.574 154.312 239.97 153.341 239.975C152.211 239.981 151.47 240.814 151.463 242.031C151.457 243.269 152.179 244.053 153.368 244.047ZM152.39 241.631C152.421 241.127 152.795 240.702 153.35 240.699C153.884 240.696 154.241 241.084 154.244 241.621L152.39 241.631ZM157.404 244.027C158.023 244.024 158.394 243.732 158.565 243.4L158.596 243.4L158.593 243.941L159.487 243.936L159.501 241.297C159.507 240.255 158.659 239.946 157.906 239.95C157.077 239.955 156.438 240.328 156.229 241.048L157.096 241.166C157.19 240.896 157.453 240.664 157.908 240.661C158.339 240.659 158.574 240.878 158.572 241.266L158.572 241.282C158.57 241.549 158.29 241.563 157.594 241.641C156.829 241.727 156.096 241.96 156.091 242.848C156.087 243.624 156.652 244.031 157.404 244.027ZM157.649 243.343C157.261 243.345 156.985 243.17 156.987 242.828C156.989 242.471 157.3 242.321 157.717 242.259C157.961 242.225 158.449 242.16 158.57 242.062L158.568 242.527C158.565 242.966 158.209 243.34 157.649 243.343ZM160.783 243.929L161.712 243.924L161.725 241.606C161.728 241.105 162.107 240.749 162.618 240.746C162.775 240.745 162.97 240.772 163.049 240.798L163.054 239.943C162.969 239.928 162.823 239.918 162.72 239.919C162.268 239.921 161.889 240.18 161.743 240.638L161.702 240.638L161.706 239.981L160.804 239.986L160.783 243.929Z" fill="#333333"/>
<path d="M186.712 244.249C187.847 244.25 188.614 243.466 188.617 242.426C188.624 241.432 187.92 240.717 186.998 240.722C186.433 240.725 185.933 241.003 185.679 241.456L185.644 241.456C185.652 240.35 186.061 239.675 186.79 239.671C187.242 239.668 187.546 239.929 187.642 240.331L188.579 240.326C188.471 239.477 187.788 238.841 186.795 238.847C185.532 238.854 184.727 239.911 184.718 241.708C184.705 243.636 185.703 244.249 186.712 244.249ZM186.711 243.479C186.149 243.482 185.74 243.019 185.741 242.47C185.749 241.918 186.178 241.453 186.735 241.45C187.292 241.447 187.698 241.887 187.692 242.452C187.692 243.027 187.268 243.476 186.711 243.479ZM193.557 243.297L194.363 243.293L194.371 241.919L195.744 241.911L195.749 241.105L194.375 241.113L194.382 239.739L193.576 239.744L193.569 241.117L192.195 241.125L192.191 241.931L193.564 241.924L193.557 243.297ZM201.373 240.152L200.596 240.157L200.601 239.212L199.671 239.217L199.666 240.162L199.106 240.165L199.102 240.884L199.662 240.881L199.65 243.073C199.641 243.816 200.179 244.177 200.877 244.153C201.142 244.144 201.324 244.091 201.424 244.057L201.272 243.332C201.22 243.345 201.115 243.368 200.999 243.369C200.766 243.37 200.579 243.289 200.581 242.914L200.592 240.876L201.37 240.871L201.373 240.152ZM202.491 244.09L203.421 244.085L203.442 240.141L202.512 240.146L202.491 244.09ZM202.983 239.584C203.278 239.582 203.52 239.355 203.522 239.078C203.523 238.798 203.283 238.573 202.988 238.575C202.69 238.576 202.448 238.804 202.446 239.084C202.445 239.361 202.685 239.585 202.983 239.584ZM204.738 244.077L205.667 244.072L205.68 241.674C205.683 241.189 206.008 240.859 206.409 240.856C206.801 240.854 207.07 241.117 207.067 241.523L207.054 244.065L207.965 244.06L207.978 241.6C207.981 241.156 208.247 240.846 208.696 240.844C209.071 240.842 209.368 241.061 209.365 241.549L209.352 244.052L210.284 244.047L210.298 241.4C210.303 240.519 209.797 240.054 209.073 240.058C208.5 240.062 208.062 240.347 207.885 240.787L207.844 240.787C207.695 240.341 207.314 240.068 206.783 240.071C206.254 240.074 205.857 240.348 205.69 240.799L205.644 240.799L205.647 240.129L204.759 240.134L204.738 244.077ZM213.334 244.107C214.253 244.102 214.887 243.649 215.055 242.963L214.188 242.87C214.06 243.204 213.751 243.381 213.35 243.383C212.75 243.386 212.354 242.993 212.35 242.318L215.097 242.303L215.098 242.018C215.106 240.634 214.277 240.03 213.307 240.035C212.177 240.041 211.436 240.875 211.429 242.092C211.423 243.329 212.145 244.113 213.334 244.107ZM212.356 241.691C212.387 241.188 212.761 240.762 213.316 240.759C213.85 240.756 214.207 241.144 214.209 241.681L212.356 241.691ZM219.368 241.095C219.243 240.428 218.712 240.005 217.787 240.01C216.837 240.016 216.188 240.486 216.186 241.216C216.181 241.791 216.533 242.169 217.29 242.321L217.962 242.459C218.323 242.536 218.492 242.682 218.491 242.905C218.489 243.175 218.195 243.379 217.754 243.382C217.328 243.384 217.051 243.201 216.974 242.847L216.067 242.939C216.178 243.662 216.785 244.088 217.753 244.082C218.739 244.077 219.437 243.562 219.444 242.815C219.444 242.253 219.084 241.911 218.34 241.753L217.668 241.613C217.268 241.525 217.11 241.388 217.114 241.159C217.112 240.892 217.409 240.706 217.796 240.703C218.225 240.701 218.45 240.933 218.52 241.192L219.368 241.095ZM223.29 245.454C224.014 245.45 224.434 245.075 224.661 244.445L226.269 240.02L225.275 240.02L224.348 243.004L224.307 243.004L223.414 240.031L222.428 240.036L223.837 244.054L223.756 244.267C223.581 244.718 223.309 244.75 222.904 244.634L222.684 245.359C222.81 245.41 223.036 245.455 223.29 245.454ZM228.866 244.021C229.785 244.016 230.419 243.563 230.587 242.877L229.72 242.784C229.592 243.118 229.283 243.295 228.883 243.297C228.282 243.3 227.886 242.907 227.882 242.232L230.629 242.217L230.631 241.932C230.638 240.548 229.809 239.944 228.839 239.949C227.709 239.955 226.968 240.789 226.961 242.006C226.955 243.243 227.677 244.028 228.866 244.021ZM227.888 241.605C227.919 241.102 228.293 240.676 228.848 240.673C229.382 240.67 229.739 241.058 229.742 241.595L227.888 241.605ZM232.902 244.001C233.521 243.998 233.892 243.706 234.063 243.373L234.094 243.373L234.091 243.915L234.985 243.91L234.999 241.271C235.005 240.228 234.156 239.92 233.404 239.924C232.575 239.928 231.936 240.302 231.727 241.022L232.594 241.14C232.688 240.87 232.951 240.638 233.405 240.635C233.837 240.633 234.072 240.852 234.07 241.24L234.07 241.255C234.068 241.522 233.788 241.537 233.092 241.615C232.327 241.701 231.594 241.934 231.589 242.822C231.585 243.598 232.15 244.005 232.902 244.001ZM233.147 243.317C232.759 243.319 232.483 243.143 232.485 242.802C232.487 242.445 232.798 242.294 233.215 242.233C233.459 242.198 233.947 242.134 234.068 242.036L234.066 242.501C234.063 242.94 233.707 243.314 233.147 243.317ZM236.281 243.903L237.21 243.898L237.223 241.579C237.225 241.079 237.605 240.722 238.116 240.719C238.272 240.719 238.467 240.746 238.547 240.771L238.551 239.916C238.467 239.901 238.32 239.892 238.218 239.892C237.766 239.895 237.387 240.153 237.241 240.611L237.2 240.612L237.203 239.954L236.302 239.959L236.281 243.903Z" fill="#333333"/>
<path d="M113.149 232.095C116.84 232.095 119.479 230.065 119.471 227.257C119.479 225.211 118.18 223.751 115.764 223.446V223.317C117.602 222.988 118.87 221.689 118.862 219.843C118.87 217.251 116.599 215.213 113.197 215.213C109.827 215.213 107.291 217.187 107.243 220.028H110.573C110.613 218.776 111.761 217.966 113.181 217.966C114.585 217.966 115.524 218.816 115.516 220.052C115.524 221.344 114.425 222.218 112.844 222.218H111.311V224.77H112.844C114.705 224.77 115.869 225.7 115.861 227.024C115.869 228.332 114.745 229.231 113.157 229.231C111.624 229.231 110.477 228.428 110.413 227.225H106.914C106.971 230.097 109.538 232.095 113.149 232.095ZM121.969 231.871H133.683V229.03H126.783V228.918L129.182 226.567C132.56 223.486 133.467 221.945 133.467 220.076C133.467 217.227 131.14 215.213 127.617 215.213C124.167 215.213 121.8 217.276 121.808 220.501H125.106C125.098 218.928 126.093 217.966 127.593 217.966C129.038 217.966 130.113 218.864 130.113 220.309C130.113 221.616 129.31 222.515 127.818 223.951L121.969 229.367V231.871ZM145.195 228.79C145.203 230.763 146.463 232.44 148.814 232.44C151.141 232.44 152.441 230.763 152.433 228.79V227.923C152.441 225.933 151.173 224.272 148.814 224.272C146.495 224.272 145.203 225.949 145.195 227.923V228.79ZM136.762 219.386C136.77 221.36 138.03 223.021 140.373 223.021C142.708 223.021 144.008 221.376 144 219.386V218.519C144.008 216.529 142.74 214.868 140.373 214.868C138.078 214.868 136.77 216.529 136.762 218.519V219.386ZM137.549 231.871H139.643L150.94 215.438H148.846L137.549 231.871ZM147.53 227.923C147.538 227.137 147.851 226.326 148.814 226.326C149.825 226.326 150.09 227.137 150.082 227.923V228.79C150.09 229.576 149.793 230.37 148.814 230.37C147.835 230.37 147.538 229.552 147.53 228.79V227.923ZM139.113 218.519C139.121 217.757 139.418 216.923 140.373 216.923C141.384 216.923 141.657 217.733 141.649 218.519V219.386C141.657 220.172 141.352 220.966 140.373 220.966C139.426 220.966 139.121 220.172 139.113 219.386V218.519Z" fill="#333333"/>
<path d="M190.142 215.438H186.876L182.808 218.014V221.095L186.571 218.736H186.668V231.871H190.142V215.438ZM200.177 232.095C203.884 232.095 206.548 230.113 206.556 227.45C206.548 225.396 204.968 223.719 202.994 223.39V223.277C204.711 222.924 205.938 221.44 205.947 219.635C205.938 217.091 203.499 215.213 200.177 215.213C196.848 215.213 194.408 217.091 194.417 219.635C194.408 221.432 195.62 222.924 197.369 223.277V223.39C195.363 223.719 193.799 225.396 193.807 227.45C193.799 230.113 196.471 232.095 200.177 232.095ZM200.177 229.544C198.525 229.544 197.417 228.565 197.417 227.177C197.417 225.757 198.581 224.73 200.177 224.73C201.766 224.73 202.938 225.757 202.938 227.177C202.938 228.573 201.822 229.544 200.177 229.544ZM200.177 222.202C198.789 222.202 197.802 221.295 197.802 219.996C197.802 218.712 198.773 217.829 200.177 217.829C201.574 217.829 202.553 218.72 202.553 219.996C202.553 221.295 201.558 222.202 200.177 222.202ZM217.98 228.79C217.988 230.763 219.248 232.44 221.599 232.44C223.926 232.44 225.225 230.763 225.217 228.79V227.923C225.225 225.933 223.958 224.272 221.599 224.272C219.28 224.272 217.988 225.949 217.98 227.923V228.79ZM209.547 219.386C209.555 221.36 210.815 223.021 213.158 223.021C215.493 223.021 216.793 221.376 216.784 219.386V218.519C216.793 216.529 215.525 214.868 213.158 214.868C210.863 214.868 209.555 216.529 209.547 218.519V219.386ZM210.333 231.871H212.428L223.725 215.438H221.631L210.333 231.871ZM220.315 227.923C220.323 227.137 220.636 226.326 221.599 226.326C222.61 226.326 222.874 227.137 222.866 227.923V228.79C222.874 229.576 222.578 230.37 221.599 230.37C220.62 230.37 220.323 229.552 220.315 228.79V227.923ZM211.898 218.519C211.906 217.757 212.203 216.923 213.158 216.923C214.169 216.923 214.442 217.733 214.434 218.519V219.386C214.442 220.172 214.137 220.966 213.158 220.966C212.211 220.966 211.906 220.172 211.898 219.386V218.519Z" fill="#333333"/>
<path d="M36.2548 232.095C39.9136 232.095 42.4009 229.712 42.3929 226.39C42.4009 223.245 40.2024 220.982 37.2417 220.982C35.7974 220.982 34.5538 221.584 33.9761 222.395H33.8798L34.305 218.279H41.4862V215.438H31.4406L30.6623 224.104L33.7514 224.657C34.2569 223.975 35.2358 223.55 36.2066 223.55C37.8595 223.558 39.047 224.754 39.047 226.479C39.047 228.188 37.8836 229.367 36.2548 229.367C34.8747 229.367 33.7594 228.501 33.6792 227.225H30.3092C30.3734 230.065 32.8527 232.095 36.2548 232.095ZM51.259 232.232C55.3912 232.232 57.8866 229.086 57.8946 223.67C57.9026 218.295 55.3752 215.213 51.259 215.213C47.1349 215.213 44.6315 218.287 44.6235 223.67C44.6074 229.07 47.1188 232.224 51.259 232.232ZM51.259 229.351C49.3735 229.351 48.1539 227.458 48.1619 223.67C48.1699 219.939 49.3815 218.062 51.259 218.062C53.1285 218.062 54.3481 219.939 54.3481 223.67C54.3562 227.458 53.1366 229.351 51.259 229.351ZM69.3664 228.79C69.3744 230.763 70.6342 232.44 72.9851 232.44C75.312 232.44 76.6118 230.763 76.6038 228.79V227.923C76.6118 225.933 75.3441 224.272 72.9851 224.272C70.6663 224.272 69.3744 225.949 69.3664 227.923V228.79ZM60.9336 219.386C60.9416 221.36 62.2013 223.021 64.5442 223.021C66.8791 223.021 68.1789 221.376 68.1709 219.386V218.519C68.1789 216.529 66.9112 214.868 64.5442 214.868C62.2494 214.868 60.9416 216.529 60.9336 218.519V219.386ZM61.7199 231.871H63.8141L75.1114 215.438H73.0172L61.7199 231.871ZM71.7013 227.923C71.7093 227.137 72.0223 226.326 72.9851 226.326C73.9961 226.326 74.2609 227.137 74.2528 227.923V228.79C74.2609 229.576 73.964 230.37 72.9851 230.37C72.0062 230.37 71.7093 229.552 71.7013 228.79V227.923ZM63.2845 218.519C63.2925 217.757 63.5894 216.923 64.5442 216.923C65.5552 216.923 65.828 217.733 65.82 218.519V219.386C65.828 220.172 65.5231 220.966 64.5442 220.966C63.5974 220.966 63.2925 220.172 63.2845 219.386V218.519Z" fill="#333333"/>
</svg>
