<svg width="32" height="32" viewBox="0 0 32 32" fill="none" xmlns="http://www.w3.org/2000/svg">
<circle cx="16" cy="16" r="16" fill="#00BF6F"/>
<path d="M24.2412 15.1972C24.0387 15.1972 23.8386 15.2251 23.65 15.2708C22.9052 12.3223 20.4403 10.0621 17.3871 9.61039C17.3411 9.09567 17.5381 8.28851 18.8254 7.51068L18.7869 7.43506C18.7869 7.43506 16.6308 8.11713 16.1434 9.46345C16.1647 9.04305 16.0117 8.41158 15.0755 7.96243C15.0755 7.96243 15.0016 7.98773 15.0389 8.02166C15.2247 8.19333 15.8162 8.76556 15.5652 9.56237C12.3187 9.85768 9.66172 12.1906 8.88303 15.2714C8.68962 15.2233 8.49113 15.1986 8.29182 15.1978C6.9294 15.1978 5.82031 16.3043 5.82031 17.6708C5.82031 19.0346 6.92969 20.1428 8.29182 20.1428C8.611 20.1428 8.91523 20.0796 9.19473 19.9697C9.40544 20.4964 9.67485 20.9976 9.99787 21.4639L12.0585 20.0744L12.032 20.0577C11.4894 19.3604 11.1579 18.3336 11.1021 17.3116C11.0405 16.1844 11.3154 15.065 12.0352 14.4068C13.5189 13.1435 15.1344 13.7195 16.1472 14.9301H16.4175C17.4302 13.7434 19.0276 13.1918 20.4996 14.4413C21.2098 15.0952 21.4876 16.1953 21.4335 17.3076C21.3846 18.3393 21.0511 19.3826 20.5062 20.0848L22.5374 21.4636C22.859 20.9966 23.1277 20.4954 23.3386 19.9692C23.6181 20.0784 23.9217 20.1423 24.2406 20.1423C25.6065 20.1423 26.7127 19.0338 26.7127 17.6693C26.7128 17.3447 26.649 17.0231 26.5249 16.7231C26.4007 16.4231 26.2186 16.1506 25.9891 15.921C25.7595 15.6914 25.487 15.5092 25.187 15.385C24.8871 15.2608 24.5656 15.1969 24.2409 15.1969L24.2412 15.1972ZM8.37607 18.1645C8.10405 18.1645 7.88148 17.9439 7.88148 17.6687C7.88123 17.5784 7.90567 17.4897 7.95216 17.4123C7.99864 17.3348 8.06541 17.2715 8.14525 17.2292C8.22509 17.187 8.31496 17.1673 8.40515 17.1724C8.49535 17.1775 8.58244 17.2071 8.65701 17.2581C8.65989 17.5207 8.68002 17.7792 8.71021 18.0345C8.61904 18.1181 8.4998 18.1645 8.37607 18.1645ZM24.1555 18.1656C24.0335 18.1654 23.9158 18.1204 23.8248 18.0391C23.8544 17.782 23.8745 17.5224 23.8777 17.2587C23.9574 17.2052 24.0531 17.173 24.1561 17.173C24.4292 17.173 24.6524 17.3959 24.6524 17.6705C24.6524 17.9459 24.4281 18.1659 24.1558 18.1659" fill="white"/>
</svg>
