<svg width="59" height="32" viewBox="0 0 59 32" fill="none" xmlns="http://www.w3.org/2000/svg">
<circle cx="16" cy="16" r="15" fill="#FEFFFF" stroke="#E0E3E6" stroke-width="2"/>
<path d="M13.744 8.09069L13.744 8.09069C12.4333 8.18767 11.2209 8.28076 10.323 8.35221C9.8741 8.38793 9.50385 8.41825 9.2393 8.44094C9.10702 8.45228 9.00121 8.46171 8.92523 8.46896C8.84847 8.47628 8.80366 8.48124 8.79193 8.48358L8.7915 8.48366L8.7915 8.48366C8.50427 8.53488 8.24298 8.72992 8.12041 8.98572C8.12041 8.98573 8.1204 8.98574 8.1204 8.98574L8.01243 9.21208L8.02303 14.7073L8.02303 14.7073L8.0386 20.2024L8.20412 20.5387C8.20413 20.5387 8.20414 20.5387 8.20415 20.5388C8.22704 20.5844 8.28387 20.6736 8.36812 20.7971C8.45211 20.9202 8.56258 21.0761 8.69196 21.2546C8.95069 21.6116 9.28478 22.0584 9.63332 22.5117C10.3233 23.4063 10.6918 23.8766 10.9532 24.1302C11.0834 24.2566 11.186 24.328 11.2873 24.3713C11.3887 24.4146 11.4905 24.4304 11.6212 24.4435L11.6212 24.4435C11.6576 24.4472 11.7559 24.4469 11.9044 24.4431C12.0521 24.4392 12.2477 24.4318 12.4774 24.4217C12.9367 24.4014 13.5317 24.37 14.1503 24.3333M13.744 8.09069L18.582 24.0875L18.5808 24.0661C17.3851 24.134 15.3931 24.2547 14.1503 24.3333M13.744 8.09069C15.052 7.99106 16.3011 7.90195 17.2591 7.83904C18.218 7.77607 18.8836 7.73949 19.0262 7.74458L19.0267 7.74459M13.744 8.09069L19.0267 7.74459M14.1503 24.3333L14.1516 24.3547L14.1502 24.3333C14.1502 24.3333 14.1503 24.3333 14.1503 24.3333ZM19.0267 7.74459C19.3742 7.74987 19.5724 7.76682 19.8776 7.91684M19.0267 7.74459L19.8776 7.91684M22.9807 12.0041L22.9807 12.0041C22.9828 12.0212 22.9847 12.0731 22.9864 12.1541C22.9882 12.2358 22.9899 12.3487 22.9914 12.4891C22.9944 12.7698 22.9968 13.1608 22.9985 13.6334C23.0018 14.5785 23.0018 15.85 22.9965 17.2184C22.9887 19.5671 22.9834 20.8153 22.969 21.4932C22.9618 21.832 22.9523 22.0292 22.9389 22.1504C22.9255 22.2715 22.908 22.3194 22.883 22.3576C22.883 22.3577 22.8829 22.3578 22.8829 22.3578L22.8649 22.3461C22.8125 22.43 22.7078 22.5192 22.6288 22.5454L22.9807 12.0041ZM22.9807 12.0041L22.9806 12.0034C22.9593 11.8642 22.8949 11.7179 22.8174 11.6404L22.8158 11.6388C22.7767 11.5997 22.7444 11.5674 22.6693 11.547C22.5957 11.5271 22.4809 11.5186 22.2752 11.5209C21.8662 11.5255 21.0883 11.5734 19.5359 11.669L19.4985 11.6713C19.0925 11.6953 18.5943 11.7253 18.0554 11.7577C16.8334 11.8311 15.4026 11.9171 14.3655 11.9753L14.3655 11.9753C13.3012 12.0382 12.6141 12.0827 12.1812 12.1194C11.9648 12.1377 11.8115 12.1542 11.7062 12.17C11.6536 12.1779 11.6126 12.1858 11.5815 12.1937C11.5511 12.2015 11.5283 12.2098 11.5133 12.2197M22.9807 12.0041L11.7495 23.1847C11.6972 23.1709 11.6364 23.1424 11.5798 23.1085C11.523 23.0744 11.469 23.0341 11.4308 22.9959L11.4302 22.9953L11.4302 22.9953L11.3042 22.859L11.2985 22.8529L11.2985 22.8445L11.2829 17.7797C11.2776 16.0024 11.2776 14.7203 11.2842 13.8649C11.2875 13.4372 11.2924 13.116 11.2992 12.8929C11.3026 12.7813 11.3064 12.6941 11.3107 12.6302C11.315 12.5673 11.3198 12.5247 11.3259 12.5042L11.3259 12.5042C11.3423 12.4496 11.3708 12.3901 11.4038 12.3388C11.4365 12.2882 11.4752 12.2432 11.5133 12.2197M11.5133 12.2197C11.5132 12.2198 11.5131 12.2199 11.5129 12.22L11.5249 12.2378L11.5137 12.2195C11.5135 12.2196 11.5134 12.2196 11.5133 12.2197ZM19.8776 7.91684C20.1851 8.06799 20.6002 8.35381 21.3794 8.89955L19.8776 7.91684ZM23.9784 10.8577C23.9784 10.8578 23.9784 10.8579 23.9785 10.858L23.9976 10.8482L23.9783 10.8575C23.9783 10.8576 23.9783 10.8577 23.9784 10.8577ZM19.6442 8.76792L19.6442 8.76788C19.4698 8.69012 19.2434 8.6508 18.8322 8.64885C18.4209 8.6469 17.8224 8.68237 16.9026 8.75581L16.9025 8.75581C16.0531 8.82411 14.6586 8.92888 13.8092 8.98656L13.8092 8.98657C11.589 9.14636 10.4873 9.22631 9.94074 9.28863C9.80405 9.30422 9.70167 9.31875 9.62502 9.33322C9.54864 9.34763 9.49655 9.36221 9.46118 9.37835C9.42543 9.39465 9.40438 9.41365 9.39385 9.43796C9.38482 9.4588 9.3849 9.48136 9.38497 9.50088C9.38498 9.50261 9.38499 9.50431 9.38499 9.50599C9.38499 9.51415 9.3887 9.52134 9.39109 9.52552C9.394 9.53058 9.39793 9.53607 9.40245 9.54178C9.41155 9.55326 9.42455 9.56749 9.44067 9.58393C9.47301 9.61692 9.51943 9.66032 9.57619 9.71112C9.68979 9.8128 9.84585 9.94507 10.016 10.0848C10.3562 10.364 10.754 10.6739 10.983 10.8291L10.9831 10.8292C11.0956 10.9044 11.2924 10.9842 11.4266 11.0057L11.4269 11.0057C11.4377 11.0073 11.4577 11.0079 11.4847 11.008C11.5123 11.0082 11.5486 11.0077 11.5931 11.0067C11.6821 11.0046 11.8041 11.0004 11.9542 10.9942C12.2544 10.9819 12.6676 10.962 13.1554 10.9367C14.1311 10.8861 15.4057 10.814 16.6736 10.7386C17.9415 10.6632 19.2027 10.5846 20.1515 10.5208C20.6259 10.4889 21.0223 10.4608 21.3024 10.4386C21.4424 10.4275 21.5535 10.418 21.6308 10.4101C21.6694 10.4062 21.6998 10.4028 21.7212 10.3997C21.7319 10.3982 21.7407 10.3968 21.7473 10.3954C21.7506 10.3947 21.7537 10.394 21.7564 10.3931L21.7565 10.3931C21.7582 10.3925 21.7633 10.391 21.7675 10.3873L21.7675 10.3874L21.7687 10.3862C21.792 10.3629 21.794 10.3323 21.7829 10.302C21.7721 10.2728 21.7486 10.2413 21.7163 10.209L21.7163 10.209L21.7156 10.2083C21.5964 10.0995 21.1335 9.76427 20.6747 9.44482C20.4449 9.28484 20.2155 9.12843 20.0297 9.00576C19.8448 8.88365 19.7012 8.79367 19.6442 8.76792Z" fill="black" stroke="#E0E3E6" stroke-width="0.0429141"/>
<path d="M19.9985 13.4129L19.9985 13.4129C19.7156 13.4313 19.4485 13.4535 19.245 13.4751C19.1432 13.4859 19.0576 13.4966 18.9939 13.5064C18.9621 13.5113 18.936 13.516 18.9162 13.5204C18.8956 13.525 18.8843 13.5287 18.8801 13.531L18.8796 13.5312L18.8796 13.5312C18.7123 13.6175 18.6124 13.7584 18.5924 13.9183C18.5886 13.9612 18.5896 13.9901 18.5988 14.0121C18.6076 14.0327 18.6251 14.0504 18.6629 14.0667C18.7013 14.0834 18.7583 14.0975 18.8423 14.1117C18.926 14.1258 19.0349 14.1399 19.1764 14.157L19.1766 14.157L19.4229 14.1885L19.4417 14.1909V14.2098V16.4486C19.4417 17.1144 19.4364 17.6678 19.4279 18.0514C19.4237 18.2432 19.4186 18.3927 19.413 18.4928C19.4101 18.5428 19.4071 18.5809 19.404 18.6058C19.4024 18.618 19.4007 18.6283 19.3985 18.6355C19.3977 18.6383 19.3959 18.644 19.3918 18.6487C19.3896 18.6513 19.3844 18.6562 19.376 18.6569C19.3671 18.6576 19.3609 18.6531 19.358 18.6501L19.3566 18.6487L19.3566 18.6487C19.3524 18.6436 19.337 18.6211 19.313 18.5852C19.2883 18.5485 19.2536 18.4964 19.2099 18.4305C19.1226 18.2988 18.9994 18.112 18.8493 17.8839C18.5491 17.4278 18.1415 16.8065 17.6983 16.1301L17.6983 16.13C17.2553 15.4512 16.8503 14.8325 16.5547 14.3822C16.4069 14.1571 16.2865 13.9741 16.2024 13.8467C16.1603 13.783 16.1273 13.7333 16.1045 13.6991L16.0782 13.6599L16.0734 13.653C16.0692 13.6527 16.0634 13.6526 16.0559 13.6526C16.0382 13.6525 16.0124 13.6531 15.9793 13.6542C15.9131 13.6564 15.8186 13.6608 15.7027 13.667C15.4708 13.6795 15.1538 13.6992 14.8079 13.7229L14.8079 13.7229C14.3832 13.7517 14.0546 13.7792 13.8205 13.806C13.7034 13.8194 13.6102 13.8326 13.5406 13.8457C13.4701 13.8589 13.4265 13.8715 13.4063 13.8827L13.4057 13.883L13.4057 13.883C13.3348 13.9197 13.2573 14.0049 13.1973 14.1056C13.1373 14.2062 13.0974 14.3177 13.0974 14.4041C13.0974 14.4241 13.106 14.4426 13.1273 14.4602C13.1492 14.4784 13.1839 14.4949 13.2337 14.5086C13.3331 14.536 13.4854 14.5504 13.6946 14.5504H13.9148H13.9363V14.5719V21.0103V21.0261L13.9211 21.0308L13.5647 21.1409L13.5646 21.1409C13.2853 21.2253 13.201 21.2756 13.1585 21.3702L13.1583 21.3706L13.1583 21.3706C13.1174 21.4577 13.0989 21.5396 13.1001 21.5983C13.1007 21.6278 13.1063 21.6495 13.1145 21.663C13.1221 21.6754 13.1316 21.6808 13.1442 21.6808C13.1696 21.6808 13.579 21.6557 14.1061 21.6233C14.2159 21.6166 14.3308 21.6095 14.4483 21.6023L14.4484 21.6023C15.123 21.563 15.4955 21.5342 15.7173 21.481C15.8277 21.4545 15.8988 21.4224 15.9506 21.3813C16.0023 21.3403 16.0366 21.289 16.0714 21.2208C16.0923 21.1793 16.1116 21.1366 16.1257 21.1013C16.1328 21.0835 16.1384 21.0679 16.1423 21.0553C16.1446 21.0478 16.146 21.042 16.1468 21.0379C16.1428 21.0353 16.1366 21.0319 16.128 21.0279C16.1084 21.0187 16.0794 21.0075 16.043 20.9952C15.9704 20.9706 15.8701 20.9419 15.7604 20.9158C15.7604 20.9158 15.7604 20.9158 15.7603 20.9158L15.7598 20.9157C15.5345 20.8633 15.3095 20.8111 15.2626 20.8005L15.2612 20.8002L15.2612 20.8001C15.2466 20.7958 15.2325 20.7882 15.2206 20.7725C15.2093 20.7578 15.2008 20.7371 15.194 20.7088C15.1804 20.6523 15.1714 20.5571 15.1651 20.3944C15.1526 20.0681 15.1513 19.4633 15.1513 18.3362V15.919V15.8454L15.1909 15.9075L16.7847 18.4085C17.6211 19.7194 18.0914 20.4491 18.3847 20.8674C18.6784 21.2863 18.7925 21.3896 18.9157 21.4524L18.9159 21.4525C18.9921 21.4925 19.0996 21.5164 19.2257 21.5249C19.3516 21.5334 19.4944 21.5265 19.6404 21.506C19.9328 21.465 20.2348 21.37 20.4357 21.2387L20.4361 21.2385L20.4361 21.2385L20.552 21.1662L20.5626 17.6024L20.5626 17.6023L20.5782 14.0214L20.5782 14.0037L20.5956 14.0004L20.8734 13.948C21.0364 13.9169 21.1523 13.8644 21.2274 13.79C21.3019 13.7162 21.3384 13.6186 21.3384 13.4919C21.3384 13.4498 21.3377 13.4191 21.3345 13.3964C21.3313 13.3735 21.326 13.3621 21.3196 13.3554C21.3133 13.349 21.303 13.344 21.282 13.3414L19.9985 13.4129ZM19.9985 13.4129C20.5593 13.3761 21.099 13.3446 21.193 13.3403L19.9985 13.4129ZM18.8698 13.5122C18.6967 13.6014 18.5919 13.7482 18.5711 13.916C18.5555 14.0891 18.6079 14.11 19.1739 14.1783L19.4202 14.2098V16.4486C19.4202 17.6306 19.4037 18.4576 19.3817 18.6101L19.3861 18.6164L19.3886 18.6199C19.3893 18.6209 19.3896 18.6212 19.3896 18.6212L19.3773 18.6315C19.3759 18.6352 19.3745 18.6363 19.3731 18.6349C19.3716 18.6331 19.3677 18.6276 19.3615 18.6186C19.3605 18.6195 19.3597 18.6203 19.3593 18.6208C19.3569 18.6236 19.3567 18.6257 19.3574 18.6232C19.3579 18.6215 19.3585 18.6189 19.3592 18.6152C19.25 18.456 18.5452 17.3836 17.7163 16.1183C16.8303 14.7605 16.0962 13.6435 16.0856 13.6332L18.8698 13.5122ZM18.8698 13.5122C18.9275 13.4807 19.4308 13.4283 19.9971 13.3915L18.8698 13.5122ZM19.381 18.6152C19.3799 18.6219 19.3787 18.627 19.3776 18.6304L19.3883 18.6198C19.387 18.6185 19.3845 18.6164 19.381 18.6152ZM16.0705 13.6485C16.0705 13.6484 16.0705 13.6484 16.0704 13.6484L16.0707 13.6486L16.0705 13.6485Z" fill="black" stroke="#E0E3E6" stroke-width="0.0429141"/>
<circle cx="42.7126" cy="16" r="15" fill="#FEFFFF" stroke="#E0E3E6" stroke-width="2"/>
<rect x="41.852" y="6.89719" width="1.79043" height="18.2054" fill="#625DF5" stroke="#E0E3E6" stroke-width="0.0180045"/>
<rect x="37.4508" y="8.62976" width="1.79043" height="17.9545" transform="rotate(-29.9839 37.4508 8.62976)" fill="#625DF5" stroke="#E0E3E6" stroke-width="0.0180045"/>
<rect x="34.4452" y="12.2628" width="1.79043" height="17.9545" transform="rotate(-60.1269 34.4452 12.2628)" fill="#625DF5" stroke="#E0E3E6" stroke-width="0.0180045"/>
<rect x="39.0516" y="24.1811" width="1.79043" height="17.9545" transform="rotate(-150.117 39.0516 24.1811)" fill="#625DF5" stroke="#E0E3E6" stroke-width="0.0180045"/>
<rect x="35.4354" y="21.2357" width="1.79043" height="17.9545" transform="rotate(-120.16 35.4354 21.2357)" fill="#625DF5" stroke="#E0E3E6" stroke-width="0.0180045"/>
<rect x="33.5749" y="16.8533" width="1.79043" height="18.275" transform="rotate(-90 33.5749 16.8533)" fill="#625DF5" stroke="#E0E3E6" stroke-width="0.0180045"/>
<circle cx="42.7468" cy="15.9585" r="2.66191" fill="white" stroke="#E0E3E6" stroke-width="0.0180045"/>
</svg>
