<svg width="25" height="25" viewBox="0 0 25 25" fill="none" xmlns="http://www.w3.org/2000/svg">
<ellipse cx="12.4848" cy="12.7372" rx="11.8808" ry="12" fill="#1F1A20"/>
<path fill-rule="evenodd" clip-rule="evenodd" d="M12.4848 12.7373C12.4848 11.5022 13.4761 10.5009 14.699 10.5009C15.9219 10.5009 16.9132 11.5022 16.9132 12.7373C16.9132 13.9725 15.9219 14.9738 14.699 14.9738C13.4761 14.9738 12.4848 13.9725 12.4848 12.7373Z" fill="#1ABCFE"/>
<path fill-rule="evenodd" clip-rule="evenodd" d="M8.05658 17.2101C8.05658 15.975 9.04792 14.9737 10.2708 14.9737H12.485V17.2101C12.485 18.4453 11.4937 19.4466 10.2708 19.4466C9.04792 19.4466 8.05658 18.4453 8.05658 17.2101Z" fill="#0ACF83"/>
<path fill-rule="evenodd" clip-rule="evenodd" d="M12.4848 6.02795V10.5008H14.699C15.9219 10.5008 16.9132 9.49952 16.9132 8.26438C16.9132 7.02924 15.9219 6.02795 14.699 6.02795H12.4848Z" fill="#FF7262"/>
<path fill-rule="evenodd" clip-rule="evenodd" d="M8.05664 8.26464C8.05664 9.49978 9.04798 10.5011 10.2709 10.5011H12.4851V6.02821H10.2709C9.04798 6.02821 8.05664 7.0295 8.05664 8.26464Z" fill="#F24E1E"/>
<path fill-rule="evenodd" clip-rule="evenodd" d="M8.05658 12.7373C8.05658 13.9725 9.04792 14.9738 10.2708 14.9738H12.485V10.5009H10.2708C9.04792 10.5009 8.05658 11.5022 8.05658 12.7373Z" fill="#A259FF"/>
</svg>
