<svg width="25" height="24" viewBox="0 0 25 24" fill="none" xmlns="http://www.w3.org/2000/svg">
<circle cx="12.6111" cy="12" r="12" fill="white"/>
<path d="M12.8226 9.60444L10.4441 5.48173C10.5231 5.40276 10.6139 5.35096 10.7048 5.31615C10.0034 5.54287 9.68155 6.31647 9.68155 6.31647L5.33635 13.846C5.27521 14.0821 5.25823 14.2952 5.26587 14.4829H10.0085L12.8226 9.60444Z" fill="#34A853"/>
<path d="M12.8225 9.60444L15.6367 14.4829H20.3793C20.3869 14.2952 20.3699 14.0821 20.3088 13.846L15.9636 6.31647C15.9636 6.31647 15.6409 5.54287 14.9403 5.31615C15.0303 5.35096 15.1221 5.40276 15.201 5.48173L12.8225 9.60444Z" fill="#FBBC05"/>
<path d="M12.8226 9.6045L15.2011 5.48179C15.1222 5.40282 15.0304 5.35102 14.9404 5.31621C14.8368 5.28309 14.7256 5.26101 14.605 5.25507H14.4793H11.1659H11.0402C10.9205 5.26016 10.8084 5.28224 10.7048 5.31621C10.6148 5.35102 10.5231 5.40282 10.4441 5.48179L12.8226 9.6045Z" fill="#188038"/>
<path d="M10.0092 14.4829L7.6579 18.5589C7.6579 18.5589 7.57978 18.5216 7.47363 18.4443C7.80736 18.6965 8.13174 18.75 8.13174 18.75H17.3664C17.8759 18.75 17.9821 18.5589 17.9821 18.5589C17.9838 18.5581 17.9846 18.5572 17.9863 18.5564L15.6367 14.4829H10.0092Z" fill="#4285F4"/>
<path d="M10.0094 14.4829H5.26685C5.29062 15.0366 5.53518 15.3601 5.53518 15.3601L5.71351 15.6641C5.72625 15.6819 5.73389 15.6921 5.73389 15.6921L6.12196 16.3613L6.9932 17.8507C7.01868 17.911 7.0484 17.9662 7.07982 18.0188C7.09171 18.0367 7.10275 18.0562 7.11548 18.0732C7.11888 18.0783 7.12228 18.0834 7.12567 18.0885C7.23352 18.2379 7.3541 18.3534 7.47468 18.4443C7.58083 18.5224 7.65895 18.5589 7.65895 18.5589L10.0094 14.4829Z" fill="#1967D2"/>
<path d="M15.6367 14.4829H20.3793C20.3555 15.0366 20.111 15.3601 20.111 15.3601L19.9327 15.6641C19.9199 15.6819 19.9123 15.6921 19.9123 15.6921L19.5242 16.3613L18.653 17.8507C18.6275 17.911 18.5978 17.9662 18.5663 18.0188C18.5545 18.0367 18.5434 18.0562 18.5307 18.0732C18.5273 18.0783 18.5239 18.0834 18.5205 18.0885C18.4126 18.2379 18.2921 18.3534 18.1715 18.4443C18.0653 18.5224 17.9872 18.5589 17.9872 18.5589L15.6367 14.4829Z" fill="#EA4335"/>
</svg>
