<svg width="25" height="25" viewBox="0 0 25 25" fill="none" xmlns="http://www.w3.org/2000/svg">
<ellipse cx="12.4848" cy="12.8464" rx="11.8808" ry="12" fill="white"/>
<path d="M13.7232 5.96497H8.45826C7.96338 5.96497 7.52954 6.40261 7.52954 6.90356V18.7893C7.52954 19.2897 7.96284 19.7279 8.45881 19.7279H16.5105C17.0059 19.7279 17.4397 19.2902 17.4397 18.7893V9.71823L15.2722 8.15428L13.7232 5.96497Z" fill="#4285F4"/>
<path d="M10.0073 15.9743H14.9621V15.3489H10.0079L10.0073 15.9743ZM10.0073 17.2256H13.7233V16.6002H10.0073V17.2256ZM10.0073 12.8464V13.4718H14.9621V12.8464H10.0073ZM10.0073 14.723H14.9621V14.0977H10.0079L10.0073 14.723Z" fill="#F1F1F1"/>
<path d="M13.7241 5.96497V8.78019C13.7241 9.28059 14.1574 9.71823 14.6528 9.71823H17.4401L13.7241 5.96497Z" fill="#A1C2FA"/>
</svg>
