<svg width="33" height="33" viewBox="0 0 33 33" fill="none" xmlns="http://www.w3.org/2000/svg">
<path d="M2.66199 13.1048C2.66199 9.55777 2.66199 7.78427 3.35228 6.4295C3.95948 5.2378 4.92835 4.26893 6.12005 3.66173C7.47482 2.97144 9.24832 2.97144 12.7953 2.97144H20.5287C24.0757 2.97144 25.8492 2.97144 27.2039 3.66173C28.3956 4.26893 29.3645 5.2378 29.9717 6.4295C30.662 7.78427 30.662 9.55777 30.662 13.1048V20.8381C30.662 24.3851 30.662 26.1586 29.9717 27.5134C29.3645 28.7051 28.3956 29.6739 27.2039 30.2811C25.8492 30.9714 24.0757 30.9714 20.5287 30.9714H12.7953C9.24832 30.9714 7.47482 30.9714 6.12005 30.2811C4.92835 29.6739 3.95948 28.7051 3.35228 27.5134C2.66199 26.1586 2.66199 24.3851 2.66199 20.8381V13.1048Z" fill="#330000"/>
<path d="M16.2304 20.5677H11.8914L11.0086 23.3804C10.9841 23.4849 10.8879 23.5589 10.7832 23.5538H8.58558C8.46026 23.5538 8.41643 23.4831 8.4541 23.3419L12.2107 12.2452C12.2483 12.1297 12.2859 11.998 12.3235 11.8503C12.3726 11.5933 12.3978 11.332 12.3986 11.0701C12.3878 10.9927 12.4559 10.9244 12.5301 10.9352H15.5166C15.6041 10.9352 15.6542 10.9673 15.6669 11.0316L19.9307 23.3611C19.9683 23.4896 19.9307 23.5539 19.818 23.5538H17.3761C17.2905 23.5635 17.2087 23.5048 17.1883 23.4189L16.2304 20.5677ZM12.5676 18.1403H15.5354C15.0478 16.4742 14.4975 14.8299 14.0515 13.1507C13.5704 14.8327 13.0454 16.5079 12.5676 18.1403Z" fill="#FF9A00"/>
<path d="M22.4662 12.9773C22.2747 12.9851 22.0836 12.9515 21.9056 12.8784C21.7276 12.8054 21.5666 12.6947 21.4332 12.5534C21.3001 12.4061 21.1967 12.2332 21.129 12.0448C21.0613 11.8563 21.0306 11.656 21.0387 11.4553C21.0318 11.2566 21.066 11.0587 21.1388 10.8745C21.2116 10.6902 21.3215 10.5238 21.4613 10.3861C21.5997 10.2498 21.7632 10.143 21.9421 10.072C22.121 10.0009 22.3119 9.96686 22.5038 9.97193C22.9546 9.97193 23.3084 10.11 23.5651 10.3861C23.6946 10.5296 23.7953 10.6979 23.8614 10.8814C23.9275 11.0649 23.9576 11.2599 23.9501 11.4553C23.9579 11.6568 23.9262 11.8578 23.8569 12.0464C23.7875 12.2351 23.6819 12.4075 23.5463 12.5534C23.4045 12.6967 23.2354 12.8084 23.0495 12.8813C22.8636 12.9543 22.665 12.9869 22.4662 12.9773ZM21.1701 23.361V14.1524C21.1701 14.0368 21.22 13.979 21.3204 13.979H23.6308C23.7309 13.979 23.781 14.0368 23.7811 14.1524V23.361C23.7811 23.4896 23.731 23.5538 23.6308 23.5537H21.3392C21.2265 23.5537 21.1702 23.4895 21.1701 23.361Z" fill="#FF9A00"/>
</svg>
