<svg width="33" height="33" viewBox="0 0 33 33" fill="none" xmlns="http://www.w3.org/2000/svg">
<path d="M2.927 12.5443C2.927 8.99734 2.927 7.22385 3.61729 5.86907C4.22449 4.67738 5.19337 3.7085 6.38506 3.1013C7.73984 2.41101 9.51334 2.41101 13.0603 2.41101H20.7937C24.3407 2.41101 26.1142 2.41101 27.4689 3.1013C28.6606 3.7085 29.6295 4.67738 30.2367 5.86907C30.927 7.22385 30.927 8.99734 30.927 12.5443V20.2777C30.927 23.8247 30.927 25.5982 30.2367 26.953C29.6295 28.1446 28.6606 29.1135 27.4689 29.7207C26.1142 30.411 24.3407 30.411 20.7937 30.411H13.0603C9.51334 30.411 7.73984 30.411 6.38506 29.7207C5.19337 29.1135 4.22449 28.1446 3.61729 26.953C2.927 25.5982 2.927 23.8247 2.927 20.2777V12.5443Z" fill="#49021F"/>
<path d="M12.5191 10.6065V22.8783C12.5191 23.0068 12.4627 23.071 12.3501 23.0709H10.0772C9.9769 23.0709 9.92683 23.0067 9.927 22.8783V10.6065C9.927 10.5039 9.98334 10.4525 10.096 10.4524H12.3688C12.455 10.4398 12.5313 10.5181 12.5191 10.6065Z" fill="#FF3366"/>
<path d="M19.2436 23.2635C18.379 23.277 17.5224 23.0927 16.736 22.7241C15.0664 21.9316 14.3409 20.1775 14.3411 18.3702C14.3267 16.5674 15.2815 14.8495 16.8393 13.9971C17.9146 13.3862 19.1795 13.231 20.3893 13.3421V9.54688C20.3893 9.45716 20.4269 9.41202 20.5021 9.41202H22.8687C22.9334 9.40254 22.9907 9.46124 22.9814 9.52759V20.9132C22.9814 21.383 23.028 21.8511 23.0566 22.3195C23.0612 22.3996 23.0149 22.4787 22.9438 22.5122C22.3333 22.7734 21.6973 22.9671 21.0468 23.0901C20.4519 23.2027 19.8485 23.2608 19.2436 23.2635ZM20.3893 20.8747V15.6153C18.6815 15.1408 17.0081 16.4447 17.0083 18.2546C16.967 20.1501 18.6571 21.3943 20.3893 20.8747Z" fill="#FF3366"/>
</svg>
