<svg width="25" height="25" viewBox="0 0 25 25" fill="none" xmlns="http://www.w3.org/2000/svg">
<ellipse cx="12.4848" cy="12.7372" rx="11.8808" ry="12" fill="white"/>
<path d="M14.7125 6.73726L6.91571 7.48726V15.7373L9.14336 18.7373L18.054 17.9873L17.6827 8.98726L14.7125 6.73726Z" fill="white"/>
<path d="M10.8085 6.78932C8.86198 6.9348 7.20722 7.06859 7.12942 7.08425C6.91128 7.12354 6.71283 7.273 6.61952 7.4697L6.53778 7.64278L6.54566 11.7679L6.55723 15.8929L6.68181 16.1486C6.75198 16.2901 7.22692 16.9508 7.74469 17.6309C8.76867 18.9718 8.84253 19.0467 9.23179 19.086C9.3448 19.0977 10.1935 19.0584 11.1123 19.0034C12.0351 18.9445 13.5143 18.854 14.4022 18.803C18.194 18.5705 17.9993 18.5901 18.2172 18.4014C18.4897 18.1733 18.4703 18.5468 18.4818 13.5332C18.4897 9.28232 18.4858 9.0033 18.4235 8.87349C18.3496 8.72802 18.2172 8.62581 16.4885 7.39883C15.3323 6.58093 15.2506 6.53766 14.7326 6.5297C14.5186 6.52199 12.7511 6.63986 10.8085 6.78932ZM15.1844 7.32796C15.3478 7.40256 16.5432 8.24409 16.7182 8.40548C16.765 8.45273 16.7805 8.49202 16.7571 8.51565C16.7027 8.56289 9.30541 9.00728 9.09145 8.9757C8.9942 8.96003 8.85017 8.9011 8.76843 8.84589C8.42964 8.61387 7.58884 7.91782 7.58884 7.86684C7.58884 7.73305 7.56151 7.73305 10.8592 7.49333C11.49 7.45006 12.5256 7.37148 13.1563 7.32025C14.5226 7.21008 14.9315 7.21406 15.1844 7.32796ZM17.5359 9.47903C17.5903 9.53398 17.6371 9.64017 17.6526 9.74238C17.6642 9.83687 17.672 11.5985 17.6642 13.6511C17.6526 17.1744 17.6487 17.3947 17.5824 17.4969C17.5435 17.5598 17.4657 17.6267 17.4071 17.6464C17.2439 17.7133 9.49252 18.1577 9.33298 18.1104C9.25912 18.0908 9.15768 18.0278 9.10327 17.9729L9.00971 17.8707L8.99814 14.0721C8.99026 11.406 8.99814 10.2263 9.02941 10.1201C9.0528 10.0415 9.11115 9.94704 9.16187 9.9157C9.23204 9.86846 9.69146 9.82916 11.2721 9.73492C12.3818 9.672 14.0986 9.56581 15.0837 9.50688C17.4268 9.36115 17.4192 9.36115 17.5359 9.47903Z" fill="black"/>
<path d="M15.4529 10.7806C15.0324 10.8082 14.6586 10.8475 14.6158 10.8711C14.4873 10.938 14.4095 11.0481 14.3939 11.174C14.3824 11.3038 14.4213 11.3194 14.8415 11.3707L15.0245 11.3943V13.0734C15.0245 14.0721 15.009 14.7328 14.9895 14.7132C14.9701 14.6895 14.4173 13.8403 13.7592 12.8257C13.1014 11.8073 12.5562 10.9696 12.5484 10.9618C12.5405 10.9539 12.1123 10.9775 11.5985 11.0131C10.9677 11.0563 10.6213 11.0956 10.5511 11.1349C10.4381 11.1939 10.3135 11.4023 10.3135 11.54C10.3135 11.6226 10.4615 11.6659 10.773 11.6659H10.9364V16.4947L10.6718 16.5772C10.4654 16.6402 10.3953 16.6795 10.3603 16.758C10.298 16.8918 10.302 17.0137 10.3643 17.0137C10.3876 17.0137 10.8276 16.9861 11.3336 16.9547C12.3342 16.8958 12.4469 16.8682 12.5521 16.6598C12.5833 16.5969 12.6104 16.53 12.6104 16.5104C12.6104 16.4947 12.4743 16.4474 12.3105 16.4081C12.1431 16.3689 11.9757 16.3296 11.9407 16.3216C11.8745 16.302 11.8706 16.1801 11.8706 14.4891V12.6762L13.0541 14.552C14.296 16.5181 14.4518 16.7424 14.6426 16.8406C14.8802 16.9664 15.4837 16.8799 15.7872 16.6795L15.8808 16.6205L15.8887 13.9388L15.9002 11.253L16.1066 11.2138C16.3518 11.1665 16.4648 11.0526 16.4648 10.8559C16.4648 10.7301 16.4569 10.7221 16.3402 10.7261C16.2705 10.7293 15.8695 10.753 15.4529 10.7806Z" fill="black"/>
</svg>
