<svg width="25" height="25" viewBox="0 0 25 25" fill="none" xmlns="http://www.w3.org/2000/svg">
<ellipse cx="12.4847" cy="12.2372" rx="11.8807" ry="11.9999" fill="#F8F6F3"/>
<path d="M7.28692 12.9872L15.0837 5.11224H15.8262L17.3113 6.61224V7.36224L9.51457 15.2372L6.1731 15.9872L7.28692 12.9872Z" fill="white"/>
<path fill-rule="evenodd" clip-rule="evenodd" d="M14.6132 5.02678C14.9999 4.63626 15.6267 4.63626 16.0134 5.02678L17.4763 6.50436C17.8629 6.89488 17.8629 7.52805 17.4763 7.91857L15.8962 9.5145L15.8891 9.52146L9.76318 15.4276C9.65126 15.5356 9.51586 15.6155 9.36784 15.661L6.24342 16.6214C6.09351 16.6675 5.93065 16.6264 5.81985 16.5145C5.70904 16.4025 5.66833 16.238 5.71395 16.0866L6.66079 12.9444C6.71038 12.7798 6.80115 12.631 6.92434 12.5122L13.0366 6.61918L14.6132 5.02678ZM13.3263 7.52487L7.5103 13.1322C7.4927 13.1492 7.47973 13.1704 7.47265 13.1939L6.75745 15.5674L9.12075 14.841C9.14189 14.8345 9.16124 14.823 9.17723 14.8076L14.989 9.20432L13.3263 7.52487ZM15.5962 8.60536L16.8762 7.31248C16.9314 7.25669 16.9314 7.16624 16.8762 7.11045L15.4133 5.63287C15.3581 5.57708 15.2685 5.57708 15.2133 5.63287L13.9332 6.92575L15.5962 8.60536Z" fill="#333333"/>
<rect x="5.6958" y="17.3052" width="13.0122" height="0.857138" rx="0.428569" fill="#333333"/>
</svg>
