<svg width="33" height="33" viewBox="0 0 33 33" fill="none" xmlns="http://www.w3.org/2000/svg">
<path d="M2.51147 12.7804C2.51147 9.23343 2.51147 7.45993 3.20177 6.10515C3.80896 4.91346 4.77784 3.94458 5.96953 3.33739C7.32431 2.64709 9.09781 2.64709 12.6448 2.64709H20.3781C23.9251 2.64709 25.6986 2.64709 27.0534 3.33739C28.2451 3.94458 29.214 4.91346 29.8212 6.10515C30.5115 7.45993 30.5115 9.23343 30.5115 12.7804V20.5138C30.5115 24.0608 30.5115 25.8343 29.8212 27.189C29.214 28.3807 28.2451 29.3496 27.0534 29.9568C25.6986 30.6471 23.9251 30.6471 20.3781 30.6471H12.6448C9.09781 30.6471 7.32431 30.6471 5.96953 29.9568C4.77784 29.3496 3.80896 28.3807 3.20177 27.189C2.51147 25.8343 2.51147 24.0608 2.51147 20.5138V12.7804Z" fill="#001E36"/>
<path d="M8.51147 23.1633V10.8505C8.51147 10.7668 8.54647 10.7189 8.62814 10.7189C9.83377 10.7189 11.0388 10.6471 12.2448 10.6471C14.2016 10.6471 16.3205 11.3162 17.0631 13.3633C17.2381 13.8659 17.3315 14.3804 17.3315 14.9189C17.3315 15.948 17.0981 16.7975 16.6315 17.4676C15.3279 19.3394 13.0685 19.3103 11.0431 19.3103V23.1514C11.059 23.2651 10.9621 23.3189 10.8681 23.3189H8.65147C8.55814 23.3189 8.51147 23.271 8.51147 23.1633ZM11.0548 13.0283V17.0488C11.8579 17.1076 12.6982 17.114 13.4698 16.8574C14.3216 16.6116 14.7881 15.8742 14.7881 14.9907C14.8118 14.2378 14.4016 13.5154 13.7031 13.2437C12.9408 12.9267 11.8777 12.9077 11.0548 13.0283Z" fill="#31A8FF"/>
<path d="M24.6081 16.2545C24.2551 16.0684 23.8792 15.9323 23.4905 15.8499C22.9911 15.7324 21.0213 15.3208 21.0205 16.3508C21.038 16.9258 21.9508 17.2075 22.3541 17.3718C23.7699 17.8579 25.3722 18.7268 25.3407 20.4735C25.384 22.6479 23.2772 23.5171 21.4713 23.5174C20.5311 23.5271 19.5518 23.3815 18.6913 22.9779C18.6092 22.9344 18.5563 22.8415 18.5599 22.7467V20.6661C18.5506 20.5827 18.6401 20.5098 18.7101 20.5698C19.5532 21.0796 20.5524 21.3272 21.5276 21.3404C21.9581 21.3404 22.8114 21.2987 22.8049 20.6661C22.8049 20.0591 21.7842 19.78 21.3774 19.6258C20.7876 19.4153 20.2284 19.1236 19.715 18.7589C18.9977 18.2472 18.5476 17.4268 18.5599 16.5242C18.5557 14.4768 20.4949 13.5578 22.2414 13.5574C23.0579 13.5506 23.9346 13.6111 24.6947 13.9427C24.804 13.9748 24.8266 14.09 24.8261 14.1931V16.1389C24.8331 16.2597 24.6989 16.3008 24.6081 16.2545Z" fill="#31A8FF"/>
</svg>
