<svg width="25" height="25" viewBox="0 0 25 25" fill="none" xmlns="http://www.w3.org/2000/svg">
<ellipse cx="12.4848" cy="12.7372" rx="11.8808" ry="12" fill="#00BF6F"/>
<path d="M18.6042 12.135C18.4539 12.135 18.3053 12.156 18.1652 12.1903C17.6122 9.97884 15.7819 8.28372 13.5147 7.94491C13.4805 7.55887 13.6268 6.95351 14.5827 6.37014L14.5541 6.31342C14.5541 6.31342 12.9531 6.82497 12.5912 7.83471C12.607 7.51941 12.4934 7.04581 11.7982 6.70894C11.7982 6.70894 11.7433 6.72792 11.7711 6.75337C11.909 6.88212 12.3482 7.31129 12.1618 7.9089C9.75116 8.13038 7.77822 9.88007 7.2 12.1907C7.05638 12.1546 6.90899 12.1361 6.761 12.1355C5.74933 12.1355 4.92578 12.9654 4.92578 13.9902C4.92578 15.0131 5.74955 15.8443 6.761 15.8443C6.99801 15.8443 7.22391 15.7968 7.43146 15.7144C7.58792 16.1094 7.78797 16.4853 8.02782 16.835L9.55792 15.7929L9.53828 15.7804C9.13536 15.2574 8.88917 14.4873 8.84775 13.7208C8.80205 12.8754 9.00618 12.0358 9.54062 11.5422C10.6424 10.5948 11.842 11.0268 12.594 11.9347H12.7947C13.5467 11.0447 14.7328 10.631 15.8258 11.5681C16.3532 12.0585 16.5595 12.8836 16.5194 13.7178C16.4831 14.4916 16.2354 15.274 15.8308 15.8007L17.3391 16.8348C17.5778 16.4846 17.7773 16.1087 17.9339 15.714C18.1415 15.7959 18.367 15.8438 18.6038 15.8438C19.618 15.8438 20.4394 15.0124 20.4394 13.9891C20.4395 13.7456 20.3921 13.5045 20.2999 13.2795C20.2077 13.0545 20.0725 12.85 19.9021 12.6778C19.7316 12.5056 19.5293 12.369 19.3065 12.2759C19.0838 12.1827 18.8451 12.1348 18.604 12.1348L18.6042 12.135ZM6.82356 14.3605C6.62157 14.3605 6.4563 14.1951 6.4563 13.9887C6.45612 13.9209 6.47426 13.8544 6.50878 13.7963C6.5433 13.7382 6.59288 13.6908 6.65216 13.6591C6.71145 13.6273 6.77818 13.6126 6.84515 13.6164C6.91213 13.6202 6.9768 13.6425 7.03217 13.6807C7.03431 13.8776 7.04925 14.0715 7.07167 14.263C7.00397 14.3257 6.91543 14.3605 6.82356 14.3605ZM18.5406 14.3613C18.45 14.3612 18.3626 14.3274 18.295 14.2665C18.317 14.0737 18.3319 13.8789 18.3343 13.6811C18.3934 13.641 18.4645 13.6169 18.541 13.6169C18.7438 13.6169 18.9095 13.784 18.9095 13.99C18.9095 14.1966 18.743 14.3616 18.5408 14.3616" fill="white"/>
</svg>
