<svg width="43" height="43" viewBox="0 0 43 43" fill="none" xmlns="http://www.w3.org/2000/svg">
<path fill-rule="evenodd" clip-rule="evenodd" d="M28.6665 21.5C28.6665 25.4581 25.4579 28.6667 21.4998 28.6667C17.5418 28.6667 14.3332 25.4581 14.3332 21.5C14.3332 17.542 17.5418 14.3334 21.4998 14.3334C25.4579 14.3334 28.6665 17.542 28.6665 21.5ZM25.979 21.5C25.979 23.9738 23.9736 25.9792 21.4998 25.9792C19.0261 25.9792 17.0207 23.9738 17.0207 21.5C17.0207 19.0262 19.0261 17.0209 21.4998 17.0209C23.9736 17.0209 25.979 19.0262 25.979 21.5Z" fill="#003647"/>
<path fill-rule="evenodd" clip-rule="evenodd" d="M21.4998 1.79169C21.02 1.79169 20.5439 1.80886 20.0722 1.84266C18.7042 1.94069 17.6615 2.94682 17.3626 4.17779L16.7319 6.77557C16.6978 6.91576 16.5715 7.08405 16.3299 7.17123C15.8845 7.33195 15.4488 7.51281 15.0239 7.71269C14.7918 7.82189 14.5836 7.79236 14.4603 7.71725L12.1772 6.32621C11.0959 5.66744 9.64801 5.69289 8.61131 6.58975C7.88968 7.21405 7.21387 7.88986 6.58957 8.6115C5.6927 9.6482 5.66726 11.0961 6.32603 12.1773L7.71707 14.4605C7.79217 14.5837 7.8217 14.792 7.71251 15.0241C7.51263 15.449 7.33177 15.8847 7.17105 16.3301C7.08387 16.5716 6.91558 16.698 6.77539 16.732L4.17761 17.3628C2.94663 17.6617 1.9405 18.7043 1.84248 20.0724C1.80868 20.5441 1.7915 21.0202 1.7915 21.5C1.7915 21.9799 1.80868 22.456 1.84248 22.9277C1.9405 24.2957 2.94663 25.3384 4.17761 25.6372L6.77539 26.268C6.91558 26.302 7.08387 26.4284 7.17105 26.67C7.33177 27.1153 7.51263 27.551 7.71251 27.9759C7.8217 28.208 7.79217 28.4163 7.71706 28.5396L6.32603 30.8227C5.66726 31.9039 5.6927 33.3518 6.58957 34.3885C7.21387 35.1102 7.88968 35.786 8.61131 36.4103C9.64802 37.3072 11.0959 37.3326 12.1772 36.6738L14.4603 35.2828C14.5836 35.2077 14.7918 35.1782 15.0239 35.2873C15.4488 35.4872 15.8845 35.6681 16.3299 35.8288C16.5715 35.916 16.6978 36.0843 16.7319 36.2245L17.3626 38.8222C17.6615 40.0532 18.7042 41.0593 20.0722 41.1574C20.5439 41.1912 21.02 41.2084 21.4998 41.2084C21.9797 41.2084 22.4558 41.1912 22.9275 41.1574C24.2955 41.0593 25.3382 40.0532 25.6371 38.8222L26.2678 36.2245C26.3018 36.0843 26.4282 35.916 26.6698 35.8288C27.1152 35.6681 27.5508 35.4872 27.9757 35.2873C28.2078 35.1782 28.4161 35.2077 28.5394 35.2828L30.8225 36.6738C31.9038 37.3326 33.3517 37.3072 34.3884 36.4103C35.11 35.786 35.7858 35.1102 36.4101 34.3885C37.307 33.3518 37.3324 31.9039 36.6736 30.8227L35.2826 28.5396C35.2075 28.4163 35.178 28.208 35.2872 27.9759C35.487 27.551 35.6679 27.1153 35.8286 26.67C35.9158 26.4284 36.0841 26.302 36.2243 26.268L38.8221 25.6372C40.053 25.3384 41.0592 24.2957 41.1572 22.9277C41.191 22.456 41.2082 21.9799 41.2082 21.5C41.2082 21.0202 41.191 20.5441 41.1572 20.0724C41.0592 18.7043 40.053 17.6617 38.8221 17.3628L36.2243 16.732C36.0841 16.698 35.9158 16.5716 35.8286 16.3301C35.6679 15.8847 35.487 15.449 35.2872 15.0241C35.178 14.792 35.2075 14.5837 35.2826 14.4605L36.6736 12.1773C37.3324 11.0961 37.307 9.6482 36.4101 8.6115C35.7858 7.88986 35.11 7.21405 34.3884 6.58975C33.3517 5.69289 31.9038 5.66744 30.8225 6.32621L28.5394 7.71725C28.4161 7.79236 28.2078 7.82189 27.9757 7.71269C27.5508 7.51281 27.1152 7.33195 26.6698 7.17123C26.4282 7.08405 26.3018 6.91576 26.2678 6.77557L25.6371 4.17779C25.3382 2.94682 24.2955 1.94069 22.9275 1.84266C22.4558 1.80886 21.9797 1.79169 21.4998 1.79169ZM20.2643 4.52329C20.6721 4.49407 21.0841 4.47919 21.4998 4.47919C21.9156 4.47919 22.3276 4.49407 22.7354 4.52329C22.8349 4.53042 22.9772 4.61312 23.0254 4.81189L23.6562 7.40968C23.9289 8.53287 24.7762 9.34504 25.7576 9.69917C26.1238 9.83132 26.4821 9.98007 26.8317 10.1445C27.7764 10.5889 28.9504 10.6139 29.9377 10.0123L32.2208 8.62129C32.3954 8.5149 32.5546 8.55693 32.63 8.62222C33.2538 9.16186 33.838 9.74605 34.3776 10.3698C34.4429 10.4453 34.485 10.6044 34.3786 10.779L32.9875 13.0622C32.386 14.0495 32.4109 15.2235 32.8553 16.1682C33.0198 16.5177 33.1685 16.8761 33.3007 17.2423C33.6548 18.2236 34.467 19.071 35.5902 19.3437L38.188 19.9744C38.3867 20.0227 38.4694 20.165 38.4766 20.2645C38.5058 20.6723 38.5207 21.0843 38.5207 21.5C38.5207 21.9157 38.5058 22.3277 38.4766 22.7356C38.4694 22.8351 38.3867 22.9774 38.188 23.0256L35.5902 23.6564C34.467 23.9291 33.6548 24.7764 33.3007 25.7577C33.1685 26.124 33.0198 26.4823 32.8553 26.8319C32.4109 27.7765 32.386 28.9506 32.9875 29.9379L34.3786 32.221C34.485 32.3956 34.4429 32.5547 34.3776 32.6302C33.838 33.254 33.2538 33.8382 32.63 34.3778C32.5546 34.4431 32.3954 34.4851 32.2208 34.3788L29.9377 32.9877C28.9504 32.3862 27.7764 32.4111 26.8317 32.8555C26.4821 33.02 26.1238 33.1687 25.7575 33.3009C24.7762 33.655 23.9289 34.4672 23.6562 35.5904L23.0254 38.1881C22.9772 38.3869 22.8349 38.4696 22.7354 38.4767C22.3276 38.506 21.9156 38.5209 21.4998 38.5209C21.0841 38.5209 20.6721 38.506 20.2643 38.4767C20.1648 38.4696 20.0225 38.3869 19.9742 38.1881L19.3435 35.5904C19.0708 34.4672 18.2234 33.655 17.2421 33.3009C16.8759 33.1687 16.5176 33.02 16.168 32.8555C15.2233 32.4111 14.0493 32.3862 13.062 32.9877L10.7788 34.3787C10.6042 34.4851 10.4451 34.4431 10.3696 34.3778C9.74587 33.8382 9.16168 33.254 8.62204 32.6302C8.55675 32.5547 8.51472 32.3956 8.6211 32.221L10.0121 29.9379C10.6137 28.9506 10.5888 27.7766 10.1443 26.8319C9.97989 26.4823 9.83114 26.124 9.69898 25.7577C9.34486 24.7764 8.53269 23.9291 7.40949 23.6564L4.81171 23.0256C4.61293 22.9774 4.53023 22.8351 4.5231 22.7356C4.49388 22.3277 4.479 21.9157 4.479 21.5C4.479 21.0843 4.49388 20.6723 4.5231 20.2645C4.53023 20.165 4.61293 20.0227 4.81171 19.9744L7.40949 19.3437C8.53269 19.071 9.34486 18.2236 9.69898 17.2423C9.83114 16.8761 9.97989 16.5177 10.1443 16.1682C10.5888 15.2235 10.6137 14.0495 10.0121 13.0622L8.62111 10.779C8.51472 10.6044 8.55675 10.4453 8.62204 10.3698C9.16168 9.74605 9.74587 9.16186 10.3696 8.62222C10.4451 8.55693 10.6042 8.5149 10.7788 8.62129L13.062 10.0123C14.0493 10.6139 15.2233 10.5889 16.168 10.1445C16.5176 9.98008 16.8759 9.83132 17.2421 9.69917C18.2234 9.34504 19.0708 8.53287 19.3435 7.40968L19.9742 4.81189C20.0225 4.61312 20.1648 4.53042 20.2643 4.52329Z" fill="#003647"/>
</svg>
