<svg width="43" height="43" viewBox="0 0 43 43" fill="none" xmlns="http://www.w3.org/2000/svg">
<path fill-rule="evenodd" clip-rule="evenodd" d="M36.4094 1.34375C31.4993 1.34375 26.7745 3.21903 23.2009 6.58629L20.8637 8.78858C19.8983 9.69825 18.9767 10.6518 18.1017 11.6461H9.07693C7.97557 11.6461 6.95497 12.2239 6.38833 13.1683L1.53525 21.2568C1.31165 21.6294 1.28209 22.0872 1.45589 22.4855C1.6297 22.8839 1.98541 23.1735 2.41068 23.2631L10.6016 24.9875C10.6709 25.0757 10.7476 25.1597 10.8316 25.2385L14.4077 28.5945L17.7616 32.1685C17.8404 32.2525 17.9245 32.3292 18.0127 32.3985L19.7372 40.5895C19.8267 41.0148 20.1164 41.3705 20.5147 41.5443C20.913 41.7181 21.3708 41.6886 21.7434 41.465L29.8319 36.6119C30.7763 36.0452 31.3542 35.0247 31.3542 33.9233V24.8979C32.3488 24.0224 33.3028 23.1003 34.2128 22.1343L36.4131 19.7987C39.7808 16.2238 41.6557 11.4974 41.6542 6.5861L41.6536 4.47825C41.6531 2.74696 40.2495 1.34375 38.5182 1.34375H36.4094ZM28.6667 27.076C28.0707 27.5202 27.4628 27.9489 26.8436 28.3617L20.7627 32.4156L21.9784 38.1899L28.4492 34.3074C28.5841 34.2264 28.6667 34.0806 28.6667 33.9233V27.076ZM10.5845 22.2374L14.6397 16.1546C15.052 15.5362 15.4802 14.9289 15.9238 14.3336H9.07693C8.91959 14.3336 8.77379 14.4161 8.69284 14.551L4.81035 21.0218L10.5845 22.2374ZM25.044 8.54228C28.1189 5.64486 32.1844 4.03125 36.4094 4.03125H38.5182C38.7655 4.03125 38.966 4.23171 38.9661 4.47904L38.9667 6.58689C38.968 10.8129 37.3547 14.8798 34.4569 17.9558L32.2566 20.2915C30.184 22.4916 27.8678 24.4489 25.3528 26.1256L19.4618 30.0529L16.3382 26.7243C16.3188 26.7036 16.2986 26.6835 16.2779 26.664L12.9472 23.5383L16.8758 17.6454C18.5517 15.1316 20.5079 12.8165 22.7067 10.7446L25.044 8.54228ZM31.3542 14.3333C31.3542 15.8176 30.1509 17.0208 28.6667 17.0208C27.1824 17.0208 25.9792 15.8176 25.9792 14.3333C25.9792 12.8491 27.1824 11.6458 28.6667 11.6458C30.1509 11.6458 31.3542 12.8491 31.3542 14.3333ZM11.6458 37.625C13.258 36.0128 13.2581 32.9665 11.6458 31.3543C10.0336 29.742 6.98717 29.742 5.37496 31.3542C3.20921 33.52 2.78602 38.3439 2.70571 39.8525C2.69226 40.1052 2.89484 40.3077 3.1475 40.2943C4.65613 40.2139 9.48039 39.7904 11.6458 37.625Z" fill="#003647"/>
</svg>
