<svg width="43" height="43" viewBox="0 0 43 43" fill="none" xmlns="http://www.w3.org/2000/svg">
<path fill-rule="evenodd" clip-rule="evenodd" d="M28.9678 5.2388L8.08057 23.4009C8.01149 23.4607 7.96235 23.5403 7.93975 23.6288C7.91716 23.7174 7.92219 23.8107 7.95417 23.8963C7.98615 23.9819 8.04355 24.0557 8.11867 24.1077C8.19378 24.1598 8.28302 24.1876 8.37441 24.1875H18.139C18.3607 24.1872 18.5791 24.2419 18.7746 24.3466C18.9701 24.4512 19.1366 24.6027 19.2594 24.7873C19.3822 24.972 19.4573 25.1842 19.4781 25.405C19.499 25.6257 19.4649 25.8482 19.3788 26.0526L14.7939 36.9208L34.8875 19.599C34.9566 19.5392 35.0057 19.4597 35.0283 19.3711C35.0509 19.2826 35.0459 19.1892 35.0139 19.1036C34.9819 19.018 34.9245 18.9443 34.8494 18.8922C34.7743 18.8402 34.685 18.8123 34.5937 18.8125H25.0835C24.8604 18.8124 24.6409 18.7567 24.4447 18.6506C24.2485 18.5444 24.0819 18.3911 23.9597 18.2044C23.8376 18.0178 23.7639 17.8036 23.7452 17.5814C23.7265 17.3591 23.7634 17.1357 23.8526 16.9312L28.9678 5.2388ZM28.158 2.3811C28.5696 2.02227 29.0912 1.81438 29.6369 1.79169C30.1825 1.76899 30.7195 1.93284 31.1596 2.25624C31.5996 2.57963 31.9163 3.04328 32.0576 3.57078C32.1988 4.09829 32.1562 4.65817 31.9366 5.15818L27.1385 16.125H34.5937C37.5015 16.125 38.8435 19.737 36.6415 21.6343L14.5162 40.7084C14.1647 41.0128 13.7204 41.1892 13.2558 41.2089C12.7912 41.2285 12.3336 41.0903 11.9576 40.8167C11.5815 40.5431 11.3092 40.1502 11.185 39.7021C11.0607 39.254 11.0919 38.777 11.2733 38.3488L16.118 26.875H8.37441C5.4737 26.875 4.12816 23.2773 6.31757 21.3746L28.158 2.38289V2.3811Z" fill="#003647"/>
</svg>
