<svg width="32" height="32" viewBox="0 0 32 32" fill="none" xmlns="http://www.w3.org/2000/svg">
<circle cx="16" cy="16" r="15" fill="#FEFFFF" stroke="#E0E3E6" stroke-width="2"/>
<path fill-rule="evenodd" clip-rule="evenodd" d="M16 15.8022C16 14.1554 17.335 12.8203 18.9819 12.8203C20.6288 12.8203 21.9638 14.1554 21.9638 15.8022C21.9638 17.4491 20.6288 18.7841 18.9819 18.7841C17.335 18.7841 16 17.4491 16 15.8022Z" fill="#1ABCFE"/>
<path fill-rule="evenodd" clip-rule="evenodd" d="M10.0364 21.7661C10.0364 20.1192 11.3714 18.7842 13.0183 18.7842H16.0002V21.7661C16.0002 23.4129 14.6651 24.748 13.0183 24.748C11.3714 24.748 10.0364 23.4129 10.0364 21.7661Z" fill="#0ACF83"/>
<path fill-rule="evenodd" clip-rule="evenodd" d="M16 6.85645V12.8202H18.9819C20.6288 12.8202 21.9638 11.4852 21.9638 9.83835C21.9638 8.19149 20.6288 6.85645 18.9819 6.85645H16Z" fill="#FF7262"/>
<path fill-rule="evenodd" clip-rule="evenodd" d="M10.0364 9.83932C10.0364 11.4862 11.3714 12.8212 13.0183 12.8212H16.0002V6.85742H13.0183C11.3714 6.85742 10.0364 8.19246 10.0364 9.83932Z" fill="#F24E1E"/>
<path fill-rule="evenodd" clip-rule="evenodd" d="M10.0364 15.8022C10.0364 17.4491 11.3714 18.7841 13.0183 18.7841H16.0002V12.8203H13.0183C11.3714 12.8203 10.0364 14.1554 10.0364 15.8022Z" fill="#A259FF"/>
</svg>
