<svg width="43" height="43" viewBox="0 0 43 43" fill="none" xmlns="http://www.w3.org/2000/svg">
<path fill-rule="evenodd" clip-rule="evenodd" d="M21.0521 1.79175C21.7942 1.79175 22.3958 2.39337 22.3958 3.1355V7.16673L34.099 7.16675C34.851 7.16675 35.5779 7.43701 36.1473 7.92825L41.8577 12.8553C43.3073 14.106 43.3073 16.3525 41.8577 17.6032L36.1473 22.5302C35.5779 23.0215 34.851 23.2917 34.099 23.2917L22.3958 23.2917V39.8647C22.3958 40.6068 21.7942 41.2084 21.0521 41.2084C20.31 41.2084 19.7083 40.6068 19.7083 39.8647V23.2917L6.71874 23.2917C4.9871 23.2917 3.58333 21.8879 3.58333 20.1562V10.3021C3.58333 8.57048 4.98711 7.1667 6.71875 7.1667L19.7083 7.16673V3.1355C19.7083 2.39337 20.31 1.79175 21.0521 1.79175ZM21.0521 9.85425L21.0593 9.85423L34.099 9.85425C34.2064 9.85425 34.3103 9.89286 34.3916 9.96303L40.1021 14.8901C40.3091 15.0688 40.3091 15.3897 40.1021 15.5684L34.3916 20.4955C34.3103 20.5656 34.2064 20.6042 34.099 20.6042L6.71875 20.6042C6.47137 20.6042 6.27083 20.4036 6.27083 20.1562L6.27083 10.3021C6.27083 10.0547 6.47137 9.85421 6.71875 9.85421L21.0448 9.85423L21.0521 9.85425Z" fill="#767A7F"/>
</svg>
