<svg width="43" height="43" viewBox="0 0 43 43" fill="none" xmlns="http://www.w3.org/2000/svg">
<path fill-rule="evenodd" clip-rule="evenodd" d="M0.730429 27.1079C-0.200661 25.4952 0.258694 23.438 1.78737 22.3746L30.5272 2.38151C32.2223 1.20228 34.5608 1.69606 35.6344 3.45996L40.6993 11.781C41.8045 13.5968 41.0951 15.97 39.1747 16.8814L7.35081 31.9843C5.66386 32.7849 3.64487 32.1559 2.71123 30.5387L0.730429 27.1079ZM10.1615 19.8229L24.2113 10.0491L29.3292 18.5791L13.7202 25.9868L10.1615 19.8229ZM7.94752 21.3631L3.3221 24.5808C2.93994 24.8467 2.8251 25.3609 3.05787 25.7641L5.03867 29.195C5.27208 29.5993 5.77683 29.7565 6.19857 29.5564L11.2844 27.1427L7.94752 21.3631ZM31.7687 17.4213L26.4225 8.51084L32.0619 4.5877C32.4857 4.29289 33.0703 4.41633 33.3387 4.85731L38.4036 13.1783C38.6799 13.6323 38.5026 14.2256 38.0225 14.4534L31.7687 17.4213Z" fill="#767A7F"/>
<path d="M30.7359 40.9763C31.3606 40.5757 31.5424 39.7445 31.1418 39.1198L23.9751 27.9419C23.6146 27.3796 22.8958 27.1675 22.2878 27.4438L17.3607 29.6834C17.128 29.7892 16.9304 29.9591 16.7908 30.1733L10.968 39.1117C10.5629 39.7335 10.7387 40.566 11.3605 40.9711C11.9823 41.3762 12.8148 41.2005 13.2199 40.5786L18.8291 31.9681L19.7437 31.5524V41.6567C19.7437 42.3989 20.3453 43.0005 21.0874 43.0005C21.8296 43.0005 22.4312 42.3989 22.4312 41.6567V30.5131L28.8794 40.5703C29.2799 41.195 30.1111 41.3768 30.7359 40.9763Z" fill="#767A7F"/>
</svg>
