<svg width="44" height="43" viewBox="0 0 44 43" fill="none" xmlns="http://www.w3.org/2000/svg">
<path fill-rule="evenodd" clip-rule="evenodd" d="M29.132 5.23923L8.24476 23.4014C8.17567 23.4612 8.12653 23.5407 8.10394 23.6292C8.08135 23.7178 8.08638 23.8111 8.11836 23.8967C8.15034 23.9823 8.20774 24.0561 8.28285 24.1082C8.35797 24.1602 8.44721 24.188 8.53859 24.1879H18.3032C18.5249 24.1877 18.7433 24.2423 18.9388 24.347C19.1343 24.4517 19.3008 24.6031 19.4236 24.7878C19.5463 24.9724 19.6215 25.1846 19.6423 25.4054C19.6632 25.6261 19.629 25.8486 19.543 26.053L14.9581 36.9213L35.0517 19.5994C35.1208 19.5396 35.1699 19.4601 35.1925 19.3716C35.2151 19.283 35.2101 19.1897 35.1781 19.1041C35.1461 19.0185 35.0887 18.9447 35.0136 18.8926C34.9385 18.8406 34.8492 18.8128 34.7578 18.8129H25.2477C25.0246 18.8128 24.8051 18.7571 24.6089 18.651C24.4127 18.5448 24.246 18.3915 24.1239 18.2049C24.0018 18.0182 23.928 17.8041 23.9093 17.5818C23.8906 17.3595 23.9276 17.1361 24.0168 16.9316L29.132 5.23923ZM28.3222 2.38152C28.7338 2.0227 29.2554 1.81481 29.801 1.79212C30.3467 1.76942 30.8837 1.93327 31.3237 2.25667C31.7638 2.58006 32.0805 3.04371 32.2218 3.57121C32.363 4.09871 32.3203 4.6586 32.1008 5.15861L27.3027 16.1254H34.7578C37.6657 16.1254 39.0077 19.7374 36.8057 21.6348L14.6804 40.7089C14.3289 41.0132 13.8846 41.1896 13.42 41.2093C12.9553 41.2289 12.4978 41.0907 12.1217 40.8171C11.7457 40.5435 11.4734 40.1506 11.3492 39.7025C11.2249 39.2544 11.2561 38.7774 11.4375 38.3492L16.2822 26.8754H8.53859C5.63788 26.8754 4.29234 23.2777 6.48176 21.375L28.3222 2.38331V2.38152Z" fill="#767A7F"/>
</svg>
