<svg width="43" height="43" viewBox="0 0 43 43" fill="none" xmlns="http://www.w3.org/2000/svg">
<path fill-rule="evenodd" clip-rule="evenodd" d="M21.0521 1.79166C21.7942 1.79166 22.3958 2.39328 22.3958 3.13541V7.16665L34.099 7.16666C34.851 7.16667 35.5779 7.43693 36.1473 7.92817L41.8577 12.8553C43.3073 14.1059 43.3073 16.3524 41.8577 17.6031L36.1473 22.5302C35.5779 23.0214 34.851 23.2917 34.099 23.2917L22.3958 23.2916V39.8646C22.3958 40.6067 21.7942 41.2083 21.0521 41.2083C20.3099 41.2083 19.7083 40.6067 19.7083 39.8646V23.2916L6.71874 23.2916C4.9871 23.2916 3.58333 21.8878 3.58333 20.1562V10.302C3.58333 8.5704 4.98711 7.16662 6.71875 7.16662L19.7083 7.16664V3.13541C19.7083 2.39328 20.3099 1.79166 21.0521 1.79166ZM21.0521 9.85416L21.0593 9.85414L34.099 9.85417C34.2064 9.85417 34.3103 9.89277 34.3916 9.96295L40.1021 14.89C40.3091 15.0687 40.3091 15.3896 40.1021 15.5683L34.3916 20.4954C34.3103 20.5656 34.2064 20.6042 34.099 20.6042L6.71875 20.6041C6.47137 20.6041 6.27083 20.4035 6.27083 20.1562L6.27083 10.302C6.27083 10.0547 6.47137 9.85412 6.71875 9.85412L21.0448 9.85414L21.0521 9.85416Z" fill="#828282"/>
</svg>
