<svg width="43" height="43" viewBox="0 0 43 43" fill="none" xmlns="http://www.w3.org/2000/svg">
<path d="M6.05665 14.3333C8.76274 8.51206 14.6619 4.47916 21.5 4.47916C29.4666 4.47916 36.1579 9.95353 38.0111 17.3475C38.1915 18.0674 38.9213 18.5047 39.6412 18.3243C40.361 18.1438 40.7983 17.414 40.6179 16.6941C38.4722 8.13307 30.7284 1.79166 21.5 1.79166C14.2394 1.79166 7.89817 5.71751 4.47917 11.5591V8.51041C4.47917 7.76827 3.87755 7.16666 3.13542 7.16666C2.39328 7.16666 1.79167 7.76827 1.79167 8.51041V15.2292C1.79167 16.2187 2.59382 17.0208 3.58333 17.0208H10.3021C11.0442 17.0208 11.6458 16.4192 11.6458 15.6771C11.6458 14.9349 11.0442 14.3333 10.3021 14.3333H6.05665Z" fill="#828282"/>
<path d="M4.989 25.6525C4.80858 24.9326 4.07875 24.4953 3.35888 24.6757C2.63902 24.8561 2.20171 25.586 2.38214 26.3058C4.52785 34.8669 12.2717 41.2083 21.5 41.2083C28.7606 41.2083 35.1018 37.2825 38.5208 31.441V34.4896C38.5208 35.2317 39.1224 35.8333 39.8646 35.8333C40.6067 35.8333 41.2083 35.2317 41.2083 34.4896V27.7708C41.2083 26.7813 40.4062 25.9792 39.4167 25.9792H32.6979C31.9558 25.9792 31.3542 26.5808 31.3542 27.3229C31.3542 28.065 31.9558 28.6667 32.6979 28.6667H36.9434C34.2373 34.4879 28.3382 38.5208 21.5 38.5208C13.5335 38.5208 6.8422 33.0464 4.989 25.6525Z" fill="#828282"/>
</svg>
