<svg width="43" height="43" viewBox="0 0 43 43" fill="none" xmlns="http://www.w3.org/2000/svg">
<path d="M17.0255 26.2283C16.5786 25.6419 15.7416 25.5248 15.1507 25.968C14.5695 26.4039 14.4513 27.2819 14.8894 27.8591C14.933 27.9148 14.9773 27.9697 15.0233 28.0233C15.1015 28.1146 15.2114 28.2363 15.3532 28.3781C15.6361 28.661 16.0502 29.0281 16.5973 29.3928C17.6967 30.1257 19.3374 30.8503 21.4999 30.8503C23.6624 30.8503 25.3032 30.1257 26.4025 29.3928C26.9496 29.0281 27.3637 28.661 27.6466 28.3781C27.7884 28.2363 27.8983 28.1146 27.9765 28.0233L28.1179 27.8492C28.5632 27.2555 28.4428 26.4133 27.8491 25.968C27.2583 25.5248 26.4212 25.6419 25.9743 26.2283L25.9719 26.2312C25.9559 26.2513 25.88 26.344 25.7463 26.4777C25.5672 26.6568 25.2885 26.9055 24.9118 27.1567C24.1635 27.6555 23.0327 28.1628 21.4999 28.1628C19.9671 28.1628 18.8364 27.6555 18.0881 27.1567C17.7113 26.9055 17.4326 26.6568 17.2536 26.4777C17.1741 26.3982 17.0956 26.3163 17.0255 26.2283Z" fill="#828282"/>
<path d="M28.6667 21.0521C29.9036 21.0521 30.9063 20.0494 30.9063 18.8125C30.9063 17.5756 29.9036 16.5729 28.6667 16.5729C27.4298 16.5729 26.4271 17.5756 26.4271 18.8125C26.4271 20.0494 27.4298 21.0521 28.6667 21.0521Z" fill="#828282"/>
<path d="M16.125 18.8125C16.125 20.0494 15.1223 21.0521 13.8854 21.0521C12.6485 21.0521 11.6459 20.0494 11.6459 18.8125C11.6459 17.5756 12.6485 16.5729 13.8854 16.5729C15.1223 16.5729 16.125 17.5756 16.125 18.8125Z" fill="#828282"/>
<path fill-rule="evenodd" clip-rule="evenodd" d="M21.5 1.79166C10.6154 1.79166 1.79169 10.6154 1.79169 21.5C1.79169 32.3846 10.6154 41.2083 21.5 41.2083C32.3846 41.2083 41.2084 32.3846 41.2084 21.5C41.2084 10.6154 32.3846 1.79166 21.5 1.79166ZM21.5 4.98306C12.378 4.98306 4.98309 12.3779 4.98309 21.5C4.98309 30.622 12.378 38.0169 21.5 38.0169C30.6221 38.0169 38.0169 30.622 38.0169 21.5C38.0169 12.3779 30.6221 4.98306 21.5 4.98306Z" fill="#828282"/>
</svg>
