<svg width="43" height="43" viewBox="0 0 43 43" fill="none" xmlns="http://www.w3.org/2000/svg">
<path fill-rule="evenodd" clip-rule="evenodd" d="M0.730307 27.1078C-0.200783 25.4951 0.258572 23.438 1.78725 22.3746L30.5271 2.38146C32.2222 1.20223 34.5606 1.69601 35.6343 3.45991L40.6992 11.7809C41.8044 13.5967 41.095 15.97 39.1746 16.8813L7.35069 31.9843C5.66374 32.7849 3.64475 32.1558 2.71111 30.5387L0.730307 27.1078ZM10.1614 19.8228L24.2112 10.049L29.3291 18.579L13.7201 25.9867L10.1614 19.8228ZM7.9474 21.363L3.32198 24.5807C2.93981 24.8466 2.82497 25.3609 3.05775 25.7641L5.03855 29.1949C5.27196 29.5992 5.7767 29.7565 6.19845 29.5563L11.2843 27.1427L7.9474 21.363ZM31.7686 17.4213L26.4223 8.51079L32.0618 4.58764C32.4856 4.29283 33.0702 4.41628 33.3386 4.85725L38.4035 13.1783C38.6798 13.6322 38.5025 14.2255 38.0223 14.4534L31.7686 17.4213Z" fill="#828282"/>
<path d="M30.7357 40.9762C31.3605 40.5757 31.5422 39.7445 31.1417 39.1197L23.975 27.9418C23.6145 27.3796 22.8957 27.1674 22.2877 27.4438L17.3606 29.6834C17.1279 29.7891 16.9302 29.9591 16.7907 30.1732L10.9679 39.1117C10.5628 39.7335 10.7385 40.5659 11.3604 40.971C11.9822 41.3761 12.8147 41.2004 13.2198 40.5786L18.829 31.968L19.7436 31.5523V41.6567C19.7436 42.3988 20.3452 43.0004 21.0873 43.0004C21.8294 43.0004 22.4311 42.3988 22.4311 41.6567V30.513L28.8792 40.5702C29.2798 41.195 30.111 41.3767 30.7357 40.9762Z" fill="#828282"/>
</svg>
