<svg width="43" height="43" viewBox="0 0 43 43" fill="none" xmlns="http://www.w3.org/2000/svg">
<path fill-rule="evenodd" clip-rule="evenodd" d="M22.5686 39.3396C20.2361 39.5046 18.4419 37.5737 18.4418 35.3868L18.4418 33.5011C18.4418 28.7233 15.1939 26.7194 13.4709 25.9768C13.1949 25.8579 12.8844 25.7823 12.5347 25.741C12.4269 27.3749 11.0674 28.6667 9.40623 28.6667H6.71873C4.98709 28.6667 3.58331 27.2629 3.58331 25.5313V6.71879C3.58331 4.98715 4.98709 3.58338 6.71873 3.58338H9.40623C11.0349 3.58338 12.3736 4.82518 12.527 6.41361C14.0292 6.30531 15.5143 5.88432 17.3485 5.36433C17.6944 5.26628 18.0527 5.16471 18.4259 5.06105C21.0494 4.33228 24.1829 3.58333 28.3578 3.58333C32.2789 3.58333 34.9758 3.94894 36.5701 6.04146C37.3262 7.03381 37.733 8.29062 38.0309 9.71494C38.2961 10.9827 38.5009 12.5283 38.7406 14.3373L38.8334 15.0361C39.4033 19.3103 39.4205 22.5253 38.4322 24.6992C37.9074 25.8537 37.1012 26.7163 36.0058 27.2645C34.9466 27.7947 33.7054 27.9871 32.3581 27.9871H28.6836C28.7147 28.2305 28.7491 28.487 28.7853 28.7559C28.8289 29.0804 28.875 29.423 28.9202 29.782C29.0292 30.6464 29.13 31.5835 29.13 32.3581C29.13 34.5876 28.7331 36.3941 27.4818 37.6276C26.2561 38.836 24.4937 39.2034 22.5686 39.3396ZM12.5416 9.10504C14.4388 8.99051 16.266 8.46926 18.1277 7.93821C18.4655 7.84184 18.8044 7.74515 19.1452 7.6505C21.6649 6.95057 24.5319 6.27083 28.3578 6.27083C32.4374 6.27083 33.7407 6.76244 34.4324 7.67019C34.8192 8.17797 35.1267 8.95705 35.4003 10.2651C35.6435 11.4278 35.834 12.864 36.0778 14.7018L36.1695 15.3913C36.7426 19.6893 36.6211 22.1891 35.9857 23.587C35.6987 24.2183 35.3131 24.6059 34.8029 24.8613C34.2565 25.1347 33.4782 25.2996 32.3581 25.2996H28.1106C26.8901 25.2996 25.7944 26.3221 25.9408 27.6798C25.9878 28.1159 26.0582 28.6412 26.1296 29.1734C26.1723 29.4917 26.2153 29.8125 26.2538 30.1181C26.3626 30.981 26.4425 31.7691 26.4425 32.3581C26.4425 34.3731 26.0611 35.2543 25.5951 35.7138C25.1034 36.1985 24.2097 36.5293 22.3789 36.6588C21.7504 36.7033 21.1293 36.1682 21.1293 35.3867L21.1293 33.5011C21.1293 27.1415 16.6713 24.4297 14.5346 23.5088C13.8685 23.2217 13.1855 23.0924 12.5416 23.0417V9.10504ZM6.71873 6.27088C6.47135 6.27088 6.27081 6.47142 6.27081 6.71879V25.5313C6.27081 25.7787 6.47135 25.9792 6.71873 25.9792H9.40623C9.65361 25.9792 9.85415 25.7787 9.85415 25.5313V6.71879C9.85415 6.47142 9.65361 6.27088 9.40623 6.27088H6.71873Z" fill="#828282"/>
</svg>
