<svg width="575" height="216" viewBox="0 0 575 216" fill="none" xmlns="http://www.w3.org/2000/svg">
<ellipse cx="287.077" cy="188.914" rx="287.077" ry="26.8489" fill="#C4C4C4"/>
<path d="M233.917 193.335C233.356 193.626 225.562 193.214 221.735 192.972C221.241 193.18 228.436 195.257 232.359 195.803C236.281 196.348 239.294 197.803 237.917 199.569C236.541 201.336 226.878 199.154 222.228 197.102C217.578 195.05 217.189 192.972 216.877 189.153C216.565 185.334 219.916 181.023 220.722 178.763C221.527 176.503 226.047 170.009 226.462 167.411C226.878 164.814 228.644 158.969 229.501 158.969C230.187 158.969 231.64 161.238 232.281 162.372H233.216C233.502 161.203 234.338 158.886 235.398 158.969C236.723 159.073 238.489 169.074 238.541 169.412C238.593 169.749 237.19 172.061 236.307 172.217C235.6 172.342 235.528 173.308 235.58 173.776C235.562 176.027 235.564 180.628 235.71 181.023C235.891 181.516 236.021 186.867 235.943 188.218C235.865 189.569 236.671 190.946 237.45 191.907C238.229 192.868 237.008 192.972 236.801 192.972C236.593 192.972 234.619 192.972 233.917 193.335Z" fill="#FFA756"/>
<path d="M230.723 162.648C231.154 161.704 230.171 160.805 229.626 160.474C229.145 160.308 228.722 162.669 228.57 163.87C229.108 163.856 230.292 163.592 230.723 162.648Z" fill="white"/>
<path d="M234.289 162.285C233.835 161.442 234.478 160.408 234.856 159.996C235.682 159.624 236.212 161.826 236.374 162.973C235.868 163.095 234.742 163.127 234.289 162.285Z" fill="white"/>
<path d="M231.528 182.768C232.446 183.997 233.731 187.293 231.528 190.638C231.653 190.846 233.312 191.625 234.126 191.989" stroke="white" stroke-width="0.834532" stroke-linecap="round" stroke-linejoin="round"/>
<ellipse cx="234.359" cy="167.972" rx="1.28194" ry="0.558412" fill="white"/>
<path d="M188.111 184.514L201.888 183.625L204.554 186.291L211.665 188.958L236.996 192.958L238.329 198.291L234.33 199.179L203.665 198.291L187.667 196.957L188.111 184.514Z" fill="white"/>
<path d="M293.437 170.293L320.546 182.736L332.1 175.626V173.848V169.404L359.654 140.073L378.764 161.404L343.655 182.736L340.989 180.958L339.655 181.847L327.656 196.957L323.657 197.402L302.769 190.736L279.66 179.181V175.626L293.437 170.293Z" fill="white"/>
<path fill-rule="evenodd" clip-rule="evenodd" d="M393.705 56.804C389.573 59.6899 384.038 57.998 380.024 55.8257C379.783 57.5082 376.638 57.3488 375.512 58.1599C373.736 59.4388 371.747 61.7662 370.354 63.4618C367.137 67.3782 365.149 72.8512 363.348 77.5436C361.494 82.3757 359.204 86.5206 354.436 89.2074C352.896 90.0755 351.404 91.2395 349.823 92.0536C347.933 93.0271 345.744 93.503 343.665 93.3469C341.189 93.1611 339.053 93.0835 336.625 92.6168C334.03 92.1184 331.262 91.596 328.692 91.6748C326.784 91.7332 324.859 91.3446 323 91.4328C321.859 91.4867 320.728 91.3899 319.588 91.4378C319.137 91.4564 318.784 91.4531 318.318 91.4951C317.214 91.5944 317.197 91.4748 317.035 92.453C316.843 93.6095 317.583 95.4869 317.656 96.674C317.74 98.0536 317.506 99.4154 317.557 100.783C317.613 102.319 318.056 102.178 319.398 102.883C320.7 103.566 321.938 104.224 323.284 104.827C327.14 106.552 331.21 108.241 335.463 108.717C340.566 109.288 345.881 108.682 350.951 108.463C353.777 108.341 356.704 107.856 359.422 107.163C361.56 106.617 365.025 105.509 366.696 104.074C364.785 103.988 365.455 102.29 366.57 101.54C368.604 100.173 369.514 100.829 369.028 103.122C371.421 102.339 373.561 100.439 375.599 98.9192C378.218 96.9644 382.105 94.027 382.261 90.5102C382.435 86.5448 387.107 78.5408 386.62 82.714C386.184 86.4647 384.543 91.5349 386.62 95.0483C386.711 92.942 390.465 89.4808 392.232 88.8875C395.375 87.8328 399.107 87.9961 402.38 88.1972C408.446 88.5696 414.531 89.7623 420.35 91.3696C426.221 92.9915 432.506 95.0978 437.382 98.9475C437.982 99.4223 438.544 100.209 439.155 100.617C439.368 100.76 440.007 100.679 440.311 100.837C441.119 101.256 439.893 101.327 441.222 101.425C441.509 101.447 442.264 101.138 442.46 101.049C445.674 99.59 445.492 95.688 445.3 92.6986C444.86 85.8277 442.641 78.8954 439.931 72.6239C437.507 67.0144 434.2 61.0008 429.406 57.0729C427.308 55.3549 425.225 53.3395 422.809 52.1148C421.892 51.6501 420.241 50.9224 420.603 49.5323C420.99 48.0484 422.744 48.771 423.977 48.7115C430.385 48.4031 435.55 45.7054 440.401 41.6045C445.373 37.4018 450.597 35.9822 456.768 34.3938C458.544 33.9365 470.762 31.0008 472.515 31.0161C474.455 31.033 476.387 31.0964 478.325 31.1332C479.476 31.1549 480.629 31.1524 481.783 31.2447C482.711 31.3192 483.734 31.7031 484.659 31.6035C485.526 31.5106 485.458 31.7676 485.884 31.1234C486.184 30.6703 486.103 29.7316 486.19 29.1795C486.266 28.6975 486.342 28.2152 486.418 27.7329C486.657 26.2115 487.775 25.4333 486.542 24.8183C484.731 23.9146 481 23.0951 479.019 22.7323C477.122 22.3852 466.385 19.8153 462.796 19.1165C461.008 18.7684 439.357 17.962 438.55 17.9565C430.771 17.9031 414.184 22.1872 410.458 25.6113C406.731 29.0357 406.727 31.5189 405.117 32.9043C403.318 34.4522 400.881 36.3772 399.616 38.3837C398.759 39.7402 398.431 43.3293 396.681 43.8574C397.952 47.9258 397.494 54.1572 393.705 56.804Z" fill="#FF8179"/>
<path fill-rule="evenodd" clip-rule="evenodd" d="M508.559 44.2403C508.065 44.3543 507.826 44.158 507.741 43.6481C508.064 43.8823 508.311 44.0612 508.559 44.2403ZM502.098 165.034C502.535 165.058 502.102 166.167 502.046 166.163C502.064 165.787 502.081 165.411 502.098 165.034ZM382.768 27.8735C382.198 27.9692 378.987 28.8473 380.068 27.0563C380.649 26.094 381.821 27.8741 382.768 27.8735ZM393.378 49.5258C395.012 50.4297 389.972 53.6211 389.251 53.8211C388.547 54.0163 383.236 54.7206 383.172 53.551C385.026 53.1407 386.887 53.3883 388.704 52.8406C390.926 52.17 391.784 51.0664 393.378 49.5258ZM313.946 98.8094C313.848 97.3539 313.79 95.9407 313.494 94.508C313.432 94.2107 312.932 92.8395 313.043 92.6609C313.218 92.3814 314.549 92.1477 314.824 92.054C315.036 94.9049 315.276 97.7464 315.672 100.58C314.742 100.259 314.984 98.9794 313.946 98.8094ZM487.677 32.0445C487.677 30.4847 488.093 28.1636 488.404 26.6497C488.658 25.4123 489.564 24.2082 490.083 22.9634C490.244 23.8203 490.81 25.1291 490.629 26.0028C490.392 27.142 489.853 26.9548 489.853 28.3569C489.853 29.2094 489.994 30.1804 489.839 31.019C489.534 32.6706 489.045 32.4063 487.677 32.0445ZM367.632 20.0089C369.502 18.9727 372.699 20.9434 374.376 21.8496C376.366 22.9256 378.369 25.8181 379.176 27.9188C378.385 27.831 377.716 27.8162 377.141 27.3904C376.845 27.1712 376.534 26.5518 376.254 26.2598C375.533 25.5057 374.625 24.8037 373.835 24.1177C371.949 22.4829 369.911 21.0362 367.632 20.0089ZM356.578 46.1244C355.024 45.851 353.234 45.1459 352.789 43.3964C352.36 41.7056 353.599 40.8871 355.113 40.6768C358.588 40.1937 360.939 45.2358 356.578 46.1244ZM368.703 40.9068C366.99 42.1028 365.117 41.9518 363.421 40.615C362.062 39.545 360.736 37.7154 362.276 36.4074C364.75 34.3057 368.295 38.606 368.703 40.9068ZM294.805 173.273C295.877 173.339 297.607 174.46 298.547 175.012C299.727 175.704 300.969 176.435 302.11 177.074C304.479 178.399 307.14 179.887 309.767 180.882C312.342 181.857 314.939 183.083 317.568 184.236C318.693 184.729 320.267 185.305 321.543 185.171C322.71 185.049 323.936 183.848 324.982 183.323C326.606 182.506 327.662 181.447 328.959 180.14C329.524 179.571 330.964 177.18 331.727 177.091C332.379 177.014 334.161 178.441 334.67 178.746C335.457 179.22 336.645 179.997 337.392 180.592C338.132 181.181 338.174 180.748 338.225 181.521C338.26 182.047 337.054 183.08 336.682 183.503C335.433 184.928 334.128 186.322 332.948 187.807C331.934 189.083 330.991 190.453 330.12 191.831C329.276 193.168 327.711 194.715 327.371 196.278C325.407 194.355 323.477 195.293 321.008 194.714C319.939 194.463 318.989 193.87 317.988 193.519C317.153 193.226 316.257 193.13 315.398 192.94C311.587 192.099 307.889 190.452 304.325 188.98C303.492 188.636 302.801 187.978 301.997 187.581C301.135 187.155 300.194 187.013 299.325 186.621C297.089 185.613 294.822 184.553 292.612 183.474C290.24 182.316 287.741 181.315 285.414 180.093C284.008 179.355 281.281 178.032 280.632 176.469C282.185 176.748 283.489 177.633 284.927 178.08C287.463 178.869 287.339 176.482 287.339 174.662C288.188 174.662 289.892 175.879 290.705 176.257C291.754 176.745 293.131 178.034 294.296 178.121C297.179 178.336 295.785 174.544 294.805 173.273ZM396.644 43.8262C398.255 43.3402 398.577 40.2621 399.259 38.9893C400.264 37.1116 402.192 35.591 403.73 34.1238C405.144 32.7743 406.659 31.6326 408.246 30.4994C409.871 29.3385 410.996 27.8112 412.491 26.5309C418.734 21.1849 426.357 19.375 434.414 19.0956C442.508 18.815 450.676 19.7089 458.809 20.2286C459.845 20.2948 460.771 20.3239 461.805 20.4987C462.053 20.4237 462.302 20.3487 462.55 20.2737L463.125 20.6878C463.524 20.7465 464.091 20.8075 464.458 20.8787C466.353 21.2461 468.247 21.735 470.141 22.1634C474.157 23.0711 478.039 23.9055 482.086 24.7536C483.051 24.9556 485.398 25.0857 486.155 25.6979C486.742 26.173 486.523 26.3599 486.386 27.2327C486.259 28.0351 486.134 28.8375 486.007 29.6402C485.762 31.1981 485.868 31.736 484.184 31.5747C482.736 31.4359 481.324 31.1792 479.859 31.1127C477.754 31.0168 475.614 30.8944 473.508 30.9361C471.421 30.9775 469.018 30.6313 466.976 31.1664C467.605 29.8466 467.976 25.8489 466.305 28.6153C465.52 29.9159 465.714 31.5096 464.026 31.9738C462.649 32.3521 461.151 32.5732 459.732 32.9323C454.138 34.3486 448.307 35.3246 443.535 39.0116C438.857 42.6254 434.6 46.7853 428.613 48.1045C427.177 48.421 425.432 48.6051 423.919 48.678C423.039 48.7206 421.288 48.1871 420.69 48.9826C419.237 50.9128 424.619 53.1838 425.697 54.1457C427.89 56.1007 430.368 57.6285 432.267 59.9104C434.251 62.2948 435.957 64.8932 437.418 67.6128C440.706 73.7311 443.028 80.2186 444.378 87.028C445.017 90.2517 445.739 93.9439 445.165 97.2424C444.933 98.5733 444.187 99.8986 443.04 100.657C442.666 100.904 442.199 101.075 441.767 101.204C441.36 101.338 440.942 101.417 440.514 101.441C440.466 101.2 440.375 100.978 440.24 100.775C439.936 100.618 439.298 100.699 439.085 100.556C438.474 100.148 437.914 99.3613 437.313 98.887C436.271 98.0637 435.145 97.2816 433.998 96.6166C431.107 94.9408 427.958 93.9551 424.863 92.9007C418.492 90.7303 411.819 88.9511 405.055 88.2886C401.485 87.9389 397.472 87.7239 393.935 88.3865C391.653 88.8137 387.024 90.8177 386.905 93.5874C384.836 90.0867 386.148 86.4036 386.592 82.6621C387.088 78.48 387.94 74.5302 386.536 70.4026C385.581 67.595 383.938 63.8908 381.145 62.4567C380.145 61.9433 378.011 62.2531 378.751 63.95C378.77 63.9937 380.163 64.7864 380.361 65.0173C381.039 65.8063 381.552 66.8377 382.057 67.7433C386.071 74.9462 382.499 82.8103 382.236 90.4541C382.114 93.9832 378.192 96.9075 375.579 98.8587C373.548 100.375 371.4 102.278 369.013 103.06C369.499 100.768 368.589 100.112 366.558 101.478C365.443 102.228 364.773 103.924 366.683 104.01C365.177 105.304 362.101 106.307 360.187 106.805C357.945 107.389 355.65 107.909 353.314 108.239C348.65 108.899 343.901 108.689 339.211 108.738C334.382 108.787 330.354 107.498 325.917 105.823C323.881 105.054 321.967 104.165 320.03 103.155C319.373 102.812 317.883 102.414 317.522 101.665C317.057 100.698 317.752 98.1928 317.711 97.088C317.667 95.9115 316.794 93.4675 317.061 92.3961C317.316 91.3703 316.67 92.091 317.712 91.5781C317.993 91.4393 318.625 91.3673 318.97 91.3283C320.899 91.1108 323.18 91.2897 325.054 91.5314C327.202 91.8078 329.192 91.4349 331.28 91.6816C334.178 92.0242 337.153 92.5377 339.953 93.3676C344.371 94.6774 348.46 94.5842 352.408 92.0787C354.078 91.0188 356.045 89.931 357.476 88.4805C359.401 86.5307 360.811 83.7552 361.897 81.2658C364.287 75.7893 366.028 70.0399 369.3 64.9875C370.703 62.8222 372.653 61.0602 374.454 59.2167C375.306 58.3447 375.796 57.8424 376.963 57.4672C377.904 57.1646 379.817 57.0719 380.001 55.7883C384.012 57.9598 389.541 59.6483 393.67 56.7657C397.456 54.1231 397.913 47.8884 396.644 43.8262ZM396.852 96.1579C402.08 96.7348 407.141 97.1673 412.282 98.3575C417.468 99.5579 422.879 101.388 427.802 103.195C429.733 103.904 432.18 104.404 433.929 105.502C435.226 106.316 435.064 106.286 434.133 107.786C433.509 108.791 432.985 109.916 432.318 110.88C429.607 114.802 425.892 118.156 422.776 121.714C419.333 125.645 415.298 129.536 411.353 132.98C407.558 136.293 403.816 139.842 399.78 142.818C391.37 149.022 382.852 155.141 374.11 160.87C369.256 164.052 364.517 167.312 359.649 170.516C357.118 172.182 354.757 174.023 352.067 175.414C349.293 176.85 345.903 178.862 343.619 180.982C342.024 178.163 338.653 176.338 336.13 174.514C335.626 174.15 335.085 173.658 334.602 173.25C333.684 172.473 333.637 172.602 334.128 171.713C334.668 170.736 336.14 169.948 336.911 169.139C337.616 168.399 338.081 167.65 338.722 166.858C340.851 164.225 343.594 162.039 345.978 159.644C348.273 157.338 350.406 154.996 352.649 152.541C353.76 151.325 355.022 150.45 356.088 149.219C357.567 147.51 359.026 145.76 360.486 144.034C363.107 140.936 365.309 137.648 367.86 134.534C372.5 128.869 376.021 122.464 380.082 116.387C382.575 112.657 385.658 109.176 387.924 105.298C389.172 103.162 390.374 101.034 391.269 98.7007C391.778 97.3712 391.655 97.2674 392.899 96.8786C394.099 96.5031 395.614 96.2428 396.852 96.1579ZM461.793 150.569C459.147 150.313 456.425 151.192 453.856 151.3C451.36 151.406 448.805 151.677 446.304 151.513C443.559 151.333 440.798 151.338 438.063 151.424C435.099 151.516 432.275 151.035 429.418 150.617C426.53 150.193 423.384 148.879 420.56 148.039C418.89 147.542 417.283 146.897 415.605 146.428C413.908 145.954 412.556 144.828 411.009 143.964C409.954 143.374 407.716 142.66 408.185 141.447C408.601 140.369 411.376 138.751 412.284 137.967C414.968 135.652 417.689 133.353 420.175 130.812C425.448 125.42 430.474 120.043 434.929 113.958C435.987 116.952 437.156 119.991 439.496 122.27C441.484 124.207 443.775 125.867 445.899 127.631C450.023 131.055 454.985 133.496 459.91 135.468C462.348 136.444 464.705 137.071 467.161 137.934C468.324 138.343 469.562 138.263 470.652 138.52C472.304 138.908 474.03 139.712 475.703 140.184C478.062 140.85 480.446 141.317 482.912 141.105C486.122 140.829 488.79 139.256 491.712 138.117C491.56 139.254 492.434 143.285 491.786 144.135C491.428 144.607 489.132 144.801 488.42 144.96C485.518 145.608 482.428 145.999 479.528 146.375C476.452 146.773 473.552 148.296 470.551 149.004C467.719 149.672 464.591 150.295 461.793 150.569ZM513.471 167.155C513.286 169.313 513.017 172.574 511.27 174.126C510.601 172.503 510.972 170.308 510.676 168.578C510.5 167.548 510.26 166.533 510.012 165.518C509.87 164.942 509.783 163.281 509.482 162.947C507.322 160.544 506.884 167.695 506.64 168.526C505.84 166.598 506.104 164.457 505.394 162.573C504.544 160.32 503.217 162.133 502.492 163.548C502.279 160.437 503.501 157.3 503.458 154.129C503.411 150.748 502.836 148.498 500.246 146.221C499.008 145.132 495.7 143.8 495.104 142.431C495.003 142.199 495.029 140.482 495.095 140.243C495.373 139.237 495.269 139.444 496.49 139.151C497.561 138.894 498.557 138.548 499.639 138.387C502.589 137.95 504.862 137.888 507.362 139.725C509.962 141.636 511.198 145.035 511.892 148.086C513.309 154.318 513.962 160.779 513.471 167.155ZM309.258 98.3291C304.84 97.7656 300.466 95.9582 296.108 95.6578C293.488 95.477 290.567 94.8768 288 94.3272C286.312 93.9654 282.785 93.6678 281.843 92.0348C282.981 92.385 284.483 93.1832 285.673 93.2144C286.547 93.2372 286.852 93.4024 287.025 92.2017C287.108 91.6273 286.921 90.9378 286.572 90.4864C285.972 89.709 284.686 89.3285 283.812 88.8337C282.635 88.1673 281.54 87.4539 280.432 86.6781C280.77 85.8393 285.494 87.5215 286.234 87.7874C287.151 88.1169 288.081 88.4368 288.962 88.8573C289.539 89.1333 290.54 90.0241 291.193 90.0002C292.842 89.9407 292.694 87.9501 291.895 86.8064C290.762 85.1868 288.505 83.981 286.985 82.7216C288.61 82.7909 290.087 83.7407 291.581 84.3092C293.231 84.9373 294.904 85.651 296.519 86.3519C300.482 88.0727 304.704 89.252 308.735 90.912C307.523 92.9788 308.9 93.996 310.879 93.2361C311.177 94.9792 311.294 96.7545 311.294 98.5185C310.615 98.4554 309.936 98.3922 309.258 98.3291ZM492.928 27.9923C492.905 27.6107 492.616 25.7483 492.959 25.4259C493.079 25.3132 495.006 25.5847 495.196 25.6125C496.45 25.7967 497.486 26.2659 498.66 26.766C501.533 27.9901 504.438 29.0943 507.306 30.3264C512.675 32.6333 517.993 34.7758 523.005 37.7752C519.28 37.4604 515.47 36.3812 512.079 34.8089C510.645 34.1441 505.261 29.6731 505.102 33.5631C505.032 35.2848 506.514 35.897 507.766 36.7264C509.299 37.7419 510.801 38.7487 512.224 39.9111C512.981 40.5297 519.015 44.5874 518.723 45.2369C517.19 44.8703 515.543 43.7135 514.193 42.9069C512.691 42.0085 511.115 41.21 509.563 40.3939C508.717 39.9483 506.787 38.4013 505.857 39.0778C504.247 40.2498 506.454 42.4279 507.179 43.2293C505.77 43.083 503.88 41.0303 502.784 40.1748C501.396 39.0925 499.938 38.126 498.53 37.061C497.058 35.9479 495.517 34.904 494.024 33.8179C492.628 32.8038 492.854 32.8094 492.991 31.1383C493.077 30.0889 492.988 29.04 492.928 27.9923ZM431.905 99.5537C430.089 99.3676 428.462 98.2506 426.719 97.9007C425.002 97.5561 423.381 96.5999 421.692 96.0575C419.47 95.3441 417.222 94.8162 414.927 94.4137C413.002 94.0755 411.143 93.3432 409.215 93.1193C405.238 92.657 401.44 92.123 397.435 92.6923C395.452 92.9741 393.716 93.3902 391.943 94.3378C389.97 95.3925 389.776 95.3402 387.657 94.4076C388.319 92.625 390.832 91.4413 392.518 91.0783C395.059 90.5315 397.722 90.7779 400.309 90.8641C404.777 91.0132 409.415 91.9839 413.696 93.1869C421.903 95.4937 429.79 98.18 437.332 102.023C436.694 102.899 436.022 101.834 435.282 101.383C434.202 100.724 433.006 100.193 431.905 99.5537ZM362.09 33.0146C363.522 32.7318 364.953 32.6177 366.382 32.2776C368.189 31.8473 368.98 32.5017 370.661 33.3423C369.988 33.6488 369.131 34.1795 368.415 34.3644C367.155 34.6907 367.577 34.427 366.379 33.9475C365.316 33.5217 363.315 33.3503 362.222 33.5726C359.293 34.167 359.762 37.6245 360.043 39.9292C358.6 39.2277 358.417 37.9076 357.904 36.5642C357.349 35.1101 356.751 33.7898 356.323 32.2781C358.151 32.7562 360.192 33.0347 362.09 33.0146ZM339.1 87.7976C333.904 85.8576 328.068 86.353 322.723 85.9007C320.666 85.7266 317.822 86.0384 315.798 86.6976C314.828 87.0133 313.736 87.2447 312.816 87.6722C312.322 87.9019 311.922 88.4535 311.415 88.624C310.42 88.9572 310.471 88.7617 309.405 88.1773C308.471 87.665 307.529 87.1766 306.568 86.7154C300.758 83.9279 294.894 81.4561 288.914 79.1314C287.361 78.5278 285.818 78.1212 284.222 77.5947C283.215 77.2623 281.453 76.5842 280.37 76.9291C276.591 78.1307 282.088 82.6448 283.327 83.8075C281.786 83.7354 278.954 83.0162 278.062 84.7309C277.692 85.4421 277.822 86.482 278.153 87.1935C278.396 87.7145 278.925 88.0151 279.192 88.5069C279.696 89.4342 279.502 89.101 279.425 90.0297C279.213 92.6083 279.718 93.7501 281.866 95.4042C283.897 96.9679 286.524 97.6343 288.946 98.3185C293.182 99.5159 297.626 99.8549 301.916 100.888C303.933 101.374 306.039 101.688 308.062 102.055C310.309 102.462 312.952 102.147 314.854 103.394C318.655 105.887 322.14 108.998 326.359 110.802C330.083 112.393 333.554 113.172 337.555 113.859C341.321 114.506 345.222 114.046 348.858 114.139C353.112 114.248 357.056 113.957 361.111 112.731C365.234 111.485 369.211 109.89 372.718 107.506C374.701 106.159 376.674 104.86 378.538 103.343C380.813 101.493 382.361 99.3015 384.062 96.9242C385.039 97.9784 385.82 98.5636 387.098 99.2378C383.194 103.527 379.897 108.503 376.192 112.969C374.647 114.831 373.366 116.838 371.902 118.739C370.453 120.621 369.489 122.949 367.898 124.699C366.413 126.333 365.407 128.227 364.147 130.04C362.603 132.263 360.526 134.209 358.882 136.373C357.185 138.606 355.449 140.809 353.606 142.904C351.898 144.845 350.081 146.757 348.483 148.775C345.233 152.878 341.383 156.586 337.687 160.292C336.93 161.051 336.097 161.787 335.425 162.624C334.929 163.242 334.446 163.65 333.849 164.294C333.349 164.832 332.737 165.773 332.328 166.424C331.607 167.574 331.174 168.079 330.225 169.073C329.599 169.729 328.351 171.034 328.619 172.052C328.783 172.676 329.539 172.697 329.752 173.219C329.87 173.51 329.626 173.88 329.635 174.172C329.68 175.604 328.985 176.001 327.843 177.05C326.693 178.108 325.206 178.953 323.851 179.742C322.829 180.338 321.769 181.146 320.637 180.603C319.85 180.226 319.032 179.506 318.205 179.079C316.111 177.998 313.848 177.028 311.712 176.157C306.938 174.209 302.154 172.09 297.571 169.596C294.987 168.189 292.167 166.795 289.321 166.116C288.039 165.811 286.687 165.042 285.743 166.183C284.807 167.316 285.411 168.859 285.936 170.004C284.611 169.813 282.854 169.439 281.996 170.753C281.671 171.25 281.881 172.563 281.527 172.852C281.37 172.98 280.104 172.702 279.854 172.768C276.623 173.618 277.749 178.407 279.375 180.21C283.088 184.33 288.627 186.362 293.46 188.735C294.725 189.356 296.005 189.888 297.308 190.398C298.978 191.053 300.504 191.879 302.199 192.49C305.021 193.507 307.749 194.985 310.5 196.109C313.309 197.256 316.436 197.829 319.387 198.68C321.89 199.401 327.202 201.048 327.257 197.004C329.62 198.844 332.64 192.837 333.843 191.419C334.928 190.14 336.008 188.84 337.037 187.516C337.976 186.307 338.9 183.366 340.13 182.578C340.882 182.097 341.715 183.061 342.872 183.29C344.881 183.689 345.876 183.124 347.57 182.19C350.674 180.481 353.536 178.379 356.718 176.808C359.869 175.252 362.557 172.995 365.512 171.105C368.343 169.293 371.406 167.783 374.064 165.77C379.277 161.823 385.339 159.097 390.231 154.713C392.752 152.453 395.71 150.571 398.401 148.476C399.627 147.521 400.923 146.709 402.197 145.825C402.913 145.328 403.603 144.588 404.387 144.21C405.166 143.834 404.771 143.687 405.499 143.971C405.914 144.132 406.39 144.886 406.732 145.189C411.785 149.678 417.491 151.801 423.868 153.804C425.312 154.257 426.656 154.75 428.121 155.134C429.519 155.5 430.542 156.13 432.063 156.35C434.87 156.756 437.634 156.777 440.46 156.794C443.244 156.811 446.107 156.853 448.81 157.094C451.591 157.342 454.483 156.865 457.213 156.639C458.595 156.525 460.023 156.321 461.407 156.11C462.757 155.905 463.897 156.165 465.225 156.02C468.959 155.613 472.283 154.766 475.841 153.549C479.087 152.438 482.403 152.237 485.687 151.309C487.434 150.816 489.411 150.411 491.021 149.585C491.935 149.116 493.28 147.429 493.692 148.625C494.18 147.996 494.491 147.249 494.438 146.44C495.687 146.747 496.319 148.361 497.235 149.206C498.252 150.143 499.252 150.758 499.944 152.026C501.494 154.865 500.487 158.744 499.876 161.721C499.236 164.844 498.658 168.378 499.028 171.565C499.162 172.727 499.47 174.426 500.9 174.503C502.355 174.58 503.207 172.296 503.722 171.295C504.836 173.949 506.297 174.884 508.412 172.624C508.814 174.129 507.731 180.213 510.751 179.509C513.016 178.981 514.904 174.026 515.578 172.164C517.795 166.034 517.446 158.997 516.679 152.626C515.934 146.446 515.243 139.647 510.235 135.217C508.067 133.3 505.953 132.985 503.205 133.056C500.445 133.127 496.567 134.361 494.728 136.469C494.272 135.689 495.186 134.844 494.819 134.037C494.328 132.958 493.302 133.41 492.308 133.654C490.061 134.205 487.974 135.234 485.661 135.623C484.477 135.822 483.257 135.761 482.072 135.882C481.029 135.988 480.752 135.719 479.847 135.559C479.133 135.434 478.05 135.613 477.377 135.379C477.095 135.281 476.625 134.773 476.274 134.602C475.702 134.321 474.846 134.194 474.218 134.104C470.438 133.566 466.825 132.105 463.165 130.86C458.718 129.348 454.4 127.891 450.456 125.204C446.846 122.744 442.959 120.319 439.978 117.102C438.64 115.659 437.867 114.003 437.143 112.208C436.506 110.631 437.328 110.428 438.099 108.964C438.777 107.678 438.897 106.464 440.065 105.687C441.772 104.552 443.791 104.333 445.468 103.001C447.53 101.364 447.459 98.7557 447.913 96.262C448.841 91.1626 448.095 85.0071 446.829 80.0351C445.439 74.5735 443.406 69.2906 440.668 64.3695C438.086 59.7301 434.595 56.25 430.844 52.6062C431.787 51.9506 433.415 51.853 434.539 51.3498C436.179 50.615 437.522 49.5252 438.952 48.5128C441.622 46.6223 444.041 44.5549 446.907 42.962C449.569 41.482 452.377 40.2295 455.215 39.2741C456.655 38.7893 458.362 38.9123 459.87 38.5101C461.047 38.1961 462.383 38.0044 463.523 37.585C464.111 37.3689 464.627 36.8938 465.232 36.7589C471.819 35.2954 479.111 35.5869 485.951 35.5496C487.411 35.5415 489.744 35.1135 491.1 35.7493C492.515 36.4129 494.102 38.0484 495.369 38.9874C498.353 41.1972 501.505 43.1155 504.402 45.4249C507.833 48.159 511.338 50.8692 514.894 53.4456C516.114 54.3292 518.341 56.4703 519.336 54.3009C520.19 52.4393 518.472 50.5713 517.847 48.9845C519.605 49.9911 523.279 52.7833 524.196 49.5536C525.082 46.4306 522.27 43.5027 520.427 41.3833C522.495 41.8052 526.48 42.9739 528.35 41.5373C530.267 40.0643 528.622 36.8474 527.258 35.7173C523.1 32.2731 517.552 30.1517 512.574 28.2087C507.522 26.2369 502.434 24.7603 497.252 23.3801C496.186 23.0959 495.269 22.1945 494.162 22.0951C492.888 21.9805 493.355 22.8152 492.749 21.3986C492.485 20.7824 492.583 20.0292 492.236 19.4387C490.549 16.5704 488.384 20.8571 487.734 22.3555C484.13 20.8749 480.456 20.1756 476.773 19.0859C473.863 18.2245 470.871 17.284 467.926 16.4518C466.339 16.0033 464.735 15.7794 463.131 15.4834C461.598 15.2007 459.777 14.7435 458.146 14.586C455.364 14.3168 452.415 14.056 449.672 13.9928C436.278 13.6833 422.037 12.8303 411.186 22.3954C411.186 23.2675 408.391 25.6264 407.702 26.1071C405.781 27.4468 404.077 28.7624 402.296 30.3534C400.371 32.0737 398.831 33.5609 397.689 35.8967C396.706 37.9096 396.465 40.1308 395.941 42.2911C394.541 40.6965 394.11 42.1963 393.841 43.5085C393.551 44.9192 393.206 45.767 392.305 46.9238C390.38 49.397 387.851 50.6934 384.758 50.9993C384.19 51.0555 382.31 51.2157 381.782 50.9982C380.823 50.6044 381.11 50.3688 380.698 49.3088C380.385 48.5011 379.923 47.9101 379.514 47.1621C379.014 46.8059 378.825 46.33 378.947 45.7345C378.934 45.4725 378.92 45.2102 378.907 44.9482C377.867 44.3371 376.682 47.1521 376.3 47.66C375.19 49.1333 373.994 49.3834 372.191 49.3834C372.309 48.3976 372.57 48.342 371.642 47.8914C371.069 47.6136 370.249 47.8088 369.705 48.0291C368.145 48.6624 368.178 48.9734 366.414 48.2502C365.11 47.7154 363.942 47.02 362.761 46.2576C361.757 45.6087 361.599 45.4983 361.213 44.3638C360.918 43.4957 360.965 42.3414 360.855 41.4411C362.046 42.1557 362.744 43.5347 364.051 44.2439C365.377 44.9635 366.976 45.4135 368.419 44.751C371.423 43.3725 370.576 39.5603 369.69 37.1419C371.063 36.9063 372.501 36.0894 373.378 35.0131C373.97 34.2882 374.397 33.3848 375.029 32.5568C376.471 30.6694 380.198 30.2174 380.904 33.1C381.264 34.5675 380.41 35.0915 379.064 35.2781C377.462 35.5001 377.072 35.1057 377.655 36.9992C378.298 37.3302 378.498 37.8456 378.254 38.5454C378.294 38.7782 378.334 39.0107 378.374 39.2438C378.52 39.8304 378.833 40.2838 379.003 40.8473C379.488 42.4449 379.572 42.8824 381.378 43.3692C384.547 44.2236 388.227 44.6692 391.494 44.9493C392.581 45.0422 393.732 45.0308 393.372 43.5552C393.075 42.337 391.052 41.9245 390.026 41.5488C388.837 41.1129 386.642 40.9101 385.624 40.2813C384.539 39.611 384.643 38.3935 384.886 37.0991C385.189 35.4837 385.498 34.2546 385.449 32.5184C385.394 30.6173 384.711 29.9276 383.578 28.4226C386.564 29.2511 389.897 31.4187 392.998 31.4145C397.122 31.4087 396.358 27.1679 395.535 24.379C397.042 24.6338 399.381 25.2629 400.12 23.376C400.985 21.1699 398.829 18.6228 397.506 17.1521C399.24 16.9833 400.894 17.4021 401.526 15.3106C401.965 13.8546 401.425 12.136 400.425 11.0374C397.803 8.16033 393.729 7.58522 390.138 7.17939C388.152 6.95518 386.128 6.76833 384.136 6.95543C382.205 7.13675 380.692 7.95042 378.93 8.76756C377.087 9.62208 375.835 10.8137 374.605 12.4445C374.027 13.2108 373.545 13.9537 373.221 14.8641C373.063 15.3083 372.915 17.5044 372.566 17.7558C372.051 18.1285 368.895 16.8318 367.995 16.8682C367.002 16.9083 366.385 17.2178 365.798 18.0517C365.48 18.504 365.155 20.1751 364.56 20.3575C364.273 20.4455 362.478 19.7059 362.056 19.6414C361.443 19.5476 360.851 19.4129 360.222 19.3525C358.27 19.1644 356.242 19.1117 354.349 19.7106C350.57 20.9053 348.417 24.3334 349.405 28.3719C349.59 29.1249 350.105 29.6742 350.33 30.3879C350.633 31.3472 350.523 32.3513 350.751 33.3431C351.23 35.433 352.121 36.6741 353.924 37.7602C348.125 42.3759 354.415 52.8662 360.406 47.5735C362.108 49.9602 365.815 51.668 368.595 52.3322C372.342 53.2272 375.821 52.7027 377.825 49.246C378.053 49.839 378.421 50.4776 378.534 51.0956C378.622 51.3253 378.71 51.5548 378.797 51.7843C379.059 52.1325 378.933 52.3336 378.42 52.3873C378.07 53.3772 377.813 53.4776 378.329 54.6752C374.5 53.3493 370.464 56.7974 367.82 59.3532C366.039 61.0752 365.091 63.601 363.976 65.7563C362.668 68.2846 361.671 70.9263 360.463 73.4958C359.378 75.8049 358.707 78.3137 357.522 80.5716C356.4 82.7085 354.586 84.2494 352.704 85.6187C350.959 86.8884 349.207 88.1578 346.973 88.686C344.428 89.2879 341.587 88.4362 339.1 87.7976Z" fill="#444444"/>
<path fill-rule="evenodd" clip-rule="evenodd" d="M509.753 99.4588C509.556 96.3211 504.813 93.4652 502.662 91.5446C499.873 89.0542 497.074 86.5393 494.012 84.3397C486.343 78.8306 478.374 73.8698 469.886 69.7541C468.587 69.1244 459.119 64.6317 458.858 67.1708C458.702 68.6903 462.556 69.4504 463.61 69.9049C465.92 70.9026 468.111 72.1561 470.343 73.2976C477.042 76.7223 483.117 81.5631 489.318 85.9413C493.019 88.5544 496.481 91.5076 500.146 94.1578C502.1 95.5701 503.817 97.2493 505.703 98.7137C507.049 99.7581 509.107 101.963 509.753 99.4588Z" fill="#444444"/>
<path fill-rule="evenodd" clip-rule="evenodd" d="M349.544 119.832C348.496 119.407 347.288 123.664 346.83 124.424C345.957 125.871 345.002 127.368 343.943 128.679C341.496 131.71 339.012 134.614 336.126 137.243C333.36 139.762 330.237 142.148 326.918 143.913C325.963 144.421 318.803 146.699 321.501 148.974C322.335 149.676 324.947 149.011 325.843 148.73C327.389 148.247 329.103 147.44 330.519 146.656C333.489 145.013 336.267 142.917 338.647 140.493C341.369 137.723 343.594 134.684 345.783 131.487C347.748 128.618 350.756 123.37 349.544 119.832Z" fill="#444444"/>
<path fill-rule="evenodd" clip-rule="evenodd" d="M469.145 84.247C469.559 85.1515 470.273 84.9056 471.045 85.1935C472.246 85.641 473.387 86.4598 474.499 87.0987C476.635 88.3259 478.75 89.6025 480.841 90.9062C484.724 93.3279 488.476 95.9496 491.943 98.9421C494.127 96.746 483.19 89.0084 481.754 88.0844C479.607 86.7029 477.379 85.2777 475.076 84.1671C473.269 83.2957 469.225 80.9271 469.145 84.247Z" fill="#444444"/>
<path fill-rule="evenodd" clip-rule="evenodd" d="M335.8 125.949C334.349 125.65 333.933 127.919 333.329 128.628C332.371 129.755 331.149 130.718 330.003 131.614C328.61 132.704 327.354 133.828 325.89 134.826C324.699 135.637 322.076 136.902 322.301 138.686C322.817 142.763 330.156 136.896 331.391 135.676C333.152 133.937 338.301 128.54 335.8 125.949Z" fill="#444444"/>
<path fill-rule="evenodd" clip-rule="evenodd" d="M319.228 134.9C320.226 138.381 326.942 132.167 326.432 129.665C325.968 127.395 323.542 129.744 322.52 130.606C321.11 131.794 319.295 132.97 319.228 134.9Z" fill="#444444"/>
<path fill-rule="evenodd" clip-rule="evenodd" d="M475.039 97.0475C476.609 96.6003 480.494 98.57 478.141 95.5645C477.468 94.7061 476.71 93.8873 475.772 94.3454C474.823 94.8088 474.34 96.2598 475.039 97.0475Z" fill="#444444"/>
<path fill-rule="evenodd" clip-rule="evenodd" d="M377.081 54.2549C377.452 54.4095 377.822 54.5636 378.193 54.7182C378.061 54.3472 377.927 53.9764 377.794 53.6057C377.654 53.9789 377.417 54.1951 377.081 54.2549Z" fill="#444444"/>
<path fill-rule="evenodd" clip-rule="evenodd" d="M455.516 14.4456C456.372 14.5989 457.15 14.6264 458.019 14.5994C457.171 14.4515 456.372 14.4543 455.516 14.4456Z" fill="#444444"/>
<path fill-rule="evenodd" clip-rule="evenodd" d="M517.165 161.245C517.137 161.988 517.11 162.73 517.082 163.471C517.11 162.728 517.137 161.986 517.165 161.245Z" fill="#444444"/>
<path fill-rule="evenodd" clip-rule="evenodd" d="M349.171 27.4608C349.187 26.8114 349.203 26.1622 349.219 25.5138C348.957 26.1594 349.012 26.8091 349.171 27.4608Z" fill="#444444"/>
<path fill-rule="evenodd" clip-rule="evenodd" d="M452.456 14.3233C453.105 14.3264 453.755 14.3297 454.403 14.3328C453.66 14.1128 452.991 14.1094 452.456 14.3233Z" fill="#444444"/>
<path fill-rule="evenodd" clip-rule="evenodd" d="M448.11 87.5389C448.134 88.0955 448.158 88.6518 448.181 89.2078C448.157 88.6512 448.133 88.0949 448.11 87.5389Z" fill="#444444"/>
<path fill-rule="evenodd" clip-rule="evenodd" d="M435.49 13.6298C436.046 13.6718 436.602 13.7138 437.159 13.7558C436.602 13.7138 436.046 13.6718 435.49 13.6298Z" fill="#444444"/>
<path fill-rule="evenodd" clip-rule="evenodd" d="M433.265 13.7532L434.933 13.6333C434.377 13.6734 433.821 13.7132 433.265 13.7532Z" fill="#444444"/>
<path fill-rule="evenodd" clip-rule="evenodd" d="M504.468 133.052C505.028 133.064 505.599 133.257 506.137 132.912C505.581 132.959 505.024 133.005 504.468 133.052Z" fill="#444444"/>
<path fill-rule="evenodd" clip-rule="evenodd" d="M280.845 83.6912C281.385 84.0489 281.958 83.7697 282.514 83.8111C281.958 83.771 281.401 83.7313 280.845 83.6912Z" fill="#444444"/>
<path fill-rule="evenodd" clip-rule="evenodd" d="M391.544 7.46869C392.078 7.83277 392.652 7.61666 393.213 7.59886C392.656 7.55547 392.1 7.51208 391.544 7.46869Z" fill="#444444"/>
<path fill-rule="evenodd" clip-rule="evenodd" d="M481.383 135.87C481.847 135.875 482.31 135.88 482.774 135.884C482.311 135.627 481.848 135.674 481.383 135.87Z" fill="#444444"/>
<path fill-rule="evenodd" clip-rule="evenodd" d="M399.054 17.0473C398.775 17.0362 398.495 17.025 398.219 17.0136C398.499 17.0248 398.776 17.0359 399.054 17.0473Z" fill="#444444"/>
<path fill-rule="evenodd" clip-rule="evenodd" d="M441.331 13.6433C441.702 13.6955 442.073 13.7478 442.443 13.7998C442.107 13.391 441.7 13.7056 441.331 13.6433Z" fill="#444444"/>
<path fill-rule="evenodd" clip-rule="evenodd" d="M335.082 86.7745C335.453 86.8207 335.824 86.8663 336.194 86.9125C335.823 86.8663 335.453 86.8207 335.082 86.7745Z" fill="#444444"/>
<path fill-rule="evenodd" clip-rule="evenodd" d="M506.415 173.927C506.136 173.909 505.857 173.892 505.581 173.874C505.861 173.892 506.138 173.909 506.415 173.927Z" fill="#444444"/>
<path fill-rule="evenodd" clip-rule="evenodd" d="M333.135 86.5476C333.506 86.5593 333.877 86.571 334.248 86.5827C333.876 86.571 333.506 86.5593 333.135 86.5476Z" fill="#444444"/>
<path fill-rule="evenodd" clip-rule="evenodd" d="M378.324 38.5863C378.33 38.3076 378.336 38.0289 378.341 37.7519C378.336 38.0308 378.33 38.3087 378.324 38.5863Z" fill="#444444"/>
<path fill-rule="evenodd" clip-rule="evenodd" d="M384.697 38.8642C384.719 39.2355 384.741 39.6065 384.762 39.9768C384.74 39.6054 384.719 39.2347 384.697 38.8642Z" fill="#444444"/>
<path fill-rule="evenodd" clip-rule="evenodd" d="M446.059 156.955C445.78 156.941 445.501 156.927 445.225 156.914C445.504 156.927 445.781 156.941 446.059 156.955Z" fill="#444444"/>
<path fill-rule="evenodd" clip-rule="evenodd" d="M524.494 42.0661C524.215 42.0641 523.936 42.0619 523.66 42.06C523.94 42.0619 524.217 42.0641 524.494 42.0661Z" fill="#444444"/>
<path fill-rule="evenodd" clip-rule="evenodd" d="M318.95 86.1189C319.321 86.1186 319.692 86.118 320.062 86.1175C319.691 85.9325 319.32 85.7359 318.95 86.1189Z" fill="#444444"/>
<path fill-rule="evenodd" clip-rule="evenodd" d="M319.425 134.822C319.438 134.451 319.451 134.08 319.464 133.71C319.231 134.074 319.197 134.444 319.425 134.822Z" fill="#444444"/>
<path fill-rule="evenodd" clip-rule="evenodd" d="M325.347 85.9476C325.718 85.9885 326.089 86.0291 326.459 86.07C326.089 86.0291 325.718 85.9885 325.347 85.9476Z" fill="#444444"/>
<path fill-rule="evenodd" clip-rule="evenodd" d="M468.992 84.2012C469.001 83.8302 469.01 83.4589 469.02 83.0887C469.01 83.4597 469.001 83.8308 468.992 84.2012Z" fill="#444444"/>
<path fill-rule="evenodd" clip-rule="evenodd" d="M490.561 35.6789C490.375 35.6703 490.189 35.6616 490.005 35.6533C490.192 35.6616 490.377 35.6703 490.561 35.6789Z" fill="#444444"/>
<path fill-rule="evenodd" clip-rule="evenodd" d="M429.371 14.3337C429.742 14.277 430.113 14.2202 430.483 14.1638C430.113 14.2202 429.742 14.277 429.371 14.3337Z" fill="#444444"/>
<path fill-rule="evenodd" clip-rule="evenodd" d="M501.13 133.087C501.501 133.039 501.872 132.991 502.243 132.942C501.872 132.991 501.501 133.039 501.13 133.087Z" fill="#444444"/>
<path fill-rule="evenodd" clip-rule="evenodd" d="M470.257 133.226C470.628 133.27 470.999 133.314 471.37 133.359C470.999 133.314 470.628 133.27 470.257 133.226Z" fill="#444444"/>
<path fill-rule="evenodd" clip-rule="evenodd" d="M321.453 85.9078C321.822 86.1759 322.194 86.1773 322.565 85.9142C322.194 85.9123 321.824 85.91 321.453 85.9078Z" fill="#444444"/>
<path fill-rule="evenodd" clip-rule="evenodd" d="M477.211 135.1C477.35 135.522 477.734 135.34 478.045 135.337C477.767 135.258 477.488 135.179 477.211 135.1Z" fill="#444444"/>
<path fill-rule="evenodd" clip-rule="evenodd" d="M397.941 24.8359C397.755 24.8242 397.569 24.8123 397.385 24.8009C397.572 24.8131 397.756 24.8242 397.941 24.8359Z" fill="#444444"/>
<path fill-rule="evenodd" clip-rule="evenodd" d="M449.119 13.9021C449.49 13.9483 449.861 13.9944 450.231 14.0403C449.86 13.9941 449.49 13.9483 449.119 13.9021Z" fill="#444444"/>
<path fill-rule="evenodd" clip-rule="evenodd" d="M312.274 102.409C312.088 102.415 311.902 102.422 311.718 102.43C311.905 102.423 312.09 102.416 312.274 102.409Z" fill="#444444"/>
<path fill-rule="evenodd" clip-rule="evenodd" d="M447 99.777C447.022 100.056 447.044 100.334 447.066 100.611C447.044 100.332 447.022 100.055 447 99.777Z" fill="#444444"/>
<path fill-rule="evenodd" clip-rule="evenodd" d="M392.656 44.8387C392.47 44.8426 392.284 44.8468 392.1 44.8504C392.287 44.8463 392.472 44.8426 392.656 44.8387Z" fill="#444444"/>
<path fill-rule="evenodd" clip-rule="evenodd" d="M478.601 152.743C478.415 152.755 478.229 152.769 478.045 152.781C478.232 152.768 478.417 152.755 478.601 152.743Z" fill="#444444"/>
<path fill-rule="evenodd" clip-rule="evenodd" d="M329.797 86.3801C330.168 86.3793 330.539 86.3782 330.91 86.3771C330.538 86.0884 330.167 86.1802 329.797 86.3801Z" fill="#444444"/>
<path fill-rule="evenodd" clip-rule="evenodd" d="M293.361 99.3798C293.175 99.3665 292.989 99.3529 292.805 99.3398C292.992 99.3529 293.177 99.3665 293.361 99.3798Z" fill="#444444"/>
<path fill-rule="evenodd" clip-rule="evenodd" d="M287.798 165.759C288.169 165.81 288.54 165.86 288.911 165.91C288.539 165.86 288.169 165.81 287.798 165.759Z" fill="#444444"/>
<path fill-rule="evenodd" clip-rule="evenodd" d="M359.558 19.1884C359.929 19.2334 360.3 19.2782 360.671 19.323C360.3 19.2782 359.929 19.2334 359.558 19.1884Z" fill="#444444"/>
<path fill-rule="evenodd" clip-rule="evenodd" d="M399.99 21.8981C400.015 22.1768 400.039 22.4552 400.065 22.7325C400.04 22.4533 400.015 22.1758 399.99 21.8981Z" fill="#444444"/>
<path fill-rule="evenodd" clip-rule="evenodd" d="M431.874 99.5074C433.004 100.137 434.223 100.664 435.335 101.306C436.121 101.76 436.761 102.826 437.437 101.935C435.947 101.207 433.533 99.3514 431.874 99.5074Z" fill="#444444"/>
<path fill-rule="evenodd" clip-rule="evenodd" d="M503.422 155.682C503.65 155.031 503.647 154.382 503.4 153.735C503.407 154.385 503.415 155.034 503.422 155.682Z" fill="#444444"/>
<path fill-rule="evenodd" clip-rule="evenodd" d="M502.025 164.861C502.006 165.232 501.987 165.603 501.968 165.974C502.03 165.978 502.511 164.885 502.025 164.861Z" fill="#444444"/>
<path fill-rule="evenodd" clip-rule="evenodd" d="M492.97 29.4075C492.941 28.9436 492.91 28.4796 492.881 28.0168C492.911 28.481 492.941 28.9444 492.97 29.4075Z" fill="#444444"/>
<path fill-rule="evenodd" clip-rule="evenodd" d="M360.949 32.8915C361.321 32.8865 361.693 32.8817 362.061 32.8776C361.689 32.8826 361.319 32.887 360.949 32.8915Z" fill="#444444"/>
<path fill-rule="evenodd" clip-rule="evenodd" d="M443.834 151.427C443.37 151.39 442.907 151.353 442.443 151.316C442.907 151.353 443.371 151.39 443.834 151.427Z" fill="#444444"/>
<path fill-rule="evenodd" clip-rule="evenodd" d="M513.292 167.92C513.25 168.292 513.208 168.663 513.167 169.033C513.209 168.662 513.251 168.291 513.292 167.92Z" fill="#444444"/>
<path fill-rule="evenodd" clip-rule="evenodd" d="M461.635 150.602C461.264 150.559 460.893 150.515 460.522 150.472C460.893 150.515 461.264 150.559 461.635 150.602Z" fill="#444444"/>
<path fill-rule="evenodd" clip-rule="evenodd" d="M464.972 149.944C464.605 150.031 464.187 149.633 463.86 150.095C464.231 150.044 464.601 149.994 464.972 149.944Z" fill="#444444"/>
<path fill-rule="evenodd" clip-rule="evenodd" d="M513.475 160.411C513.497 160.69 513.519 160.968 513.54 161.245C513.518 160.966 513.497 160.689 513.475 160.411Z" fill="#444444"/>
<path fill-rule="evenodd" clip-rule="evenodd" d="M505.457 39.977C505.447 40.2554 505.438 40.5341 505.427 40.8114C505.437 40.5322 505.447 40.2546 505.457 39.977Z" fill="#444444"/>
<path fill-rule="evenodd" clip-rule="evenodd" d="M509.671 163.749C509.633 163.47 509.594 163.192 509.555 162.914C509.594 163.193 509.633 163.471 509.671 163.749Z" fill="#444444"/>
<path fill-rule="evenodd" clip-rule="evenodd" d="M309.215 98.3207C308.844 98.2715 308.473 98.2223 308.103 98.173C308.473 98.2223 308.844 98.2715 309.215 98.3207Z" fill="#444444"/>
<path fill-rule="evenodd" clip-rule="evenodd" d="M513.547 166.252C513.521 166.53 513.494 166.809 513.468 167.086C513.494 166.808 513.521 166.53 513.547 166.252Z" fill="#444444"/>
<path fill-rule="evenodd" clip-rule="evenodd" d="M311.11 96.9957C310.873 97.2733 310.886 97.552 311.104 97.8301C311.106 97.5509 311.108 97.2736 311.11 96.9957Z" fill="#444444"/>
<path fill-rule="evenodd" clip-rule="evenodd" d="M396.272 96.048C396.459 96.0311 396.644 96.0138 396.829 95.9963C396.642 96.0133 396.457 96.0308 396.272 96.048Z" fill="#444444"/>
<path fill-rule="evenodd" clip-rule="evenodd" d="M517.819 36.5723L516.706 36.4288L517.819 36.5723Z" fill="#444444"/>
<path fill-rule="evenodd" clip-rule="evenodd" d="M331.364 101.423C333.423 101.723 331.525 98.8737 330.967 98.4782C330.317 98.0189 329.63 97.8362 329.001 97.2841C328.608 96.9389 328.162 96.1062 327.557 96.1635C326.225 96.2889 326.825 98.1997 327.223 99.0191C328.001 100.623 329.63 101.451 331.364 101.423Z" fill="#444444"/>
<path fill-rule="evenodd" clip-rule="evenodd" d="M398.191 68.6254C399.404 68.1954 405.532 67.0308 402.817 64.5493C401.025 62.9096 396.043 67.1009 398.191 68.6254Z" fill="#444444"/>
<path fill-rule="evenodd" clip-rule="evenodd" d="M426.307 88.0583C426.496 85.8903 420.615 83.4891 421.372 86.3375C421.548 86.9997 423.215 88.6341 423.67 89.0666C424.887 90.2256 426.306 89.9733 426.307 88.0583Z" fill="#444444"/>
<path fill-rule="evenodd" clip-rule="evenodd" d="M481.383 28.1366C480.984 26.7314 480.545 26.0711 479.153 25.5285C478.263 25.1808 476.788 24.8651 476.659 26.3148C476.563 27.3848 478.073 28.4253 478.803 28.8806C480.109 29.6953 480.828 29.6519 481.383 28.1366Z" fill="#444444"/>
<path fill-rule="evenodd" clip-rule="evenodd" d="M401.839 79.8508C401.825 81.3255 402.341 83.0591 403.639 83.9447C404.656 84.6378 406.968 84.9641 406.09 82.9557C405.823 82.344 405.069 82.0411 404.607 81.5878C403.849 80.8413 403.786 80.033 403.362 79.334C403.216 79.0948 403.446 78.5299 402.99 78.3906C402.228 78.1578 401.786 79.3159 401.839 79.8508Z" fill="#444444"/>
<path fill-rule="evenodd" clip-rule="evenodd" d="M374.247 67.791C373.198 67.7894 372.207 68.166 372.817 69.3625C373.28 70.2695 375.287 70.9654 376.196 71.0925C377.362 71.2558 378.664 70.8953 378.024 69.4176C377.491 68.1871 375.401 68.0767 374.247 67.791Z" fill="#444444"/>
<path fill-rule="evenodd" clip-rule="evenodd" d="M365.677 87.2617C365.72 89.9652 370.593 87.1396 370.091 85.1114C369.459 82.5559 366.067 86.0679 365.677 87.2617Z" fill="#444444"/>
<path fill-rule="evenodd" clip-rule="evenodd" d="M421.585 39.6957C421.585 41.992 426.425 39.0513 426.008 37.0423C425.451 34.3646 421.484 37.9613 421.585 39.6957Z" fill="#444444"/>
<path fill-rule="evenodd" clip-rule="evenodd" d="M426.359 29.964C428.403 28.3294 423.715 24.1239 422.369 25.9758C421.15 27.653 425.125 29.8639 426.359 29.964Z" fill="#444444"/>
<path fill-rule="evenodd" clip-rule="evenodd" d="M424.945 64.4534C426.065 64.3527 427.357 64.3639 428.343 63.7214C429.064 63.2527 430.313 61.4423 429.217 60.6607C428.542 60.1795 426.837 61.5497 426.146 61.9096C424.966 62.5234 424.182 62.9059 424.945 64.4534Z" fill="#444444"/>
<path fill-rule="evenodd" clip-rule="evenodd" d="M377.512 79.7505C380.152 79.785 380.987 76.5944 377.806 77.0061C376.96 77.1151 374.876 77.3187 374.856 78.4324C374.833 79.7168 376.514 79.5856 377.512 79.7505Z" fill="#444444"/>
<path fill-rule="evenodd" clip-rule="evenodd" d="M404.338 50.3565C404.528 51.5681 404.856 52.459 405.919 53.1674C406.833 53.7759 408.628 54.5859 408.504 52.768C408.431 51.686 404.826 47.638 404.338 50.3565Z" fill="#444444"/>
<path fill-rule="evenodd" clip-rule="evenodd" d="M455.739 24.6794C454.689 25.1825 453.317 30.542 454.726 31.0131C456.965 31.7627 456.457 25.6281 455.739 24.6794Z" fill="#444444"/>
<path fill-rule="evenodd" clip-rule="evenodd" d="M410.091 75.0226C411.722 73.1705 407.446 69.4888 406.417 71.3726C405.566 72.9285 409.099 74.3649 410.091 75.0226Z" fill="#444444"/>
<path fill-rule="evenodd" clip-rule="evenodd" d="M439.379 25.9224C439.091 23.0844 435.828 27.275 436.058 28.6395C436.461 31.0293 439.529 27.1935 439.379 25.9224Z" fill="#444444"/>
<path fill-rule="evenodd" clip-rule="evenodd" d="M436.881 96.5056C436.898 98.4 440.616 96.4358 440.183 94.436C439.694 92.1769 436.908 95.4495 436.881 96.5056Z" fill="#444444"/>
<path fill-rule="evenodd" clip-rule="evenodd" d="M361.783 97.8331C360.681 94.538 360.036 96.7795 359.727 98.8592C359.628 99.5234 359.18 101.362 360.332 101.15C361.403 100.954 361.696 98.5301 361.783 97.8331Z" fill="#444444"/>
<path fill-rule="evenodd" clip-rule="evenodd" d="M348.3 99.777C347.436 100.369 345.709 104.795 347.65 104.166C349.13 103.687 349.437 100.65 348.3 99.777Z" fill="#444444"/>
<path fill-rule="evenodd" clip-rule="evenodd" d="M391.897 81.6981C391.799 82.8868 391.637 83.2935 391.005 84.2725C390.462 85.1128 390.107 85.5047 390.873 86.4264C391.781 85.7336 392.878 85.1948 393.149 84.0397C393.359 83.1472 393.078 81.7348 391.897 81.6981Z" fill="#444444"/>
<path fill-rule="evenodd" clip-rule="evenodd" d="M417.75 69.46C418.39 68.9518 420.62 66.2408 420.119 65.2573C419.501 64.0429 416.393 67.5931 417.75 69.46Z" fill="#444444"/>
<path fill-rule="evenodd" clip-rule="evenodd" d="M375.749 89.2074C375.058 89.8199 375.377 91.1143 375.258 91.9065C375.139 92.7092 374.47 93.7808 375.171 94.492C376.897 93.5055 376.838 90.6153 375.749 89.2074Z" fill="#444444"/>
<path fill-rule="evenodd" clip-rule="evenodd" d="M434.933 78.9089C434.945 77.9532 432.669 76.2143 432.196 77.3311C431.79 78.2898 434.32 81.1602 434.933 78.9089Z" fill="#444444"/>
<path fill-rule="evenodd" clip-rule="evenodd" d="M216.758 169.851C206.895 172.007 197.032 174.162 187.168 176.318C185.78 176.621 184.391 176.925 183.003 177.228C183.416 164.501 183.829 151.775 184.242 139.047C184.302 137.209 184.362 135.371 184.421 133.533C182.136 135.533 179.737 137.451 177.55 139.558C174.751 142.254 172.059 145.046 169.178 147.662C164.222 152.163 159.015 156.528 153.276 160.003C147.04 163.779 139.846 166.208 132.605 167.047C129.938 167.356 127.523 167.28 124.881 167.005C122.581 166.765 120.282 166.526 117.983 166.286C117.057 166.19 116.13 166.093 115.204 165.997C114.981 165.974 114.252 166.026 114.074 165.875C113.75 165.602 113.581 164.361 113.453 163.967C112.921 162.327 112.392 160.685 111.867 159.043C110.439 154.578 109.031 150.107 107.671 145.622C106.507 141.782 105.283 137.925 104.414 134.005C104.312 133.545 104.088 132.944 104.126 132.468C104.181 131.774 103.852 131.92 104.767 131.911C106.918 131.887 109.193 132.41 111.346 132.563C113.564 132.72 115.786 132.814 118.008 132.836C129.78 132.956 143.328 131.68 152.864 124.058C156.062 121.503 159.273 118.549 161.751 115.264C165.244 110.632 167.149 104.464 167.612 98.7482C168.134 92.3257 167.051 85.7016 165.474 79.4844C165.154 78.2263 165.226 77.7555 165.501 76.439C165.728 75.3462 165.956 74.2531 166.183 73.1603C166.247 72.8569 166.315 71.5819 166.566 71.3947C167.005 71.0679 169.122 71.427 169.636 71.4334L176.014 71.5132C180.121 71.5644 184.229 71.6158 188.336 71.6673C190.469 71.694 192.6 72.0272 194.72 72.2478C199.264 72.7198 203.809 73.1923 208.353 73.6643C209.263 73.7592 210.174 73.854 211.085 73.9483C210.501 79.12 209.918 84.2914 209.334 89.4629C208.899 93.3193 210.416 97.1428 211.225 100.912C213.047 109.405 214.822 118.021 215.498 126.694C216.134 134.86 216.127 143.114 216.334 151.299C216.491 157.483 216.633 163.667 216.758 169.851Z" fill="#FF8179"/>
<path fill-rule="evenodd" clip-rule="evenodd" d="M153.344 13.7707C153.344 13.2959 153.485 12.9634 153.752 12.57C154.367 13.1046 155.331 15.756 156.357 14.0443C156.561 13.7039 156.57 12.4359 157.27 12.8315C157.599 13.0173 157.509 13.9121 157.485 14.2155C157.402 15.2953 156.912 16.8018 155.519 16.7402C154.097 16.6776 153.305 14.9518 153.344 13.7707Z" fill="#444444"/>
<path fill-rule="evenodd" clip-rule="evenodd" d="M154.201 11.3985C151.837 11.8346 152.781 9.70775 154.512 9.53127C155.154 9.46579 156.262 9.50014 156.109 10.448C155.975 11.2863 154.826 11.2831 154.201 11.3985Z" fill="#444444"/>
<path fill-rule="evenodd" clip-rule="evenodd" d="M147.651 18.4077C146.907 18.4783 145.68 17.4288 146.916 17.3009C147.487 17.242 148.686 18.3091 147.651 18.4077Z" fill="#444444"/>
<path fill-rule="evenodd" clip-rule="evenodd" d="M277.458 30.844C276.888 31.2798 275.181 29.8774 274.623 29.6296C272.45 28.6645 269.952 28.1304 267.617 27.7143C262.994 26.8908 258.256 26.4268 253.563 26.2791C250.7 26.1887 247.99 26.2889 245.159 26.594C244.453 26.6699 239.684 27.4657 239.568 26.1584C239.362 23.863 251.978 23.9717 253.179 23.9759C258.642 23.9945 263.575 24.6006 268.88 25.7907C270.315 26.1125 279.141 29.5551 277.458 30.844Z" fill="#444444"/>
<path fill-rule="evenodd" clip-rule="evenodd" d="M126.636 68.7721C123.763 69.6218 120.485 69.5058 117.79 68.1368C117.327 67.9018 116.202 67.402 116.798 66.8145C117.44 66.1829 119.236 67.2546 119.936 67.3917C123.331 68.0578 127.635 66.7378 130.04 64.2621C131.234 63.0338 131.907 61.4812 132.192 59.8091C132.353 58.8553 132.437 57.8465 132.378 56.8797C132.317 55.8553 131.898 54.7542 132.178 53.7348C133.431 54.4774 133.445 56.4327 133.534 57.6955C133.647 59.2875 133.637 60.8184 133.19 62.3696C132.27 65.5635 129.799 67.8364 126.636 68.7721Z" fill="#444444"/>
<path fill-rule="evenodd" clip-rule="evenodd" d="M75.3094 153.847C75.4006 154.091 75.4866 154.319 75.5867 154.587C75.9741 153.875 75.9741 153.875 75.3094 153.847ZM78.9199 172.43C80.3568 173.093 81.9577 171.31 82.7226 170.317C83.9976 168.661 84.565 166.752 85.0676 164.758C85.6236 162.552 86.2661 160.371 86.7829 158.155C87.0126 157.167 87.2326 156.176 87.491 155.194C87.7049 154.382 88.5021 152.935 88.1666 152.092C87.5992 150.666 84.8125 150.273 85.0025 148.361C85.1769 146.603 88.2434 148.48 88.9796 148.853C90.6615 149.705 89.7868 148.63 88.9743 148.007C88.3588 147.534 85.4951 145.49 86.994 144.459C87.9669 143.789 90.083 145.827 90.8893 146.203C91.736 146.597 92.0444 146.494 92.7309 145.799C93.2193 145.305 93.9452 144.679 94.3227 144.112C95.255 142.71 94.0059 139.963 93.8139 138.357C93.7711 137.999 94.0401 136.041 93.7906 135.809C93.4621 135.504 92.0567 135.719 91.5402 135.641C89.688 135.363 87.8607 135.153 86.0055 134.921C84.78 134.768 81.135 133.845 80.4135 135.116C79.8411 136.124 80.0244 138.058 80.0241 139.136C80.0233 141.404 80.016 143.624 79.8016 145.9C79.3327 150.869 78.9808 155.836 78.5291 160.805C78.3097 163.218 77.8557 165.602 77.6282 168.014C77.4869 169.509 77.2639 171.665 78.9199 172.43ZM106.822 135.73C108.182 139.132 109.308 142.638 110.484 146.106C111.029 147.709 111.531 149.329 112.083 150.929C112.612 152.462 113.463 153.843 113.899 155.411C114.723 158.372 115.416 161.313 116.392 164.223C116.533 164.643 116.45 165.57 116.702 165.867C117.012 166.231 118.384 166.177 118.87 166.238C120.857 166.488 122.864 166.681 124.869 166.597C122.993 164.232 120.889 162.06 118.732 159.945C116.843 158.093 114.292 155.989 113.985 153.167C113.575 149.417 117.488 150.171 119.923 150.398C123.319 150.715 127.168 152.092 130.567 151.329C128.211 148.143 124.641 145.767 121.683 143.174C120.53 142.163 119.317 141.051 118.728 139.596C118.428 138.854 118.278 137.999 118.482 137.211C118.729 136.256 119.278 136.082 120.074 135.63C115.356 135.63 110.584 135.462 106.089 133.841C105.911 134.594 106.569 135.097 106.822 135.73ZM127.916 165.783C128.74 166.904 130.225 166.599 131.446 166.528C133.24 166.424 135.029 166.206 136.79 165.847C138.568 165.484 140.351 164.997 142.047 164.346C142.404 164.209 143.514 163.896 143.645 163.467C143.763 163.078 143.078 162.281 142.929 161.985C142.453 161.037 142.218 159.349 143.292 158.673C144.179 158.115 145.489 158.674 146.384 158.938C147.709 159.329 149.29 160.117 150.636 159.517C152.353 158.751 154.054 157.65 155.668 156.686C152.752 154.036 149.887 151.334 146.896 148.765C144.157 146.412 140.857 143.705 139.144 140.463C138.499 139.243 138.082 137.513 138.873 136.241C139.582 135.102 141.012 135.061 142.217 135.166C145.797 135.476 149.325 136.365 152.847 137.029C154.033 137.252 161.661 139.022 161.681 137.097C161.685 136.682 160.895 135.736 160.693 135.406C160.235 134.657 159.767 133.917 159.272 133.192C158.118 131.502 156.864 129.885 155.62 128.262C154.992 127.443 154.19 125.737 152.989 125.919C152.441 126.002 151.892 126.611 151.45 126.927C150.689 127.471 149.899 127.974 149.088 128.442C145.811 130.332 142.193 131.292 138.547 132.183C137.72 132.385 133.772 132.792 133.384 133.607C133.19 134.015 133.636 134.977 133.648 135.417C133.665 136.081 133.519 136.769 133.154 137.331C132.097 138.962 129.783 138.876 128.08 138.827C125.916 138.766 123.7 138.659 121.546 138.923C123.689 140.907 125.913 142.799 128.15 144.674C129.726 145.995 131.483 147.246 132.722 148.909C133.782 150.333 134.571 152.756 133.217 154.289C131.767 155.931 128.499 155.204 126.66 154.924C124.517 154.598 122.392 154.199 120.267 153.773C119.547 153.629 118.804 153.462 118.068 153.424C117.188 153.377 116.865 153.328 117.475 154.145C118.99 156.174 121.268 157.632 122.863 159.614C123.615 160.547 124.49 161.29 125.28 162.186C126.264 163.302 127.037 164.588 127.916 165.783ZM157.404 154.694C158.44 155.748 159.608 154.25 160.448 153.564C161.706 152.535 162.935 151.47 164.212 150.463C166.631 148.558 169.149 146.789 171.423 144.705C172.139 144.047 173.317 143.311 173.535 142.304C173.813 141.02 173.146 139.872 173.828 138.58C175.12 136.133 177.792 138.135 179.534 136.727C180.429 136.004 181.06 134.954 181.765 134.058C182.605 132.993 183.677 131.959 184.161 130.675C184.663 129.34 184.729 128.7 183.793 127.572C182.785 126.356 181.561 125.246 180.752 123.878C180.195 122.935 179.74 121.549 180.616 120.637C181.323 119.9 182.548 120.098 183.464 120.155C184.797 120.238 186.124 120.362 187.434 120.627C188.47 120.836 190.448 121.383 191.443 120.814C193.788 119.474 189.571 116.02 188.637 114.995C186.55 112.706 184.362 110.512 182.192 108.301C180.185 106.258 178.159 104.213 176.274 102.054C174.872 100.448 173.228 98.18 173.98 95.9118C174.59 94.0733 176.642 94.0152 178.275 94.1428C180.667 94.3303 183.048 94.7222 185.429 95.0065C187.205 95.2184 190.621 95.8848 192.135 94.4738C193.7 93.0158 190.359 88.6838 189.495 87.386C187.669 84.6436 185.565 82.0983 183.386 79.6326C182.328 78.4352 181.249 77.2559 180.17 76.0775C179.233 75.0536 178.374 73.7639 177.298 72.8847C176.12 71.9235 174.361 72.0364 172.919 71.8915C171.401 71.7391 169.787 71.5143 168.261 71.5196C166.872 71.5246 167.216 72.8624 167.157 74.0226C167.143 74.3004 166.768 76.7653 167.19 76.804C167.236 76.2552 167.282 75.7064 167.328 75.1574C168.515 75.6444 169.395 76.6927 170.315 77.5444C171.233 78.3944 172.479 79.2596 172.867 80.5096C173.96 84.0378 169.597 82.7862 167.769 82.4279C168.18 86.4356 169.205 90.3307 169.77 94.3111C170.007 95.9791 169.91 97.4886 169.726 99.1474C169.621 100.093 169.633 101.047 169.518 101.992C169.426 102.741 169.077 103.598 169.217 104.352C169.472 105.73 171.212 107.178 171.986 108.345C173.012 109.893 173.918 111.57 174.393 113.377C175.25 116.639 173.789 118.984 170.377 119.298C168.838 119.439 167.135 119.201 165.61 118.984C164.299 118.797 162.625 117.825 161.43 118.704C160.94 119.064 160.603 119.701 160.174 120.141C159.552 120.778 158.852 121.347 158.165 121.912C157.517 122.445 155.745 123.392 155.92 124.208C156.051 124.824 157.119 125.703 157.481 126.159C157.956 126.755 158.427 127.355 158.885 127.966C160.048 129.515 161.157 131.116 162.16 132.773C163.375 134.779 165.079 138.363 163.026 140.442C161.836 141.646 159.861 141.434 158.344 141.197C156.276 140.874 154.222 140.458 152.191 139.957C150.158 139.456 148.108 139.106 146.05 138.725C144.293 138.399 142.249 137.776 140.492 138.421C145.625 144.397 151.899 149.094 157.404 154.694ZM187.353 127.05C188.013 126.278 188.688 125.421 189.273 124.586C189.811 123.818 189.767 123.483 188.86 123.243C188.295 123.094 187.668 123.24 187.092 123.173C186.492 123.103 185.893 122.91 185.306 122.777C184.646 122.629 183.906 122.403 183.225 122.404C182.458 122.406 182.382 122.337 182.768 123.027C183.297 123.972 184.32 124.799 185.05 125.587C185.508 126.083 186.606 127.923 187.353 127.05ZM186.504 137.887C186.851 138.651 189.353 138.091 189.756 137.566C190.636 136.416 188.385 133.74 187.793 132.772C186.9 133.364 186.591 134.147 186.538 135.179C186.501 135.895 186.208 137.237 186.504 137.887ZM185.562 175.846C187.057 175.993 189.016 175.131 190.385 174.658C192.282 174.002 194.254 173.534 196.21 173.097C200.14 172.22 204.203 172.098 208.144 171.256C205.64 167.998 202.611 165.189 200.066 161.965C199.143 160.796 197.786 159.12 198.214 157.517C198.634 155.944 200.258 156.292 201.464 156.654C203.082 157.14 204.645 157.817 206.226 158.407C206.974 158.685 210.315 160.29 210.932 159.25C211.349 158.547 208.978 155.932 208.632 155.48C207.34 153.791 205.939 152.19 204.526 150.602C201.89 147.639 198.899 144.608 196.86 141.189C195.332 138.626 194.82 134.581 198.946 134.743C200.65 134.81 202.386 135.338 204.048 135.686C205.584 136.007 207.854 136.716 209.42 136.32C211.071 135.903 209.173 133.44 208.653 132.627C207.556 130.91 206.267 129.306 205.059 127.667C203.758 125.903 202.371 124.177 201.155 122.354C200.399 121.22 199.172 119.241 199.859 117.807C200.648 116.161 203.358 117.179 204.685 117.428C207.198 117.901 209.663 118.689 212.245 118.689C212.219 117.393 210.892 116.254 210.128 115.334C208.981 113.954 207.801 112.618 206.547 111.333C205.665 110.43 204.701 108.958 203.67 108.262C202.614 107.55 201.991 109.801 201.575 110.638C198.551 116.74 195.246 122.724 191.168 128.198C190.347 129.3 189.142 130.19 189.831 131.597C190.547 133.061 191.492 134.341 191.768 135.993C191.971 137.213 191.864 138.909 190.925 139.836C190.015 140.734 188.678 140.53 187.554 140.881C186.36 141.254 186.696 142.313 186.686 143.373C186.667 145.226 186.645 147.078 186.656 148.932C186.666 150.579 186.689 152.226 186.708 153.873C186.729 155.615 187.153 156.849 187.629 158.489C187.876 159.343 187.961 160.226 187.688 161.085C187.452 161.822 187.066 161.963 186.612 162.485C185.729 163.501 186.012 165.432 185.903 166.723C185.826 167.649 184.532 175.744 185.562 175.846ZM189.241 195.649C189.617 196.122 190.966 195.971 191.493 196.005C192.493 196.071 193.495 196.071 194.495 196.125C196.629 196.241 198.736 196.538 200.877 196.576C202.637 196.607 204.46 196.692 206.151 196.812C206.984 196.872 207.92 196.511 208.731 196.68C209.53 196.847 209.835 197.08 210.7 197.011C212.854 196.839 215.058 197.055 217.215 197.109C219.212 197.158 221.225 197.006 223.224 196.98C225.474 196.95 227.728 197.032 229.977 197.056C232.384 197.08 234.84 196.937 237.216 197.395C236.996 196.384 237.011 195.192 236.195 194.436C235.358 193.662 233.971 193.486 232.895 193.359C231.327 193.175 229.773 193.133 228.209 193.067C227.231 193.025 226.291 192.694 225.319 192.583C223.926 192.424 222.426 192.516 221.022 192.493C220.541 192.486 220.221 192.308 219.779 192.24C219.26 192.161 218.753 192.294 218.188 192.156C217.015 191.87 215.819 191.57 214.681 191.187C213.987 190.954 214.015 190.756 213.446 191.298C213.089 191.637 212.87 192.28 212.569 192.679C212.072 193.339 211.182 194.128 210.415 193.334C209.602 192.493 210.473 191.549 210.293 190.676C210.153 190.002 208.872 189.41 208.233 189.664C207.347 190.016 207.085 191.844 206.137 192.051C204.946 192.312 205.267 190.508 205.429 189.836C205.852 188.079 205.7 188.021 204.297 186.851C203.227 185.959 202.929 185.611 201.601 186.278C200.264 186.949 198.803 187.242 197.312 187.402C195.551 187.592 193.909 187.394 192.186 187.041C191.375 186.876 189.794 186.253 189.264 187.105C188.667 188.065 189.282 190.415 189.303 191.526C189.32 192.354 189.37 193.206 189.291 194.032C189.25 194.459 188.937 195.268 189.241 195.649ZM210.841 170.578C212.079 170.47 213.291 170.142 214.526 169.993C214.976 169.938 215.942 169.955 216.313 169.636C216.768 169.247 216.555 169.285 216.462 168.719C216.021 166.027 215.852 163.42 215.917 160.685C215.966 158.637 216.365 155.452 215.146 153.672C213.708 151.574 211.524 150.021 210.066 147.917C209.277 146.778 208.177 143.722 210.674 143.804C211.667 143.837 212.728 144.466 213.692 144.7C215.057 145.03 215.14 144.698 215.019 143.462C214.736 140.559 214.82 137.643 214.524 134.739C214.22 131.753 213.893 128.766 213.558 125.783C213.395 124.334 213.32 122.799 213.039 121.371C212.765 119.984 211.418 120.731 210.239 120.674C207.116 120.524 204.08 118.609 200.942 118.909C203.559 123.819 208.021 127.548 210.559 132.523C211.437 134.242 212.253 136.931 210.09 138.079C207.679 139.358 203.999 137.737 201.518 137.325C200.65 137.181 197.201 136.173 197.041 137.517C196.954 138.24 198.358 139.931 198.709 140.453C199.509 141.645 200.429 142.749 201.294 143.892C203.022 146.175 205.077 148.162 206.868 150.396C208.431 152.345 210.348 154.254 211.608 156.416C212.79 158.445 213.018 162.102 209.694 161.702C206.291 161.293 203.332 158.638 199.863 158.56C201.636 160.896 203.659 163.024 205.627 165.193C206.574 166.237 207.503 167.295 208.4 168.382C208.975 169.078 209.764 170.672 210.841 170.578ZM215.485 149.402C215.409 148.43 215.645 147.888 214.763 147.355C214.194 147.012 212.851 146.479 212.228 146.715C212.463 146.988 215.156 150.209 215.444 149.949C215.516 149.774 215.529 149.592 215.485 149.402ZM210.789 104.709C210.627 102.84 210.251 100.992 210.17 99.1162C210.115 97.8482 210.296 96.1605 209.437 95.1027C208.398 97.0477 207.699 99.1513 206.661 101.097C206.216 101.93 205.721 102.734 205.261 103.558C204.948 104.121 204.027 105.33 204.099 106.001C204.223 107.148 206.501 108.791 207.239 109.609C208.811 111.353 210.351 113.128 211.957 114.842C211.74 111.446 211.082 108.098 210.789 104.709ZM210.834 74.3405C210.4 73.7308 207.373 74.019 206.72 73.9608C204.664 73.7792 202.43 73.617 200.441 73.0649C203.6 76.9739 206.438 81.2061 208.294 85.8994C208.998 83.9819 209.462 81.9854 209.892 79.9914C210.111 78.9771 210.299 77.9585 210.462 76.9336C210.535 76.4702 211.115 74.7354 210.834 74.3405ZM201.188 102.947C202.034 103.37 204.6 97.0524 204.714 96.3524C203.497 96.6302 198.652 96.8572 198.367 98.3928C198.234 99.1101 199.062 99.976 199.425 100.495C199.868 101.13 200.488 102.598 201.188 102.947ZM193.499 96.517C191.708 98.7627 188.363 98.3088 185.862 97.9898C184.168 97.7731 182.49 97.4822 180.801 97.2332C179.134 96.9871 177.113 96.5326 175.496 97.219C178.117 100.904 181.492 103.952 184.678 107.13C186.311 108.759 187.888 110.443 189.459 112.133C190.999 113.791 192.227 115.878 193.861 117.414C195.247 114.881 196.56 112.31 197.896 109.751C198.458 108.676 199.18 107.708 199.757 106.645C200.392 105.474 200.489 104.936 199.679 103.875C198.473 102.295 196.778 100.156 197.02 98.0351C197.303 95.5583 200.245 95.2863 202.172 94.7522C203.14 94.4838 204.251 94.2802 205.136 93.7915C206.26 93.1699 206.311 92.1441 206.683 91.031C207.133 89.6837 207.546 88.8087 207.071 87.3916C206.675 86.2123 206.083 85.0416 205.536 83.9274C204.387 81.5849 202.949 79.4282 201.425 77.3163C200.423 75.9284 199.242 73.1589 197.45 72.7882C196.178 72.5253 194.574 72.6333 193.27 72.5612C191.75 72.4775 190.227 72.43 188.706 72.3643C185.554 72.2277 182.177 71.9296 179.04 72.3454C182.735 76.3406 186.469 80.2359 189.756 84.5868C191.873 87.3891 196.388 92.8968 193.499 96.517ZM207.639 66.2939C205.925 63.1159 204.334 59.9735 202.014 57.1985C200.008 54.7985 198.188 52.2944 196.106 49.9505C191.737 45.0336 186.068 41.4 180.782 37.5795C179.586 36.715 178.056 36.2438 176.743 35.4898C175.12 34.5572 173.38 33.7787 171.623 33.134C168.435 31.9647 164.775 31.3681 161.38 31.6053C157.628 31.8676 154.797 33.1932 152.468 36.1201C150.184 38.9888 149.831 42.1557 149.769 45.7612C149.74 47.4745 149.718 49.1979 149.735 50.9115C149.752 52.6073 149.972 53.6795 151.01 54.9859C151.865 56.0609 153.666 56.6039 154.895 57.1009C156.567 57.7768 158.132 58.5305 159.692 59.44C160.366 59.8333 161.969 61.3141 162.801 61.157C164.028 60.9253 164.328 58.7483 164.45 57.7826C164.906 54.169 164.858 50.4737 164.636 46.8426C164.523 44.9832 163.658 42.1893 164.149 40.3077C164.352 39.5262 164.816 39.2489 165.39 39.9392C166.1 40.7928 166.274 42.7968 166.457 43.8265C167.103 47.4531 167.061 51.0989 167.082 54.7662C167.09 56.2234 167.903 56.9791 168.437 58.2771C169.119 59.9374 169.677 61.6696 170.013 63.4333C170.208 64.4571 170.346 65.5001 170.331 66.5445C170.323 67.1181 170.04 68.0304 170.261 68.5752C170.688 69.6324 173.342 69.0414 174.232 69.0216C178.197 68.9332 182.151 68.7221 186.122 68.6709C194.162 68.5677 202.259 69.762 210.133 71.279C209.317 69.6096 208.521 67.9299 207.639 66.2939ZM204.183 49.328C204.813 49.4309 206.929 50.588 207.295 49.8546C207.607 49.2276 206.063 46.9825 205.832 46.3845C205.296 44.996 205.166 43.4457 204.851 41.9963C204.652 41.0829 204.633 39.2775 204.139 38.4637C203.587 37.5539 202.299 38.0109 201.385 38.0381C199.826 38.0846 198.252 38.0837 196.692 38.0782C195.105 38.0726 193.52 38.0312 191.933 38.0359C190.312 38.0409 188.71 37.7717 187.101 37.7717C187.281 38.3546 188.036 38.6392 188.51 38.9134C189.24 39.3362 189.854 39.8388 190.494 40.3906C191.994 41.6834 193.489 42.7167 194.747 44.259C195.883 45.6533 197.47 47.1441 198.881 48.265C199.637 48.8649 200.153 48.8168 201.068 48.809C202.163 48.7996 203.115 49.1534 204.183 49.328ZM208.068 46.2215C208.462 47.4286 208.499 47.7833 209.776 47.6976C211.418 47.5869 213.064 47.484 214.709 47.3647C218.461 47.0932 222.216 46.5325 225.969 46.3433C229.168 46.182 232.623 45.7957 235.802 46.1289C237.286 46.2844 238.868 45.9851 240.381 46.0443C242.208 46.1161 244.052 46.1086 245.799 46.671C247.256 47.1402 248.473 47.3936 249.514 48.6071C250.563 49.8292 251.279 51.3696 251.976 52.8073C253.327 55.5953 254.385 59.2351 256.763 61.3464C257.363 61.8799 258.389 62.7852 259.262 62.6848C260.7 62.5193 260.259 60.6152 260.132 59.6492C259.707 56.3944 258.429 53.5813 257.476 50.4726C257.191 49.5433 256.626 47.0887 258.102 46.7466C259.165 46.5005 260.834 48.838 261.444 49.4657C262.788 50.8481 264.104 52.1895 265.607 53.4067C266.847 54.4116 268.094 55.5216 269.809 55.3061C268.988 53.0926 268.083 50.9496 266.739 48.9968C265.585 47.3202 263.641 45.8115 262.92 43.8832C262.377 42.431 262.857 40.4499 264.546 41.7276C266.013 42.8368 267.283 44.1944 268.782 45.2839C270.75 46.7133 272.983 47.8981 275.316 48.6049C276.087 48.8388 277.456 49.2916 278.196 48.7337C279.299 47.9017 278.174 46.1659 277.555 45.401C271.748 38.2292 262.091 35.6572 253.28 35.1165C250.984 34.9755 248.595 35.2019 246.289 35.2345C244.101 35.2648 242.071 35.5329 239.908 35.8531C235.42 36.517 230.922 37.0571 226.453 37.7205C225.257 37.8982 223.838 38.2498 222.646 38.2036C222.156 38.1847 221.901 38.0531 221.411 38.1841C220.994 38.2962 220.694 38.5198 220.228 38.5952C217.58 39.0222 214.884 39.1888 212.201 39.223C210.91 39.2394 209.606 39.2149 208.325 39.0458C207.571 38.9462 206.798 38.6325 206.586 39.5289C206.425 40.2048 206.96 41.4854 207.144 42.1362C207.519 43.4671 207.648 44.9326 208.068 46.2215ZM160.06 23.0387C160.512 23.0559 161.256 23.1235 161.402 22.5594C161.679 21.4965 160.258 22.1453 159.995 21.4761C159.702 20.7312 160.702 20.5383 161.143 20.418C162.042 20.1724 161.811 20.2249 161.835 19.291C161.858 18.4296 162.136 17.645 162.486 16.8646C162.971 15.7804 162.996 15.8352 161.907 15.7107C160.074 15.5013 159.674 13.8819 158.996 12.4003C158.577 11.4861 158.114 10.5943 157.853 9.61761C157.695 9.02503 157.717 8.08328 157.138 7.7494C156.356 7.29837 154.536 7.76473 153.712 7.87309C152.336 8.05408 150.888 8.25943 149.571 8.72153C148.442 9.11779 148.012 10.0369 146.994 10.1997C146.336 10.3046 142.376 10.0564 142.896 11.2702C143.22 12.0265 144.749 11.5944 145.313 11.5718C146.033 11.5431 146.91 11.4359 147.623 11.5766C148.337 11.7176 148.403 11.9845 148.682 12.6945C148.014 12.6613 145.514 12.2877 144.968 12.7793C144.484 13.2153 144.842 13.6933 145.329 13.8535C146.28 14.1664 147.565 13.5594 148.562 13.8203C149.273 14.0061 149.223 14.0314 149.516 14.7448C149.668 15.117 149.842 15.4976 149.907 15.8979C150.274 18.1587 148.201 16.4037 147.339 15.903C145.762 14.987 144.054 15.1581 144.36 17.3587C144.461 18.0869 144.853 18.724 145.357 19.2491C146.068 19.9891 146.252 20.1287 146.288 21.2469C146.32 22.209 146.216 23.2384 146.557 24.1623C146.932 25.1798 147.732 26.047 148.356 26.9156C149.107 27.9589 149.883 28.9894 150.606 30.0514C150.918 30.5089 151.363 31.6607 151.964 31.8134C152.529 31.9566 153.406 31.0488 153.874 30.789C155.01 30.1593 156.257 29.7493 157.424 29.1858C156.446 28.3161 155.575 27.3295 154.618 26.4559C153.87 25.7736 153.482 25.6437 153.729 24.4917C154.283 21.9075 158.169 22.968 160.06 23.0387ZM145.356 77.3422C142.266 80.3358 137.67 82.2071 133.49 82.9603C129.111 83.7496 124.117 84.3343 119.851 82.8081C115.477 81.243 111.387 78.9932 107.684 76.1934C107.228 75.8491 102.128 70.8676 101.717 71.2604C103.232 73.53 104.822 75.7434 106.428 77.9488C107.217 79.0318 109.946 82.7606 108.377 84.1095C107.338 85.0029 105.57 83.5636 104.717 82.9861C102.663 81.5966 100.375 80.8484 97.8778 80.8484C99.0315 82.9664 100.785 84.8419 101.723 87.0792C102.166 88.1364 101.941 88.0597 100.939 87.7724C99.6863 87.413 98.2653 86.9972 96.9577 86.9382C96.3497 86.9107 95.1151 87.1782 95.0122 87.9723C94.914 88.7322 96.5266 90.1657 96.9767 90.7098C98.6263 92.7051 100.308 94.5981 102.347 96.2069C106.262 99.2945 110.909 101.285 115.639 102.764C120.471 104.274 125.636 104.729 130.576 103.514C133.023 102.911 135.268 102.094 137.46 100.874C138.453 100.322 139.497 100.072 140.451 99.423C141.443 98.7491 142.448 98.0766 143.46 97.4349C145.544 96.1134 146.836 94.7842 148.291 92.7986C148.876 92.0001 149.679 91.4082 150.236 90.6219C150.851 89.7555 151.483 88.8729 152.056 87.9612C154.697 83.7566 157.285 79.2368 158.825 74.4965C159.619 72.0525 160.158 69.5384 160.824 67.0585C161.054 66.2052 161.9 64.5642 161.723 63.6975C161.553 62.8614 160.23 62.5224 159.575 62.1677C157.664 61.1331 155.746 60.2147 153.88 59.1146C151.304 57.5946 151.76 60.7114 151.593 62.511C151.097 67.861 149.3 73.5228 145.356 77.3422ZM167.152 79.3873C167.696 79.8535 169.072 80.1427 169.767 79.93C169.082 78.9084 168.025 78.238 167.136 77.4159C167.039 77.981 166.609 78.922 167.152 79.3873ZM163.834 115.739C165.086 115.83 166.392 116.206 167.632 116.216C168.739 116.225 170.14 116.315 171.215 116.077C174.182 115.421 172.428 112.736 171.395 110.983C170.824 110.014 170.102 109.147 169.507 108.195C169.363 107.965 168.964 107.028 168.646 106.997C168.177 106.951 168.031 107.719 167.805 108.19C167.194 109.464 166.629 110.78 165.936 112.012C165.238 113.25 164.264 114.362 163.834 115.739ZM131.739 134.592C131.482 133.167 127.314 134.614 126.371 134.784C126.1 134.833 122.834 135.231 122.864 135.515C123.944 135.595 132.058 136.366 131.739 134.592ZM75.0527 166.409C74.4141 166.687 74.4366 164.654 74.4071 164.385C74.3476 163.841 74.2728 162.863 74.549 162.385C74.7517 162.035 74.8112 162.213 74.92 162.121C75.8117 161.364 74.735 161.041 74.5345 160.438C74.4727 160.253 74.4669 159.743 74.5592 159.588C74.8224 159.145 74.8952 159.476 75.2081 159.29C75.4179 159.166 75.8434 159.473 75.7202 158.906C75.6187 158.437 75.2604 158.725 75.081 158.578C74.3988 158.02 74.4683 157.289 74.5776 156.397C74.6813 155.551 74.7815 154.645 75.0307 153.843C75.1584 153.432 75.3327 153.617 75.3188 153.131C75.3116 152.878 74.9264 152.627 74.9136 152.308C74.8983 151.912 75.2657 151.276 75.2863 150.858C75.3136 150.31 75.3186 149.833 75.2574 149.315C75.2198 148.997 75.1358 148.882 75.1183 148.495C75.1019 148.131 75.1817 147.704 75.1892 147.325C75.2109 146.247 75.3547 145.164 75.5439 144.134C75.6551 143.972 75.7424 143.798 75.8067 143.612C75.7625 143.419 75.6885 143.238 75.585 143.069C75.5564 142.576 75.5658 142.095 75.5717 141.595C75.5828 140.668 75.4059 139.788 75.3517 138.874C75.3358 138.603 75.229 138.15 75.4176 137.899C75.5614 137.708 76.064 137.755 76.119 137.572C76.2779 137.045 75.8025 137.359 75.6996 137.093C75.617 136.879 75.659 136.598 75.6454 136.383C75.6073 135.803 76.4431 131.856 77.1671 132.369C76.8786 132.164 77.4447 130.805 77.6285 130.575C78.3111 129.72 78.7185 130.689 79.2723 131.29C80.0469 132.132 80.7214 131.591 81.7277 131.401C82.9738 131.166 84.3428 131.248 85.6058 131.276C86.9005 131.304 88.2136 131.377 89.5031 131.491C90.8915 131.613 92.2363 132.033 93.6387 132.012C95.7172 131.981 97.823 132.029 99.8996 131.955C100.315 131.94 101.321 131.983 101.495 131.455C101.561 131.256 101.186 130.839 101.13 130.62C101.021 130.2 101.013 129.648 101.198 129.236C101.758 127.995 102.923 129.008 103.744 129.46C104.981 130.139 106.262 130.718 107.628 131.085C113.075 132.551 119.502 132.469 125.064 131.777C130.713 131.075 136.297 129.374 141.804 127.981C146.832 126.709 151.473 123.889 155.333 120.438C159.267 116.92 162.373 112.041 164.316 107.143C166.481 101.686 164.906 96.1927 164.851 90.6116C164.824 87.8283 164.205 85.112 164.035 82.3375C163.871 79.6465 164.101 77.1216 164.908 74.4876C165.114 73.8168 165.403 73.1428 165.553 72.4564C165.692 71.8208 165.446 71.3107 165.528 70.7113C165.703 69.428 167.121 69.5582 167.741 68.6042C168.303 67.7405 167.724 66.3963 167.525 65.4701C167.18 63.8616 166.75 62.2729 166.354 60.6764C165.946 61.627 165.565 62.5752 165.318 63.5826C165.255 63.8407 165.249 64.2963 165.073 64.5255C164.945 64.6913 164.622 64.6699 164.522 64.8229C164.181 65.3385 164.22 65.8556 164.161 66.5187C164.046 67.8051 163.838 69.0773 163.627 70.3503C162.916 74.6267 162.375 78.8413 160.695 82.8782C157.599 90.3173 153.417 97.2396 147.232 102.516C144.429 104.908 140.865 106.395 137.472 107.655C133.426 109.158 129.577 109.972 125.233 109.582C121.133 109.214 117.036 107.941 113.281 106.291C109.582 104.665 106.11 103.234 102.952 100.614C99.5773 97.8145 96.207 94.436 93.886 90.6897C93.0396 89.3235 91.5327 86.5052 91.902 84.794C92.3757 82.5998 95.7459 84.0467 96.963 84.5012C95.9389 82.8248 93.1973 79.8396 94.5605 77.7488C96.55 74.6973 101.758 77.7875 103.89 78.9184C102.791 76.683 101.111 74.8047 99.921 72.6235C99.3314 71.5427 97.7009 67.1475 100.096 66.9097C100.821 66.8377 101.591 67.6657 102.104 68.0807C103.098 68.8867 104.084 69.702 105.071 70.518C107.226 72.3017 109.502 73.8187 111.984 75.1104C116.953 77.6951 121.759 79.0677 127.402 78.5178C132.21 78.05 137.511 76.5884 141.25 73.4184C143.496 71.5151 145.281 69.4096 146.434 66.6741C147.707 63.6536 148.519 60.3354 149.41 57.1841C148.029 56.8283 147.061 57.0344 147.328 55.3915C147.647 53.4222 147.577 51.4294 147.589 49.4304C147.613 45.2867 147.69 41.0974 148.986 37.1208C149.216 36.4132 149.42 35.6839 149.817 35.0467C150.307 34.261 150.762 34.1442 150.131 33.2875C148.917 31.6381 147.655 30.2285 146.754 28.3333C146.286 27.3476 145.851 26.3822 145.273 25.4607C144.326 23.9498 143.088 22.8415 141.873 21.5325C140.478 20.0306 139.385 18.6137 138.668 16.6842C138.333 15.7836 137.876 14.8875 137.703 13.9361C137.496 12.8017 137.711 11.6413 137.809 10.5063C138.132 6.74126 139.397 3.70296 143.098 2.23191C146.107 1.03628 149.565 0.521418 152.718 1.44587C156.534 2.56465 158.342 5.91269 160.159 9.1527C160.672 10.0664 160.987 11.0331 161.452 11.9604C161.929 12.9109 162.423 12.9124 163.3 13.2981C165.04 14.0623 164.893 16.2666 164.137 17.7156C163.178 19.5568 163.372 21.69 162.545 23.6122C161.698 25.5803 160.384 26.1288 158.379 26.5699C159.143 27.1768 159.84 27.9706 160.814 28.2301C161.997 28.545 163.429 28.2446 164.653 28.2618C167.194 28.2977 169.764 28.642 172.179 29.4545C174.55 30.2519 176.676 31.5286 178.88 32.6709C179.888 33.1929 180.828 33.9378 181.979 34.0894C183.096 34.2365 184.222 33.9612 185.345 34.1055C187.809 34.4223 190.51 34.0229 193.023 33.9684C195.729 33.9091 198.445 33.947 201.145 33.7489C202.312 33.6636 203.465 33.5409 204.635 33.6427C205.699 33.7348 206.334 33.4844 207.253 34.2126C207.865 34.6966 208.352 35.8811 209.073 36.0425C209.841 36.2146 211.354 35.7329 212.113 35.6186C214.663 35.2339 217.234 34.7255 219.768 34.2565C220.956 34.0365 222.076 33.636 223.274 33.4294C224.51 33.2157 225.794 33.1462 227.015 32.8714C228.992 32.4267 231.126 32.2609 233.186 31.9766C235.6 31.644 238.082 30.9422 240.514 30.8535C250.696 30.4819 262.108 29.8772 271.136 35.5226C273.256 36.8482 275.434 38.541 277.067 40.4371C278.567 42.179 280.409 44.4837 280.792 46.8048C281.134 48.8766 280.884 52.5063 278.114 52.5316C275.412 52.5564 272.636 50.9435 270.312 49.7489C271.304 52.1292 274.322 57.2274 271.703 59.5388C269 61.9241 264.023 56.7482 262.238 55.0866C262.591 57.6299 265.11 66.8725 260.343 67.0157C255.691 67.1553 252.992 61.4201 251.334 58.0154C250.459 56.2178 249.806 54.1059 248.386 52.6432C246.957 51.1724 244.977 51.221 243.043 51.033C238.344 50.576 233.67 50.5524 228.944 50.4392C222.961 50.2962 217.086 51.282 211.096 50.7251C211.172 51.8802 210.733 53.9824 209.563 54.4246C207.839 55.0763 205.725 54.1396 203.96 54.1396C204.078 54.8457 205.084 55.5898 205.507 56.123C206.266 57.0784 206.92 58.1033 207.53 59.1586C208.724 61.2196 209.993 63.2842 210.84 65.5182C211.266 66.6422 211.63 67.8012 211.937 68.963C212.113 69.631 212.11 70.6296 212.468 71.22C212.912 71.9543 213.594 71.5304 214.157 72.1062C214.969 72.9364 214.122 73.3731 213.866 74.1049C213.589 74.8968 213.937 76.2379 213.831 77.1082C213.673 78.4149 213.505 79.7308 213.288 81.0292C212.892 83.4022 212.051 85.5973 211.488 87.9139C210.954 90.1115 212.4 92.4353 212.876 94.5609C213.431 97.0285 213.752 99.5248 214.321 101.987C214.921 104.587 215.199 107.265 215.614 109.899C216.018 112.472 216.6 115.014 216.995 117.59C217.748 122.497 218.227 127.494 218.82 132.421C219.132 135.004 219.371 137.621 219.394 140.223C219.415 142.661 219.759 145.041 219.809 147.474C219.862 150.052 219.893 152.633 220.004 155.209C220.114 157.758 219.798 160.295 219.683 162.84C219.627 164.053 219.587 165.268 219.605 166.482C219.62 167.507 219.901 168.706 219.647 169.709C219.145 171.692 216.354 172.883 214.602 173.46C212.461 174.165 210.2 174.653 208.008 175.174C206.94 175.428 205.858 175.644 204.772 175.803C204.35 175.865 203.861 175.84 203.466 176.02C202.872 176.29 202.989 176.154 202.958 176.83C202.907 177.921 203.227 179.117 203.393 180.187C203.546 181.172 203.351 182.792 203.732 183.675C204.165 184.679 207.219 185.502 207.966 184.821C208.493 184.34 208.644 183.432 209.265 183.028C210.159 182.444 210.57 183.261 210.565 184.139C210.562 184.8 210.062 185.598 210.663 186.08C211.184 186.499 212.283 186.28 212.787 185.935C213.625 185.361 215.366 181.804 215.792 184.829C215.892 185.542 215.585 186.372 216.189 186.913C216.755 187.42 218.12 187.397 218.834 187.488C219.974 187.632 220.972 187.68 222.123 187.656C223.407 187.628 224.621 187.929 225.883 187.986C227.851 188.074 229.825 188.341 231.837 188.38C233.891 188.42 236.129 188.956 237.708 190.35C239.522 191.949 239.149 193.928 238.803 196.071C238.575 197.488 240.382 199.019 238.558 200.258C237.825 200.755 236.609 200.65 235.768 200.658C234.329 200.671 232.907 200.503 231.466 200.584C220.976 201.168 210.446 200.732 199.958 200.386C197.508 200.306 194.963 200.418 192.534 200.122C191.451 199.99 190.377 199.802 189.293 199.686C188.365 199.587 187.257 199.75 186.371 199.448C184.176 198.702 186.524 196.431 186.699 195.134C187.039 192.617 186.895 189.949 186.912 187.413C186.929 184.716 186.912 182.019 186.912 179.322C185.745 179.403 182.471 180.267 181.556 179.266C180.8 178.438 182.087 176.709 182.15 175.715C182.407 171.662 182.32 167.606 182.626 163.55C182.941 159.367 182.902 155.221 183.034 151.037C183.174 146.569 183.491 142.116 183.491 137.641C180.226 141.097 177.108 144.892 173.478 147.973C171.924 149.293 170.23 150.434 168.606 151.665C166.777 153.051 165.073 154.593 163.254 155.993C159.87 158.596 155.847 160.119 152.271 162.433C148.658 164.774 144.801 166.701 140.641 167.859C136.093 169.125 131.271 169.546 126.564 169.303C124.307 169.187 122.06 168.897 119.836 168.491C118.909 168.322 117.992 168.101 117.064 167.935C115.753 167.7 115.114 167.92 113.886 168.16C112.272 168.476 111.87 166.118 111.392 164.986C110.509 162.895 110.128 160.611 109.347 158.474C107.982 154.735 106.724 151.039 105.516 147.238C105.242 146.375 105.059 144.879 104.031 144.758C103.336 144.676 102.141 145.45 101.46 145.664C100.276 146.035 99.1548 146.203 97.9221 146.233C96.8832 146.259 96.7592 146.648 96.1097 147.387C95.5142 148.065 94.4392 148.454 94.6414 149.438C94.761 150.02 95.3799 150.47 95.4956 151.128C95.9106 153.491 93.5394 151.448 92.7058 150.932C92.201 152.046 96.0151 153.282 94.6253 154.859C93.9447 155.631 92.5256 154.458 91.8483 154.158C90.2688 153.459 90.0288 155.361 89.6079 156.593C88.8361 158.855 88.3193 161.229 87.7277 163.544C87.1578 165.774 86.6944 168.053 85.7952 170.182C84.9939 172.08 83.5982 173.319 82.6016 175.033C82.111 175.876 81.5695 176.484 80.5092 176.523C79.7919 176.551 78.4651 176.269 77.7876 175.995C77.1479 175.736 76.4542 174.95 76.007 174.456C75.3859 173.771 75.5085 173.108 75.0057 172.27C75.0274 172.691 75.1214 173.083 75.1439 173.494C74.226 172.772 75.1411 171.635 74.9745 170.719C74.9219 170.429 74.6229 170.186 74.606 169.881C74.5985 169.756 74.8649 169.47 74.883 169.296C74.9041 169.09 74.9208 168.492 74.8624 168.339C74.8201 168.23 74.4669 167.671 74.4747 167.772C74.4694 167.698 74.3445 167.581 74.4116 167.337C74.5128 166.968 75.0994 166.903 75.0527 166.409Z" fill="#444444"/>
</svg>
