<svg width="15" height="18" viewBox="0 0 15 18" fill="none" xmlns="http://www.w3.org/2000/svg">
<path fill-rule="evenodd" clip-rule="evenodd" d="M0.969669 10.2197C0.676776 10.5126 0.676776 10.9874 0.969669 11.2803L7.21967 17.5303C7.51256 17.8232 7.98744 17.8232 8.28033 17.5303L14.5303 11.2803C14.8232 10.9874 14.8232 10.5126 14.5303 10.2197C14.2374 9.92678 13.7626 9.92678 13.4697 10.2197L8.5 15.1893L8.5 0.75C8.5 0.335787 8.16421 3.24086e-07 7.75 3.0598e-07C7.33579 2.87874e-07 7 0.335787 7 0.75L7 15.1893L2.03033 10.2197C1.73744 9.92678 1.26256 9.92678 0.969669 10.2197Z" fill="white"/>
</svg>
