<svg width="32" height="32" viewBox="0 0 32 32" fill="none" xmlns="http://www.w3.org/2000/svg">
<circle cx="15.9759" cy="15.9759" r="15.9759" fill="#1F1A20"/>
<path fill-rule="evenodd" clip-rule="evenodd" d="M15.976 15.976C15.976 14.3316 17.309 12.9986 18.9534 12.9986C20.5977 12.9986 21.9308 14.3316 21.9308 15.976C21.9308 17.6204 20.5977 18.9534 18.9534 18.9534C17.309 18.9534 15.976 17.6204 15.976 15.976Z" fill="#1ABCFE"/>
<path fill-rule="evenodd" clip-rule="evenodd" d="M10.0214 21.9308C10.0214 20.2864 11.3544 18.9534 12.9988 18.9534H15.9762V21.9308C15.9762 23.5752 14.6432 24.9082 12.9988 24.9082C11.3544 24.9082 10.0214 23.5752 10.0214 21.9308Z" fill="#0ACF83"/>
<path fill-rule="evenodd" clip-rule="evenodd" d="M15.976 7.0437V12.9985H18.9534C20.5977 12.9985 21.9308 11.6655 21.9308 10.0211C21.9308 8.37673 20.5977 7.0437 18.9534 7.0437H15.976Z" fill="#FF7262"/>
<path fill-rule="evenodd" clip-rule="evenodd" d="M10.0214 10.0214C10.0214 11.6657 11.3545 12.9988 12.9988 12.9988H15.9763V7.04395H12.9988C11.3545 7.04395 10.0214 8.37698 10.0214 10.0214Z" fill="#F24E1E"/>
<path fill-rule="evenodd" clip-rule="evenodd" d="M10.0214 15.976C10.0214 17.6204 11.3544 18.9534 12.9988 18.9534H15.9762V12.9986H12.9988C11.3544 12.9986 10.0214 14.3316 10.0214 15.976Z" fill="#A259FF"/>
</svg>
