<svg width="32" height="32" viewBox="0 0 32 32" fill="none" xmlns="http://www.w3.org/2000/svg">
<circle cx="15.9999" cy="15.9999" r="15.9999" fill="white"/>
<path d="M9.83737 20.6155V23.9054C9.83737 24.5761 10.386 25.1197 11.0618 25.1197H14.3254V20.6155H9.83737Z" fill="#188038"/>
<path d="M18.515 25.1207H21.7756C22.4513 25.1207 23 24.5771 23 23.9064V20.6155H18.515V25.1207Z" fill="#1967D2"/>
<path d="M18.514 20.6155H14.3254V25.1207H18.514V20.6155Z" fill="#34A853"/>
<path d="M11.0618 7C10.386 7 9.83737 7.54361 9.83737 8.2143V20.6155H14.3254V11.5385H18.514V7H11.0618Z" fill="#FBBC05"/>
<path d="M23 11.5385H18.515V20.6155H23V11.5385Z" fill="#4285F4"/>
<path d="M18.515 11.5385H22.999L18.515 7V11.5385Z" fill="#EA4335"/>
</svg>
