<svg width="24" height="24" viewBox="0 0 24 24" fill="none" xmlns="http://www.w3.org/2000/svg">
<rect x="1.5" y="1.5" width="21" height="21" rx="10.5" fill="white"/>
<path d="M9.87325 8.05553C9.87325 8.673 9.33805 9.17355 8.67784 9.17355C8.01763 9.17355 7.48242 8.673 7.48242 8.05553C7.48242 7.43806 8.01763 6.9375 8.67784 6.9375C9.33805 6.9375 9.87325 7.43806 9.87325 8.05553Z" fill="#699BF7"/>
<path d="M7.6459 9.99535H9.68934V16.1875H7.6459V9.99535Z" fill="#699BF7"/>
<path d="M12.9793 9.99535H10.9358V16.1875H12.9793C12.9793 16.1875 12.9793 14.2381 12.9793 13.0193C12.9793 12.2877 13.2291 11.5529 14.2258 11.5529C15.3522 11.5529 15.3454 12.5103 15.3402 13.252C15.3333 14.2215 15.3497 15.2109 15.3497 16.1875H17.3931V12.9194C17.3758 10.8327 16.8321 9.87113 15.0432 9.87113C13.9808 9.87113 13.3223 10.3534 12.9793 10.7898V9.99535Z" fill="#699BF7"/>
</svg>
