<svg width="25" height="24" viewBox="0 0 25 24" fill="none" xmlns="http://www.w3.org/2000/svg">
<rect x="2.25" y="1.5" width="21" height="21" rx="10.5" fill="#333333"/>
<path d="M10.6233 8.05553C10.6233 8.673 10.088 9.17355 9.42784 9.17355C8.76763 9.17355 8.23242 8.673 8.23242 8.05553C8.23242 7.43806 8.76763 6.9375 9.42784 6.9375C10.088 6.9375 10.6233 7.43806 10.6233 8.05553Z" fill="white"/>
<path d="M8.3959 9.99535H10.4393V16.1875H8.3959V9.99535Z" fill="white"/>
<path d="M13.7293 9.99535H11.6858V16.1875H13.7293C13.7293 16.1875 13.7293 14.2381 13.7293 13.0193C13.7293 12.2877 13.9791 11.5529 14.9758 11.5529C16.1022 11.5529 16.0954 12.5103 16.0902 13.252C16.0833 14.2215 16.0997 15.2109 16.0997 16.1875H18.1431V12.9194C18.1258 10.8327 17.5821 9.87113 15.7932 9.87113C14.7308 9.87113 14.0723 10.3534 13.7293 10.7898V9.99535Z" fill="white"/>
</svg>
