<svg width="24" height="24" viewBox="0 0 24 24" fill="none" xmlns="http://www.w3.org/2000/svg">
<rect x="1.5" y="1.5" width="21" height="21" rx="10.5" fill="#FFFFFF"/>
<path d="M9.87301 8.05553C9.87301 8.673 9.3378 9.17355 8.67759 9.17355C8.01738 9.17355 7.48218 8.673 7.48218 8.05553C7.48218 7.43806 8.01738 6.9375 8.67759 6.9375C9.3378 6.9375 9.87301 7.43806 9.87301 8.05553Z" fill="#FF8179"/>
<path d="M7.64565 9.99535H9.6891V16.1875H7.64565V9.99535Z" fill="#FF8179"/>
<path d="M12.979 9.99535H10.9356V16.1875H12.979C12.979 16.1875 12.979 14.2381 12.979 13.0193C12.979 12.2877 13.2288 11.5529 14.2255 11.5529C15.352 11.5529 15.3452 12.5103 15.3399 13.252C15.3331 14.2215 15.3494 15.2109 15.3494 16.1875H17.3929V12.9194C17.3756 10.8327 16.8318 9.87113 15.0429 9.87113C13.9806 9.87113 13.322 10.3534 12.979 10.7898V9.99535Z" fill="#FF8179"/>
</svg>
