<svg width="43" height="43" viewBox="0 0 43 43" fill="none" xmlns="http://www.w3.org/2000/svg">
<path fill-rule="evenodd" clip-rule="evenodd" d="M21.052 1.79199C21.7941 1.79199 22.3958 2.39361 22.3958 3.13574V7.16697L34.0989 7.16699C34.8509 7.16699 35.5779 7.43725 36.1472 7.9285L41.8576 12.8556C43.3072 14.1063 43.3072 16.3527 41.8576 17.6034L36.1472 22.5305C35.5779 23.0217 34.8509 23.292 34.0989 23.292L22.3958 23.292V39.8649C22.3958 40.607 21.7941 41.2087 21.052 41.2087C20.3099 41.2087 19.7083 40.607 19.7083 39.8649V23.2919L6.71866 23.2919C4.98702 23.2919 3.58325 21.8881 3.58325 20.1565V10.3024C3.58325 8.57072 4.98703 7.16695 6.71867 7.16695L19.7083 7.16697V3.13574C19.7083 2.39361 20.3099 1.79199 21.052 1.79199ZM21.052 9.85449L21.0592 9.85447L34.0989 9.85449C34.2064 9.85449 34.3102 9.8931 34.3915 9.96328L40.102 14.8904C40.3091 15.069 40.3091 15.39 40.102 15.5686L34.3916 20.4957C34.3102 20.5659 34.2064 20.6045 34.0989 20.6045L6.71867 20.6044C6.47129 20.6044 6.27075 20.4039 6.27075 20.1565L6.27075 10.3024C6.27075 10.055 6.47129 9.85445 6.71867 9.85445L21.0448 9.85447L21.052 9.85449Z" fill="#767A7F"/>
</svg>
