<svg width="32" height="32" viewBox="0 0 32 32" fill="none" xmlns="http://www.w3.org/2000/svg">
<circle cx="15.9759" cy="15.9759" r="15.9759" fill="#F3F2EE"/>
<path d="M13.7218 8.0573C11.1044 8.25097 8.87922 8.42909 8.7746 8.44995C8.48127 8.50226 8.21443 8.70123 8.08895 8.96311L7.97903 9.19353L7.98963 14.6854L8.00519 20.1772L8.17271 20.5175C8.26707 20.7059 8.9057 21.5855 9.60195 22.491C10.9789 24.2762 11.0782 24.3758 11.6016 24.4281C11.7536 24.4437 12.8948 24.3914 14.1303 24.3182C15.3712 24.2397 17.3603 24.1192 18.5541 24.0514C23.653 23.7418 23.3911 23.768 23.6841 23.5167C24.0506 23.2131 24.0244 23.7104 24.04 17.0356C24.0506 11.3763 24.0453 11.0048 23.9615 10.832C23.8622 10.6383 23.6841 10.5023 21.3596 8.86875C19.8049 7.77986 19.695 7.72225 18.9984 7.71166C18.7107 7.70139 16.334 7.85832 13.7218 8.0573ZM19.6059 8.7744C19.8258 8.87372 21.4331 9.99407 21.6685 10.2089C21.7314 10.2718 21.7523 10.3241 21.7208 10.3556C21.6477 10.4185 11.7006 11.0101 11.4129 10.9681C11.2821 10.9472 11.0885 10.8688 10.9785 10.7953C10.523 10.4864 9.39238 9.5597 9.39238 9.49183C9.39238 9.31371 9.35563 9.31371 13.79 8.99456C14.6382 8.93695 16.0307 8.83234 16.8789 8.76413C18.716 8.61747 19.2659 8.62277 19.6059 8.7744ZM22.768 11.6382C22.8412 11.7113 22.9041 11.8527 22.9249 11.9888C22.9405 12.1146 22.9511 14.4599 22.9405 17.1926C22.9249 21.8832 22.9196 22.1765 22.8306 22.3126C22.7783 22.3963 22.6737 22.4854 22.5949 22.5116C22.3754 22.6006 11.9522 23.1922 11.7377 23.1293C11.6384 23.1032 11.502 23.0194 11.4288 22.9463L11.303 22.8102L11.2874 17.7531C11.2768 14.2036 11.2874 12.633 11.3295 12.4917C11.3609 12.3871 11.4394 12.2612 11.5076 12.2195C11.602 12.1566 12.2197 12.1043 14.3452 11.9788C15.8374 11.8951 18.1459 11.7537 19.4705 11.6752C22.6213 11.4812 22.6111 11.4812 22.768 11.6382Z" fill="black"/>
<path d="M19.967 13.3709C19.4015 13.4076 18.899 13.4599 18.8414 13.4914C18.6686 13.5804 18.5639 13.7271 18.5431 13.8946C18.5275 14.0674 18.5798 14.0883 19.145 14.1565L19.391 14.1879V16.4233C19.391 17.7529 19.3701 18.6326 19.3439 18.6064C19.3178 18.575 18.5745 17.4444 17.6896 16.0936C16.805 14.7378 16.072 13.6225 16.0614 13.6122C16.0508 13.6016 15.475 13.6331 14.7841 13.6804C13.9359 13.738 13.4701 13.7903 13.3757 13.8426C13.2237 13.9211 13.0562 14.1985 13.0562 14.3819C13.0562 14.4919 13.2552 14.5495 13.674 14.5495H13.8938V20.9782L13.5379 21.0881C13.2605 21.1719 13.1661 21.2242 13.1191 21.3288C13.0354 21.5069 13.0407 21.6692 13.1244 21.6692C13.1559 21.6692 13.7475 21.6324 14.4279 21.5907C15.7733 21.5122 15.925 21.4755 16.0663 21.198C16.1084 21.1143 16.1448 21.0252 16.1448 20.9991C16.1448 20.9782 15.9617 20.9153 15.7415 20.863C15.5164 20.8107 15.2913 20.7584 15.2443 20.7478C15.1552 20.7216 15.1499 20.5594 15.1499 18.3081V15.8946L16.7414 18.3919C18.4113 21.0093 18.6209 21.308 18.8775 21.4387C19.1969 21.6063 20.0084 21.491 20.4166 21.2242L20.5424 21.1457L20.553 17.5755L20.5686 13.9999L20.846 13.9476C21.1758 13.8847 21.3277 13.733 21.3277 13.4712C21.3277 13.3036 21.3171 13.293 21.1602 13.2983C21.0665 13.3027 20.5272 13.3341 19.967 13.3709Z" fill="black"/>
</svg>
