<svg width="128" height="48" viewBox="0 0 128 48" fill="none" xmlns="http://www.w3.org/2000/svg">
<path d="M102.673 9L119.411 37.99H85.936L102.673 9Z" fill="#FF8179"/>
<path d="M85.8882 23.5393C85.8882 26.4149 85.0355 29.2259 83.4379 31.6169C81.8403 34.0079 79.5695 35.8714 76.9128 36.9719C74.2561 38.0723 71.3327 38.3602 68.5124 37.7992C65.692 37.2382 63.1014 35.8535 61.068 33.8201C59.0347 31.7868 57.6499 29.1961 57.0889 26.3758C56.5279 23.5554 56.8159 20.6321 57.9163 17.9754C59.0168 15.3186 60.8803 13.0479 63.2713 11.4503C65.6622 9.85272 68.4733 9 71.3489 9V23.5393H85.8882Z" fill="#FF8179"/>
<rect x="45.1663" y="9" width="5.55567" height="29.0786" fill="#FF8179"/>
<circle cx="24.5393" cy="23.5393" r="14.5393" fill="#FF8179"/>
</svg>
