<svg width="128" height="48" viewBox="0 0 128 48" fill="none" xmlns="http://www.w3.org/2000/svg">
<path d="M102.673 9L119.411 37.99H85.936L102.673 9Z" fill="white"/>
<path d="M85.8881 23.5393C85.8881 26.4149 85.0353 29.2259 83.4377 31.6169C81.8401 34.0079 79.5694 35.8714 76.9127 36.9719C74.256 38.0723 71.3326 38.3602 68.5123 37.7992C65.6919 37.2382 63.1013 35.8535 61.0679 33.8201C59.0346 31.7868 57.6498 29.1961 57.0888 26.3758C56.5278 23.5554 56.8157 20.6321 57.9162 17.9754C59.0166 15.3186 60.8802 13.0479 63.2711 11.4503C65.6621 9.85272 68.4732 9 71.3488 9V23.5393H85.8881Z" fill="white"/>
<rect x="45.1663" y="9" width="5.55567" height="29.0786" fill="white"/>
<circle cx="24.5393" cy="23.5393" r="14.5393" fill="white"/>
</svg>
