<svg width="289" height="57" viewBox="0 0 289 57" fill="none" xmlns="http://www.w3.org/2000/svg">
<path d="M38.4783 37.5373C36.2119 37.5373 34.1678 37.0501 32.3462 36.0757C30.5245 35.0802 29.0948 33.7139 28.0569 31.977C27.019 30.2189 26.5 28.2596 26.5 26.0991C26.5 23.9385 27.019 21.9898 28.0569 20.2529C29.0948 18.4948 30.5245 17.1286 32.3462 16.1542C34.1678 15.1587 36.2119 14.6609 38.4783 14.6609C40.7448 14.6609 42.7888 15.1587 44.6105 16.1542C46.4321 17.1286 47.8619 18.4842 48.8998 20.2211C49.9377 21.958 50.4566 23.9174 50.4566 26.0991C50.4566 28.2808 49.9377 30.2401 48.8998 31.977C47.8619 33.7139 46.4321 35.0802 44.6105 36.0757C42.7888 37.0501 40.7448 37.5373 38.4783 37.5373ZM38.4783 33.9152C39.961 33.9152 41.2955 33.5869 42.4817 32.9302C43.6679 32.2524 44.5999 31.3204 45.2777 30.1342C45.9555 28.9269 46.2944 27.5818 46.2944 26.0991C46.2944 24.6164 45.9555 23.2819 45.2777 22.0957C44.5999 20.8883 43.6679 19.9563 42.4817 19.2997C41.2955 18.6219 39.961 18.283 38.4783 18.283C36.9956 18.283 35.6611 18.6219 34.475 19.2997C33.2888 19.9563 32.3568 20.8883 31.679 22.0957C31.0011 23.2819 30.6622 24.6164 30.6622 26.0991C30.6622 27.5818 31.0011 28.9269 31.679 30.1342C32.3568 31.3204 33.2888 32.2524 34.475 32.9302C35.6611 33.5869 36.9956 33.9152 38.4783 33.9152Z" fill="#333333"/>
<path d="M54.3265 13.6442H58.2981V37.2195H54.3265V13.6442Z" fill="#333333"/>
<path d="M80.2232 20.2529V34.6459C80.2232 40.6192 77.173 43.6059 71.0727 43.6059C69.4417 43.6059 67.8954 43.394 66.4339 42.9704C64.9723 42.5679 63.7649 41.9749 62.8118 41.1911L64.591 38.2045C65.3324 38.8188 66.2644 39.3059 67.387 39.666C68.5309 40.0473 69.6853 40.2379 70.8503 40.2379C72.7143 40.2379 74.0805 39.8143 74.949 38.967C75.8174 38.1198 76.2516 36.8277 76.2516 35.0908V34.2011C75.5738 34.9425 74.7477 35.5038 73.7734 35.8851C72.799 36.2664 71.7293 36.457 70.5643 36.457C68.9545 36.457 67.493 36.1181 66.1797 35.4403C64.8876 34.7413 63.8603 33.7669 63.0977 32.5172C62.3564 31.2674 61.9857 29.8377 61.9857 28.2279C61.9857 26.618 62.3564 25.1989 63.0977 23.9703C63.8603 22.7206 64.8876 21.7568 66.1797 21.079C67.493 20.4012 68.9545 20.0623 70.5643 20.0623C71.7929 20.0623 72.9049 20.2635 73.9005 20.6659C74.9172 21.0684 75.7645 21.6827 76.4423 22.5088V20.2529H80.2232ZM71.168 33.0891C72.6719 33.0891 73.9005 32.6443 74.8536 31.7546C75.828 30.8438 76.3152 29.6682 76.3152 28.2279C76.3152 26.8087 75.828 25.6543 74.8536 24.7646C73.9005 23.875 72.6719 23.4302 71.168 23.4302C69.6429 23.4302 68.3932 23.875 67.4188 24.7646C66.4656 25.6543 65.989 26.8087 65.989 28.2279C65.989 29.6682 66.4656 30.8438 67.4188 31.7546C68.3932 32.6443 69.6429 33.0891 71.168 33.0891Z" fill="#333333"/>
<path d="M91.7992 20.0623C94.2986 20.0623 96.205 20.6659 97.5183 21.8733C98.8527 23.0595 99.52 24.8599 99.52 27.2747V37.2195H95.7708V35.1543C95.2836 35.8957 94.5846 36.4676 93.6738 36.87C92.7841 37.2513 91.7039 37.4419 90.433 37.4419C89.162 37.4419 88.05 37.2301 87.0968 36.8065C86.1436 36.3617 85.4023 35.758 84.8727 34.9954C84.3644 34.2117 84.1102 33.3327 84.1102 32.3583C84.1102 30.8332 84.6715 29.6153 85.7941 28.7044C86.938 27.7724 88.7278 27.3064 91.1637 27.3064H95.5484V27.0523C95.5484 25.8661 95.1883 24.9553 94.4681 24.3198C93.7691 23.6844 92.7206 23.3666 91.3226 23.3666C90.3694 23.3666 89.4268 23.5149 88.4948 23.8114C87.584 24.108 86.8109 24.521 86.1754 25.0506L84.6185 22.1593C85.5082 21.4814 86.5779 20.9625 87.8276 20.6024C89.0773 20.2423 90.4012 20.0623 91.7992 20.0623ZM91.259 34.5506C92.2546 34.5506 93.1336 34.3282 93.8962 33.8834C94.6799 33.4174 95.2306 32.7608 95.5484 31.9135V29.9436H91.4497C89.162 29.9436 88.0182 30.6955 88.0182 32.1994C88.0182 32.9196 88.3042 33.4915 88.8761 33.9152C89.448 34.3388 90.2423 34.5506 91.259 34.5506Z" fill="#333333"/>
<path d="M114.742 18.4736H107.37V14.9786H126.243V18.4736H118.872V37.2195H114.742V18.4736Z" fill="#333333"/>
<path d="M134.723 37.4419C133.007 37.4419 131.461 37.0713 130.084 36.3299C128.707 35.5885 127.627 34.5612 126.843 33.2479C126.081 31.9135 125.699 30.4096 125.699 28.7362C125.699 27.0629 126.081 25.5695 126.843 24.2563C127.627 22.943 128.707 21.9157 130.084 21.1743C131.461 20.4329 133.007 20.0623 134.723 20.0623C136.46 20.0623 138.017 20.4329 139.393 21.1743C140.77 21.9157 141.84 22.943 142.602 24.2563C143.386 25.5695 143.778 27.0629 143.778 28.7362C143.778 30.4096 143.386 31.9135 142.602 33.2479C141.84 34.5612 140.77 35.5885 139.393 36.3299C138.017 37.0713 136.46 37.4419 134.723 37.4419ZM134.723 34.0423C136.184 34.0423 137.392 33.5551 138.345 32.5807C139.298 31.6064 139.775 30.3249 139.775 28.7362C139.775 27.1476 139.298 25.8661 138.345 24.8917C137.392 23.9174 136.184 23.4302 134.723 23.4302C133.261 23.4302 132.054 23.9174 131.101 24.8917C130.169 25.8661 129.703 27.1476 129.703 28.7362C129.703 30.3249 130.169 31.6064 131.101 32.5807C132.054 33.5551 133.261 34.0423 134.723 34.0423Z" fill="#333333"/>
<path d="M151.23 22.7312C152.374 20.9519 154.386 20.0623 157.267 20.0623V23.8432C156.928 23.7797 156.62 23.7479 156.345 23.7479C154.799 23.7479 153.591 24.2033 152.723 25.1141C151.855 26.0038 151.42 27.2959 151.42 28.9904V37.2195H147.449V20.2529H151.23V22.7312Z" fill="#333333"/>
<path d="M164.29 22.7312C165.433 20.9519 167.446 20.0623 170.326 20.0623V23.8432C169.987 23.7797 169.68 23.7479 169.405 23.7479C167.859 23.7479 166.651 24.2033 165.783 25.1141C164.914 26.0038 164.48 27.2959 164.48 28.9904V37.2195H160.509V20.2529H164.29V22.7312Z" fill="#333333"/>
<path d="M189.363 28.8315C189.363 29.1069 189.342 29.4988 189.3 30.0071H175.987C176.22 31.2569 176.824 32.2524 177.798 32.9938C178.793 33.7139 180.022 34.074 181.484 34.074C183.348 34.074 184.883 33.4598 186.091 32.2312L188.219 34.6777C187.457 35.5885 186.493 36.2769 185.328 36.7429C184.163 37.2089 182.85 37.4419 181.388 37.4419C179.524 37.4419 177.883 37.0713 176.464 36.3299C175.044 35.5885 173.943 34.5612 173.159 33.2479C172.397 31.9135 172.015 30.4096 172.015 28.7362C172.015 27.084 172.386 25.6013 173.127 24.288C173.89 22.9536 174.938 21.9157 176.273 21.1743C177.607 20.4329 179.111 20.0623 180.785 20.0623C182.437 20.0623 183.909 20.4329 185.201 21.1743C186.514 21.8945 187.531 22.9218 188.251 24.2563C188.993 25.5695 189.363 27.0946 189.363 28.8315ZM180.785 23.2395C179.514 23.2395 178.433 23.6208 177.544 24.3834C176.675 25.1247 176.146 26.1203 175.955 27.37H185.582C185.413 26.1414 184.894 25.1459 184.025 24.3834C183.157 23.6208 182.077 23.2395 180.785 23.2395Z" fill="#333333"/>
<path d="M202.678 20.0623C204.818 20.0623 206.533 20.6871 207.825 21.9368C209.118 23.1866 209.764 25.04 209.764 27.4971V37.2195H205.792V28.0054C205.792 26.5227 205.442 25.4107 204.743 24.6693C204.044 23.9068 203.049 23.5255 201.757 23.5255C200.295 23.5255 199.141 23.9703 198.294 24.8599C197.446 25.7284 197.023 26.9887 197.023 28.6409V37.2195H193.051V20.2529H196.832V22.4452C197.489 21.6615 198.315 21.0684 199.31 20.6659C200.306 20.2635 201.428 20.0623 202.678 20.0623Z" fill="#333333"/>
<path d="M224.874 36.2981C224.408 36.6794 223.836 36.9654 223.158 37.156C222.501 37.3466 221.802 37.4419 221.061 37.4419C219.197 37.4419 217.757 36.9548 216.74 35.9804C215.723 35.006 215.215 33.5869 215.215 31.7229V23.5573H212.419V20.38H215.215V16.5037H219.186V20.38H223.73V23.5573H219.186V31.6275C219.186 32.4536 219.388 33.0891 219.79 33.5339C220.193 33.9575 220.775 34.1694 221.538 34.1694C222.427 34.1694 223.169 33.9364 223.762 33.4704L224.874 36.2981Z" fill="#333333"/>
<path d="M234.698 37.4419C233.321 37.4419 231.976 37.2619 230.663 36.9018C229.349 36.5417 228.301 36.0863 227.517 35.5356L229.042 32.5172C229.805 33.0255 230.716 33.4386 231.775 33.7563C232.855 34.0529 233.914 34.2011 234.952 34.2011C237.324 34.2011 238.511 33.5763 238.511 32.3265C238.511 31.7334 238.203 31.3204 237.589 31.0874C236.996 30.8544 236.032 30.632 234.698 30.4202C233.3 30.2084 232.156 29.9648 231.266 29.6894C230.398 29.414 229.635 28.9374 228.979 28.2596C228.343 27.5606 228.026 26.5969 228.026 25.3683C228.026 23.7585 228.693 22.477 230.027 21.5238C231.383 20.5494 233.205 20.0623 235.492 20.0623C236.657 20.0623 237.822 20.1999 238.987 20.4753C240.152 20.7295 241.105 21.079 241.847 21.5238L240.322 24.5422C238.881 23.6949 237.261 23.2713 235.46 23.2713C234.295 23.2713 233.406 23.4514 232.791 23.8114C232.198 24.1504 231.902 24.6058 231.902 25.1777C231.902 25.8131 232.22 26.2685 232.855 26.5439C233.512 26.7981 234.518 27.0417 235.873 27.2747C237.229 27.4865 238.341 27.7301 239.21 28.0054C240.078 28.2808 240.819 28.7468 241.434 29.4034C242.069 30.0601 242.387 30.9921 242.387 32.1994C242.387 33.7881 241.698 35.059 240.322 36.0122C238.945 36.9654 237.07 37.4419 234.698 37.4419Z" fill="#333333"/>
<circle cx="255" cy="29" r="8" fill="#FF8179"/>
</svg>
