<svg width="289" height="56" viewBox="0 0 289 56" fill="none" xmlns="http://www.w3.org/2000/svg">
<path d="M37.9783 36.8931C35.7119 36.8931 33.6678 36.4059 31.8462 35.4316C30.0245 34.436 28.5948 33.0698 27.5569 31.3329C26.519 29.5748 26 27.6155 26 25.4549C26 23.2944 26.519 21.3456 27.5569 19.6087C28.5948 17.8506 30.0245 16.4844 31.8462 15.51C33.6678 14.5145 35.7119 14.0167 37.9783 14.0167C40.2448 14.0167 42.2888 14.5145 44.1105 15.51C45.9321 16.4844 47.3619 17.84 48.3998 19.577C49.4377 21.3139 49.9566 23.2732 49.9566 25.4549C49.9566 27.6366 49.4377 29.596 48.3998 31.3329C47.3619 33.0698 45.9321 34.436 44.1105 35.4316C42.2888 36.4059 40.2448 36.8931 37.9783 36.8931ZM37.9783 33.271C39.461 33.271 40.7955 32.9427 41.9817 32.2861C43.1679 31.6082 44.0999 30.6762 44.7777 29.4901C45.4555 28.2827 45.7944 26.9376 45.7944 25.4549C45.7944 23.9722 45.4555 22.6377 44.7777 21.4515C44.0999 20.2442 43.1679 19.3122 41.9817 18.6555C40.7955 17.9777 39.461 17.6388 37.9783 17.6388C36.4956 17.6388 35.1611 17.9777 33.975 18.6555C32.7888 19.3122 31.8568 20.2442 31.179 21.4515C30.5011 22.6377 30.1622 23.9722 30.1622 25.4549C30.1622 26.9376 30.5011 28.2827 31.179 29.4901C31.8568 30.6762 32.7888 31.6082 33.975 32.2861C35.1611 32.9427 36.4956 33.271 37.9783 33.271Z" fill="white"/>
<path d="M53.8265 13H57.7981V36.5754H53.8265V13Z" fill="white"/>
<path d="M79.7232 19.6087V34.0018C79.7232 39.9751 76.673 42.9617 70.5727 42.9617C68.9417 42.9617 67.3954 42.7499 65.9339 42.3262C64.4723 41.9238 63.265 41.3307 62.3118 40.547L64.091 37.5603C64.8324 38.1746 65.7644 38.6618 66.887 39.0219C68.0309 39.4031 69.1853 39.5938 70.3503 39.5938C72.2143 39.5938 73.5805 39.1701 74.449 38.3229C75.3174 37.4756 75.7516 36.1835 75.7516 34.4466V33.557C75.0738 34.2983 74.2477 34.8596 73.2734 35.2409C72.299 35.6222 71.2293 35.8128 70.0643 35.8128C68.4545 35.8128 66.993 35.4739 65.6797 34.7961C64.3876 34.0971 63.3603 33.1227 62.5977 31.873C61.8564 30.6233 61.4857 29.1935 61.4857 27.5837C61.4857 25.9739 61.8564 24.5547 62.5977 23.3261C63.3603 22.0764 64.3876 21.1126 65.6797 20.4348C66.993 19.757 68.4545 19.4181 70.0643 19.4181C71.2929 19.4181 72.4049 19.6193 73.4005 20.0218C74.4172 20.4242 75.2645 21.0385 75.9423 21.8646V19.6087H79.7232ZM70.668 32.4449C72.1719 32.4449 73.4005 32.0001 74.3536 31.1105C75.328 30.1996 75.8152 29.0241 75.8152 27.5837C75.8152 26.1645 75.328 25.0101 74.3536 24.1205C73.4005 23.2308 72.1719 22.786 70.668 22.786C69.1429 22.786 67.8932 23.2308 66.9188 24.1205C65.9656 25.0101 65.489 26.1645 65.489 27.5837C65.489 29.0241 65.9656 30.1996 66.9188 31.1105C67.8932 32.0001 69.1429 32.4449 70.668 32.4449Z" fill="white"/>
<path d="M91.2992 19.4181C93.7986 19.4181 95.705 20.0218 97.0183 21.2291C98.3527 22.4153 99.02 24.2158 99.02 26.6305V36.5754H95.2708V34.5101C94.7836 35.2515 94.0846 35.8234 93.1738 36.2259C92.2841 36.6071 91.2039 36.7978 89.933 36.7978C88.662 36.7978 87.55 36.586 86.5968 36.1623C85.6436 35.7175 84.9023 35.1138 84.3727 34.3513C83.8644 33.5676 83.6102 32.6885 83.6102 31.7141C83.6102 30.1891 84.1715 28.9711 85.2941 28.0603C86.438 27.1283 88.2278 26.6623 90.6637 26.6623H95.0484V26.4081C95.0484 25.2219 94.6883 24.3111 93.9681 23.6756C93.2691 23.0402 92.2206 22.7225 90.8226 22.7225C89.8694 22.7225 88.9268 22.8707 87.9948 23.1673C87.084 23.4638 86.3109 23.8769 85.6754 24.4064L84.1185 21.5151C85.0082 20.8373 86.0779 20.3183 87.3276 19.9582C88.5773 19.5981 89.9012 19.4181 91.2992 19.4181ZM90.759 33.9065C91.7546 33.9065 92.6336 33.6841 93.3962 33.2392C94.1799 32.7732 94.7306 32.1166 95.0484 31.2693V29.2994H90.9497C88.662 29.2994 87.5182 30.0514 87.5182 31.5553C87.5182 32.2755 87.8042 32.8474 88.3761 33.271C88.948 33.6946 89.7423 33.9065 90.759 33.9065Z" fill="white"/>
<path d="M114.242 17.8295H106.87V14.3345H125.743V17.8295H118.372V36.5754H114.242V17.8295Z" fill="white"/>
<path d="M134.223 36.7978C132.507 36.7978 130.961 36.4271 129.584 35.6857C128.207 34.9444 127.127 33.9171 126.343 32.6038C125.581 31.2693 125.199 29.7654 125.199 28.092C125.199 26.4187 125.581 24.9254 126.343 23.6121C127.127 22.2988 128.207 21.2715 129.584 20.5301C130.961 19.7888 132.507 19.4181 134.223 19.4181C135.96 19.4181 137.517 19.7888 138.893 20.5301C140.27 21.2715 141.34 22.2988 142.102 23.6121C142.886 24.9254 143.278 26.4187 143.278 28.092C143.278 29.7654 142.886 31.2693 142.102 32.6038C141.34 33.9171 140.27 34.9444 138.893 35.6857C137.517 36.4271 135.96 36.7978 134.223 36.7978ZM134.223 33.3981C135.684 33.3981 136.892 32.9109 137.845 31.9366C138.798 30.9622 139.275 29.6807 139.275 28.092C139.275 26.5034 138.798 25.2219 137.845 24.2476C136.892 23.2732 135.684 22.786 134.223 22.786C132.761 22.786 131.554 23.2732 130.601 24.2476C129.669 25.2219 129.203 26.5034 129.203 28.092C129.203 29.6807 129.669 30.9622 130.601 31.9366C131.554 32.9109 132.761 33.3981 134.223 33.3981Z" fill="white"/>
<path d="M150.73 22.087C151.874 20.3077 153.886 19.4181 156.767 19.4181V23.199C156.428 23.1355 156.12 23.1037 155.845 23.1037C154.299 23.1037 153.091 23.5591 152.223 24.47C151.355 25.3596 150.92 26.6517 150.92 28.3462V36.5754H146.949V19.6087H150.73V22.087Z" fill="white"/>
<path d="M163.79 22.087C164.933 20.3077 166.946 19.4181 169.826 19.4181V23.199C169.487 23.1355 169.18 23.1037 168.905 23.1037C167.359 23.1037 166.151 23.5591 165.283 24.47C164.414 25.3596 163.98 26.6517 163.98 28.3462V36.5754H160.009V19.6087H163.79V22.087Z" fill="white"/>
<path d="M188.863 28.1874C188.863 28.4627 188.842 28.8546 188.8 29.363H175.487C175.72 30.6127 176.324 31.6082 177.298 32.3496C178.293 33.0698 179.522 33.4299 180.984 33.4299C182.848 33.4299 184.383 32.8156 185.591 31.5871L187.719 34.0336C186.957 34.9444 185.993 35.6328 184.828 36.0988C183.663 36.5648 182.35 36.7978 180.888 36.7978C179.024 36.7978 177.383 36.4271 175.963 35.6857C174.544 34.9444 173.443 33.9171 172.659 32.6038C171.897 31.2693 171.515 29.7654 171.515 28.092C171.515 26.4399 171.886 24.9571 172.627 23.6439C173.39 22.3094 174.438 21.2715 175.773 20.5301C177.107 19.7888 178.611 19.4181 180.285 19.4181C181.937 19.4181 183.409 19.7888 184.701 20.5301C186.014 21.2503 187.031 22.2776 187.751 23.6121C188.493 24.9254 188.863 26.4505 188.863 28.1874ZM180.285 22.5954C179.014 22.5954 177.933 22.9766 177.044 23.7392C176.175 24.4805 175.646 25.4761 175.455 26.7258H185.082C184.913 25.4973 184.394 24.5017 183.525 23.7392C182.657 22.9766 181.577 22.5954 180.285 22.5954Z" fill="white"/>
<path d="M202.178 19.4181C204.318 19.4181 206.033 20.043 207.325 21.2927C208.618 22.5424 209.264 24.3958 209.264 26.8529V36.5754H205.292V27.3613C205.292 25.8785 204.942 24.7665 204.243 24.0251C203.544 23.2626 202.549 22.8813 201.257 22.8813C199.795 22.8813 198.641 23.3261 197.794 24.2158C196.946 25.0842 196.523 26.3446 196.523 27.9967V36.5754H192.551V19.6087H196.332V21.801C196.989 21.0173 197.815 20.4242 198.81 20.0218C199.806 19.6193 200.929 19.4181 202.178 19.4181Z" fill="white"/>
<path d="M224.374 35.654C223.908 36.0352 223.336 36.3212 222.658 36.5118C222.001 36.7025 221.302 36.7978 220.561 36.7978C218.697 36.7978 217.257 36.3106 216.24 35.3362C215.223 34.3619 214.715 32.9427 214.715 31.0787V22.9131H211.919V19.7358H214.715V15.8595H218.686V19.7358H223.23V22.9131H218.686V30.9834C218.686 31.8095 218.888 32.4449 219.29 32.8897C219.693 33.3134 220.275 33.5252 221.038 33.5252C221.927 33.5252 222.669 33.2922 223.262 32.8262L224.374 35.654Z" fill="white"/>
<path d="M234.198 36.7978C232.821 36.7978 231.476 36.6177 230.163 36.2576C228.849 35.8976 227.801 35.4421 227.017 34.8914L228.542 31.873C229.305 32.3814 230.216 32.7944 231.275 33.1121C232.355 33.4087 233.414 33.557 234.452 33.557C236.824 33.557 238.011 32.9321 238.011 31.6824C238.011 31.0893 237.703 30.6762 237.089 30.4432C236.496 30.2102 235.532 29.9878 234.198 29.776C232.8 29.5642 231.656 29.3206 230.766 29.0452C229.898 28.7699 229.135 28.2933 228.479 27.6155C227.843 26.9165 227.526 25.9527 227.526 24.7241C227.526 23.1143 228.193 21.8328 229.527 20.8796C230.883 19.9053 232.705 19.4181 234.992 19.4181C236.157 19.4181 237.322 19.5558 238.487 19.8311C239.652 20.0853 240.605 20.4348 241.347 20.8796L239.822 23.898C238.381 23.0508 236.761 22.6271 234.96 22.6271C233.795 22.6271 232.906 22.8072 232.291 23.1673C231.698 23.5062 231.402 23.9616 231.402 24.5335C231.402 25.169 231.72 25.6244 232.355 25.8997C233.012 26.1539 234.018 26.3975 235.373 26.6305C236.729 26.8423 237.841 27.0859 238.71 27.3613C239.578 27.6366 240.319 28.1026 240.934 28.7593C241.569 29.4159 241.887 30.3479 241.887 31.5553C241.887 33.1439 241.198 34.4148 239.822 35.368C238.445 36.3212 236.57 36.7978 234.198 36.7978Z" fill="white"/>
<circle cx="254.5" cy="28.3558" r="8" fill="white"/>
</svg>
