<svg width="32" height="32" viewBox="0 0 32 32" fill="none" xmlns="http://www.w3.org/2000/svg">
<circle cx="15.9999" cy="15.9999" r="15.9999" fill="white"/>
<path fill-rule="evenodd" clip-rule="evenodd" d="M18.8666 6.38601C19.3873 5.86531 20.2315 5.86531 20.7522 6.38601L22.7224 8.35612C23.243 8.87681 23.243 9.72103 22.7224 10.2417L20.5944 12.3696L20.5849 12.3789L12.335 20.2538C12.1843 20.3977 12.002 20.5043 11.8026 20.5649L7.59493 21.8455C7.39304 21.907 7.17372 21.8521 7.0245 21.7029C6.87527 21.5537 6.82044 21.3344 6.88189 21.1325L8.15701 16.9428C8.22379 16.7234 8.34603 16.5249 8.51194 16.3665L16.7434 8.50921L18.8666 6.38601ZM17.1335 9.7168L9.30105 17.1932C9.27735 17.2159 9.25988 17.2442 9.25034 17.2756L8.28718 20.4402L11.4699 19.4716C11.4983 19.4629 11.5244 19.4477 11.5459 19.4271L19.3728 11.9561L17.1335 9.7168ZM20.1904 11.1575L21.9142 9.43361C21.9886 9.35922 21.9886 9.23862 21.9142 9.16424L19.9441 7.19412C19.8697 7.11974 19.7491 7.11974 19.6748 7.19412L17.9509 8.91797L20.1904 11.1575Z" fill="#333333"/>
<rect x="6.85712" y="22.7573" width="17.5237" height="1.14285" rx="0.571425" fill="#333333"/>
</svg>
