<svg width="52" height="52" viewBox="0 0 52 52" fill="none" xmlns="http://www.w3.org/2000/svg">
<path fill-rule="evenodd" clip-rule="evenodd" d="M26 5.4165C19.4186 5.4165 14.0835 10.7518 14.0835 17.3332C14.0835 21.427 16.1478 25.0387 19.2923 27.1841C12.0024 29.8544 6.75132 36.7529 6.50855 44.9098C6.48185 45.8069 7.18742 46.5558 8.08448 46.5824C8.98155 46.6091 9.73041 45.9036 9.75711 45.0065C10.0174 36.2606 17.1902 29.2498 25.9998 29.2498C34.8094 29.2498 41.9821 36.2606 42.2424 45.0065C42.2691 45.9036 43.018 46.6091 43.9151 46.5824C44.8121 46.5558 45.5177 45.8069 45.491 44.9098C45.2482 36.753 39.9973 29.8546 32.7075 27.1842C35.8521 25.0388 37.9165 21.4271 37.9165 17.3332C37.9165 10.7518 32.5813 5.4165 26 5.4165ZM17.3335 17.3332C17.3335 12.5467 21.2136 8.6665 26 8.6665C30.7863 8.6665 34.6665 12.5467 34.6665 17.3332C34.6665 22.1197 30.7863 25.9998 26 25.9998C21.2136 25.9998 17.3335 22.1197 17.3335 17.3332Z" fill="#444444"/>
</svg>
