<svg width="30" height="30" viewBox="0 0 30 30" fill="none" xmlns="http://www.w3.org/2000/svg">
<circle cx="15" cy="15" r="15" fill="#FF8179"/>
<path fill-rule="evenodd" clip-rule="evenodd" d="M22.0303 13.7803C22.3232 13.4874 22.3232 13.0126 22.0303 12.7197L15.7803 6.46967C15.4874 6.17678 15.0126 6.17678 14.7197 6.46967L8.46967 12.7197C8.17678 13.0126 8.17678 13.4874 8.46967 13.7803C8.76256 14.0732 9.23744 14.0732 9.53033 13.7803L14.5 8.81066L14.5 23.25C14.5 23.6642 14.8358 24 15.25 24C15.6642 24 16 23.6642 16 23.25L16 8.81066L20.9697 13.7803C21.2626 14.0732 21.7374 14.0732 22.0303 13.7803Z" fill="white"/>
</svg>
