<svg width="58" height="32" viewBox="0 0 58 32" fill="none" xmlns="http://www.w3.org/2000/svg">
<circle cx="16" cy="16" r="15" fill="#FEFFFF" stroke="#E0E3E6" stroke-width="2"/>
<path fill-rule="evenodd" clip-rule="evenodd" d="M18.8668 6.38564C19.3875 5.86494 20.2317 5.86494 20.7524 6.38564L22.7225 8.35577C23.2432 8.87647 23.2432 9.72068 22.7225 10.2414L20.5946 12.3693L20.5851 12.3786L12.3351 20.2535C12.1844 20.3974 12.002 20.504 11.8027 20.5646L7.595 21.8452C7.39311 21.9067 7.17378 21.8519 7.02456 21.7026C6.87534 21.5534 6.8205 21.3341 6.88195 21.1322L8.15708 16.9425C8.22385 16.7231 8.3461 16.5246 8.51201 16.3662L16.7435 8.50886L18.8668 6.38564ZM17.1336 9.71646L9.30112 17.1929C9.27742 17.2156 9.25996 17.2439 9.25042 17.2753L8.28725 20.4399L11.4699 19.4713C11.4984 19.4626 11.5245 19.4474 11.546 19.4269L19.3729 11.9557L17.1336 9.71646ZM20.1905 11.1571L21.9144 9.43326C21.9888 9.35888 21.9888 9.23827 21.9144 9.16389L19.9443 7.19376C19.8699 7.11938 19.7493 7.11938 19.6749 7.19376L17.951 8.91762L20.1905 11.1571Z" fill="#333333"/>
<rect x="6.85718" y="22.7578" width="17.5238" height="1.14286" rx="0.571429" fill="#333333"/>
<circle cx="41.9048" cy="16" r="15" fill="#FEFFFF" stroke="#E0E3E6" stroke-width="2"/>
<path fill-rule="evenodd" clip-rule="evenodd" d="M41.9048 15.8022C41.9048 14.1554 43.2398 12.8203 44.8867 12.8203C46.5335 12.8203 47.8686 14.1554 47.8686 15.8022C47.8686 17.4491 46.5335 18.7841 44.8867 18.7841C43.2398 18.7841 41.9048 17.4491 41.9048 15.8022Z" fill="#1ABCFE"/>
<path fill-rule="evenodd" clip-rule="evenodd" d="M35.9412 21.7661C35.9412 20.1192 37.2762 18.7842 38.9231 18.7842H41.905V21.7661C41.905 23.4129 40.5699 24.748 38.9231 24.748C37.2762 24.748 35.9412 23.4129 35.9412 21.7661Z" fill="#0ACF83"/>
<path fill-rule="evenodd" clip-rule="evenodd" d="M41.9048 6.85645V12.8202H44.8867C46.5335 12.8202 47.8686 11.4852 47.8686 9.83835C47.8686 8.19149 46.5335 6.85645 44.8867 6.85645H41.9048Z" fill="#FF7262"/>
<path fill-rule="evenodd" clip-rule="evenodd" d="M35.9412 9.83932C35.9412 11.4862 37.2762 12.8212 38.9231 12.8212H41.905V6.85742H38.9231C37.2762 6.85742 35.9412 8.19246 35.9412 9.83932Z" fill="#F24E1E"/>
<path fill-rule="evenodd" clip-rule="evenodd" d="M35.9412 15.8022C35.9412 17.4491 37.2762 18.7841 38.9231 18.7841H41.905V12.8203H38.9231C37.2762 12.8203 35.9412 14.1554 35.9412 15.8022Z" fill="#A259FF"/>
</svg>
