<svg width="43" height="43" viewBox="0 0 43 43" fill="none" xmlns="http://www.w3.org/2000/svg">
<path fill-rule="evenodd" clip-rule="evenodd" d="M28.6667 21.5C28.6667 25.458 25.4581 28.6667 21.5001 28.6667C17.542 28.6667 14.3334 25.458 14.3334 21.5C14.3334 17.5419 17.542 14.3333 21.5001 14.3333C25.4581 14.3333 28.6667 17.5419 28.6667 21.5ZM25.9792 21.5C25.9792 23.9738 23.9739 25.9792 21.5001 25.9792C19.0263 25.9792 17.0209 23.9738 17.0209 21.5C17.0209 19.0262 19.0263 17.0208 21.5001 17.0208C23.9739 17.0208 25.9792 19.0262 25.9792 21.5Z" fill="#1A6AFF"/>
<path fill-rule="evenodd" clip-rule="evenodd" d="M21.5001 1.79166C21.0202 1.79166 20.5441 1.80883 20.0724 1.84263C18.7044 1.94066 17.6617 2.94679 17.3629 4.17776L16.7321 6.77554C16.6981 6.91573 16.5717 7.08402 16.3301 7.1712C15.8847 7.33192 15.4491 7.51278 15.0242 7.71266C14.7921 7.82185 14.5838 7.79233 14.4605 7.71722L12.1774 6.32618C11.0962 5.66741 9.64826 5.69286 8.61156 6.58972C7.88992 7.21402 7.21411 7.88983 6.58981 8.61147C5.69295 9.64817 5.6675 11.0961 6.32627 12.1773L7.71731 14.4604C7.79242 14.5837 7.82195 14.792 7.71276 15.0241C7.51287 15.449 7.33201 15.8847 7.17129 16.33C7.08411 16.5716 6.91583 16.698 6.77563 16.732L4.17785 17.3628C2.94688 17.6616 1.94075 18.7043 1.84272 20.0723C1.80892 20.544 1.79175 21.0201 1.79175 21.5C1.79175 21.9799 1.80892 22.4559 1.84272 22.9276C1.94075 24.2957 2.94688 25.3383 4.17785 25.6372L6.77563 26.268C6.91583 26.302 7.08411 26.4284 7.17129 26.67C7.33201 27.1153 7.51287 27.551 7.71275 27.9759C7.82195 28.208 7.79242 28.4163 7.71731 28.5395L6.32627 30.8227C5.6675 31.9039 5.69295 33.3518 6.58981 34.3885C7.21411 35.1101 7.88992 35.786 8.61156 36.4103C9.64826 37.3071 11.0962 37.3326 12.1774 36.6738L14.4605 35.2828C14.5838 35.2076 14.7921 35.1781 15.0242 35.2873C15.4491 35.4872 15.8847 35.6681 16.3301 35.8288C16.5717 35.916 16.6981 36.0842 16.7321 36.2244L17.3629 38.8222C17.6617 40.0532 18.7044 41.0593 20.0724 41.1573C20.5441 41.1911 21.0202 41.2083 21.5001 41.2083C21.9799 41.2083 22.456 41.1911 22.9277 41.1573C24.2958 41.0593 25.3384 40.0532 25.6373 38.8222L26.2681 36.2244C26.3021 36.0842 26.4285 35.916 26.67 35.8288C27.1154 35.6681 27.5511 35.4872 27.976 35.2873C28.2081 35.1781 28.4163 35.2076 28.5396 35.2828L30.8228 36.6738C31.904 37.3326 33.3519 37.3071 34.3886 36.4103C35.1102 35.786 35.7861 35.1101 36.4104 34.3885C37.3072 33.3518 37.3327 31.9039 36.6739 30.8227L35.2828 28.5395C35.2077 28.4163 35.1782 28.208 35.2874 27.9759C35.4873 27.551 35.6681 27.1153 35.8289 26.6699C35.916 26.4284 36.0843 26.302 36.2245 26.268L38.8223 25.6372C40.0533 25.3383 41.0594 24.2957 41.1574 22.9276C41.1912 22.4559 41.2084 21.9799 41.2084 21.5C41.2084 21.0201 41.1912 20.544 41.1574 20.0724C41.0594 18.7043 40.0533 17.6616 38.8223 17.3628L36.2245 16.732C36.0843 16.698 35.916 16.5716 35.8289 16.33C35.6681 15.8847 35.4873 15.449 35.2874 15.0241C35.1782 14.792 35.2077 14.5837 35.2829 14.4604L36.6739 12.1773C37.3327 11.0961 37.3072 9.64816 36.4104 8.61147C35.7861 7.88983 35.1102 7.21402 34.3886 6.58972C33.3519 5.69286 31.904 5.66741 30.8228 6.32618L28.5396 7.71722C28.4163 7.79233 28.2081 7.82185 27.976 7.71266C27.5511 7.51278 27.1154 7.33192 26.67 7.1712C26.4285 7.08402 26.3021 6.91573 26.2681 6.77554L25.6373 4.17776C25.3384 2.94679 24.2958 1.94066 22.9277 1.84263C22.456 1.80883 21.9799 1.79166 21.5001 1.79166ZM20.2645 4.52326C20.6723 4.49403 21.0844 4.47916 21.5001 4.47916C21.9158 4.47916 22.3278 4.49403 22.7356 4.52326C22.8351 4.53039 22.9774 4.61309 23.0257 4.81186L23.6564 7.40964C23.9291 8.53284 24.7765 9.34501 25.7578 9.69914C26.124 9.83129 26.4824 9.98004 26.8319 10.1445C27.7766 10.5889 28.9506 10.6138 29.9379 10.0123L32.2211 8.62126C32.3957 8.51487 32.5548 8.5569 32.6303 8.62219C33.254 9.16183 33.8382 9.74602 34.3779 10.3698C34.4432 10.4453 34.4852 10.6044 34.3788 10.779L32.9878 13.0621C32.3862 14.0494 32.4111 15.2235 32.8556 16.1681C33.02 16.5177 33.1688 16.8761 33.3009 17.2423C33.6551 18.2236 34.4672 19.0709 35.5904 19.3436L38.1882 19.9744C38.387 20.0226 38.4697 20.1649 38.4768 20.2644C38.506 20.6723 38.5209 21.0843 38.5209 21.5C38.5209 21.9157 38.506 22.3277 38.4768 22.7355C38.4697 22.835 38.387 22.9773 38.1882 23.0256L35.5904 23.6563C34.4672 23.9291 33.6551 24.7764 33.3009 25.7577C33.1688 26.1239 33.02 26.4823 32.8556 26.8318C32.4112 27.7765 32.3862 28.9505 32.9878 29.9379L34.3788 32.221C34.4852 32.3956 34.4432 32.5547 34.3779 32.6302C33.8382 33.254 33.254 33.8381 32.6303 34.3778C32.5548 34.4431 32.3957 34.4851 32.2211 34.3787L29.9379 32.9877C28.9506 32.3861 27.7766 32.4111 26.8319 32.8555C26.4824 33.0199 26.124 33.1687 25.7578 33.3008C24.7765 33.655 23.9291 34.4671 23.6564 35.5903L23.0257 38.1881C22.9774 38.3869 22.8351 38.4696 22.7356 38.4767C22.3278 38.5059 21.9158 38.5208 21.5001 38.5208C21.0844 38.5208 20.6724 38.5059 20.2645 38.4767C20.165 38.4696 20.0227 38.3869 19.9745 38.1881L19.3437 35.5903C19.071 34.4671 18.2237 33.655 17.2424 33.3008C16.8761 33.1687 16.5178 33.0199 16.1682 32.8555C15.2235 32.4111 14.0495 32.3861 13.0622 32.9877L10.7791 34.3787C10.6045 34.4851 10.4454 34.4431 10.3699 34.3778C9.74611 33.8382 9.16192 33.254 8.62228 32.6302C8.55699 32.5547 8.51496 32.3956 8.62135 32.221L10.0124 29.9379C10.6139 28.9505 10.589 27.7765 10.1446 26.8318C9.98014 26.4823 9.83138 26.1239 9.69923 25.7577C9.3451 24.7764 8.53293 23.9291 7.40974 23.6563L4.81195 23.0256C4.61318 22.9773 4.53048 22.835 4.52335 22.7355C4.49413 22.3277 4.47925 21.9157 4.47925 21.5C4.47925 21.0843 4.49413 20.6723 4.52335 20.2644C4.53048 20.1649 4.61318 20.0226 4.81195 19.9744L7.40974 19.3436C8.53293 19.0709 9.3451 18.2236 9.69923 17.2423C9.83138 16.8761 9.98014 16.5177 10.1446 16.1681C10.589 15.2235 10.6139 14.0494 10.0124 13.0621L8.62135 10.779C8.51497 10.6044 8.557 10.4453 8.62228 10.3698C9.16192 9.74602 9.74611 9.16183 10.3699 8.62219C10.4454 8.5569 10.6045 8.51487 10.7791 8.62126L13.0622 10.0123C14.0495 10.6138 15.2235 10.5889 16.1682 10.1445C16.5178 9.98005 16.8761 9.83129 17.2424 9.69914C18.2237 9.34501 19.071 8.53284 19.3437 7.40965L19.9745 4.81186C20.0227 4.61309 20.165 4.53039 20.2645 4.52326Z" fill="#1A6AFF"/>
</svg>
