<svg width="520" height="320" viewBox="0 0 520 320" fill="none" xmlns="http://www.w3.org/2000/svg">
<ellipse rx="260" ry="41.2154" transform="matrix(-1 0 0 1 260 278.099)" fill="#FEDFDF"/>
<ellipse rx="138.36" ry="20.2186" transform="matrix(-1 0 0 1 191.954 278.101)" fill="#D7E2FF"/>
<path d="M136.675 96.5009L143.643 91.0596L159.395 138.027L149.848 142.132L138.107 143.755L127.988 141.655L120.828 98.0283L136.675 96.5009Z" fill="#D7F3E6"/>
<path d="M120.924 99.3665L118.633 90.393L124.551 85.3335L122.26 80.5603L119.11 79.0329L114.05 80.5603L111.091 79.6057L108.991 72.0642L114.05 68.3411L112.237 56.5992L125.983 47.5303L133.238 53.8308L142.88 64.0453L146.03 70.0595L144.121 74.2598L139.348 77.3146L135.911 79.6057L136.579 83.3288L143.453 85.8108V92.9705L133.238 97.3618L125.983 98.03L120.924 99.3665Z" fill="white"/>
<path d="M74.9111 85.4277L68.897 59.1755L73.7655 61.8485L82.1662 75.0223L81.307 70.822L79.2068 58.03H82.8344L90.1849 69.1991L88.4666 56.3117L89.0394 52.875L93.8125 61.8485L100.208 80.7501L108.8 80.2728V84.3777L93.8125 92.2056L92.6669 99.6517L74.1474 102.993L76.6294 96.7878L74.9111 85.4277Z" fill="white"/>
<path d="M172.76 21.1816L193.093 4.09375L200.443 9.43966L202.83 7.81679L229.655 13.3536L239.678 24.5227L241.587 36.8374L240.346 49.7249L222.972 50.584L220.204 44.8563L197.58 56.98L172.76 21.1816Z" fill="white"/>
<path d="M73.145 198.934L89.3735 192.204L86.5574 210.485L87.9416 228.623L79.0636 227.955L73.8133 213.779L73.145 198.934Z" fill="white"/>
<path d="M122.117 269.956L123.167 257.308L139.968 259.885L150.23 266.615L159.204 272.868L155.863 276.591L122.117 269.956Z" fill="white"/>
<path fill-rule="evenodd" clip-rule="evenodd" d="M89.5211 202.903C89.568 199.425 89.6681 195.946 89.7994 192.47C95.731 191.935 101.663 191.401 107.595 190.867C109.109 190.73 110.624 190.594 112.138 190.457C113.782 190.309 115.426 190.161 117.07 190.013C117.241 189.998 117.472 189.994 117.729 189.99C118.548 189.976 119.63 189.958 119.874 189.547C120.23 188.946 120.048 187.362 119.91 186.161C119.855 185.682 119.807 185.265 119.803 184.995C119.779 183.497 119.756 182 119.732 180.504C119.709 179.006 119.685 177.51 119.661 176.013L119.661 175.989C119.488 164.981 119.316 153.973 119.143 142.965C120.563 143.012 121.983 143.054 123.403 143.094C124.324 143.12 125.246 143.148 126.168 143.175C131.432 143.334 136.712 143.492 141.972 143.331C145.071 143.236 148.008 142.4 150.934 141.413C152.49 140.889 154.03 140.317 155.558 139.717C155.698 139.662 155.918 139.547 156.171 139.414C156.788 139.091 157.605 138.662 157.973 138.733C158.597 138.854 159.52 140.192 160.199 141.173C160.448 141.534 160.664 141.847 160.82 142.034C162.661 144.24 164.502 146.446 166.343 148.652L166.423 148.747C166.656 149.027 166.922 149.311 167.193 149.601C167.79 150.24 168.414 150.907 168.78 151.62C169.059 152.162 169.213 152.842 169.36 153.492C169.429 153.798 169.497 154.097 169.575 154.371C172.612 164.988 175.582 175.673 177.794 186.496C178.27 188.826 178.722 191.172 178.987 193.537C179.007 193.717 179.032 193.91 179.058 194.112C179.203 195.221 179.382 196.597 178.952 197.553C178.413 198.748 176.753 199.287 175.559 199.676C175.481 199.701 175.405 199.726 175.331 199.75C172.997 200.518 170.554 200.975 168.136 201.386C162.31 202.375 156.411 202.949 150.523 203.414C149.853 203.467 149.175 203.499 148.497 203.532C147.354 203.588 146.207 203.643 145.086 203.795C144.612 203.859 144.48 203.817 144.41 203.865C144.354 203.903 144.338 204 144.219 204.254C143.959 204.807 143.999 205.776 144.033 206.608C144.048 206.976 144.062 207.318 144.048 207.585C143.996 208.607 143.943 209.63 143.891 210.652C143.839 211.674 143.786 212.697 143.734 213.72C143.448 219.297 143.163 224.875 142.877 230.452C142.781 232.337 142.684 234.222 142.587 236.107C142.395 239.877 142.201 243.647 142.008 247.416C141.955 248.46 141.902 249.503 141.848 250.546C141.792 251.645 141.736 252.745 141.679 253.845C141.66 254.216 141.666 254.622 141.671 255.039C141.683 255.91 141.696 256.828 141.488 257.577C141.374 257.988 141.408 258.138 141.351 258.19C141.292 258.245 141.135 258.193 140.61 258.218C139.018 258.295 137.389 258.192 135.772 258.09C134.969 258.038 134.17 257.988 133.379 257.96C132.076 257.913 130.773 257.867 129.47 257.82C128.071 257.77 126.672 257.72 125.274 257.67C125.085 257.663 124.891 257.671 124.701 257.679C124.113 257.703 123.564 257.726 123.329 257.308C123.062 256.832 123.127 255.769 123.179 254.92C123.201 254.567 123.22 254.251 123.212 254.03L122.987 247.741L122.37 230.478C122.235 226.694 122.099 222.911 121.964 219.127C121.818 215.063 121.673 210.998 121.527 206.933C118.525 207.538 115.523 208.142 112.52 208.746L112.514 208.748C108.075 209.641 103.635 210.535 99.1952 211.427C98.6461 211.538 98.0691 211.687 97.4784 211.839C95.8777 212.252 94.1739 212.691 92.6385 212.471C90.5502 212.171 89.6868 211.279 89.5696 209.297C89.4569 207.394 89.4844 205.478 89.5119 203.571C89.515 203.349 89.518 203.126 89.5211 202.903ZM150.104 169.215L149.358 167.779L149.034 169.364L145.878 184.803L145.727 185.538L146.477 185.489L157.278 184.773L158.153 184.715L157.749 183.938L150.104 169.215ZM147.151 184.296L149.833 171.178L156.329 183.688L147.151 184.296Z" fill="white"/>
<path fill-rule="evenodd" clip-rule="evenodd" d="M239.817 44.2655C239.596 45.9827 239.753 47.8549 237.814 48.3078C236.021 48.727 234.052 48.6094 232.223 48.7561C230.168 48.9214 228.118 49.1467 226.067 49.3502C223.481 49.6064 223.85 48.6125 223.284 46.4039C222.768 44.3869 221.943 42.3742 221.258 40.4073C220.939 39.4931 220.558 38.6519 220.124 37.7905C219.73 37.0103 219.917 35.9496 219.493 35.2939C218.045 33.0571 210.984 39.1735 210.328 37.968C211.522 37.0378 213.59 35.9969 213.957 34.4054C214.388 32.5347 213.199 31.976 211.705 32.6599C208.03 34.3439 203.788 35.6597 199.78 36.2734C201.076 35.407 212.802 28.5768 208.866 26.5507C207.98 26.0942 206.795 26.9537 205.995 27.2788C204.726 27.7951 203.4 28.1411 202.075 28.4794C200.678 28.8358 199.278 29.1786 197.874 29.5027C196.89 29.7301 195.134 30.5377 194.175 30.3384C193.201 30.1359 194.927 29.5311 195.209 29.3887C196.441 28.7679 197.653 28.101 198.856 27.4255C200.99 26.2271 202.961 24.8389 204.583 22.9859C205.808 21.5877 207.83 18.5345 206.978 16.6013C206.484 15.4806 205.401 14.4449 204.765 13.3832C204.022 12.1432 203.423 10.8214 202.778 9.52948C203.857 10.0042 205.069 10.1257 206.171 10.5517C207.273 10.9781 208.392 11.3231 209.538 11.64C211.839 12.2757 214.132 12.3887 216.411 12.9043C218.991 13.4877 221.679 14.14 224.301 14.4772C226.583 14.7704 228.635 15.395 230.59 16.6393C234.584 19.1812 237.354 22.8328 238.755 27.3484C239.576 29.9937 239.776 32.7539 239.872 35.5062C239.974 38.4079 240.188 41.3764 239.817 44.2655ZM217.405 44.479C214.617 46.5119 211.366 48.1004 208.373 49.8298C206.661 50.8188 204.912 51.7437 203.165 52.6708C201.926 53.3287 200.42 54.54 199.055 54.8775C198.192 55.091 198.257 55.1074 197.71 54.3204C197.188 53.5689 196.732 52.7598 196.244 51.9858C195.343 50.5588 194.434 49.1372 193.524 47.7155C191.485 44.529 189.451 41.3428 187.308 38.2239C185.159 35.0942 183.098 31.9069 181.016 28.7331C180.049 27.2575 179.087 25.7762 178.06 24.3411C177.276 23.2453 175.266 21.5739 176.221 20.2837C177.107 19.0853 179.127 18.0897 180.322 17.1826C181.782 16.0751 183.25 14.9789 184.706 13.8657C187.836 11.4727 190.884 8.97557 194.012 6.57934C196.665 11.2343 199.788 15.5982 202.937 19.9259C200.089 21.7434 197.212 23.4709 194.211 25.0268C191.995 26.1759 188.604 27.7286 187.204 29.9085C185.824 32.0551 187.179 34.5314 189.638 34.5707C191.108 34.5944 192.573 34.2049 194.015 33.9827C195.055 33.8219 196.955 33.0719 197.893 33.6004C196.207 34.6765 190.089 37.8119 193.387 40.5612C195.744 42.5262 199.729 39.6585 202.276 40.2488C201.499 41.7384 200.692 44.1143 202.847 44.9242C204.64 45.5985 206.986 44.3419 208.6 43.6756C209.766 43.194 210.924 42.6961 212.07 42.1707C212.982 41.7525 214.074 40.9052 215.048 40.725C216.184 40.5142 218.498 43.6817 217.405 44.479ZM165.565 154.261C167.161 153.97 167.98 153.31 168.483 155.247C168.933 156.982 169.379 158.654 169.959 160.357C167.466 160.572 165.268 161.762 163.451 163.436C162.156 164.629 159.582 167.476 160.221 169.473C161.771 174.326 169.601 163.438 170.531 162.274C171.67 163.939 172.089 166.119 172.655 168.022C173.058 169.377 174.554 171.975 172.577 172.304C169.801 172.767 164.595 173.8 164.924 177.73C165.313 182.369 171.215 182.343 174.525 182.552C176.392 182.669 176.401 184.165 176.667 185.839C176.785 186.587 177.157 187.599 176.521 188.147C175.957 188.634 174.228 188.647 173.494 188.805C171.352 189.264 169.212 189.733 167.071 190.192C164.64 190.714 163.355 189.983 161.083 189.318C160.242 189.071 159.396 189.175 159.335 188.233C159.296 187.655 159.862 186.761 160.048 186.19C160.781 183.928 161.405 181.6 161.616 179.224C161.923 175.773 161.539 170.599 157.29 169.925C155.268 169.605 154.88 169.501 153.967 167.603C152.98 165.552 151.412 163.651 151.792 161.288C152.065 159.575 151.603 156.334 152.696 154.914C153.201 154.257 154.187 153.865 154.859 153.383C155.716 152.769 156.541 152.111 157.339 151.423C158.011 150.844 158.83 149.713 159.591 149.295C160.522 148.784 160.55 149.133 161.218 149.93C162.205 151.109 163.772 154.588 165.565 154.261ZM170.075 161.928C169.522 163.044 168.244 164.082 167.43 165.013C166.611 165.95 165.837 166.94 164.923 167.79C163.918 168.724 160.349 170.982 161.135 167.943C161.747 165.579 164.037 163.665 166.053 162.485C166.443 162.257 171.01 160.04 170.075 161.928ZM173.98 173.182C174.334 174.764 174.524 176.395 174.827 177.988C174.981 178.803 175.838 180.771 175.489 181.554C174.897 182.883 169.571 181.31 168.467 180.853C165.839 179.766 164.633 176.973 167.056 174.984C167.975 174.23 173.626 171.6 173.98 173.182ZM177.472 192.184C177.768 193.694 178.636 195.095 177.201 196.236C176.01 197.184 174.059 197.831 172.591 198.169C170.59 198.629 169.947 197.508 168.888 196.066C167.749 194.515 166.537 193.017 165.28 191.562C169.229 190.677 173.178 189.793 177.128 188.909C177.126 190.009 177.259 191.105 177.472 192.184ZM168.008 199.194C165.948 199.087 163.732 199.707 161.643 199.87C159.035 200.074 156.433 200.37 153.822 200.545C154.491 198.411 155.693 196.507 156.633 194.491C157.575 192.468 158.238 192.249 160.406 192.094C162.417 191.949 163.834 191.257 165.317 192.962C166.861 194.736 168.258 196.663 169.667 198.543C169.188 198.863 168.615 199.225 168.008 199.194ZM153.285 199.629C152.777 199.999 151.21 198.947 150.682 198.743C149.654 198.346 149.426 198.218 148.89 197.216C148.43 196.355 147.697 195.376 147.553 194.392C147.362 193.096 147.936 191.389 148.145 190.101C148.701 191.442 150.526 191.598 151.76 191.817C152.693 191.983 155.457 191.718 156.16 192.383C156.937 193.117 155.507 195.164 155.134 195.935C154.689 196.855 154.139 199.007 153.285 199.629ZM152.289 200.693C151.678 200.792 149.918 201.4 149.953 200.283C149.992 199.007 152.414 200.384 152.289 200.693ZM149.188 200.626C149.076 201.7 146.764 201.611 146.711 200.666C146.621 199.069 149.365 198.91 149.188 200.626ZM146.544 171.651C145.953 173.335 142.353 173.937 140.97 174.455C139.707 174.929 135.935 177.114 134.633 176.321C139.041 173.292 143.557 170.324 147.291 166.456C147.444 167.412 147.211 168.21 146.929 169.114C146.675 169.93 146.806 170.905 146.544 171.651ZM145.448 177.79C144.814 181.914 144.191 186.092 143.333 190.175C141.698 189.675 140.349 188.662 138.631 188.309C137.063 187.988 135.444 187.98 133.863 188.215C130.494 188.716 127.491 190.382 124.551 192.006C124.28 189.178 123.718 186.152 123.784 183.314C123.839 180.956 127.874 180.258 129.703 179.284C130.81 178.695 131.811 177.867 133.072 177.661C134.37 177.45 135.623 177.456 136.905 177.061C139.936 176.125 142.788 174.643 145.758 173.538C146.001 174.953 145.663 176.395 145.448 177.79ZM142.616 195.243C142.481 196.18 142.651 197.853 141.937 198.567C141.264 199.241 139.827 199.262 138.94 199.445C136.238 200.001 133.538 200.562 130.84 201.136C129.633 201.392 128.425 201.638 127.213 201.867C126.635 201.976 125.185 202.53 124.698 202.07C124.236 201.633 124.58 200.238 124.605 199.652C124.655 198.482 124.721 197.309 124.647 196.139C124.506 193.894 124.631 193.035 126.72 191.874C128.94 190.64 131.231 189.795 133.73 189.338C136.258 188.875 138.668 189.128 141.075 190.099C141.745 190.369 142.75 190.702 143.062 191.424C143.486 192.407 142.759 194.247 142.616 195.243ZM139.574 231.421C138.583 232.043 136.428 231.937 135.29 232.063C133.453 232.266 131.604 232.15 129.779 231.866C128.405 231.653 126.354 231.358 125.301 230.393C123.805 229.023 125.532 228.96 126.676 229.056C130.005 229.336 133.376 229.141 136.701 228.9C137.349 228.853 139.089 228.285 139.713 228.551C140.512 228.891 140.267 230.987 139.574 231.421ZM137.686 253.57C131.484 252.968 127.889 247.832 125.64 242.582C124.432 239.763 124.868 236.806 124.748 233.825C124.727 233.28 124.385 231.929 124.945 231.523C125.471 231.14 127.598 232.322 128.174 232.463C131.123 233.186 134.386 233.255 137.342 232.553C138.623 232.249 139.34 231.683 139.747 232.952C140.075 233.975 139.537 235.858 139.478 236.929C139.377 238.782 139.667 253.762 137.686 253.57ZM125.297 253.576C125.273 252.676 124.819 243.586 125.26 243.558C126.568 246.381 127.912 248.906 130.294 250.982C131.511 252.043 132.879 253 134.401 253.569C134.972 253.783 138.212 253.945 138.371 254.655C138.648 255.896 136.437 255.395 135.781 255.294C135.255 255.213 134.781 254.989 134.265 254.895C133.281 254.717 132.351 254.956 131.364 254.976C129.863 255.007 128.388 254.85 126.886 254.979C125.514 255.098 125.333 254.94 125.297 253.576ZM126.212 212.801C131.522 211.085 135.959 214.335 138.761 218.589C140.358 221.015 140.716 222.711 140.436 225.583C140.336 226.611 140.521 227.307 139.576 227.726C138.64 228.141 136.514 227.834 135.502 227.881C132.59 228.017 129.69 228.198 126.778 228.025C124.887 227.913 124.62 227.593 124.652 225.757C124.692 223.547 124.508 221.347 124.383 219.133C124.247 216.738 123.425 213.702 126.212 212.801ZM124.475 209.618C124.478 207.994 124.381 206.328 124.48 204.706C124.579 203.099 125.263 203.179 126.78 202.905C130.066 202.31 133.348 201.646 136.59 200.84C137.872 200.522 139.321 199.91 140.657 199.905C142.058 199.901 141.984 200.621 141.89 201.862C141.683 204.611 141.179 207.32 141.026 210.054C140.86 213.005 140.774 215.995 140.787 218.949C140.792 219.947 141.034 220.685 140.184 219.752C139.333 218.817 138.916 217.327 138.156 216.276C136.599 214.125 134.285 212.394 131.718 211.665C130.298 211.262 128.804 211.193 127.357 211.484C126.918 211.573 124.718 212.623 124.438 212.415C124.249 212.275 124.475 209.684 124.475 209.618ZM143.898 265.897C146.004 267.405 148.336 268.623 150.696 269.681C152.025 270.276 157.283 271.528 157.451 272.868C157.54 273.583 156.669 274.384 156.098 274.468C155.374 274.575 154.181 274.102 153.444 274.013C150.762 273.687 148.086 273.685 145.469 272.939C140.245 271.448 134.829 271.028 129.551 269.728C128.295 269.419 127.036 269.129 125.774 268.849C124.575 268.583 124.038 268.629 123.995 267.347C123.902 264.535 124.709 261.654 124.715 258.807C128.985 259.294 133.27 259.288 137.552 259.689C139.387 259.861 139.344 260.208 140.148 261.811C140.983 263.475 142.402 264.826 143.898 265.897ZM123.078 174.53C123.024 173.489 122.982 172.445 122.888 171.407C122.824 170.709 122.187 168.76 122.546 168.216C122.973 167.572 123.403 167.965 124.167 167.947C125.173 167.923 126.017 167.518 126.847 166.989C128.419 165.986 129.588 164.666 130.608 163.126C131.506 161.77 131.338 159.917 131.328 158.294C131.299 154.096 131.605 150.001 131.349 145.785C131.231 143.848 132.884 145.036 134.219 145.287C136.403 145.697 138.777 145.413 140.996 145.418C140.914 145.934 136.375 147.216 135.642 147.704C133.765 148.952 132.671 150.949 132.842 153.226C133.186 157.807 138.231 158.572 141.917 158.581C138.859 161.285 135.855 163.864 133.452 167.2C131.679 169.659 128.558 174.509 131.455 177.231C128.894 178.685 126.356 180.304 123.459 181.003C123.329 178.846 123.19 176.689 123.078 174.53ZM121.915 90.9127C122.958 91.5825 123.396 90.6355 124.19 90.1452C125.307 89.4541 125.677 89.522 125.819 87.979C126.081 85.117 124.878 82.5262 123.366 80.1843C122.679 79.1197 121.993 77.8519 121.024 77.0199C120.14 76.2611 119.246 76.5223 118.427 75.738C118.105 75.4299 118.174 74.9945 117.642 75.0068C117.292 75.0152 116.441 76.0996 116.152 76.339C115.239 77.0951 114.122 77.6706 112.925 77.047C111.182 76.1397 111.742 72.8459 113.095 71.779C114.138 70.9572 115.37 71.0844 116.556 70.9515C117.446 70.8526 117.631 70.8912 117.265 69.8728C117.008 69.1599 116.417 68.6035 116.125 67.9059C115.564 66.5667 115.686 64.9393 115.443 63.5219C115.226 62.2518 114.716 60.8783 114.735 59.5884C114.759 57.9461 115.295 57.5195 116.718 57.059C118.097 56.613 119.238 55.6298 120.413 54.8038C121.741 53.8687 123.197 53.2512 124.563 52.3974C125.49 51.8174 126.088 50.6451 127.108 51.1927C128.32 51.8433 129.601 53.727 130.631 54.6893C129.123 55.6462 128.773 56.0647 128.98 57.938C129.171 59.6552 129.521 61.1857 130.834 62.382C131.338 62.8418 132.278 63.2099 132.669 63.7399C133.125 64.3573 132.829 63.8132 132.771 64.5101C132.741 64.8862 132.443 65.1321 132.508 65.5667C132.797 67.4965 135.014 66.3575 135.928 65.6869C139.193 63.2916 133.097 61.3892 131.65 60.5167C130.65 59.9134 130.155 57.9892 131.739 58.5005C132.793 58.8404 135.173 61.7233 135.415 59.0954C138.028 60.6133 139.64 63.8376 141.831 65.8763C143.41 67.3468 145.533 68.9777 144.279 71.3257C142.681 74.3191 139.512 75.6777 136.619 76.9691C133.814 78.2216 134.396 81.7663 135.896 83.936C136.763 85.19 137.899 85.925 139.266 86.5344C140.662 87.1572 140.952 87.8889 141.257 89.3334C141.596 90.936 141.236 91.5817 139.848 92.4096C138.493 93.2184 137.077 94.0015 135.631 94.6343C132.503 96.0028 129.258 96.0895 125.932 96.5557C124.766 96.7192 123.648 97.0598 123.012 95.9039C122.297 94.6029 122.244 92.363 121.915 90.9127ZM121.412 84.6878C120.629 84.275 118.74 85.6455 117.75 85.7058C116.149 85.8028 115.098 85.7662 113.677 86.6154C110.99 88.2207 108.761 90.2873 106.607 92.5287C104.18 95.0532 101.768 97.5909 99.3495 100.123C98.2533 101.27 97.1516 102.411 96.0385 103.54C95.1611 104.431 94.3031 105.683 93.2171 106.318C93.2736 105.564 93.7364 105.029 93.9006 104.33C93.9961 103.921 93.8292 103.574 93.891 103.182C93.9113 103.055 94.2526 102.613 94.3046 102.468C94.4432 102.085 94.6127 101.707 94.7773 101.31C94.9308 100.939 94.9083 100.554 95.0641 100.167C95.2241 99.7679 95.6628 99.5036 95.8148 99.1103C96.2608 97.959 95.5227 97.4252 94.3424 97.4523C94.804 95.149 95.006 94.0222 97.4143 93.21C99.7154 92.434 101.963 91.5627 104.077 90.3499C105.954 89.2735 107.519 87.7216 109.323 86.5218C110.939 85.4473 112.949 84.3216 112.933 82.1183C113.848 82.7396 114.707 83.2624 115.754 82.6438C116.638 82.1218 116.756 81.7014 117.778 81.6029C118.612 81.523 119.129 81.5017 119.874 81.8686C120.75 82.3001 120.87 82.6002 121.38 81.3298C121.96 81.8178 123.426 83.8512 123.377 84.6561C123.351 85.0994 123.283 85.2995 122.734 85.4164C121.955 85.5821 121.985 84.9895 121.412 84.6878ZM117.762 205.03C117.381 205.614 115.775 205.506 115.155 205.498C113.264 205.474 112.603 203.887 111.774 202.354C110.466 199.936 108.512 194.915 110.657 192.378C112.35 190.376 115.648 192.899 116.804 194.411C117.801 195.718 117.505 197.677 117.598 199.245C117.676 200.566 118.514 203.878 117.762 205.03ZM112.597 205.906C111.841 206.661 109.388 206.501 108.386 206.664C106.599 206.953 104.821 207.301 103.087 207.829C101.796 208.222 100.52 209.279 100.18 207.479C99.8937 205.967 100.036 204.152 100.063 202.625C100.093 200.977 100.265 199.35 100.408 197.71C100.505 196.601 100.263 194.56 101.168 193.709C101.948 192.975 103.846 192.905 104.859 192.661C106.523 192.262 108.261 191.738 109.99 191.917C108.981 194.655 108.895 197.527 109.977 200.256C110.286 201.035 113.064 205.438 112.597 205.906ZM99.8838 194.996C99.4622 199.115 99.0383 203.26 99.4442 207.4C99.4687 207.647 99.7638 208.778 99.6355 208.955C99.503 209.139 98.453 209.233 98.2147 209.289C97.2681 209.514 96.3226 209.752 95.3699 209.952C93.5157 210.339 93.2736 209.168 92.9097 207.449C92.1303 203.767 93.6413 199.775 94.557 196.238C95.003 194.516 95.3333 194.317 97.0268 194.175C98.2051 194.076 100.063 193.246 99.8838 194.996ZM92.7234 210.364C92.0146 211.009 91.3063 207.968 91.2437 207.657C90.9963 206.427 91.1341 205.178 91.1375 203.929C91.1437 201.976 90.9943 200.033 90.9913 198.089C90.9898 197.038 90.202 194.889 91.4461 194.333C91.8111 194.17 93.261 194.238 93.5898 194.453C94.2733 194.899 94.0041 195.188 93.8013 195.964C93.348 197.707 92.9559 199.458 92.5611 201.215C92.1739 202.937 91.7916 204.595 91.9761 206.374C92.0368 206.962 93.1747 209.953 92.7234 210.364ZM115.323 191.171C117.05 190.685 117.142 192.008 117.139 193.275C116.876 193.073 114.421 191.425 115.323 191.171ZM92.2159 98.1912C91.7924 98.8888 89.1115 99.0794 88.3455 99.2631C86.8383 99.6239 85.3304 99.9825 83.8271 100.359C81.011 101.063 78.264 101.857 75.3768 102.225C76.9622 99.6873 77.4556 97.4955 77.1604 94.3276C76.7885 90.3281 76.3154 86.3695 75.3948 82.4548C74.4871 78.5943 73.4363 74.7597 72.424 70.9252C71.9268 69.0411 71.3892 67.1933 70.7278 65.3601C70.1978 63.8911 69.3696 62.0414 70.2696 60.5354C72.553 62.2014 74.3848 63.9965 75.6873 66.5274C77.0825 69.2404 78.301 72.0257 79.9204 74.6215C80.6608 75.8083 81.5257 76.8904 82.3176 78.039C82.7888 78.7225 83.1321 79.7089 83.7324 80.2855C84.4243 80.9499 85.162 81.2634 85.5576 80.1419C85.9818 78.9383 84.6282 76.5571 84.2288 75.4268C83.2639 72.6985 82.3073 69.9755 81.5631 67.1769C80.9613 64.9145 79.9662 62.1793 80.3183 59.7923C80.6669 57.429 82.2703 59.1206 83.0817 60.2192C84.7542 62.4844 85.7558 65.1245 86.8548 67.6924C87.8647 70.0515 89.0427 72.301 90.1604 74.6054C90.5491 75.4073 91.0616 77.4789 92.0799 77.7171C93.5604 78.0642 93.4351 75.9793 93.2935 75.1335C92.3553 69.5253 89.9061 64.1557 89.3979 58.4505C89.3734 58.1778 89.0194 56.0582 89.3043 55.881C89.8561 55.5377 90.6007 57.6883 90.8386 58.2153C92.0773 60.9558 92.9395 63.8449 93.731 66.7397C94.4042 69.2019 95.0129 71.6824 95.7682 74.1213C96.1833 75.4615 96.659 76.7797 97.1283 78.102C97.5526 79.2999 97.9833 81.3466 99.0899 82.1359C100.66 83.2555 106.278 80.5936 106.847 82.9733C107.253 84.6649 102.043 86.0273 100.933 86.5409C99.4729 87.2172 98.0402 87.9576 96.5789 88.6346C95.4727 89.1467 93.8826 89.3567 93.0823 90.3201C92.2346 91.3408 92.0987 92.7743 92.0734 94.0405C92.054 94.9989 92.718 97.3641 92.2159 98.1912ZM88.6651 116.663C88.591 117.194 88.1683 117.898 87.9781 118.404C87.5913 119.435 87.2622 120.667 86.7238 121.63C86.261 122.459 85.5775 123.2 85.1299 124.042C84.7057 124.841 84.6492 125.762 84.1536 126.562C83.5861 127.476 82.6487 128.133 82.0855 129.041C81.8079 129.489 81.5211 130.001 81.1289 130.478C79.7398 132.168 78.3606 133.763 77.2433 135.574C76.9577 136.037 75.562 138.061 75.0068 138.17C73.8456 138.398 75.197 136.748 75.4242 136.406C77.0692 133.938 78.5301 131.338 80.1178 128.831C81.6559 126.404 83.2299 123.995 84.7099 121.531C85.9173 119.522 86.752 116.638 88.714 115.223C88.7212 115.704 88.7056 116.184 88.6651 116.663ZM142.305 93.9737C143.26 97.9021 144.403 101.709 145.48 105.602C146.48 109.214 147.81 113.08 148.225 116.804C148.635 120.494 149.578 124.226 150.847 127.728C151.433 129.348 152.036 130.974 152.673 132.576C153.022 133.455 153.413 134.315 153.81 135.175C154.118 135.842 154.932 136.923 154.964 137.63C154.988 138.197 155.185 137.97 154.626 138.396C154.047 138.837 153.044 138.677 152.371 138.754C150.612 138.958 148.897 139.619 147.183 140.048C143.877 140.874 139.936 141.53 136.549 140.955C135.124 140.713 133.644 140.503 132.235 140.188C130.501 139.8 130.144 139.083 129.788 137.379C129.01 133.653 128.34 129.937 127.697 126.187C126.933 121.726 126.106 117.27 125.517 112.782C124.921 108.241 124.493 103.695 123.56 99.2035C127.325 99.8331 130.87 100.544 134.645 99.5128C137.989 98.5994 140.402 96.8139 142.305 93.9737ZM157.041 142.609C157.882 144.343 155.854 145.903 154.871 147.239C153.575 149 152.364 150.84 150.856 152.432C150.404 150.622 150.007 148.586 148.8 147.099C147.258 145.201 145.459 145.976 143.571 145.078C145.551 144.115 148.08 144.483 150.181 143.623C152.253 142.776 154.346 142.111 156.274 141.01C156.53 141.543 156.783 142.077 157.041 142.609ZM149.696 183.078C148.43 183.148 149.277 180.479 149.359 179.816C149.585 177.992 149.814 176.169 150.012 174.342C151.056 177.096 152.1 179.85 153.144 182.604C151.997 182.768 150.856 183.014 149.696 183.078ZM147.637 196.28C147.81 196.664 148.615 197.943 147.979 198.179C147.108 198.502 147.003 196.383 147.637 196.28ZM146.127 166.612C142.095 169.831 138.09 173.059 133.727 175.831C132.771 176.438 131.809 176.692 131.175 175.488C130.677 174.541 131.203 173.474 131.523 172.547C132.337 170.184 133.756 168.129 135.329 166.206C138.469 162.365 142.208 159.085 146.977 157.57C147.758 157.322 148.963 156.575 149.236 157.607C149.397 158.214 148.715 159.731 148.577 160.301C148.008 162.654 148.132 165.012 146.127 166.612ZM157.734 190.091C157.823 192.824 150.35 190.62 149.419 190.131C150.396 189.803 157.694 188.862 157.734 190.091ZM160.509 190.108C160.953 190.226 162.656 190.376 162.02 190.958C161.451 191.48 158.873 191.27 158.189 191.334C158.648 189.826 158.997 189.705 160.509 190.108ZM159.125 186.446C158.958 187.054 158.89 187.982 158.345 188.399C157.666 188.918 156.223 188.603 155.454 188.607C154.148 188.614 152.844 188.681 151.545 188.81C151.048 188.86 149.034 189.466 148.568 189.053C148.226 188.749 148.353 187.322 148.603 187.001C149.114 186.342 150.293 186.57 151.031 186.544C153.734 186.448 156.421 186.44 159.125 186.446ZM157.39 176.341C157.009 175.774 156.94 175.781 156.778 174.924C156.604 174.008 156.161 173.224 155.901 172.339C155.329 170.39 157.157 170.563 158.499 171.278C161.978 173.131 161.138 179.608 160.278 182.64C159.027 181.721 158.565 181.304 158.135 179.82C157.971 179.256 157.788 178.702 157.618 178.142C157.493 177.728 157.58 176.624 157.39 176.341ZM157.691 144.819C158.663 144.701 159.551 147.715 159.274 148.367C158.706 149.702 156.536 150.893 155.43 151.745C154.694 152.312 153.964 152.962 153.177 153.456C152.447 153.915 152.027 153.658 151.348 153.878C150.365 154.196 150.127 155.236 149.121 155.683C147.706 156.312 145.991 156.488 144.513 157.055C142.72 157.744 141.076 157.763 139.196 157.436C136.492 156.967 133.322 155.626 133.566 152.34C133.996 146.543 145.509 143.572 148.649 148.488C149.466 149.767 149.453 151.258 149.984 152.633C150.558 154.12 151.115 153.535 151.98 152.44C153.111 151.007 154.161 149.497 155.247 148.029C155.599 147.555 156.99 144.904 157.691 144.819ZM87.1362 201.263C87.0808 202.249 87.14 203.249 86.7971 204.189C86.4515 205.138 85.7512 205.905 85.348 206.827C84.5301 208.696 84.5362 210.957 84.569 212.959C84.645 217.617 85.7481 222.142 86.3316 226.745C84.3895 226.74 82.3818 226.762 80.4997 226.207C78.8184 225.711 78.55 224.482 78.0746 222.933C76.7392 218.584 75.2974 214.254 74.8663 209.7C74.6612 207.53 74.5749 205.342 74.4768 203.164C74.3913 201.254 74.8201 200.421 76.5441 199.476C80.2919 197.42 84.1769 195.708 87.8861 193.555C87.5069 196.109 87.2805 198.684 87.1362 201.263ZM247.128 48.6301C246.216 48.4624 245.294 48.3578 244.374 48.2478C243.893 48.1905 242.396 48.2704 242.037 47.9572C241.608 47.5846 242.35 44.7665 242.387 44.1616C242.619 40.5253 242.35 36.7763 242.016 33.1537C241.413 26.5952 239.35 20.5193 234.592 15.7969C232.223 13.4461 229.56 11.5811 226.325 10.6811C224.441 10.1566 222.499 9.877 220.61 9.36853C219.086 8.95781 217.665 8.48772 216.082 8.32497C212.925 8.00025 210.039 6.80746 206.959 6.11742C204.692 5.60971 201.046 4.40555 199.577 6.96486C198.42 5.60826 197.257 4.5896 195.798 3.57766C194.401 2.60837 194.172 1.64015 192.461 2.75939C189.137 4.93426 186.023 7.58735 182.918 10.0617C180.018 12.3727 177.212 14.7928 174.172 16.9179C171.072 19.0856 171.66 22.7642 173.118 25.8138C175.861 31.5541 180.091 36.4612 183.794 41.3814C186.113 44.4637 188.44 47.5502 190.75 50.6386C192.959 53.5903 194.869 57.0067 197.45 59.6587C199.077 61.3304 201.019 59.1443 202.488 58.1343C204.31 56.8796 206.101 55.5782 207.926 54.3273C211.726 51.7215 215.792 49.2807 219.804 47.0125C220.095 47.8396 220.387 48.6667 220.679 49.4942C219.798 49.5602 218.608 49.3632 218.159 50.3106C217.519 51.6635 219.09 51.841 219.366 52.617C219.612 53.3096 218.603 55.1395 218.304 55.7638C217.633 57.1705 216.696 58.3833 215.663 59.5411C211.577 64.1236 206.407 67.4014 201.162 70.5257C195.548 73.8685 189.532 75.9095 183.386 78.0635C180.261 79.1586 177.018 79.6676 173.793 80.3687C170.686 81.0446 167.581 81.9324 164.406 82.1875C157.91 82.7087 151.017 83.0993 144.599 81.6983C143.897 81.5452 143.153 81.213 142.439 81.15C141.866 81.0992 141.441 81.3394 140.901 81.3703C139.739 81.4367 139.073 80.3981 138.151 81.363C137.689 81.8457 137.681 82.656 137.038 81.7552C136.22 80.6093 138.311 80.3878 139.086 80.0613C141.696 78.962 143.794 76.7491 145.452 74.5119C147.109 72.2765 147.347 69.8892 146.338 67.272C145.33 64.6559 143.036 62.8826 141.314 60.758C140.481 59.7293 139.714 58.641 138.8 57.6807C138.311 57.1679 137.524 56.6768 137.494 56.1594C137.458 55.558 137.818 55.2594 137.603 54.5285C137.547 54.3383 137.309 54.2303 137.258 54.0214C137.177 53.6884 137.302 53.4028 137.26 53.0782C137.163 52.3344 136.871 51.867 136.458 51.2576C136.201 50.8765 135.825 50.1139 135.471 49.8287C134.85 49.3285 134.004 49.5324 133.373 49.0253C132.375 48.2234 132.024 46.5337 131.141 45.56C129.898 44.1899 129.633 45.5741 128.316 45.1377C127.19 44.7638 127.203 43.0692 126.293 42.496C125.011 41.6888 123.931 43.1742 122.793 43.5049C121.295 43.9402 121.871 42.2505 120.536 42.0966C119.331 41.9576 117.661 44.4026 117.06 45.2709C116.447 44.5572 115.778 43.341 114.676 43.7767C113.519 44.2342 113.313 46.3634 112.468 47.1229C112.173 47.3871 112.235 47.5819 111.873 47.7037C111.405 47.8602 110.781 47.1809 110.176 47.3879C108.955 47.806 109.104 49.435 109.102 50.4904C107.662 50.28 106.657 50.1727 106.175 51.725C105.703 53.2443 105.524 52.5738 104.005 53.0675C102.696 53.4925 102.513 54.7358 102.297 55.9517C102.163 56.7077 102.287 57.0166 102.49 57.7059C102.747 58.5742 102.747 58.5635 102.328 59.3921C101.599 60.8386 101.556 62.4317 101.439 64.0232C101.316 65.7213 101.019 67.2674 101.501 68.9262C101.799 69.9526 101.822 71.3494 102.828 71.9241C103.226 72.1521 103.904 72.0272 104.243 72.2532C104.891 72.6847 104.694 73.3411 105.125 73.9712C105.448 74.4428 105.97 74.4882 106.332 74.8704C106.726 75.2867 106.749 75.7934 106.973 76.3012C107.637 77.805 108.261 78.5324 106.098 78.6183C104.763 78.6714 103.339 79.0716 102.009 78.9486C100.441 78.8043 100.051 77.9272 99.5512 76.5918C97.0344 69.8629 95.6819 62.5695 92.3675 56.1708C91.6397 54.7656 88.6525 49.026 87.3897 53.2081C86.3251 56.7352 87.7219 61.0398 88.2576 64.5506C86.5771 63.0361 85.9555 60.3078 84.6794 58.4585C83.737 57.0922 80.7857 53.7373 79.0555 55.6599C77.6923 57.1751 78.0329 60.3884 78.2846 62.1999C78.6821 65.066 79.5981 67.828 80.2522 70.6392C79.4286 69.5616 79.0223 68.2461 78.4507 67.033C77.734 65.5117 76.8397 64.0683 75.8205 62.7314C74.93 61.5633 73.9342 60.4774 72.8543 59.4815C72.0292 58.7197 70.5514 57.0525 69.3795 56.9624C66.3633 56.731 67.3118 62.2636 67.7712 63.8453C68.7235 67.1238 69.7556 70.3119 70.4949 73.6562C71.9398 80.1904 73.6898 86.5738 74.7544 93.1912C74.99 94.6583 75.2737 95.8294 74.6937 97.24C74.182 98.4825 73.6516 99.9683 72.7081 100.924C70.5724 103.087 68.7991 105.397 67.2026 108.004C65.4927 110.796 63.7324 113.621 62.3367 116.585C61.6949 117.949 61.1698 119.424 60.4321 120.735C59.7661 121.919 58.9658 122.855 58.4923 124.165C56.2302 130.429 54.5555 136.582 53.7887 143.214C53.1591 148.659 53.7456 155.902 60.3194 157.176C63.3395 157.761 66.051 156.422 68.7743 155.316C71.5908 154.174 73.6276 152.315 75.9248 150.34C78.7794 147.886 81.7433 145.584 84.6282 143.171C87.5146 140.757 90.1806 138.079 93.0514 135.639C95.8866 133.228 98.4518 130.668 100.904 127.869C103.336 125.091 105.312 122.015 107.667 119.199C107.658 122.845 107.117 126.457 106.965 130.098C106.826 133.436 106.823 136.771 106.958 140.108C107.093 143.442 106.212 146.616 106.204 149.944C106.197 153.189 106.068 156.417 105.997 159.659C105.965 161.113 105.68 162.745 106.224 164.148C106.629 165.196 107.905 165.524 108.993 165.806C110.675 166.242 115.734 165.402 116.485 167.198C116.895 168.179 116.482 169.963 116.514 171.047C116.567 172.832 116.633 174.617 116.694 176.401C116.757 178.245 116.819 180.088 116.886 181.931C116.945 183.555 117.261 185.364 117.066 186.972C116.898 188.35 116.095 188.17 114.821 188.24C112.899 188.346 110.977 188.432 109.054 188.516C106.233 188.639 103.29 188.583 100.586 188.916C99.4504 189.056 98.2094 188.996 97.0115 189.224C95.5089 189.51 94.1213 189.582 92.5973 189.658C91.3689 189.718 89.7896 189.629 88.8243 190.538C88.4898 190.853 88.4146 191.228 88.1775 191.579C87.7326 192.236 87.98 192.063 87.2503 192.211C84.401 192.788 81.6949 193.439 78.9085 194.41C77.5136 194.896 76.2195 195.549 74.8182 196.006C73.5902 196.407 72.6901 196.901 72.083 198.106C70.9986 200.259 71.2731 203.375 71.3518 205.695C71.4755 209.315 72.2796 212.762 73.1468 216.263C74.0491 219.906 74.7567 223.646 76.512 226.992C77.0886 228.091 77.7114 229.494 78.8894 230.067C80.4103 230.807 82.7495 230.359 84.4094 230.361C85.5232 230.363 88.5074 230.746 89.3402 229.812C90.1463 228.907 89.3352 226.356 89.2214 225.234C88.8224 221.3 88.1042 217.329 88.1137 213.369C89.0225 214.711 90.598 217.029 92.175 214.972C92.563 214.466 92.4114 214.231 93.1006 213.937C93.4817 213.775 94.2855 213.675 94.7006 213.703C95.2653 213.741 95.4742 213.968 95.9927 213.857C96.4521 213.759 96.9683 213.347 97.4949 213.223C104.022 211.671 110.511 209.999 117.066 208.617C118.8 208.251 118.553 209.582 118.668 211.08C118.794 212.738 118.553 214.411 118.783 216.05C118.983 217.476 119.139 218.865 118.857 220.3C118.525 221.992 118.739 223.403 119.07 225.079C120.345 231.539 120.117 238.546 120.404 245.112C120.554 248.532 120.233 252.024 120.554 255.425C120.676 256.71 121.393 257.42 121.683 258.589C122.017 259.931 121.107 261.639 120.83 262.939C120.274 265.549 119.297 269.284 121.084 271.554C122.05 272.781 123.315 272.959 124.744 273.373C126.454 273.87 128.14 274.448 129.858 274.918C136.135 276.636 142.919 276.972 149.353 277.919C150.928 278.151 152.39 278.129 153.975 278.02C154.953 277.952 157.36 278.273 158.172 277.688C158.608 277.376 158.387 276.984 158.608 276.601C158.923 276.057 159.304 275.836 159.839 275.498C160.725 274.938 161.75 274.611 161.899 273.454C162.265 270.622 158.726 269.122 156.834 267.897C154.415 266.332 151.494 265.728 148.928 264.45C147.512 263.745 146.146 262.946 144.781 262.146C144.19 261.8 142.99 261.407 142.578 260.861C142.157 260.304 142.569 259.509 142.743 258.712C143.463 255.422 143.22 252.059 143.592 248.734C143.964 245.404 143.863 242.053 143.985 238.706C144.112 235.259 144.396 231.821 144.615 228.379C144.816 225.2 145.019 221.97 145.052 218.788C145.084 215.837 145.487 212.942 145.582 209.972C145.614 208.964 145.433 207.135 146.102 206.281C146.689 205.532 148.633 205.626 149.539 205.495C151.983 205.141 154.308 204.829 156.724 204.616C162.473 204.107 168.87 203.732 174.305 201.729C176.547 200.902 179.53 199.774 180.274 197.2C181.129 194.241 180.013 190.604 179.976 187.578C179.936 184.348 179 181.196 178.298 178.066C177.541 174.697 177.065 171.27 176.248 167.913C175.499 164.833 174.282 162.105 173.133 159.181C172.666 157.995 170.01 153.908 170.834 152.9C171.278 152.357 172.876 152.22 173.525 151.971C174.923 151.436 176.324 150.828 177.613 150.066C179.334 149.049 183.103 147.366 183.276 145.106C183.442 142.946 181.319 140.763 180.24 139.066C178.502 136.333 176.309 133.943 174.653 131.155C171.307 125.521 168.646 119.351 166.207 113.279C164.931 110.103 164.514 107.112 164.304 103.722C168.009 103.73 171.781 104.186 175.463 103.668C179.471 103.104 183.484 102.154 187.456 101.371C194.69 99.9454 201.636 98.3355 208.337 95.1249C214.612 92.1186 220.98 88.8282 226.176 84.0559C228.862 81.5883 231.603 79.0735 233.923 76.2516C236.306 73.353 238.099 70.0595 239.938 66.8054C241.967 63.2133 243.583 59.4383 244.86 55.5095C245.117 54.7194 245.118 53.7136 245.447 52.9675C245.818 52.1251 246.493 52.103 247.198 51.6593C248.189 51.035 248.849 48.9459 247.128 48.6301Z" fill="#333333"/>
<path fill-rule="evenodd" clip-rule="evenodd" d="M160.851 8.42198C161.698 9.14974 165.35 11.7133 166.529 11.09C167.984 10.3205 165.68 8.00247 165.06 7.431C164.271 6.70395 161.45 4.50446 160.37 4.70863C158.212 5.11698 160.089 7.76695 160.851 8.42198Z" fill="#333333"/>
<path fill-rule="evenodd" clip-rule="evenodd" d="M162.654 34.7315C163.133 33.7895 164.406 33.4431 164.995 32.5317C165.703 31.4358 166.029 30.4767 165.767 29.1328C163.955 29.743 161.892 31.59 160.68 33.0342C159.666 34.2412 158.226 36.7633 160.871 36.7698C160.848 36.4109 160.825 36.0512 160.802 35.6926C161.595 35.8079 162.294 35.4414 162.654 34.7315Z" fill="#333333"/>
<path fill-rule="evenodd" clip-rule="evenodd" d="M154.019 19.0582C155.187 19.3941 156.152 19.3465 157.346 19.3728C158.212 19.3921 159.396 19.8684 160.099 19.3316C159.476 18.9707 160.263 18.9508 160.109 18.5989C159.979 18.3056 159.733 18.4017 159.533 18.1642C158.82 17.3181 158.2 17.3285 157.069 17.1525C156.192 17.0155 154.903 16.6995 154.061 17.1352C153.175 17.5938 152.832 18.717 154.019 19.0582Z" fill="#333333"/>
<path fill-rule="evenodd" clip-rule="evenodd" d="M170.654 45.0112C171.41 44.3774 172.234 42.5422 172.386 41.5952C172.446 41.224 172.179 40.9399 172.211 40.6669C172.272 40.1465 173.341 39.1407 172.221 38.7138C171.241 38.3399 170.32 41.2435 170.071 41.877C169.816 42.525 169.12 43.7874 169.334 44.414C169.511 44.9341 170.143 45.4389 170.654 45.0112Z" fill="#333333"/>
<path fill-rule="evenodd" clip-rule="evenodd" d="M179.695 5.71213C180.379 5.07745 180.812 4.35763 180.741 3.48483C180.685 2.79731 180.17 0.426934 179.591 0.496622C177.667 0.728864 178.532 6.79295 179.695 5.71213Z" fill="#333333"/>
<path fill-rule="evenodd" clip-rule="evenodd" d="M129.664 69.2271C130.547 72.5171 138.583 73.9166 137.5 69.4795C136.958 67.2579 134.693 69.2316 133.113 68.9731C132.09 68.8059 129.043 66.9069 129.664 69.2271Z" fill="#333333"/>
<path fill-rule="evenodd" clip-rule="evenodd" d="M127.647 63.3578C128.025 61.5975 124.174 59.6543 122.776 60.1388C120.732 60.8483 120.741 65.3828 122.3 66.5883C122.505 66.7468 123.134 67.1252 123.442 66.8235C123.928 66.3466 123.397 66.4768 123.284 66.0006C123.104 65.2434 122.515 64.2712 123.101 63.4094C124.21 61.7819 127.105 65.8803 127.647 63.3578Z" fill="#333333"/>
<path fill-rule="evenodd" clip-rule="evenodd" d="M115.904 71.9025C114.515 71.8246 113.377 73.9797 115.419 73.7991C115.811 73.7644 116.651 73.6658 116.878 73.255C117.254 72.5741 116.514 71.9368 115.904 71.9025Z" fill="#333333"/>
<path fill-rule="evenodd" clip-rule="evenodd" d="M183.262 20.5282C182.786 19.8408 181.79 18.7345 180.933 19.424C180.173 20.0354 180.306 21.5446 180.597 22.2945C181.382 24.3134 183.234 26.112 185.331 24.9488C184.602 23.4896 184.192 21.8739 183.262 20.5282Z" fill="#333333"/>
<path d="M90.9851 197.953C91.0042 197.905 90.7937 196.37 90.686 195.608C90.686 194.34 90.9851 194.125 92.9229 194.256C94.8608 194.388 96.8704 194.149 97.4446 194.017C98.0188 193.886 102.062 193.275 104.191 192.677C106.32 192.079 108.378 191.888 108.952 191.828C109.526 191.768 113.916 191.493 115.101 191.122C116.285 190.751 116.775 191.027 116.943 191.421C117.11 191.816 117.469 195.56 117.565 196.302C117.66 197.044 117.32 196.737 118.007 202.068C118.7 207.442 115.162 205.157 114.135 205.568C112.652 206.16 110.939 206.581 109.802 206.689C108.666 206.796 108.209 206.783 105.817 207.166C103.424 207.549 101.975 208.395 101.712 208.479C101.449 208.562 98.9113 209.17 95.2914 209.951C91.7148 210.722 92.277 210.489 91.7148 209.484C91.1526 208.479 91.0569 205.884 91.0569 205.357V201.852C91.025 200.572 90.9659 198 90.9851 197.953Z" fill="white"/>
<path d="M140.812 213.215C140.774 211.153 141.56 204.846 141.958 201.95C141.958 200.868 142.034 198.437 142.34 197.368C142.721 196.032 143.071 194.588 143.166 193.395C143.262 192.202 143.819 187.727 144.201 186.342C144.583 184.958 145.442 176.891 145.919 175.603C146.397 174.314 147.304 167.823 147.304 166.963C147.304 166.104 149.881 163.384 151.17 162.763C152.459 162.142 152.808 165.425 153.524 166.284C154.24 167.143 155.481 170.89 155.72 171.534C155.836 171.847 157.319 173.825 157.891 177.882C158.464 181.94 159.423 182.066 160.541 182.799C161.925 183.706 161.018 185.758 160.541 186.188C160.063 186.617 152.029 186.82 149.881 186.82C148.092 186.82 148.369 188.097 148.274 189.195C148.178 190.293 147.668 195.089 147.304 197.034C147.017 198.561 146.445 200.948 147.304 201.616C148.163 202.285 149.907 200.948 153.031 200.948C153.986 200.948 154.32 200.757 155.513 200.948C156.707 201.139 164.821 199.707 166.539 199.612C168.258 199.516 171.742 198.705 172.553 198.705C173.365 198.705 177.183 196.7 177.756 196.032C178.329 195.363 177.374 191.163 177.183 189.683C176.992 188.204 176.658 187.44 176.801 186.82C176.945 186.199 175.704 181.951 175.656 181.378C175.608 180.805 174.081 175.46 174.176 174.123C174.272 172.787 172.76 168.384 172.235 165.95C171.71 163.515 169.642 159.995 168.735 156.462C167.828 152.93 166.444 154.84 164.869 154.553C163.294 154.267 162.53 151.833 161.146 150.019C159.761 148.205 158.807 146.678 158.664 145.914C158.52 145.15 156.516 141.904 156.086 141.427C155.657 140.95 152.28 143.346 144.503 144.709C137.63 145.914 135.18 146.2 132.841 145.055C130.97 144.138 131.075 147.091 131.362 148.682C131.362 152.214 131.648 159.422 130.646 163.384C129.89 166.369 125.777 167.632 123.725 167.966C121.672 168.3 122.818 170.437 122.818 170.877V174.123C122.675 174.839 123.725 183.287 123.725 184.29C123.725 185.292 124.584 193.359 124.584 194.075C124.584 194.791 124.361 197.082 124.361 199.612V207.189C124.361 209.146 124.202 215.029 124.106 215.602C124.011 216.174 125.013 222.32 124.584 222.75C124.154 223.179 124.727 232.26 124.584 232.88C124.441 233.501 124.584 237.165 124.584 239.217C124.584 241.27 125.252 244.67 125.013 250.398C124.775 256.125 125.538 255.028 126.35 255.553C126.991 255.968 128.545 255.028 129.596 255.314C130.173 255.471 132.078 255.266 133.128 255.028C134.178 254.789 136.278 255.935 137.948 255.553C139.619 255.171 139.38 244.765 139.333 242.092C139.285 239.419 139.715 235.41 139.905 233.883C140.096 232.355 140.207 228.382 140.541 227.618C140.875 226.855 140.86 215.792 140.812 213.215Z" fill="white"/>
<mask id="mask0" mask-type="alpha" maskUnits="userSpaceOnUse" x="148" y="95" width="11" height="11">
<ellipse cx="153.123" cy="100.65" rx="4.98564" ry="4.98568" fill="#C4C4C4"/>
</mask>
<g mask="url(#mask0)">
<path d="M153.667 112.794C153.926 112.899 157.338 112.399 159.012 112.136C159.237 112.207 156.157 113.415 154.454 113.816C152.75 114.216 151.484 114.979 152.162 115.7C152.84 116.421 157.002 115.066 158.963 113.973C160.925 112.88 161.011 111.95 160.992 110.257C160.973 108.565 159.323 106.805 158.876 105.843C158.43 104.882 156.176 102.21 155.887 101.084C155.598 99.9585 154.582 97.4595 154.204 97.4946C153.903 97.5226 153.356 98.58 153.121 99.1052L152.709 99.1435C152.536 98.6409 152.073 97.6558 151.61 97.7357C151.032 97.8356 150.664 102.307 150.655 102.458C150.646 102.609 151.357 103.569 151.752 103.601C152.068 103.627 152.14 104.049 152.136 104.257C152.235 105.247 152.423 107.271 152.375 107.451C152.315 107.675 152.477 110.035 152.566 110.626C152.656 111.217 152.358 111.855 152.054 112.31C151.751 112.765 152.292 112.76 152.384 112.752C152.475 112.743 153.344 112.663 153.667 112.794Z" fill="#F2994A"/>
<path d="M153.817 99.1623C153.589 98.7646 153.985 98.3291 154.211 98.1611C154.416 98.0686 154.699 99.0896 154.814 99.6117C154.577 99.6276 154.045 99.5601 153.817 99.1623Z" fill="white"/>
<path d="M152.234 99.1468C152.399 98.7576 152.074 98.3289 151.891 98.1632C151.512 98.0331 151.369 99.0235 151.344 99.535C151.572 99.5677 152.069 99.5359 152.234 99.1468Z" fill="white"/>
<ellipse rx="0.566396" ry="0.246725" transform="matrix(-0.995708 0.0925479 0.0925461 0.995708 152.435 101.655)" fill="white"/>
</g>
</svg>
