<svg width="43" height="43" viewBox="0 0 43 43" fill="none" xmlns="http://www.w3.org/2000/svg">
<path fill-rule="evenodd" clip-rule="evenodd" d="M28.6667 21.5003C28.6667 25.4584 25.458 28.667 21.5 28.667C17.542 28.667 14.3333 25.4584 14.3333 21.5003C14.3333 17.5423 17.542 14.3337 21.5 14.3337C25.458 14.3337 28.6667 17.5423 28.6667 21.5003ZM25.9792 21.5003C25.9792 23.9741 23.9738 25.9795 21.5 25.9795C19.0262 25.9795 17.0208 23.9741 17.0208 21.5003C17.0208 19.0265 19.0262 17.0212 21.5 17.0212C23.9738 17.0212 25.9792 19.0265 25.9792 21.5003Z" fill="#767A7F"/>
<path fill-rule="evenodd" clip-rule="evenodd" d="M21.5 1.79199C21.0201 1.79199 20.5441 1.80917 20.0724 1.84297C18.7043 1.94099 17.6616 2.94712 17.3628 4.1781L16.732 6.77588C16.698 6.91607 16.5716 7.08436 16.33 7.17154C15.8847 7.33226 15.449 7.51312 15.0241 7.713C14.792 7.82219 14.5837 7.79266 14.4604 7.71755L12.1773 6.32652C11.0961 5.66774 9.64817 5.69319 8.61148 6.59006C7.88984 7.21436 7.21403 7.89017 6.58973 8.6118C5.69287 9.6485 5.66742 11.0964 6.32619 12.1777L7.71723 14.4608C7.79234 14.5841 7.82186 14.7923 7.71267 15.0244C7.51279 15.4493 7.33193 15.885 7.17121 16.3304C7.08403 16.5719 6.91574 16.6983 6.77555 16.7324L4.17777 17.3631C2.9468 17.662 1.94067 18.7046 1.84264 20.0727C1.80884 20.5444 1.79167 21.0205 1.79167 21.5003C1.79167 21.9802 1.80884 22.4563 1.84264 22.928C1.94067 24.296 2.9468 25.3387 4.17777 25.6376L6.77555 26.2683C6.91574 26.3023 7.08403 26.4287 7.17121 26.6703C7.33193 27.1157 7.51279 27.5513 7.71267 27.9762C7.82186 28.2083 7.79234 28.4166 7.71723 28.5399L6.32619 30.823C5.66742 31.9042 5.69287 33.3521 6.58973 34.3888C7.21403 35.1105 7.88984 35.7863 8.61148 36.4106C9.64818 37.3075 11.0961 37.3329 12.1773 36.6741L14.4604 35.2831C14.5837 35.208 14.792 35.1785 15.0241 35.2876C15.449 35.4875 15.8847 35.6684 16.33 35.8291C16.5716 35.9163 16.698 36.0846 16.732 36.2248L17.3628 38.8226C17.6616 40.0535 18.7043 41.0597 20.0724 41.1577C20.5441 41.1915 21.0201 41.2087 21.5 41.2087C21.9799 41.2087 22.4559 41.1915 22.9276 41.1577C24.2957 41.0597 25.3383 40.0535 25.6372 38.8225L26.268 36.2248C26.302 36.0846 26.4284 35.9163 26.67 35.8291C27.1153 35.6684 27.551 35.4875 27.9759 35.2876C28.208 35.1785 28.4163 35.208 28.5395 35.2831L30.8227 36.6741C31.9039 37.3329 33.3518 37.3075 34.3885 36.4106C35.1102 35.7863 35.786 35.1105 36.4103 34.3888C37.3071 33.3521 37.3326 31.9042 36.6738 30.823L35.2828 28.5399C35.2077 28.4166 35.1781 28.2083 35.2873 27.9762C35.4872 27.5513 35.6681 27.1157 35.8288 26.6703C35.916 26.4287 36.0842 26.3023 36.2244 26.2683L38.8222 25.6376C40.0532 25.3387 41.0593 24.296 41.1574 22.928C41.1912 22.4563 41.2083 21.9802 41.2083 21.5003C41.2083 21.0205 41.1912 20.5444 41.1574 20.0727C41.0593 18.7046 40.0532 17.662 38.8222 17.3631L36.2244 16.7324C36.0842 16.6983 35.916 16.5719 35.8288 16.3304C35.6681 15.885 35.4872 15.4493 35.2873 15.0244C35.1781 14.7923 35.2077 14.5841 35.2828 14.4608L36.6738 12.1777C37.3326 11.0964 37.3071 9.6485 36.4103 8.6118C35.786 7.89017 35.1102 7.21435 34.3885 6.59006C33.3518 5.69319 31.9039 5.66775 30.8227 6.32652L28.5395 7.71755C28.4163 7.79266 28.208 7.82219 27.9759 7.713C27.551 7.51311 27.1153 7.33226 26.67 7.17154C26.4284 7.08436 26.302 6.91607 26.268 6.77588L25.6372 4.1781C25.3383 2.94712 24.2957 1.94099 22.9276 1.84297C22.4559 1.80917 21.9799 1.79199 21.5 1.79199ZM20.2644 4.52359C20.6723 4.49437 21.0843 4.47949 21.5 4.47949C21.9157 4.47949 22.3277 4.49437 22.7356 4.52359C22.835 4.53072 22.9773 4.61342 23.0256 4.8122L23.6563 7.40998C23.9291 8.53318 24.7764 9.34535 25.7577 9.69947C26.1239 9.83163 26.4823 9.98038 26.8319 10.1448C27.7765 10.5893 28.9505 10.6142 29.9379 10.0126L32.221 8.62159C32.3956 8.51521 32.5547 8.55724 32.6302 8.62253C33.254 9.16217 33.8382 9.74636 34.3778 10.3701C34.4431 10.4456 34.4851 10.6047 34.3787 10.7793L32.9877 13.0625C32.3862 14.0498 32.4111 15.2238 32.8555 16.1685C33.0199 16.518 33.1687 16.8764 33.3008 17.2426C33.655 18.2239 34.4671 19.0713 35.5903 19.344L38.1881 19.9747C38.3869 20.023 38.4696 20.1653 38.4767 20.2648C38.5059 20.6726 38.5208 21.0846 38.5208 21.5003C38.5208 21.916 38.5059 22.3281 38.4767 22.7359C38.4696 22.8354 38.3869 22.9777 38.1881 23.0259L35.5903 23.6567C34.4671 23.9294 33.655 24.7767 33.3008 25.758C33.1687 26.1243 33.0199 26.4826 32.8555 26.8322C32.4111 27.7769 32.3861 28.9509 32.9877 29.9382L34.3787 32.2213C34.4851 32.3959 34.4431 32.5551 34.3778 32.6305C33.8382 33.2543 33.254 33.8385 32.6302 34.3781C32.5547 34.4434 32.3956 34.4854 32.221 34.3791L29.9379 32.988C28.9505 32.3865 27.7765 32.4114 26.8319 32.8558C26.4823 33.0203 26.1239 33.169 25.7577 33.3012C24.7764 33.6553 23.9291 34.4675 23.6563 35.5907L23.0256 38.1884C22.9773 38.3872 22.835 38.4699 22.7356 38.4771C22.3277 38.5063 21.9157 38.5212 21.5 38.5212C21.0843 38.5212 20.6723 38.5063 20.2644 38.4771C20.1649 38.4699 20.0227 38.3872 19.9744 38.1884L19.3436 35.5907C19.0709 34.4675 18.2236 33.6553 17.2423 33.3012C16.8761 33.169 16.5177 33.0203 16.1681 32.8558C15.2235 32.4114 14.0495 32.3865 13.0621 32.988L10.779 34.3791C10.6044 34.4854 10.4453 34.4434 10.3698 34.3781C9.74603 33.8385 9.16184 33.2543 8.6222 32.6305C8.55691 32.555 8.51488 32.3959 8.62127 32.2213L10.0123 29.9382C10.6138 28.9509 10.5889 27.7769 10.1445 26.8322C9.98005 26.4826 9.8313 26.1243 9.69915 25.758C9.34502 24.7767 8.53285 23.9294 7.40965 23.6567L4.81187 23.0259C4.6131 22.9777 4.5304 22.8354 4.52327 22.7359C4.49404 22.3281 4.47917 21.916 4.47917 21.5003C4.47917 21.0846 4.49404 20.6726 4.52327 20.2648C4.5304 20.1653 4.6131 20.023 4.81187 19.9747L7.40966 19.344C8.53285 19.0713 9.34502 18.2239 9.69915 17.2426C9.8313 16.8764 9.98005 16.518 10.1445 16.1685C10.5889 15.2238 10.6138 14.0498 10.0123 13.0625L8.62127 10.7793C8.51488 10.6047 8.55691 10.4456 8.6222 10.3701C9.16184 9.74636 9.74603 9.16217 10.3698 8.62253C10.4453 8.55724 10.6044 8.51521 10.779 8.62159L13.0621 10.0126C14.0495 10.6142 15.2235 10.5893 16.1681 10.1448C16.5177 9.98038 16.8761 9.83163 17.2423 9.69947C18.2236 9.34535 19.0709 8.53318 19.3436 7.40998L19.9744 4.8122C20.0227 4.61342 20.1649 4.53072 20.2644 4.52359Z" fill="#767A7F"/>
</svg>
