<svg width="43" height="43" viewBox="0 0 43 43" fill="none" xmlns="http://www.w3.org/2000/svg">
<path fill-rule="evenodd" clip-rule="evenodd" d="M22.0227 3.68883C21.6885 3.54773 21.3115 3.54773 20.9773 3.68883L0.821069 12.1992C0.323443 12.4094 0 12.897 0 13.4372C0 13.9773 0.323443 14.465 0.821069 14.6751L7.61458 17.5435V24.3583C6.74349 24.5842 5.91675 25.0344 5.23669 25.7145C4.19971 26.7514 3.58333 28.2412 3.58333 30.0659V38.1284C3.58333 38.575 3.81257 39.0008 4.1837 39.2478C4.28962 39.318 4.39405 39.3782 4.57801 39.4702C4.79944 39.581 5.11012 39.7179 5.5099 39.8512C6.31135 40.1184 7.46247 40.3681 8.95833 40.3681C10.4541 40.3681 11.6052 40.1185 12.4066 39.8514C12.8064 39.7181 13.1171 39.5813 13.3385 39.4706C13.512 39.3839 13.6134 39.3243 13.7146 39.2601C14.0935 39.0135 14.3333 38.5821 14.3333 38.1287V30.0662C14.3333 28.2415 13.717 26.7516 12.68 25.7146C11.9999 25.0345 11.1732 24.5842 10.3021 24.3583V18.6782L20.9773 23.1855C21.3115 23.3266 21.6885 23.3266 22.0227 23.1855L31.3542 19.2455V26.4162C31.3136 26.4619 31.2667 26.5127 31.2131 26.5679C30.9237 26.8655 30.4361 27.2936 29.6914 27.7331C28.2112 28.6066 25.652 29.5622 21.5 29.5622C20.4034 29.5622 19.4187 29.4955 18.5366 29.3816C17.8006 29.2866 17.1269 29.8063 17.0319 30.5423C16.9369 31.2783 17.4566 31.952 18.1926 32.047C19.1945 32.1763 20.2943 32.2497 21.5 32.2497C26.0824 32.2497 29.1222 31.1896 31.0574 30.0475C32.0204 29.4792 32.6946 28.8994 33.14 28.4413C33.397 28.1769 33.6499 27.8929 33.8434 27.5772L33.8446 27.5754C33.9735 27.3644 34.0417 27.1219 34.0417 26.8747V18.1108L42.1789 14.6751C42.6766 14.465 43 13.9773 43 13.4372C43 12.897 42.6766 12.4094 42.1789 12.1992L22.0227 3.68883ZM8.95821 26.8747C8.95818 26.8747 8.95825 26.8747 8.95821 26.8747C8.28282 26.8747 7.62436 27.1275 7.13701 27.6148C6.66227 28.0896 6.27083 28.8672 6.27083 30.0659V37.2711C6.80636 37.4597 7.69926 37.6806 8.95833 37.6806C10.2174 37.6806 11.1103 37.4598 11.6458 37.2713V30.0662C11.6458 28.8674 11.2544 28.0897 10.7796 27.6149C10.2922 27.1275 9.63364 26.8747 8.95821 26.8747ZM21.5 20.489L4.79837 13.4372L21.5 6.38537L38.2016 13.4372L21.5 20.489Z" fill="#767A7F"/>
</svg>
