<svg width="520" height="249" viewBox="0 0 520 249" fill="none" xmlns="http://www.w3.org/2000/svg">
<ellipse cx="259.67" cy="199.849" rx="259.5" ry="48.9275" fill="#C4C4C4"/>
<path d="M407.17 209.277L369.67 219.277L411.17 238.777L444.17 231.777L438.67 222.277L452.67 201.277L417.17 193.777H407.17V209.277Z" fill="white"/>
<path d="M244.67 177.777L269.17 109.777L272.67 110.777L283.67 119.277L280.67 130.277L266.67 178.777L261.17 186.777L242.17 197.777L236.17 210.777L239.17 217.277L225.17 221.277L221.67 218.777L219.17 217.277L200.67 215.777V213.277L207.67 210.777L199.17 207.777L212.67 205.277L203.67 197.777L233.67 199.277L244.67 177.777Z" fill="white"/>
<path d="M316.67 34.277L335.67 35.777L347.17 51.777V57.777L337.17 59.777L332.17 73.277L335.67 76.777L341.17 74.777L355.67 63.777H376.17L409.17 76.777L449.67 94.777L457.67 105.277V110.277L453.67 113.277L425.17 112.777L376.17 113.277L377.17 148.277L373.67 153.277L367.67 137.277V144.277L363.17 151.277L352.17 160.777L326.17 170.277L298.67 176.277L296.67 149.777L288.67 137.277L291.17 122.277L293.17 112.777V105.277L283.17 115.277L270.17 106.777L286.17 82.277L307.17 84.777L320.17 78.777V73.277L307.17 61.777L308.67 51.777L316.67 34.277Z" fill="white"/>
<path fill-rule="evenodd" clip-rule="evenodd" d="M409.399 208.33C409.358 194.319 409.089 180.304 408.616 166.301C408.265 155.923 407.815 145.537 406.945 135.188C406.601 131.089 406.2 126.985 405.569 122.918C405.178 120.4 404.819 117.656 403.757 115.311C403.409 114.544 403.073 114.045 402.333 113.653C399.596 112.2 395.846 111.987 392.829 111.68C387.882 111.177 382.874 111.033 377.903 111.135C378.195 116.482 378.486 121.829 378.777 127.176C379.001 131.294 379.225 135.412 379.45 139.53C379.591 142.129 378.224 144.174 378.17 146.777C378.126 148.898 377.341 151.556 376.073 153.212C374.518 148.455 372.963 143.699 371.407 138.942C370.585 141.065 368.626 142.211 367.67 144.277C367.039 145.64 367.477 148.001 366.641 149.253C365.877 150.397 365.653 150.559 364.325 150.364C362.726 150.129 361.512 149.655 360.567 150.843C359.729 151.897 358.949 152.971 358.04 153.971C348.002 165.012 332.532 171.868 318.199 174.97C309.756 176.797 301.24 178.28 292.801 180.143C279.916 182.986 266.682 185.791 254.375 190.652C252.447 191.413 250.497 192.232 248.737 193.34C246.797 194.562 245.411 196.411 244.069 198.242C240.788 202.715 232.67 211.277 242.002 214.72C245.881 218.299 251.942 218.658 256.981 219.061C262.19 219.478 267.417 219.681 272.638 219.851C286.861 220.313 301.098 220.412 315.327 220.425C328.328 220.436 341.331 220.363 354.33 220.114C360.227 220.001 365.91 220.138 371.616 218.625C383.294 215.528 394.939 212.304 406.589 209.102C407.525 208.845 408.462 208.587 409.399 208.33Z" fill="#003647"/>
<path fill-rule="evenodd" clip-rule="evenodd" d="M290.725 85.8831C291.271 86.4501 290.387 86.8867 289.989 87.0105C290.053 86.4636 290.317 86.2163 290.725 85.8831ZM365.506 192.467C365.716 191.971 366.03 191.563 366.604 191.797C367.552 192.184 365.634 192.462 365.506 192.467ZM283.048 112.555C282.656 112.604 281.053 112.503 281.548 111.631C282.123 110.62 282.913 112.242 283.048 112.555ZM311.8 103.609C310.957 102.887 310.202 101.782 310.193 100.635C310.988 101.162 311.412 102.794 311.8 103.609ZM291.588 89.1026C290.885 89.1381 291.528 88.1497 291.521 87.9527C291.507 87.5303 291.111 87.1675 291.175 86.6664C291.178 86.646 291.886 85.0616 292.072 84.9609C292.597 84.6781 292.903 85.1965 293.374 85.3569C294.072 85.5945 294.413 85.3848 295.162 85.4579C295.823 85.5224 296.379 85.8438 297.07 85.8435C297.233 85.8435 297.415 85.4958 297.603 85.5152C297.897 85.5452 297.924 85.9194 298.132 85.938C298.862 86.0028 298.904 85.7131 299.584 85.441C300.715 84.9885 301.509 86.0411 301.483 87.2851C301.45 88.9329 299.731 89.6064 298.414 89.9851C296.715 90.4731 295.772 90.7673 294.046 90.46C293.547 90.3707 293.04 90.5297 292.646 90.1855C292.117 89.7226 292.397 88.7463 291.793 88.2952C291.725 88.5642 291.656 88.8336 291.588 89.1026ZM351.345 154.664C351.204 155.74 351.5 156.295 350.455 157.017C349.838 157.443 349.063 157.723 348.41 158.15C347.464 158.768 346.046 159.166 345.207 159.877C344.674 160.328 344.579 161.606 343.841 161.761C343.212 161.893 342.462 160.757 342.247 160.245C342.008 159.679 342.168 159.212 342.071 158.646C342.006 158.266 341.721 158.187 341.771 157.741C341.823 157.273 342.277 157.026 342.475 156.654C342.651 156.322 342.705 155.849 342.843 155.587C343.169 154.968 343.894 153.655 344.54 153.245C345.084 154.674 345.497 153.226 346.251 152.807C346.533 152.799 346.815 152.797 347.096 152.8C347.242 152.661 347.39 152.525 347.541 152.391C347.889 152.359 348.462 152.545 348.776 152.642C348.949 152.602 349.124 152.579 349.301 152.573C349.536 152.641 349.629 152.772 349.58 152.966C349.477 152.919 350.046 153.264 350.1 153.3C351.222 154.063 352.251 154.367 352.459 155.988C352.087 155.547 351.716 155.105 351.345 154.664ZM342.595 96.775C343.795 93.6663 343.414 90.9273 343.298 87.6734C343.271 86.9095 343.108 85.2706 343.906 84.7637C344.903 84.1315 345.732 85.5614 346.252 86.1532C347.146 87.1688 348.392 88.1014 348.85 89.4195C349.254 90.5824 348.837 92.0092 348.529 93.1614C348.196 94.403 347.785 96.0722 346.655 96.7598C345.448 97.4941 343.812 97.422 342.595 96.775ZM300.311 162.89C300.484 160.507 303.798 161.342 305.288 162.077C306.403 162.626 307.026 163.464 307.728 164.46C308.525 165.59 308.786 165.906 308.722 167.251C308.664 168.477 308.732 169.711 308.425 170.931C308.269 171.55 308.234 171.66 307.823 172.086C307.823 172.086 307.111 172.795 307.31 172.682C306.39 173.207 305.019 173.295 303.939 173.376C302.395 173.492 302.023 173.513 301.397 172.046C301.276 172.301 301.156 172.556 301.036 172.812C300.997 172.631 300.568 170.488 300.667 170.509C300.84 170.546 301.026 171.045 301.111 171.172C301.057 170.184 300.354 169.446 300.014 168.566C299.7 167.756 299.572 166.84 299.33 166.002C299.096 165.192 298.834 164.064 299.061 163.223C299.361 162.106 299.456 162.424 300.311 162.89ZM280.303 110.367C279.765 110.874 280.245 111.694 280.175 112.323C279.443 111.874 279.697 111.634 279.413 110.904C279.231 110.433 278.693 109.534 278.223 110.304C278.026 110.628 278.679 111.073 278.237 111.264C277.977 111.375 277.285 110.505 277.158 110.368C276.286 109.424 275.728 108.458 275.656 107.171C275.636 106.818 275.641 105.939 275.766 105.736C276.129 105.152 277.093 105.498 277.01 104.43C276.626 104.621 276.242 104.811 275.859 105.002C275.739 103.801 277.036 103.09 277.577 102.137C278.195 101.051 278.596 100.261 279.601 99.3267C280.065 98.8953 280.821 98.0066 281.424 97.799C281.892 97.6375 282.082 97.8759 282.555 97.8803C283.544 97.8897 285.029 97.6224 283.558 98.7191C283.857 98.8594 284.25 98.9467 284.504 99.1678C284.693 99.3316 284.764 99.7996 284.986 99.9117C285.464 100.153 285.821 99.682 286.361 100.218C286.929 100.783 286.347 101.14 286.474 101.389C286.838 102.105 287.339 101.749 287.322 102.841C287.296 104.641 286.259 106.772 285.701 108.454C285.373 109.443 285.007 110.989 283.623 110.584C283.676 111.06 283.796 111.521 283.487 111.946C283.198 111.606 283.095 110.86 282.9 110.461C282.613 109.874 282.147 109.306 281.817 108.735C281.865 109.638 281.963 109.889 282.577 110.573C281.769 110.672 280.774 111.319 280.303 110.367ZM339.402 136.53C338.661 135.968 339.634 135.342 338.172 135.661C337.8 135.742 338.174 136.178 337.611 136.194C337.399 136.2 336.878 135.677 336.731 135.554C336.596 135.442 335.99 134.625 335.893 134.573C336.056 134.66 335.158 134.312 335.438 134.538C334.903 134.107 334.496 133.399 334.255 132.538C333.666 130.427 333.75 127.905 334.972 126.091C335.485 125.331 335.894 124.403 336.666 123.893C337.713 123.201 339.445 122.79 340.615 122.351L340.236 121.429C343.447 122.881 345.662 126.269 345.933 129.712C346.03 130.95 346.383 132.523 345.628 133.621C344.841 134.767 342.857 135.972 341.761 134.699C341.927 135.408 341.439 136.256 340.689 136.438C340.405 136.507 340.138 136.302 340.012 136.32C339.852 136.343 339.515 136.552 339.402 136.53ZM368.882 64.654C371.04 64.397 370.706 68.2948 370.301 69.4653C369.975 70.4096 368.805 71.7236 368.187 72.5461C367.449 73.5259 366.466 74.2574 365.42 74.8826C365.061 75.0968 364.798 75.1654 364.489 75.2851C364.379 75.1758 364.248 75.1189 364.094 75.1141C363.959 75.3389 363.768 75.5072 363.521 75.6186C362.737 75.8628 361.438 75.8255 360.658 75.7928C359.402 75.7397 357.934 75.0165 356.684 74.7754C356.1 74.6626 355.775 74.6171 355.258 74.3136C354.998 74.1608 354.488 72.9831 354.415 74.1398C354.093 73.9415 354.195 73.6152 353.959 73.47C353.734 73.3314 353.015 73.1979 352.747 72.8927C352.373 72.4671 351.876 71.4963 351.616 70.9148C351.449 70.5417 351.095 69.5802 351.122 69.1918C351.182 68.3693 351.447 68.5587 352.15 68.2179C352.62 67.9903 352.89 67.7996 353.359 67.6737C353.414 67.6592 353.544 67.9396 353.636 67.9155C353.797 67.8737 353.862 67.6882 353.975 67.652C354.832 67.374 355.844 66.5501 356.904 66.6298C357.362 66.6643 357.791 67.3616 358.026 67.3261C358.387 67.2712 358.207 66.5291 358.459 66.2601C359.102 65.5751 361.248 65.6858 362.081 65.5672C364.346 65.2444 366.614 64.9433 368.882 64.654ZM293.292 123.899C293.085 122.282 292.831 120.676 294.604 119.88C295.27 119.581 295.823 119.689 296.506 119.608C297.393 119.503 297.264 119.121 297.922 120.072C298.286 119.605 298.044 119.453 298.639 119.398C298.885 119.375 299.958 120.073 300.237 120.187C301.401 120.664 302.884 120.619 303.762 121.58C304.615 122.513 305.305 123.411 305.665 124.684C305.846 125.326 305.965 125.99 306.19 126.62C306.432 127.301 306.977 127.888 307.164 128.569C307.924 131.342 304.694 133.873 302.425 134.609C302.133 134.549 301.846 134.568 301.565 134.665C301.367 134.795 301.19 134.95 301.033 135.127C300.319 135.351 300.149 135.277 299.423 134.95C298.226 134.41 296.827 134.226 295.92 135.489C295.641 134.019 294.62 134.894 294.129 133.947C293.858 133.425 294.45 131.979 294.107 131.602C293.525 130.963 291.708 132.1 291.755 130.607C291.772 130.063 292.39 129.883 292.604 129.453C292.989 128.682 292.775 127.865 292.241 127.187C292.191 127.304 291.997 128.073 291.741 127.869C291.062 127.329 292.179 126.478 292.423 126.183C292.824 125.697 293.19 125.326 293.1 124.648C293.045 124.227 292.37 123.789 292.394 123.38C292.413 123.069 293.247 123.863 293.292 123.899ZM324.848 141.358C324.802 142.492 325.526 142.64 326.003 143.42C326.133 143.632 326.142 144.141 326.323 144.452C326.662 145.036 326.897 145.072 327.006 145.641C326.994 145.578 326.825 146.205 326.82 146.276C326.774 147.076 327.33 147.716 327.177 148.596C326.962 149.833 326.022 151.212 325.358 152.241C323.859 154.569 321.763 156.373 318.892 156.537C316.975 156.647 312.463 155.88 312.052 153.876C312.16 153.643 312.252 153.404 312.327 153.158C312.371 152.801 312.239 152.558 311.931 152.428C311.694 152.366 311.509 152.234 311.376 152.033C311.44 151.83 311.547 151.65 311.696 151.496C311.642 151.227 311.19 151.214 311.198 151.041C311.211 150.719 311.495 149.912 311.57 149.544C311.702 148.91 311.774 148.306 311.89 147.667C311.984 147.15 312.301 146.895 312.382 146.421C312.438 146.098 312.109 145.805 312.137 145.462C312.353 145.269 312.529 145.043 312.663 144.786C312.679 144.518 312.613 144.27 312.466 144.041C312.788 141.786 315.978 139.893 318.247 139.841C319.466 139.813 321.548 139.725 322.645 140.362C323.377 140.788 323.869 142.298 324.848 141.358ZM373.79 220.823C375.392 220.1 376.828 219.331 378.544 218.98C379.783 218.726 380.847 218.031 382.092 217.804C384.85 217.301 387.829 216.837 390.474 215.87C393.31 214.833 396.399 214.461 399.306 213.599C400.737 213.174 401.986 212.896 403.466 212.814C404.909 212.734 406.391 211.93 407.833 212.066C409.038 212.18 409.898 213.105 410.84 213.765C412.063 214.621 413.396 215.358 414.71 216.065C416.105 216.815 417.658 217.191 419.034 217.923C420.177 218.53 421.299 219.122 422.477 219.679C428.736 222.636 434.78 225.399 440.425 229.514C438.605 230.068 436.534 229.516 434.725 229.321C432.154 229.043 429.592 228.834 427.047 228.358C425.557 228.08 422.65 227.017 421.228 227.834C419.978 228.551 420.074 230.393 419.894 231.625C418.714 231.169 417.54 230.702 416.35 230.275C415.414 229.938 413.895 229.014 412.941 228.981C410.283 228.891 410.574 232.62 410.832 234.332C409.28 233.804 407.803 233.436 406.298 232.783C405.092 232.259 403.76 232.144 402.588 231.519C399.676 229.967 396.445 228.995 393.327 227.893C389.81 226.65 386.3 225.384 382.813 224.057C381.379 223.512 379.966 222.792 378.499 222.35C376.92 221.874 375.304 221.516 373.79 220.823ZM339.084 78.6307C339.307 80.7283 339.077 82.8434 339.013 84.9434C338.938 87.4023 338.935 89.8351 338.616 92.2796C338.042 96.6895 337.233 101.1 335.654 105.273C334.217 109.074 331.791 111.761 327.683 112.582C323.992 113.32 320.395 112.055 318.046 109.106C315.609 106.048 314.861 102.185 313.434 98.6411C312.736 96.9081 312.219 95.1655 311.638 93.3921C311.289 92.3299 309.559 89.2805 310.054 88.1893C310.537 87.124 313.388 86.7598 314.375 86.1677C315.943 85.2265 317.393 83.3397 318.59 81.9609C319.392 81.0369 319.86 80.3538 320.401 81.8195C321.051 83.5808 320.58 85.6155 321.187 87.324C321.784 89.0039 323.087 87.3468 323.221 86.2518C323.477 84.1495 323.168 81.7612 323.069 79.6481C322.884 75.7103 322.626 71.1559 319.075 68.728C315.709 66.427 312.057 65.711 310.188 61.7384C309.439 60.1458 308.559 58.4773 309.027 56.6953C309.567 54.6388 310.368 52.4881 311.155 50.5117C312.668 46.716 315.037 43.411 317.108 39.926C317.388 39.456 317.446 38.8535 318.057 38.7207C318.748 38.5703 320.362 39.746 321.032 39.9357C322.857 40.4516 324.487 39.3811 326.097 40.5927C327.389 41.5652 328.484 42.9647 330.227 43.0665C330.978 43.1103 331.996 42.4402 332.643 42.6002C333.467 42.804 333.705 44.0335 334.023 44.7243C334.752 46.3093 335.566 48.2955 336.769 49.5912C337.178 50.0309 337.899 50.1668 338.248 50.5762C338.654 51.0517 338.428 52.0174 339.01 52.104C339.346 52.154 339.615 51.697 339.899 51.588C340.381 51.4025 340.853 51.367 341.369 51.3821C342.323 51.4101 343.313 51.6404 344.151 52.0971C346.101 53.1586 346.821 54.7729 344.478 55.7438C343.539 56.1331 342.519 56.4228 341.503 56.5132C340.388 56.6122 339.26 56.2642 338.157 56.4001C336.031 56.6618 335.377 58.44 334.827 60.2672C334.07 62.7806 333.459 65.3255 332.609 67.8127C331.915 69.8447 330.653 71.9102 330.289 74.0329C330.065 75.3368 330.359 75.2396 331.229 76.0459C331.892 76.6598 332.291 77.4658 333.009 78.0817C335.012 79.7988 336.758 79.3412 339.084 78.6307ZM209.796 200.711C209.857 200.263 219.352 201.12 220.43 201.009C222.273 200.819 224.235 201.323 226.141 201.259C227.825 201.202 230.255 200.547 231.646 201.365C232.161 201.668 232.174 202.026 232.988 201.872C233.744 201.728 234.541 201.194 235.107 200.698C236.683 199.319 237.646 197.15 238.676 195.362C240.739 191.783 242.505 188.076 244.217 184.312C247.744 176.561 251.137 168.766 254.659 161.013C256.402 157.179 258.082 153.337 259.961 149.573C260.763 147.967 261.643 146.205 262.261 144.522C262.933 142.687 263.818 140.965 264.421 139.083C265.7 135.099 267.228 131.174 268.206 127.076C268.454 126.039 268.546 124.953 268.845 123.93C269.164 122.838 269.815 121.904 270.223 120.847C270.638 119.769 270.64 118.808 270.846 117.707C271.053 116.609 271.557 115.539 271.92 114.488C273.79 115.616 275.919 116.642 277.64 117.981C279.332 119.3 281.801 120.404 281.093 122.788C280.449 124.955 279.308 126.949 278.629 129.114C277.868 131.543 276.932 133.917 276.197 136.352C274.62 141.579 273.24 146.866 271.827 152.14C271.164 154.618 270.335 157.1 269.848 159.62C269.595 160.931 269.637 162.103 269.16 163.373C268.694 164.614 268.253 165.828 267.87 167.099C267.19 169.361 266.54 171.628 265.787 173.867C265.379 175.078 265.053 176.303 264.763 177.548C264.588 178.3 263.565 181.552 263.733 182.331C264.215 184.573 267.607 180.483 268.317 179.568C269.964 177.445 271.145 174.848 272.378 172.47C277.33 162.925 279.765 152.629 282.318 142.238C282.989 139.506 283.637 136.799 284.391 134.096C285.182 131.263 285.412 128.301 286.345 125.484C287.309 122.574 288.292 119.769 289 116.774C289.327 115.388 289.674 114.002 289.964 112.608C290.119 111.863 290.126 110.494 291.118 110.346C290.479 115.018 290.243 120.492 288.381 124.874C286.693 128.848 285.352 134.293 287.058 138.513C287.879 140.542 289.177 142.275 290.153 144.208C291.244 146.37 291.956 148.851 292.687 151.154C294.202 155.923 294.649 160.938 295.662 165.817C296.194 168.374 296.204 170.122 295.743 172.638C295.595 173.448 295.857 174.092 295.174 174.612C294.488 175.134 292.901 175.24 292.053 175.539C289.478 176.45 287.265 177.117 284.539 177.416C281.963 177.698 279.545 178.209 277.092 179.053C272.672 180.573 268.076 181.709 263.733 183.232C261.357 184.066 259.066 185.551 256.783 186.616C254.407 187.724 251.887 188.448 249.648 189.831C247.235 191.32 244.85 193.049 242.564 194.719C240.446 196.265 239.431 198.188 238.55 200.594C236.874 205.169 232.649 211.107 236.551 215.723C235.183 216.318 233.618 216.554 232.307 217.19C231.854 217.409 231.719 217.624 231.205 217.75C230.532 217.915 229.666 217.783 228.977 217.828C227.98 217.893 225.88 218.61 224.908 218.32C223.999 218.049 223.96 216.731 223.307 216.081C222.34 215.116 221.411 215.738 220.227 215.631C218.473 215.472 216.726 215.242 214.971 215.089C211.431 214.78 207.9 214.707 204.348 214.716C206.197 212.663 212.998 216.399 213.165 212.681C213.358 208.379 208.107 209.669 205.555 208.428C207.875 208.497 210.195 208.519 212.51 208.703C213.915 208.815 216.617 209.487 217.412 207.943C218.265 206.283 216.891 204.363 215.605 203.496C213.824 202.296 211.766 201.531 209.796 200.711ZM403.301 143.349C403.727 144.198 403.067 144.54 402.769 145.223C402.356 146.168 402.764 145.98 402.846 146.87C402.902 147.466 402.739 147.747 402.773 148.306C402.787 148.543 403.125 148.859 403.165 149.129C403.236 149.614 402.974 149.838 403.002 150.19C403.016 150.365 402.79 150.396 402.836 150.65C402.876 150.871 403.385 151.026 403.415 151.165C403.588 151.971 403.105 151.568 403.031 151.95C402.907 152.588 403.266 152.697 403.47 153.284C403.822 154.295 403.482 154.767 403.264 155.715C403.08 156.515 403.354 156.52 403.458 157.284C403.521 157.747 403.387 157.804 403.389 158.235C403.395 159.722 403.728 161.27 403.742 162.846C403.774 166.577 404.09 170.254 404.138 173.975C404.184 177.632 404.45 181.335 404.61 185.038C404.688 186.843 404.872 188.643 404.951 190.448C405.043 192.545 404.837 194.632 405.014 196.721C405.174 198.619 405.078 200.524 405.157 202.428C405.194 203.331 405.659 206.064 405.065 206.671C404.295 207.46 401.173 206.62 400.163 206.676C398.265 206.78 396.264 207.162 394.404 207.554C389.996 208.482 385.578 209.664 381.168 210.497C377.491 211.191 374.042 212.957 370.62 214.452C370.933 211.308 371.487 208.241 371.589 205.073C371.681 202.225 371.413 199.391 371.476 196.547C371.61 190.478 371.954 184.476 371.819 178.408C371.68 172.237 371.183 165.937 370.324 159.825C369.929 157.017 369.621 154.025 368.617 151.356C368.161 150.148 367.42 149.261 367.728 147.931C368.061 146.491 368.72 144.986 369.207 143.589C369.565 145.864 370.827 161.022 376.009 156.465C378.033 154.686 378.97 150.831 379.423 148.305C380.034 144.891 379.815 141.302 379.799 137.847C379.767 130.807 378.993 123.625 378.283 116.623C378.141 115.225 377.434 113.974 379.229 114.041C380.911 114.104 382.639 114.503 384.312 114.699C385.76 114.869 387.213 114.455 388.593 114.64C389.225 114.725 389.785 115.1 390.423 115.194C391.229 115.314 392.072 115.139 392.883 115.14C394.251 115.142 395.836 115.134 396.971 115.985C398.163 116.879 399.185 118.358 399.586 119.788C399.986 121.218 399.879 122.827 400.132 124.256C400.346 125.46 400.391 126.945 400.591 128.313C401.456 127.229 401.401 128.794 401.41 129.256C401.421 129.815 402.022 130.945 401.867 131.273C401.767 131.484 401.095 131.373 401.038 131.538C400.921 131.88 401.326 132.024 401.333 132.279C401.362 133.274 401.305 134.302 401.307 135.305C401.542 135.125 401.777 134.946 402.012 134.766C402.135 135.034 402.174 135.384 402.292 135.656C402.345 135.779 402.841 135.745 402.864 135.988C402.895 136.305 402.201 136.915 402.067 137.261C401.828 137.88 401.675 137.636 402.081 138.303C402.549 139.071 403.314 139.114 403.192 140.23C402.944 140.04 402.728 139.82 402.544 139.568C402.428 140.235 402.717 140.822 402.753 141.485C402.776 141.919 402.248 143.651 402.646 143.941C402.813 144.063 403.26 143.396 403.301 143.349ZM368.332 88.7184C368.329 87.2568 370.463 85.0089 371.197 83.7856C372.367 81.834 373.626 80.0672 375.114 78.3424C376.609 76.6098 378.205 74.9582 379.655 73.1876C380.255 72.4554 380.701 71.6001 381.312 70.8831C382.077 69.9878 382.238 70.263 383.185 70.2868C383.906 70.3051 384.375 70.1827 385.041 70.3965C385.394 70.51 385.623 70.6786 386.003 70.7831C386.241 70.849 386.554 70.6183 386.873 70.7297C387.662 71.0045 387.931 71.7081 388.883 71.6936C388.997 71.6919 389.363 71.4211 389.415 71.4363C389.48 71.4549 389.776 71.6808 389.765 71.6784C389.829 71.6929 389.811 72.1409 389.98 72.2185C390.269 72.3516 390.473 71.9053 390.737 71.9343C391.402 72.0074 391.896 72.6937 392.632 72.8599C393.577 73.0734 394.394 72.762 395.297 73.2017C396.018 73.5528 396.382 74.3515 396.982 73.5259C397.525 74.6792 398.525 74.3298 399.524 74.8157C400.916 75.4934 402.426 75.8369 403.909 76.3487C406.96 77.4016 410.033 78.4804 413.007 79.7478C419.177 82.3771 425.151 85.2927 431.183 88.1193C437.082 90.8838 442.538 94.5495 447.847 98.2397C450.449 100.049 453.037 101.949 455.067 104.426C455.683 105.177 456.71 106.342 456.295 107.398C455.857 108.515 454.003 109.208 452.954 109.422C451.58 109.704 450.068 109.798 448.669 109.891C447.158 109.993 445.535 110.043 444.039 110.022C441.092 109.982 438.201 109.694 435.24 109.629C431.872 109.555 428.569 108.844 425.208 108.802C421.512 108.756 417.859 108.293 414.158 108.437C407.025 108.717 399.897 108.923 392.743 108.957C391.853 108.961 390.98 108.854 390.105 109.009C389.396 109.135 388.884 109.383 388.123 109.328C387.414 109.278 386.757 108.968 386.035 108.93C385.086 108.881 384.115 109.037 383.162 109.017C379.943 108.952 376.126 108.659 373.023 109.677C371.791 110.081 370.242 111.259 370.993 112.786C371.736 114.295 373.634 113.065 374.808 113.75C375.903 114.39 375.296 116.133 375.218 117.176C375.072 119.151 375.046 121.116 375.098 123.096C375.213 127.468 375.479 131.834 375.53 136.207C375.555 138.331 375.524 140.455 375.412 142.576C375.313 144.448 375.379 146.486 374.739 148.273C373.847 146.042 373.739 143.579 373.385 141.228C373.002 138.684 372.628 136.141 372.264 133.594C372.048 132.082 371.824 122.997 368.863 124.184C365.717 125.445 366.811 132.434 366.668 134.947C366.533 137.318 366.291 139.681 365.753 141.998C365.503 143.075 364.816 147.649 363.435 147.945C362.422 143.158 361.352 138.379 360.607 133.541C360.278 131.406 359.988 129.254 359.857 127.096C359.789 125.974 359.872 123.274 358.249 123.144C353.477 122.759 356.678 142.864 353.112 145.394C351.794 142.77 351.278 140.034 350.92 137.126C350.757 135.802 350.409 134.311 350.615 132.984C350.885 131.246 351.178 130.181 350.815 128.386C350.519 126.917 350.305 125.408 349.962 123.951C349.715 122.901 349.07 122.389 348.729 121.442C347.77 118.777 347.832 115.402 347.449 112.604C347.062 109.771 346.654 106.985 347.156 104.126C347.653 101.295 349.724 100.395 352.078 99.226C354.451 98.0486 356.74 96.7547 359.345 96.2353C362.27 95.6524 364.955 95.0868 367.949 94.932C373.233 94.6592 378.412 94.9758 383.673 95.2262C389.522 95.5048 395.377 95.1576 401.223 95.0772C404.065 95.0382 406.96 94.9834 409.797 95.0296C411.219 95.053 412.598 95.2996 414.029 95.2638C415.248 95.2334 417.631 95.6093 418.698 94.961C419.536 94.4523 419.535 93.3252 418.828 92.7041C418.127 92.0885 416.753 92.0561 415.879 91.8661C413.084 91.2594 410.297 90.9111 407.482 90.4241C405.861 90.1437 404.5 90.0506 402.876 90.1296C401.298 90.2069 399.689 89.7558 398.093 89.6792C394.712 89.5178 391.312 89.3578 387.929 89.305C381.374 89.2029 374.894 88.7025 368.332 88.7184ZM364.911 152.839C365.438 153.043 365.304 155.562 365.352 156.065C365.495 157.572 365.651 159.077 365.785 160.585C366.095 164.065 366.328 167.552 366.518 171.041C366.708 174.53 366.934 178.029 366.923 181.524C366.917 183.012 366.851 184.499 366.881 185.986C366.903 187.099 367.393 189.18 366.443 189.97C365.807 190.5 364.56 190.261 363.816 190.212C362.346 190.116 360.872 190.018 359.399 190.007C357.696 189.994 356.006 190.177 354.302 190.132C353.649 190.115 352.919 190.006 352.272 190.129C351.803 190.219 351.292 190.624 350.852 190.641C350.529 190.654 350.11 190.333 349.753 190.27C349.196 190.172 348.543 190.286 347.976 190.279C347.574 190.274 346.602 190.092 346.232 190.33C345.871 190.562 346.01 191.09 345.68 191.206C345.554 191.251 344.838 190.4 344.715 190.346C344.166 190.107 343.366 190.293 342.788 190.299C341.123 190.318 339.456 190.213 337.791 190.229C336.167 190.244 334.601 190.433 333.042 190.622C332.012 190.746 330.829 190.434 329.735 190.342C327.986 190.195 326.229 190.223 324.476 190.258C323.596 190.275 322.715 190.289 321.835 190.311C321.626 190.316 321.214 190.235 321.013 190.295C320.205 190.537 320.718 190.552 320.147 190.92C320.896 190.436 318.471 190.121 318.332 190.12C317.232 190.112 316.224 190.652 315.308 190.546C314.316 190.432 313.303 189.819 312.212 190.009C311.702 190.098 311.279 190.668 310.9 190.734C310.287 190.84 310.078 190.397 309.516 190.176C308.395 189.734 307.095 190.119 305.924 190.043C304.282 189.935 302.7 189.931 301.051 189.909C298.043 189.87 295.035 189.82 292.026 189.849C289.256 189.876 287.03 190.987 284.274 190.927C282.829 190.895 281.36 190.769 279.917 190.804C278.678 190.833 278.045 191.757 278.982 192.842C279.615 193.575 280.778 193.653 281.671 193.787C282.996 193.987 284.298 194.274 285.618 194.495C288.759 195.021 292.047 195.005 295.224 195.101C308.181 195.491 321.14 196.643 334.105 196.764C339.798 196.818 345.551 197.297 351.226 197.074C354.392 196.949 357.486 197.629 360.676 197.14C362.021 196.934 363.344 196.809 364.7 196.712C364.876 196.7 365.912 196.499 366.108 196.588C366.685 196.851 366.363 196.611 366.605 197.279C367.003 198.376 366.837 200.127 366.835 201.295C366.831 203.157 366.74 205.023 366.678 206.884C366.617 208.667 366.518 210.448 366.412 212.23C366.368 212.967 366.658 215.738 366.09 216.287C365.65 216.713 363.593 216.511 363.036 216.392C362.369 216.25 362.306 216.214 361.583 216.299C361.05 216.362 360.861 216.347 360.327 216.289C358.798 216.124 357.047 216.094 355.512 216.371C354.321 216.585 353.069 216.02 352.613 217.273C351.843 216.329 351.86 216.872 351.013 217.062C350.141 217.257 350.408 216.693 349.668 216.616C349.147 216.561 348.682 216.973 348.119 216.977C347.188 216.983 346.351 216.737 345.355 216.861C340.961 217.409 336.504 217.902 332.073 217.943C330.234 217.96 328.418 217.988 326.589 218.044C325.656 218.073 324.774 218.17 323.856 218.28C322.992 218.384 322.312 218.176 321.414 218.131C319.426 218.029 317.341 218.332 315.353 218.441C314.418 218.492 313.248 218.331 312.352 218.454C311.451 218.577 311.383 219.261 310.666 219.658C310.553 217.438 305.911 218.86 304.702 218.862C304.228 218.864 303.648 218.662 303.075 218.698C302.127 218.759 301.173 218.775 300.223 218.808C298.709 218.861 297.246 218.953 295.808 218.77C293.929 218.53 291.888 218.785 289.99 218.774C287.924 218.761 285.857 218.733 283.791 218.665C281.698 218.596 279.61 218.469 277.517 218.401C275.7 218.343 273.771 218.489 271.98 218.356C271.515 218.322 271.071 217.981 270.656 217.964C270.08 217.939 269.436 218.186 268.771 218.13C266.678 217.951 264.727 217.922 262.61 217.929C258.98 217.941 255.209 217.271 251.728 216.309C250.124 215.866 248.456 215.842 246.863 215.367C245.024 214.818 243.34 213.861 241.648 212.975C240.322 212.281 238.459 211.958 238.999 210.204C239.575 208.331 240.494 206.515 241.18 204.675C241.776 203.075 242.156 201.517 243.448 200.314C244.725 199.124 246.356 198.326 247.716 197.23C250.681 194.84 253.775 193.412 257.286 191.997C260.824 190.57 264.052 188.467 267.769 187.518C271.221 186.638 274.546 185.457 277.928 184.554C281.628 183.567 285.444 183.209 289.176 182.331C292.753 181.49 296.265 180.252 299.889 179.611C303.81 178.919 307.767 178.562 311.673 177.716C314.985 177 318.145 175.596 321.474 175.036C322.447 174.872 323.498 174.772 324.439 174.466C325.319 174.18 325.949 173.602 326.839 173.367C328.893 172.826 330.678 172.088 332.623 171.209C333.441 170.839 333.894 170.384 334.603 169.926C335.448 169.379 336.531 169.185 337.479 168.883C339.307 168.303 341.127 167.732 342.767 166.713C344.466 165.657 346.028 164.463 347.592 163.229C348.254 162.707 348.963 162.182 349.642 161.693C350.479 161.092 351.337 160.983 352.275 160.589C356.342 158.883 358.123 154.877 360.338 151.391C360.546 154.214 363.247 155.524 364.911 152.839ZM307.108 103.393C306.828 102.129 306.428 100.314 308.004 100.243C308.105 100.239 309.149 100.5 309.257 100.569C309.794 100.914 309.997 102.066 310.202 102.625C310.382 103.118 310.507 103.775 310.908 104.147C311.303 104.515 311.716 104.524 312.085 104.965C313.208 106.306 314.044 108.61 314.723 110.229C313.802 110.006 314.471 110.624 314.079 110.976C313.467 111.526 313.658 111.427 312.788 111.512C311.272 111.66 310.58 111.256 309.395 110.312C308.389 109.511 308.066 108.987 307.488 107.831C306.66 106.179 307.064 105.127 307.11 103.392C306.695 103.774 306.28 104.155 305.865 104.537C305.994 104.037 306.123 103.537 306.251 103.037L307.108 103.393ZM350.719 3.56015C349.913 0.802525 348.408 0.598703 346.385 2.58001C346.064 1.87129 345.684 0.770796 344.751 0.777004C344.09 0.781487 343.973 1.31604 343.53 1.67678C342.995 2.11305 342.577 2.26618 341.898 2.3824C340.415 2.63588 339.037 2.54898 337.642 3.21183C336.371 3.81536 335.766 4.69686 334.787 5.60078C333.872 6.44641 333.204 5.89875 332.158 6.32674C330.996 6.80267 330.476 8.21114 330.251 9.35234C329.976 10.7484 330.263 11.1933 329.292 12.2069C328.377 13.1632 327.891 14.381 327.781 15.6949C327.677 16.9375 327.951 18.4122 328.669 19.46C329.476 20.6401 330.313 20.3139 329.261 21.7158C328.732 22.4217 328.673 23.9244 328.036 24.377C326.923 25.1678 325.486 23.8919 324.502 23.5709C323.166 23.1346 323.464 23.8644 322.878 24.7446C322.012 26.0448 321.497 24.7032 320.316 24.9629C319.882 25.0585 319.755 25.5271 319.602 25.5834C319.063 25.7834 319.635 25.7092 319.019 25.4868C318.609 25.3392 318.89 24.5446 318.065 24.9981C317.491 25.3137 317.923 25.8748 317.662 26.281C317.15 27.0798 316.39 26.6142 316.011 27.645C315.634 28.6717 315.124 30.0333 314.915 31.1559C314.66 32.5195 315.259 33.7062 315.171 34.9964C315.08 36.3438 313.745 37.2519 312.914 38.1965C308.841 42.8261 307.117 48.9152 305.788 54.8009C304.553 60.271 306.727 66.4635 310.994 70.171C313.158 72.0505 315.861 72.8565 317.938 74.9251C318.861 75.8431 318.848 76.1339 317.75 76.8864C316.85 77.5027 316.024 78.2879 315.07 78.7749C312.617 80.0268 310.228 80.9211 307.489 81.4467C306.109 81.7119 304.671 81.6057 303.274 81.556C301.819 81.5043 300.178 81.7105 298.756 81.5329C297.5 81.376 296.507 80.3624 295.192 80.47C294.677 80.512 294.361 80.709 293.837 80.6624C293.148 80.6017 292.568 80.2372 291.836 80.2558C290.722 80.2841 289.62 80.3027 288.544 80.3434C287.321 80.3889 285.883 80.0541 284.666 80.2655C283.511 80.4658 282.138 81.5046 281.133 82.1102C279.894 82.8569 278.408 83.7204 277.299 84.6326C276.251 85.4948 275.513 86.8667 274.696 87.9372C273.832 89.0698 272.832 90.0817 271.963 91.2091C268.543 95.6473 264.94 101.114 263.87 106.702C263.599 108.116 263.614 109.512 263.818 110.932C264.001 112.201 265.191 112.683 265.227 114.046C265.3 116.806 263.978 120.005 263.21 122.621C262.402 125.375 261.389 128.05 260.134 130.639C259.649 131.642 259.033 132.471 258.728 133.51C258.355 134.779 257.786 135.983 257.371 137.262C253.775 148.333 248.201 158.638 244.138 169.54C241.954 175.398 239.645 181.206 237.265 186.99C236.093 189.837 234.824 192.597 233.55 195.401C233.383 195.769 233.264 196.48 232.972 196.733C232.479 197.161 232.914 196.918 232.224 196.845C231.628 196.782 231.01 196.511 230.409 196.41C228.96 196.166 227.475 196.125 226.012 195.981C224.332 195.814 222.853 195.728 221.171 195.809C219.607 195.885 218.066 195.42 216.509 195.317C213.17 195.096 209.878 195.213 206.541 195.275C203.942 195.324 200.613 195.015 198.207 196.222C195.797 197.431 196.629 200.215 198.672 201.276C201.121 202.547 204.004 202.728 206.438 204.023C204.611 204.585 202.638 204.44 200.777 204.879C199.578 205.162 197.724 205.371 196.82 206.246C195.945 207.094 196.034 208.555 196.611 209.549C197.331 210.787 198.715 211.001 199.96 211.431C199.399 212.174 198.527 212.116 198.022 213.096C197.351 214.399 197.77 215.792 198.592 216.918C200.374 219.365 203.905 219.571 206.661 219.92C209.369 220.263 212.212 220.345 214.939 220.159C216.492 220.053 218.025 219.976 219.559 219.757C221.324 219.505 221.154 220.742 221.783 222.007C222.391 223.232 223.269 223.757 224.628 223.681C226.095 223.599 227.722 223.5 229.175 223.254C230.567 223.018 231.772 222.3 233.106 222.001C234.308 221.731 235.263 221.295 236.405 220.71C237.715 220.039 238.412 218.917 239.559 218.146C240.737 217.355 241.969 218.598 243.126 219.217C245.94 220.72 249.028 221.385 252.106 222.124C255.244 222.878 258.301 223.842 261.493 224.364C262.978 224.607 264.389 224.574 265.867 224.732C267.571 224.914 269.048 225.564 270.788 225.568C276.932 225.581 283.116 226.69 289.263 226.895C295.349 227.098 301.533 226.594 307.612 227.002C310.72 227.211 313.728 226.792 316.819 226.953C320.007 227.119 323.308 226.951 326.49 226.708C333.093 226.203 339.491 226.334 346.025 226.007C349.424 225.836 352.889 225.516 356.245 224.977C359.536 224.448 363.26 225.057 365.587 222.195C365.843 223.317 365.913 224.48 366.733 225.365C367.595 226.296 368.985 226.671 370.14 227.095C373.088 228.177 376.068 229.205 379.037 230.232C381.851 231.205 384.683 232.259 387.52 233.152C390.501 234.089 393.337 235.226 396.267 236.327C398.923 237.324 401.674 238.112 404.234 239.315C405.289 239.811 406.395 239.852 407.404 240.315C408.65 240.887 409.808 241.436 411.144 241.848C412.289 242.202 413.337 242.456 414.445 242.916C415.543 243.372 417.097 244.163 418.246 243.557C419.053 243.132 419.37 242.154 419.618 241.337C419.929 240.316 419.664 238.544 420.873 238.59C422.068 238.635 423.754 239.785 424.926 240.175C426.327 240.642 427.761 241.422 429.205 241.687C430.65 241.951 431.787 241.872 432.545 240.529C433.398 239.017 433.256 237.414 433.001 235.77C435.461 235.764 437.739 235.995 440.22 236.079C441.587 236.125 442.916 236.186 444.279 236.035C445.509 235.9 447.338 236.285 448.405 235.723C450.574 234.578 450.251 231.339 449.157 229.568C448.55 228.585 447.598 227.922 446.63 227.326C445.416 226.578 444.526 225.73 443.463 224.777C444.157 224.3 445.058 224.532 445.738 223.963C446.266 223.521 446.595 222.785 446.836 222.156C447.285 220.985 446.706 218.297 447.72 217.633C448.261 217.279 449.221 217.429 449.839 217.145C450.685 216.757 451.278 216.041 451.642 215.19C452.462 213.27 451.76 211.272 450.959 209.479C453.991 208.962 458.435 208.756 459.302 205.246C459.579 204.124 459.617 202.826 459.236 201.724C458.67 200.088 457.351 199.999 455.888 199.52C449.775 197.513 444.049 194.255 437.462 193.772C433.934 193.513 430.38 193.377 426.856 193.011C423.316 192.643 419.904 191.994 416.341 192.435C414.826 192.622 413.071 192.455 411.621 192.729C410.219 192.994 410.041 194.648 411.113 195.602C412.154 196.53 413.665 195.936 414.905 196.041C416.663 196.188 418.143 197.019 419.784 197.543C423.811 198.828 428.223 199.74 432.422 200.201C434.676 200.449 436.805 200.482 439.011 201.083C441.016 201.629 443 202.25 445.011 202.773C442.813 203.36 438.556 203.295 437.825 205.972C437.481 207.232 437.863 208.975 438.97 209.754C439.614 210.207 441.019 210 441.423 210.676C439.693 210.889 437.72 209.557 436.77 211.461C435.686 213.633 436.747 215.348 438.133 216.961C436.908 216.758 435.648 216.989 434.411 216.832C433.456 216.711 432.564 216.424 431.656 216.723C431.201 216.873 431.261 217.278 430.686 217.281C430.268 217.283 429.642 216.828 429.279 216.653C427.901 215.987 426.501 215.446 425.076 214.89C423.342 214.214 421.695 213.694 419.964 213.27C417.574 212.684 415.176 211.179 412.844 210.328C411.856 209.968 410.587 209.599 410.096 208.57C409.59 207.509 409.978 205.956 410.009 204.834C410.096 201.678 410.059 198.517 410.04 195.36C410.023 192.705 409.96 190.1 409.723 187.455C409.441 184.29 409.694 181.136 409.573 177.967C409.461 175.056 409.722 172.152 409.643 169.242C409.554 166.001 409.392 162.771 409.359 159.526C409.299 153.696 409.103 147.874 408.99 142.046C408.874 136.059 408.24 130.07 406.96 124.216C406.387 121.594 405.639 118.923 404.641 116.432C404.325 115.643 403.994 115.598 404.753 115.147C405.204 114.88 405.76 115.178 406.202 115.238C407.131 115.362 407.96 115.417 408.906 115.361C414.327 115.043 419.939 115.3 425.341 115.788C428.15 116.041 430.974 116.283 433.794 116.383C436.607 116.483 439.42 116.92 442.233 116.713C446.947 116.368 452.323 116.907 456.362 113.872C460.673 110.632 460.267 104.893 457.484 100.747C454.412 96.1708 449.281 93.5635 444.996 90.3569C440.787 87.2064 435.839 84.8958 431.249 82.3585C421.421 76.9264 410.861 71.8984 400.28 68.1445C389.515 64.3257 378.714 59.9354 366.989 60.6817C361.049 61.0597 354.404 61.2804 349.164 64.4364C346.365 66.1228 343.655 67.881 341.25 70.1085C340.117 71.158 339.119 72.4513 337.912 73.41C336.791 74.3015 335.691 73.6911 334.41 73.3635C335.318 70.4344 336.226 67.5051 337.133 64.576C338.387 65.5486 340.111 65.9183 341.741 65.5744C343.72 65.1568 343.56 64.3115 343.383 62.6185C343.3 61.8332 343.086 61.9674 343.767 61.4715C344.326 61.0645 345.347 60.9314 345.99 60.5789C347.595 59.6998 348.986 58.409 349.577 56.6367C350.165 54.8743 349.749 53.2396 349.364 51.4904C348.901 49.387 350.045 50.2665 351.353 49.2884C351.928 48.858 352.134 48.4841 352.035 47.7733C351.955 47.1964 350.814 46.3656 350.865 45.7976C350.927 45.113 351.308 45.1895 351.849 44.7767C352.447 44.3211 352.877 43.7624 353.14 43.0454C353.698 41.527 352.561 40.5889 352.084 39.1887C351.853 38.51 351.626 37.9296 351.172 37.3584C350.368 36.3466 350.056 36.3687 348.934 36.3776C347.989 36.3849 348 36.3076 347.292 35.4534C347.017 35.1219 346.743 34.7926 346.506 34.4329C346.099 33.8152 345.985 33.899 346.421 33.4165C347.75 31.946 348.356 34.2418 349.536 34.1032C350.9 33.9428 351.145 31.7787 352.001 31.0558C352.6 30.5499 353.283 30.7427 353.937 30.4009C354.738 29.9833 354.899 29.187 355.419 28.5196C356.262 27.4367 357.487 27.2457 358.05 25.8717C358.369 25.0919 358.413 24.289 358.478 23.4622C358.571 22.2852 358.878 21.3547 359.221 20.2342C359.57 19.0913 359.484 18.2653 358.916 17.2138C358.332 16.1302 358.263 15.7656 358.41 14.5434C358.522 13.6129 358.556 12.787 358.071 11.9568C357.547 11.0622 357.438 10.5953 357.268 9.57616C357.119 8.68259 356.835 8.03905 355.971 7.66831C355.382 7.41552 354.745 7.69693 354.329 7.12134C353.914 6.54677 354.025 5.6263 353.599 4.99138C352.903 3.95572 351.858 3.79363 350.719 3.56015Z" fill="#333333"/>
<path fill-rule="evenodd" clip-rule="evenodd" d="M316.298 49.5827C316.702 48.6333 318.055 44.254 315.831 44.2316C314.066 44.2137 314.623 48.0139 314.602 48.9468C314.561 50.6929 312.735 50.9408 312.051 52.5249C311.254 54.3717 311.804 56.5768 313.047 58.0822C313.995 59.231 315.821 60.5474 317.125 59.141C318.574 57.5759 317.181 56.6975 316.166 55.7229C314.697 54.3106 317.509 53.9002 318.239 52.7545C319.479 50.8074 318.117 49.7945 316.298 49.5827Z" fill="#333333"/>
<path fill-rule="evenodd" clip-rule="evenodd" d="M322.67 50.5702C322.872 51.4717 322.811 53.5303 323.79 54.0162C325.433 54.8312 325.812 50.901 325.799 50.0333C325.786 49.1104 325.466 46.9297 324.105 47.2122C322.578 47.5291 323.445 50.3568 322.67 50.5702Z" fill="#333333"/>
<path fill-rule="evenodd" clip-rule="evenodd" d="M316.525 61.9855C314.097 62.061 314.233 64.9573 316.562 65.0584C318.729 65.1525 318.676 61.9189 316.525 61.9855Z" fill="#333333"/>
<path fill-rule="evenodd" clip-rule="evenodd" d="M311.36 105.155C311.587 106.12 312.116 107.03 312.909 107.638C312.722 107.256 311.911 104.983 311.36 105.155Z" fill="#333333"/>
</svg>
