<svg width="51" height="50" viewBox="0 0 51 50" fill="none" xmlns="http://www.w3.org/2000/svg">
<path fill-rule="evenodd" clip-rule="evenodd" d="M25.5909 5.20831C19.2627 5.20831 14.1327 10.3384 14.1327 16.6666C14.1327 20.603 16.1176 24.0758 19.1412 26.1387C12.1317 28.7063 7.08253 35.3394 6.84909 43.1827C6.82342 44.0452 7.50186 44.7653 8.36442 44.791C9.22698 44.8166 9.94704 44.1382 9.97271 43.2756C10.223 34.8661 17.1199 28.125 25.5907 28.125C34.0615 28.125 40.9583 34.8661 41.2086 43.2756C41.2343 44.1382 41.9543 44.8166 42.8169 44.791C43.6795 44.7653 44.3579 44.0452 44.3322 43.1827C44.0988 35.3395 39.0498 28.7065 32.0404 26.1388C35.064 24.0759 37.049 20.6031 37.049 16.6666C37.049 10.3384 31.9191 5.20831 25.5909 5.20831ZM17.2577 16.6666C17.2577 12.0642 20.9886 8.33331 25.5909 8.33331C30.1931 8.33331 33.924 12.0642 33.924 16.6666C33.924 21.269 30.1931 25 25.5909 25C20.9886 25 17.2577 21.269 17.2577 16.6666Z" fill="#828282"/>
</svg>
