<svg width="40" height="41" viewBox="0 0 40 41" fill="none" xmlns="http://www.w3.org/2000/svg">
<path fill-rule="evenodd" clip-rule="evenodd" d="M20 4.62189C11.2555 4.62189 4.16669 11.7107 4.16669 20.4552C4.16669 29.1997 11.2555 36.2886 20 36.2886C28.7445 36.2886 35.8334 29.1997 35.8334 20.4552C35.8334 18.111 35.3247 15.889 34.413 13.8907C34.1264 13.2627 34.4033 12.5212 35.0314 12.2347C35.6594 11.9481 36.4009 12.225 36.6875 12.853C37.7448 15.1706 38.3334 17.7459 38.3334 20.4552C38.3334 30.5804 30.1252 38.7886 20 38.7886C9.8748 38.7886 1.66669 30.5804 1.66669 20.4552C1.66669 10.33 9.8748 2.12189 20 2.12189C22.7094 2.12189 25.2847 2.71041 27.6022 3.76778C28.2303 4.05434 28.5071 4.79579 28.2206 5.42387C27.934 6.05194 27.1926 6.32879 26.5645 6.04223C24.5662 5.13051 22.3442 4.62189 20 4.62189ZM35.0506 5.40467C35.5387 5.89283 35.5387 6.68428 35.0506 7.17244L24.3077 17.9153C24.7476 18.6597 25 19.528 25 20.4552C25 23.2166 22.7614 25.4552 20 25.4552C17.2386 25.4552 15 23.2166 15 20.4552C15 17.6938 17.2386 15.4552 20 15.4552C20.9273 15.4552 21.7956 15.7076 22.54 16.1475L33.2828 5.40467C33.771 4.91651 34.5624 4.91651 35.0506 5.40467ZM20 17.9552C18.6193 17.9552 17.5 19.0745 17.5 20.4552C17.5 21.8359 18.6193 22.9552 20 22.9552C21.3807 22.9552 22.5 21.8359 22.5 20.4552C22.5 19.0745 21.3807 17.9552 20 17.9552Z" fill="black"/>
</svg>
