<svg width="40" height="40" viewBox="0 0 40 40" fill="none" xmlns="http://www.w3.org/2000/svg">
<path fill-rule="evenodd" clip-rule="evenodd" d="M20 25C20.3316 25 20.6495 25.1317 20.8839 25.3661L26.3006 30.7828C26.7887 31.2709 26.7887 32.0624 26.3006 32.5506C25.8124 33.0387 25.021 33.0387 24.5328 32.5506L20 28.0178L15.4673 32.5506C14.9791 33.0387 14.1876 33.0387 13.6995 32.5506C13.2113 32.0624 13.2113 31.2709 13.6995 30.7828L19.1162 25.3661C19.3506 25.1317 19.6685 25 20 25Z" fill="black"/>
<path fill-rule="evenodd" clip-rule="evenodd" d="M20 26.25C20.6904 26.25 21.25 26.8096 21.25 27.5L21.25 37.0833C21.25 37.7737 20.6904 38.3333 20 38.3333C19.3096 38.3333 18.75 37.7737 18.75 37.0833L18.75 27.5C18.75 26.8096 19.3096 26.25 20 26.25Z" fill="black"/>
<path fill-rule="evenodd" clip-rule="evenodd" d="M20.8838 14.6339C20.3957 15.122 19.6042 15.122 19.1161 14.6339L13.6994 9.21722C13.2113 8.72906 13.2113 7.9376 13.6994 7.44945C14.1876 6.96129 14.979 6.96129 15.4672 7.44945L20 11.9822L24.5327 7.44945C25.0209 6.96129 25.8124 6.96129 26.3005 7.44945C26.7887 7.93761 26.7887 8.72906 26.3005 9.21722L20.8838 14.6339Z" fill="black"/>
<path fill-rule="evenodd" clip-rule="evenodd" d="M20 14.1666C19.3096 14.1666 18.75 13.607 18.75 12.9166L18.75 2.91668C18.75 2.22632 19.3096 1.66668 20 1.66668C20.6904 1.66668 21.25 2.22632 21.25 2.91668L21.25 12.9166C21.25 13.607 20.6904 14.1666 20 14.1666Z" fill="black"/>
<path fill-rule="evenodd" clip-rule="evenodd" d="M17.9166 20C17.9166 19.3096 18.4763 18.75 19.1666 18.75H20.8333C21.5236 18.75 22.0833 19.3096 22.0833 20C22.0833 20.6904 21.5236 21.25 20.8333 21.25H19.1666C18.4763 21.25 17.9166 20.6904 17.9166 20Z" fill="black"/>
<path fill-rule="evenodd" clip-rule="evenodd" d="M4.58337 20C4.58337 19.3096 5.14302 18.75 5.83337 18.75H7.50004C8.1904 18.75 8.75004 19.3096 8.75004 20C8.75004 20.6904 8.1904 21.25 7.50004 21.25H5.83337C5.14302 21.25 4.58337 20.6904 4.58337 20Z" fill="black"/>
<path fill-rule="evenodd" clip-rule="evenodd" d="M24.5834 20C24.5834 19.3096 25.143 18.75 25.8334 18.75H27.5C28.1904 18.75 28.75 19.3096 28.75 20C28.75 20.6904 28.1904 21.25 27.5 21.25H25.8334C25.143 21.25 24.5834 20.6904 24.5834 20Z" fill="black"/>
<path fill-rule="evenodd" clip-rule="evenodd" d="M11.25 20C11.25 19.3096 11.8096 18.75 12.5 18.75H14.1667C14.857 18.75 15.4167 19.3096 15.4167 20C15.4167 20.6904 14.857 21.25 14.1667 21.25H12.5C11.8096 21.25 11.25 20.6904 11.25 20Z" fill="black"/>
<path fill-rule="evenodd" clip-rule="evenodd" d="M31.25 20C31.25 19.3096 31.8096 18.75 32.5 18.75H34.1667C34.857 18.75 35.4167 19.3096 35.4167 20C35.4167 20.6904 34.857 21.25 34.1667 21.25H32.5C31.8096 21.25 31.25 20.6904 31.25 20Z" fill="black"/>
</svg>
