<svg width="40" height="40" viewBox="0 0 40 40" fill="none" xmlns="http://www.w3.org/2000/svg">
<path fill-rule="evenodd" clip-rule="evenodd" d="M20 1.66669C13.8641 1.66669 8.33334 5.94244 8.33334 11.6667V19.2315C8.33334 20.3009 8.0168 21.3464 7.42362 22.2361L3.75814 27.7344C3.48115 28.1498 3.33334 28.638 3.33334 29.1374C3.33334 30.5343 4.46576 31.6667 5.86266 31.6667H14.1667C14.1667 34.8883 16.7783 37.5 20 37.5C23.2217 37.5 25.8333 34.8883 25.8333 31.6667H34.1374C35.5343 31.6667 36.6667 30.5343 36.6667 29.1374C36.6667 28.638 36.5189 28.1498 36.2419 27.7344L32.5764 22.2361C31.9832 21.3464 31.6667 20.3009 31.6667 19.2315V11.6667C31.6667 5.94244 26.1359 1.66669 20 1.66669ZM10.8333 11.6667C10.8333 7.72595 14.8042 4.16669 20 4.16669C25.1958 4.16669 29.1667 7.72595 29.1667 11.6667V19.2315C29.1667 20.7945 29.6293 22.3224 30.4963 23.6229L34.1618 29.1211C34.165 29.1259 34.1667 29.1316 34.1667 29.1374C34.1667 29.1437 34.1649 29.1484 34.1649 29.1484C34.1649 29.1484 34.1617 29.1545 34.1581 29.1581C34.1545 29.1617 34.1484 29.1649 34.1484 29.1649C34.1484 29.1649 34.1437 29.1667 34.1374 29.1667H5.86266C5.85631 29.1667 5.85163 29.1649 5.85163 29.1649C5.85163 29.1649 5.84549 29.1617 5.84193 29.1581C5.83837 29.1545 5.83513 29.1484 5.83513 29.1484C5.83513 29.1484 5.83334 29.1437 5.83334 29.1374C5.83334 29.1316 5.83506 29.1259 5.83827 29.1211L9.50374 23.6229C10.3707 22.3224 10.8333 20.7945 10.8333 19.2315V11.6667ZM23.3333 31.6667H16.6667C16.6667 33.5076 18.1591 35 20 35C21.841 35 23.3333 33.5076 23.3333 31.6667Z" fill="black"/>
</svg>
