<svg width="294" height="404" viewBox="0 0 294 404" fill="none" xmlns="http://www.w3.org/2000/svg">
<rect width="294" height="404" fill="#E0EBF8"/>
<path d="M39.8337 87.7148L40.8084 84.6104H45.9127L46.8874 87.7148H50.7282L45.7394 72.9289H40.9817L35.9929 87.7148H39.8337ZM41.6603 81.8958L43.2992 76.6543H43.4147L45.0608 81.8958H41.6603ZM55.8506 81.3904C55.8578 80.1269 56.5942 79.3761 57.7133 79.3761C58.8323 79.3761 59.4966 80.1125 59.4893 81.3399V87.7148H63.0198V80.6468C63.027 78.1488 61.5036 76.481 59.1717 76.481C57.5328 76.481 56.291 77.3113 55.8001 78.6614H55.6773V76.6254H52.3202V87.7148H55.8506V81.3904ZM72.6996 87.9026C74.2446 87.9026 75.3131 87.3033 75.9196 86.1698H76.0062V87.7148H79.3272V80.1775C79.3272 77.8311 77.2408 76.481 74.4179 76.481C71.4361 76.481 69.7467 77.9827 69.4651 80.0042L72.7212 80.1197C72.8728 79.4122 73.4576 78.979 74.389 78.979C75.2553 78.979 75.804 79.3978 75.804 80.1414V80.1775C75.804 80.8561 75.0676 81.0005 73.1761 81.1666C70.9307 81.3543 69.0536 82.1846 69.0536 84.6393C69.0536 86.834 70.577 87.9026 72.6996 87.9026ZM73.7897 85.5923C72.9739 85.5923 72.3963 85.2024 72.3963 84.466C72.3963 83.7512 72.9595 83.3181 73.963 83.1664C74.62 83.0726 75.4286 82.9282 75.8257 82.7188V83.7729C75.8257 84.8558 74.916 85.5923 73.7897 85.5923ZM81.4859 87.7148H85.0164V76.6254H81.4859V87.7148ZM83.2548 75.3331C84.2583 75.3331 85.0669 74.575 85.0669 73.6437C85.0669 72.7123 84.2583 71.9615 83.2548 71.9615C82.2584 71.9615 81.4426 72.7123 81.4426 73.6437C81.4426 74.575 82.2584 75.3331 83.2548 75.3331ZM87.2635 87.7148H90.7939V81.6936C90.7939 80.3724 91.7325 79.4844 92.9959 79.4844C93.4147 79.4844 94.0428 79.5566 94.3821 79.6721V76.6037C94.0861 76.5243 93.7179 76.4738 93.393 76.4738C92.1801 76.4738 91.2127 77.1813 90.8084 78.6469H90.6928V76.6254H87.2635V87.7148ZM99.3511 72.9289H95.8206V87.7148H99.3511V72.9289ZM101.598 87.7148H105.129V76.6254H101.598V87.7148ZM103.367 75.3331C104.371 75.3331 105.179 74.575 105.179 73.6437C105.179 72.7123 104.371 71.9615 103.367 71.9615C102.371 71.9615 101.555 72.7123 101.555 73.6437C101.555 74.575 102.371 75.3331 103.367 75.3331ZM110.906 81.3904C110.913 80.1269 111.65 79.3761 112.769 79.3761C113.888 79.3761 114.552 80.1125 114.545 81.3399V87.7148H118.075V80.6468C118.083 78.1488 116.559 76.481 114.227 76.481C112.588 76.481 111.347 77.3113 110.856 78.6614H110.733V76.6254H107.376V87.7148H110.906V81.3904ZM125.445 87.9242C128.354 87.9242 130.268 86.5164 130.672 84.336L127.43 84.2422C127.156 84.9786 126.434 85.3757 125.51 85.3757C124.152 85.3757 123.315 84.4732 123.315 83.1159V83.022H130.708V82.1412C130.708 78.4881 128.484 76.481 125.337 76.481C121.987 76.481 119.835 78.7769 119.835 82.2134C119.835 85.7655 121.958 87.9242 125.445 87.9242ZM123.315 80.9717C123.366 79.867 124.239 79.0296 125.409 79.0296C126.571 79.0296 127.409 79.8382 127.423 80.9717H123.315ZM140.005 87.9026C141.55 87.9026 142.619 87.3033 143.225 86.1698H143.312V87.7148H146.633V80.1775C146.633 77.8311 144.546 76.481 141.723 76.481C138.742 76.481 137.052 77.9827 136.771 80.0042L140.027 80.1197C140.178 79.4122 140.763 78.979 141.695 78.979C142.561 78.979 143.11 79.3978 143.11 80.1414V80.1775C143.11 80.8561 142.373 81.0005 140.482 81.1666C138.236 81.3543 136.359 82.1846 136.359 84.6393C136.359 86.834 137.883 87.9026 140.005 87.9026ZM141.095 85.5923C140.279 85.5923 139.702 85.2024 139.702 84.466C139.702 83.7512 140.265 83.3181 141.269 83.1664C141.926 83.0726 142.734 82.9282 143.131 82.7188V83.7729C143.131 84.8558 142.222 85.5923 141.095 85.5923ZM148.791 91.8734H152.322V85.9171H152.394C152.842 86.9423 153.838 87.8737 155.513 87.8737C157.968 87.8737 159.946 85.9532 159.946 82.1773C159.946 78.2643 157.852 76.481 155.535 76.481C153.78 76.481 152.82 77.5062 152.394 78.5242H152.286V76.6254H148.791V91.8734ZM152.25 82.1701C152.25 80.358 153.001 79.2389 154.293 79.2389C155.6 79.2389 156.322 80.3869 156.322 82.1701C156.322 83.9606 155.6 85.123 154.293 85.123C153.001 85.123 152.25 83.9678 152.25 82.1701ZM161.796 91.8734H165.326V85.9171H165.399C165.846 86.9423 166.843 87.8737 168.517 87.8737C170.972 87.8737 172.95 85.9532 172.95 82.1773C172.95 78.2643 170.857 76.481 168.539 76.481C166.785 76.481 165.825 77.5062 165.399 78.5242H165.29V76.6254H161.796V91.8734ZM165.254 82.1701C165.254 80.358 166.005 79.2389 167.297 79.2389C168.604 79.2389 169.326 80.3869 169.326 82.1701C169.326 83.9606 168.604 85.123 167.297 85.123C166.005 85.123 165.254 83.9678 165.254 82.1701ZM181.24 87.7148H185.024L186.756 81.2532H186.879L188.612 87.7148H192.388L195.283 76.6254H191.738L190.287 83.679H190.193L188.547 76.6254H185.088L183.486 83.7296H183.392L181.897 76.6254H178.353L181.24 87.7148ZM196.7 87.7148H200.23V76.6254H196.7V87.7148ZM198.468 75.3331C199.472 75.3331 200.281 74.575 200.281 73.6437C200.281 72.7123 199.472 71.9615 198.468 71.9615C197.472 71.9615 196.656 72.7123 196.656 73.6437C196.656 74.575 197.472 75.3331 198.468 75.3331ZM208.737 76.6254H206.737V73.9686H203.206V76.6254H201.741V79.2245H203.206V84.6176C203.185 86.8629 204.643 87.9892 207.134 87.8737C207.986 87.8304 208.599 87.6571 208.939 87.556L208.404 85.0075C208.253 85.0436 207.899 85.1158 207.632 85.1158C207.062 85.1158 206.737 84.8847 206.737 84.2277V79.2245H208.737V76.6254ZM214.307 81.3904C214.314 80.1269 215.065 79.3761 216.184 79.3761C217.317 79.3761 217.974 80.1053 217.967 81.3399V87.7148H221.497V80.6468C221.505 78.1343 219.974 76.481 217.642 76.481C215.982 76.481 214.812 77.2968 214.314 78.6614H214.191V72.9289H210.776V87.7148H214.307V81.3904ZM231.195 87.9026C232.74 87.9026 233.809 87.3033 234.415 86.1698H234.502V87.7148H237.823V80.1775C237.823 77.8311 235.736 76.481 232.914 76.481C229.932 76.481 228.242 77.9827 227.961 80.0042L231.217 80.1197C231.369 79.4122 231.953 78.979 232.885 78.979C233.751 78.979 234.3 79.3978 234.3 80.1414V80.1775C234.3 80.8561 233.563 81.0005 231.672 81.1666C229.426 81.3543 227.549 82.1846 227.549 84.6393C227.549 86.834 229.073 87.9026 231.195 87.9026ZM232.285 85.5923C231.47 85.5923 230.892 85.2024 230.892 84.466C230.892 83.7512 231.455 83.3181 232.459 83.1664C233.116 83.0726 233.924 82.9282 234.321 82.7188V83.7729C234.321 84.8558 233.412 85.5923 232.285 85.5923ZM46.317 103.011C46.1293 100.817 44.3316 99.481 41.3282 99.481C38.3248 99.481 36.4116 100.788 36.426 103.011C36.4116 104.715 37.5018 105.813 39.7182 106.224L41.6531 106.592C42.57 106.773 42.9887 107.062 43.0032 107.553C42.9887 108.109 42.3678 108.477 41.4654 108.477C40.4618 108.477 39.7832 108.044 39.6316 107.235L36.1445 107.322C36.3972 109.516 38.2815 110.924 41.4509 110.924C44.4182 110.924 46.5769 109.444 46.5914 107.163C46.5769 105.546 45.5084 104.585 43.2992 104.159L41.1622 103.755C40.2236 103.567 39.9204 103.235 39.9276 102.809C39.9204 102.246 40.5774 101.9 41.3932 101.9C42.3245 101.9 42.9743 102.398 43.0754 103.098L46.317 103.011ZM48.3295 110.715H51.8599V104.152C51.8599 103.055 52.5025 102.354 53.4266 102.354C54.3435 102.354 54.95 102.997 54.95 104.022V110.715H58.3432V104.094C58.3432 103.033 58.928 102.354 59.9027 102.354C60.7979 102.354 61.4332 102.954 61.4332 104.058V110.715H64.9637V103.25C64.9637 100.903 63.5197 99.481 61.426 99.481C59.7872 99.481 58.4948 100.34 58.0833 101.661H57.9678C57.6718 100.333 56.4805 99.481 54.9427 99.481C53.4266 99.481 52.2715 100.311 51.8094 101.661H51.6867V99.6254H48.3295V110.715ZM72.3278 110.924C75.8149 110.924 77.9302 108.621 77.9302 105.206C77.9302 101.784 75.8149 99.481 72.3278 99.481C68.8406 99.481 66.7253 101.784 66.7253 105.206C66.7253 108.621 68.8406 110.924 72.3278 110.924ZM72.3494 108.26C71.0427 108.26 70.3207 107.018 70.3207 105.185C70.3207 103.344 71.0427 102.095 72.3494 102.095C73.6129 102.095 74.3348 103.344 74.3348 105.185C74.3348 107.018 73.6129 108.26 72.3494 108.26ZM84.9153 110.924C88.4024 110.924 90.5178 108.621 90.5178 105.206C90.5178 101.784 88.4024 99.481 84.9153 99.481C81.4282 99.481 79.3128 101.784 79.3128 105.206C79.3128 108.621 81.4282 110.924 84.9153 110.924ZM84.9369 108.26C83.6302 108.26 82.9082 107.018 82.9082 105.185C82.9082 103.344 83.6302 102.095 84.9369 102.095C86.2004 102.095 86.9224 103.344 86.9224 105.185C86.9224 107.018 86.2004 108.26 84.9369 108.26ZM98.5858 99.6254H96.5859V96.9686H93.0555V99.6254H91.5899V102.224H93.0555V107.618C93.0338 109.863 94.4922 110.989 96.983 110.874C97.8349 110.83 98.4486 110.657 98.7879 110.556L98.2537 108.007C98.102 108.044 97.7483 108.116 97.4812 108.116C96.9108 108.116 96.5859 107.885 96.5859 107.228V102.224H98.5858V99.6254ZM104.156 104.39C104.163 103.127 104.914 102.376 106.033 102.376C107.166 102.376 107.823 103.105 107.816 104.34V110.715H111.347V103.647C111.354 101.134 109.823 99.481 107.491 99.481C105.831 99.481 104.661 100.297 104.163 101.661H104.04V95.9289H100.625V110.715H104.156V104.39ZM117.918 110.715H121.413V108.917H121.521C121.969 109.942 122.965 110.874 124.64 110.874C127.095 110.874 129.073 108.953 129.073 105.177C129.073 101.264 126.979 99.481 124.661 99.481C122.907 99.481 121.947 100.506 121.521 101.524H121.449V95.9289H117.918V110.715ZM121.377 105.17C121.377 103.358 122.127 102.239 123.42 102.239C124.726 102.239 125.448 103.387 125.448 105.17C125.448 106.961 124.726 108.123 123.42 108.123C122.127 108.123 121.377 106.968 121.377 105.17ZM136.099 110.924C139.586 110.924 141.702 108.621 141.702 105.206C141.702 101.784 139.586 99.481 136.099 99.481C132.612 99.481 130.497 101.784 130.497 105.206C130.497 108.621 132.612 110.924 136.099 110.924ZM136.121 108.26C134.814 108.26 134.092 107.018 134.092 105.185C134.092 103.344 134.814 102.095 136.121 102.095C137.384 102.095 138.106 103.344 138.106 105.185C138.106 107.018 137.384 108.26 136.121 108.26ZM148.687 110.924C152.174 110.924 154.289 108.621 154.289 105.206C154.289 101.784 152.174 99.481 148.687 99.481C145.2 99.481 143.084 101.784 143.084 105.206C143.084 108.621 145.2 110.924 148.687 110.924ZM148.708 108.26C147.402 108.26 146.68 107.018 146.68 105.185C146.68 103.344 147.402 102.095 148.708 102.095C149.972 102.095 150.694 103.344 150.694 105.185C150.694 107.018 149.972 108.26 148.708 108.26ZM156.098 110.715H159.628V107.387L160.343 106.52L162.985 110.715H167.065L162.971 104.455L166.906 99.6254H162.906L159.787 103.596H159.628V95.9289H156.098V110.715ZM168.169 110.715H171.7V99.6254H168.169V110.715ZM169.938 98.3331C170.942 98.3331 171.75 97.575 171.75 96.6437C171.75 95.7123 170.942 94.9615 169.938 94.9615C168.942 94.9615 168.126 95.7123 168.126 96.6437C168.126 97.575 168.942 98.3331 169.938 98.3331ZM177.477 104.39C177.484 103.127 178.221 102.376 179.34 102.376C180.459 102.376 181.123 103.113 181.116 104.34V110.715H184.646V103.647C184.654 101.149 183.13 99.481 180.798 99.481C179.159 99.481 177.918 100.311 177.427 101.661H177.304V99.6254H173.947V110.715H177.477V104.39ZM192.001 115.104C195.344 115.104 197.625 113.581 197.625 110.758V99.6254H194.109V101.524H194.008C193.582 100.506 192.615 99.481 190.868 99.481C188.55 99.481 186.449 101.264 186.449 105.156C186.449 108.924 188.449 110.563 190.882 110.563C192.514 110.563 193.604 109.805 194.023 108.78H194.146V110.729C194.146 112.144 193.279 112.657 192.095 112.657C190.962 112.657 190.283 112.224 190.095 111.538L186.753 111.726C187.013 113.668 188.839 115.104 192.001 115.104ZM192.11 107.993C190.803 107.993 190.074 106.932 190.074 105.156C190.074 103.387 190.796 102.239 192.11 102.239C193.402 102.239 194.153 103.358 194.153 105.156C194.153 106.939 193.395 107.993 192.11 107.993ZM41.8191 132.924C44.7287 132.924 46.6419 131.516 47.0462 129.336L43.8046 129.242C43.5302 129.979 42.8082 130.376 41.8841 130.376C40.5268 130.376 39.6893 129.473 39.6893 128.116V128.022H47.0823V127.141C47.0823 123.488 44.8586 121.481 41.7109 121.481C38.3609 121.481 36.2094 123.777 36.2094 127.213C36.2094 130.766 38.332 132.924 41.8191 132.924ZM39.6893 125.972C39.7399 124.867 40.6135 124.03 41.783 124.03C42.9454 124.03 43.7829 124.838 43.7973 125.972H39.6893ZM51.73 121.625H48.149L51.2102 127.17L47.9902 132.715H51.5711L53.5566 129.033L55.5925 132.715H59.1229L55.9102 127.17L59.0074 121.625H55.4481L53.5566 125.279L51.73 121.625ZM60.6192 136.873H64.1497V130.917H64.2218C64.6695 131.942 65.6658 132.874 67.3408 132.874C69.7954 132.874 71.7736 130.953 71.7736 127.177C71.7736 123.264 69.6799 121.481 67.3624 121.481C65.608 121.481 64.6478 122.506 64.2218 123.524H64.1136V121.625H60.6192V136.873ZM64.0775 127.17C64.0775 125.358 64.8283 124.239 66.1206 124.239C67.4274 124.239 68.1494 125.387 68.1494 127.17C68.1494 128.961 67.4274 130.123 66.1206 130.123C64.8283 130.123 64.0775 128.968 64.0775 127.17ZM78.8074 132.924C81.717 132.924 83.6302 131.516 84.0345 129.336L80.7928 129.242C80.5185 129.979 79.7965 130.376 78.8724 130.376C77.5151 130.376 76.6776 129.473 76.6776 128.116V128.022H84.0706V127.141C84.0706 123.488 81.8469 121.481 78.6991 121.481C75.3492 121.481 73.1977 123.777 73.1977 127.213C73.1977 130.766 75.3203 132.924 78.8074 132.924ZM76.6776 125.972C76.7282 124.867 77.6017 124.03 78.7713 124.03C79.9337 124.03 80.7712 124.838 80.7856 125.972H76.6776ZM85.8737 132.715H89.4041V126.694C89.4041 125.372 90.3427 124.484 91.6061 124.484C92.0249 124.484 92.653 124.557 92.9923 124.672V121.604C92.6963 121.524 92.3281 121.474 92.0032 121.474C90.7903 121.474 89.8229 122.181 89.4186 123.647H89.3031V121.625H85.8737V132.715ZM94.4308 132.715H97.9613V121.625H94.4308V132.715ZM96.1997 120.333C97.2032 120.333 98.0118 119.575 98.0118 118.644C98.0118 117.712 97.2032 116.961 96.1997 116.961C95.2033 116.961 94.3875 117.712 94.3875 118.644C94.3875 119.575 95.2033 120.333 96.1997 120.333ZM105.392 132.924C108.302 132.924 110.215 131.516 110.619 129.336L107.378 129.242C107.103 129.979 106.381 130.376 105.457 130.376C104.1 130.376 103.262 129.473 103.262 128.116V128.022H110.655V127.141C110.655 123.488 108.432 121.481 105.284 121.481C101.934 121.481 99.7824 123.777 99.7824 127.213C99.7824 130.766 101.905 132.924 105.392 132.924ZM103.262 125.972C103.313 124.867 104.186 124.03 105.356 124.03C106.518 124.03 107.356 124.838 107.37 125.972H103.262ZM115.989 126.39C115.996 125.127 116.732 124.376 117.852 124.376C118.971 124.376 119.635 125.113 119.628 126.34V132.715H123.158V125.647C123.165 123.149 121.642 121.481 119.31 121.481C117.671 121.481 116.429 122.311 115.938 123.661H115.816V121.625H112.458V132.715H115.989V126.39ZM130.52 132.924C133.639 132.924 135.574 131.112 135.668 128.369H132.369C132.239 129.545 131.531 130.188 130.564 130.188C129.322 130.188 128.513 129.141 128.513 127.17C128.513 125.214 129.329 124.167 130.564 124.167C131.574 124.167 132.231 124.853 132.369 125.986H135.668C135.588 123.257 133.596 121.481 130.513 121.481C127.026 121.481 124.918 123.806 124.918 127.206C124.918 130.592 127.011 132.924 130.52 132.924ZM142.658 132.924C145.568 132.924 147.481 131.516 147.885 129.336L144.644 129.242C144.369 129.979 143.647 130.376 142.723 130.376C141.366 130.376 140.529 129.473 140.529 128.116V128.022H147.922V127.141C147.922 123.488 145.698 121.481 142.55 121.481C139.2 121.481 137.049 123.777 137.049 127.213C137.049 130.766 139.171 132.924 142.658 132.924ZM140.529 125.972C140.579 124.867 141.453 124.03 142.622 124.03C143.785 124.03 144.622 124.838 144.637 125.972H140.529ZM151.71 132.924C152.699 132.924 153.573 132.087 153.587 131.047C153.573 130.022 152.699 129.192 151.71 129.192C150.67 129.192 149.818 130.022 149.833 131.047C149.818 132.087 150.67 132.924 151.71 132.924Z" fill="#699BF7"/>
<path d="M37.3792 60.3799H39.3948V49.1064H37.3792V60.3799ZM42.5979 60.3799H44.5432V53.3486H46.3635V51.8408H44.512V51.1064C44.512 50.2939 44.8635 49.8564 45.7776 49.8564C46.051 49.8564 46.2932 49.8721 46.4417 49.8955V48.5361C46.1292 48.4814 45.7776 48.458 45.3635 48.458C43.4651 48.458 42.5979 49.2939 42.5979 50.9971V51.8408H41.1995V53.3486H42.5979V60.3799ZM48.3167 60.3799H50.262V48.5361H48.3167V60.3799ZM53.637 63.3799C55.5276 63.3799 56.5042 62.7002 57.2385 60.5596L60.301 51.8408H58.2542L56.2698 58.5127H56.1213L54.1292 51.8408H52.0042L55.0588 60.3877L54.9573 60.7783C54.7463 61.5518 54.2698 61.8799 53.4729 61.8799C53.2698 61.8799 53.051 61.8721 52.8948 61.8564V63.3486C53.1292 63.3721 53.4026 63.3799 53.637 63.3799Z" fill="#F2994A"/>
</svg>
