<svg width="41" height="41" viewBox="0 0 41 41" fill="none" xmlns="http://www.w3.org/2000/svg">
<path fill-rule="evenodd" clip-rule="evenodd" d="M10.4896 4.8255C10.7079 5.48043 10.3539 6.18833 9.699 6.40664L8.33862 6.8601C8.16847 6.91681 8.05371 7.07604 8.05371 7.25538V36.0541C8.05371 36.2842 8.24026 36.4708 8.47038 36.4708H32.637C32.8672 36.4708 33.0537 36.2842 33.0537 36.0541V7.25538C33.0537 7.07604 32.9389 6.91681 32.7688 6.8601L31.4084 6.40664C30.7535 6.18833 30.3995 5.48043 30.6179 4.8255C30.8362 4.17057 31.5441 3.81662 32.199 4.03493L33.5594 4.48839C34.7504 4.88539 35.5537 5.99996 35.5537 7.25538V36.0541C35.5537 37.6649 34.2479 38.9708 32.637 38.9708H8.47038C6.85955 38.9708 5.55371 37.6649 5.55371 36.0541V7.25538C5.55371 5.99996 6.35705 4.88539 7.54805 4.48839L8.90843 4.03493C9.56336 3.81662 10.2713 4.17057 10.4896 4.8255Z" fill="black"/>
<path fill-rule="evenodd" clip-rule="evenodd" d="M12.2204 3.55412C12.2204 1.94329 13.5262 0.637451 15.137 0.637451H25.9704C27.5812 0.637451 28.887 1.94329 28.887 3.55412V6.05412C28.887 7.66495 27.5812 8.97078 25.9704 8.97078H15.137C13.5262 8.97078 12.2204 7.66495 12.2204 6.05412V3.55412ZM15.137 3.13745C14.9069 3.13745 14.7204 3.324 14.7204 3.55412V6.05412C14.7204 6.28424 14.9069 6.47078 15.137 6.47078H25.9704C26.2005 6.47078 26.387 6.28424 26.387 6.05412V3.55412C26.387 3.324 26.2005 3.13745 25.9704 3.13745H15.137Z" fill="black"/>
</svg>
