<svg width="40" height="40" viewBox="0 0 40 40" fill="none" xmlns="http://www.w3.org/2000/svg">
<path fill-rule="evenodd" clip-rule="evenodd" d="M13.1243 3.82085C13.1158 3.82363 13.0979 3.8308 13.0713 3.84947C9.95178 6.03697 7.91663 9.65608 7.91663 13.7504C7.91663 18.2412 10.3659 22.1615 14.0074 24.2457C14.9576 24.7895 15.6433 25.8363 15.5754 27.0484L15.5752 27.0519L15.0459 37.1488C15.0097 37.8382 14.4216 38.3678 13.7322 38.3317C13.0427 38.2955 12.5132 37.7073 12.5493 37.0179L13.079 26.9152L13.0793 26.9093C13.0879 26.7586 13.0007 26.55 12.7656 26.4155C8.37782 23.9042 5.41663 19.1739 5.41663 13.7504C5.41663 8.80668 7.87773 4.43795 11.6359 1.80257C12.5618 1.15333 13.6556 1.1954 14.4843 1.69504C15.2916 2.1818 15.8333 3.08596 15.8333 4.12945V11.9855C15.8333 12.1301 15.9084 12.2645 16.0316 12.3403L19.7816 14.648C19.9155 14.7304 20.0844 14.7304 20.2183 14.648L23.9683 12.3403C24.0916 12.2645 24.1666 12.1301 24.1666 11.9855V4.12944C24.1666 3.08596 24.7083 2.1818 25.5156 1.69504C26.3443 1.1954 27.4381 1.15333 28.364 1.80257C32.1222 4.43796 34.5833 8.80668 34.5833 13.7504C34.5833 19.1739 31.6221 23.9042 27.2343 26.4155C26.9992 26.55 26.912 26.7586 26.9206 26.9093L26.9209 26.9152L27.4506 37.0179C27.4867 37.7073 26.9572 38.2955 26.2678 38.3317C25.5784 38.3678 24.9902 37.8382 24.954 37.1488L24.4247 27.0519L24.4245 27.0487C24.3565 25.8364 25.0423 24.7895 25.9925 24.2457C29.634 22.1615 32.0833 18.2412 32.0833 13.7504C32.0833 9.65608 30.0481 6.03697 26.9286 3.84947C26.902 3.8308 26.8841 3.82363 26.8756 3.82085C26.8671 3.81805 26.859 3.81758 26.859 3.81758C26.8537 3.81749 26.8355 3.81849 26.8064 3.83601C26.7459 3.87252 26.6666 3.96642 26.6666 4.12944V11.9855C26.6666 12.9983 26.1412 13.9386 25.2786 14.4695L21.5286 16.7772C20.5911 17.354 19.4088 17.354 18.4713 16.7772L14.7213 14.4695C13.8587 13.9386 13.3333 12.9983 13.3333 11.9855V4.12945C13.3333 3.96642 13.254 3.87252 13.1935 3.83601C13.1644 3.81849 13.1462 3.81749 13.1409 3.81758C13.1409 3.81758 13.1328 3.81805 13.1243 3.82085Z" fill="black"/>
</svg>
