<svg width="41" height="40" viewBox="0 0 41 40" fill="none" xmlns="http://www.w3.org/2000/svg">
<path fill-rule="evenodd" clip-rule="evenodd" d="M20.9178 4.16663C15.8552 4.16663 11.7513 8.2707 11.7513 13.3333C11.7513 16.4824 13.3392 19.2606 15.758 20.9109C10.1504 22.965 6.11114 28.2715 5.92439 34.5461C5.90385 35.2362 6.4466 35.8122 7.13665 35.8327C7.8267 35.8533 8.40275 35.3105 8.42329 34.6205C8.62352 27.8929 14.141 22.5 20.9176 22.5C27.6943 22.5 33.2118 27.8929 33.412 34.6205C33.4325 35.3105 34.0086 35.8533 34.6986 35.8327C35.3887 35.8122 35.9314 35.2362 35.9109 34.5461C35.7242 28.2716 31.6849 22.9652 26.0775 20.911C28.4963 19.2607 30.0843 16.4824 30.0843 13.3333C30.0843 8.2707 25.9804 4.16663 20.9178 4.16663ZM14.2513 13.3333C14.2513 9.65138 17.236 6.66663 20.9178 6.66663C24.5996 6.66663 27.5843 9.65138 27.5843 13.3333C27.5843 17.0152 24.5996 20 20.9178 20C17.236 20 14.2513 17.0152 14.2513 13.3333Z" fill="black"/>
</svg>
