<svg width="42" height="42" viewBox="0 0 42 42" fill="none" xmlns="http://www.w3.org/2000/svg">
<path fill-rule="evenodd" clip-rule="evenodd" d="M13.8006 2.71829C15.3642 1.15467 18.0189 1.71287 18.8204 3.77381L19.9294 6.62548C20.499 8.09034 21.4088 9.39882 22.5835 10.443C23.6958 11.4318 25.0164 12.1575 26.4474 12.5663L33.3759 14.5459C35.6212 15.1874 36.3513 18.0049 34.7001 19.6561L28.1062 26.25L37.8969 36.0406C38.4094 36.5532 38.4094 37.3842 37.8969 37.8968C37.3843 38.4093 36.5533 38.4093 36.0407 37.8968L26.2501 28.1061L19.6562 34.7C18.005 36.3512 15.1875 35.6211 14.546 33.3758L12.5665 26.4473C12.1576 25.0163 11.4319 23.6957 10.4432 22.5834C9.39894 21.4086 8.09046 20.4989 6.6256 19.9293L3.77393 18.8203C1.71299 18.0188 1.15479 15.3641 2.71841 13.8005L13.8006 2.71829ZM25.3309 25.313C25.3279 25.3159 25.3249 25.3189 25.322 25.3218C25.319 25.3248 25.3161 25.3278 25.3131 25.3308L17.8001 32.8438C17.5642 33.0797 17.1617 32.9754 17.07 32.6547L15.0905 25.7262C14.5734 23.9164 13.6556 22.2462 12.4051 20.8394C11.0845 19.3537 9.42964 18.2032 7.57702 17.4827L4.72535 16.3738C4.43093 16.2593 4.35119 15.88 4.57456 15.6566L15.6568 4.57444C15.8801 4.35107 16.2594 4.43081 16.3739 4.72523L17.4829 7.5769C18.2033 9.42952 19.3538 11.0844 20.8395 12.405C22.2463 13.6554 23.9165 14.5732 25.7263 15.0903L32.6548 17.0699C32.9756 17.1615 33.0798 17.5641 32.844 17.7999L25.3309 25.313Z" fill="black"/>
</svg>
