<svg width="41" height="41" viewBox="0 0 41 41" fill="none" xmlns="http://www.w3.org/2000/svg">
<g clip-path="url(#clip0_347:27339)">
<path fill-rule="evenodd" clip-rule="evenodd" d="M13.3026 3.15324C13.3026 1.54324 14.6092 0.236572 16.2192 0.236572H25.3859C26.9959 0.236572 28.3026 1.54324 28.3026 3.15324V6.90324H36.2192C37.8292 6.90324 39.1359 8.20991 39.1359 9.81991V33.9866C39.1359 34.7601 38.8286 35.502 38.2816 36.049C37.7346 36.5959 36.9928 36.9032 36.2192 36.9032H5.3859C4.61236 36.9032 3.87049 36.5959 3.32351 36.049C2.77653 35.502 2.46924 34.7601 2.46924 33.9866V9.81991C2.46924 8.20991 3.7759 6.90324 5.3859 6.90324H13.3026V3.15324ZM4.96924 20.2199V33.9866C4.96924 34.2166 5.1559 34.4032 5.3859 34.4032H36.2192C36.3297 34.4032 36.4357 34.3593 36.5139 34.2812C36.592 34.2031 36.6359 34.0971 36.6359 33.9866V20.2199C35.3572 21.3087 33.732 21.9055 32.0526 21.9032H9.55257C7.87313 21.9055 6.24796 21.3087 4.96924 20.2199V20.2199ZM36.6359 14.8199C36.6359 16.0355 36.153 17.2013 35.2935 18.0608C34.4339 18.9204 33.2681 19.4032 32.0526 19.4032H9.55257C8.337 19.4032 7.17121 18.9204 6.31167 18.0608C5.45212 17.2013 4.96924 16.0355 4.96924 14.8199V9.81991C4.96924 9.7094 5.01314 9.60342 5.09128 9.52528C5.16942 9.44714 5.2754 9.40324 5.3859 9.40324H36.2192C36.3297 9.40324 36.4357 9.44714 36.5139 9.52528C36.592 9.60342 36.6359 9.7094 36.6359 9.81991V14.8199ZM25.8026 3.15324V6.90324H15.8026V3.15324C15.8026 3.04273 15.8465 2.93675 15.9246 2.85861C16.0027 2.78047 16.1087 2.73657 16.2192 2.73657H25.3859C25.4964 2.73657 25.6024 2.78047 25.6805 2.85861C25.7587 2.93675 25.8026 3.04273 25.8026 3.15324Z" fill="black"/>
</g>
<defs>
<clipPath id="clip0_347:27339">
<rect width="40" height="40" fill="white" transform="translate(0.80249 0.236572)"/>
</clipPath>
</defs>
</svg>
