<svg width="41" height="41" viewBox="0 0 41 41" fill="none" xmlns="http://www.w3.org/2000/svg">
<path d="M6.18764 13.7445C8.70494 8.32936 14.1925 4.57782 20.5536 4.57782C27.9643 4.57782 34.1888 9.67026 35.9127 16.5484C36.0805 17.218 36.7594 17.6248 37.4291 17.457C38.0987 17.2891 38.5055 16.6102 38.3377 15.9406C36.3417 7.97681 29.1381 2.07782 20.5536 2.07782C13.7995 2.07782 7.90068 5.72978 4.72021 11.1638V8.32782C4.72021 7.63746 4.16057 7.07782 3.47021 7.07782C2.77986 7.07782 2.22021 7.63746 2.22021 8.32782V14.5778C2.22021 15.4983 2.96641 16.2445 3.88688 16.2445H10.1369C10.8272 16.2445 11.3869 15.6848 11.3869 14.9945C11.3869 14.3041 10.8272 13.7445 10.1369 13.7445H6.18764Z" fill="black"/>
<path d="M5.19448 24.2739C5.02665 23.6043 4.34773 23.1975 3.67809 23.3653C3.00845 23.5332 2.60165 24.2121 2.76949 24.8817C4.7655 32.8455 11.9691 38.7445 20.5536 38.7445C27.3076 38.7445 33.2064 35.0926 36.3869 29.6586V32.4945C36.3869 33.1848 36.9465 33.7445 37.6369 33.7445C38.3272 33.7445 38.8869 33.1848 38.8869 32.4945V26.2445C38.8869 25.324 38.1407 24.5778 37.2202 24.5778H30.9702C30.2799 24.5778 29.7202 25.1375 29.7202 25.8278C29.7202 26.5182 30.2799 27.0778 30.9702 27.0778H34.9195C32.4022 32.4929 26.9146 36.2445 20.5536 36.2445C13.1428 36.2445 6.91839 31.152 5.19448 24.2739Z" fill="black"/>
</svg>
