<svg width="41" height="40" viewBox="0 0 41 40" fill="none" xmlns="http://www.w3.org/2000/svg">
<path fill-rule="evenodd" clip-rule="evenodd" d="M29.603 3.62795C30.742 2.48892 32.5888 2.48893 33.7278 3.62795L38.0374 7.9376C39.1765 9.07663 39.1765 10.9234 38.0374 12.0624L33.3826 16.7172L33.3618 16.7375L15.315 33.964C14.9853 34.2787 14.5864 34.5118 14.1504 34.6445L4.94602 37.4458C4.50438 37.5802 4.02461 37.4603 3.69818 37.1339C3.37175 36.8074 3.25181 36.3277 3.38622 35.886L6.17556 26.7211C6.32164 26.2411 6.58906 25.8069 6.95197 25.4605L24.9585 8.2725L29.603 3.62795ZM25.8117 10.9141L8.67816 27.2689C8.62631 27.3184 8.58811 27.3804 8.56724 27.449L6.46032 34.3717L13.4225 32.2528C13.4848 32.2339 13.5417 32.2006 13.5889 32.1556L30.7102 15.8125L25.8117 10.9141ZM32.4987 14.0656L36.2697 10.2946C36.4324 10.1319 36.4324 9.86808 36.2697 9.70537L31.96 5.39572C31.7973 5.233 31.5335 5.233 31.3708 5.39572L27.5998 9.16666L32.4987 14.0656Z" fill="black"/>
</svg>
