<svg width="40" height="40" viewBox="0 0 40 40" fill="none" xmlns="http://www.w3.org/2000/svg">
<path fill-rule="evenodd" clip-rule="evenodd" d="M19.7504 1.25C11.5016 1.25 6.66663 7.48514 6.66663 14.3337C6.66663 18.5151 8.65424 21.3426 10.4403 23.6142C10.6322 23.8582 10.819 24.0926 11 24.3198C11.6854 25.1796 12.2878 25.9355 12.7685 26.7177C13.3561 27.6736 13.6792 28.5476 13.6792 29.4809V31.4331C13.6792 34.7875 16.3988 37.5 19.7504 37.5C23.1019 37.5 25.8215 34.7875 25.8215 31.4331V29.4809C25.8215 28.5485 26.1446 27.6749 26.7321 26.719C27.2127 25.9372 27.8149 25.1815 28.4999 24.322C28.6812 24.0945 28.8683 23.8597 29.0605 23.6152C30.8466 21.3433 32.8341 18.515 32.8341 14.3337C32.8341 7.48514 27.9991 1.25 19.7504 1.25ZM9.16663 14.3337C9.16663 8.6906 13.0513 3.75 19.7504 3.75C26.4495 3.75 30.3341 8.6906 30.3341 14.3337C30.3341 17.6264 28.8153 19.8819 27.0951 22.0702C26.9316 22.2782 26.7636 22.4887 26.5939 22.7014C25.8972 23.5746 25.1709 24.4848 24.6023 25.4098C24.2039 26.058 23.8577 26.7504 23.626 27.5H15.875C15.6433 26.7499 15.297 26.0571 14.8984 25.4086C14.3296 24.4831 13.6031 23.5726 12.906 22.6992C12.7366 22.4869 12.5688 22.2766 12.4056 22.069C10.6853 19.8811 9.16663 17.6263 9.16663 14.3337ZM16.1792 30V31.4331C16.1792 33.4039 17.7766 35 19.7504 35C21.7241 35 23.3215 33.4039 23.3215 31.4331V30H16.1792Z" fill="black"/>
</svg>
