<svg width="40" height="40" viewBox="0 0 40 40" fill="none" xmlns="http://www.w3.org/2000/svg">
<path d="M5.83325 6.24992C5.83325 6.0198 6.0198 5.83325 6.24992 5.83325H28.7499C28.98 5.83325 29.1666 6.0198 29.1666 6.24992V22.9166C29.1666 23.6069 29.7262 24.1666 30.4166 24.1666C31.1069 24.1666 31.6666 23.6069 31.6666 22.9166V6.24992C31.6666 4.63909 30.3608 3.33325 28.7499 3.33325H6.24992C4.63909 3.33325 3.33325 4.63909 3.33325 6.24992V33.7499C3.33325 35.3607 4.63909 36.6666 6.24992 36.6666H17.9166C18.6069 36.6666 19.1666 36.1069 19.1666 35.4166C19.1666 34.7262 18.6069 34.1666 17.9166 34.1666H6.24992C6.0198 34.1666 5.83325 33.98 5.83325 33.7499V6.24992Z" fill="black"/>
<path d="M10.4166 11.6666C9.72623 11.6666 9.16659 12.2262 9.16659 12.9166C9.16659 13.6069 9.72623 14.1666 10.4166 14.1666H24.5833C25.2736 14.1666 25.8333 13.6069 25.8333 12.9166C25.8333 12.2262 25.2736 11.6666 24.5833 11.6666H10.4166Z" fill="black"/>
<path d="M9.16659 19.5833C9.16659 18.8929 9.72623 18.3333 10.4166 18.3333H17.9166C18.6069 18.3333 19.1666 18.8929 19.1666 19.5833C19.1666 20.2736 18.6069 20.8333 17.9166 20.8333H10.4166C9.72623 20.8333 9.16659 20.2736 9.16659 19.5833Z" fill="black"/>
<path d="M36.3005 27.1338C36.7886 26.6456 36.7886 25.8542 36.3005 25.366C35.8123 24.8779 35.0209 24.8779 34.5327 25.366L26.2499 33.6488L22.9671 30.366C22.479 29.8779 21.6875 29.8779 21.1994 30.366C20.7112 30.8542 20.7112 31.6456 21.1994 32.1338L25.366 36.3005C25.8542 36.7886 26.6456 36.7886 27.1338 36.3005L36.3005 27.1338Z" fill="black"/>
</svg>
