<svg width="41" height="41" viewBox="0 0 41 41" fill="none" xmlns="http://www.w3.org/2000/svg">
<path d="M8.39095 4.88187C7.93071 4.88187 7.55762 5.25496 7.55762 5.7152V35.7152C7.55762 36.1754 7.93071 36.5485 8.39095 36.5485H11.3076C11.998 36.5485 12.5576 37.1082 12.5576 37.7985C12.5576 38.4889 11.998 39.0485 11.3076 39.0485H8.39095C6.55 39.0485 5.05762 37.5561 5.05762 35.7152V5.7152C5.05762 3.87425 6.55 2.38187 8.39095 2.38187H25.028C25.9121 2.38187 26.7599 2.73306 27.385 3.35818L34.0813 10.0545C34.7064 10.6796 35.0576 11.5274 35.0576 12.4115V35.7152C35.0576 37.5561 33.5652 39.0485 31.7243 39.0485H27.1409C26.4506 39.0485 25.891 38.4889 25.891 37.7985C25.891 37.1082 26.4506 36.5485 27.1409 36.5485H31.7243C32.1845 36.5485 32.5576 36.1754 32.5576 35.7152V12.4115C32.5576 12.1905 32.4698 11.9785 32.3135 11.8222L25.6173 5.12594C25.461 4.96966 25.249 4.88187 25.028 4.88187H8.39095Z" fill="black"/>
<path d="M19.2243 26.9652C19.2243 26.2748 19.7839 25.7152 20.4743 25.7152H22.141C22.8313 25.7152 23.391 26.2748 23.391 26.9652C23.391 27.6556 22.8313 28.2152 22.141 28.2152H20.4743C19.7839 28.2152 19.2243 27.6556 19.2243 26.9652Z" fill="black"/>
<path d="M20.4743 20.7152C19.7839 20.7152 19.2243 21.2748 19.2243 21.9652C19.2243 22.6556 19.7839 23.2152 20.4743 23.2152H22.141C22.8313 23.2152 23.391 22.6556 23.391 21.9652C23.391 21.2748 22.8313 20.7152 22.141 20.7152H20.4743Z" fill="black"/>
<path d="M19.2243 16.9652C19.2243 16.2748 19.7839 15.7152 20.4743 15.7152H22.141C22.8313 15.7152 23.391 16.2748 23.391 16.9652C23.391 17.6556 22.8313 18.2152 22.141 18.2152H20.4743C19.7839 18.2152 19.2243 17.6556 19.2243 16.9652Z" fill="black"/>
<path d="M20.4743 10.7152C19.7839 10.7152 19.2243 11.2748 19.2243 11.9652C19.2243 12.6556 19.7839 13.2152 20.4743 13.2152H22.141C22.8313 13.2152 23.391 12.6556 23.391 11.9652C23.391 11.2748 22.8313 10.7152 22.141 10.7152H20.4743Z" fill="black"/>
<path d="M19.2243 6.9652C19.2243 6.27484 19.7839 5.7152 20.4743 5.7152H22.141C22.8313 5.7152 23.391 6.27484 23.391 6.9652C23.391 7.65556 22.8313 8.2152 22.141 8.2152H20.4743C19.7839 8.2152 19.2243 7.65556 19.2243 6.9652Z" fill="black"/>
<path d="M16.3076 23.2152C15.6173 23.2152 15.0576 23.7748 15.0576 24.4652C15.0576 25.1556 15.6173 25.7152 16.3076 25.7152H17.9743C18.6646 25.7152 19.2243 25.1556 19.2243 24.4652C19.2243 23.7748 18.6646 23.2152 17.9743 23.2152H16.3076Z" fill="black"/>
<path d="M15.0576 19.4652C15.0576 18.7748 15.6173 18.2152 16.3076 18.2152H17.9743C18.6646 18.2152 19.2243 18.7748 19.2243 19.4652C19.2243 20.1556 18.6646 20.7152 17.9743 20.7152H16.3076C15.6173 20.7152 15.0576 20.1556 15.0576 19.4652Z" fill="black"/>
<path d="M16.3076 13.2152C15.6173 13.2152 15.0576 13.7748 15.0576 14.4652C15.0576 15.1556 15.6173 15.7152 16.3076 15.7152H17.9743C18.6646 15.7152 19.2243 15.1556 19.2243 14.4652C19.2243 13.7748 18.6646 13.2152 17.9743 13.2152H16.3076Z" fill="black"/>
<path d="M15.0576 9.4652C15.0576 8.77484 15.6173 8.2152 16.3076 8.2152H17.9743C18.6646 8.2152 19.2243 8.77484 19.2243 9.4652C19.2243 10.1556 18.6646 10.7152 17.9743 10.7152H16.3076C15.6173 10.7152 15.0576 10.1556 15.0576 9.4652Z" fill="black"/>
<path fill-rule="evenodd" clip-rule="evenodd" d="M18.391 29.0485C16.55 29.0485 15.0576 30.5409 15.0576 32.3819V39.4652C15.0576 40.1556 15.6173 40.7152 16.3076 40.7152H22.141C22.8313 40.7152 23.391 40.1556 23.391 39.4652V32.3819C23.391 30.5409 21.8986 29.0485 20.0576 29.0485H18.391ZM17.5576 32.3819C17.5576 31.9216 17.9307 31.5485 18.391 31.5485H20.0576C20.5179 31.5485 20.891 31.9216 20.891 32.3819V38.2152H17.5576V32.3819Z" fill="black"/>
</svg>
