<svg width="40" height="41" viewBox="0 0 40 41" fill="none" xmlns="http://www.w3.org/2000/svg">
<path fill-rule="evenodd" clip-rule="evenodd" d="M3.74992 6.83539C3.5198 6.83539 3.33325 7.02194 3.33325 7.25205V33.0854C3.33325 33.3155 3.5198 33.5021 3.74992 33.5021H9.04663L23.3326 18.4642C24.4622 17.2751 26.3499 17.2509 27.5096 18.4106L36.6666 27.5676V7.25205C36.6666 7.02194 36.48 6.83539 36.2499 6.83539H3.74992ZM9.57541 36.0021H9.5907H36.2499C37.8608 36.0021 39.1666 34.6962 39.1666 33.0854V30.5889V30.5819V7.25205C39.1666 5.64122 37.8608 4.33539 36.2499 4.33539H3.74992C2.13909 4.33539 0.833252 5.64122 0.833252 7.25205V33.0854C0.833252 34.6962 2.13909 36.0021 3.74992 36.0021H9.57541ZM36.6666 33.0854V31.1032L25.7418 20.1784C25.5761 20.0127 25.3065 20.0162 25.1451 20.1861L12.4949 33.5021H36.2499C36.48 33.5021 36.6666 33.3155 36.6666 33.0854ZM14.9999 15.5854C14.9999 17.1962 13.6941 18.5021 12.0833 18.5021C10.4724 18.5021 9.16659 17.1962 9.16659 15.5854C9.16659 13.9746 10.4724 12.6687 12.0833 12.6687C13.6941 12.6687 14.9999 13.9746 14.9999 15.5854ZM17.4999 15.5854C17.4999 18.5769 15.0748 21.0021 12.0833 21.0021C9.09171 21.0021 6.66659 18.5769 6.66659 15.5854C6.66659 12.5938 9.09171 10.1687 12.0833 10.1687C15.0748 10.1687 17.4999 12.5938 17.4999 15.5854Z" fill="black"/>
</svg>
