<svg width="40" height="40" viewBox="0 0 40 40" fill="none" xmlns="http://www.w3.org/2000/svg">
<path fill-rule="evenodd" clip-rule="evenodd" d="M28.771 3.62795C29.91 2.48892 31.7567 2.48893 32.8958 3.62795L37.2054 7.9376C38.3444 9.07663 38.3444 10.9234 37.2054 12.0624L32.5506 16.7172L32.5298 16.7375L14.483 33.964C14.1533 34.2787 13.7544 34.5118 13.3183 34.6445L4.11398 37.4458C3.67235 37.5802 3.19258 37.4603 2.86615 37.1339C2.53972 36.8074 2.41978 36.3277 2.55419 35.886L5.34353 26.7211C5.48961 26.2411 5.75702 25.8069 6.11994 25.4605L24.1264 8.2725L28.771 3.62795ZM24.9797 10.9141L7.84613 27.2689C7.79428 27.3184 7.75608 27.3804 7.73521 27.449L5.62828 34.3717L12.5904 32.2528C12.6527 32.2339 12.7097 32.2006 12.7568 32.1556L29.8781 15.8125L24.9797 10.9141ZM31.6667 14.0656L35.4376 10.2946C35.6004 10.1319 35.6004 9.86808 35.4376 9.70537L31.128 5.39572C30.9653 5.233 30.7015 5.233 30.5387 5.39572L26.7678 9.16666L31.6667 14.0656Z" fill="black"/>
</svg>
