<svg width="41" height="41" viewBox="0 0 41 41" fill="none" xmlns="http://www.w3.org/2000/svg">
<path fill-rule="evenodd" clip-rule="evenodd" d="M9.54199 14.2445C6.15598 14.2445 3.29199 17.403 3.29199 20.4945C3.29199 23.586 6.15598 26.7445 9.54199 26.7445C11.2366 26.7445 12.8989 25.9836 14.6447 24.6558C16.1291 23.5268 17.5755 22.0662 19.0706 20.4945C17.5755 18.9228 16.1291 17.4622 14.6447 16.3332C12.8989 15.0054 11.2366 14.2445 9.54199 14.2445ZM20.792 18.6766C19.3131 17.1237 17.771 15.5701 16.1581 14.3433C14.2059 12.8586 12.014 11.7445 9.54199 11.7445C4.6963 11.7445 0.791992 16.1026 0.791992 20.4945C0.791992 24.8864 4.6963 29.2445 9.54199 29.2445C12.014 29.2445 14.2059 28.1304 16.1581 26.6457C17.771 25.419 19.3131 23.8654 20.792 22.3125C22.2709 23.8654 23.813 25.419 25.4259 26.6457C27.3781 28.1304 29.57 29.2445 32.042 29.2445C36.8877 29.2445 40.792 24.8864 40.792 20.4945C40.792 16.1026 36.8877 11.7445 32.042 11.7445C29.57 11.7445 27.3781 12.8586 25.4259 14.3433C23.813 15.5701 22.2709 17.1237 20.792 18.6766ZM22.5134 20.4945C24.0085 22.0662 25.4548 23.5268 26.9393 24.6558C28.6851 25.9836 30.3474 26.7445 32.042 26.7445C35.428 26.7445 38.292 23.586 38.292 20.4945C38.292 17.403 35.428 14.2445 32.042 14.2445C30.3474 14.2445 28.6851 15.0054 26.9393 16.3332C25.4548 17.4622 24.0085 18.9228 22.5134 20.4945Z" fill="black"/>
</svg>
