<svg width="41" height="41" viewBox="0 0 41 41" fill="none" xmlns="http://www.w3.org/2000/svg">
<path fill-rule="evenodd" clip-rule="evenodd" d="M16.3403 2.30408C8.74642 2.30408 2.59033 8.46016 2.59033 16.0541C2.59033 23.648 8.74642 29.8041 16.3403 29.8041C19.6872 29.8041 22.7548 28.6083 25.1392 26.6207L34.6231 36.1046C35.1113 36.5928 35.9027 36.5928 36.3909 36.1046C36.879 35.6165 36.879 34.825 36.3909 34.3369L26.9069 24.8529C28.8945 22.4685 30.0903 19.4009 30.0903 16.0541C30.0903 8.46016 23.9342 2.30408 16.3403 2.30408ZM5.09033 16.0541C5.09033 9.84087 10.1271 4.80408 16.3403 4.80408C22.5535 4.80408 27.5903 9.84087 27.5903 16.0541C27.5903 22.2673 22.5535 27.3041 16.3403 27.3041C10.1271 27.3041 5.09033 22.2673 5.09033 16.0541Z" fill="black"/>
</svg>
