<svg width="40" height="40" viewBox="0 0 40 40" fill="none" xmlns="http://www.w3.org/2000/svg">
<path d="M5.63417 13.3332C8.15147 7.91804 13.6391 4.1665 20.0001 4.1665C27.4108 4.1665 33.6353 9.25894 35.3592 16.1371C35.527 16.8067 36.206 17.2135 36.8756 17.0457C37.5452 16.8778 37.952 16.1989 37.7842 15.5293C35.7882 7.56549 28.5846 1.6665 20.0001 1.6665C13.246 1.6665 7.34722 5.31846 4.16675 10.7525V7.9165C4.16675 7.22615 3.6071 6.6665 2.91675 6.6665C2.22639 6.6665 1.66675 7.22615 1.66675 7.9165V14.1665C1.66675 15.087 2.41294 15.8332 3.33341 15.8332H9.58342C10.2738 15.8332 10.8334 15.2735 10.8334 14.5832C10.8334 13.8928 10.2738 13.3332 9.58342 13.3332H5.63417Z" fill="black"/>
<path d="M4.64102 23.8626C4.47318 23.193 3.79427 22.7862 3.12462 22.954C2.45498 23.1218 2.04819 23.8008 2.21602 24.4704C4.21203 32.4342 11.4156 38.3332 20.0001 38.3332C26.7542 38.3332 32.6529 34.6813 35.8334 29.2473V32.0832C35.8334 32.7735 36.3931 33.3332 37.0834 33.3332C37.7738 33.3332 38.3334 32.7735 38.3334 32.0832V25.8332C38.3334 24.9127 37.5872 24.1665 36.6667 24.1665H30.4167C29.7264 24.1665 29.1667 24.7261 29.1667 25.4165C29.1667 26.1069 29.7264 26.6665 30.4167 26.6665H34.3661C31.8488 32.0816 26.3612 35.8332 20.0001 35.8332C12.5894 35.8332 6.36492 30.7407 4.64102 23.8626Z" fill="black"/>
</svg>
