<svg width="554" height="228" viewBox="0 0 554 228" fill="none" xmlns="http://www.w3.org/2000/svg">
<ellipse cx="276.902" cy="208.183" rx="276.841" ry="19.6955" fill="#C4C4C4"/>
<path d="M395.995 177.812L397.099 147.072L414.034 145.968L444.221 145.416L446.614 149.465L450.48 177.812L442.013 209.472L436.122 212.969L423.974 210.761L423.421 206.895L419.74 203.766L398.204 192.906L395.995 177.812Z" fill="white"/>
<path d="M130.934 159.773L114.92 216.099L130.934 212.785L215.606 210.392H289.786L277.822 198.06L259.967 185.727L311.691 126.272L313.715 131.979L319.974 152.042L338.013 170.081L361.574 188.856L367.096 211.313L425.814 210.392L423.237 205.975L415.322 201.005L379.428 188.856L369.12 167.136L335.252 115.412L326.048 101.975H318.317L290.891 112.467L289.786 109.154L305.064 73.8124V68.4744L282.976 58.3506L276.717 76.2054L270.459 87.0655L256.654 86.1451L251.5 87.0655L261.255 101.975L264.753 105.657L259.967 113.572L241.56 121.487L238.063 119.462L232.172 121.487L208.795 126.456L206.587 122.775V111.547L202.905 100.503L196.463 89.6425L190.02 59.2709L209.9 60.9275L215.422 51.9081L219.656 50.8037L220.576 44.3612L222.049 34.7896L225.178 19.1436L185.235 17.3029L174.927 27.2427L185.235 56.6939L148.789 66.2656V120.566H146.396L139.401 130.874L130.934 159.773Z" fill="white"/>
<path d="M304.696 206.343L302.487 193.09L305.616 192.353L323.103 191.065L328.257 192.353L326.6 203.95L321.446 210.024L312.979 211.681L304.696 206.343Z" fill="white"/>
<path d="M395.627 140.998L398.204 146.52L440.356 143.759L442.933 129.586L444.038 120.382L445.326 90.0105L450.664 68.6583L458.027 44.5452L447.535 54.669L443.302 66.0813L432.257 121.118L428.76 125.352L425.079 90.0105L423.79 63.8725V38.2868L419.372 46.5699L416.796 55.2212L414.034 72.7079V107.129L412.746 115.412L400.781 63.1362L395.627 46.5699L394.339 52.8283L393.603 80.991L395.627 104L399.677 122.039L398.204 127.193L390.473 117.621L373.171 98.6617L361.206 87.2494L365.992 104L375.012 121.118L395.627 140.998Z" fill="#D7F3E6" stroke="#D7F3E6" stroke-width="1.03834"/>
<path fill-rule="evenodd" clip-rule="evenodd" d="M374.219 177.031C372.526 178.989 370.026 180.442 368.107 182.233C366.093 184.113 363.907 185.756 361.9 187.614C353.05 176.796 340.925 170.163 330.422 161.187C325.442 156.931 321.774 151.158 319.089 145.234C317.713 142.197 316.696 139.071 315.9 135.836C315.542 134.378 315.191 132.926 314.957 131.449C314.673 129.66 314.6 129.507 313.393 128.111C312.873 127.51 311.867 125.755 310.849 125.948C309.993 126.111 308.427 128.718 307.885 129.362C305.283 132.459 302.759 135.65 300.019 138.627C295.827 143.183 292.01 147.665 288.118 152.494C280.155 162.372 271.566 171.671 262.899 180.966C262.256 181.655 260.757 183.676 259.833 183.948C258.71 184.278 256.886 182.901 255.755 182.131C253.025 180.273 250.874 177.972 248.54 175.669C243.986 171.174 240.903 164.865 238.829 158.862C237.587 155.269 236.779 151.544 235.498 147.963C234.964 146.47 233.753 144.636 234.368 143.336C234.551 142.949 235.716 141.919 236.126 141.84C236.612 141.747 237.422 142.413 237.591 142.367C239.203 141.926 238.308 140.239 239.267 139.331C239.811 138.816 242.575 138.891 243.4 138.608C246.418 137.573 249.125 135.599 251.978 134.42C263.92 129.486 276.009 124.686 286.319 116.629C288.992 114.54 290.769 112.97 293.959 111.619C297.184 110.255 300.425 109.037 303.714 107.846C306.617 106.796 309.535 105.811 312.534 105.058C315.776 104.243 320.375 103.211 323.615 104.26C329.976 106.319 332.031 111.561 334.564 117.091C337.992 124.572 342.136 131.651 346.629 138.538C355.272 151.786 365.784 163.675 374.219 177.031Z" fill="#FF8179"/>
<path fill-rule="evenodd" clip-rule="evenodd" d="M284.163 98.5076C285.691 100.088 287.949 101.349 289.204 103.126C289.55 103.615 290.357 104.729 289.065 104.615C288.446 104.561 287.144 102.799 286.597 102.404C283.256 99.9884 279.772 96.9651 277.048 93.8523C275.772 92.3953 274.577 90.8457 273.353 89.3428C272.131 87.841 272.585 87.1724 274.232 88.6171C275.942 90.1176 277.428 91.9008 278.955 93.5821C280.561 95.3494 282.445 96.8487 284.163 98.5076Z" fill="#333333"/>
<path d="M264.569 102.711L270.643 102.159L270.459 102.895L269.171 104.552L268.434 105.472L266.962 106.761L262.912 105.288L262.728 104.736L264.569 102.711Z" fill="#333333"/>
<path fill-rule="evenodd" clip-rule="evenodd" d="M184.778 60.5026C184.434 60.3281 181.75 61.4208 181.299 61.5879C179.499 62.2557 177.804 63.3653 176.108 64.268C177.408 65.8495 178.708 67.4314 180.007 69.0133C181.281 65.8889 182.918 63.3108 184.778 60.5026ZM185.664 79.9422C185.222 79.9919 188.955 88.9624 189.391 89.9697C190.977 93.633 192.642 97.2607 194.25 100.915C195.807 104.456 197.782 107.714 199.773 111.022C201.475 113.851 203.226 118.241 205.794 120.337C204.172 113.144 204.386 104.874 199.735 98.8345C194.915 92.5735 190.149 86.4598 185.664 79.9422ZM372.957 175.865C365.753 164.458 356.736 154.367 349.225 143.164C345.019 136.891 340.925 130.537 337.384 123.86C334.809 119.003 333.209 112.072 329.231 108.359C327.479 106.723 325.606 105.122 323.254 104.389C320.035 103.386 315.603 104.38 312.37 105.173C306.345 106.65 300.459 108.944 294.751 111.354C288.962 113.798 284.023 118.187 278.793 121.714C273.182 125.498 267.108 128.254 260.822 130.667C255.349 132.768 250.479 135.784 245.035 137.899C243.95 138.32 241.736 138.258 240.826 138.808C239.845 139.399 240.231 141.147 239.041 141.791C238.504 142.082 238.325 141.028 237.912 141.045C237.408 141.066 236.948 141.658 236.462 142.033C234.483 143.559 235.696 144.577 236.479 146.678C239.033 153.522 240.405 160.486 243.991 166.948C246.939 172.259 251.158 177.018 256.126 180.534C256.882 181.07 259.345 183.143 260.232 183.005C261.03 182.881 262.655 180.759 263.206 180.182C265.708 177.566 267.994 174.752 270.495 172.132C274.358 168.083 278.077 163.925 281.826 159.821C286.178 155.056 290.03 149.657 293.95 144.566C295.753 142.224 298.074 140.316 300.078 138.144C302.773 135.224 305.248 132.085 307.805 129.044C308.578 128.124 309.874 125.769 311.076 125.797C311.918 125.817 313.403 127.8 313.844 128.421C315.481 130.731 315.474 134.903 316.288 137.787C318.275 144.818 321.859 151.686 326.773 157.112C331.66 162.508 337.919 166.345 343.699 170.682C349.961 175.381 355.892 180.189 360.858 186.259C362.828 184.434 364.976 182.82 366.954 180.974C368.839 179.215 371.294 177.788 372.957 175.865ZM280.234 208.136C281.634 208.15 284.006 209.012 285.258 208.493C281.542 204.381 278.13 200.853 273.428 197.84C268.549 194.713 263.687 191.614 258.948 188.279C249.398 181.557 242.374 173.586 238.385 162.392C237.358 159.51 236.669 156.487 235.917 153.524C235.512 151.928 234.705 144.462 233.336 143.817C232.525 143.435 226.422 147.725 225.454 148.259C223.193 149.51 220.924 150.48 218.586 151.458C213.561 153.562 208.381 155.167 203.053 156.507C196.664 158.113 192.313 155.455 188.355 150.434C183.866 144.737 180.135 138.31 176.029 132.328C174.163 129.607 172.616 126.89 171.237 123.889C170.335 121.926 166.756 116.628 167.993 114.536C171.521 117.222 172.79 122.562 175.193 126.159C178.189 130.641 181.564 134.867 184.575 139.345C187.106 143.11 189.689 147.673 193.43 150.38C196.72 152.761 199.845 152.029 203.386 150.959C207.677 149.662 212.126 149.023 216.331 147.415C220.882 145.674 225.189 143.206 229.629 141.193C231.699 140.254 234.178 139.72 236.129 138.55C237.81 137.542 237.559 137.01 237.683 134.863C237.827 132.359 237.993 129.852 238.104 127.346C238.178 125.662 237.267 123.378 237.885 122.121C232.844 122.995 227.917 124.165 222.911 125.201C220.17 125.768 217.527 126.469 214.758 126.914C213.703 127.084 212.26 127.079 211.315 127.539C210.561 127.323 210.177 127.46 210.162 127.952C210.126 128.219 210.069 128.482 209.991 128.741C208.445 129.444 207.546 127.936 206.205 126.489C204.551 124.703 203.312 122.693 202.098 120.594C199.384 115.904 196.256 111.492 193.745 106.669C191.185 101.752 189.106 96.4883 186.936 91.3874C184.945 86.7076 183.67 81.6464 181.47 77.0774C180.488 75.0379 179.244 73.3514 177.791 71.6286C176.592 70.2068 174.747 67.1398 172.957 66.4867C172.483 66.3141 171.243 66.6042 170.705 66.5659C169.633 66.4893 168.678 66.0958 167.581 66.1819C165.206 66.3678 162.616 67.8698 160.718 69.1904C161.945 70.2837 165.013 71.6127 162.809 73.5823C160.67 75.4944 159.489 72.0644 158.673 70.5617C154.829 73.7177 155.385 78.0695 154.941 82.5288C154.709 84.8569 154.099 87.1497 153.705 89.4428C153.422 91.0932 153.621 92.8003 153.54 94.4853C153.333 98.7671 152.903 102.866 152.924 107.087C152.946 111.6 153.253 115.958 153.614 120.438C154.222 127.98 155.615 135.526 156.809 143.008C157.481 147.214 158.401 151.3 159.293 155.438C160.307 160.135 162.181 164.583 163.232 169.267C164.303 167.906 165.108 167.899 166.84 168.079C168.173 168.218 169.068 167.901 168.989 169.75C168.939 170.95 167.881 171.866 166.71 172.075C165.184 172.348 164.665 171.586 163.878 170.43C163.694 172.62 165.167 174.909 165.749 177.048C166.3 179.074 166.665 181.061 167.592 183C168.495 184.893 169.269 186.759 170.184 188.633C170.605 189.496 170.999 190.371 171.425 191.231C171.64 191.667 171.894 192.267 172.215 192.634C172.969 193.494 172.849 193.078 173.731 193.568C175.654 194.636 174.932 194.369 174.977 196.575C175.021 198.75 176.136 200.348 177.925 201.571C181.72 204.165 185.463 204.887 189.778 206.198C193.798 207.419 198.032 208.467 202.289 208.443C207.503 208.414 212.647 207.731 217.861 207.661C223.613 207.585 229.42 207.617 235.16 207.815C237.524 207.897 239.72 208.002 242.003 208.606C244.654 209.308 247.218 209.029 249.951 208.923C255.78 208.696 261.81 208.245 267.563 208.205C271.705 208.175 276.076 207.886 280.234 208.136ZM431.388 210.396C432.424 210.943 434.747 210.718 435.789 210.566C437.624 210.299 437.82 209.571 438.985 207.935C440.989 205.117 442.616 202.418 443.795 199.154C446.052 192.906 446.974 186.514 447.964 179.979C449.065 172.717 447.055 165.19 446.335 157.977C446.17 156.322 445.944 154.682 445.682 153.04C445.526 152.058 445.485 148.718 444.839 147.868C443.598 146.235 437.825 147.552 435.556 147.7C429.221 148.114 422.844 148.211 416.512 148.283C413.136 148.321 409.741 148.462 406.398 148.488C404.863 148.501 403.362 148.424 401.822 148.275C401.306 148.225 400.803 148.107 400.284 148.078C398.506 147.98 398.64 147.722 398.181 149.296C397.376 152.053 397.995 155.561 397.784 158.423C397.501 162.247 397.348 166.126 397.418 169.958C397.483 173.5 397.362 177.033 397.494 180.582C397.55 182.052 397.71 183.25 398.098 184.654C398.536 186.241 399.019 189.949 400.11 191.047C400.234 191.172 401.163 190.881 401.409 191.192C401.788 191.672 401.719 192.687 401.979 192.997C402.823 194.001 404.566 194.08 405.831 194.531C409.3 195.768 412.483 197.112 415.753 198.78C418.675 200.271 423.386 201.539 425.143 204.48C425.949 205.828 426.057 207.606 426.798 208.997C427.641 210.581 425.954 209.753 428.02 210.396C428.951 210.685 430.434 210.396 431.388 210.396ZM123.345 192.475C123.082 196.134 121.02 199.619 120.303 203.217C119.967 204.902 119.398 206.557 119.003 208.232C118.625 209.839 117.257 211.741 117.396 213.331C122.442 211.533 127.554 211.081 132.828 210.596C137.827 210.136 143.108 209.953 148.065 209.951C153.116 209.948 158.517 209.455 163.718 209.378C169.158 209.299 174.679 209.158 180.04 208.594C177.237 206.518 173.729 204.568 171.66 201.68C169.41 198.54 168.241 194.606 166.261 191.292C162.288 184.644 159.762 176.393 157.68 168.923C153.475 153.843 148.777 139.042 147.644 123.4C145.489 124.504 143.778 128.786 142.699 130.918C141.322 133.641 140.601 136.592 139.706 139.485C137.862 145.445 136.586 151.625 134.329 157.528C130.014 168.812 127.241 180.971 123.345 192.475ZM397.282 104.587C398.215 111.331 400.172 118.163 400.247 124.988C400.264 126.49 400.01 128.158 400.322 129.638C400.657 131.219 401.744 132.616 402.372 134.119C403.368 136.504 405.891 141.392 403.458 143.413C403.408 141.495 401.653 139.06 400.769 137.383C399.437 134.856 397.687 132.546 396.242 130.082C393.219 124.925 389.832 119.878 385.936 115.332C382.141 110.903 377.767 106.974 373.743 102.757C372.534 101.49 362.835 89.2949 362.45 89.4653C365.458 101.067 370.572 111.161 377.571 120.875C381.002 125.637 385.121 128.771 389.298 132.805C392.777 136.164 399.333 139.757 398.13 145.261C403.568 144.739 408.97 143.903 414.457 143.903C413.555 136.958 412.864 130.123 411.253 123.293C409.424 115.536 408.185 107.548 406.638 99.7228C405.058 91.7341 402.379 84.0003 400.713 76.0267C399.117 68.3915 397.746 60.7699 396.576 53.0496C395.609 57.3274 395.966 62.026 395.623 66.3906C395.272 70.8499 395.306 75.2271 395.423 79.7125C395.639 88.0439 396.527 96.2748 397.282 104.587ZM420.845 64.8651C420.876 61.2989 421.567 57.781 421.78 54.2233C421.845 53.1317 422.933 45.6846 421.919 45.2959C421.085 47.1137 420.89 49.44 420.133 51.3473C419.377 53.2528 418.365 55.0681 417.639 56.9869C416.066 61.1435 415.523 65.8469 415.354 70.2661C414.971 80.2618 414.773 90.2351 415.445 100.231C415.732 104.515 415.953 108.807 415.875 113.1C415.788 117.824 415.065 121.923 415.943 126.608C416.813 131.248 417.359 135.868 417.649 140.575C417.852 143.879 417.934 143.645 421.086 143.413C423.361 143.245 425.659 143.424 427.938 143.32C426.872 130.444 426.698 117.541 424.996 104.714C424.128 98.1707 424.105 91.5324 423.026 85.013C422.49 81.7745 421.591 78.6011 421.074 75.3589C420.519 71.8778 420.792 68.3731 420.845 64.8651ZM190.35 56.7619C196.418 57.2876 202.872 59.1018 209.092 57.9039C208.067 57.4887 205.384 56.9158 206.591 55.2769C207.819 53.6103 209.888 55.7242 211.112 55.5059C211.867 55.3711 213.536 52.215 214.001 51.5616C215.057 50.0765 215.185 49.8177 217.084 49.4371C218.924 49.0689 219.341 49.4676 219.574 47.6383C219.842 45.5348 219.114 43.1698 219.186 41.0188C219.341 36.388 220.835 32.327 222.225 27.9701C216.318 29.2553 210.541 30.7794 204.501 31.6077C201.919 31.9618 197.902 32.7787 195.556 31.0234C194.946 30.5669 195.043 29.9507 194.544 29.4216C193.707 28.5341 192.154 27.6159 190.967 27.363C183.661 25.8076 182.948 36.2234 186.609 40.1209C187.526 41.0976 188.802 41.5798 189.742 42.4748C190.995 43.6683 191.098 44.9255 191.281 46.7474C191.624 50.1638 191.158 53.5934 189.7 56.7185L190.35 56.7619ZM279.014 105.934C281.171 106.344 283.423 106.25 285.585 106.6C286.353 106.724 288.657 107.157 289.332 106.708C290.364 106.022 290.73 103.506 291.218 102.335C292.076 100.274 293.29 98.477 294.108 96.379C297.45 87.8094 300.568 79.2056 304.61 70.9287C302.34 69.8303 301.14 69.7061 299.579 69.4981C297.952 69.2813 297.818 68.403 296.265 67.9896C294.79 67.5968 293.861 66.7898 292.4 66.333C291.595 66.0815 288.776 63.7674 287.982 63.5719C286.717 63.2608 283.765 60.9007 283.012 61.7312C282.241 62.5831 280.082 70.5038 279.663 71.6041C278.545 74.5356 273.788 83.8831 272.852 86.8819C271.916 89.8808 259.047 86.5138 253.709 87.4342C255.55 91.6678 260.481 102.001 265.635 101.633C268.782 103.139 273.513 100.695 273.406 102.929C273.302 105.109 272.984 105.248 275.164 105.596C276.264 105.772 277.979 106.426 279.014 105.934ZM420.929 207.952C421.491 208.214 422.02 208.179 422.517 207.847C417.647 205.79 412.909 202.937 407.828 201.526C403.062 200.202 398.429 198.621 393.837 196.991C390.106 195.666 386.752 194.635 383.378 192.304C381.331 190.889 379.512 189.298 378.105 187.23C376.538 184.927 376.19 181.651 374.493 179.578C372.204 182.092 369.514 183.997 366.804 185.995C365.867 186.686 363.619 188.193 363.298 189.263C362.894 190.613 363.977 191.905 364.513 193.271C365.886 196.77 366.557 200.267 367.302 203.904C367.6 205.362 368.245 207.554 369.442 208.164C370.533 208.72 373.691 208.316 375.048 208.213C382.127 207.677 389.081 207.127 396.203 207.616C404.262 208.168 412.89 208.55 420.929 207.952ZM435.069 143.118C436.355 143.122 437.612 142.962 438.894 142.962C438.154 139.507 439.884 135.036 440.497 131.587C441.183 127.729 441.706 123.74 442.163 119.852C443.128 111.661 443.565 103.569 443.577 95.3187C443.589 87.3349 445.043 80.0391 447.078 72.3641C449.264 64.1214 452.844 56.7089 455.804 48.7597C452.557 50.476 450.76 54.492 449.054 57.5623C446.898 61.4443 445.461 65.7427 444.581 70.1008C442.882 78.508 441.018 86.9406 439.058 95.3338C437.016 104.073 435.816 112.893 433.478 121.56C432.337 125.787 430.787 130.988 430.701 135.347C430.665 137.15 430.122 140.926 430.939 142.493C431.703 143.958 433.393 143.267 435.069 143.118ZM240.856 132.275C240.788 133.172 240.724 134.026 240.565 134.913C242.347 134.896 244.604 133.046 246.132 132.216C247.995 131.205 249.859 130.09 251.68 129.073C255.196 127.11 259.187 125.817 262.941 124.204C267.253 122.352 271.217 120.114 275.341 117.884C276.782 117.105 287.134 112.617 286.961 111.391C284.688 111.315 282.415 111.24 280.142 111.164C278.193 111.099 275.175 111.54 273.309 110.937C272.287 110.607 271.14 109.392 270.754 108.44C270.372 107.499 271.23 103.167 270.731 102.891C268.187 105.489 266.588 108.941 264.313 111.743C261.8 114.839 258.552 116.648 254.973 118.293C251.02 120.111 246.929 121.518 242.89 123.076C241.186 123.733 241.22 124.108 241.071 125.976C240.905 128.064 240.923 130.182 240.856 132.275ZM446.259 210.821C450.543 211.281 454.935 211.019 459.253 211.377C460.824 211.508 463.002 211.702 461.422 213.811C460.426 215.139 457.237 214.713 455.791 214.805C451.907 215.052 447.796 214.919 443.903 214.862C443.084 214.85 442.178 214.606 441.35 214.661C440.394 214.724 439.249 215.412 438.377 215.407C437.84 215.403 437.648 214.837 437.185 214.785C436.176 214.672 435.167 214.589 434.149 214.589C418.765 214.592 403.592 214.283 388.245 214.267C380.907 214.259 373.451 214.132 366.116 213.788C364.576 213.715 355.804 214.03 356.047 211.257C356.171 209.828 359.034 209.627 360.079 209.475C360.853 209.363 361.657 209.381 362.432 209.339C364.493 209.229 365.396 209.725 364.961 207.47C363.312 198.917 360.358 191.849 354.045 185.699C348.883 180.671 342.667 176.11 336.82 171.911C329.721 166.812 323.962 161.45 319.747 153.648C317.285 149.091 315.225 144.433 313.96 139.396C313.505 137.583 313.495 135.522 312.937 133.775C312.508 132.43 311.53 131.488 310.955 130.095C303.891 141.892 294.53 151.763 285.946 162.4C281.845 167.482 277.166 172.308 272.266 176.729C270.812 178.041 269.455 179.411 268.098 180.823C266.962 182.005 265.16 183.055 264.201 184.366C263.282 185.623 263.508 185.563 264.908 186.562C266.758 187.882 268.797 188.979 270.676 190.266C273.68 192.323 276.959 194.062 279.645 196.538C282.55 199.216 285.088 202.318 287.627 205.337C289.32 207.35 291.54 209.932 291.966 212.477C292.107 213.319 292.642 215.401 291.936 216.018C291.332 216.544 291.393 216.344 290.643 216.023C289.661 215.602 289.372 214.636 288.172 214.175C285.102 212.997 281.387 213.401 278.193 213.387C274.998 213.373 271.776 213.732 268.582 213.718C261.288 213.689 254.15 214.279 246.858 214.596C239.114 214.933 231.275 214.125 223.557 214.239C217.838 214.324 211.967 213.897 206.09 214.214C203.067 214.377 200.099 213.999 197.151 213.957C193.293 213.901 189.33 214.426 185.438 214.501C179.05 214.624 172.74 214.624 166.313 214.777C152.488 215.108 138.739 215.45 124.906 215.669C123.061 215.698 121.041 215.635 119.218 215.843C117.282 216.064 118.281 216.475 116.954 217.172C113.236 219.122 114.095 211.893 114.184 210.471C114.662 202.852 116.596 195.38 118.92 188.147C121.125 181.286 122.916 174.106 124.783 167.098C126.827 159.427 129.491 152.07 131.91 144.474C134.388 136.691 136.406 128.604 140.907 121.705C141.932 120.134 142.992 118.443 144.641 117.452C146.49 116.342 146.569 116.99 146.568 114.958C146.567 113.044 146.685 110.486 146.233 108.659C145.825 107.009 145.888 107.988 144.968 106.802C144.22 105.838 143.438 105.179 142.901 104.008C139.604 107.351 132.057 105.587 128.871 103.18C124.972 100.233 122.002 95.2624 120.914 90.5281C120.04 86.7263 121.112 79.4795 125.32 77.6513C127.372 76.76 134.906 76.0864 135.207 73.1817C135.363 71.6823 132.711 69.574 132.099 68.2847C130.965 65.8962 129.876 62.7192 129.561 60.101C128.946 54.9905 131.266 49.2758 134.962 45.8238C141.741 39.491 153.67 36.2411 162.391 40.259C160.548 33.219 159.435 27.1458 160.364 19.8228C161.163 13.514 164.885 9.98422 170.007 6.84178C178.748 1.4786 190.634 -0.638204 200.627 0.921238C202.898 1.27576 205.078 2.03597 207.181 2.64082C210.236 3.51957 213.893 3.2269 216.777 4.65466C218.868 5.6895 220.457 7.75108 222.293 9.12756C224.438 10.7345 226.219 13.1329 227.709 15.351C230.896 20.0941 229.65 28.897 226.984 33.6582C226.412 34.6794 225.705 35.539 224.759 36.2359C223.774 36.9612 222.273 37.1868 221.765 38.1274C220.465 40.5369 221.719 45.7531 221.892 48.3573C222.094 51.3812 220.566 53.6526 217.137 53.8938C215.153 54.0337 215.09 52.8829 214.14 55.2507C213.524 56.7855 212.965 58.4576 212.077 59.8646C210.245 62.7645 206.891 62.4814 203.835 62.4029C200.298 62.3117 196.814 61.7528 193.275 61.4001C194.21 64.395 196.769 66.7194 198.366 69.3873C200.527 72.9958 201.827 75.987 202.178 80.1911C202.447 83.4212 201.866 85.972 199.656 88.376C198.741 89.3711 197.93 89.42 198.157 90.5679C198.295 91.2681 199.506 92.4233 199.935 92.9822C201.068 94.4606 202.384 95.8176 203.382 97.3965C207.221 103.472 208.355 112.732 208.364 119.804C208.365 120.129 208.538 120.818 208.394 121.154C208.288 121.401 207.483 122.186 207.471 122.253C207.314 123.163 208.2 124.721 209.591 124.876C211.052 125.037 213.728 123.818 215.088 123.417C217.263 122.776 219.48 122.303 221.65 121.644C225.155 120.58 228.644 119.732 232.207 118.899C233.817 118.523 235.436 118.209 237.052 117.857C238.892 117.456 239.746 116.682 240.696 118.554C241.511 120.161 241.004 120.452 242.978 119.642C244.938 118.838 246.852 117.841 248.765 116.933C252.14 115.333 256.158 113.906 259.069 111.543C263.096 100.687 266.962 105.1 264.753 102.891C265.305 102.707 270.37 102.335 270.37 102.335C270.37 102.335 265.673 116.933 250.764 88.7226C247.266 81.9121 269.638 88.2912 270.37 85.0412C271.281 80.9924 274.765 76.4531 276.202 72.5914C276.762 71.0868 278.06 67.317 278.963 65.9648C279.202 65.6063 280.067 63.5719 281.172 59.8905C281.814 58.8719 281.926 59.0913 282.092 57.8657C282.871 52.1393 286.824 57.7324 290.559 59.0455C292.133 59.5988 297.149 61.8819 302.34 63.3879C305.741 64.3748 307.884 64.6232 307.838 69.4981C307.815 71.9959 306.321 74.6679 305.519 77.006C304.807 79.0819 304.118 81.166 303.395 83.2386C301.81 87.7789 299.887 92.1833 298.341 96.7375C297.636 98.8131 297.054 100.937 296.073 102.896C295.207 104.624 293.504 106.644 292.766 108.419C301.831 104.551 310.216 98.96 320.363 99.3164C324.805 99.4721 328.837 101.34 331.291 105.246C334.367 110.142 336.391 115.624 339.398 120.566C350.336 138.542 363.381 154.872 375.388 172.104C376.311 173.428 377.497 174.681 377.817 176.317C378.025 177.385 377.62 178.452 377.871 179.478C378.39 181.61 381.015 184.271 382.794 185.496C386.205 187.844 391.751 191.156 396.007 190.862C393.336 184.442 393.372 177.407 393.496 170.559C393.614 164.053 394.317 157.6 395.152 151.162C395.34 149.705 395.505 148.355 395.924 146.943C396.404 145.323 397.064 145.477 395.625 144.021C393.41 141.779 390.775 139.934 388.543 137.664C383.714 132.755 378.765 128.908 374.964 123.046C371.349 117.47 367.536 111.734 364.861 105.628C362.106 99.3429 361.005 92.6306 359.638 85.9742C359.083 83.2732 357.06 80.2577 357.466 77.4371C357.98 73.8724 359.633 76.4681 360.306 78.3865C362.359 84.2425 367.168 89.4837 371.15 94.1933C375.453 99.281 380.716 103.538 385.207 108.478C390.098 113.858 393.448 120.04 397.797 125.783C397.797 118.656 395.364 111.399 394.368 104.348C393.492 98.1424 393.217 91.9171 392.664 85.6845C391.406 71.5266 392.493 56.9515 394.257 42.8948C395.096 36.219 394.62 29.7003 394.646 23.0017C394.654 20.8698 393.771 15.9562 394.896 14.0643C397.05 10.4407 398.307 18.3642 398.415 19.5456C399.067 26.5829 397.899 33.5419 398.495 40.5491C399.119 47.8666 400.472 54.9787 401.624 62.2115C402.871 70.043 404.902 77.6977 406.847 85.3789C408.889 93.4438 410.606 101.677 412.876 109.677C413.488 107.163 412.629 104.073 412.459 101.512C412.217 97.8467 411.744 94.1808 411.703 90.506C411.638 84.6493 411.592 78.6839 411.923 72.8545C412.25 67.1085 412.151 61.0876 413.913 55.5519C414.75 52.9245 415.976 50.3611 417.177 47.8861C418.657 44.8342 419.181 41.8751 420.001 38.6292C420.703 35.8494 421.731 33.1428 422.199 30.3074C422.49 28.544 423.301 23.3385 425.32 27.2824C426.492 29.5715 425.986 32.965 426.019 35.4242C426.061 38.5769 425.578 41.6424 425.504 44.7819C425.36 50.9416 425.257 57.094 424.797 63.2434C424.315 69.6951 424.736 75.4771 425.963 81.8341C427.307 88.7927 427.7 95.7664 428.396 102.81C428.755 106.447 429.36 110.063 429.653 113.705C429.807 115.634 429.014 121.165 430.396 122.538C430.53 119.198 431.487 115.854 432.213 112.599C433.072 108.743 433.419 104.689 434.053 100.778C435.079 94.4403 437.07 88.3885 438.387 82.1224C441.102 69.2054 443.358 52.6042 454.736 44.1495C456.225 43.0432 457.861 42.2267 459.471 41.3163C460.382 40.8009 461.736 39.4675 462.778 39.2348C463.916 38.9808 464.391 39.1781 464.852 40.4982C465.495 42.3386 464.319 43.1982 463.221 44.5349C459.42 49.1602 457.797 55.0895 455.45 60.514C450.077 72.9354 447.7 86.0368 447.672 99.4636C447.658 106.493 447.173 113.272 446.424 120.258C445.617 127.777 444.555 135.728 442.271 142.961C444.561 143.475 447.047 142.709 447.669 145.372C447.822 146.026 447.546 146.8 447.715 147.651C447.879 148.479 448.274 149.302 448.508 150.116C448.991 151.8 449.246 153.461 449.481 155.189C450.389 161.87 451.949 168.225 452.115 174.999C452.267 181.261 451.041 187.605 449.912 193.746C448.774 199.932 445.511 205.204 442.941 210.798C444.047 210.798 445.153 210.81 446.259 210.821Z" fill="#333333"/>
<path d="M310.219 211.681C310.629 211.707 311.031 211.751 311.419 211.806C311.455 211.663 311.54 211.523 311.7 211.43C311.698 211.392 311.695 211.353 311.692 211.313C311.459 208.46 307.535 212.694 308.136 211.005C308.738 209.317 312.114 204.467 312.424 202.526C312.734 200.586 314.054 196.221 314.694 196.221C315.206 196.221 316.292 197.915 316.77 198.762H317.469C317.682 197.889 318.307 196.159 319.099 196.221C320.088 196.298 321.408 203.768 321.446 204.021C321.485 204.273 320.437 206 319.778 206.116C319.25 206.209 319.196 206.931 319.234 207.28C319.221 208.962 319.223 212.399 319.331 212.694C319.467 213.062 318.008 212.329 317.95 213.338C317.922 213.827 317.52 213.37 317.181 212.851C316.981 212.958 316.76 212.972 316.442 212.894C316.651 213.112 316.738 213.347 316.441 212.894C316.282 212.855 316.1 212.793 315.884 212.709C315.685 212.764 315.212 212.651 314.549 212.481C313.591 212.686 312.576 212.817 311.692 212.694C308.777 212.288 309.839 211.841 310.213 211.683L310.219 211.681Z" fill="#FFA756"/>
<path d="M315.605 198.968C315.927 198.263 315.193 197.592 314.786 197.344C314.427 197.221 314.111 198.984 313.997 199.88C314.399 199.87 315.284 199.673 315.605 198.968Z" fill="white"/>
<path d="M318.269 198.697C317.93 198.067 318.41 197.295 318.692 196.987C319.31 196.709 319.706 198.354 319.827 199.211C319.449 199.302 318.608 199.326 318.269 198.697Z" fill="white"/>
<ellipse cx="318.322" cy="202.945" rx="0.957549" ry="0.417107" fill="white"/>
<path fill-rule="evenodd" clip-rule="evenodd" d="M300.992 196.351C299.773 196.695 293.89 197.345 293.892 199.191C293.892 200.298 299.767 200.276 300.807 200.397C300.869 199.048 300.93 197.699 300.992 196.351ZM313.976 209.088C317.366 209.732 321.967 208.826 324.135 205.838C325.147 204.441 325.627 202.317 325.957 200.651C326.272 199.063 327.244 195.1 326.583 193.611C325.771 191.783 317.982 193.693 315.714 193.903C311.757 194.268 307.665 194.311 303.705 194.053C303.705 198.142 303.496 202.127 305.901 205.646C307.636 208.185 310.894 208.784 313.976 209.088ZM313.295 214.138C309.612 212.79 305.745 213.666 303.346 209.712C302.738 208.709 302.225 207.63 301.857 206.516C301.677 206.027 301.537 205.528 301.438 205.015C301.625 203.913 301.221 203.603 300.227 204.083C298.274 203.703 296.134 205.043 294.077 204.648C289.09 203.691 289.996 196.546 293.343 194.073C294.004 193.584 294.664 193.448 295.421 193.207C297.09 192.675 297.993 193.269 299.519 193.118C300.752 192.996 301.091 191.703 302.416 191.133C303.284 190.761 304.488 190.789 305.401 190.752C310.175 190.556 314.964 190.557 319.769 190.246C322.009 190.101 324.429 190.456 326.624 190.073C327.652 189.894 327.504 189.21 328.478 189.81C329.485 190.431 329.05 192.729 328.999 193.645C328.705 198.944 328.39 204.627 325.551 209.259C322.954 213.497 317.844 213.931 313.295 214.138Z" fill="#333333"/>
<path fill-rule="evenodd" clip-rule="evenodd" d="M118.773 215.598C119.958 215.585 121.143 215.573 122.324 215.561C121.137 215.573 119.955 215.586 118.773 215.598Z" fill="#333333"/>
<path fill-rule="evenodd" clip-rule="evenodd" d="M447.827 102.624C447.825 101.486 447.822 100.347 447.82 99.2113C447.822 100.35 447.825 101.487 447.827 102.624Z" fill="#333333"/>
<path fill-rule="evenodd" clip-rule="evenodd" d="M146.385 107.299C146.381 108.408 146.377 109.517 146.374 110.623C146.377 109.513 146.381 108.406 146.385 107.299Z" fill="#333333"/>
<path fill-rule="evenodd" clip-rule="evenodd" d="M244.888 214.341C245.83 214.342 246.773 214.343 247.712 214.346C246.767 214.345 245.828 214.343 244.888 214.341Z" fill="#333333"/>
<path fill-rule="evenodd" clip-rule="evenodd" d="M187.643 214.115C188.585 214.118 189.528 214.121 190.466 214.124C189.522 214.122 188.582 214.118 187.643 214.115Z" fill="#333333"/>
<path fill-rule="evenodd" clip-rule="evenodd" d="M393.768 168.063C393.727 168.811 393.685 169.56 393.644 170.306C393.685 169.557 393.727 168.81 393.768 168.063Z" fill="#333333"/>
<path fill-rule="evenodd" clip-rule="evenodd" d="M446.407 210.569C445.678 210.561 444.95 210.554 444.221 210.546C444.953 210.241 445.681 210.255 446.407 210.569Z" fill="#333333"/>
<path fill-rule="evenodd" clip-rule="evenodd" d="M381.722 213.883C382.246 213.875 382.768 213.867 383.286 213.858C382.762 213.866 382.242 213.875 381.722 213.883Z" fill="#333333"/>
<path fill-rule="evenodd" clip-rule="evenodd" d="M447.544 111.86C447.557 111.294 447.57 110.729 447.583 110.165C447.57 110.732 447.557 111.296 447.544 111.86Z" fill="#333333"/>
<path fill-rule="evenodd" clip-rule="evenodd" d="M398.643 40.2972C398.6 39.7137 398.557 39.1306 398.514 38.5486C398.557 39.1324 398.6 39.7148 398.643 40.2972Z" fill="#333333"/>
<path fill-rule="evenodd" clip-rule="evenodd" d="M447.801 104.853C447.808 104.268 447.815 103.683 447.822 103.1C447.815 103.686 447.808 104.269 447.801 104.853Z" fill="#333333"/>
<path fill-rule="evenodd" clip-rule="evenodd" d="M283.359 213.158C283.824 213.165 284.289 213.172 284.75 213.177C284.284 213.17 283.821 213.164 283.359 213.158Z" fill="#333333"/>
<path fill-rule="evenodd" clip-rule="evenodd" d="M403.118 214.112C403.572 214.12 404.027 214.13 404.477 214.139C404.021 214.13 403.57 214.121 403.118 214.112Z" fill="#333333"/>
<path fill-rule="evenodd" clip-rule="evenodd" d="M452.21 172.987C452.177 172.473 452.145 171.961 452.113 171.449C452.145 171.962 452.178 172.474 452.21 172.987Z" fill="#333333"/>
<path fill-rule="evenodd" clip-rule="evenodd" d="M444.051 214.61C444.421 214.608 444.791 214.606 445.157 214.605C444.786 214.608 444.418 214.609 444.051 214.61Z" fill="#333333"/>
<path fill-rule="evenodd" clip-rule="evenodd" d="M393.647 214.135C394.013 214.126 394.379 214.117 394.742 214.108C394.374 214.117 394.01 214.126 393.647 214.135Z" fill="#333333"/>
<path fill-rule="evenodd" clip-rule="evenodd" d="M311.297 213.855C311.701 213.853 312.104 213.851 312.503 213.848C312.099 213.85 311.698 213.853 311.297 213.855Z" fill="#333333"/>
<path fill-rule="evenodd" clip-rule="evenodd" d="M218.302 213.854C218.685 213.856 219.069 213.859 219.448 213.862C219.063 213.86 218.683 213.857 218.302 213.854Z" fill="#333333"/>
<path fill-rule="evenodd" clip-rule="evenodd" d="M195.679 213.915C196.07 213.894 196.46 213.872 196.848 213.85C196.456 213.872 196.068 213.894 195.679 213.915Z" fill="#333333"/>
<path fill-rule="evenodd" clip-rule="evenodd" d="M303.988 64.9593C303.407 64.9093 302.825 64.8592 302.243 64.8088C302.826 64.8496 303.442 64.5051 303.988 64.9593Z" fill="#333333"/>
<path fill-rule="evenodd" clip-rule="evenodd" d="M452.266 210.79C451.692 210.733 451.119 210.674 450.545 210.616C451.119 210.674 451.692 210.733 452.266 210.79Z" fill="#333333"/>
<path fill-rule="evenodd" clip-rule="evenodd" d="M412.258 68.491C412.22 68.9935 412.181 69.4964 412.143 69.9974C412.182 69.4942 412.22 68.9924 412.258 68.491Z" fill="#333333"/>
<path fill-rule="evenodd" clip-rule="evenodd" d="M447.947 89.4422C447.986 88.9659 448.025 88.4895 448.064 88.015C448.025 88.4921 447.985 88.967 447.947 89.4422Z" fill="#333333"/>
<path fill-rule="evenodd" clip-rule="evenodd" d="M412.03 76.2857C411.989 76.7875 411.948 77.2889 411.907 77.7889C411.948 77.2867 411.989 76.786 412.03 76.2857Z" fill="#333333"/>
<path fill-rule="evenodd" clip-rule="evenodd" d="M447.703 108.673C447.699 108.188 447.695 107.704 447.692 107.22C448.005 107.704 447.992 108.187 447.703 108.673Z" fill="#333333"/>
<path fill-rule="evenodd" clip-rule="evenodd" d="M393.776 178.3C393.772 178.786 393.768 179.273 393.763 179.756C393.442 179.266 393.506 178.782 393.776 178.3Z" fill="#333333"/>
<path fill-rule="evenodd" clip-rule="evenodd" d="M430.334 122.077C430.278 121.585 430.221 121.093 430.166 120.603C430.222 121.095 430.278 121.586 430.334 122.077Z" fill="#333333"/>
<path fill-rule="evenodd" clip-rule="evenodd" d="M127.624 76.9325C127.244 77.435 126.726 77.0908 126.274 77.1519C126.724 77.0787 127.174 77.0058 127.624 76.9325Z" fill="#333333"/>
<path fill-rule="evenodd" clip-rule="evenodd" d="M315.668 190.595C315.187 190.596 314.707 190.596 314.227 190.597C314.707 190.596 315.187 190.595 315.668 190.595Z" fill="#333333"/>
<path fill-rule="evenodd" clip-rule="evenodd" d="M392.424 78.9968C392.469 79.4054 392.514 79.814 392.559 80.2212C392.514 79.8118 392.469 79.4043 392.424 78.9968Z" fill="#333333"/>
<path fill-rule="evenodd" clip-rule="evenodd" d="M154.993 38.4129C154.51 38.4224 154.027 38.432 153.544 38.4416C154.022 38.1603 154.503 38.079 154.993 38.4129Z" fill="#333333"/>
<path fill-rule="evenodd" clip-rule="evenodd" d="M412.019 83.3546C411.987 83.7831 411.956 84.2113 411.925 84.6379C411.957 84.2094 411.987 83.782 412.019 83.3546Z" fill="#333333"/>
<path fill-rule="evenodd" clip-rule="evenodd" d="M398.773 30.7537C398.811 30.3631 398.848 29.9725 398.885 29.5841C398.847 29.9755 398.811 30.3646 398.773 30.7537Z" fill="#333333"/>
<path fill-rule="evenodd" clip-rule="evenodd" d="M394.978 29.5304C394.94 29.9541 394.902 30.3782 394.864 30.8005C394.902 30.376 394.94 29.953 394.978 29.5304Z" fill="#333333"/>
<path fill-rule="evenodd" clip-rule="evenodd" d="M185.177 1.22308C184.685 1.28272 184.194 1.34236 183.703 1.40163C184.194 1.34199 184.685 1.28272 185.177 1.22308Z" fill="#333333"/>
<path fill-rule="evenodd" clip-rule="evenodd" d="M149.679 38.7501C149.175 38.8017 148.67 38.8532 148.166 38.9048C148.671 38.8532 149.175 38.8017 149.679 38.7501Z" fill="#333333"/>
<path fill-rule="evenodd" clip-rule="evenodd" d="M426.055 39.992C426.086 39.5977 426.116 39.2031 426.147 38.811C426.116 39.2057 426.085 39.5989 426.055 39.992Z" fill="#333333"/>
<path fill-rule="evenodd" clip-rule="evenodd" d="M133.126 105.064C133.416 105.068 133.706 105.072 133.992 105.076C133.701 105.072 133.413 105.068 133.126 105.064Z" fill="#333333"/>
<path fill-rule="evenodd" clip-rule="evenodd" d="M394.993 153.726C394.964 154.163 394.934 154.599 394.905 155.034C394.935 154.598 394.964 154.162 394.993 153.726Z" fill="#333333"/>
<path fill-rule="evenodd" clip-rule="evenodd" d="M424.623 68.7584C424.611 68.3376 424.599 67.9172 424.587 67.4975C424.6 67.9187 424.611 68.3384 424.623 68.7584Z" fill="#333333"/>
<path fill-rule="evenodd" clip-rule="evenodd" d="M197.549 0.227611C197.101 0.227611 196.653 0.227979 196.206 0.227979C196.654 -0.0797861 197.101 -0.072055 197.549 0.227611Z" fill="#333333"/>
<path fill-rule="evenodd" clip-rule="evenodd" d="M360.047 213.141C360.338 213.147 360.629 213.153 360.916 213.16C360.624 213.154 360.335 213.147 360.047 213.141Z" fill="#333333"/>
<path fill-rule="evenodd" clip-rule="evenodd" d="M371.001 213.652C371.291 213.641 371.582 213.631 371.868 213.621C371.576 213.632 371.289 213.642 371.001 213.652Z" fill="#333333"/>
<path fill-rule="evenodd" clip-rule="evenodd" d="M199.56 213.854C199.863 213.862 200.166 213.869 200.465 213.877C200.161 213.869 199.86 213.862 199.56 213.854Z" fill="#333333"/>
<path fill-rule="evenodd" clip-rule="evenodd" d="M451.959 168.118C451.916 167.702 451.873 167.286 451.829 166.872C451.873 167.288 451.916 167.703 451.959 168.118Z" fill="#333333"/>
<path fill-rule="evenodd" clip-rule="evenodd" d="M412.39 97.9882C412.425 98.3847 412.459 98.7812 412.493 99.1751C412.458 98.7782 412.424 98.3832 412.39 97.9882Z" fill="#333333"/>
<path fill-rule="evenodd" clip-rule="evenodd" d="M427.617 91.1812C427.57 90.7608 427.523 90.3404 427.476 89.9214C427.523 90.3422 427.57 90.7615 427.617 91.1812Z" fill="#333333"/>
<path fill-rule="evenodd" clip-rule="evenodd" d="M202.018 214.105C202.323 214.1 202.629 214.095 202.932 214.091C202.625 214.096 202.321 214.1 202.018 214.105Z" fill="#333333"/>
<path fill-rule="evenodd" clip-rule="evenodd" d="M313.294 214.138C313.592 214.125 313.888 214.112 314.182 214.098C313.884 214.112 313.589 214.125 313.294 214.138Z" fill="#333333"/>
<path fill-rule="evenodd" clip-rule="evenodd" d="M425.132 60.4823C425.118 60.0564 425.105 59.6304 425.092 59.2052C425.105 59.6315 425.119 60.0567 425.132 60.4823Z" fill="#333333"/>
<path fill-rule="evenodd" clip-rule="evenodd" d="M173.045 214.383C173.343 214.381 173.641 214.378 173.935 214.376C173.635 214.379 173.34 214.381 173.045 214.383Z" fill="#333333"/>
<path fill-rule="evenodd" clip-rule="evenodd" d="M425.008 214.379C425.314 214.382 425.621 214.385 425.923 214.388C425.615 214.385 425.311 214.382 425.008 214.379Z" fill="#333333"/>
<path fill-rule="evenodd" clip-rule="evenodd" d="M431.625 214.342C431.921 214.363 432.217 214.384 432.509 214.405C432.212 214.384 431.919 214.363 431.625 214.342Z" fill="#333333"/>
<path fill-rule="evenodd" clip-rule="evenodd" d="M434.298 214.337C434.599 214.346 434.901 214.355 435.198 214.362C434.896 214.353 434.597 214.345 434.298 214.337Z" fill="#333333"/>
<path fill-rule="evenodd" clip-rule="evenodd" d="M448.02 92.8694C448 92.4505 447.98 92.0312 447.961 91.6133C447.981 92.033 448 92.4512 448.02 92.8694Z" fill="#333333"/>
<path fill-rule="evenodd" clip-rule="evenodd" d="M245.788 208.845C246.705 208.798 247.621 208.75 248.538 208.702C247.621 208.75 246.705 208.798 245.788 208.845Z" fill="#333333"/>
<path fill-rule="evenodd" clip-rule="evenodd" d="M190.498 56.5099C191.294 56.5791 192.089 56.6483 192.884 56.7168C192.088 56.648 191.293 56.5788 190.498 56.5099Z" fill="#333333"/>
<path fill-rule="evenodd" clip-rule="evenodd" d="M415.117 91.0977C415.142 91.8568 415.168 92.6159 415.192 93.3728C415.167 92.6133 415.142 91.8557 415.117 91.0977Z" fill="#333333"/>
<path fill-rule="evenodd" clip-rule="evenodd" d="M431.536 210.144C432.366 210.194 433.196 210.244 434.027 210.295C433.191 210.332 432.343 210.571 431.536 210.144Z" fill="#333333"/>
<path fill-rule="evenodd" clip-rule="evenodd" d="M426.621 120.352C426.627 119.628 426.633 118.904 426.639 118.182C426.633 118.906 426.627 119.629 426.621 120.352Z" fill="#333333"/>
<path fill-rule="evenodd" clip-rule="evenodd" d="M424.495 143.103C425.223 143.113 425.953 143.123 426.681 143.132C425.952 143.122 425.223 143.113 424.495 143.103Z" fill="#333333"/>
<path fill-rule="evenodd" clip-rule="evenodd" d="M241.057 130.373C241.039 130.925 241.021 131.477 241.003 132.026C241.022 131.473 241.039 130.923 241.057 130.373Z" fill="#333333"/>
<path fill-rule="evenodd" clip-rule="evenodd" d="M436.623 107.005C436.593 107.555 436.563 108.103 436.534 108.65C436.564 108.1 436.594 107.553 436.623 107.005Z" fill="#333333"/>
<path fill-rule="evenodd" clip-rule="evenodd" d="M421.076 207.7C421.606 207.664 422.136 207.629 422.665 207.594C422.267 207.914 421.866 207.94 421.076 207.7Z" fill="#333333"/>
<path fill-rule="evenodd" clip-rule="evenodd" d="M417.529 135.913C417.566 136.505 417.602 137.097 417.638 137.687C417.602 137.095 417.566 136.504 417.529 135.913Z" fill="#333333"/>
<path fill-rule="evenodd" clip-rule="evenodd" d="M219.317 42.4781C219.322 41.9063 219.328 41.3346 219.334 40.7651C219.328 41.3376 219.323 41.9078 219.317 42.4781Z" fill="#333333"/>
<path fill-rule="evenodd" clip-rule="evenodd" d="M418.171 143.223L420.147 143.18C419.495 143.495 418.836 143.506 418.171 143.223Z" fill="#333333"/>
<path fill-rule="evenodd" clip-rule="evenodd" d="M436.4 147.442C435.934 147.446 435.468 147.45 435.005 147.454C435.472 147.451 435.936 147.446 436.4 147.442Z" fill="#333333"/>
<path fill-rule="evenodd" clip-rule="evenodd" d="M265.776 207.927C266.421 207.936 267.066 207.944 267.711 207.952C267.061 208.278 266.415 208.324 265.776 207.927Z" fill="#333333"/>
<path fill-rule="evenodd" clip-rule="evenodd" d="M144.279 209.828C144.934 209.77 145.589 209.711 146.243 209.653C145.589 209.711 144.934 209.77 144.279 209.828Z" fill="#333333"/>
<path fill-rule="evenodd" clip-rule="evenodd" d="M415.345 95.9732C415.377 96.5674 415.409 97.1616 415.441 97.7539C415.409 97.159 415.377 96.5663 415.345 95.9732Z" fill="#333333"/>
<path fill-rule="evenodd" clip-rule="evenodd" d="M206.409 57.9051C206.961 57.633 207.517 57.5874 208.079 57.8756C207.522 57.8855 206.966 57.8955 206.409 57.9051Z" fill="#333333"/>
<path fill-rule="evenodd" clip-rule="evenodd" d="M397.293 102.834C397.339 103.335 397.385 103.837 397.43 104.336C397.384 103.835 397.339 103.334 397.293 102.834Z" fill="#333333"/>
<path fill-rule="evenodd" clip-rule="evenodd" d="M443.91 91.1393C443.626 90.6489 443.636 90.1612 443.924 89.6778C443.919 90.1656 443.914 90.6526 443.91 91.1393Z" fill="#333333"/>
<path fill-rule="evenodd" clip-rule="evenodd" d="M415.435 74.1164C415.435 74.6123 415.435 75.1085 415.435 75.6029C415.435 75.106 415.435 74.6112 415.435 74.1164Z" fill="#333333"/>
<path fill-rule="evenodd" clip-rule="evenodd" d="M435.217 142.866C435.785 142.692 436.353 142.446 436.918 142.872C436.351 142.87 435.784 142.868 435.217 142.866Z" fill="#333333"/>
<path fill-rule="evenodd" clip-rule="evenodd" d="M251.661 208.621C252.232 208.568 252.804 208.515 253.375 208.462C252.804 208.515 252.232 208.568 251.661 208.621Z" fill="#333333"/>
<path fill-rule="evenodd" clip-rule="evenodd" d="M173.303 208.622C173.826 208.392 174.349 208.272 174.865 208.64C174.344 208.634 173.823 208.628 173.303 208.622Z" fill="#333333"/>
<path fill-rule="evenodd" clip-rule="evenodd" d="M280.383 207.884C280.942 207.64 281.501 207.505 282.053 207.901C281.496 207.896 280.94 207.89 280.383 207.884Z" fill="#333333"/>
<path fill-rule="evenodd" clip-rule="evenodd" d="M155.77 135.461C155.812 135.967 155.855 136.472 155.896 136.976C155.854 136.471 155.812 135.966 155.77 135.461Z" fill="#333333"/>
<path fill-rule="evenodd" clip-rule="evenodd" d="M415.336 121.394C415.367 121.888 415.398 122.382 415.428 122.875C415.397 122.38 415.367 121.887 415.336 121.394Z" fill="#333333"/>
<path fill-rule="evenodd" clip-rule="evenodd" d="M155.414 76.8144C155.368 77.2124 155.323 77.6107 155.278 78.0065C155.323 77.6078 155.368 77.2113 155.414 76.8144Z" fill="#333333"/>
<path fill-rule="evenodd" clip-rule="evenodd" d="M123.492 192.223C123.464 192.611 123.436 192.998 123.408 193.383C123.437 192.995 123.465 192.609 123.492 192.223Z" fill="#333333"/>
<path fill-rule="evenodd" clip-rule="evenodd" d="M426.866 124.008C426.835 123.607 426.804 123.207 426.773 122.808C426.804 123.209 426.835 123.609 426.866 124.008Z" fill="#333333"/>
<path fill-rule="evenodd" clip-rule="evenodd" d="M386.757 207.136C387.248 207.139 387.739 207.143 388.229 207.146C387.738 207.143 387.247 207.139 386.757 207.136Z" fill="#333333"/>
<path fill-rule="evenodd" clip-rule="evenodd" d="M240.871 133.781C240.962 134.072 241.054 134.364 241.146 134.656C240.533 134.804 240.442 134.512 240.871 133.781Z" fill="#333333"/>
<path fill-rule="evenodd" clip-rule="evenodd" d="M156.051 137.854C156.068 138.296 156.085 138.738 156.101 139.179C156.084 138.736 156.067 138.295 156.051 137.854Z" fill="#333333"/>
<path fill-rule="evenodd" clip-rule="evenodd" d="M161.323 209.106C161.804 209.106 162.285 209.105 162.766 209.105C162.285 209.105 161.804 209.106 161.323 209.106Z" fill="#333333"/>
<path fill-rule="evenodd" clip-rule="evenodd" d="M398.504 142.513C398.522 142.919 398.54 143.326 398.558 143.731C398.541 143.323 398.522 142.918 398.504 142.513Z" fill="#333333"/>
<path fill-rule="evenodd" clip-rule="evenodd" d="M151.109 209.602C151.582 209.288 152.056 209.315 152.531 209.597C152.057 209.598 151.582 209.6 151.109 209.602Z" fill="#333333"/>
<path fill-rule="evenodd" clip-rule="evenodd" d="M163.566 71.1315C163.591 71.5468 163.617 71.9624 163.644 72.3751C163.618 71.9591 163.592 71.5453 163.566 71.1315Z" fill="#333333"/>
<path fill-rule="evenodd" clip-rule="evenodd" d="M148.647 209.644C149.139 209.646 149.631 209.648 150.123 209.651C149.629 209.986 149.138 210.002 148.647 209.644Z" fill="#333333"/>
<path fill-rule="evenodd" clip-rule="evenodd" d="M420.993 64.6126C420.997 64.1908 421 63.7692 421.004 63.3484C421 63.7707 420.996 64.1915 420.993 64.6126Z" fill="#333333"/>
<path fill-rule="evenodd" clip-rule="evenodd" d="M195.195 57.2354C195.665 57.2969 196.136 57.3584 196.606 57.4195C196.135 57.358 195.665 57.2969 195.195 57.2354Z" fill="#333333"/>
<path fill-rule="evenodd" clip-rule="evenodd" d="M153.678 93.6441C153.684 94.038 153.69 94.4323 153.698 94.8243C153.692 94.4297 153.685 94.0369 153.678 93.6441Z" fill="#333333"/>
<path fill-rule="evenodd" clip-rule="evenodd" d="M424.16 93.5874C424.134 93.1861 424.109 92.7848 424.083 92.3854C424.109 92.7874 424.135 93.1876 424.16 93.5874Z" fill="#333333"/>
<path fill-rule="evenodd" clip-rule="evenodd" d="M314.429 209.174C315.01 209.226 315.59 209.279 316.17 209.331C315.59 209.279 315.01 209.226 314.429 209.174Z" fill="#333333"/>
<path fill-rule="evenodd" clip-rule="evenodd" d="M312.489 194.146C312.175 194.151 311.861 194.156 311.55 194.162C311.865 194.158 312.177 194.152 312.489 194.146Z" fill="#333333"/>
<path fill-rule="evenodd" clip-rule="evenodd" d="M312.515 208.944C313.002 208.992 313.49 209.04 313.976 209.088C313.489 209.04 313.002 208.992 312.515 208.944Z" fill="#333333"/>
<path fill-rule="evenodd" clip-rule="evenodd" d="M224.89 176.154C225.524 179.734 219.96 183.235 219.519 178.146C219.358 176.285 220.602 174.977 221.996 173.839C223.973 172.225 225.078 173.771 224.89 176.154Z" fill="#333333"/>
<path fill-rule="evenodd" clip-rule="evenodd" d="M163.568 132.479C164.878 133.015 174.891 136.278 169.69 137.919C168.314 138.354 166.232 138.419 165.039 137.653C163.603 136.732 162.155 134.014 163.568 132.479Z" fill="#333333"/>
<path fill-rule="evenodd" clip-rule="evenodd" d="M166.032 84.0008C169.431 83.6062 172.562 89.1883 168.372 89.0072C165.322 88.875 161.22 84.0008 166.032 84.0008Z" fill="#333333"/>
<path fill-rule="evenodd" clip-rule="evenodd" d="M178.19 97.6874C181.028 100.164 175.768 105.705 173.68 103.56C172.613 102.465 173.597 100.105 174.477 99.188C175.38 98.2474 176.988 98.0706 178.19 97.6874Z" fill="#333333"/>
<path fill-rule="evenodd" clip-rule="evenodd" d="M186.639 161.88C184.963 162.146 177.596 164.554 179.132 160.181C179.718 158.513 181.353 159.008 182.847 159.084C185.255 159.207 186.639 159.092 186.639 161.88Z" fill="#333333"/>
<path fill-rule="evenodd" clip-rule="evenodd" d="M181.785 173.144C184.294 174.485 180.627 181.995 178.548 180.397C175.664 178.18 179.609 173.818 181.785 173.144Z" fill="#333333"/>
<path fill-rule="evenodd" clip-rule="evenodd" d="M192.724 167.108C193.944 166.61 199.693 172.14 197.505 173.678C196.383 174.467 194.258 173.115 193.581 172.3C192.313 170.771 192.199 168.886 192.724 167.108Z" fill="#333333"/>
<path fill-rule="evenodd" clip-rule="evenodd" d="M159.554 121.906C160.801 122.11 162.953 122.175 163.033 123.927C163.104 125.466 161.174 125.965 159.815 126.086C158.405 126.211 156.539 125.813 156.512 124.04C156.483 122.128 159.51 122.243 159.554 121.906Z" fill="#333333"/>
<path fill-rule="evenodd" clip-rule="evenodd" d="M190.293 198.13C191.62 198.936 197.812 201.837 195.158 203.933C194.165 204.718 191.154 203.098 190.476 202.274C189.667 201.291 188.877 198.989 190.293 198.13Z" fill="#333333"/>
<path fill-rule="evenodd" clip-rule="evenodd" d="M207.506 177.074C207.315 173.872 212.718 172.597 211.598 177.143C211.282 178.425 210.977 180.37 209.392 180.445C207.519 180.533 207.451 178.316 207.506 177.074Z" fill="#333333"/>
<path fill-rule="evenodd" clip-rule="evenodd" d="M190.814 121.378C190.852 123.808 186.196 125.95 186.16 122.099C186.128 118.658 190.988 117.651 190.814 121.378Z" fill="#333333"/>
<path fill-rule="evenodd" clip-rule="evenodd" d="M187.74 108.724C188.887 109.093 190.412 109.284 190.513 110.741C190.62 112.284 189.187 112.97 187.898 112.884C186.841 112.813 185.276 112.03 185.084 110.883C184.802 109.199 186.446 109.089 187.74 108.724Z" fill="#333333"/>
<path fill-rule="evenodd" clip-rule="evenodd" d="M166.409 153.207C166.39 151.203 170.408 148.793 171.148 151.119C171.384 151.864 169.491 155.202 168.861 155.452C167.194 156.113 166.962 154.571 166.409 153.207Z" fill="#333333"/>
<path fill-rule="evenodd" clip-rule="evenodd" d="M199.334 186.577C197.976 187.792 193.904 191.206 194.208 186.623C194.402 183.696 199.692 183.848 199.334 186.577Z" fill="#333333"/>
<path fill-rule="evenodd" clip-rule="evenodd" d="M265.689 199.674C266.134 197.747 272.506 201.09 270.379 203.524C269.666 204.34 267.8 203.601 267.082 203.117C265.662 202.159 265.631 201.274 265.689 199.674Z" fill="#333333"/>
<path fill-rule="evenodd" clip-rule="evenodd" d="M230.187 158.428C230.435 157.569 230.711 156.05 231.531 155.502C233.013 154.511 234.305 156.007 234.305 157.583C234.305 160.525 230.957 161.453 230.187 158.428Z" fill="#333333"/>
<path fill-rule="evenodd" clip-rule="evenodd" d="M214.394 192.819C216.049 193.199 219.732 197.22 217.596 198.861C215.54 200.44 212.805 194.021 214.394 192.819Z" fill="#333333"/>
<path fill-rule="evenodd" clip-rule="evenodd" d="M215.97 162.379C218.097 162.548 221.021 165.993 217.715 166.541C215.129 166.969 212.121 163.223 215.97 162.379Z" fill="#333333"/>
<path fill-rule="evenodd" clip-rule="evenodd" d="M235.227 178.23C235.76 176.433 241.036 178.358 240.739 180.337C240.582 181.389 238.425 181.636 237.291 181.358C235.622 180.948 235.189 179.853 235.227 178.23Z" fill="#333333"/>
<path fill-rule="evenodd" clip-rule="evenodd" d="M173.042 77.8726C173.08 75.5497 177.544 74.6028 177.871 76.9438C178.166 79.0588 172.986 81.3092 173.042 77.8726Z" fill="#333333"/>
<path fill-rule="evenodd" clip-rule="evenodd" d="M233.752 202.166C234.074 200.998 234.213 199.592 235.672 199.438C237.342 199.261 237.293 200.543 237.097 201.87C236.562 205.482 234.521 205.662 233.752 202.166Z" fill="#333333"/>
<path fill-rule="evenodd" clip-rule="evenodd" d="M163.261 105.511C160.934 106.036 156.672 101.554 159.277 100.592C161.113 99.9137 163.261 104.158 163.261 105.511Z" fill="#333333"/>
<path fill-rule="evenodd" clip-rule="evenodd" d="M192.943 140.324C191.759 140.882 191.486 141.22 190.576 140.305C189.784 139.508 189.819 137.287 190.499 136.458C193.103 133.283 193.042 139.039 192.943 140.324Z" fill="#333333"/>
<path fill-rule="evenodd" clip-rule="evenodd" d="M202.605 133.885C203.84 134.042 207.51 137.523 205.599 138.906C203.257 140.601 201.932 135.292 202.605 133.885Z" fill="#333333"/>
<path fill-rule="evenodd" clip-rule="evenodd" d="M229.327 134.801C228.429 138.258 226.188 135.932 226.315 133.316C226.519 129.126 228.841 132.775 229.327 134.801Z" fill="#333333"/>
<path fill-rule="evenodd" clip-rule="evenodd" d="M242.952 190.326C244.471 190.954 246.533 196.761 244.363 197.072C241.927 197.422 242.738 191.535 242.952 190.326Z" fill="#333333"/>
<path fill-rule="evenodd" clip-rule="evenodd" d="M223.984 187.064C225.722 186.478 226.359 190.144 225.349 190.825C223.126 192.323 223.595 187.929 223.984 187.064Z" fill="#333333"/>
<path fill-rule="evenodd" clip-rule="evenodd" d="M207.507 177.074C207.484 177.561 207.463 178.048 207.44 178.531C207.462 178.044 207.484 177.559 207.507 177.074Z" fill="#333333"/>
<path fill-rule="evenodd" clip-rule="evenodd" d="M265.688 199.674C265.67 200.173 265.652 200.672 265.634 201.169C265.651 200.669 265.67 200.171 265.688 199.674Z" fill="#333333"/>
<path fill-rule="evenodd" clip-rule="evenodd" d="M235.228 178.23C235.218 178.654 235.208 179.077 235.197 179.498C235.206 179.073 235.217 178.652 235.228 178.23Z" fill="#333333"/>
<path fill-rule="evenodd" clip-rule="evenodd" d="M427.469 170.944C431.073 170.828 435.092 169.472 438.633 169.903C439.608 170.022 441.852 170.268 440.29 171.714C439.543 172.405 435.967 172.047 434.885 172.277C428.269 173.678 420.759 174.581 413.975 174.464C410.8 174.41 407.601 174.155 404.427 173.988C401.255 173.82 400.943 172.531 404.512 172.121C408.219 171.695 412.022 171.853 415.748 171.849C419.664 171.843 423.561 171.205 427.469 170.944Z" fill="#333333"/>
<path fill-rule="evenodd" clip-rule="evenodd" d="M435.379 162.262C435.032 163.25 434.728 165.516 433.399 165.665C431.538 165.873 431.229 162.677 431.298 161.508C431.381 160.097 431.889 157.754 433.642 158.243C435.123 158.655 435.272 161.133 435.379 162.262Z" fill="#333333"/>
<path fill-rule="evenodd" clip-rule="evenodd" d="M424.112 161.539C424.384 160.482 424.517 158.098 426.013 158.017C427.684 157.927 428.162 160.41 428.151 161.601C428.139 162.73 427.722 164.865 426.391 165.126C424.587 165.479 424.425 162.747 424.112 161.539Z" fill="#333333"/>
<path fill-rule="evenodd" clip-rule="evenodd" d="M405.344 163.436C404.803 164.707 404.445 166.458 402.769 165.591C401.473 164.921 401.292 162.219 401.537 160.981C401.79 159.699 402.326 158.229 403.799 158.806C405.498 159.471 405.326 162.037 405.344 163.436Z" fill="#333333"/>
<path fill-rule="evenodd" clip-rule="evenodd" d="M419.556 162.262C417.958 167.104 415.045 163.828 416.151 160.213C417.308 156.435 419.409 160.104 419.556 162.262Z" fill="#333333"/>
<path fill-rule="evenodd" clip-rule="evenodd" d="M411.773 162.502C411.329 163.355 410.858 165.194 409.662 165.001C408.196 164.763 408.149 161.942 408.31 160.891C408.45 159.971 408.863 158.439 410.09 158.459C411.863 158.488 411.744 161.399 411.773 162.502Z" fill="#333333"/>
<path fill-rule="evenodd" clip-rule="evenodd" d="M443.636 163.432C442.447 166.1 440.811 163.801 441.335 161.906C442.111 159.096 443.569 161.586 443.636 163.432Z" fill="#333333"/>
<path fill-rule="evenodd" clip-rule="evenodd" d="M414.515 171.852C413.217 171.847 411.918 171.842 410.619 171.838C411.919 171.593 413.218 171.497 414.515 171.852Z" fill="#333333"/>
<path fill-rule="evenodd" clip-rule="evenodd" d="M440.322 169.892C439.195 169.9 438.069 169.907 436.943 169.914C438.068 169.577 439.194 169.57 440.322 169.892Z" fill="#333333"/>
<path fill-rule="evenodd" clip-rule="evenodd" d="M427.469 170.944C426.567 171.004 425.666 171.065 424.765 171.125C425.666 171.065 426.567 171.004 427.469 170.944Z" fill="#333333"/>
<path fill-rule="evenodd" clip-rule="evenodd" d="M405.345 163.436C405.337 162.789 405.328 162.142 405.32 161.496C405.654 162.14 405.63 162.786 405.345 163.436Z" fill="#333333"/>
<path fill-rule="evenodd" clip-rule="evenodd" d="M412.412 174.451C412.935 174.456 413.457 174.46 413.976 174.465C413.451 174.46 412.932 174.456 412.412 174.451Z" fill="#333333"/>
<path fill-rule="evenodd" clip-rule="evenodd" d="M403.633 173.988C404.163 173.988 404.692 173.988 405.218 173.988C404.687 173.988 404.16 173.988 403.633 173.988Z" fill="#333333"/>
<path fill-rule="evenodd" clip-rule="evenodd" d="M407.973 171.908C407.237 171.969 406.501 172.029 405.765 172.089C406.501 172.029 407.237 171.969 407.973 171.908Z" fill="#333333"/>
<path fill-rule="evenodd" clip-rule="evenodd" d="M417.928 171.844C417.201 171.846 416.474 171.847 415.747 171.849C416.474 171.543 417.201 171.534 417.928 171.844Z" fill="#333333"/>
<path fill-rule="evenodd" clip-rule="evenodd" d="M411.773 162.502C411.755 161.828 411.738 161.153 411.721 160.479C411.739 161.154 411.756 161.828 411.773 162.502Z" fill="#333333"/>
<path fill-rule="evenodd" clip-rule="evenodd" d="M401.537 160.981C401.533 161.639 401.529 162.297 401.524 162.952C401.528 162.293 401.532 161.637 401.537 160.981Z" fill="#333333"/>
<path fill-rule="evenodd" clip-rule="evenodd" d="M431.6 170.699C430.957 170.757 430.315 170.815 429.673 170.873C430.315 170.815 430.958 170.757 431.6 170.699Z" fill="#333333"/>
<path fill-rule="evenodd" clip-rule="evenodd" d="M443.637 163.431C443.616 162.857 443.595 162.282 443.574 161.708C443.595 162.283 443.616 162.857 443.637 163.431Z" fill="#333333"/>
<path fill-rule="evenodd" clip-rule="evenodd" d="M416.295 174.47C416.743 174.462 417.19 174.453 417.633 174.445C417.184 174.454 416.74 174.462 416.295 174.47Z" fill="#333333"/>
<path fill-rule="evenodd" clip-rule="evenodd" d="M435.38 162.263C435.34 161.85 435.301 161.436 435.262 161.025C435.301 161.438 435.341 161.85 435.38 162.263Z" fill="#333333"/>
<path fill-rule="evenodd" clip-rule="evenodd" d="M419.556 162.263C419.527 161.838 419.498 161.414 419.469 160.991C419.498 161.415 419.527 161.839 419.556 162.263Z" fill="#333333"/>
<path fill-rule="evenodd" clip-rule="evenodd" d="M188.866 37.636C187.106 37.1744 186.777 34.7019 187.059 33.1834C187.38 32.4515 187.701 31.72 188.021 30.9881C187.896 30.7176 187.771 30.447 187.645 30.1764C187.806 28.6692 187.395 28.0143 189.127 28.6247C192.345 29.7593 192.859 37.5197 188.866 37.636Z" fill="#333333"/>
<path fill-rule="evenodd" clip-rule="evenodd" d="M214.909 32.8558C216.358 32.7416 218.991 34.4296 217.548 36.0626C216.654 37.0743 213.709 36.5957 212.507 36.807C210.914 37.0872 209.251 37.4704 210.114 35.0834C210.791 33.2088 213.209 32.8068 214.909 32.8558Z" fill="#333333"/>
<path fill-rule="evenodd" clip-rule="evenodd" d="M213.384 44.0839C211.912 42.9032 212.569 37.5258 214.809 38.4933C217.114 39.4891 214.613 43.3078 213.384 44.0839Z" fill="#333333"/>
<path fill-rule="evenodd" clip-rule="evenodd" d="M187.06 33.1832C187.06 33.7491 187.06 34.3153 187.059 34.8785C186.752 34.3116 186.761 33.7472 187.06 33.1832Z" fill="#333333"/>
<path fill-rule="evenodd" clip-rule="evenodd" d="M188.866 37.6363C189.166 37.6278 189.466 37.619 189.762 37.6112C189.461 37.6208 189.163 37.6285 188.866 37.6363Z" fill="#333333"/>
<path fill-rule="evenodd" clip-rule="evenodd" d="M370.647 192.5C370.509 194.946 367.883 193.138 368.069 191.501C368.407 188.532 370.086 191.466 370.647 192.5Z" fill="#333333"/>
</svg>
