<svg width="516" height="214" viewBox="0 0 516 214" fill="none" xmlns="http://www.w3.org/2000/svg">
<ellipse cx="258" cy="194.799" rx="258" ry="18.3551" fill="#C4C4C4"/>
<path d="M368.988 166.495L370.017 137.847L385.799 136.818L413.932 136.303L416.162 140.077L419.765 166.495L411.874 196L406.384 199.259L395.062 197.201L394.548 193.599L391.117 190.682L371.046 180.561L368.988 166.495Z" fill="white"/>
<path d="M121.967 149.684L107.043 202.176L121.967 199.088L200.876 196.858H270.008L258.858 185.364L242.218 173.871L290.422 118.463L292.309 123.781L298.141 142.479L314.952 159.29L336.91 176.787L342.056 197.716L396.778 196.858L394.376 192.741L387 188.109L353.549 176.787L343.943 156.545L312.379 108.342L303.802 95.8192H296.597L271.037 105.597L270.008 102.509L284.246 69.5732V64.5985L263.661 55.1637L257.828 71.8033L251.996 81.9243L239.13 81.0666L234.327 81.9243L243.419 95.8192L246.678 99.2501L242.218 106.626L225.064 114.003L221.805 112.116L216.315 114.003L194.529 118.634L192.471 115.204V104.739L189.04 94.4469L183.036 84.3259L177.032 56.0214L195.559 57.5653L200.705 49.1597L204.65 48.1304L205.508 42.1264L206.88 33.2062L209.797 18.6251L172.572 16.9097L162.965 26.173L172.572 53.6198L138.606 62.54V113.145H136.376L129.858 122.751L121.967 149.684Z" fill="white"/>
<path d="M283.903 193.084L281.844 180.733L284.761 180.047L301.057 178.846L305.86 180.047L304.317 190.854L299.513 196.515L291.622 198.059L283.903 193.084Z" fill="white"/>
<path d="M368.645 132.186L371.047 137.333L410.33 134.759L412.731 121.551L413.761 112.974L414.961 84.669L419.936 64.7701L426.798 42.298L417.02 51.7329L413.075 62.3685L402.782 113.66L399.523 117.605L396.092 84.669L394.891 60.31V36.4656L390.774 44.185L388.372 52.2475L385.799 68.544V100.622L384.598 108.342L373.448 59.6238L368.645 44.185L367.444 50.0174L366.758 76.2635L368.645 97.7063L372.419 114.517L371.047 119.321L363.842 110.4L347.717 92.7315L336.567 82.0959L341.027 97.7063L349.432 113.66L368.645 132.186Z" fill="#D7F3E6" stroke="#D7F3E6"/>
<path fill-rule="evenodd" clip-rule="evenodd" d="M348.693 165.768C347.115 167.592 344.786 168.947 342.998 170.615C341.121 172.367 339.083 173.899 337.213 175.63C328.965 165.548 317.666 159.367 307.877 151.001C303.237 147.035 299.818 141.655 297.315 136.134C296.033 133.304 295.085 130.391 294.344 127.375C294.01 126.017 293.683 124.664 293.465 123.287C293.2 121.62 293.132 121.478 292.007 120.177C291.523 119.617 290.585 117.981 289.637 118.161C288.839 118.313 287.379 120.742 286.874 121.342C284.449 124.229 282.097 127.203 279.544 129.977C275.637 134.223 272.08 138.4 268.452 142.9C261.032 152.106 253.027 160.772 244.95 169.434C244.35 170.077 242.954 171.96 242.093 172.214C241.046 172.521 239.346 171.238 238.292 170.52C235.748 168.788 233.743 166.645 231.568 164.498C227.324 160.309 224.451 154.429 222.518 148.835C221.36 145.486 220.608 142.015 219.414 138.678C218.916 137.287 217.788 135.577 218.361 134.366C218.531 134.005 219.617 133.045 219.999 132.972C220.452 132.885 221.207 133.505 221.364 133.462C222.866 133.051 222.033 131.479 222.926 130.633C223.433 130.153 226.009 130.223 226.778 129.96C229.59 128.995 232.113 127.155 234.772 126.056C245.902 121.458 257.167 116.985 266.775 109.476C269.267 107.529 270.923 106.066 273.896 104.807C276.901 103.535 279.922 102.401 282.987 101.291C285.692 100.312 288.412 99.3941 291.207 98.6924C294.228 97.9333 298.514 96.971 301.533 97.9487C307.462 99.8681 309.377 104.753 311.738 109.906C314.932 116.879 318.794 123.476 322.981 129.894C331.036 142.241 340.833 153.32 348.693 165.768Z" fill="#FF8179"/>
<path fill-rule="evenodd" clip-rule="evenodd" d="M264.767 92.588C266.191 94.0612 268.296 95.2362 269.465 96.8918C269.787 97.3476 270.54 98.3861 269.335 98.2802C268.759 98.2294 267.545 96.5874 267.036 96.2192C263.922 93.968 260.676 91.1505 258.136 88.2496C256.947 86.8917 255.834 85.4476 254.693 84.047C253.554 82.6474 253.978 82.0243 255.512 83.3706C257.106 84.7691 258.491 86.4309 259.914 87.9978C261.41 89.6448 263.166 91.042 264.767 92.588Z" fill="#333333"/>
<path d="M246.507 96.5054L252.168 95.9907L251.996 96.6769L250.795 98.2208L250.109 99.0785L248.737 100.279L244.963 98.9069L244.791 98.3923L246.507 96.5054Z" fill="#333333"/>
<path fill-rule="evenodd" clip-rule="evenodd" d="M172.146 57.1688C171.826 57.0062 169.324 58.0244 168.904 58.1802C167.226 58.8025 165.647 59.8366 164.066 60.6778C165.277 62.1517 166.489 63.626 167.7 65.1002C168.887 62.1885 170.412 59.7858 172.146 57.1688ZM172.972 75.2854C172.56 75.3317 176.039 83.6917 176.445 84.6303C177.923 88.0444 179.475 91.4251 180.973 94.8306C182.424 98.1307 184.265 101.167 186.12 104.25C187.707 106.886 189.338 110.978 191.731 112.931C190.22 106.228 190.419 98.5201 186.086 92.8918C181.593 87.057 177.152 81.3594 172.972 75.2854ZM347.518 164.68C340.805 154.049 332.401 144.645 325.401 134.204C321.481 128.358 317.666 122.437 314.366 116.214C311.967 111.687 310.475 105.229 306.768 101.768C305.135 100.243 303.389 98.751 301.197 98.0679C298.198 97.1334 294.068 98.0597 291.054 98.7987C285.439 100.176 279.954 102.314 274.635 104.559C269.24 106.837 264.637 110.927 259.762 114.214C254.533 117.74 248.873 120.309 243.015 122.558C237.914 124.516 233.376 127.327 228.302 129.297C227.291 129.69 225.227 129.632 224.379 130.145C223.465 130.696 223.825 132.324 222.716 132.925C222.215 133.196 222.048 132.213 221.664 132.23C221.194 132.249 220.766 132.801 220.313 133.15C218.469 134.573 219.598 135.522 220.329 137.479C222.709 143.858 223.988 150.348 227.329 156.369C230.077 161.319 234.009 165.755 238.638 169.031C239.343 169.53 241.638 171.462 242.465 171.334C243.209 171.218 244.723 169.24 245.237 168.703C247.568 166.265 249.699 163.642 252.029 161.201C255.629 157.427 259.095 153.552 262.589 149.727C266.645 145.287 270.235 140.255 273.888 135.511C275.568 133.328 277.731 131.55 279.599 129.526C282.111 126.805 284.417 123.88 286.8 121.045C287.52 120.188 288.728 117.994 289.848 118.019C290.633 118.038 292.017 119.886 292.428 120.465C293.954 122.618 293.947 126.506 294.706 129.193C296.558 135.746 299.897 142.146 304.477 147.203C309.031 152.231 314.865 155.807 320.251 159.849C326.087 164.228 331.615 168.71 336.242 174.366C338.079 172.666 340.08 171.162 341.924 169.441C343.68 167.802 345.968 166.472 347.518 164.68ZM261.105 194.754C262.41 194.768 264.62 195.571 265.788 195.087C262.325 191.255 259.145 187.968 254.763 185.159C250.216 182.245 245.684 179.357 241.268 176.249C232.368 169.985 225.822 162.556 222.104 152.124C221.147 149.438 220.506 146.62 219.804 143.859C219.427 142.372 218.676 135.414 217.4 134.813C216.644 134.457 210.955 138.455 210.054 138.953C207.947 140.119 205.832 141.022 203.653 141.934C198.97 143.895 194.143 145.39 189.177 146.639C183.224 148.136 179.168 145.659 175.48 140.98C171.296 135.671 167.819 129.681 163.993 124.106C162.253 121.57 160.812 119.038 159.527 116.242C158.686 114.411 155.351 109.474 156.503 107.524C159.791 110.028 160.974 115.005 163.214 118.356C166.005 122.533 169.151 126.472 171.957 130.645C174.316 134.154 176.723 138.407 180.209 140.929C183.275 143.148 186.188 142.466 189.488 141.469C193.487 140.26 197.632 139.665 201.552 138.166C205.793 136.544 209.806 134.243 213.945 132.367C215.874 131.492 218.184 130.995 220.002 129.905C221.569 128.965 221.335 128.469 221.45 126.469C221.585 124.135 221.739 121.799 221.843 119.463C221.912 117.893 221.063 115.765 221.639 114.593C216.941 115.408 212.349 116.499 207.684 117.464C205.13 117.992 202.667 118.646 200.086 119.061C199.103 119.219 197.758 119.214 196.877 119.643C196.175 119.441 195.816 119.569 195.803 120.027C195.769 120.276 195.716 120.521 195.643 120.763C194.202 121.418 193.364 120.012 192.115 118.664C190.573 117 189.419 115.126 188.287 113.171C185.758 108.799 182.843 104.688 180.503 100.193C178.117 95.6111 176.18 90.7053 174.157 85.9516C172.302 81.5903 171.114 76.8735 169.063 72.6155C168.148 70.7148 166.989 69.1431 165.635 67.5375C164.517 66.2125 162.798 63.3543 161.129 62.7456C160.688 62.5847 159.532 62.8551 159.031 62.8194C158.032 62.748 157.142 62.3813 156.119 62.4615C153.906 62.6348 151.493 64.0346 149.724 65.2652C150.867 66.2842 153.726 67.5227 151.672 69.3582C149.679 71.1402 148.578 67.9437 147.817 66.5432C144.236 69.4845 144.753 73.5401 144.34 77.6959C144.123 79.8656 143.555 82.0023 143.188 84.1394C142.924 85.6774 143.109 87.2683 143.034 88.8386C142.841 92.829 142.44 96.6486 142.46 100.583C142.48 104.789 142.767 108.85 143.103 113.025C143.67 120.054 144.968 127.086 146.081 134.059C146.707 137.979 147.564 141.787 148.396 145.643C149.34 150.02 151.087 154.165 152.066 158.531C153.064 157.262 153.815 157.256 155.429 157.424C156.671 157.553 157.505 157.258 157.432 158.981C157.385 160.099 156.399 160.953 155.308 161.148C153.885 161.402 153.402 160.692 152.669 159.615C152.497 161.655 153.87 163.789 154.412 165.782C154.926 167.671 155.266 169.522 156.129 171.33C156.972 173.093 157.693 174.833 158.545 176.579C158.938 177.383 159.305 178.199 159.702 179C159.902 179.406 160.139 179.965 160.438 180.307C161.141 181.109 161.029 180.721 161.851 181.178C163.643 182.173 162.97 181.925 163.012 183.98C163.053 186.007 164.092 187.497 165.759 188.636C169.296 191.054 172.785 191.726 176.806 192.948C180.552 194.086 184.498 195.063 188.466 195.041C193.324 195.014 198.119 194.377 202.977 194.312C208.338 194.241 213.75 194.27 219.099 194.456C221.303 194.532 223.349 194.63 225.477 195.193C227.947 195.846 230.337 195.587 232.883 195.488C238.316 195.277 243.936 194.856 249.297 194.819C253.157 194.791 257.23 194.522 261.105 194.754ZM401.972 196.86C402.938 197.37 405.103 197.161 406.073 197.02C407.784 196.77 407.967 196.092 409.052 194.567C410.92 191.941 412.436 189.426 413.535 186.384C415.638 180.561 416.497 174.604 417.42 168.514C418.446 161.746 416.573 154.731 415.902 148.009C415.748 146.467 415.537 144.939 415.294 143.408C415.148 142.493 415.11 139.381 414.508 138.588C413.351 137.066 407.971 138.294 405.856 138.432C399.952 138.818 394.01 138.908 388.109 138.975C384.962 139.01 381.798 139.142 378.683 139.166C377.253 139.178 375.854 139.107 374.418 138.967C373.938 138.921 373.469 138.811 372.985 138.784C371.329 138.692 371.453 138.452 371.025 139.919C370.275 142.489 370.852 145.758 370.655 148.425C370.392 151.989 370.249 155.603 370.314 159.175C370.375 162.475 370.262 165.768 370.385 169.076C370.437 170.446 370.586 171.563 370.948 172.871C371.356 174.35 371.806 177.805 372.823 178.829C372.939 178.945 373.804 178.674 374.033 178.964C374.387 179.411 374.322 180.357 374.565 180.646C375.351 181.581 376.976 181.655 378.154 182.075C381.388 183.229 384.354 184.48 387.402 186.035C390.125 187.424 394.515 188.607 396.152 191.347C396.903 192.604 397.004 194.26 397.695 195.557C398.481 197.033 396.908 196.261 398.834 196.86C399.701 197.13 401.083 196.86 401.972 196.86ZM114.894 180.16C114.649 183.57 112.728 186.818 112.059 190.17C111.746 191.74 111.215 193.283 110.848 194.844C110.495 196.341 109.221 198.114 109.35 199.596C114.053 197.92 118.816 197.499 123.732 197.047C128.391 196.618 133.312 196.448 137.932 196.446C142.639 196.443 147.673 195.984 152.52 195.912C157.589 195.838 162.734 195.707 167.73 195.181C165.118 193.246 161.849 191.429 159.92 188.737C157.824 185.811 156.735 182.145 154.889 179.057C151.187 172.861 148.833 165.172 146.892 158.21C142.974 144.157 138.595 130.363 137.54 115.786C135.531 116.814 133.937 120.805 132.931 122.792C131.648 125.329 130.976 128.079 130.141 130.776C128.423 136.33 127.234 142.089 125.13 147.591C121.109 158.107 118.525 169.438 114.894 180.16ZM370.187 98.2525C371.057 104.538 372.881 110.904 372.951 117.266C372.966 118.665 372.729 120.219 373.021 121.599C373.332 123.072 374.346 124.375 374.931 125.775C375.859 127.997 378.21 132.553 375.943 134.436C375.897 132.649 374.261 130.379 373.437 128.817C372.196 126.462 370.564 124.309 369.219 122.013C366.401 117.207 363.244 112.503 359.613 108.266C356.077 104.139 352.001 100.478 348.251 96.5477C347.124 95.3668 338.085 84.0015 337.726 84.1603C340.529 94.9723 345.296 104.38 351.818 113.432C355.016 117.87 358.854 120.79 362.747 124.55C365.989 127.681 372.099 131.029 370.978 136.159C376.046 135.672 381.08 134.893 386.194 134.893C385.353 128.421 384.709 122.051 383.207 115.685C381.503 108.457 380.349 101.012 378.906 93.7197C377.434 86.2747 374.938 79.0672 373.385 71.6363C371.897 64.5207 370.62 57.4179 369.529 50.223C368.628 54.2097 368.961 58.5885 368.641 62.6561C368.314 66.8119 368.346 70.8912 368.455 75.0713C368.656 82.8357 369.484 90.5063 370.187 98.2525ZM392.147 61.2343C392.175 57.9109 392.819 54.6323 393.018 51.3168C393.079 50.2995 394.092 43.3593 393.147 42.997C392.37 44.6911 392.189 46.8591 391.483 48.6366C390.778 50.4124 389.835 52.1042 389.159 53.8923C387.693 57.7661 387.187 62.1493 387.029 66.2677C386.672 75.5832 386.488 84.8777 387.114 94.1931C387.382 98.186 387.588 102.186 387.515 106.186C387.434 110.588 386.76 114.409 387.578 118.776C388.389 123.099 388.898 127.405 389.168 131.791C389.357 134.87 389.433 134.652 392.371 134.436C394.492 134.28 396.633 134.447 398.757 134.35C397.764 122.35 397.602 110.325 396.016 98.3716C395.206 92.2732 395.185 86.0867 394.179 80.011C393.68 76.9929 392.842 74.0355 392.36 71.014C391.843 67.7698 392.098 64.5036 392.147 61.2343ZM177.339 53.6827C182.994 54.1726 189.009 55.8633 194.805 54.7469C193.85 54.3599 191.349 53.8261 192.475 52.2987C193.619 50.7455 195.547 52.7155 196.688 52.5121C197.392 52.3865 198.947 49.4452 199.38 48.8363C200.365 47.4523 200.483 47.2111 202.253 46.8563C203.968 46.5132 204.357 46.8848 204.574 45.18C204.823 43.2196 204.145 41.0156 204.212 39.011C204.357 34.6953 205.749 30.9108 207.045 26.8503C201.539 28.0481 196.156 29.4684 190.527 30.2404C188.12 30.5704 184.377 31.3317 182.19 29.6959C181.622 29.2705 181.713 28.6961 181.248 28.2031C180.468 27.3759 179.02 26.5203 177.914 26.2846C171.105 24.8351 170.441 34.542 173.853 38.1742C174.707 39.0844 175.897 39.5339 176.772 40.3679C177.94 41.4802 178.036 42.6518 178.206 44.3497C178.526 47.5336 178.092 50.7298 176.733 53.6422L177.339 53.6827ZM259.969 99.5086C261.979 99.8901 264.077 99.8029 266.092 100.129C266.808 100.244 268.955 100.648 269.585 100.229C270.546 99.5899 270.888 97.2456 271.342 96.1539C272.142 94.2336 273.273 92.5587 274.035 90.6034C277.15 82.6171 280.055 74.5989 283.823 66.8853C281.707 65.8616 280.589 65.7459 279.134 65.5521C277.618 65.35 277.492 64.5315 276.046 64.1462C274.671 63.7801 273.806 63.0281 272.443 62.6023C271.693 62.368 269.066 60.2114 268.326 60.0292C267.147 59.7393 264.396 57.5398 263.695 58.3138C262.976 59.1077 260.964 66.4893 260.573 67.5147C259.532 70.2467 255.099 78.958 254.226 81.7528C253.354 84.5475 241.36 81.4097 236.386 82.2674C238.101 86.2129 242.697 95.843 247.5 95.4999C250.433 96.9032 254.842 94.6261 254.742 96.708C254.645 98.7394 254.349 98.8687 256.381 99.1933C257.406 99.3569 259.004 99.9662 259.969 99.5086ZM392.225 194.583C392.748 194.827 393.242 194.795 393.705 194.485C389.166 192.568 384.751 189.909 380.016 188.594C375.574 187.361 371.256 185.887 366.977 184.368C363.5 183.133 360.374 182.172 357.23 180C355.322 178.681 353.627 177.198 352.315 175.271C350.856 173.125 350.531 170.072 348.95 168.14C346.816 170.483 344.309 172.258 341.784 174.12C340.911 174.765 338.815 176.169 338.517 177.166C338.139 178.424 339.15 179.628 339.649 180.901C340.928 184.162 341.554 187.421 342.248 190.811C342.526 192.169 343.127 194.212 344.243 194.781C345.259 195.299 348.202 194.922 349.466 194.826C356.064 194.326 362.544 193.814 369.182 194.27C376.693 194.785 384.734 195.14 392.225 194.583ZM405.402 134.162C406.601 134.166 407.773 134.016 408.967 134.016C408.278 130.796 409.89 126.629 410.461 123.415C411.101 119.82 411.588 116.103 412.014 112.479C412.913 104.845 413.32 97.3046 413.332 89.6153C413.343 82.1749 414.698 75.3756 416.595 68.223C418.632 60.5413 421.968 53.6333 424.727 46.225C421.701 47.8245 420.026 51.5672 418.436 54.4286C416.426 58.0464 415.088 62.0522 414.267 66.1137C412.684 73.9487 410.947 81.8074 409.12 89.6294C407.218 97.7739 406.099 105.993 403.92 114.071C402.857 118.01 401.412 122.857 401.332 126.919C401.298 128.6 400.792 132.119 401.554 133.579C402.266 134.944 403.841 134.301 405.402 134.162ZM224.407 124.056C224.344 124.893 224.285 125.688 224.136 126.514C225.797 126.499 227.9 124.775 229.325 124.002C231.06 123.059 232.798 122.02 234.495 121.072C237.771 119.243 241.491 118.038 244.989 116.535C249.008 114.809 252.702 112.723 256.546 110.644C257.888 109.918 267.536 105.736 267.374 104.594C265.256 104.523 263.138 104.453 261.019 104.382C259.203 104.322 256.391 104.732 254.652 104.171C253.699 103.863 252.63 102.731 252.27 101.844C251.915 100.966 252.714 96.9299 252.25 96.6726C249.879 99.0931 248.388 102.31 246.269 104.921C243.926 107.807 240.9 109.493 237.564 111.026C233.88 112.72 230.067 114.032 226.303 115.483C224.715 116.095 224.746 116.446 224.608 118.186C224.453 120.132 224.47 122.106 224.407 124.056ZM415.831 197.257C419.824 197.685 423.916 197.441 427.941 197.775C429.405 197.897 431.435 198.078 429.962 200.043C429.034 201.281 426.062 200.884 424.714 200.97C421.095 201.2 417.263 201.076 413.636 201.023C412.872 201.012 412.028 200.785 411.256 200.836C410.365 200.894 409.298 201.535 408.486 201.53C407.985 201.527 407.806 200.999 407.374 200.951C406.434 200.845 405.494 200.768 404.546 200.768C390.208 200.771 376.068 200.483 361.766 200.468C354.927 200.461 347.978 200.343 341.143 200.022C339.707 199.954 331.532 200.248 331.758 197.663C331.875 196.332 334.543 196.144 335.517 196.003C336.238 195.898 336.987 195.914 337.71 195.876C339.63 195.773 340.471 196.235 340.066 194.133C338.53 186.163 335.776 179.576 329.893 173.845C325.082 169.159 319.289 164.908 313.84 160.995C307.224 156.243 301.857 151.245 297.929 143.974C295.635 139.728 293.715 135.387 292.537 130.693C292.113 129.004 292.103 127.083 291.583 125.454C291.183 124.201 290.272 123.323 289.735 122.025C283.153 133.019 274.429 142.218 266.429 152.131C262.607 156.867 258.247 161.365 253.68 165.485C252.325 166.708 251.06 167.985 249.795 169.3C248.737 170.402 247.057 171.38 246.164 172.602C245.307 173.774 245.518 173.718 246.822 174.649C248.547 175.879 250.447 176.901 252.198 178.1C254.998 180.018 258.054 181.638 260.557 183.946C263.264 186.441 265.629 189.332 267.996 192.146C269.573 194.022 271.642 196.428 272.039 198.8C272.17 199.584 272.669 201.525 272.011 202.1C271.448 202.591 271.505 202.404 270.806 202.105C269.891 201.712 269.622 200.812 268.504 200.382C265.643 199.285 262.18 199.662 259.203 199.648C256.226 199.635 253.223 199.969 250.246 199.957C243.449 199.929 236.797 200.48 230.001 200.775C222.784 201.089 215.479 200.336 208.286 200.442C202.956 200.521 197.485 200.123 192.008 200.419C189.191 200.571 186.424 200.219 183.677 200.179C180.081 200.128 176.388 200.617 172.761 200.686C166.808 200.801 160.927 200.801 154.938 200.944C142.054 201.252 129.24 201.571 116.349 201.775C114.629 201.802 112.747 201.743 111.048 201.937C109.244 202.143 110.175 202.526 108.938 203.175C105.473 204.993 106.273 198.256 106.356 196.931C106.802 189.831 108.604 182.867 110.77 176.126C112.826 169.732 114.494 163.041 116.234 156.509C118.14 149.36 120.622 142.504 122.876 135.425C125.186 128.172 127.066 120.636 131.261 114.206C132.216 112.742 133.204 111.166 134.741 110.243C136.464 109.208 136.538 109.812 136.537 107.918C136.535 106.134 136.645 103.75 136.224 102.048C135.844 100.51 135.902 101.422 135.046 100.317C134.349 99.4187 133.619 98.8045 133.119 97.7135C130.046 100.829 123.013 99.185 120.044 96.9416C116.41 94.1955 113.643 89.5629 112.629 85.1508C111.814 81.6077 112.814 74.8541 116.735 73.1504C118.647 72.3197 125.668 71.6919 125.949 68.985C126.094 67.5876 123.623 65.6227 123.053 64.4212C121.996 62.1953 120.981 59.2345 120.687 56.7945C120.114 52.0318 122.276 46.706 125.72 43.4889C132.038 37.5872 143.155 34.5584 151.283 38.3029C149.565 31.742 148.528 26.0822 149.393 19.2575C150.138 13.3781 153.607 10.0886 158.381 7.16C166.526 2.16184 177.603 0.189098 186.917 1.64241C189.033 1.9728 191.064 2.68127 193.024 3.24496C195.871 4.0639 199.279 3.79115 201.967 5.12174C203.916 6.08615 205.396 8.00742 207.108 9.29022C209.107 10.7878 210.767 13.023 212.156 15.0901C215.125 19.5104 213.965 27.7142 211.479 32.1513C210.947 33.1031 210.288 33.9042 209.406 34.5536C208.488 35.2295 207.089 35.4398 206.616 36.3164C205.404 38.5619 206.573 43.4231 206.734 45.8501C206.923 48.6682 205.498 50.785 202.302 51.0097C200.454 51.1401 200.395 50.0676 199.51 52.2743C198.936 53.7046 198.415 55.2629 197.587 56.5742C195.88 59.2767 192.754 59.0129 189.906 58.9398C186.61 58.8547 183.363 58.3339 180.065 58.0052C180.936 60.7962 183.321 62.9625 184.81 65.4488C186.823 68.8117 188.035 71.5993 188.362 75.5173C188.613 78.5275 188.071 80.9048 186.011 83.1451C185.159 84.0725 184.403 84.1181 184.614 85.1878C184.743 85.8404 185.872 86.917 186.271 87.4378C187.328 88.8156 188.554 90.0802 189.484 91.5517C193.061 97.2133 194.118 105.844 194.127 112.435C194.127 112.737 194.289 113.379 194.155 113.692C194.056 113.923 193.306 114.654 193.295 114.717C193.148 115.564 193.974 117.017 195.271 117.161C196.632 117.311 199.126 116.175 200.393 115.802C202.42 115.204 204.486 114.763 206.508 114.149C209.775 113.158 213.026 112.367 216.347 111.591C217.848 111.24 219.357 110.948 220.862 110.62C222.577 110.246 223.373 109.525 224.259 111.27C225.018 112.767 224.546 113.038 226.385 112.284C228.211 111.534 229.996 110.605 231.779 109.759C234.923 108.267 238.668 106.937 241.381 104.735C245.134 94.6185 248.737 98.7311 246.678 96.6726C247.193 96.5011 251.913 96.1539 251.913 96.1539C251.913 96.1539 247.536 109.759 233.641 83.4682C230.382 77.1211 251.231 83.0661 251.913 80.0373C252.762 76.2641 256.009 72.0337 257.348 68.4348C257.87 67.0326 259.079 63.5194 259.921 62.2592C260.144 61.9251 260.95 60.0292 261.979 56.5983C262.578 55.649 262.682 55.8535 262.837 54.7114C263.563 49.3747 267.247 54.5871 270.728 55.8108C272.195 56.3265 276.87 58.4542 281.707 59.8576C284.877 60.7775 286.874 61.0089 286.831 65.5521C286.809 67.8799 285.417 70.37 284.67 72.5489C284.006 74.4836 283.364 76.4258 282.69 78.3574C281.213 82.5886 279.421 86.6933 277.98 90.9376C277.323 92.8719 276.781 94.8515 275.866 96.6771C275.06 98.2875 273.473 100.17 272.785 101.824C281.232 98.2196 289.047 93.0088 298.503 93.3409C302.644 93.486 306.401 95.2265 308.688 98.867C311.555 103.43 313.441 108.539 316.243 113.144C326.436 129.897 338.594 145.116 349.784 161.175C350.643 162.409 351.749 163.576 352.047 165.101C352.241 166.096 351.864 167.091 352.097 168.047C352.581 170.033 355.027 172.514 356.686 173.655C359.865 175.843 365.033 178.93 369 178.657C366.51 172.673 366.543 166.117 366.659 159.735C366.769 153.672 367.424 147.658 368.202 141.658C368.378 140.3 368.531 139.042 368.921 137.726C369.369 136.217 369.984 136.36 368.643 135.003C366.579 132.913 364.124 131.194 362.043 129.079C357.543 124.504 352.93 120.918 349.388 115.455C346.02 110.259 342.466 104.913 339.973 99.2231C337.406 93.3656 336.379 87.1102 335.105 80.9068C334.588 78.3896 332.703 75.5794 333.081 72.9507C333.56 69.6286 335.101 72.0477 335.728 73.8355C337.642 79.293 342.123 84.1775 345.834 88.5665C349.844 93.308 354.749 97.2751 358.934 101.879C363.492 106.892 366.614 112.655 370.667 118.007C370.667 111.365 368.4 104.601 367.472 98.0302C366.656 92.2468 366.399 86.4453 365.883 80.6368C364.712 67.4425 365.724 53.8594 367.369 40.7594C368.15 34.5379 367.707 28.4628 367.731 22.2201C367.738 20.2333 366.916 15.6541 367.964 13.891C369.971 10.514 371.142 17.8982 371.244 18.9992C371.851 25.5576 370.762 32.0429 371.318 38.5732C371.899 45.3927 373.161 52.0208 374.234 58.7614C375.396 66.0598 377.289 73.1936 379.101 80.3521C381.004 87.868 382.604 95.5408 384.72 102.997C385.29 100.653 384.49 97.7739 384.332 95.3871C384.106 91.9713 383.665 88.5549 383.627 85.1302C383.566 79.6721 383.523 74.1127 383.832 68.68C384.137 63.3251 384.045 57.7139 385.687 52.555C386.466 50.1064 387.61 47.7175 388.728 45.4109C390.108 42.5667 390.596 39.809 391.36 36.784C392.014 34.1934 392.972 31.671 393.408 29.0286C393.679 27.3852 394.436 22.534 396.317 26.2095C397.41 28.3428 396.938 31.5053 396.968 33.7971C397.007 36.7353 396.558 39.5922 396.489 42.518C396.354 48.2585 396.258 53.9922 395.83 59.723C395.381 65.7356 395.773 71.1241 396.917 77.0485C398.169 83.5335 398.535 90.0325 399.184 96.5968C399.518 99.9861 400.082 103.357 400.355 106.751C400.499 108.548 399.76 113.702 401.048 114.982C401.172 111.869 402.064 108.753 402.741 105.72C403.542 102.126 403.865 98.3479 404.456 94.7026C405.412 88.7968 407.267 83.1568 408.495 77.3171C411.025 65.2793 413.128 49.8079 423.732 41.9286C425.119 40.8976 426.644 40.1367 428.144 39.2882C428.993 38.8079 430.254 37.5652 431.226 37.3484C432.286 37.1117 432.729 37.2956 433.159 38.5259C433.758 40.241 432.662 41.0421 431.638 42.2878C428.097 46.5983 426.584 52.1241 424.397 57.1794C419.389 68.7554 417.174 80.9651 417.148 93.4781C417.135 100.029 416.683 106.347 415.984 112.857C415.233 119.864 414.243 127.275 412.114 134.015C414.249 134.494 416.566 133.78 417.145 136.262C417.288 136.872 417.03 137.593 417.188 138.386C417.341 139.158 417.709 139.925 417.927 140.683C418.377 142.252 418.615 143.8 418.834 145.411C419.68 151.638 421.133 157.56 421.288 163.873C421.431 169.708 420.288 175.621 419.236 181.344C418.175 187.108 415.134 192.022 412.739 197.236C413.77 197.236 414.8 197.246 415.831 197.257Z" fill="#333333"/>
<path d="M289.049 198.059C289.432 198.083 289.806 198.124 290.167 198.175C290.201 198.042 290.281 197.911 290.43 197.825C290.427 197.79 290.425 197.753 290.421 197.716C290.204 195.057 286.547 199.002 287.108 197.429C287.668 195.856 290.815 191.335 291.104 189.527C291.393 187.719 292.623 183.651 293.22 183.651C293.697 183.651 294.708 185.23 295.154 186.019H295.805C296.004 185.206 296.587 183.593 297.324 183.651C298.247 183.723 299.476 190.685 299.512 190.92C299.548 191.155 298.572 192.764 297.957 192.872C297.465 192.959 297.415 193.632 297.451 193.957C297.439 195.525 297.44 198.728 297.541 199.002C297.668 199.346 296.308 198.662 296.254 199.603C296.228 200.058 295.854 199.633 295.537 199.149C295.351 199.249 295.145 199.262 294.849 199.189C295.044 199.392 295.125 199.611 294.848 199.189C294.7 199.153 294.53 199.095 294.328 199.017C294.143 199.068 293.703 198.962 293.084 198.804C292.192 198.996 291.246 199.117 290.422 199.002C287.706 198.625 288.695 198.208 289.044 198.061L289.049 198.059Z" fill="#FFA756"/>
<path d="M294.07 186.211C294.37 185.554 293.686 184.928 293.306 184.698C292.972 184.582 292.677 186.225 292.571 187.061C292.946 187.052 293.77 186.868 294.07 186.211Z" fill="white"/>
<path d="M296.552 185.958C296.237 185.372 296.684 184.652 296.947 184.365C297.522 184.106 297.892 185.638 298.004 186.437C297.652 186.522 296.868 186.544 296.552 185.958Z" fill="white"/>
<ellipse cx="296.601" cy="189.918" rx="0.89238" ry="0.38872" fill="white"/>
<path fill-rule="evenodd" clip-rule="evenodd" d="M280.449 183.772C279.314 184.093 273.832 184.699 273.833 186.419C273.833 187.451 279.308 187.43 280.277 187.543C280.335 186.286 280.392 185.029 280.449 183.772ZM292.55 195.642C295.709 196.243 299.998 195.398 302.017 192.613C302.961 191.312 303.409 189.333 303.716 187.779C304.01 186.299 304.915 182.606 304.299 181.219C303.542 179.515 296.284 181.295 294.17 181.491C290.482 181.831 286.669 181.871 282.979 181.631C282.979 185.441 282.784 189.155 285.025 192.434C286.642 194.801 289.678 195.359 292.55 195.642ZM291.915 200.349C288.483 199.092 284.879 199.909 282.644 196.224C282.077 195.289 281.599 194.284 281.256 193.245C281.088 192.79 280.958 192.324 280.865 191.847C281.04 190.82 280.663 190.53 279.736 190.978C277.917 190.624 275.922 191.873 274.006 191.505C269.357 190.612 270.202 183.954 273.321 181.649C273.937 181.194 274.553 181.067 275.258 180.842C276.813 180.346 277.655 180.9 279.077 180.759C280.226 180.646 280.542 179.44 281.777 178.91C282.586 178.562 283.708 178.589 284.559 178.554C289.008 178.371 293.471 178.373 297.948 178.083C300.037 177.948 302.292 178.279 304.337 177.922C305.295 177.754 305.158 177.117 306.065 177.676C307.004 178.255 306.598 180.397 306.551 181.251C306.277 186.189 305.983 191.485 303.338 195.802C300.918 199.752 296.155 200.156 291.915 200.349Z" fill="#333333"/>
<path fill-rule="evenodd" clip-rule="evenodd" d="M110.634 201.709C111.738 201.697 112.842 201.686 113.943 201.674C112.837 201.686 111.735 201.698 110.634 201.709Z" fill="#333333"/>
<path fill-rule="evenodd" clip-rule="evenodd" d="M417.293 96.4243C417.291 95.3635 417.288 94.3027 417.286 93.2439C417.288 94.3054 417.29 95.3649 417.293 96.4243Z" fill="#333333"/>
<path fill-rule="evenodd" clip-rule="evenodd" d="M136.365 100.781C136.362 101.814 136.359 102.848 136.355 103.878C136.358 102.844 136.362 101.812 136.365 100.781Z" fill="#333333"/>
<path fill-rule="evenodd" clip-rule="evenodd" d="M228.164 200.538C229.043 200.539 229.922 200.54 230.796 200.542C229.916 200.541 229.041 200.54 228.164 200.538Z" fill="#333333"/>
<path fill-rule="evenodd" clip-rule="evenodd" d="M174.815 200.327C175.694 200.33 176.572 200.333 177.447 200.336C176.567 200.334 175.691 200.33 174.815 200.327Z" fill="#333333"/>
<path fill-rule="evenodd" clip-rule="evenodd" d="M366.912 157.41C366.874 158.107 366.835 158.804 366.796 159.5C366.835 158.802 366.874 158.106 366.912 157.41Z" fill="#333333"/>
<path fill-rule="evenodd" clip-rule="evenodd" d="M415.969 197.023C415.29 197.015 414.611 197.009 413.932 197.001C414.614 196.717 415.293 196.73 415.969 197.023Z" fill="#333333"/>
<path fill-rule="evenodd" clip-rule="evenodd" d="M355.686 200.111C356.174 200.104 356.661 200.096 357.144 200.088C356.655 200.095 356.171 200.103 355.686 200.111Z" fill="#333333"/>
<path fill-rule="evenodd" clip-rule="evenodd" d="M417.028 105.032C417.04 104.504 417.052 103.977 417.064 103.452C417.052 103.98 417.04 104.506 417.028 105.032Z" fill="#333333"/>
<path fill-rule="evenodd" clip-rule="evenodd" d="M371.456 38.3394C371.416 37.7956 371.376 37.2521 371.335 36.7097C371.376 37.2538 371.416 37.7966 371.456 38.3394Z" fill="#333333"/>
<path fill-rule="evenodd" clip-rule="evenodd" d="M417.269 98.501C417.275 97.9558 417.282 97.411 417.288 96.8679C417.282 97.4134 417.275 97.9572 417.269 98.501Z" fill="#333333"/>
<path fill-rule="evenodd" clip-rule="evenodd" d="M264.018 199.435C264.451 199.442 264.885 199.448 265.314 199.453C264.88 199.446 264.449 199.441 264.018 199.435Z" fill="#333333"/>
<path fill-rule="evenodd" clip-rule="evenodd" d="M375.626 200.324C376.049 200.332 376.473 200.341 376.892 200.35C376.467 200.342 376.047 200.333 375.626 200.324Z" fill="#333333"/>
<path fill-rule="evenodd" clip-rule="evenodd" d="M421.377 161.998C421.347 161.52 421.316 161.042 421.286 160.565C421.317 161.043 421.347 161.521 421.377 161.998Z" fill="#333333"/>
<path fill-rule="evenodd" clip-rule="evenodd" d="M413.773 200.789C414.118 200.787 414.463 200.785 414.804 200.784C414.458 200.786 414.115 200.788 413.773 200.789Z" fill="#333333"/>
<path fill-rule="evenodd" clip-rule="evenodd" d="M366.799 200.346C367.14 200.338 367.482 200.329 367.819 200.321C367.477 200.33 367.137 200.338 366.799 200.346Z" fill="#333333"/>
<path fill-rule="evenodd" clip-rule="evenodd" d="M290.055 200.085C290.431 200.083 290.806 200.081 291.179 200.078C290.802 200.08 290.428 200.083 290.055 200.085Z" fill="#333333"/>
<path fill-rule="evenodd" clip-rule="evenodd" d="M203.388 200.084C203.746 200.086 204.103 200.089 204.456 200.092C204.098 200.09 203.743 200.087 203.388 200.084Z" fill="#333333"/>
<path fill-rule="evenodd" clip-rule="evenodd" d="M182.305 200.141C182.67 200.121 183.033 200.1 183.394 200.081C183.029 200.101 182.667 200.121 182.305 200.141Z" fill="#333333"/>
<path fill-rule="evenodd" clip-rule="evenodd" d="M283.243 61.3229C282.701 61.2763 282.159 61.2296 281.617 61.1826C282.159 61.2207 282.733 60.8996 283.243 61.3229Z" fill="#333333"/>
<path fill-rule="evenodd" clip-rule="evenodd" d="M421.429 197.229C420.894 197.175 420.359 197.121 419.825 197.067C420.36 197.121 420.894 197.175 421.429 197.229Z" fill="#333333"/>
<path fill-rule="evenodd" clip-rule="evenodd" d="M384.145 64.6143C384.109 65.0826 384.073 65.5512 384.037 66.0182C384.073 65.5492 384.109 65.0815 384.145 64.6143Z" fill="#333333"/>
<path fill-rule="evenodd" clip-rule="evenodd" d="M417.403 84.1397C417.44 83.6958 417.476 83.2518 417.512 82.8096C417.476 83.2542 417.439 83.6968 417.403 84.1397Z" fill="#333333"/>
<path fill-rule="evenodd" clip-rule="evenodd" d="M383.932 71.8785C383.894 72.3462 383.855 72.8134 383.817 73.2794C383.855 72.8114 383.894 72.3448 383.932 71.8785Z" fill="#333333"/>
<path fill-rule="evenodd" clip-rule="evenodd" d="M417.177 102.062C417.173 101.61 417.17 101.158 417.167 100.708C417.458 101.158 417.447 101.609 417.177 102.062Z" fill="#333333"/>
<path fill-rule="evenodd" clip-rule="evenodd" d="M366.92 166.95C366.916 167.403 366.912 167.856 366.907 168.307C366.608 167.85 366.668 167.399 366.92 166.95Z" fill="#333333"/>
<path fill-rule="evenodd" clip-rule="evenodd" d="M400.989 114.553C400.937 114.095 400.885 113.636 400.833 113.179C400.885 113.638 400.937 114.096 400.989 114.553Z" fill="#333333"/>
<path fill-rule="evenodd" clip-rule="evenodd" d="M118.882 72.4811C118.528 72.9494 118.045 72.6286 117.624 72.6856C118.044 72.6173 118.463 72.5494 118.882 72.4811Z" fill="#333333"/>
<path fill-rule="evenodd" clip-rule="evenodd" d="M294.127 178.408C293.68 178.409 293.232 178.409 292.784 178.41C293.232 178.409 293.68 178.408 294.127 178.408Z" fill="#333333"/>
<path fill-rule="evenodd" clip-rule="evenodd" d="M365.66 74.405C365.702 74.7859 365.743 75.1667 365.785 75.5461C365.743 75.1646 365.702 74.7848 365.66 74.405Z" fill="#333333"/>
<path fill-rule="evenodd" clip-rule="evenodd" d="M144.388 36.5831C143.938 36.592 143.488 36.6009 143.038 36.6098C143.483 36.3477 143.932 36.2719 144.388 36.5831Z" fill="#333333"/>
<path fill-rule="evenodd" clip-rule="evenodd" d="M383.921 78.4662C383.892 78.8655 383.863 79.2645 383.834 79.6622C383.863 79.2628 383.892 78.8645 383.921 78.4662Z" fill="#333333"/>
<path fill-rule="evenodd" clip-rule="evenodd" d="M371.577 29.4453C371.612 29.0813 371.647 28.7173 371.681 28.3553C371.646 28.72 371.612 29.0827 371.577 29.4453Z" fill="#333333"/>
<path fill-rule="evenodd" clip-rule="evenodd" d="M368.04 28.3052C368.004 28.7001 367.969 29.0953 367.934 29.4888C367.969 29.0932 368.004 28.699 368.04 28.3052Z" fill="#333333"/>
<path fill-rule="evenodd" clip-rule="evenodd" d="M172.518 1.92468C172.06 1.98026 171.602 2.03584 171.144 2.09108C171.602 2.0355 172.06 1.98026 172.518 1.92468Z" fill="#333333"/>
<path fill-rule="evenodd" clip-rule="evenodd" d="M139.436 36.8973C138.966 36.9454 138.496 36.9934 138.027 37.0414C138.497 36.9934 138.967 36.9454 139.436 36.8973Z" fill="#333333"/>
<path fill-rule="evenodd" clip-rule="evenodd" d="M397.001 38.055C397.03 37.6875 397.059 37.3197 397.087 36.9543C397.059 37.3221 397.03 37.6885 397.001 38.055Z" fill="#333333"/>
<path fill-rule="evenodd" clip-rule="evenodd" d="M124.009 98.6974C124.28 98.7015 124.55 98.7053 124.817 98.7094C124.545 98.7053 124.277 98.7015 124.009 98.6974Z" fill="#333333"/>
<path fill-rule="evenodd" clip-rule="evenodd" d="M368.053 144.048C368.026 144.455 367.999 144.862 367.972 145.268C368 144.861 368.027 144.454 368.053 144.048Z" fill="#333333"/>
<path fill-rule="evenodd" clip-rule="evenodd" d="M395.667 64.8634C395.656 64.4713 395.645 64.0795 395.634 63.6884C395.646 64.0808 395.656 64.472 395.667 64.8634Z" fill="#333333"/>
<path fill-rule="evenodd" clip-rule="evenodd" d="M184.048 0.996788C183.63 0.996788 183.213 0.997131 182.796 0.997131C183.213 0.710312 183.63 0.717517 184.048 0.996788Z" fill="#333333"/>
<path fill-rule="evenodd" clip-rule="evenodd" d="M335.486 199.419C335.757 199.425 336.028 199.431 336.296 199.437C336.023 199.432 335.754 199.425 335.486 199.419Z" fill="#333333"/>
<path fill-rule="evenodd" clip-rule="evenodd" d="M345.695 199.896C345.965 199.886 346.236 199.876 346.503 199.867C346.231 199.877 345.963 199.886 345.695 199.896Z" fill="#333333"/>
<path fill-rule="evenodd" clip-rule="evenodd" d="M185.921 200.084C186.204 200.091 186.486 200.098 186.765 200.105C186.481 200.098 186.201 200.091 185.921 200.084Z" fill="#333333"/>
<path fill-rule="evenodd" clip-rule="evenodd" d="M421.142 157.461C421.102 157.073 421.062 156.685 421.022 156.299C421.062 156.688 421.102 157.074 421.142 157.461Z" fill="#333333"/>
<path fill-rule="evenodd" clip-rule="evenodd" d="M384.267 92.1039C384.299 92.4734 384.331 92.8429 384.362 93.21C384.331 92.8401 384.299 92.472 384.267 92.1039Z" fill="#333333"/>
<path fill-rule="evenodd" clip-rule="evenodd" d="M398.458 85.7597C398.414 85.3679 398.37 84.9761 398.327 84.5857C398.37 84.9778 398.414 85.3686 398.458 85.7597Z" fill="#333333"/>
<path fill-rule="evenodd" clip-rule="evenodd" d="M188.212 200.318C188.497 200.313 188.782 200.309 189.064 200.305C188.778 200.31 188.495 200.314 188.212 200.318Z" fill="#333333"/>
<path fill-rule="evenodd" clip-rule="evenodd" d="M291.915 200.349C292.193 200.336 292.469 200.324 292.743 200.311C292.465 200.324 292.19 200.336 291.915 200.349Z" fill="#333333"/>
<path fill-rule="evenodd" clip-rule="evenodd" d="M396.142 57.1504C396.129 56.7534 396.117 56.3565 396.104 55.9602C396.117 56.3575 396.129 56.7538 396.142 57.1504Z" fill="#333333"/>
<path fill-rule="evenodd" clip-rule="evenodd" d="M161.21 200.577C161.488 200.575 161.766 200.573 162.04 200.571C161.761 200.573 161.486 200.575 161.21 200.577Z" fill="#333333"/>
<path fill-rule="evenodd" clip-rule="evenodd" d="M396.026 200.573C396.311 200.576 396.597 200.579 396.879 200.582C396.592 200.579 396.309 200.576 396.026 200.573Z" fill="#333333"/>
<path fill-rule="evenodd" clip-rule="evenodd" d="M402.192 200.539C402.468 200.558 402.744 200.578 403.016 200.597C402.739 200.578 402.466 200.558 402.192 200.539Z" fill="#333333"/>
<path fill-rule="evenodd" clip-rule="evenodd" d="M404.683 200.534C404.964 200.542 405.245 200.551 405.522 200.557C405.241 200.549 404.962 200.541 404.683 200.534Z" fill="#333333"/>
<path fill-rule="evenodd" clip-rule="evenodd" d="M417.472 87.3335C417.453 86.943 417.435 86.5522 417.417 86.1628C417.435 86.554 417.453 86.9437 417.472 87.3335Z" fill="#333333"/>
<path fill-rule="evenodd" clip-rule="evenodd" d="M229.004 195.416C229.858 195.372 230.712 195.327 231.566 195.283C230.712 195.327 229.858 195.372 229.004 195.416Z" fill="#333333"/>
<path fill-rule="evenodd" clip-rule="evenodd" d="M177.476 53.4486C178.217 53.5131 178.959 53.5776 179.7 53.6414C178.958 53.5773 178.217 53.5128 177.476 53.4486Z" fill="#333333"/>
<path fill-rule="evenodd" clip-rule="evenodd" d="M386.809 85.6821C386.832 86.3896 386.855 87.097 386.878 87.8024C386.855 87.0946 386.832 86.3885 386.809 85.6821Z" fill="#333333"/>
<path fill-rule="evenodd" clip-rule="evenodd" d="M402.109 196.626C402.883 196.673 403.657 196.72 404.431 196.767C403.652 196.802 402.862 197.024 402.109 196.626Z" fill="#333333"/>
<path fill-rule="evenodd" clip-rule="evenodd" d="M397.529 112.945C397.535 112.271 397.541 111.596 397.546 110.923C397.541 111.598 397.535 112.272 397.529 112.945Z" fill="#333333"/>
<path fill-rule="evenodd" clip-rule="evenodd" d="M395.548 134.148C396.227 134.157 396.907 134.167 397.586 134.176C396.906 134.166 396.227 134.157 395.548 134.148Z" fill="#333333"/>
<path fill-rule="evenodd" clip-rule="evenodd" d="M224.594 122.284C224.577 122.799 224.56 123.313 224.544 123.825C224.561 123.31 224.578 122.797 224.594 122.284Z" fill="#333333"/>
<path fill-rule="evenodd" clip-rule="evenodd" d="M406.851 100.507C406.823 101.019 406.795 101.53 406.768 102.04C406.796 101.527 406.824 101.017 406.851 100.507Z" fill="#333333"/>
<path fill-rule="evenodd" clip-rule="evenodd" d="M392.362 194.349C392.856 194.315 393.35 194.282 393.843 194.25C393.472 194.548 393.098 194.572 392.362 194.349Z" fill="#333333"/>
<path fill-rule="evenodd" clip-rule="evenodd" d="M389.056 127.448C389.09 127.999 389.124 128.551 389.158 129.101C389.124 128.549 389.09 127.998 389.056 127.448Z" fill="#333333"/>
<path fill-rule="evenodd" clip-rule="evenodd" d="M204.334 40.3714C204.339 39.8386 204.344 39.3058 204.35 38.775C204.345 39.3085 204.339 39.84 204.334 40.3714Z" fill="#333333"/>
<path fill-rule="evenodd" clip-rule="evenodd" d="M389.654 134.26L391.495 134.22C390.888 134.513 390.274 134.524 389.654 134.26Z" fill="#333333"/>
<path fill-rule="evenodd" clip-rule="evenodd" d="M406.642 138.192C406.208 138.196 405.774 138.199 405.342 138.203C405.778 138.2 406.21 138.196 406.642 138.192Z" fill="#333333"/>
<path fill-rule="evenodd" clip-rule="evenodd" d="M247.632 194.561C248.233 194.569 248.834 194.577 249.435 194.584C248.829 194.888 248.228 194.931 247.632 194.561Z" fill="#333333"/>
<path fill-rule="evenodd" clip-rule="evenodd" d="M134.403 196.332C135.013 196.278 135.624 196.223 136.234 196.168C135.624 196.223 135.013 196.278 134.403 196.332Z" fill="#333333"/>
<path fill-rule="evenodd" clip-rule="evenodd" d="M387.02 90.2258C387.05 90.7796 387.08 91.3333 387.11 91.8853C387.08 91.3309 387.05 90.7785 387.02 90.2258Z" fill="#333333"/>
<path fill-rule="evenodd" clip-rule="evenodd" d="M192.305 54.7486C192.819 54.4951 193.338 54.4525 193.861 54.7212C193.342 54.7304 192.824 54.7397 192.305 54.7486Z" fill="#333333"/>
<path fill-rule="evenodd" clip-rule="evenodd" d="M370.198 96.6199C370.24 97.0868 370.283 97.5541 370.325 98.0197C370.282 97.552 370.24 97.0858 370.198 96.6199Z" fill="#333333"/>
<path fill-rule="evenodd" clip-rule="evenodd" d="M413.641 85.7212C413.377 85.2642 413.387 84.8096 413.655 84.3591C413.65 84.8137 413.646 85.2676 413.641 85.7212Z" fill="#333333"/>
<path fill-rule="evenodd" clip-rule="evenodd" d="M387.104 69.8569C387.104 70.3191 387.105 70.7815 387.105 71.2423C387.105 70.7791 387.104 70.318 387.104 69.8569Z" fill="#333333"/>
<path fill-rule="evenodd" clip-rule="evenodd" d="M405.54 133.928C406.069 133.765 406.599 133.536 407.126 133.933C406.597 133.931 406.069 133.929 405.54 133.928Z" fill="#333333"/>
<path fill-rule="evenodd" clip-rule="evenodd" d="M234.476 195.207C235.009 195.158 235.541 195.108 236.074 195.058C235.541 195.108 235.009 195.158 234.476 195.207Z" fill="#333333"/>
<path fill-rule="evenodd" clip-rule="evenodd" d="M161.452 195.208C161.94 194.994 162.427 194.882 162.907 195.225C162.422 195.219 161.937 195.214 161.452 195.208Z" fill="#333333"/>
<path fill-rule="evenodd" clip-rule="evenodd" d="M261.243 194.52C261.765 194.292 262.285 194.167 262.8 194.536C262.281 194.531 261.762 194.526 261.243 194.52Z" fill="#333333"/>
<path fill-rule="evenodd" clip-rule="evenodd" d="M145.113 127.027C145.152 127.498 145.191 127.969 145.23 128.439C145.19 127.967 145.151 127.497 145.113 127.027Z" fill="#333333"/>
<path fill-rule="evenodd" clip-rule="evenodd" d="M387.012 113.916C387.041 114.377 387.069 114.837 387.097 115.296C387.069 114.836 387.04 114.376 387.012 113.916Z" fill="#333333"/>
<path fill-rule="evenodd" clip-rule="evenodd" d="M144.781 72.3713C144.738 72.7422 144.696 73.1134 144.654 73.4822C144.696 73.1107 144.738 72.7412 144.781 72.3713Z" fill="#333333"/>
<path fill-rule="evenodd" clip-rule="evenodd" d="M115.031 179.925C115.005 180.287 114.979 180.647 114.953 181.006C114.98 180.645 115.005 180.285 115.031 179.925Z" fill="#333333"/>
<path fill-rule="evenodd" clip-rule="evenodd" d="M397.757 116.353C397.728 115.979 397.699 115.606 397.671 115.235C397.699 115.609 397.728 115.981 397.757 116.353Z" fill="#333333"/>
<path fill-rule="evenodd" clip-rule="evenodd" d="M360.378 193.824C360.835 193.827 361.293 193.83 361.75 193.833C361.292 193.83 360.835 193.827 360.378 193.824Z" fill="#333333"/>
<path fill-rule="evenodd" clip-rule="evenodd" d="M224.421 125.46C224.507 125.732 224.592 126.004 224.678 126.276C224.107 126.414 224.022 126.142 224.421 125.46Z" fill="#333333"/>
<path fill-rule="evenodd" clip-rule="evenodd" d="M145.373 129.257C145.389 129.669 145.405 130.081 145.42 130.491C145.404 130.079 145.388 129.668 145.373 129.257Z" fill="#333333"/>
<path fill-rule="evenodd" clip-rule="evenodd" d="M150.287 195.659C150.736 195.659 151.184 195.658 151.632 195.658C151.183 195.658 150.736 195.659 150.287 195.659Z" fill="#333333"/>
<path fill-rule="evenodd" clip-rule="evenodd" d="M371.325 133.598C371.342 133.977 371.359 134.356 371.376 134.733C371.359 134.353 371.342 133.976 371.325 133.598Z" fill="#333333"/>
<path fill-rule="evenodd" clip-rule="evenodd" d="M140.768 196.121C141.209 195.828 141.651 195.854 142.094 196.116C141.652 196.118 141.21 196.12 140.768 196.121Z" fill="#333333"/>
<path fill-rule="evenodd" clip-rule="evenodd" d="M152.377 67.075C152.401 67.462 152.425 67.8493 152.45 68.2339C152.426 67.8462 152.402 67.4606 152.377 67.075Z" fill="#333333"/>
<path fill-rule="evenodd" clip-rule="evenodd" d="M138.474 196.161C138.933 196.163 139.391 196.165 139.849 196.167C139.389 196.48 138.931 196.494 138.474 196.161Z" fill="#333333"/>
<path fill-rule="evenodd" clip-rule="evenodd" d="M392.284 61.0001C392.288 60.6069 392.292 60.214 392.295 59.8219C392.291 60.2154 392.288 60.6076 392.284 61.0001Z" fill="#333333"/>
<path fill-rule="evenodd" clip-rule="evenodd" d="M181.854 54.1248C182.292 54.1821 182.73 54.2393 183.169 54.2963C182.73 54.239 182.292 54.1821 181.854 54.1248Z" fill="#333333"/>
<path fill-rule="evenodd" clip-rule="evenodd" d="M143.162 88.0553C143.168 88.4224 143.174 88.7898 143.18 89.1552C143.175 88.7874 143.168 88.4214 143.162 88.0553Z" fill="#333333"/>
<path fill-rule="evenodd" clip-rule="evenodd" d="M395.236 88.0027C395.212 87.6288 395.188 87.2548 395.164 86.8826C395.188 87.2572 395.213 87.6302 395.236 88.0027Z" fill="#333333"/>
<path fill-rule="evenodd" clip-rule="evenodd" d="M292.972 195.723C293.513 195.772 294.054 195.821 294.595 195.869C294.054 195.82 293.513 195.772 292.972 195.723Z" fill="#333333"/>
<path fill-rule="evenodd" clip-rule="evenodd" d="M291.165 181.717C290.872 181.721 290.58 181.726 290.29 181.732C290.583 181.728 290.874 181.723 291.165 181.717Z" fill="#333333"/>
<path fill-rule="evenodd" clip-rule="evenodd" d="M291.189 195.508C291.643 195.553 292.097 195.598 292.551 195.642C292.097 195.597 291.643 195.553 291.189 195.508Z" fill="#333333"/>
<path fill-rule="evenodd" clip-rule="evenodd" d="M209.528 164.95C210.118 168.286 204.934 171.549 204.523 166.806C204.372 165.072 205.532 163.853 206.831 162.793C208.674 161.288 209.703 162.729 209.528 164.95Z" fill="#333333"/>
<path fill-rule="evenodd" clip-rule="evenodd" d="M152.379 124.247C153.6 124.747 162.932 127.788 158.085 129.318C156.802 129.722 154.862 129.783 153.75 129.069C152.412 128.211 151.062 125.678 152.379 124.247Z" fill="#333333"/>
<path fill-rule="evenodd" clip-rule="evenodd" d="M154.676 79.0686C157.843 78.7008 160.761 83.903 156.856 83.7342C154.014 83.611 150.191 79.0686 154.676 79.0686Z" fill="#333333"/>
<path fill-rule="evenodd" clip-rule="evenodd" d="M166.006 91.8236C168.651 94.1312 163.749 99.2957 161.802 97.2968C160.808 96.2758 161.725 94.0763 162.545 93.222C163.387 92.3454 164.885 92.1808 166.006 91.8236Z" fill="#333333"/>
<path fill-rule="evenodd" clip-rule="evenodd" d="M173.88 151.647C172.319 151.895 165.452 154.139 166.884 150.064C167.43 148.509 168.954 148.971 170.346 149.042C172.591 149.156 173.88 149.049 173.88 151.647Z" fill="#333333"/>
<path fill-rule="evenodd" clip-rule="evenodd" d="M169.357 162.145C171.694 163.395 168.278 170.393 166.34 168.904C163.652 166.838 167.329 162.773 169.357 162.145Z" fill="#333333"/>
<path fill-rule="evenodd" clip-rule="evenodd" d="M179.551 156.519C180.688 156.055 186.046 161.209 184.006 162.643C182.961 163.377 180.98 162.118 180.35 161.358C179.168 159.934 179.061 158.176 179.551 156.519Z" fill="#333333"/>
<path fill-rule="evenodd" clip-rule="evenodd" d="M148.639 114.394C149.8 114.584 151.806 114.645 151.881 116.277C151.947 117.712 150.148 118.177 148.882 118.289C147.568 118.406 145.828 118.035 145.803 116.383C145.777 114.601 148.597 114.708 148.639 114.394Z" fill="#333333"/>
<path fill-rule="evenodd" clip-rule="evenodd" d="M177.285 185.43C178.522 186.181 184.293 188.885 181.819 190.839C180.894 191.57 178.088 190.06 177.456 189.292C176.702 188.376 175.966 186.23 177.285 185.43Z" fill="#333333"/>
<path fill-rule="evenodd" clip-rule="evenodd" d="M193.327 165.807C193.149 162.823 198.184 161.634 197.14 165.871C196.846 167.066 196.561 168.879 195.084 168.948C193.339 169.03 193.275 166.965 193.327 165.807Z" fill="#333333"/>
<path fill-rule="evenodd" clip-rule="evenodd" d="M177.771 113.902C177.806 116.166 173.467 118.163 173.434 114.574C173.404 111.367 177.933 110.428 177.771 113.902Z" fill="#333333"/>
<path fill-rule="evenodd" clip-rule="evenodd" d="M174.906 102.109C175.975 102.453 177.396 102.631 177.49 103.989C177.59 105.426 176.254 106.066 175.053 105.986C174.068 105.919 172.609 105.19 172.43 104.121C172.168 102.552 173.699 102.449 174.906 102.109Z" fill="#333333"/>
<path fill-rule="evenodd" clip-rule="evenodd" d="M155.027 143.565C155.009 141.696 158.753 139.451 159.443 141.619C159.663 142.313 157.899 145.423 157.312 145.656C155.758 146.273 155.542 144.836 155.027 143.565Z" fill="#333333"/>
<path fill-rule="evenodd" clip-rule="evenodd" d="M185.711 174.663C184.445 175.796 180.65 178.977 180.934 174.706C181.115 171.978 186.045 172.121 185.711 174.663Z" fill="#333333"/>
<path fill-rule="evenodd" clip-rule="evenodd" d="M247.55 186.869C247.965 185.073 253.903 188.189 251.921 190.457C251.256 191.218 249.517 190.529 248.848 190.078C247.525 189.185 247.496 188.36 247.55 186.869Z" fill="#333333"/>
<path fill-rule="evenodd" clip-rule="evenodd" d="M214.464 148.431C214.696 147.63 214.953 146.215 215.717 145.704C217.099 144.779 218.302 146.174 218.302 147.643C218.303 150.384 215.182 151.249 214.464 148.431Z" fill="#333333"/>
<path fill-rule="evenodd" clip-rule="evenodd" d="M199.747 180.481C201.289 180.834 204.722 184.582 202.731 186.111C200.815 187.583 198.266 181.601 199.747 180.481Z" fill="#333333"/>
<path fill-rule="evenodd" clip-rule="evenodd" d="M201.215 152.112C203.197 152.27 205.922 155.48 202.841 155.991C200.43 156.39 197.627 152.898 201.215 152.112Z" fill="#333333"/>
<path fill-rule="evenodd" clip-rule="evenodd" d="M219.161 166.884C219.659 165.21 224.575 167.004 224.299 168.848C224.152 169.828 222.142 170.058 221.085 169.799C219.53 169.417 219.126 168.397 219.161 166.884Z" fill="#333333"/>
<path fill-rule="evenodd" clip-rule="evenodd" d="M161.208 73.3572C161.244 71.1923 165.404 70.3099 165.709 72.4916C165.984 74.4626 161.156 76.5599 161.208 73.3572Z" fill="#333333"/>
<path fill-rule="evenodd" clip-rule="evenodd" d="M217.787 189.191C218.087 188.103 218.216 186.793 219.576 186.649C221.133 186.485 221.087 187.679 220.904 188.916C220.406 192.282 218.504 192.45 217.787 189.191Z" fill="#333333"/>
<path fill-rule="evenodd" clip-rule="evenodd" d="M152.094 99.1143C149.926 99.6036 145.954 95.4269 148.382 94.5307C150.092 93.8984 152.094 97.8542 152.094 99.1143Z" fill="#333333"/>
<path fill-rule="evenodd" clip-rule="evenodd" d="M179.754 131.558C178.651 132.078 178.397 132.393 177.549 131.54C176.81 130.797 176.843 128.728 177.477 127.955C179.904 124.997 179.847 130.361 179.754 131.558Z" fill="#333333"/>
<path fill-rule="evenodd" clip-rule="evenodd" d="M188.759 125.557C189.91 125.704 193.33 128.948 191.549 130.237C189.367 131.817 188.132 126.868 188.759 125.557Z" fill="#333333"/>
<path fill-rule="evenodd" clip-rule="evenodd" d="M213.663 126.411C212.826 129.633 210.738 127.465 210.856 125.027C211.046 121.122 213.211 124.523 213.663 126.411Z" fill="#333333"/>
<path fill-rule="evenodd" clip-rule="evenodd" d="M226.361 178.157C227.777 178.743 229.698 184.154 227.676 184.444C225.406 184.77 226.162 179.284 226.361 178.157Z" fill="#333333"/>
<path fill-rule="evenodd" clip-rule="evenodd" d="M208.684 175.117C210.304 174.571 210.897 177.988 209.956 178.622C207.885 180.019 208.321 175.924 208.684 175.117Z" fill="#333333"/>
<path fill-rule="evenodd" clip-rule="evenodd" d="M193.327 165.807C193.307 166.261 193.286 166.715 193.265 167.165C193.285 166.711 193.306 166.259 193.327 165.807Z" fill="#333333"/>
<path fill-rule="evenodd" clip-rule="evenodd" d="M247.55 186.869C247.533 187.334 247.516 187.799 247.499 188.262C247.515 187.796 247.532 187.333 247.55 186.869Z" fill="#333333"/>
<path fill-rule="evenodd" clip-rule="evenodd" d="M219.161 166.885C219.152 167.279 219.143 167.674 219.132 168.066C219.141 167.67 219.152 167.277 219.161 166.885Z" fill="#333333"/>
<path fill-rule="evenodd" clip-rule="evenodd" d="M398.319 160.094C401.678 159.987 405.424 158.723 408.723 159.125C409.632 159.236 411.723 159.465 410.268 160.812C409.572 161.456 406.239 161.123 405.231 161.337C399.065 162.642 392.066 163.484 385.744 163.375C382.785 163.325 379.803 163.087 376.845 162.931C373.889 162.775 373.598 161.573 376.925 161.191C380.379 160.795 383.924 160.942 387.396 160.938C391.045 160.933 394.677 160.338 398.319 160.094Z" fill="#333333"/>
<path fill-rule="evenodd" clip-rule="evenodd" d="M405.692 152.004C405.368 152.924 405.085 155.036 403.846 155.175C402.111 155.369 401.824 152.39 401.888 151.301C401.966 149.986 402.439 147.802 404.073 148.258C405.453 148.642 405.591 150.952 405.692 152.004Z" fill="#333333"/>
<path fill-rule="evenodd" clip-rule="evenodd" d="M395.19 151.33C395.444 150.344 395.568 148.123 396.962 148.047C398.519 147.963 398.964 150.278 398.954 151.387C398.944 152.44 398.554 154.429 397.314 154.672C395.633 155.002 395.482 152.456 395.19 151.33Z" fill="#333333"/>
<path fill-rule="evenodd" clip-rule="evenodd" d="M377.701 153.098C377.196 154.282 376.862 155.913 375.301 155.106C374.093 154.481 373.925 151.963 374.152 150.809C374.388 149.615 374.888 148.245 376.261 148.782C377.844 149.402 377.684 151.793 377.701 153.098Z" fill="#333333"/>
<path fill-rule="evenodd" clip-rule="evenodd" d="M390.945 152.004C389.456 156.516 386.741 153.463 387.772 150.094C388.85 146.573 390.808 149.993 390.945 152.004Z" fill="#333333"/>
<path fill-rule="evenodd" clip-rule="evenodd" d="M383.692 152.227C383.279 153.022 382.839 154.736 381.724 154.555C380.358 154.334 380.314 151.705 380.464 150.726C380.595 149.869 380.98 148.44 382.124 148.459C383.776 148.486 383.665 151.199 383.692 152.227Z" fill="#333333"/>
<path fill-rule="evenodd" clip-rule="evenodd" d="M413.387 153.093C412.278 155.58 410.754 153.438 411.242 151.672C411.966 149.053 413.324 151.374 413.387 153.093Z" fill="#333333"/>
<path fill-rule="evenodd" clip-rule="evenodd" d="M386.247 160.941C385.037 160.936 383.827 160.931 382.616 160.927C383.828 160.699 385.039 160.61 386.247 160.941Z" fill="#333333"/>
<path fill-rule="evenodd" clip-rule="evenodd" d="M410.298 159.115C409.248 159.122 408.199 159.128 407.149 159.135C408.197 158.821 409.247 158.814 410.298 159.115Z" fill="#333333"/>
<path fill-rule="evenodd" clip-rule="evenodd" d="M398.319 160.094C397.479 160.151 396.639 160.207 395.799 160.263C396.64 160.207 397.479 160.151 398.319 160.094Z" fill="#333333"/>
<path fill-rule="evenodd" clip-rule="evenodd" d="M377.701 153.098C377.694 152.494 377.685 151.891 377.678 151.29C377.989 151.889 377.967 152.492 377.701 153.098Z" fill="#333333"/>
<path fill-rule="evenodd" clip-rule="evenodd" d="M384.286 163.363C384.774 163.367 385.261 163.371 385.744 163.376C385.255 163.371 384.771 163.367 384.286 163.363Z" fill="#333333"/>
<path fill-rule="evenodd" clip-rule="evenodd" d="M376.105 162.931C376.599 162.931 377.093 162.931 377.582 162.931C377.087 162.931 376.596 162.931 376.105 162.931Z" fill="#333333"/>
<path fill-rule="evenodd" clip-rule="evenodd" d="M380.151 160.993C379.465 161.049 378.779 161.105 378.093 161.162C378.779 161.105 379.465 161.049 380.151 160.993Z" fill="#333333"/>
<path fill-rule="evenodd" clip-rule="evenodd" d="M389.428 160.933C388.75 160.935 388.073 160.936 387.396 160.937C388.073 160.652 388.75 160.644 389.428 160.933Z" fill="#333333"/>
<path fill-rule="evenodd" clip-rule="evenodd" d="M383.692 152.227C383.675 151.599 383.659 150.97 383.643 150.342C383.66 150.971 383.676 151.599 383.692 152.227Z" fill="#333333"/>
<path fill-rule="evenodd" clip-rule="evenodd" d="M374.153 150.809C374.149 151.422 374.145 152.036 374.14 152.646C374.144 152.032 374.148 151.421 374.153 150.809Z" fill="#333333"/>
<path fill-rule="evenodd" clip-rule="evenodd" d="M402.169 159.866C401.57 159.92 400.971 159.974 400.373 160.028C400.972 159.974 401.571 159.92 402.169 159.866Z" fill="#333333"/>
<path fill-rule="evenodd" clip-rule="evenodd" d="M413.387 153.093C413.367 152.558 413.348 152.022 413.329 151.487C413.348 152.023 413.367 152.558 413.387 153.093Z" fill="#333333"/>
<path fill-rule="evenodd" clip-rule="evenodd" d="M387.906 163.381C388.323 163.373 388.74 163.365 389.153 163.358C388.734 163.366 388.32 163.373 387.906 163.381Z" fill="#333333"/>
<path fill-rule="evenodd" clip-rule="evenodd" d="M405.692 152.004C405.655 151.619 405.618 151.234 405.582 150.85C405.619 151.236 405.655 151.62 405.692 152.004Z" fill="#333333"/>
<path fill-rule="evenodd" clip-rule="evenodd" d="M390.945 152.004C390.918 151.609 390.891 151.213 390.864 150.819C390.891 151.214 390.918 151.609 390.945 152.004Z" fill="#333333"/>
<path fill-rule="evenodd" clip-rule="evenodd" d="M175.956 35.8592C174.316 35.429 174.009 33.1248 174.272 31.7096C174.571 31.0276 174.87 30.3458 175.168 29.6638C175.051 29.4116 174.935 29.1595 174.818 28.9073C174.968 27.5027 174.585 26.8923 176.199 27.4612C179.198 28.5186 179.677 35.7508 175.956 35.8592Z" fill="#333333"/>
<path fill-rule="evenodd" clip-rule="evenodd" d="M200.226 31.404C201.577 31.2977 204.03 32.8707 202.686 34.3926C201.853 35.3354 199.108 34.8894 197.988 35.0864C196.503 35.3475 194.954 35.7046 195.757 33.48C196.388 31.7331 198.641 31.3584 200.226 31.404Z" fill="#333333"/>
<path fill-rule="evenodd" clip-rule="evenodd" d="M198.805 41.868C197.433 40.7677 198.045 35.7562 200.133 36.6579C202.281 37.5859 199.95 41.1447 198.805 41.868Z" fill="#333333"/>
<path fill-rule="evenodd" clip-rule="evenodd" d="M174.272 31.7096C174.272 32.2369 174.272 32.7646 174.271 33.2895C173.984 32.7611 173.993 32.2352 174.272 31.7096Z" fill="#333333"/>
<path fill-rule="evenodd" clip-rule="evenodd" d="M175.956 35.8593C176.235 35.8514 176.515 35.8431 176.791 35.8359C176.51 35.8449 176.233 35.8521 175.956 35.8593Z" fill="#333333"/>
<path fill-rule="evenodd" clip-rule="evenodd" d="M345.365 180.184C345.237 182.463 342.789 180.778 342.962 179.253C343.278 176.486 344.842 179.22 345.365 180.184Z" fill="#333333"/>
</svg>
